<svg enable-background="new 0 0 1127 331" viewBox="0 0 1127 331" xmlns="http://www.w3.org/2000/svg" xmlns:xlink="http://www.w3.org/1999/xlink"><clipPath id="a"><path d="m1127 321.3c0 5.3-4.3 9.7-9.6 9.7h-1107.8c-5.3 0-9.6-4.3-9.6-9.7v-311.6c0-5.4 4.3-9.7 9.6-9.7h1107.7c5.3 0 9.6 4.3 9.6 9.7v311.6z"/></clipPath><clipPath id="b"><path d="m-396-2791h1920v3909h-1920z"/></clipPath><clipPath id="c"><path d="m47 80h1033v181h-1033z"/></clipPath><clipPath id="d"><path d="m50 190.3 205.6-25.1 211.4-10.7 191.1-58 213.3 30 205.6-43.5v175h-1027z"/></clipPath><clipPath id="e"><path d="m49 82h1029v177h-1029z"/></clipPath><clipPath id="f"><path d="m49 82h1029v177h-1029z"/></clipPath><clipPath id="g"><path d="m57 190h1013v2h-1013z"/></clipPath><clipPath id="h"><path d="m1069 191.1h-1011c-.3 0-.5-.2-.5-.5s.2-.5.5-.5h1011c.3 0 .5.2.5.5s-.2.5-.5.5z"/></clipPath><clipPath id="i"><path d="m57 189h1014v3h-1014z"/></clipPath><clipPath id="j"><path d="m49 257h1029v2h-1029z"/></clipPath><clipPath id="k"><path d="m1076.7 258.8h-1026.5c-.3 0-.5-.2-.5-.5s.2-.5.5-.5h1026.5c.3 0 .5.2.5.5s-.2.5-.5.5z"/></clipPath><clipPath id="l"><path d="m49 256h1029v3h-1029z"/></clipPath><clipPath id="m"><path d="m49 122h1021v2h-1021z"/></clipPath><clipPath id="n"><path d="m1069 123.5h-1018.8c-.3 0-.5-.2-.5-.5s.2-.5.5-.5h1018.8c.3 0 .5.2.5.5s-.2.5-.5.5z"/></clipPath><clipPath id="o"><path d="m49 121h1021v3h-1021z"/></clipPath><clipPath id="p"><path d="m49 54h1021v2h-1021z"/></clipPath><clipPath id="q"><path d="m1069 55.8h-1018.8c-.3 0-.5-.2-.5-.5s.2-.5.5-.5h1018.8c.3 0 .5.2.5.5s-.2.5-.5.5z"/></clipPath><clipPath id="r"><path d="m49 54h1021v2h-1021z"/></clipPath><clipPath id="s"><path d="m468 215.8c-.8 0-1.4-.7-1.4-1.4v-45.4c0-.8.7-1.4 1.4-1.4s1.4.7 1.4 1.4v45.4c0 .8-.7 1.4-1.4 1.4z"/></clipPath><clipPath id="t"><path d="m-396-2791h1920v3909h-1920z"/></clipPath><clipPath id="u"><path d="m254.8 215.8c-.8 0-1.4-.7-1.4-1.4v-35.8c0-.8.7-1.4 1.4-1.4.8 0 1.4.7 1.4 1.4v35.8c0 .8-.7 1.4-1.4 1.4z"/></clipPath><clipPath id="v"><path d="m-396-2791h1920v3909h-1920z"/></clipPath><clipPath id="w"><path d="m50.4 192.6-.4-3.8 205.5-25.2h.1l211.1-10.5 191.1-58.1.5.1 212.8 29.8 205.2-43.4.8 3.8-205.8 43.6-213.1-30-190.9 57.9h-.2l-211.2 10.7z"/></clipPath><clipPath id="x"><path d="m-396-2791h1920v3909h-1920z"/></clipPath><clipPath id="y"><ellipse cx="51.2" cy="189.7" rx="7.7" ry="7.7"/></clipPath><clipPath id="z"><path d="m-396-2791h1920v3909h-1920z"/></clipPath><clipPath id="A"><path d="m51.2 182.3c-4.1 0-7.3 3.3-7.3 7.3 0 4.1 3.3 7.3 7.3 7.3s7.3-3.3 7.3-7.3-3.2-7.3-7.3-7.3zm0 15.5c-4.4 0-8.1-3.7-8.1-8.1s3.7-8.1 8.1-8.1 8.1 3.7 8.1 8.1-3.7 8.1-8.1 8.1z"/></clipPath><clipPath id="B"><path d="m-396-2791h1920v3909h-1920z"/></clipPath><clipPath id="C"><ellipse cx="254.8" cy="166.5" rx="7.7" ry="7.7"/></clipPath><clipPath id="D"><path d="m-396-2791h1920v3909h-1920z"/></clipPath><clipPath id="E"><ellipse cx="468" cy="154.9" rx="7.7" ry="7.7"/></clipPath><clipPath id="F"><path d="m-396-2791h1920v3909h-1920z"/></clipPath><clipPath id="G"><path d="m468 147.5c-4.1 0-7.3 3.3-7.3 7.3 0 4.1 3.3 7.3 7.3 7.3 4.1 0 7.3-3.3 7.3-7.3s-3.3-7.3-7.3-7.3zm0 15.5c-4.4 0-8.1-3.7-8.1-8.1s3.7-8.1 8.1-8.1 8.1 3.7 8.1 8.1-3.7 8.1-8.1 8.1z"/></clipPath><clipPath id="H"><path d="m-396-2791h1920v3909h-1920z"/></clipPath><clipPath id="I"><path d="m1074.8 98.8c-.8 0-1.4-.7-1.4-1.4v-4.8c0-.8.7-1.4 1.4-1.4.8 0 1.4.7 1.4 1.4v4.8c0 .9-.6 1.4-1.4 1.4z"/></clipPath><clipPath id="J"><path d="m-396-2791h1920v3909h-1920z"/></clipPath><clipPath id="K"><path d="m1074.8 118.5c-.8 0-1.4-.7-1.4-1.4v-9.9c0-.8.7-1.4 1.4-1.4.8 0 1.4.7 1.4 1.4v9.8c0 .8-.6 1.5-1.4 1.5zm0 19.5c-.8 0-1.4-.7-1.4-1.4v-9.8c0-.8.7-1.4 1.4-1.4.8 0 1.4.7 1.4 1.4v9.8c0 .7-.6 1.4-1.4 1.4zm0 19.5c-.8 0-1.4-.7-1.4-1.4v-9.8c0-.8.7-1.4 1.4-1.4.8 0 1.4.7 1.4 1.4v9.8c0 .7-.6 1.4-1.4 1.4zm0 19.5c-.8 0-1.4-.7-1.4-1.4v-9.8c0-.8.7-1.4 1.4-1.4.8 0 1.4.7 1.4 1.4v9.8c0 .8-.6 1.4-1.4 1.4z"/></clipPath><clipPath id="L"><path d="m-396-2791h1920v3909h-1920z"/></clipPath><clipPath id="M"><path d="m1074.8 191.6c-.8 0-1.4-.7-1.4-1.4v-4.8c0-.8.7-1.4 1.4-1.4.8 0 1.4.7 1.4 1.4v4.8c0 .8-.6 1.4-1.4 1.4z"/></clipPath><clipPath id="N"><path d="m-396-2791h1920v3909h-1920z"/></clipPath><clipPath id="O"><ellipse cx="658" cy="96.9" rx="7.7" ry="7.7"/></clipPath><clipPath id="P"><path d="m-396-2791h1920v3909h-1920z"/></clipPath><clipPath id="Q"><path d="m658 89.6c-4.1 0-7.3 3.3-7.3 7.3 0 4.1 3.3 7.3 7.3 7.3 4.1 0 7.3-3.3 7.3-7.3.1-4.1-3.2-7.3-7.3-7.3zm0 15.4c-4.4 0-8.1-3.7-8.1-8.1s3.7-8.1 8.1-8.1 8.1 3.7 8.1 8.1c0 4.5-3.6 8.1-8.1 8.1z"/></clipPath><clipPath id="R"><path d="m-396-2791h1920v3909h-1920z"/></clipPath><clipPath id="S"><ellipse cx="871.2" cy="125.9" rx="7.7" ry="7.7"/></clipPath><clipPath id="T"><path d="m-396-2791h1920v3909h-1920z"/></clipPath><clipPath id="U"><path d="m871.2 118.6c-4.1 0-7.3 3.3-7.3 7.3 0 4.1 3.3 7.3 7.3 7.3 4.1 0 7.3-3.3 7.3-7.3.1-4.1-3.2-7.3-7.3-7.3zm0 15.4c-4.4 0-8.1-3.7-8.1-8.1s3.7-8.1 8.1-8.1 8.1 3.7 8.1 8.1c0 4.5-3.6 8.1-8.1 8.1z"/></clipPath><clipPath id="V"><path d="m-396-2791h1920v3909h-1920z"/></clipPath><clipPath id="W"><path d="m1074.8 92.1c4.3 0 7.7-3.5 7.7-7.7 0-4.3-3.5-7.7-7.7-7.7-4.3 0-7.7 3.5-7.7 7.7s3.4 7.7 7.7 7.7z"/></clipPath><clipPath id="X"><path d="m-396-2791h1920v3909h-1920z"/></clipPath><clipPath id="Y"><path d="m342.9 226s-.6-1.2-1.9-1.2c-1.4 0-2.2 1.1-2.2 2.4 0 1.4.9 2.4 2.2 2.4 1.4 0 1.9-1.2 1.9-1.2zm2.2 5.4h-1.9v-1.1s-.7 1.3-2.5 1.3c-2.1 0-4.1-1.8-4.1-4.3s1.8-4.3 4.1-4.3c1.5 0 2.3 1.1 2.3 1.1v-5.8h2.1zm-11.5-4.9c0-.7-.7-1.6-2-1.6-1.4 0-1.9 1-2 1.6zm2 .8v.8h-6.2c.2.8 1 1.6 2.3 1.6 1.4 0 2.2-.9 2.2-.9l1.1 1.5s-1.4 1.2-3.3 1.2c-2.5 0-4.4-1.9-4.4-4.3s1.7-4.3 4.1-4.3 4.2 1.8 4.2 4.4zm-15.6-4.2h1.6v-2.4h2.1v2.4h2.5v1.8h-2.5v3.3c0 1 .5 1.4 1.1 1.4.5 0 .9-.3.9-.3l.8 1.7s-.8.6-2 .6c-1.6 0-2.8-1.2-2.8-2.9v-3.7h-1.7zm-2.9 3.4c0-.7-.7-1.6-2-1.6-1.4 0-1.9 1-2 1.6zm2 .8v.8h-6.2c.2.8 1 1.6 2.3 1.6 1.4 0 2.2-.9 2.2-.9l1.1 1.5s-1.4 1.2-3.3 1.2c-2.5 0-4.4-1.9-4.4-4.3s1.7-4.3 4.1-4.3 4.2 1.8 4.2 4.4zm-12-9.1h2.1v13.1h-2.1zm-8.2 10.3s.6 1.2 1.9 1.2c1.4 0 2.2-1.1 2.2-2.4 0-1.4-.9-2.4-2.2-2.4-1.4 0-1.9 1.2-1.9 1.2zm-.1-5.4v1.1s.8-1.3 2.5-1.3c2.1 0 4.1 1.8 4.1 4.3s-1.8 4.3-4.1 4.3c-1.4 0-2-.7-2.3-1.1v4.8h-2.1v-12.3h1.9zm-4.1 3v5.3h-2.1v-4.7c0-1.2-.5-1.7-1.4-1.7-1.1 0-1.6 1.1-1.6 1.1v5.4h-2.1v-4.7c0-1.2-.5-1.7-1.4-1.7-1.1 0-1.6 1.1-1.6 1.1v5.4h-2v-8.3h1.9v1.2s.8-1.4 2.4-1.4c2 0 2.5 1.4 2.5 1.4s.7-1.4 2.6-1.4c1.6-.2 2.8 1 2.8 3zm-16 1.2c0-1.3-.9-2.4-2.3-2.4s-2.3 1.1-2.3 2.4.9 2.4 2.3 2.4 2.3-1.2 2.3-2.4zm2.1 0c0 2.4-1.9 4.3-4.4 4.3-2.4 0-4.4-1.9-4.4-4.3s1.9-4.3 4.4-4.3c2.4-.1 4.4 1.9 4.4 4.3zm-11 .8 1.4 1.4s-1.6 2-4.6 2c-3.5 0-6.2-2.7-6.2-6.3s2.7-6.3 6.2-6.3c2.9 0 4.5 1.9 4.5 1.9l-1.4 1.4s-1.1-1.4-3.1-1.4c-2.4 0-4.1 2-4.1 4.3s1.6 4.3 4.1 4.3c2.1.3 3.2-1.3 3.2-1.3zm-22-5h1.6v-2.4h2.1v2.4h2.5v1.8h-2.5v3.3c0 1 .5 1.4 1.1 1.4.5 0 .9-.3.9-.3l.8 1.7s-.8.6-2 .6c-1.6 0-2.8-1.2-2.8-2.9v-3.7h-1.6v-1.9zm-.4.1-.8 1.8s-.4-.2-1-.2c-1.3 0-1.8 1.2-1.8 1.2v5.4h-2.1v-8.3h2v1.2s.7-1.4 2.2-1.4c.9 0 1.5.3 1.5.3zm-9.3 4.1c0-1.3-.9-2.4-2.3-2.4s-2.3 1.1-2.3 2.4.9 2.4 2.3 2.4 2.3-1.2 2.3-2.4zm2.1 0c0 2.4-1.9 4.3-4.4 4.3-2.4 0-4.4-1.9-4.4-4.3s1.9-4.3 4.4-4.3c2.5-.1 4.4 1.9 4.4 4.3zm-16.1 1.2s.6 1.2 1.9 1.2c1.4 0 2.2-1.1 2.2-2.4 0-1.4-.9-2.4-2.2-2.4-1.4 0-1.9 1.2-1.9 1.2zm-.1-5.4v1.1s.8-1.3 2.5-1.3c2.1 0 4.1 1.8 4.1 4.3s-1.8 4.3-4.1 4.3c-1.4 0-2-.7-2.3-1.1v4.8h-2.1v-12.3h1.9zm-5.6 3.4c0-.7-.7-1.6-2-1.6-1.4 0-1.9 1-2 1.6zm2.1.8v.8h-6.2c.2.8 1 1.6 2.3 1.6 1.4 0 2.2-.9 2.2-.9l1.1 1.5s-1.4 1.2-3.3 1.2c-2.5 0-4.4-1.9-4.4-4.3s1.7-4.3 4.1-4.3c2.3 0 4.2 1.8 4.2 4.4zm-11.7-4.3c0-1.2-.9-1.8-2.2-1.8h-1.6v3.6h1.6c1.4.1 2.2-.6 2.2-1.8zm-5.9-3.7h4c2.4 0 4.1 1.5 4.1 3.8 0 1.8-1 3.2-2.7 3.7l3.1 4.7h-2.4l-2.9-4.6h-1v4.6h-2.1v-12.2zm-9.1 6c0-2.3-1.5-4.3-4.1-4.3-2.4 0-4.1 1.9-4.1 4.3s1.5 4.3 4.1 4.3c2.5 0 4.1-1.9 4.1-4.3zm2.1 0c0 3.6-2.6 6.3-6.2 6.3s-6.2-2.7-6.2-6.3 2.6-6.3 6.2-6.3 6.2 2.7 6.2 6.3zm-19-1.1h4.8v2h-4.8v3.3h5.4v2h-7.4v-12.3h7.3v2h-5.3zm-8.6 2.1c-1.8-.6-3.8-1.6-3.8-3.9 0-1.7 1.5-3.5 4-3.5s4 1.9 4 1.9l-1.4 1.4s-1-1.4-2.5-1.4c-1.1 0-1.8.7-1.8 1.4 0 1.1 1 1.4 2.6 2 1.8.7 3.4 1.5 3.4 3.8s-1.9 3.4-4.2 3.4c-3.1 0-4.4-2.5-4.4-2.5l1.5-1.4s1.1 1.8 2.9 1.8c1.1 0 2.1-.4 2.1-1.4-.2-.7-.9-1.1-2.4-1.6z"/></clipPath><clipPath id="Z"><path d="m-396-2791h1920v3909h-1920z"/></clipPath><clipPath id="aa"><path d="m222.6 272.1h1.1v6.5c0 1.4-1 2.5-2.6 2.5-1.4 0-2.3-1.3-2.3-1.3l.8-.7s.5 1 1.5 1c1.2 0 1.5-.8 1.5-1.4 0-3 0-6.6 0-6.6z"/></clipPath><clipPath id="ab"><path d="m-396-2791h1920v3909h-1920z"/></clipPath><clipPath id="ac"><path d="m229.3 279.3v-.8s-.6-.4-1.5-.4-1.4.5-1.4 1.1c0 .8.7 1.1 1.4 1.1.9-.2 1.5-1 1.5-1zm1.1-2.3v3.9h-1v-.9s-.7 1-1.9 1c-1.1 0-2.1-.8-2.1-2s1-1.9 2.3-1.9c1.1 0 1.7.5 1.7.5v-.3c0-1.2-1-1.4-1.4-1.4-.9 0-1.7.5-1.7.5l-.5-.9s.9-.6 2.1-.6c1.7 0 2.5 1.1 2.5 2.1z"/></clipPath><clipPath id="ad"><path d="m-396-2791h1920v3909h-1920z"/></clipPath><clipPath id="ae"><path d="m236.9 277.1v3.8h-1.1v-3.6c0-1-.6-1.4-1.4-1.4-1 0-1.4 1-1.4 1v4h-1v-5.9h1v.8s.5-1 1.7-1c1.2.1 2.2.9 2.2 2.3z"/></clipPath><clipPath id="af"><path d="m-396-2791h1920v3909h-1920z"/></clipPath><clipPath id="ag"><path d="m238.6 278.8v-3.8h1.1v3.6c0 1 .6 1.4 1.4 1.4 1 0 1.4-1 1.4-1v-4h1.1v5.8h-1v-.9s-.5 1.1-1.7 1.1c-1.4 0-2.3-.8-2.3-2.2z"/></clipPath><clipPath id="ah"><path d="m-396-2791h1920v3909h-1920z"/></clipPath><clipPath id="ai"><path d="m248.9 279.3v-.8s-.6-.4-1.5-.4-1.4.5-1.4 1.1c0 .8.7 1.1 1.4 1.1.8-.2 1.5-1 1.5-1zm.9-2.3v3.9h-1v-.9s-.7 1-1.9 1c-1.1 0-2.1-.8-2.1-2s1-1.9 2.3-1.9c1.1 0 1.7.5 1.7.5v-.3c0-1.2-1-1.4-1.4-1.4-.9 0-1.7.5-1.7.5l-.5-.9s.9-.6 2.1-.6c1.8 0 2.5 1.1 2.5 2.1z"/></clipPath><clipPath id="aj"><path d="m-396-2791h1920v3909h-1920z"/></clipPath><clipPath id="ak"><path d="m255 275.1-.4 1s-.2-.1-.7-.1c-.9 0-1.4 1-1.4 1v4h-1.1v-5.8h1v.9s.5-1.1 1.6-1.1c.6-.1 1 .1 1 .1z"/></clipPath><clipPath id="al"><path d="m-396-2791h1920v3909h-1920z"/></clipPath><clipPath id="am"><path d="m255.7 282.6s.4.3.7.3c.5 0 .7-.3.9-.9l.5-1.2-2.7-5.8h1.2l2 4.5 1.7-4.5h1.2s-2.9 7.3-3.1 7.6c-.4.9-1 1.2-1.6 1.2-.7 0-1.3-.4-1.3-.4z"/></clipPath><clipPath id="an"><path d="m-396-2791h1920v3909h-1920z"/></clipPath><clipPath id="ao"><path d="m268.5 276.8c.3-.4 1.2-1.4 1.2-2.3s-.5-1.6-1.6-1.6c-1.4 0-1.7 1.4-1.7 1.4l-.9-.4s.5-2 2.6-2c1.6 0 2.7 1.2 2.7 2.6 0 1.2-.8 2-.9 2.3l-2.3 3.1h3.3v1h-5.3z"/></clipPath><clipPath id="ap"><path d="m-396-2791h1920v3909h-1920z"/></clipPath><clipPath id="aq"><path d="m277.2 276.5c0-1.7-.6-3.6-2.1-3.6s-2.1 1.8-2.1 3.6.6 3.6 2.1 3.6c1.6-.1 2.1-1.9 2.1-3.6zm1.1 0c0 2.3-1 4.5-3.2 4.5s-3.2-2.2-3.2-4.5 1-4.5 3.2-4.5c2.2-.1 3.2 2.1 3.2 4.5z"/></clipPath><clipPath id="ar"><path d="m-396-2791h1920v3909h-1920z"/></clipPath><clipPath id="as"><path d="m281.5 272.1h1v8.8h-1.1v-7.4l-1.7 1.3-.5-.8z"/></clipPath><clipPath id="at"><path d="m-396-2791h1920v3909h-1920z"/></clipPath><clipPath id="au"><path d="m289.1 274.8c0-1.1-.7-1.9-1.8-1.9-1.2 0-1.8.9-1.8 1.9s.7 1.9 1.8 1.9c1.1.1 1.8-.8 1.8-1.9zm-1.2 2.7s-.2.2-.7.2c-1.8 0-2.9-1.4-2.9-2.9s1.1-2.9 2.9-2.9 2.9 1.4 2.9 2.9c0 .5-.1 1-.4 1.4-.2.4-2.9 4.9-2.9 4.9l-.9-.6z"/></clipPath><clipPath id="av"><path d="m-396-2791h1920v3909h-1920z"/></clipPath><clipPath id="aw"><path d="m431.5 275.9h3.7v.9h-3.7v4h-1.1v-8.8h5v1h-3.9z"/></clipPath><clipPath id="ax"><path d="m-396-2791h1920v3909h-1920z"/></clipPath><clipPath id="ay"><path d="m440.8 277.5c0-.7-.7-1.5-1.8-1.5-1.3 0-1.7 1-1.8 1.5zm1 .5v.4h-4.6c.1.9.9 1.7 2 1.7 1.2 0 1.7-.9 1.7-.9l.7.7s-.9 1.2-2.4 1.2c-1.7 0-3-1.4-3-3.1s1.2-3.1 2.9-3.1c1.6 0 2.7 1.3 2.7 3.1z"/></clipPath><clipPath id="az"><path d="m-396-2791h1920v3909h-1920z"/></clipPath><clipPath id="aA"><path d="m444.3 279.1s.6 1 1.7 1c1.2 0 1.9-1 1.9-2 0-1.2-.8-2-1.9-2-1.2 0-1.7 1-1.7 1zm4.7-1.1c0 1.7-1.3 3.1-2.8 3.1-1.4 0-1.9-1-1.9-1v.9h-1v-9.5h1.1v4.4s.6-.9 1.8-.9c1.5-.1 2.8 1.3 2.8 3z"/></clipPath><clipPath id="aB"><path d="m-396-2791h1920v3909h-1920z"/></clipPath><clipPath id="aC"><path d="m450.2 278.8v-3.8h1.1v3.6c0 1 .6 1.4 1.4 1.4 1 0 1.4-1 1.4-1v-4h1.1v5.8h-1v-.9s-.5 1.1-1.7 1.1-2.3-.8-2.3-2.2z"/></clipPath><clipPath id="aD"><path d="m-396-2791h1920v3909h-1920z"/></clipPath><clipPath id="aE"><path d="m460.2 275.1-.4 1s-.2-.1-.7-.1c-.9 0-1.4 1-1.4 1v4h-1.1v-5.8h1v.9s.5-1.1 1.6-1.1c.6-.1 1 .1 1 .1z"/></clipPath><clipPath id="aF"><path d="m-396-2791h1920v3909h-1920z"/></clipPath><clipPath id="aG"><path d="m464.6 279.3v-.8s-.6-.4-1.5-.4-1.4.5-1.4 1.1c0 .8.7 1.1 1.4 1.1.9-.2 1.5-1 1.5-1zm1.1-2.3v3.9h-1v-.9s-.7 1-1.9 1c-1.1 0-2.1-.8-2.1-2s1-1.9 2.3-1.9c1.1 0 1.7.5 1.7.5v-.3c0-1.2-1-1.4-1.4-1.4-.9 0-1.7.5-1.7.5l-.5-.9s.9-.6 2.1-.6c1.7 0 2.5 1.1 2.5 2.1z"/></clipPath><clipPath id="aH"><path d="m-396-2791h1920v3909h-1920z"/></clipPath><clipPath id="aI"><path d="m470.7 275.1-.4 1s-.2-.1-.7-.1c-.9 0-1.4 1-1.4 1v4h-1.1v-5.8h1v.9s.5-1.1 1.6-1.1c.7-.1 1 .1 1 .1z"/></clipPath><clipPath id="aJ"><path d="m-396-2791h1920v3909h-1920z"/></clipPath><clipPath id="aK"><path d="m471.5 282.6s.4.3.7.3c.5 0 .7-.3.9-.9l.5-1.2-2.7-5.8h1.2l2 4.5 1.7-4.5h1.2s-2.9 7.3-3.1 7.6c-.4.9-1 1.2-1.6 1.2-.7 0-1.3-.4-1.3-.4z"/></clipPath><clipPath id="aL"><path d="m-396-2791h1920v3909h-1920z"/></clipPath><clipPath id="aM"><path d="m484.3 276.8c.3-.4 1.2-1.4 1.2-2.3s-.5-1.6-1.6-1.6c-1.4 0-1.7 1.4-1.7 1.4l-.9-.4s.5-2 2.6-2c1.6 0 2.7 1.2 2.7 2.6 0 1.2-.8 2-.9 2.3l-2.3 3.1h3.3v1h-5.3z"/></clipPath><clipPath id="aN"><path d="m-396-2791h1920v3909h-1920z"/></clipPath><clipPath id="aO"><path d="m493.1 276.5c0-1.7-.6-3.6-2.1-3.6s-2.1 1.8-2.1 3.6.6 3.6 2.1 3.6 2.1-1.9 2.1-3.6zm1 0c0 2.3-1 4.5-3.2 4.5s-3.2-2.2-3.2-4.5 1-4.5 3.2-4.5 3.2 2.1 3.2 4.5z"/></clipPath><clipPath id="aP"><path d="m-396-2791h1920v3909h-1920z"/></clipPath><clipPath id="aQ"><path d="m497.3 272.1h1v8.8h-1.1v-7.4l-1.6 1.3-.6-.8z"/></clipPath><clipPath id="aR"><path d="m-396-2791h1920v3909h-1920z"/></clipPath><clipPath id="aS"><path d="m504.9 274.8c0-1.1-.7-1.9-1.8-1.9-1.2 0-1.8.9-1.8 1.9s.7 1.9 1.8 1.9c1.1.1 1.8-.8 1.8-1.9zm-1.2 2.7s-.2.2-.7.2c-1.8 0-2.9-1.4-2.9-2.9s1.1-2.9 2.9-2.9 2.9 1.4 2.9 2.9c0 .5-.1 1-.4 1.4-.2.4-2.9 4.9-2.9 4.9l-.9-.6z"/></clipPath><clipPath id="aT"><path d="m-396-2791h1920v3909h-1920z"/></clipPath><clipPath id="aU"><path d="m628.7 272.1 3 4.9 3-4.9h1v8.8h-1v-6.9l-3 5-3-4.9v6.9h-1.1v-8.8h1.1z"/></clipPath><clipPath id="aV"><path d="m-396-2791h1920v3909h-1920z"/></clipPath><clipPath id="aW"><path d="m641.3 279.3v-.8s-.6-.4-1.5-.4-1.4.5-1.4 1.1c0 .8.7 1.1 1.4 1.1.9-.2 1.5-1 1.5-1zm1.1-2.3v3.9h-1v-.9s-.7 1-1.9 1c-1.1 0-2.1-.8-2.1-2s1-1.9 2.3-1.9c1.1 0 1.7.5 1.7.5v-.3c0-1.2-1-1.4-1.4-1.4-.9 0-1.7.5-1.7.5l-.5-.9s.9-.6 2.1-.6c1.6 0 2.5 1.1 2.5 2.1z"/></clipPath><clipPath id="aX"><path d="m-396-2791h1920v3909h-1920z"/></clipPath><clipPath id="aY"><path d="m647.4 275.1-.4 1s-.2-.1-.7-.1c-.9 0-1.4 1-1.4 1v4h-1.1v-5.8h1v.9s.5-1.1 1.6-1.1c.6-.1 1 .1 1 .1z"/></clipPath><clipPath id="aZ"><path d="m-396-2791h1920v3909h-1920z"/></clipPath><clipPath id="a0"><path d="m653 279.9s-.9 1.2-2.4 1.2c-1.7 0-3-1.4-3-3.1s1.3-3.1 3-3.1c1.4 0 2.3 1.1 2.3 1.1l-.7.7s-.6-.7-1.6-.7c-1.2 0-1.9 1-1.9 2 0 1.2.8 2 1.9 2s1.7-.9 1.7-.9z"/></clipPath><clipPath id="a1"><path d="m-396-2791h1920v3909h-1920z"/></clipPath><clipPath id="a2"><path d="m659.2 277.1v3.8h-1.1v-3.6c0-1-.6-1.4-1.4-1.4-1 0-1.4 1-1.4 1v4h-1.1v-9.5h1.1v4.3c.2-.3.7-.9 1.7-.9 1.1.1 2.2.9 2.2 2.3z"/></clipPath><clipPath id="a3"><path d="m-396-2791h1920v3909h-1920z"/></clipPath><clipPath id="a4"><path d="m667.2 276.8c.3-.4 1.2-1.4 1.2-2.3s-.5-1.6-1.6-1.6c-1.4 0-1.7 1.4-1.7 1.4l-.9-.4s.5-2 2.6-2c1.6 0 2.7 1.2 2.7 2.6 0 1.2-.8 2-.9 2.3l-2.3 3.1h3.3v1h-5.3z"/></clipPath><clipPath id="a5"><path d="m-396-2791h1920v3909h-1920z"/></clipPath><clipPath id="a6"><path d="m676 276.5c0-1.7-.6-3.6-2.1-3.6s-2.1 1.8-2.1 3.6.6 3.6 2.1 3.6c1.5-.1 2.1-1.9 2.1-3.6zm1 0c0 2.3-1 4.5-3.2 4.5s-3.2-2.2-3.2-4.5 1-4.5 3.2-4.5c2.3-.1 3.2 2.1 3.2 4.5z"/></clipPath><clipPath id="a7"><path d="m-396-2791h1920v3909h-1920z"/></clipPath><clipPath id="a8"><path d="m680.2 272.1h1v8.8h-1.1v-7.4l-1.6 1.3-.6-.8z"/></clipPath><clipPath id="a9"><path d="m-396-2791h1920v3909h-1920z"/></clipPath><clipPath id="ba"><path d="m687.8 274.8c0-1.1-.7-1.9-1.8-1.9s-1.8.9-1.8 1.9.7 1.9 1.8 1.9 1.8-.8 1.8-1.9zm-1.1 2.7s-.2.2-.7.2c-1.8 0-2.9-1.4-2.9-2.9s1.1-2.9 2.9-2.9 2.9 1.4 2.9 2.9c0 .5-.1 1-.4 1.4-.2.4-2.9 4.9-2.9 4.9l-.9-.6z"/></clipPath><clipPath id="bb"><path d="m-396-2791h1920v3909h-1920z"/></clipPath><clipPath id="bc"><path d="m846.3 277.5h3l-1.5-3.9zm1-5.4h1l3.4 8.8h-1.1l-.9-2.4h-3.7l-.9 2.4h-1.2z"/></clipPath><clipPath id="bd"><path d="m-396-2791h1920v3909h-1920z"/></clipPath><clipPath id="be"><path d="m853.7 279.1s.6 1 1.7 1 1.9-1 1.9-2c0-1.2-.8-2-1.9-2s-1.7 1-1.7 1zm-.1-4v.9s.6-1 1.9-1c1.5 0 2.8 1.4 2.8 3.1s-1.3 3.1-2.8 3.1c-1.1 0-1.6-.6-1.8-.9v3.6h-1.1v-8.7z"/></clipPath><clipPath id="bf"><path d="m-396-2791h1920v3909h-1920z"/></clipPath><clipPath id="bg"><path d="m863 275.1-.4 1s-.2-.1-.7-.1c-.9 0-1.4 1-1.4 1v4h-1.1v-5.8h1v.9s.5-1.1 1.6-1.1c.7-.1 1 .1 1 .1z"/></clipPath><clipPath id="bh"><path d="m-396-2791h1920v3909h-1920z"/></clipPath><clipPath id="bi"><path d="m864 275.1h1.1v5.8h-1.1zm.6-2.6c.4 0 .7.3.7.7s-.3.7-.7.7-.7-.3-.7-.7c-.1-.4.3-.7.7-.7z"/></clipPath><clipPath id="bj"><path d="m-396-2791h1920v3909h-1920z"/></clipPath><clipPath id="bk"><path d="m867.1 271.3h1.1v9.5h-1.1z"/></clipPath><clipPath id="bl"><path d="m-396-2791h1920v3909h-1920z"/></clipPath><clipPath id="bm"><path d="m876.4 276.8c.3-.4 1.2-1.4 1.2-2.3s-.5-1.6-1.6-1.6c-1.4 0-1.7 1.4-1.7 1.4l-.9-.4s.5-2 2.6-2c1.6 0 2.7 1.2 2.7 2.6 0 1.2-.8 2-.9 2.3l-2.3 3.1h3.3v1h-5.3z"/></clipPath><clipPath id="bn"><path d="m-396-2791h1920v3909h-1920z"/></clipPath><clipPath id="bo"><path d="m885.2 276.5c0-1.7-.6-3.6-2.1-3.6s-2.1 1.8-2.1 3.6.6 3.6 2.1 3.6c1.5-.1 2.1-1.9 2.1-3.6zm1.1 0c0 2.3-1 4.5-3.2 4.5s-3.2-2.2-3.2-4.5 1-4.5 3.2-4.5c2.2-.1 3.2 2.1 3.2 4.5z"/></clipPath><clipPath id="bp"><path d="m-396-2791h1920v3909h-1920z"/></clipPath><clipPath id="bq"><path d="m889.5 272.1h.9v8.8h-1v-7.4l-1.7 1.3-.5-.8z"/></clipPath><clipPath id="br"><path d="m-396-2791h1920v3909h-1920z"/></clipPath><clipPath id="bs"><path d="m897.1 274.8c0-1.1-.7-1.9-1.8-1.9s-1.8.9-1.8 1.9.7 1.9 1.8 1.9c1 .1 1.8-.8 1.8-1.9zm-1.2 2.7s-.2.2-.7.2c-1.8 0-2.9-1.4-2.9-2.9s1.1-2.9 2.9-2.9 2.9 1.4 2.9 2.9c0 .5-.1 1-.4 1.4-.2.4-2.9 4.9-2.9 4.9l-.9-.6z"/></clipPath><clipPath id="bt"><path d="m-396-2791h1920v3909h-1920z"/></clipPath><clipPath id="bu"><path d="m1053.3 272.1 3 4.9 3-4.9h1v8.8h-1v-6.9l-3 5-3-4.9v6.9h-1.1v-8.8h1.1z"/></clipPath><clipPath id="bv"><path d="m-396-2791h1920v3909h-1920z"/></clipPath><clipPath id="bw"><path d="m1065.9 279.3v-.8s-.6-.4-1.5-.4-1.4.5-1.4 1.1c0 .8.7 1.1 1.4 1.1.8-.2 1.5-1 1.5-1zm1.1-2.3v3.9h-1v-.9s-.7 1-1.9 1c-1.1 0-2.1-.8-2.1-2s1-1.9 2.3-1.9c1.1 0 1.7.5 1.7.5v-.3c0-1.2-1-1.4-1.4-1.4-.9 0-1.7.5-1.7.5l-.5-.9s.9-.6 2.1-.6c1.6 0 2.5 1.1 2.5 2.1z"/></clipPath><clipPath id="bx"><path d="m-396-2791h1920v3909h-1920z"/></clipPath><clipPath id="by"><path d="m1068.5 282.6s.4.3.7.3c.5 0 .7-.3.9-.9l.5-1.2-2.7-5.8h1.2l2 4.5 1.7-4.5h1.2s-2.9 7.3-3.1 7.6c-.4.9-1 1.2-1.6 1.2-.7 0-1.3-.4-1.3-.4z"/></clipPath><clipPath id="bz"><path d="m-396-2791h1920v3909h-1920z"/></clipPath><clipPath id="bA"><path d="m1074.8 279.7c.4 0 .7.3.7.7s-.3.7-.7.7-.7-.3-.7-.7c0-.5.3-.7.7-.7z"/></clipPath><clipPath id="bB"><path d="m-396-2791h1920v3909h-1920z"/></clipPath><clipPath id="bC"><path d="m1077.7 279.7c.4 0 .7.3.7.7s-.3.7-.7.7-.7-.3-.7-.7c0-.5.3-.7.7-.7z"/></clipPath><clipPath id="bD"><path d="m-396-2791h1920v3909h-1920z"/></clipPath><clipPath id="bE"><path d="m529.2 226v5.3h-2.1v-4.8c0-1.2-.8-1.6-1.6-1.6-1.1 0-1.6 1.1-1.6 1.1v5.4h-2.1v-8.2h1.9v1.2s.8-1.4 2.5-1.4c1.7-.1 3 1.1 3 3zm-11.1 1.3c0-1.3-.9-2.4-2.3-2.4s-2.3 1.1-2.3 2.4.9 2.4 2.3 2.4 2.3-1.2 2.3-2.4zm2.2 0c0 2.4-1.9 4.3-4.4 4.3s-4.4-1.9-4.4-4.3 1.9-4.3 4.4-4.3c2.4-.1 4.4 1.9 4.4 4.3zm-12.8-4.2h2.1v8.2h-2.1zm1.1-4c.8 0 1.4.6 1.4 1.4s-.6 1.4-1.4 1.4-1.4-.6-1.4-1.4.6-1.4 1.4-1.4zm-9.3 4h1.6v-2.4h2.1v2.4h2.5v1.8h-2.5v3.3c0 1 .5 1.4 1.1 1.4.5 0 .9-.3.9-.3l.8 1.7s-.8.6-2 .6c-1.6 0-2.8-1.2-2.8-2.9v-3.7h-1.6v-1.9zm-3.4 5.8v-.9s-.8-.4-1.8-.4c-.7 0-1.5.3-1.5 1.2s.9 1.1 1.4 1.1c1.2 0 1.9-1 1.9-1zm2.1-2.9v5.4h-2v-1.1s-.9 1.3-2.7 1.3c-1.5 0-3-1-3-2.8 0-1.5 1.4-2.7 3.2-2.7 1.5 0 2.3.6 2.3.6v-.5c0-1.1-1.1-1.4-1.7-1.4-1.2 0-2.5.6-2.5.6l-.7-1.7s1.5-.8 3.3-.8c2.3 0 3.8 1.2 3.8 3.1zm-15.2-2.9h1.6v-2.4h2.1v2.4h2.5v1.8h-2.5v3.3c0 1 .5 1.4 1.1 1.4.5 0 .9-.3.9-.3l.8 1.7s-.8.6-2 .6c-1.6 0-2.8-1.2-2.8-2.9v-3.7h-1.6v-1.9zm-1.4 2.9v5.3h-2.1v-4.8c0-1.2-.8-1.6-1.6-1.6-1.1 0-1.6 1.1-1.6 1.1v5.4h-2.1v-8.2h1.9v1.2s.8-1.4 2.5-1.4c1.5-.1 3 1.1 3 3zm-11 .5c0-.7-.7-1.6-2-1.6-1.4 0-1.9 1-2 1.6zm2 .8v.8h-6.2c.2.8 1 1.6 2.3 1.6 1.4 0 2.2-.9 2.2-.9l1.1 1.5s-1.4 1.2-3.3 1.2c-2.5 0-4.4-1.9-4.4-4.3s1.7-4.3 4.1-4.3 4.2 1.8 4.2 4.4zm-9.7-1.2v5.3h-2.1v-4.7c0-1.2-.5-1.7-1.4-1.7-1.1 0-1.6 1.1-1.6 1.1v5.4h-2.1v-4.7c0-1.2-.5-1.7-1.4-1.7-1.1 0-1.6 1.1-1.6 1.1v5.4h-2.1v-8.3h1.9v1.2s.8-1.4 2.4-1.4c2 0 2.5 1.4 2.5 1.4s.7-1.4 2.6-1.4c1.6-.2 2.9 1 2.9 3zm-16.1.4c0-.7-.7-1.6-2-1.6-1.4 0-1.9 1-2 1.6zm2.1.8v.8h-6.2c.2.8 1 1.6 2.3 1.6 1.4 0 2.2-.9 2.2-.9l1.1 1.5s-1.4 1.2-3.3 1.2c-2.5 0-4.4-1.9-4.4-4.3s1.7-4.3 4.1-4.3c2.2 0 4.2 1.8 4.2 4.4zm-12.2-9.1h2.1v13.1h-2.1zm-8.1 10.3s.6 1.2 1.9 1.2c1.4 0 2.2-1.1 2.2-2.4 0-1.4-.9-2.4-2.2-2.4-1.4 0-1.9 1.2-1.9 1.2zm-.2-5.4v1.1s.8-1.3 2.5-1.3c2.1 0 4.1 1.8 4.1 4.3s-1.8 4.3-4.1 4.3c-1.4 0-2-.7-2.3-1.1v4.8h-2.1v-12.3h1.9zm-3.9 3v5.3h-2.1v-4.7c0-1.2-.5-1.7-1.4-1.7-1.1 0-1.6 1.1-1.6 1.1v5.4h-2.1v-4.7c0-1.2-.5-1.7-1.4-1.7-1.1 0-1.6 1.1-1.6 1.1v5.4h-2.1v-8.3h1.9v1.2s.8-1.4 2.4-1.4c2 0 2.5 1.4 2.5 1.4s.7-1.4 2.6-1.4c1.6-.2 2.9 1 2.9 3zm-17.1-6.8h2.1v12.2h-2.1z"/></clipPath><clipPath id="bF"><path d="m-396-2791h1920v3909h-1920z"/></clipPath><clipPath id="bG"><path d="m1056.1 168.3s1.1 1.2 2.5 1.2c.9 0 1.5-.3 1.5-.8 0-.6-.4-.7-1.6-.9-1.6-.4-3.1-1.1-3.1-2.6 0-1.3 1.3-2.6 3.6-2.6 1.8 0 3.1 1 3.1 1l-1.1 1.5s-1-.7-2-.7c-.8 0-1.4.3-1.4.8s.6.6 1.9 1c1.6.4 2.8.9 2.8 2.6 0 1.4-1.4 2.5-3.6 2.5-2.4 0-3.8-1.4-3.8-1.4zm-4.4-2.1c0-.7-.7-1.6-2-1.6-1.4 0-1.9 1-2 1.6zm2.2.8v.8h-6.2c.2.8 1 1.6 2.3 1.6 1.4 0 2.2-.9 2.2-.9l1.1 1.5s-1.3 1.2-3.3 1.2c-2.5 0-4.4-1.9-4.4-4.3s1.7-4.3 4.1-4.3c2.2 0 4.2 1.8 4.2 4.4zm-12.2-9.1h2.1v13.1h-2.1zm-8.1 10.3s.6 1.2 1.9 1.2c1.4 0 2.2-1.1 2.2-2.4 0-1.4-.9-2.4-2.2-2.4-1.4 0-1.9 1.2-1.9 1.2zm-2-10.3h2.1v5.8s.8-1.1 2.3-1.1c2.1 0 4.1 1.8 4.1 4.3s-1.8 4.3-4.1 4.3c-1.7 0-2.5-1.3-2.5-1.3v1.1h-1.9zm-9.9 10.2v-5.3h2.1v4.7c0 1.3.6 1.7 1.6 1.7s1.6-1 1.6-1v-5.5h2.1v8.2h-1.9v-1.2s-.8 1.4-2.5 1.4c-1.5.2-3-.9-3-3zm-3.5-1.1c0-1.3-.9-2.4-2.3-2.4s-2.3 1.1-2.3 2.4.9 2.4 2.3 2.4 2.3-1.2 2.3-2.4zm2.1 0c0 2.4-1.9 4.3-4.4 4.3-2.4 0-4.4-1.9-4.4-4.3s1.9-4.3 4.4-4.3c2.4-.1 4.4 1.9 4.4 4.3zm-12.1-2c0-2.2-1.4-4.1-3.9-4.1h-1.8v8.2h1.8c2.5 0 3.9-1.9 3.9-4.1zm2.2 0c0 3.5-2.5 6.1-6 6.1h-4v-12.2h4c3.5 0 6 2.6 6 6.1zm-18 3.3 1.4 1.4s-1.2 1.5-3.4 1.5c-2.5 0-4.4-1.9-4.4-4.3s1.9-4.3 4.4-4.3c2.2 0 3.4 1.5 3.4 1.5l-1.4 1.3s-.7-.9-1.9-.9c-1.4 0-2.3 1.1-2.3 2.4s.9 2.4 2.3 2.4c1.2.1 1.9-1 1.9-1zm-10.3-5.5h2.1v8.2h-2.1zm-4.8-2c0-.8-.6-1.2-1.4-1.2-.7 0-1.4.5-1.4 1.4v1.7h1.6v1.8h-1.6v6.4h-2.1v-6.4h-1.6v-1.8h1.6v-1.9c0-2 1.5-3.2 3.5-3.2 1.1 0 1.8.3 2.4.8.6-.5 1.4-.8 2.4-.8 2.2 0 3.4 1.4 3.4 2.9v.2c0 .6-.5 1.1-1.1 1.1s-1.1-.5-1.1-1.1v-.1c0-.7-.6-1.1-1.4-1.1-.7 0-1.4.5-1.4 1.4v1.7h1.6v1.8h-1.6v6.4h-2.1v-10.2h.3zm-10 7.8v-.9s-.8-.4-1.8-.4c-.7 0-1.5.3-1.5 1.2s.9 1.1 1.4 1.1c1.3 0 1.9-1 1.9-1zm2.1-2.9v5.4h-1.9v-1.1s-.9 1.3-2.7 1.3c-1.5 0-3-1-3-2.8 0-1.5 1.4-2.7 3.2-2.7 1.5 0 2.3.6 2.3.6v-.5c0-1.1-1.1-1.4-1.7-1.4-1.2 0-2.5.6-2.5.6l-.7-1.7s1.5-.8 3.3-.8c2.4 0 3.7 1.2 3.7 3.1zm-8.1-2.8-.8 1.8s-.4-.2-1-.2c-1.3 0-1.8 1.2-1.8 1.2v5.4h-2.1v-8.2h2v1.2s.7-1.4 2.2-1.4c.9-.1 1.5.2 1.5.2zm-11.1-2h-3.4v-2h8.8v2h-3.4v10.2h-2.1zm110.9-13.5 1.4 1.4s-1.2 1.5-3.4 1.5c-2.5 0-4.4-1.9-4.4-4.3s1.9-4.3 4.4-4.3c2.2 0 3.4 1.5 3.4 1.5l-1.4 1.3s-.7-.9-1.9-.9c-1.4 0-2.3 1.1-2.3 2.4s.9 2.4 2.3 2.4 1.9-1 1.9-1zm-10.4-5.5h2.1v8.2h-2.1zm1-4c.8 0 1.4.6 1.4 1.4s-.6 1.4-1.4 1.4-1.4-.6-1.4-1.4c0-.7.7-1.4 1.4-1.4zm-3.4 6.9v5.3h-2.1v-4.8c0-1.2-.8-1.6-1.6-1.6-1.1 0-1.6 1.1-1.6 1.1v5.4h-2.1v-8.2h1.9v1.2s.8-1.4 2.5-1.4c1.5-.1 3 1.1 3 3zm-11.7 2.9v-.9s-.8-.4-1.8-.4c-.7 0-1.5.3-1.5 1.2s.9 1.1 1.4 1.1c1.3 0 1.9-1 1.9-1zm2.1-2.9v5.4h-1.9v-1.1s-.9 1.3-2.7 1.3c-1.5 0-3-1-3-2.8 0-1.5 1.4-2.7 3.2-2.7 1.5 0 2.3.6 2.3.6v-.5c0-1.1-1.1-1.4-1.7-1.4-1.2 0-2.5.6-2.5.6l-.7-1.7s1.5-.8 3.3-.8c2.4 0 3.7 1.2 3.7 3.1zm-11.4 0s-.6-1.2-1.9-1.2c-1.4 0-2.2 1.1-2.2 2.4 0 1.4.9 2.4 2.2 2.4 1.4 0 1.9-1.2 1.9-1.2zm-2.3 5.6c-2.1 0-4.1-1.8-4.1-4.3s1.8-4.3 4.1-4.3c1.7 0 2.5 1.3 2.5 1.3v-1.1h1.9v8.3c0 2.9-2.1 4.2-4.4 4.2s-4-1.5-4-1.5l1.2-1.6s1.2 1.3 2.7 1.3c1.6 0 2.3-.9 2.3-2.1v-1c-.2.1-.9.8-2.2.8zm-4.2-8.4-.8 1.8s-.4-.2-1-.2c-1.3 0-1.8 1.2-1.8 1.2v5.4h-2.1v-8.3h2v1.2s.7-1.4 2.2-1.4c.8 0 1.5.3 1.5.3zm-9.5 2.2c0-2.3-1.5-4.3-4.1-4.3-2.5 0-4.1 1.9-4.1 4.3s1.5 4.3 4.1 4.3 4.1-2 4.1-4.3zm2.1 0c0 3.6-2.6 6.3-6.2 6.3s-6.2-2.7-6.2-6.3 2.6-6.3 6.2-6.3c3.6-.1 6.2 2.6 6.2 6.3z"/></clipPath><clipPath id="bH"><path d="m-396-2791h1920v3909h-1920z"/></clipPath><clipPath id="bI"><path d="m53.5 113.4c.3-.4 1.2-1.4 1.2-2.3s-.5-1.6-1.6-1.6c-1.4 0-1.7 1.4-1.7 1.4l-.9-.4s.5-2 2.6-2c1.6 0 2.7 1.2 2.7 2.6 0 1.2-.8 2-.9 2.3l-2.3 3.1h3.3v1h-5.3z"/></clipPath><clipPath id="bJ"><path d="m-396-2791h1920v3909h-1920z"/></clipPath><clipPath id="bK"><path d="m62.3 113.1c0-1.7-.6-3.6-2.1-3.6s-2.1 1.8-2.1 3.6.6 3.6 2.1 3.6 2.1-1.8 2.1-3.6zm1.1 0c0 2.3-1 4.5-3.2 4.5s-3.2-2.2-3.2-4.5 1-4.5 3.2-4.5 3.2 2.2 3.2 4.5z"/></clipPath><clipPath id="bL"><path d="m-396-2791h1920v3909h-1920z"/></clipPath><clipPath id="bM"><path d="m69.7 113.1c0-1.7-.6-3.6-2.1-3.6s-2.1 1.8-2.1 3.6.6 3.6 2.1 3.6 2.1-1.8 2.1-3.6zm1.1 0c0 2.3-1 4.5-3.2 4.5s-3.2-2.2-3.2-4.5 1-4.5 3.2-4.5 3.2 2.2 3.2 4.5z"/></clipPath><clipPath id="bN"><path d="m-396-2791h1920v3909h-1920z"/></clipPath><clipPath id="bO"><path d="m77.2 113.1c0-1.7-.6-3.6-2.1-3.6s-2.1 1.8-2.1 3.6.6 3.6 2.1 3.6 2.1-1.8 2.1-3.6zm1 0c0 2.3-1 4.5-3.2 4.5s-3.2-2.2-3.2-4.5 1-4.5 3.2-4.5 3.2 2.2 3.2 4.5z"/></clipPath><clipPath id="bP"><path d="m-396-2791h1920v3909h-1920z"/></clipPath><clipPath id="bQ"><ellipse cx="57.5" cy="276.2" rx="7.7" ry="7.7"/></clipPath><clipPath id="bR"><path d="m-396-2791h1920v3909h-1920z"/></clipPath><clipPath id="bS"><path d="m79.4 272.1 4.7 7.1v-7.1h1.1v8.8h-1.1l-4.7-7v7h-1.1v-8.8z"/></clipPath><clipPath id="bT"><path d="m-396-2791h1920v3909h-1920z"/></clipPath><clipPath id="bU"><path d="m91.2 277.4c0-.7-.6-1.5-1.8-1.5-1.3 0-1.7 1-1.8 1.5zm1.1.6v.4h-4.6c.1.9.9 1.7 2 1.7s1.7-.9 1.7-.9l.7.7s-.9 1.2-2.4 1.2c-1.7 0-3-1.4-3-3.1s1.2-3.1 2.9-3.1c1.4 0 2.7 1.3 2.7 3.1z"/></clipPath><clipPath id="bV"><path d="m-396-2791h1920v3909h-1920z"/></clipPath><clipPath id="bW"><path d="m93.8 275.1 1.6 3.8 1.5-3.8h.7l1.5 3.8 1.6-3.8h1.1l-2.7 6.1-1.9-4.4-1.9 4.4-2.6-6.1z"/></clipPath><clipPath id="bX"><path d="m-396-2791h1920v3909h-1920z"/></clipPath><clipPath id="bY"><path d="m111.8 272.1h1.1v5.5c0 2-1.2 3.4-3.2 3.4s-3.2-1.4-3.2-3.4v-5.5h1.1v5.4c0 1.4.6 2.5 2.1 2.5s2.1-1.1 2.1-2.5c0-2.9 0-5.4 0-5.4z"/></clipPath><clipPath id="bZ"><path d="m-396-2791h1920v3909h-1920z"/></clipPath><clipPath id="b0"><path d="m115 279.2s.6 1 1.7 1c.6 0 1.3-.3 1.3-.7 0-.5-.4-.8-1.4-1-1.3-.3-2.1-.8-2.1-1.8 0-.9.9-1.6 2.1-1.6 1.4 0 2.1.9 2.1.9l-.7.7s-.6-.7-1.4-.7-1.1.4-1.1.8c0 .5.5.7 1.4.9 1.1.2 2 .7 2 1.8 0 1.2-1.2 1.7-2.3 1.7-1.6 0-2.5-1.3-2.5-1.3z"/></clipPath><clipPath id="b1"><path d="m-396-2791h1920v3909h-1920z"/></clipPath><clipPath id="b2"><path d="m124.6 277.4c0-.7-.7-1.5-1.8-1.5-1.3 0-1.7 1-1.8 1.5zm1.1.6v.4h-4.7c.1.9.9 1.7 2 1.7 1.2 0 1.7-.9 1.7-.9l.7.7s-.9 1.2-2.4 1.2c-1.7 0-3-1.4-3-3.1s1.2-3.1 2.9-3.1c1.5 0 2.8 1.3 2.8 3.1z"/></clipPath><clipPath id="b3"><path d="m-396-2791h1920v3909h-1920z"/></clipPath><clipPath id="b4"><path d="m130.3 275.1-.4 1s-.2-.1-.7-.1c-.9 0-1.4 1-1.4 1v4h-1.1v-5.8h1v.9s.5-1.1 1.6-1.1c.6-.1 1 .1 1 .1z"/></clipPath><clipPath id="b5"><path d="m-396-2791h1920v3909h-1920z"/></clipPath><clipPath id="b6"><path d="m131.4 279.2s.6 1 1.7 1c.6 0 1.3-.3 1.3-.7 0-.5-.4-.8-1.4-1-1.3-.3-2.1-.8-2.1-1.8 0-.9.9-1.6 2.1-1.6 1.4 0 2.1.9 2.1.9l-.7.7s-.6-.7-1.4-.7-1.1.4-1.1.8c0 .5.5.7 1.4.9 1.1.2 2 .7 2 1.8 0 1.2-1.2 1.7-2.3 1.7-1.6 0-2.5-1.3-2.5-1.3z"/></clipPath><clipPath id="b7"><path d="m-396-2791h1920v3909h-1920z"/></clipPath><clipPath id="b8"><path d="m52.4 169.7h.9v8.8h-1v-7.5l-1.7 1.4-.6-.8z"/></clipPath><clipPath id="b9"><path d="m-396-2791h1920v3909h-1920z"/></clipPath><clipPath id="ca"><path d="m60.7 174c0-1.7-.6-3.6-2.1-3.6s-2.1 1.8-2.1 3.6c0 1.7.6 3.6 2.1 3.6s2.1-1.8 2.1-3.6zm1 0c0 2.3-1 4.5-3.2 4.5s-3.2-2.2-3.2-4.5 1-4.5 3.2-4.5c2.3 0 3.2 2.2 3.2 4.5z"/></clipPath><clipPath id="cb"><path d="m-396-2791h1920v3909h-1920z"/></clipPath><clipPath id="cc"><path d="m68.1 174c0-1.7-.6-3.6-2.1-3.6s-2.1 1.8-2.1 3.6c0 1.7.6 3.6 2.1 3.6s2.1-1.8 2.1-3.6zm1 0c0 2.3-1 4.5-3.2 4.5s-3.2-2.2-3.2-4.5 1-4.5 3.2-4.5c2.3 0 3.2 2.2 3.2 4.5z"/></clipPath><clipPath id="cd"><path d="m-396-2791h1920v3909h-1920z"/></clipPath><clipPath id="ce"><path d="m75.5 174c0-1.7-.6-3.6-2.1-3.6s-2.1 1.8-2.1 3.6c0 1.7.6 3.6 2.1 3.6s2.1-1.8 2.1-3.6zm1.1 0c0 2.3-1 4.5-3.2 4.5s-3.2-2.2-3.2-4.5 1-4.5 3.2-4.5 3.2 2.2 3.2 4.5z"/></clipPath><clipPath id="cf"><path d="m-396-2791h1920v3909h-1920z"/></clipPath><g clip-path="url(#a)"><g clip-path="url(#b)"><path d="m-5-5h1137v341h-1137z" fill="#fff"/></g></g><g enable-background="new" opacity=".1"><g clip-path="url(#c)"><g clip-path="url(#d)"><g clip-path="url(#e)"><path d="m45 78h1037v185h-1037z" fill="#84dbff"/></g></g></g><g clip-path="url(#c)"><g clip-path="url(#f)"><path d="m1077.3 258.2h-1027.6v-69.6h.5v1.4l205.3-25.1 211.5-10.6 191.1-58h.1l213.3 30 205.9-43.6v175.5zm-1027.1-.4h1026.5v-174.5l-205.3 43.5-213.3-30-191.1 58-211.4 10.6-205.4 25.1z" fill="#84dbff"/></g></g></g><g clip-path="url(#g)" enable-background="new" opacity=".11"><g clip-path="url(#h)"><g clip-path="url(#i)"><path d="m52.5 185.2h1022v11h-1022z"/></g></g></g><g clip-path="url(#j)" enable-background="new" opacity=".11"><g clip-path="url(#k)"><g clip-path="url(#l)"><path d="m44.8 252.8h1037.5v11h-1037.5z"/></g></g></g><g clip-path="url(#m)" enable-background="new" opacity=".05"><g clip-path="url(#n)"><g clip-path="url(#o)"><path d="m44.8 117.5h1029.7v11h-1029.7z"/></g></g></g><g clip-path="url(#p)" enable-background="new" opacity=".05"><g clip-path="url(#q)"><g clip-path="url(#r)"><path d="m44.8 49.9h1029.7v11h-1029.7z"/></g></g></g><g clip-path="url(#s)"><g clip-path="url(#t)"><path d="m461.5 162.5h12.9v58.3h-12.9z" fill="#333"/></g></g><g clip-path="url(#u)"><g clip-path="url(#v)"><path d="m248.3 172.1h12.9v48.7h-12.9z" fill="#333"/></g></g><g clip-path="url(#w)"><g clip-path="url(#x)"><path d="m45 76.5h1037.1v121h-1037.1z" fill="#cb5061"/></g></g><g clip-path="url(#y)"><g clip-path="url(#z)"><path d="m38.5 176.9h25.4v25.5h-25.4z" fill="#cb5061"/></g></g><g clip-path="url(#A)"><g clip-path="url(#B)"><path d="m38.1 176.6h26.2v26.2h-26.2z" fill="#cb5061"/></g></g><g clip-path="url(#C)"><g clip-path="url(#D)"><path d="m242 153.8h25.4v25.5h-25.4z" fill="#cb5061"/></g></g><g clip-path="url(#E)"><g clip-path="url(#F)"><path d="m455.3 142.2h25.4v25.5h-25.4z" fill="#cb5061"/></g></g><g clip-path="url(#G)"><g clip-path="url(#H)"><path d="m454.9 141.8h26.2v26.2h-26.2z" fill="#cb5061"/></g></g><g clip-path="url(#I)"><g clip-path="url(#J)"><path d="m1068.4 86.1h12.9v17.7h-12.9z" fill="#cb5061"/></g></g><g clip-path="url(#K)"><g clip-path="url(#L)"><path d="m1068.4 100.7h12.9v81.3h-12.9z" fill="#cb5061"/></g></g><g clip-path="url(#M)"><g clip-path="url(#N)"><path d="m1068.4 178.9h12.9v17.7h-12.9z" fill="#cb5061"/></g></g><g clip-path="url(#O)"><g clip-path="url(#P)"><path d="m645.3 84.2h25.4v25.5h-25.4z" fill="#cb5061"/></g></g><g clip-path="url(#Q)"><g clip-path="url(#R)"><path d="m644.9 83.8h26.2v26.2h-26.2z" fill="#cb5061"/></g></g><g clip-path="url(#S)"><g clip-path="url(#T)"><path d="m858.5 113.2h25.4v25.5h-25.4z" fill="#cb5061"/></g></g><g clip-path="url(#U)"><g clip-path="url(#V)"><path d="m858.1 112.8h26.2v26.2h-26.2z" fill="#cb5061"/></g></g><g clip-path="url(#W)"><g clip-path="url(#X)"><path d="m1062.1 71.6h25.4v25.5h-25.4z" fill="#cb5061"/></g></g><g clip-path="url(#Y)"><g clip-path="url(#Z)"><path d="m159 213.2h191.1v27.2h-191.1z" fill="#333"/></g></g><g clip-path="url(#aa)"><g clip-path="url(#ab)"><path d="m213.8 267.1h14.9v19h-14.9z" fill="#808080"/></g></g><g clip-path="url(#ac)"><g clip-path="url(#ad)"><path d="m220.3 269.9h15v16.1h-15z" fill="#808080"/></g></g><g clip-path="url(#ae)"><g clip-path="url(#af)"><path d="m227 269.8h14.9v16.1h-14.9z" fill="#808080"/></g></g><g clip-path="url(#ag)"><g clip-path="url(#ah)"><path d="m233.6 270h14.9v16h-14.9z" fill="#808080"/></g></g><g clip-path="url(#ai)"><g clip-path="url(#aj)"><path d="m239.8 269.9h15v16.1h-15z" fill="#808080"/></g></g><g clip-path="url(#ak)"><g clip-path="url(#al)"><path d="m246.5 269.9h13.5v16h-13.5z" fill="#808080"/></g></g><g clip-path="url(#am)"><g clip-path="url(#an)"><path d="m250.1 270.1h16.1v18.8h-16.1z" fill="#808080"/></g></g><g clip-path="url(#ao)"><g clip-path="url(#ap)"><path d="m260.4 266.7h15.4v19h-15.4z" fill="#808080"/></g></g><g clip-path="url(#aq)"><g clip-path="url(#ar)"><path d="m266.9 266.9h16.4v19.1h-16.4z" fill="#808080"/></g></g><g clip-path="url(#as)"><g clip-path="url(#at)"><path d="m274.2 267.1h13.3v18.8h-13.3z" fill="#808080"/></g></g><g clip-path="url(#au)"><g clip-path="url(#av)"><path d="m279.4 266.9h15.8v19.2h-15.8z" fill="#808080"/></g></g><g clip-path="url(#aw)"><g clip-path="url(#ax)"><path d="m425.4 267h14.9v18.8h-14.9z" fill="#808080"/></g></g><g clip-path="url(#ay)"><g clip-path="url(#az)"><path d="m431.2 269.9h15.6v16.2h-15.6z" fill="#808080"/></g></g><g clip-path="url(#aA)"><g clip-path="url(#aB)"><path d="m438.3 266.5h15.7v19.6h-15.7z" fill="#808080"/></g></g><g clip-path="url(#aC)"><g clip-path="url(#aD)"><path d="m445.2 270h14.9v16h-14.9z" fill="#808080"/></g></g><g clip-path="url(#aE)"><g clip-path="url(#aF)"><path d="m451.7 269.9h13.5v16h-13.5z" fill="#808080"/></g></g><g clip-path="url(#aG)"><g clip-path="url(#aH)"><path d="m455.6 269.9h15v16.1h-15z" fill="#808080"/></g></g><g clip-path="url(#aI)"><g clip-path="url(#aJ)"><path d="m462.2 269.9h13.5v16h-13.5z" fill="#808080"/></g></g><g clip-path="url(#aK)"><g clip-path="url(#aL)"><path d="m465.9 270.1h16.1v18.8h-16.1z" fill="#808080"/></g></g><g clip-path="url(#aM)"><g clip-path="url(#aN)"><path d="m476.2 266.7h15.4v19h-15.4z" fill="#808080"/></g></g><g clip-path="url(#aO)"><g clip-path="url(#aP)"><path d="m482.7 266.9h16.4v19.1h-16.4z" fill="#808080"/></g></g><g clip-path="url(#aQ)"><g clip-path="url(#aR)"><path d="m490 267.1h13.3v18.8h-13.3z" fill="#808080"/></g></g><g clip-path="url(#aS)"><g clip-path="url(#aT)"><path d="m495.1 266.9h15.8v19.2h-15.8z" fill="#808080"/></g></g><g clip-path="url(#aU)"><g clip-path="url(#aV)"><path d="m622.6 267.1h18.1v18.9h-18.1z" fill="#808080"/></g></g><g clip-path="url(#aW)"><g clip-path="url(#aX)"><path d="m632.4 269.9h15v16.1h-15z" fill="#808080"/></g></g><g clip-path="url(#aY)"><g clip-path="url(#aZ)"><path d="m638.9 269.9h13.5v16h-13.5z" fill="#808080"/></g></g><g clip-path="url(#a0)"><g clip-path="url(#a1)"><path d="m642.6 269.9h15.4v16.2h-15.4z" fill="#808080"/></g></g><g clip-path="url(#a2)"><g clip-path="url(#a3)"><path d="m649.3 266.3h14.9v19.6h-14.9z" fill="#808080"/></g></g><g clip-path="url(#a4)"><g clip-path="url(#a5)"><path d="m659.1 266.7h15.4v19h-15.4z" fill="#808080"/></g></g><g clip-path="url(#a6)"><g clip-path="url(#a7)"><path d="m665.7 266.9h16.4v19.1h-16.4z" fill="#808080"/></g></g><g clip-path="url(#a8)"><g clip-path="url(#a9)"><path d="m672.9 267.1h13.3v18.8h-13.3z" fill="#808080"/></g></g><g clip-path="url(#ba)"><g clip-path="url(#bb)"><path d="m678.1 266.9h15.8v19.2h-15.8z" fill="#808080"/></g></g><g clip-path="url(#bc)"><g clip-path="url(#bd)"><path d="m838.9 267.1h17.7v18.8h-17.7z" fill="#808080"/></g></g><g clip-path="url(#be)"><g clip-path="url(#bf)"><path d="m847.6 270h15.7v18.9h-15.7z" fill="#808080"/></g></g><g clip-path="url(#bg)"><g clip-path="url(#bh)"><path d="m854.6 269.9h13.5v16h-13.5z" fill="#808080"/></g></g><g clip-path="url(#bi)"><g clip-path="url(#bj)"><path d="m858.9 267.5h11.4v18.4h-11.4z" fill="#808080"/></g></g><g clip-path="url(#bk)"><g clip-path="url(#bl)"><path d="m862.1 266.3h11.1v19.5h-11.1z" fill="#808080"/></g></g><g clip-path="url(#bm)"><g clip-path="url(#bn)"><path d="m868.4 266.7h15.4v19h-15.4z" fill="#808080"/></g></g><g clip-path="url(#bo)"><g clip-path="url(#bp)"><path d="m874.9 266.9h16.4v19.1h-16.4z" fill="#808080"/></g></g><g clip-path="url(#bq)"><g clip-path="url(#br)"><path d="m882.2 267.1h13.3v18.8h-13.3z" fill="#808080"/></g></g><g clip-path="url(#bs)"><g clip-path="url(#bt)"><path d="m887.4 266.9h15.8v19.2h-15.8z" fill="#808080"/></g></g><g clip-path="url(#bu)"><g clip-path="url(#bv)"><path d="m1047.2 267.1h18.1v18.9h-18.1z" fill="#808080"/></g></g><g clip-path="url(#bw)"><g clip-path="url(#bx)"><path d="m1057 269.9h15v16.1h-15z" fill="#808080"/></g></g><g clip-path="url(#by)"><g clip-path="url(#bz)"><path d="m1062.9 270.1h16.1v18.8h-16.1z" fill="#808080"/></g></g><g clip-path="url(#bA)"><g clip-path="url(#bB)"><path d="m1069.1 274.7h11.4v11.4h-11.4z" fill="#808080"/></g></g><g clip-path="url(#bC)"><g clip-path="url(#bD)"><path d="m1072 274.7h11.3v11.4h-11.3z" fill="#808080"/></g></g><g clip-path="url(#bE)"><g clip-path="url(#bF)"><path d="m402.2 213.2h132v27.2h-132z"/></g></g><g clip-path="url(#bG)"><g clip-path="url(#bH)"><path d="m941.8 132.9h125.7v43.4h-125.7z" fill="#333"/></g></g><g clip-path="url(#bI)"><g clip-path="url(#bJ)"><path d="m45.4 103.4h15.4v19h-15.4z" fill="#808080"/></g></g><g clip-path="url(#bK)"><g clip-path="url(#bL)"><path d="m52 103.6h16.4v19.1h-16.4z" fill="#808080"/></g></g><g clip-path="url(#bM)"><g clip-path="url(#bN)"><path d="m59.4 103.6h16.4v19.1h-16.4z" fill="#808080"/></g></g><g clip-path="url(#bO)"><g clip-path="url(#bP)"><path d="m66.8 103.6h16.4v19.1h-16.4z" fill="#808080"/></g></g><g clip-path="url(#bQ)"><g clip-path="url(#bR)"><path d="m44.8 263.4h25.4v25.5h-25.4z" fill="#cb5061"/></g></g><g clip-path="url(#bS)"><g clip-path="url(#bT)"><path d="m73.3 267.1h16.8v18.8h-16.8z" fill="#333"/></g></g><g clip-path="url(#bU)"><g clip-path="url(#bV)"><path d="m81.7 269.9h15.6v16.2h-15.6z" fill="#333"/></g></g><g clip-path="url(#bW)"><g clip-path="url(#bX)"><path d="m87.7 270.1h19.1v16.1h-19.1z" fill="#333"/></g></g><g clip-path="url(#bY)"><g clip-path="url(#bZ)"><path d="m101.5 267.1h16.4v18.9h-16.4z" fill="#333"/></g></g><g clip-path="url(#b0)"><g clip-path="url(#b1)"><path d="m109.2 270h14.8v16.1h-14.8z" fill="#333"/></g></g><g clip-path="url(#b2)"><g clip-path="url(#b3)"><path d="m115.1 269.9h15.6v16.2h-15.6z" fill="#333"/></g></g><g clip-path="url(#b4)"><g clip-path="url(#b5)"><path d="m121.8 269.9h13.5v16h-13.5z" fill="#333"/></g></g><g clip-path="url(#b6)"><g clip-path="url(#b7)"><path d="m125.6 270h14.8v16.1h-14.8z" fill="#333"/></g></g><g clip-path="url(#b8)"><g clip-path="url(#b9)"><path d="m45 164.7h13.3v18.8h-13.3z" fill="#808080"/></g></g><g clip-path="url(#ca)"><g clip-path="url(#cb)"><path d="m50.3 164.5h16.4v19.1h-16.4z" fill="#808080"/></g></g><g clip-path="url(#cc)"><g clip-path="url(#cd)"><path d="m57.8 164.5h16.4v19.1h-16.4z" fill="#808080"/></g></g><g clip-path="url(#ce)"><g clip-path="url(#cf)"><path d="m65.2 164.5h16.4v19.1h-16.4z" fill="#808080"/></g></g></svg>