<svg enable-background="new 0 0 512 512" viewBox="0 0 512 512" xmlns="http://www.w3.org/2000/svg"><path d="m502 108h-59.47c-5.522 0-10 4.477-10 10v19.763h-103.733c-5.522 0-10 4.477-10 10s4.478 10 10 10h103.733v19.763c0 5.523 4.478 10 10 10h19.734v32.474c0 5.523 4.478 10 10 10s10-4.477 10-10v-32.475h19.736c5.522 0 10-4.477 10-10v-59.525c0-5.523-4.478-10-10-10zm-10 59.525h-39.47v-39.525h39.47z"/><path d="m289.7 140.69c-1.86-1.86-4.44-2.93-7.07-2.93-2.64 0-5.21 1.07-7.07 2.93-1.87 1.86-2.93 4.44-2.93 7.07 0 2.64 1.06 5.21 2.93 7.07 1.86 1.87 4.431 2.93 7.07 2.93 2.63 0 5.21-1.06 7.07-2.93 1.859-1.86 2.93-4.43 2.93-7.07 0-2.63-1.07-5.21-2.93-7.07z"/><path d="m234.025 137.763h-154.555v-19.763c0-5.523-4.478-10-10-10h-59.47c-5.522 0-10 4.477-10 10v59.525c0 5.523 4.478 10 10 10h19.735v32.475c0 5.523 4.478 10 10 10s10-4.477 10-10v-32.475h19.735c5.522 0 10-4.477 10-10v-19.763h154.555v.001c5.522 0 10-4.477 10-10s-4.478-10-10-10zm-174.555 29.762h-39.47v-39.525h39.47z"/><path d="m502 432.475h-19.735v-38.475c0-5.522-4.478-10-10-10s-10 4.478-10 10v38.475h-19.735c-5.522 0-10 4.478-10 10v19.763h-277.53c-5.522 0-10 4.478-10 10s4.478 10 10 10h277.53v19.762c0 5.522 4.478 10 10 10h59.47c5.522 0 10-4.478 10-10v-59.525c0-5.523-4.478-10-10-10zm-10 59.525h-39.47v-39.525h39.47z"/><path d="m69.47 432.475h-19.735v-38.475c0-5.522-4.478-10-10-10s-10 4.478-10 10v38.475h-19.735c-5.522 0-10 4.478-10 10v59.525c0 5.522 4.478 10 10 10h59.47c5.522 0 10-4.478 10-10v-59.525c0-5.523-4.478-10-10-10zm-10 59.525h-39.47v-39.525h39.47z"/><path d="m124.569 465.17c-1.859-1.87-4.439-2.93-7.069-2.93s-5.21 1.06-7.07 2.93c-1.86 1.86-2.93 4.43-2.93 7.07 0 2.63 1.069 5.21 2.93 7.069 1.86 1.86 4.44 2.931 7.07 2.931s5.21-1.07 7.069-2.931c1.86-1.87 2.931-4.439 2.931-7.069 0-2.631-1.07-5.21-2.931-7.07z"/><path d="m68.857 334.07h-11.175c-4.382 0-7.946-3.564-7.946-7.946v-34.051c-.001-4.382 3.564-7.946 7.946-7.946h11.175c5.522 0 10-4.478 10-10s-4.478-10-10-10h-11.175c-15.409 0-27.946 12.537-27.946 27.946v34.051c0 15.409 12.537 27.946 27.946 27.946h11.175c5.522 0 10-4.478 10-10s-4.478-10-10-10z"/><path d="m117.5 264.127c-16.542 0-30 13.458-30 30v32c0 16.542 13.458 30 30 30s30-13.458 30-30v-32c0-16.542-13.458-30-30-30zm10 62c0 5.514-4.486 10-10 10s-10-4.486-10-10v-32c0-5.514 4.486-10 10-10s10 4.486 10 10z"/><path d="m210.669 264.128c-5.522 0-10 4.476-10 9.999v33.409l-21.259-38.266c-2.213-3.983-6.837-5.965-11.25-4.824-4.411 1.144-7.491 5.124-7.491 9.681v72c0 5.522 4.478 10 10 10s10-4.478 10-10v-33.409l21.259 38.266c1.794 3.229 5.174 5.145 8.74 5.145.832 0 1.675-.104 2.51-.32 4.411-1.144 7.491-5.124 7.491-9.681v-72c0-5.522-4.478-10-10-10z"/><path d="m424 264.128c-5.522 0-10 4.478-10 10v33.409l-21.259-38.266c-2.212-3.983-6.836-5.965-11.25-4.824-4.411 1.144-7.491 5.124-7.491 9.681v72c0 5.522 4.478 10 10 10s10-4.479 10-10.001v-33.409l21.259 38.266c1.794 3.229 5.174 5.145 8.74 5.145.832 0 1.675-.104 2.51-.32 4.411-1.144 7.491-5.124 7.491-9.681v-72c0-5.522-4.478-10-10-10z"/><path d="m282.627 264.127h-35c-5.522 0-10 4.478-10 10s4.478 10 10 10h7.5v62c0 5.522 4.477 10 10 10 5.522 0 10-4.478 10-10v-62h7.5c5.522 0 10-4.478 10-10s-4.478-10-10-10z"/><path d="m489.765 264.127h-35c-5.522 0-10 4.478-10 10s4.478 10 10 10h7.5v62c0 5.522 4.477 10 10 10 5.522 0 10-4.478 10-10v-62h7.5c5.522 0 10-4.478 10-10s-4.478-10-10-10z"/><path d="m346.201 336.127h-21.297v-16h11.771c5.522 0 10-4.478 10-10s-4.478-10-10-10h-11.771v-16h21.297c5.522 0 10-4.478 10-10s-4.478-10-10-10h-31.297c-5.522 0-10 4.478-10 10v72c0 5.522 4.478 10 10 10h31.297c5.522 0 10-4.478 10-10s-4.478-10-10-10z"/><path d="m434.124 0h-298.619c-1.408 0-2.8.297-4.085.873l-71.505 32c-3.599 1.61-5.915 5.185-5.915 9.127s2.316 7.517 5.915 9.127l71.505 32c1.285.575 2.677.873 4.085.873h298.619c13.165 0 23.876-10.711 23.876-23.876v-36.248c0-13.165-10.711-23.876-23.876-23.876zm-308.619 58.569-37.025-16.569 37.025-16.569zm266.081 5.431h-246.081v-44h246.081zm46.414-3.876c0 2.137-1.739 3.876-3.876 3.876h-22.538v-44h22.538c2.137 0 3.876 1.739 3.876 3.876z"/></svg>