<svg enable-background="new 0 0 512 512" viewBox="0 0 512 512" xmlns="http://www.w3.org/2000/svg"><path d="m501.333 96h-490.666c-5.888 0-10.667 4.779-10.667 10.667s4.779 10.667 10.667 10.667h490.667c5.888 0 10.667-4.779 10.667-10.667s-4.78-10.667-10.668-10.667z"/><path d="m501.333 245.333h-490.666c-5.888 0-10.667 4.779-10.667 10.667s4.779 10.667 10.667 10.667h490.667c5.888 0 10.667-4.779 10.667-10.667s-4.78-10.667-10.668-10.667z"/><path d="m501.333 394.667h-490.666c-5.888 0-10.667 4.778-10.667 10.666s4.779 10.667 10.667 10.667h490.667c5.888 0 10.667-4.779 10.667-10.667-.001-5.888-4.78-10.666-10.668-10.666z"/></svg>