<svg width="533.1" xmlns="http://www.w3.org/2000/svg" viewBox="0 0 533.1 132.8" height="132.8">preserveAspectRatio=&quot;xMidYMid meet&quot;<path d="M51 104.7c-4.8 0-8-3.2-8-7.6V63.8c0-8.3-3.3-14-12.8-14-11 0-14.5 6.4-14.5 15V97c0 4.5-3.4 7.7-8 7.7-4.4 0-7.7-3.2-7.7-7.6V8c0-4.5 3.5-8 7.8-8 4.4 0 8 3.5 8 8V44c2.6-4.2 8.8-8.7 18.5-8.7C54 35.5 58.7 48 58.7 60.8V97c0 4.5-3.5 7.7-7.8 7.7zm44.7.7C76 105.4 64 94.2 64 70.4c0-23.7 12-35 31.7-35s32 11.3 32 35c0 23.8-12.3 35-32 35zm0-56.5c-10.4 0-16 7-16 21.5 0 14.3 5.6 21.6 16 21.6 10.5 0 16-7.2 16-21.5 0-14.4-5.5-21.6-16-21.6zm131.6 55.7c-4.7 0-8-3.2-8-7.6V63.8c0-8.3-3.2-14-12.7-14-10.5 0-14.5 5.7-14.5 14V97c0 4.5-3.4 7.7-7.8 7.7-4.6 0-7.8-3.2-7.8-7.6V63.8c0-8.3-3.4-14-12.8-14-11 0-14.6 6.4-14.6 15V97c0 4.5-3.3 7.7-7.8 7.7s-8-3.2-8-7.6V44.3c0-4.3 3.6-7.8 8-7.8 4.3 0 7.8 3.5 7.8 7.8 2.8-4.2 9-8.7 18.6-8.7 12 0 18 3.8 21.6 9.4 4.6-6.3 11-9.5 20.8-9.5 19.7 0 25 12.6 25 25.3V97c0 4.5-3.4 7.7-7.7 7.7zM292 76h-35.8c0 10.5 7.4 15.3 17 15.3 6.4 0 11-2.2 14.4-4.5 1.6-1 2.8-1.6 4.7-1.6 3.7 0 6.8 3 6.8 7 0 2.2-1 4-2.4 5.2-2.4 2.4-10 8-23.4 8-20.2 0-32.7-11-32.7-35.2 0-22.2 11.6-34.7 31.4-34.7 24.5 0 29 19 29 29 0 5.3 0 11.6-9 11.6zm-20-27c-8.5 0-14.6 4.7-15.4 14h28.8c0-7.2-4-14-13.5-14zm192-4.6c-2 0-3.4.4-4.4 1.3 3 4 4.4 8.8 4.4 14.7 0 15.4-10.7 24.8-28.5 24.8-5 0-10-1-13.7-2.3-1 .6-1.3 2-1.3 3 0 2.4 2 5 8.6 5h13.6c15 0 27 5 27 19.8s-14 22-32.4 22c-15.8 0-32.4-4.5-32.4-21.6 0-5.2 2.5-10.3 8.7-14.2-3.8-2.3-6.8-6-6.8-11.6 0-3.7 1.6-7.2 5-10-3.4-4.3-4.7-9.2-4.7-15 0-15.5 10.6-25 28.5-25 5.3 0 10 1 14 2.6 2.7-3.5 7.5-6.7 14.5-6.7 3.6 0 6.5 3 6.5 6.5 0 3.7-3 6.6-6.5 6.6zm-26.6 75c8.7 0 16.5-2.6 16.5-8.6 0-4.6-5-7-11.4-7H429c-5.6 1-8.5 4.2-8.5 7.4 0 5.6 5.8 8.2 17 8.2zm-2-70.7c-8 0-12.7 5-12.7 11.7 0 6.5 4.6 11.6 12.8 11.6 8 0 12.8-5 12.8-11.6s-4.7-11.7-12.8-11.7zm65.8 56.7c-19.6 0-31.8-11.2-31.8-35 0-23.7 12.2-35 31.8-35s31.8 11.3 31.8 35c0 23.8-12.2 35-31.8 35zm0-56.5c-10.5 0-16 7-16 21.5 0 14.3 5.5 21.6 16 21.6s16-7.2 16-21.5c0-14.4-5.5-21.6-16-21.6z" fill="#d1444d"/><path d="M391.7 99.3l-13.7 29c-1.3 2.7-4 4.3-7 4.3s-5.7-1.6-7-4.3L350.4 99c-4.6-8.4-11-15-11-28.5 0-23.8 12.2-35 31.8-35 19.7 0 32 11.2 32 35 0 13.7-6.6 19-11.3 28.8zm-21-50.4c-10.4 0-16 6-16 18.4 0 1.4.5 2.8 1 4 1.8 7.5 8 14.4 15.3 14.4 8 0 14.4-8 15.4-16 .3-.7.4-1.5.4-2.4 0-12.3-5.5-18.5-16-18.5zm-38 1.6H326v35.2c0 3.4 3 5.3 5.7 5.3 3.8 0 6.8 3 6.8 7 0 3.7-3 6.7-6.8 6.7-13 0-21-8.3-21-19.8V50.5h-3.3c-3.6 0-6.6-3-6.6-6.5s3-6.5 6.6-6.5h3.3V25.3c0-4.2 3.5-7.7 7.7-7.7 4.3 0 7.7 3.5 7.7 7.7v12.2h6.7c3.6 0 6.5 3 6.5 6.6 0 3.7-3 6.6-6.5 6.6z" fill="#3081b0"/></svg>