<svg enable-background="new 0 0 60 60" viewBox="0 0 60 60" xmlns="http://www.w3.org/2000/svg"><path d="m18 26c-2.206 0-4 1.794-4 4s1.794 4 4 4 4-1.794 4-4-1.794-4-4-4z"/><path d="m30 26c-2.206 0-4 1.794-4 4s1.794 4 4 4 4-1.794 4-4-1.794-4-4-4z"/><path d="m46 30c0-2.206-1.794-4-4-4s-4 1.794-4 4 1.794 4 4 4 4-1.794 4-4z"/><path d="m2.414 30 13.293-13.293c.391-.391.391-1.023 0-1.414s-1.023-.391-1.414 0l-14 14c-.391.391-.391 1.023 0 1.414l14 14c.195.195.451.293.707.293s.512-.098.707-.293c.391-.391.391-1.023 0-1.414z"/><path d="m59.707 29.293-14-14c-.391-.391-1.023-.391-1.414 0s-.391 1.023 0 1.414l13.293 13.293-13.293 13.293c-.391.391-.391 1.023 0 1.414.195.195.451.293.707.293s.512-.098.707-.293l14-14c.391-.391.391-1.023 0-1.414z"/></svg>