<?xml version="1.0" encoding="iso-8859-1"?>
<!-- Generator: Adobe Illustrator 19.0.0, SVG Export Plug-In . SVG Version: 6.00 Build 0)  -->
<svg version="1.1" id="Layer_1" xmlns="http://www.w3.org/2000/svg" xmlns:xlink="http://www.w3.org/1999/xlink" x="0px" y="0px"
	 viewBox="0 0 512 512" style="enable-background:new 0 0 512 512;" xml:space="preserve">
<path d="M0,355.2v-324c0-5.6,4.8-10.4,10.4-10.4h491.2c5.6,0,10.4,4.8,10.4,10.4v324H0z"/>
<g>
	<path style="fill:#CFDCE5;" d="M512,355.2v41.6c0,5.6-4.8,10.4-10.4,10.4H10.4c-5.6,0-10.4-4.8-10.4-10.4v-41.6H512z"/>
	<rect x="146.4" y="480.8" style="fill:#CFDCE5;" width="219.2" height="10.4"/>
</g>
<polygon style="fill:#AAC1CE;" points="328.8,480.8 183.2,480.8 193.6,407.2 318.4,407.2 "/>
<rect x="20.8" y="41.6" style="fill:#FFFFFF;" width="470.4" height="292.8"/>
<polygon style="fill:#8BA0AE;" points="318.4,407.2 193.6,407.2 187.792,448.28 320.272,420.424 "/>
<g>
	<path style="fill:#E04F5F;" d="M218.24,184.576h-81.52c-4.632,0-8.776-1.968-11.36-5.392c-2.664-3.536-3.416-8.272-2.056-12.984
		l15.64-54.536c2.416-8.448,11.008-15.072,19.56-15.072h81.52c4.632,0,8.768,1.96,11.352,5.384
		c2.664,3.536,3.416,8.272,2.064,12.992l-15.64,54.544C235.376,177.952,226.784,184.576,218.24,184.576z M158.504,108.584
		c-3.248,0-7.072,3.04-8.032,6.368l-15.64,54.544c-0.296,1.048-0.256,1.968,0.112,2.456c0.408,0.536,1.28,0.616,1.776,0.616h81.52
		c3.24,0,7.072-3.04,8.032-6.376l15.64-54.536c0.296-1.048,0.256-1.968-0.12-2.464c-0.4-0.528-1.28-0.608-1.768-0.608
		C240.024,108.584,158.504,108.584,158.504,108.584z"/>
	<path style="fill:#E04F5F;" d="M353.488,184.576h-81.52c-4.632,0-8.776-1.968-11.36-5.392c-2.664-3.536-3.416-8.272-2.056-12.984
		l15.64-54.536c2.416-8.448,11.008-15.072,19.56-15.072h81.52c4.632,0,8.768,1.96,11.352,5.384
		c2.664,3.536,3.416,8.272,2.064,12.992l-15.64,54.544C370.624,177.952,362.032,184.576,353.488,184.576z M293.76,108.584
		c-3.248,0-7.072,3.04-8.032,6.368l-15.64,54.544c-0.296,1.048-0.256,1.968,0.112,2.456c0.408,0.536,1.28,0.616,1.776,0.616h81.52
		c3.24,0,7.072-3.04,8.032-6.376l15.64-54.536c0.296-1.048,0.256-1.968-0.12-2.464c-0.4-0.528-1.28-0.608-1.768-0.608
		C375.28,108.584,293.76,108.584,293.76,108.584z"/>
	<rect x="211.208" y="134.584" style="fill:#E04F5F;" width="87.472" height="12"/>
</g>
<path d="M134.24,224.656c2.8-0.592,7.208-1.032,11.704-1.032c6.408,0,10.52,1.104,13.616,3.608c2.576,1.912,4.128,4.856,4.128,8.76
	c0,4.784-3.168,8.984-8.392,10.896v0.144c4.712,1.176,10.224,5.08,10.224,12.44c0,4.272-1.688,7.504-4.192,9.936
	c-3.464,3.168-9.056,4.64-17.152,4.64c-4.416,0-7.808-0.296-9.936-0.592L134.24,224.656L134.24,224.656z M140.648,244.976h5.816
	c6.776,0,10.752-3.536,10.752-8.32c0-5.816-4.424-8.096-10.896-8.096c-2.944,0-4.632,0.216-5.664,0.44v15.976H140.648z
	 M140.648,268.752c1.248,0.224,3.088,0.296,5.376,0.296c6.624,0,12.736-2.432,12.736-9.648c0-6.768-5.824-9.568-12.816-9.568h-5.296
	L140.648,268.752L140.648,268.752z"/>
<path d="M193.624,273.608l-0.512-4.488h-0.216c-1.992,2.8-5.824,5.296-10.896,5.296c-7.208,0-10.888-5.08-10.888-10.232
	c0-8.616,7.656-13.328,21.424-13.248V250.2c0-2.944-0.816-8.248-8.104-8.248c-3.312,0-6.776,1.032-9.272,2.656l-1.472-4.272
	c2.936-1.912,7.208-3.168,11.704-3.168c10.888,0,13.536,7.44,13.536,14.576v13.328c0,3.096,0.152,6.112,0.592,8.536H193.624z
	 M192.664,255.432c-7.064-0.152-15.088,1.104-15.088,8.024c0,4.192,2.8,6.176,6.112,6.176c4.632,0,7.576-2.944,8.608-5.96
	c0.224-0.664,0.368-1.4,0.368-2.064V255.432z"/>
<path d="M234.752,272.28c-1.688,0.88-5.448,2.056-10.224,2.056c-10.752,0-17.744-7.288-17.744-18.176
	c0-10.968,7.504-18.92,19.144-18.92c3.832,0,7.208,0.96,8.976,1.84l-1.472,5.008c-1.544-0.88-3.976-1.696-7.504-1.696
	c-8.168,0-12.584,6.032-12.584,13.472c0,8.24,5.296,13.32,12.36,13.32c3.688,0,6.112-0.96,7.952-1.768L234.752,272.28z"/>
<path d="M248.728,254.32h0.144c0.88-1.248,2.144-2.8,3.168-4.048l10.456-12.296h7.808l-13.768,14.648l15.68,20.976h-7.872
	l-12.296-17.08l-3.304,3.68v13.4h-6.424v-52.264h6.408L248.728,254.32L248.728,254.32z"/>
<path d="M278.08,221.344h6.48v52.264h-6.48V221.344z"/>
<path d="M302.656,227.968c0.08,2.208-1.544,3.976-4.12,3.976c-2.288,0-3.904-1.768-3.904-3.976c0-2.28,1.696-4.048,4.048-4.048
	C301.112,223.92,302.656,225.688,302.656,227.968z M295.448,273.608v-35.624h6.48v35.624H295.448z"/>
<path d="M312.664,247.624c0-3.68-0.08-6.696-0.296-9.64h5.744l0.368,5.888h0.152c1.768-3.384,5.888-6.696,11.776-6.696
	c4.936,0,12.592,2.944,12.592,15.168v21.272h-6.488V253.08c0-5.744-2.136-10.528-8.24-10.528c-4.264,0-7.576,3.016-8.688,6.624
	c-0.288,0.808-0.44,1.912-0.44,3.016v21.424h-6.48L312.664,247.624L312.664,247.624z"/>
<path d="M359.896,254.32h0.152c0.88-1.248,2.144-2.8,3.168-4.048l10.456-12.296h7.808l-13.768,14.648l15.68,20.976h-7.872
	l-12.296-17.08l-3.312,3.68v13.4h-6.4v-52.264h6.4v32.984H359.896z"/>
<g>
</g>
<g>
</g>
<g>
</g>
<g>
</g>
<g>
</g>
<g>
</g>
<g>
</g>
<g>
</g>
<g>
</g>
<g>
</g>
<g>
</g>
<g>
</g>
<g>
</g>
<g>
</g>
<g>
</g>
</svg>
