<svg enable-background="new 0 0 58 58" viewBox="0 0 58 58" xmlns="http://www.w3.org/2000/svg"><path d="m57 6h-56c-.552 0-1 .447-1 1v44c0 .553.448 1 1 1h56c.552 0 1-.447 1-1v-44c0-.553-.448-1-1-1zm-1 44h-54v-42h54z"/><path d="m16 28.138c3.071 0 5.569-2.498 5.569-5.568 0-3.072-2.498-5.57-5.569-5.57s-5.569 2.498-5.569 5.569 2.498 5.569 5.569 5.569zm0-9.138c1.968 0 3.569 1.602 3.569 3.569s-1.601 3.569-3.569 3.569-3.569-1.601-3.569-3.568 1.601-3.57 3.569-3.57z"/><path d="m7 46c.234 0 .47-.082.66-.249l16.313-14.362 10.302 10.301c.391.391 1.023.391 1.414 0s.391-1.023 0-1.414l-4.807-4.807 9.181-10.054 11.261 10.323c.407.373 1.04.345 1.413-.062s.346-1.04-.062-1.413l-12-11c-.196-.179-.457-.268-.72-.262-.265.012-.515.129-.694.325l-9.794 10.727-4.743-4.743c-.374-.373-.972-.392-1.368-.044l-17.017 14.983c-.415.365-.455.997-.09 1.412.198.225.474.339.751.339z"/></svg>