<?xml version="1.0" encoding="utf-8"?>
<!-- Generator: Adobe Illustrator 23.0.4, SVG Export Plug-In . SVG Version: 6.00 Build 0)  -->
<svg version="1.1" id="Layer_1" xmlns="http://www.w3.org/2000/svg" xmlns:xlink="http://www.w3.org/1999/xlink" x="0px" y="0px"
	 viewBox="0 0 244.7 244.7" style="enable-background:new 0 0 244.7 244.7;" xml:space="preserve">
<style type="text/css">
	.st0{opacity:0.4;fill:#E7E9F2;}
	.st1{fill:url(#SVGID_1_);}
	.st2{fill:url(#SVGID_2_);}
	.st3{fill:url(#SVGID_3_);}
	.st4{fill:url(#SVGID_4_);}
	.st5{fill:url(#SVGID_5_);}
	.st6{fill:url(#SVGID_6_);}
	.st7{fill:url(#SVGID_7_);}
	.st8{fill:url(#SVGID_8_);}
	.st9{fill:url(#SVGID_9_);}
	.st10{fill:url(#SVGID_10_);}
	.st11{fill:url(#SVGID_11_);}
	.st12{fill:url(#SVGID_12_);}
	.st13{fill:url(#SVGID_13_);}
	.st14{fill:url(#SVGID_14_);}
	.st15{fill:url(#SVGID_15_);}
	.st16{fill:url(#SVGID_16_);}
</style>
<circle class="st0" cx="122.3" cy="122.3" r="122.3"/>
<g>
	
		<linearGradient id="SVGID_1_" gradientUnits="userSpaceOnUse" x1="166.9714" y1="57.9817" x2="185.4923" y2="57.9817" gradientTransform="matrix(1 0 0 -1 0 150.2918)">
		<stop  offset="0" style="stop-color:#D93A5F"/>
		<stop  offset="1" style="stop-color:#9C1F4D"/>
	</linearGradient>
	<path class="st1" d="M167,99.8c-0.4,0.8,0.1,1.9,1,2.1c0.2,0.1,0.4,0.1,0.6,0.1c0.7,0,1.3-0.4,1.5-1.1c4-10.5,6.8-14.3,13.7-15
		c1-0.1,1.5-1,1.5-1.9c-0.1-1-1-1.5-1.9-1.5C174.1,83.6,170.7,90.4,167,99.8z"/>
	
		<linearGradient id="SVGID_2_" gradientUnits="userSpaceOnUse" x1="48.2667" y1="13.981" x2="123.7137" y2="13.981" gradientTransform="matrix(1 0 0 -1 0 150.2918)">
		<stop  offset="0" style="stop-color:#D93A5F"/>
		<stop  offset="1" style="stop-color:#9C1F4D"/>
	</linearGradient>
	<path class="st2" d="M75.1,127c1,1.2,2.4,2,4,2s3.2-0.8,4.2-2.1c4.4,3.7,7.7,13.9,10.4,22c1.4,4.4,2.7,8.6,4.2,11.6
		c0.1,0.2,0.4,0.5,0.6,0.7c-0.4,0.7-0.5,1.4-0.5,2.3c0,2.9,2.3,5.1,5.1,5.1c2.9,0,5.1-2.3,5.1-5.1c0-1-0.4-1.9-0.8-2.7
		c0.2-0.2,0.4-0.5,0.5-0.7c1.3-4.5,2-12.3,2.6-20.5c1.1-13.3,2.6-31.6,7.9-32.6c0.8-0.1,1.7,0.1,2.7,0.8c0.8,0.5,1.8,0.2,2.4-0.5
		c0.5-0.8,0.2-1.8-0.5-2.4c-1.8-1.2-3.6-1.7-5.4-1.3c-7.1,1.5-8.9,15.7-10.5,35.7c-0.6,7.7-1.2,15-2.4,19.3
		c-0.5-0.1-1.1-0.2-1.7-0.2c-0.8,0-1.5,0.2-2.3,0.6c-1.3-2.7-2.5-6.7-3.9-10.8c-3-9.5-6.4-20.1-11.8-24.3c-0.2-0.2-0.5-0.2-0.8-0.4
		c-0.1-2.6-2.4-4.8-5.1-4.8c-2.9,0-5.1,2.3-5.1,5.1l0,0c-0.2,0-0.5,0.1-0.7,0.2c-8.8,6.2-18.5,22.7-25,43c-0.2,0.8,0.2,1.8,1.1,2.1
		c0.1,0,0.4,0.1,0.5,0.1c0.7,0,1.4-0.5,1.5-1.2C59,144.7,68.7,131.6,75.1,127z M104.8,160.3c0.1,0.2,0.5,0.5,0.7,0.6
		c0.6,0.6,1,1.4,1,2.4c0,1.9-1.5,3.5-3.5,3.5s-3.5-1.5-3.5-3.5s1.5-3.5,3.5-3.5C103.7,159.8,104.3,160.1,104.8,160.3z M79.2,120.4
		c1.9,0,3.5,1.5,3.5,3.5c0,0.2,0,0.4-0.1,0.6c-0.1,0.2-0.1,0.4-0.1,0.6c-0.5,1.3-1.8,2.3-3.2,2.3s-2.6-0.8-3.2-2.1v-0.1
		c-0.1-0.4-0.2-0.8-0.2-1.2C75.7,121.8,77.3,120.4,79.2,120.4z"/>
	
		<linearGradient id="SVGID_3_" gradientUnits="userSpaceOnUse" x1="149.9268" y1="16.3512" x2="155.4603" y2="16.3512" gradientTransform="matrix(1 0 0 -1 0 150.2918)">
		<stop  offset="0" style="stop-color:#D93A5F"/>
		<stop  offset="1" style="stop-color:#9C1F4D"/>
	</linearGradient>
	<path class="st3" d="M154.2,133c-0.1,0-0.2,0.1-0.4,0.1c-0.8,0.2-1.7,0.1-2.6-0.2c-0.5-0.2-1.1,0-1.2,0.5c-0.2,0.5,0,1.1,0.5,1.2
		c0.8,0.4,1.7,0.5,2.4,0.5c0.5,0,0.8,0,1.3-0.1c0.2,0,0.5-0.1,0.6-0.2c0.5-0.2,0.7-0.7,0.6-1.2C155.3,133,154.7,132.8,154.2,133z"/>
	
		<linearGradient id="SVGID_4_" gradientUnits="userSpaceOnUse" x1="159.165" y1="27.6284" x2="161.997" y2="27.6284" gradientTransform="matrix(1 0 0 -1 0 150.2918)">
		<stop  offset="0" style="stop-color:#D93A5F"/>
		<stop  offset="1" style="stop-color:#9C1F4D"/>
	</linearGradient>
	<path class="st4" d="M161.3,119.9c-0.5-0.1-1,0.2-1.2,0.7c-0.4,1.3-0.6,2.5-1,3.6c-0.1,0.5,0.1,1.1,0.6,1.2c0.1,0,0.1,0,0.2,0
		c0.4,0,0.8-0.2,1-0.7c0.4-1.1,0.6-2.3,1-3.7C162,120.5,161.8,120.1,161.3,119.9z"/>
	
		<linearGradient id="SVGID_5_" gradientUnits="userSpaceOnUse" x1="156.3145" y1="20.5179" x2="159.861" y2="20.5179" gradientTransform="matrix(1 0 0 -1 0 150.2918)">
		<stop  offset="0" style="stop-color:#D93A5F"/>
		<stop  offset="1" style="stop-color:#9C1F4D"/>
	</linearGradient>
	<path class="st5" d="M159.3,127.2c-0.5-0.2-1.1,0-1.2,0.6c-0.5,1.3-1.1,2.4-1.5,3.2c-0.2,0.5-0.1,1.1,0.2,1.3
		c0.1,0.1,0.4,0.1,0.5,0.1c0.4,0,0.6-0.1,0.8-0.5c0.6-1,1.2-2.1,1.8-3.6C160,127.9,159.8,127.3,159.3,127.2z"/>
	
		<linearGradient id="SVGID_6_" gradientUnits="userSpaceOnUse" x1="160.9613" y1="35.0708" x2="163.6448" y2="35.0708" gradientTransform="matrix(1 0 0 -1 0 150.2918)">
		<stop  offset="0" style="stop-color:#D93A5F"/>
		<stop  offset="1" style="stop-color:#9C1F4D"/>
	</linearGradient>
	<path class="st6" d="M162.9,112.6c-0.5-0.1-1,0.2-1.1,0.7l-0.2,1.2c-0.2,0.8-0.4,1.7-0.5,2.4c-0.1,0.5,0.2,1,0.7,1.1
		c0.1,0,0.1,0,0.2,0c0.5,0,0.8-0.4,1-0.7c0.1-0.8,0.4-1.7,0.5-2.5l0.2-1.2C163.7,113.1,163.4,112.7,162.9,112.6z"/>
	
		<linearGradient id="SVGID_7_" gradientUnits="userSpaceOnUse" x1="130.5849" y1="37.8463" x2="134.808" y2="37.8463" gradientTransform="matrix(1 0 0 -1 0 150.2918)">
		<stop  offset="0" style="stop-color:#D93A5F"/>
		<stop  offset="1" style="stop-color:#9C1F4D"/>
	</linearGradient>
	<path class="st7" d="M132.3,110.4c-0.4-0.4-1-0.5-1.3-0.1c-0.4,0.4-0.5,1-0.1,1.3c0.7,0.8,1.4,1.8,2.3,2.9c0.2,0.2,0.5,0.4,0.7,0.4
		c0.2,0,0.4-0.1,0.6-0.2c0.4-0.4,0.5-1,0.2-1.3C133.7,112.2,133,111.2,132.3,110.4z"/>
	
		<linearGradient id="SVGID_8_" gradientUnits="userSpaceOnUse" x1="135.1438" y1="31.8033" x2="139.1866" y2="31.8033" gradientTransform="matrix(1 0 0 -1 0 150.2918)">
		<stop  offset="0" style="stop-color:#D93A5F"/>
		<stop  offset="1" style="stop-color:#9C1F4D"/>
	</linearGradient>
	<path class="st8" d="M138.7,119.1c-0.6-1-1.3-1.8-1.9-2.7c-0.4-0.5-0.8-0.5-1.3-0.2c-0.5,0.4-0.5,0.8-0.2,1.3
		c0.6,0.8,1.3,1.8,1.9,2.7l0.4,0.5c0.2,0.2,0.5,0.4,0.7,0.4c0.2,0,0.4,0,0.6-0.1c0.5-0.2,0.5-0.8,0.2-1.3L138.7,119.1z"/>
	
		<linearGradient id="SVGID_9_" gradientUnits="userSpaceOnUse" x1="139.4798" y1="25.6708" x2="143.5988" y2="25.6708" gradientTransform="matrix(1 0 0 -1 0 150.2918)">
		<stop  offset="0" style="stop-color:#D93A5F"/>
		<stop  offset="1" style="stop-color:#9C1F4D"/>
	</linearGradient>
	<path class="st9" d="M141.2,122.6c-0.4-0.5-0.8-0.5-1.3-0.2c-0.5,0.4-0.5,0.8-0.2,1.3c0.8,1.2,1.5,2.1,2.3,3.1
		c0.2,0.2,0.5,0.4,0.7,0.4c0.2,0,0.4-0.1,0.6-0.2c0.4-0.4,0.5-1,0.1-1.3C142.8,124.7,142,123.7,141.2,122.6z"/>
	
		<linearGradient id="SVGID_10_" gradientUnits="userSpaceOnUse" x1="144.1079" y1="19.8656" x2="148.6493" y2="19.8656" gradientTransform="matrix(1 0 0 -1 0 150.2918)">
		<stop  offset="0" style="stop-color:#D93A5F"/>
		<stop  offset="1" style="stop-color:#9C1F4D"/>
	</linearGradient>
	<path class="st10" d="M145.7,128.5c-0.4-0.4-1-0.5-1.3-0.1c-0.4,0.4-0.5,1-0.1,1.3c1,1.1,1.9,2,2.7,2.7c0.1,0.1,0.4,0.2,0.6,0.2
		c0.2,0,0.5-0.1,0.7-0.4c0.4-0.4,0.2-1-0.1-1.3C147.5,130.3,146.7,129.5,145.7,128.5z"/>
	
		<linearGradient id="SVGID_11_" gradientUnits="userSpaceOnUse" x1="121.7657" y1="22.1989" x2="188.4789" y2="22.1989" gradientTransform="matrix(1 0 0 -1 0 150.2918)">
		<stop  offset="0" style="stop-color:#D93A5F"/>
		<stop  offset="1" style="stop-color:#9C1F4D"/>
	</linearGradient>
	<path class="st11" d="M186.7,154.1L186.7,154.1C186.7,154,186.7,154,186.7,154.1l-13.9-13.9c-0.7-0.7-1.8-0.7-2.4,0l-0.5,0.5
		l-4.5-4.5c-0.5-0.5-1.3-0.6-1.9-0.2c5-4.5,8.2-11.2,8.2-18.5c0-13.8-11.2-25-25-25c-13.8,0-25,11.2-25,25s11.2,25,25,25
		c6,0,11.3-2,15.6-5.5l-1.5,1.5c-0.4,0.4-0.5,0.7-0.5,1.2c0,0.5,0.1,0.8,0.5,1.2l4.4,4.4l-0.5,0.5c-0.4,0.4-0.5,0.7-0.5,1.2
		c0,0.5,0.1,0.8,0.5,1.2l13.9,13.9l0,0l0,0c1.1,1.1,2.6,1.7,4,1.7c1.4,0,3-0.6,4-1.7C189,159.9,189,156.3,186.7,154.1z M146.8,139
		c-11.9,0-21.6-9.6-21.6-21.6s9.6-21.6,21.6-21.6c11.9,0,21.6,9.6,21.6,21.6S158.7,139,146.8,139z M184.3,159.8c-1,1-2.5,1-3.3,0.1
		l-0.1-0.1l-0.1-0.1l-12.6-12.6l0.5-0.5l2.4-2.4l0,0l0.5-0.5l12.9,12.6l0,0l0,0C185.3,157.3,185.3,158.9,184.3,159.8z"/>
	
		<linearGradient id="SVGID_12_" gradientUnits="userSpaceOnUse" x1="70.0001" y1="64.8286" x2="176.0982" y2="64.8286" gradientTransform="matrix(1 0 0 -1 0 150.2918)">
		<stop  offset="0" style="stop-color:#D93A5F"/>
		<stop  offset="1" style="stop-color:#9C1F4D"/>
	</linearGradient>
	<path class="st12" d="M71.7,118.1c1,0,1.7-0.7,1.7-1.7V73.6h99.4v6.1c0,1,0.7,1.7,1.7,1.7s1.7-0.7,1.7-1.7V66.4
		c0-7.5-6.1-13.6-13.6-13.6H83.6c-7.5,0-13.6,6.1-13.6,13.6v50.1C70,117.4,70.7,118.1,71.7,118.1z M83.6,56.1h78.9
		c5.6,0,10.2,4.6,10.2,10.2v3.8H73.3v-3.8C73.3,60.8,78,56.1,83.6,56.1z"/>
	
		<linearGradient id="SVGID_13_" gradientUnits="userSpaceOnUse" x1="69.9937" y1="-17.454" x2="176.0918" y2="-17.454" gradientTransform="matrix(1 0 0 -1 0 150.2918)">
		<stop  offset="0" style="stop-color:#D93A5F"/>
		<stop  offset="1" style="stop-color:#9C1F4D"/>
	</linearGradient>
	<path class="st13" d="M174.4,161.6c-1,0-1.7,0.7-1.7,1.7v16.9c0,5.6-4.6,10.2-10.2,10.2l-78.9,0.1l0,0c-2.7,0-5.2-1.1-7.1-3
		c-1.9-1.9-3-4.5-3-7.3v-37c0-1-0.7-1.7-1.7-1.7c-1,0-1.7,0.7-1.7,1.7v37c0,3.6,1.4,7,4,9.6s6,3.9,9.5,3.9l0,0l78.9-0.1
		c7.5,0,13.6-6.1,13.6-13.6v-16.9C176.1,162.3,175.4,161.6,174.4,161.6z"/>
	
		<linearGradient id="SVGID_14_" gradientUnits="userSpaceOnUse" x1="81.3328" y1="86.9771" x2="89.2205" y2="86.9771" gradientTransform="matrix(1 0 0 -1 0 150.2918)">
		<stop  offset="0" style="stop-color:#D93A5F"/>
		<stop  offset="1" style="stop-color:#9C1F4D"/>
	</linearGradient>
	<path class="st14" d="M85.2,67.3c2.1,0,3.9-1.8,3.9-3.9c0-2.1-1.7-4-3.9-4c-2.1,0-3.9,1.8-3.9,3.9S83.1,67.3,85.2,67.3z M85.2,61.1
		c1.2,0,2.3,1,2.3,2.3c0,1.2-1,2.3-2.3,2.3c-1.2,0-2.3-1-2.3-2.3C83,62.1,84.1,61.1,85.2,61.1z"/>
	
		<linearGradient id="SVGID_15_" gradientUnits="userSpaceOnUse" x1="93.2301" y1="86.9175" x2="101.1178" y2="86.9175" gradientTransform="matrix(1 0 0 -1 0 150.2918)">
		<stop  offset="0" style="stop-color:#D93A5F"/>
		<stop  offset="1" style="stop-color:#9C1F4D"/>
	</linearGradient>
	<path class="st15" d="M97.1,67.3c2.1,0,3.9-1.8,3.9-3.9c0-2.1-1.8-3.9-3.9-3.9s-3.9,1.7-3.9,3.9C93.2,65.6,95,67.3,97.1,67.3z
		 M97.1,61.1c1.2,0,2.3,1,2.3,2.3c0,1.2-1,2.3-2.3,2.3c-1.2,0-2.3-1-2.3-2.3C94.9,62.1,96,61.1,97.1,61.1z"/>
	
		<linearGradient id="SVGID_16_" gradientUnits="userSpaceOnUse" x1="105.128" y1="86.9175" x2="113.0168" y2="86.9175" gradientTransform="matrix(1 0 0 -1 0 150.2918)">
		<stop  offset="0" style="stop-color:#D93A5F"/>
		<stop  offset="1" style="stop-color:#9C1F4D"/>
	</linearGradient>
	<path class="st16" d="M109.1,67.3c2.1,0,3.9-1.8,3.9-3.9c0-2.1-1.8-3.9-3.9-3.9s-3.9,1.7-3.9,3.9C105.1,65.6,106.9,67.3,109.1,67.3
		z M109.1,61.1c1.2,0,2.3,1,2.3,2.3c0,1.2-1,2.3-2.3,2.3s-2.3-1-2.3-2.3C106.8,62.1,107.9,61.1,109.1,61.1z"/>
</g>
</svg>
