<svg enable-background="new 0 0 244.7 244.7" viewBox="0 0 244.7 244.7" xmlns="http://www.w3.org/2000/svg" xmlns:xlink="http://www.w3.org/1999/xlink"><linearGradient id="a"><stop offset="0" stop-color="#d93a5f"/><stop offset="1" stop-color="#9c1f4d"/></linearGradient><linearGradient id="b" gradientTransform="matrix(1 0 0 -1 0 150.2918)" gradientUnits="userSpaceOnUse" x1="166.9714" x2="185.4923" xlink:href="#a" y1="57.9817" y2="57.9817"/><linearGradient id="c" gradientTransform="matrix(1 0 0 -1 0 150.2918)" gradientUnits="userSpaceOnUse" x1="48.2667" x2="123.7137" xlink:href="#a" y1="13.981" y2="13.981"/><linearGradient id="d" gradientTransform="matrix(1 0 0 -1 0 150.2918)" gradientUnits="userSpaceOnUse" x1="149.9268" x2="155.4603" xlink:href="#a" y1="16.3512" y2="16.3512"/><linearGradient id="e" gradientTransform="matrix(1 0 0 -1 0 150.2918)" gradientUnits="userSpaceOnUse" x1="159.165" x2="161.997" xlink:href="#a" y1="27.6284" y2="27.6284"/><linearGradient id="f" gradientTransform="matrix(1 0 0 -1 0 150.2918)" gradientUnits="userSpaceOnUse" x1="156.3145" x2="159.861" xlink:href="#a" y1="20.5179" y2="20.5179"/><linearGradient id="g" gradientTransform="matrix(1 0 0 -1 0 150.2918)" gradientUnits="userSpaceOnUse" x1="160.9613" x2="163.6448" xlink:href="#a" y1="35.0708" y2="35.0708"/><linearGradient id="h" gradientTransform="matrix(1 0 0 -1 0 150.2918)" gradientUnits="userSpaceOnUse" x1="130.5849" x2="134.808" xlink:href="#a" y1="37.8463" y2="37.8463"/><linearGradient id="i" gradientTransform="matrix(1 0 0 -1 0 150.2918)" gradientUnits="userSpaceOnUse" x1="135.1438" x2="139.1866" xlink:href="#a" y1="31.8033" y2="31.8033"/><linearGradient id="j" gradientTransform="matrix(1 0 0 -1 0 150.2918)" gradientUnits="userSpaceOnUse" x1="139.4798" x2="143.5988" xlink:href="#a" y1="25.6708" y2="25.6708"/><linearGradient id="k" gradientTransform="matrix(1 0 0 -1 0 150.2918)" gradientUnits="userSpaceOnUse" x1="144.1079" x2="148.6493" xlink:href="#a" y1="19.8656" y2="19.8656"/><linearGradient id="l" gradientTransform="matrix(1 0 0 -1 0 150.2918)" gradientUnits="userSpaceOnUse" x1="121.7657" x2="188.4789" xlink:href="#a" y1="22.1989" y2="22.1989"/><linearGradient id="m" gradientTransform="matrix(1 0 0 -1 0 150.2918)" gradientUnits="userSpaceOnUse" x1="70.0001" x2="176.0982" xlink:href="#a" y1="64.8286" y2="64.8286"/><linearGradient id="n" gradientTransform="matrix(1 0 0 -1 0 150.2918)" gradientUnits="userSpaceOnUse" x1="69.9937" x2="176.0918" xlink:href="#a" y1="-17.454" y2="-17.454"/><linearGradient id="o" gradientTransform="matrix(1 0 0 -1 0 150.2918)" gradientUnits="userSpaceOnUse" x1="81.3328" x2="89.2205" xlink:href="#a" y1="86.9771" y2="86.9771"/><linearGradient id="p" gradientTransform="matrix(1 0 0 -1 0 150.2918)" gradientUnits="userSpaceOnUse" x1="93.2301" x2="101.1178" xlink:href="#a" y1="86.9175" y2="86.9175"/><linearGradient id="q" gradientTransform="matrix(1 0 0 -1 0 150.2918)" gradientUnits="userSpaceOnUse" x1="105.128" x2="113.0168" xlink:href="#a" y1="86.9175" y2="86.9175"/><circle cx="122.3" cy="122.3" fill="#e7e9f2" opacity=".4" r="122.3"/><path d="m167 99.8c-.4.8.1 1.9 1 2.1.2.1.4.1.6.1.7 0 1.3-.4 1.5-1.1 4-10.5 6.8-14.3 13.7-15 1-.1 1.5-1 1.5-1.9-.1-1-1-1.5-1.9-1.5-9.3 1.1-12.7 7.9-16.4 17.3z" fill="url(#b)"/><path d="m75.1 127c1 1.2 2.4 2 4 2s3.2-.8 4.2-2.1c4.4 3.7 7.7 13.9 10.4 22 1.4 4.4 2.7 8.6 4.2 11.6.1.2.4.5.6.7-.4.7-.5 1.4-.5 2.3 0 2.9 2.3 5.1 5.1 5.1 2.9 0 5.1-2.3 5.1-5.1 0-1-.4-1.9-.8-2.7.2-.2.4-.5.5-.7 1.3-4.5 2-12.3 2.6-20.5 1.1-13.3 2.6-31.6 7.9-32.6.8-.1 1.7.1 2.7.8.8.5 1.8.2 2.4-.5.5-.8.2-1.8-.5-2.4-1.8-1.2-3.6-1.7-5.4-1.3-7.1 1.5-8.9 15.7-10.5 35.7-.6 7.7-1.2 15-2.4 19.3-.5-.1-1.1-.2-1.7-.2-.8 0-1.5.2-2.3.6-1.3-2.7-2.5-6.7-3.9-10.8-3-9.5-6.4-20.1-11.8-24.3-.2-.2-.5-.2-.8-.4-.1-2.6-2.4-4.8-5.1-4.8-2.9 0-5.1 2.3-5.1 5.1-.2 0-.5.1-.7.2-8.8 6.2-18.5 22.7-25 43-.2.8.2 1.8 1.1 2.1.1 0 .4.1.5.1.7 0 1.4-.5 1.5-1.2 7.6-23.3 17.3-36.4 23.7-41zm29.7 33.3c.1.2.5.5.7.6.6.6 1 1.4 1 2.4 0 1.9-1.5 3.5-3.5 3.5s-3.5-1.5-3.5-3.5 1.5-3.5 3.5-3.5c.7 0 1.3.3 1.8.5zm-25.6-39.9c1.9 0 3.5 1.5 3.5 3.5 0 .2 0 .4-.1.6s-.1.4-.1.6c-.5 1.3-1.8 2.3-3.2 2.3s-2.6-.8-3.2-2.1v-.1c-.1-.4-.2-.8-.2-1.2-.2-2.2 1.4-3.6 3.3-3.6z" fill="url(#c)"/><path d="m154.2 133c-.1 0-.2.1-.4.1-.8.2-1.7.1-2.6-.2-.5-.2-1.1 0-1.2.5-.2.5 0 1.1.5 1.2.8.4 1.7.5 2.4.5.5 0 .8 0 1.3-.1.2 0 .5-.1.6-.2.5-.2.7-.7.6-1.2-.1-.6-.7-.8-1.2-.6z" fill="url(#d)"/><path d="m161.3 119.9c-.5-.1-1 .2-1.2.7-.4 1.3-.6 2.5-1 3.6-.1.5.1 1.1.6 1.2h.2c.4 0 .8-.2 1-.7.4-1.1.6-2.3 1-3.7.1-.5-.1-.9-.6-1.1z" fill="url(#e)"/><path d="m159.3 127.2c-.5-.2-1.1 0-1.2.6-.5 1.3-1.1 2.4-1.5 3.2-.2.5-.1 1.1.2 1.3.1.1.4.1.5.1.4 0 .6-.1.8-.5.6-1 1.2-2.1 1.8-3.6.1-.4-.1-1-.6-1.1z" fill="url(#f)"/><path d="m162.9 112.6c-.5-.1-1 .2-1.1.7l-.2 1.2c-.2.8-.4 1.7-.5 2.4-.1.5.2 1 .7 1.1h.2c.5 0 .8-.4 1-.7.1-.8.4-1.7.5-2.5l.2-1.2c0-.5-.3-.9-.8-1z" fill="url(#g)"/><path d="m132.3 110.4c-.4-.4-1-.5-1.3-.1-.4.4-.5 1-.1 1.3.7.8 1.4 1.8 2.3 2.9.2.2.5.4.7.4s.4-.1.6-.2c.4-.4.5-1 .2-1.3-1-1.2-1.7-2.2-2.4-3z" fill="url(#h)"/><path d="m138.7 119.1c-.6-1-1.3-1.8-1.9-2.7-.4-.5-.8-.5-1.3-.2-.5.4-.5.8-.2 1.3.6.8 1.3 1.8 1.9 2.7l.4.5c.2.2.5.4.7.4s.4 0 .6-.1c.5-.2.5-.8.2-1.3z" fill="url(#i)"/><path d="m141.2 122.6c-.4-.5-.8-.5-1.3-.2-.5.4-.5.8-.2 1.3.8 1.2 1.5 2.1 2.3 3.1.2.2.5.4.7.4s.4-.1.6-.2c.4-.4.5-1 .1-1.3-.6-1-1.4-2-2.2-3.1z" fill="url(#j)"/><path d="m145.7 128.5c-.4-.4-1-.5-1.3-.1-.4.4-.5 1-.1 1.3 1 1.1 1.9 2 2.7 2.7.1.1.4.2.6.2s.5-.1.7-.4c.4-.4.2-1-.1-1.3-.7-.6-1.5-1.4-2.5-2.4z" fill="url(#k)"/><path d="m186.7 154.1c0-.1 0-.1 0 0l-13.9-13.9c-.7-.7-1.8-.7-2.4 0l-.5.5-4.5-4.5c-.5-.5-1.3-.6-1.9-.2 5-4.5 8.2-11.2 8.2-18.5 0-13.8-11.2-25-25-25s-25 11.2-25 25 11.2 25 25 25c6 0 11.3-2 15.6-5.5l-1.5 1.5c-.4.4-.5.7-.5 1.2s.1.8.5 1.2l4.4 4.4-.5.5c-.4.4-.5.7-.5 1.2s.1.8.5 1.2l13.9 13.9c1.1 1.1 2.6 1.7 4 1.7s3-.6 4-1.7c2.4-2.2 2.4-5.8.1-8zm-39.9-15.1c-11.9 0-21.6-9.6-21.6-21.6s9.6-21.6 21.6-21.6c11.9 0 21.6 9.6 21.6 21.6s-9.7 21.6-21.6 21.6zm37.5 20.8c-1 1-2.5 1-3.3.1l-.1-.1-.1-.1-12.6-12.6.5-.5 2.4-2.4.5-.5 12.9 12.6c.8 1 .8 2.6-.2 3.5z" fill="url(#l)"/><path d="m71.7 118.1c1 0 1.7-.7 1.7-1.7v-42.8h99.4v6.1c0 1 .7 1.7 1.7 1.7s1.7-.7 1.7-1.7v-13.3c0-7.5-6.1-13.6-13.6-13.6h-79c-7.5 0-13.6 6.1-13.6 13.6v50.1c0 .9.7 1.6 1.7 1.6zm11.9-62h78.9c5.6 0 10.2 4.6 10.2 10.2v3.8h-99.4v-3.8c0-5.5 4.7-10.2 10.3-10.2z" fill="url(#m)"/><path d="m174.4 161.6c-1 0-1.7.7-1.7 1.7v16.9c0 5.6-4.6 10.2-10.2 10.2l-78.9.1c-2.7 0-5.2-1.1-7.1-3s-3-4.5-3-7.3v-37c0-1-.7-1.7-1.7-1.7s-1.7.7-1.7 1.7v37c0 3.6 1.4 7 4 9.6s6 3.9 9.5 3.9l78.9-.1c7.5 0 13.6-6.1 13.6-13.6v-16.9c0-.8-.7-1.5-1.7-1.5z" fill="url(#n)"/><path d="m85.2 67.3c2.1 0 3.9-1.8 3.9-3.9s-1.7-4-3.9-4c-2.1 0-3.9 1.8-3.9 3.9s1.8 4 3.9 4zm0-6.2c1.2 0 2.3 1 2.3 2.3 0 1.2-1 2.3-2.3 2.3-1.2 0-2.3-1-2.3-2.3.1-1.3 1.2-2.3 2.3-2.3z" fill="url(#o)"/><path d="m97.1 67.3c2.1 0 3.9-1.8 3.9-3.9s-1.8-3.9-3.9-3.9-3.9 1.7-3.9 3.9 1.8 3.9 3.9 3.9zm0-6.2c1.2 0 2.3 1 2.3 2.3 0 1.2-1 2.3-2.3 2.3-1.2 0-2.3-1-2.3-2.3.1-1.3 1.2-2.3 2.3-2.3z" fill="url(#p)"/><path d="m109.1 67.3c2.1 0 3.9-1.8 3.9-3.9s-1.8-3.9-3.9-3.9-3.9 1.7-3.9 3.9c-.1 2.2 1.7 3.9 3.9 3.9zm0-6.2c1.2 0 2.3 1 2.3 2.3 0 1.2-1 2.3-2.3 2.3s-2.3-1-2.3-2.3 1.1-2.3 2.3-2.3z" fill="url(#q)"/></svg>