<svg enable-background="new 0 0 244.7 244.7" viewBox="0 0 244.7 244.7" xmlns="http://www.w3.org/2000/svg" xmlns:xlink="http://www.w3.org/1999/xlink"><linearGradient id="a"><stop offset="0" stop-color="#d93a5f"/><stop offset="1" stop-color="#9c1f4d"/></linearGradient><linearGradient id="b" gradientTransform="matrix(1 0 0 -1 0 174)" gradientUnits="userSpaceOnUse" x1="54.9626" x2="229.1828" xlink:href="#a" y1="91.4445" y2="99.9431"/><linearGradient id="c" gradientTransform="matrix(1 0 0 -1 0 174)" gradientUnits="userSpaceOnUse" x1="56.2286" x2="230.4488" xlink:href="#a" y1="65.4912" y2="73.9898"/><linearGradient id="d" gradientTransform="matrix(1 0 0 -1 0 174)" gradientUnits="userSpaceOnUse" x1="53.9749" x2="228.1951" xlink:href="#a" y1="111.6914" y2="120.1899"/><linearGradient id="e" gradientTransform="matrix(1 0 0 -1 0 174)" gradientUnits="userSpaceOnUse" x1="53.4543" x2="227.6744" xlink:href="#a" y1="122.3657" y2="130.8642"/><linearGradient id="f" gradientTransform="matrix(1 0 0 -1 0 174)" gradientUnits="userSpaceOnUse" x1="53.8734" x2="228.0936" xlink:href="#a" y1="113.7736" y2="122.2722"/><linearGradient id="g" gradientTransform="matrix(1 0 0 -1 0 174)" gradientUnits="userSpaceOnUse" x1="53.9765" x2="228.1967" xlink:href="#a" y1="111.659" y2="120.1576"/><linearGradient id="h" gradientTransform="matrix(1 0 0 -1 0 174)" gradientUnits="userSpaceOnUse" x1="55.2531" x2="211.2793" xlink:href="#a" y1="48.5339" y2="56.1449"/><linearGradient id="i" gradientTransform="matrix(1 0 0 -1 0 174)" gradientUnits="userSpaceOnUse" x1="69.8492" x2="200.3839" xlink:href="#a" y1="69.1054" y2="75.4729"/><linearGradient id="j" gradientTransform="matrix(1 0 0 -1 0 174)" gradientUnits="userSpaceOnUse" x1="56.1264" x2="230.3466" xlink:href="#a" y1="67.5874" y2="76.0859"/><linearGradient id="k" gradientTransform="matrix(1 0 0 -1 0 174)" gradientUnits="userSpaceOnUse" x1="57.302" x2="231.5222" xlink:href="#a" y1="43.4869" y2="51.9855"/><linearGradient id="l" gradientTransform="matrix(1 0 0 -1 0 174)" gradientUnits="userSpaceOnUse" x1="58.4479" x2="232.6679" xlink:href="#a" y1="19.9978" y2="28.4963"/><linearGradient id="m" gradientTransform="matrix(1 0 0 -1 0 174)" gradientUnits="userSpaceOnUse" x1="81.0707" x2="206.564" xlink:href="#a" y1="71.721" y2="77.8426"/><linearGradient id="n" gradientTransform="matrix(1 0 0 -1 0 174)" gradientUnits="userSpaceOnUse" x1="97.5554" x2="205.1705" xlink:href="#a" y1="67.2387" y2="72.4882"/><linearGradient id="o" gradientTransform="matrix(1 0 0 -1 0 174)" gradientUnits="userSpaceOnUse" x1="56.1759" x2="230.3961" xlink:href="#a" y1="66.5728" y2="75.0714"/><linearGradient id="p" gradientTransform="matrix(1 0 0 -1 0 174)" gradientUnits="userSpaceOnUse" x1="37.1133" x2="211.3335" xlink:href="#a" y1="58.99" y2="67.4885"/><linearGradient id="q" gradientTransform="matrix(1 0 0 -1 0 174)" gradientUnits="userSpaceOnUse" x1="89.846" x2="198.8254" xlink:href="#a" y1="62.9149" y2="68.231"/><linearGradient id="r" gradientTransform="matrix(1 0 0 -1 0 174)" gradientUnits="userSpaceOnUse" x1="91.4347" x2="198.1515" xlink:href="#a" y1="48.5402" y2="53.7458"/><linearGradient id="s" gradientTransform="matrix(1 0 0 -1 0 174)" gradientUnits="userSpaceOnUse" x1="38.0423" x2="212.2625" xlink:href="#a" y1="39.9448" y2="48.4433"/><linearGradient id="t" gradientTransform="matrix(1 0 0 -1 0 174)" gradientUnits="userSpaceOnUse" x1="97.9877" x2="192.0385" xlink:href="#a" y1="44.2215" y2="48.8094"/><linearGradient id="u" gradientTransform="matrix(1 0 0 -1 0 174)" gradientUnits="userSpaceOnUse" x1="38.2545" x2="212.4747" xlink:href="#a" y1="35.5949" y2="44.0935"/><linearGradient id="v" gradientTransform="matrix(1 0 0 -1 0 174)" gradientUnits="userSpaceOnUse" x1="57.5981" x2="231.8183" xlink:href="#a" y1="37.4171" y2="45.9157"/><linearGradient id="w" gradientTransform="matrix(1 0 0 -1 0 174)" gradientUnits="userSpaceOnUse" x1="92.1405" x2="198.8572" xlink:href="#a" y1="24.8999" y2="30.1057"/><linearGradient id="x" gradientTransform="matrix(1 0 0 -1 0 174)" gradientUnits="userSpaceOnUse" x1="108.4705" x2="200.4513" xlink:href="#a" y1="20.1744" y2="24.6613"/><linearGradient id="y" gradientTransform="matrix(1 0 0 -1 0 174)" gradientUnits="userSpaceOnUse" x1="58.5037" x2="232.7237" xlink:href="#a" y1="18.854" y2="27.3525"/><linearGradient id="z" gradientTransform="matrix(1 0 0 -1 0 174)" gradientUnits="userSpaceOnUse" x1="39.4411" x2="213.6613" xlink:href="#a" y1="11.2711" y2="19.7697"/><linearGradient id="A" gradientTransform="matrix(1 0 0 -1 0 174)" gradientUnits="userSpaceOnUse" x1="91.3021" x2="200.2814" xlink:href="#a" y1="15.1535" y2="20.4696"/><circle cx="122.3" cy="122.3" fill="#e7e9f2" opacity=".4" r="122.3"/><path d="m108.1 81.9h-22.7c-.8 0-1.4-.6-1.4-1.4s.6-1.4 1.4-1.4h22.6c.8 0 1.4.6 1.4 1.4s-.5 1.4-1.3 1.4z" fill="url(#b)"/><path d="m89.3 114.2c-4.1 0-7.3-3.3-7.3-7.3 0-4.1 3.3-7.3 7.3-7.3 4.1 0 7.3 3.3 7.3 7.3 0 4.1-3.3 7.3-7.3 7.3zm0-13.3c-3.3 0-6 2.7-6 6s2.7 6 6 6 6-2.7 6-6-2.7-6-6-6z" fill="url(#c)"/><path d="m100.7 65.7c-3.1 0-5.7-2.5-5.7-5.7s2.5-5.7 5.7-5.7 5.7 2.5 5.7 5.7-2.6 5.7-5.7 5.7zm0-9.9c-2.4 0-4.3 1.9-4.3 4.3s1.9 4.3 4.3 4.3 4.3-1.9 4.3-4.3-2-4.3-4.3-4.3z" fill="url(#d)"/><path d="m87.4 54.4c-2.5 0-4.4-2-4.4-4.4s2-4.4 4.4-4.4c2.5 0 4.4 2 4.4 4.4s-1.9 4.4-4.4 4.4zm0-7.5c-1.7 0-3.1 1.4-3.1 3.1s1.4 3.1 3.1 3.1 3.1-1.4 3.1-3.1c-.1-1.8-1.4-3.1-3.1-3.1z" fill="url(#e)"/><path d="m73.4 67c-.3 0-.5-.1-.6-.4l-7.4-13.6c-.2-.3-.1-.8.3-1 .3-.2.8-.1 1 .3l7.4 13.6c.2.3.1.8-.3 1-.1.1-.2.1-.4.1z" fill="url(#f)"/><path d="m109.3 67c-.1 0-.2 0-.3-.1-.3-.2-.5-.6-.3-1l7.4-13.6c.2-.3.6-.5 1-.3.3.2.5.6.3 1l-7.4 13.6c-.2.3-.5.4-.7.4z" fill="url(#g)"/><path d="m204.7 91c0-3.4-2.8-6.2-6.2-6.2h-13.3c-.8 0-1.4.6-1.4 1.4s.6 1.4 1.4 1.4h13.3c1.9 0 3.5 1.5 3.5 3.5l.1 71.9c0 .9-.4 1.7-1 2.4-.7.7-1.5 1.1-2.4 1.1h-58.3c-.3-1-.7-1.9-1.3-2.9l-32.5-56.6v-25.1h5.7c2.7 0 4.8-2.1 4.8-4.8v-2.4c0-2.7-2.1-4.8-4.8-4.8h-41.7c-2.7 0-4.8 2.1-4.8 4.8v2.3c0 2.7 2.1 4.8 4.8 4.8h5.1v26.2l-31.9 55.4c-2.2 2.6-2.6 6.4-.9 9.4 1.4 2.6 4.4 4 8.4 4h80c4 0 7-1.4 8.4-4 .7-1.1 1-2.3 1-3.7h57.8c1.6 0 3.2-.7 4.3-1.8 1.2-1.2 1.8-2.7 1.8-4.3v-72zm-67.2 80.3c-1 1.6-3.1 2.6-6.1 2.6h-79.9c-2.9 0-5.1-1-6.1-2.6-1.2-2-1-4.5.6-6.4l32.5-56.2v-29.5h-7.9c-1.2 0-2.1-1-2.1-2.1v-2.4c0-1.2 1-2.1 2.1-2.1h41.6c1.2 0 2.1 1 2.1 2.1v2.3c0 1.2-1 2.1-2.1 2.1h-8.4v28.5l20.3 35.2c-3.6-.7-6.8-1.7-10.2-3.1.8-3.6-.8-8.1-4.6-9.3-3.7-1.2-7.5.8-9 4.3-4-1.1-7.9-1.6-12.1-1.6-2 0-4 0-5.9.2-1.7.1-3.5.3-5.1.6-3.9.6-7.5 1.5-10.9 2.8-.4.1-.6.5-.4.9.1.3.4.5.7.5h.2c3.3-1.3 6.9-2.1 10.6-2.7 1.6-.3 3.4-.5 5-.6 1.9-.1 3.9-.2 5.8-.2 4.3.1 8.3.7 12.4 1.7h.1.2.1c.1 0 .1 0 .2-.1 0 0 0 0 .1-.1l.1-.1s0-.1.1-.1l.1-.1c1-3.2 4.3-5 7.4-4.1 3.2 1.1 4.5 5.2 3.6 8.2v.1.1.1.1s0 .1.1.1c0 0 0 .1.1.1l.1.1s.1 0 .1.1c3.6 1.4 7.5 2.8 12.2 3.6l11.8 20.4c1.2 2.6 1.5 4.9.5 6.6z" fill="url(#h)"/><path d="m111.6 91v13.9 10.9l2.7 4.7v-15.7-13.8c0-1.9 1.5-3.5 3.5-3.5h49.1c.8 0 1.4-.6 1.4-1.4s-.6-1.4-1.4-1.4h-49.1c-3.4.1-6.2 2.9-6.2 6.3z" fill="url(#i)"/><path d="m127.9 110.8h4.9c3 0 5.5-2.5 5.5-5.5v-4.9c0-3-2.5-5.5-5.5-5.5h-4.9c-3 0-5.5 2.5-5.5 5.5v4.9c0 2.9 2.5 5.5 5.5 5.5zm-4.1-10.6c0-2.3 1.8-4.2 4.2-4.2h4.9c2.3 0 4.2 1.8 4.2 4.2v4.9c0 2.3-1.8 4.2-4.2 4.2h-4.9c-2.3 0-4.2-1.8-4.2-4.2z" fill="url(#j)"/><path d="m127.9 134.9h4.9c3 0 5.5-2.5 5.5-5.5v-4.9c0-3-2.5-5.5-5.5-5.5h-4.9c-3 0-5.5 2.5-5.5 5.5v4.9c0 3 2.5 5.5 5.5 5.5zm-4.1-10.5c0-2.3 1.8-4.2 4.2-4.2h4.9c2.3 0 4.2 1.8 4.2 4.2v4.9c0 2.3-1.8 4.2-4.2 4.2h-4.9c-2.3 0-4.2-1.8-4.2-4.2z" fill="url(#k)"/><path d="m133 144.3c2.3 0 4.2 1.9 4.2 4.3v4.9c0 1.4-.7 2.6-1.7 3.3l.7 1.2c1.4-1 2.4-2.6 2.4-4.5v-4.9c0-3-2.5-5.5-5.5-5.5h-5c-.2 0-.4 0-.6 0l.8 1.4h4.7z" fill="url(#l)"/><path d="m195 98.6h-48.7c-.4 0-.7-.3-.7-.7s.3-.7.7-.7h48.7c.4 0 .7.3.7.7s-.3.7-.7.7z" fill="url(#m)"/><path d="m195 103.4h-30c-.4 0-.7-.3-.7-.7s.3-.7.7-.7h30c.4 0 .7.3.7.7s-.3.7-.7.7z" fill="url(#n)"/><path d="m158.2 103.4h-11.9c-.4 0-.7-.3-.7-.7s.3-.7.7-.7h11.9c.4 0 .7.3.7.7s-.3.7-.7.7z" fill="url(#o)"/><path d="m195 108.2h-10.8c-.4 0-.7-.3-.7-.7s.3-.7.7-.7h10.8c.4 0 .7.3.7.7s-.3.7-.7.7z" fill="url(#p)"/><path d="m177.4 108.2h-31.1c-.4 0-.7-.3-.7-.7s.3-.7.7-.7h31.1c.4 0 .7.3.7.7s-.3.7-.7.7z" fill="url(#q)"/><path d="m177.4 108.2h-31.1c-.4 0-.7-.3-.7-.7s.3-.7.7-.7h31.1c.4 0 .7.3.7.7s-.3.7-.7.7z" fill="url(#q)"/><path d="m175.7 122.7h-29.4c-.4 0-.7-.3-.7-.7s.3-.7.7-.7h29.4c.4 0 .7.3.7.7s-.4.7-.7.7z" fill="url(#r)"/><path d="m195 127.6h-20.5c-.4 0-.7-.3-.7-.7s.3-.7.7-.7h20.5c.4 0 .7.3.7.7s-.3.7-.7.7z" fill="url(#s)"/><path d="m167.7 127.6h-21.4c-.4 0-.7-.3-.7-.7s.3-.7.7-.7h21.4c.4 0 .7.3.7.7s-.3.7-.7.7z" fill="url(#t)"/><path d="m195 132.4h-39.8c-.4 0-.7-.3-.7-.7s.3-.7.7-.7h39.8c.4 0 .7.3.7.7s-.3.7-.7.7z" fill="url(#u)"/><path d="m167.8 132.4h-21.5c-.4 0-.7-.3-.7-.7s.3-.7.7-.7h21.5c.4 0 .7.3.7.7s-.3.7-.7.7z" fill="url(#v)"/><path d="m195 132.4h-39.8c-.4 0-.7-.3-.7-.7s.3-.7.7-.7h39.8c.4 0 .7.3.7.7s-.3.7-.7.7z" fill="url(#u)"/><path d="m167.8 132.4h-21.5c-.4 0-.7-.3-.7-.7s.3-.7.7-.7h21.5c.4 0 .7.3.7.7s-.3.7-.7.7z" fill="url(#v)"/><path d="m175.7 146.4h-29.4c-.4 0-.7-.3-.7-.7s.3-.7.7-.7h29.4c.4 0 .7.3.7.7s-.4.7-.7.7z" fill="url(#w)"/><path d="m185.3 151.2h-20.4c-.4 0-.7-.3-.7-.7s.3-.7.7-.7h20.4c.4 0 .7.3.7.7s-.3.7-.7.7z" fill="url(#x)"/><path d="m158.2 151.2h-11.9c-.4 0-.7-.3-.7-.7s.3-.7.7-.7h11.9c.4 0 .7.3.7.7s-.3.7-.7.7z" fill="url(#y)"/><path d="m195 156.1h-10.8c-.4 0-.7-.3-.7-.7s.3-.7.7-.7h10.8c.4 0 .7.3.7.7s-.3.7-.7.7z" fill="url(#z)"/><path d="m177.4 156.1h-31.1c-.4 0-.7-.3-.7-.7s.3-.7.7-.7h31.1c.4 0 .7.3.7.7s-.3.7-.7.7z" fill="url(#A)"/><path d="m195 156.1h-10.8c-.4 0-.7-.3-.7-.7s.3-.7.7-.7h10.8c.4 0 .7.3.7.7s-.3.7-.7.7z" fill="url(#z)"/><path d="m177.4 156.1h-31.1c-.4 0-.7-.3-.7-.7s.3-.7.7-.7h31.1c.4 0 .7.3.7.7s-.3.7-.7.7z" fill="url(#A)"/></svg>