<?xml version="1.0" encoding="utf-8"?>
<!-- Generator: Adobe Illustrator 23.0.4, SVG Export Plug-In . SVG Version: 6.00 Build 0)  -->
<svg version="1.1" id="Layer_1" xmlns="http://www.w3.org/2000/svg" xmlns:xlink="http://www.w3.org/1999/xlink" x="0px" y="0px"
	 viewBox="0 0 244.7 244.7" style="enable-background:new 0 0 244.7 244.7;" xml:space="preserve">
<style type="text/css">
	.st0{opacity:0.4;fill:#E7E9F2;}
	.st1{fill:url(#SVGID_1_);}
	.st2{fill:url(#SVGID_2_);}
	.st3{fill:url(#SVGID_3_);}
	.st4{fill:url(#SVGID_4_);}
	.st5{fill:url(#SVGID_5_);}
	.st6{fill:url(#SVGID_6_);}
	.st7{fill:url(#SVGID_7_);stroke:#000000;stroke-width:2.8346;stroke-linecap:round;stroke-miterlimit:10;}
	.st8{fill:url(#SVGID_8_);}
	.st9{fill:url(#SVGID_9_);}
	.st10{fill:url(#SVGID_10_);}
	.st11{fill:url(#SVGID_11_);}
	.st12{fill:url(#SVGID_12_);}
	.st13{fill:url(#SVGID_13_);}
	.st14{fill:url(#SVGID_14_);}
	.st15{fill:url(#SVGID_15_);}
	.st16{fill:url(#SVGID_16_);}
	.st17{fill:url(#SVGID_17_);}
	.st18{fill:url(#SVGID_18_);}
	.st19{fill:url(#SVGID_19_);}
	.st20{fill:url(#SVGID_20_);}
	.st21{fill:url(#SVGID_21_);}
	.st22{fill:url(#SVGID_22_);}
	.st23{fill:url(#SVGID_23_);}
	.st24{fill:url(#SVGID_24_);}
	.st25{fill:url(#SVGID_25_);}
	.st26{fill:url(#SVGID_26_);}
	.st27{fill:url(#SVGID_27_);}
	.st28{fill:url(#SVGID_28_);}
	.st29{fill:url(#SVGID_29_);}
	.st30{fill:url(#SVGID_30_);}
	.st31{fill:url(#SVGID_31_);}
	.st32{fill:url(#SVGID_32_);}
</style>
<circle class="st0" cx="122.3" cy="122.3" r="122.3"/>
<g>
	<g>
		
			<linearGradient id="SVGID_1_" gradientUnits="userSpaceOnUse" x1="54.9626" y1="91.4445" x2="229.1828" y2="99.9431" gradientTransform="matrix(1 0 0 -1 0 174)">
			<stop  offset="0" style="stop-color:#D93A5F"/>
			<stop  offset="1" style="stop-color:#9C1F4D"/>
		</linearGradient>
		<path class="st1" d="M108.1,81.9H85.4c-0.8,0-1.4-0.6-1.4-1.4c0-0.8,0.6-1.4,1.4-1.4H108c0.8,0,1.4,0.6,1.4,1.4
			C109.4,81.3,108.9,81.9,108.1,81.9z"/>
	</g>
	<g>
		
			<linearGradient id="SVGID_2_" gradientUnits="userSpaceOnUse" x1="56.2286" y1="65.4912" x2="230.4488" y2="73.9898" gradientTransform="matrix(1 0 0 -1 0 174)">
			<stop  offset="0" style="stop-color:#D93A5F"/>
			<stop  offset="1" style="stop-color:#9C1F4D"/>
		</linearGradient>
		<path class="st2" d="M89.3,114.2c-4.1,0-7.3-3.3-7.3-7.3c0-4.1,3.3-7.3,7.3-7.3c4.1,0,7.3,3.3,7.3,7.3
			C96.6,111,93.3,114.2,89.3,114.2z M89.3,100.9c-3.3,0-6,2.7-6,6c0,3.3,2.7,6,6,6s6-2.7,6-6C95.3,103.6,92.6,100.9,89.3,100.9z"/>
	</g>
	<g>
		
			<linearGradient id="SVGID_3_" gradientUnits="userSpaceOnUse" x1="53.9749" y1="111.6914" x2="228.1951" y2="120.1899" gradientTransform="matrix(1 0 0 -1 0 174)">
			<stop  offset="0" style="stop-color:#D93A5F"/>
			<stop  offset="1" style="stop-color:#9C1F4D"/>
		</linearGradient>
		<path class="st3" d="M100.7,65.7c-3.1,0-5.7-2.5-5.7-5.7s2.5-5.7,5.7-5.7c3.2,0,5.7,2.5,5.7,5.7S103.8,65.7,100.7,65.7z
			 M100.7,55.8c-2.4,0-4.3,1.9-4.3,4.3s1.9,4.3,4.3,4.3c2.4,0,4.3-1.9,4.3-4.3S103,55.8,100.7,55.8z"/>
	</g>
	<g>
		
			<linearGradient id="SVGID_4_" gradientUnits="userSpaceOnUse" x1="53.4543" y1="122.3657" x2="227.6744" y2="130.8642" gradientTransform="matrix(1 0 0 -1 0 174)">
			<stop  offset="0" style="stop-color:#D93A5F"/>
			<stop  offset="1" style="stop-color:#9C1F4D"/>
		</linearGradient>
		<path class="st4" d="M87.4,54.4c-2.5,0-4.4-2-4.4-4.4s2-4.4,4.4-4.4c2.5,0,4.4,2,4.4,4.4S89.9,54.4,87.4,54.4z M87.4,46.9
			c-1.7,0-3.1,1.4-3.1,3.1c0,1.7,1.4,3.1,3.1,3.1c1.7,0,3.1-1.4,3.1-3.1C90.4,48.2,89.1,46.9,87.4,46.9z"/>
	</g>
	<g>
		<g>
			
				<linearGradient id="SVGID_5_" gradientUnits="userSpaceOnUse" x1="53.8734" y1="113.7736" x2="228.0936" y2="122.2722" gradientTransform="matrix(1 0 0 -1 0 174)">
				<stop  offset="0" style="stop-color:#D93A5F"/>
				<stop  offset="1" style="stop-color:#9C1F4D"/>
			</linearGradient>
			<path class="st5" d="M73.4,67c-0.3,0-0.5-0.1-0.6-0.4L65.4,53c-0.2-0.3-0.1-0.8,0.3-1c0.3-0.2,0.8-0.1,1,0.3l7.4,13.6
				c0.2,0.3,0.1,0.8-0.3,1C73.7,67,73.6,67,73.4,67z"/>
		</g>
		<g>
			
				<linearGradient id="SVGID_6_" gradientUnits="userSpaceOnUse" x1="53.9765" y1="111.659" x2="228.1967" y2="120.1576" gradientTransform="matrix(1 0 0 -1 0 174)">
				<stop  offset="0" style="stop-color:#D93A5F"/>
				<stop  offset="1" style="stop-color:#9C1F4D"/>
			</linearGradient>
			<path class="st6" d="M109.3,67c-0.1,0-0.2,0-0.3-0.1c-0.3-0.2-0.5-0.6-0.3-1l7.4-13.6c0.2-0.3,0.6-0.5,1-0.3
				c0.3,0.2,0.5,0.6,0.3,1L110,66.6C109.8,66.9,109.5,67,109.3,67z"/>
		</g>
	</g>
	<g>
		
			<linearGradient id="SVGID_7_" gradientUnits="userSpaceOnUse" x1="117.1144" y1="54.7349" x2="117.1144" y2="54.7349" gradientTransform="matrix(1 0 0 -1 0 174)">
			<stop  offset="0" style="stop-color:#D93A5F"/>
			<stop  offset="1" style="stop-color:#9C1F4D"/>
		</linearGradient>
		<path class="st7" d="M117.1,119.3"/>
	</g>
	<g>
		
			<linearGradient id="SVGID_8_" gradientUnits="userSpaceOnUse" x1="55.2531" y1="48.5339" x2="211.2793" y2="56.1449" gradientTransform="matrix(1 0 0 -1 0 174)">
			<stop  offset="0" style="stop-color:#D93A5F"/>
			<stop  offset="1" style="stop-color:#9C1F4D"/>
		</linearGradient>
		<path class="st8" d="M204.7,91c0-3.4-2.8-6.2-6.2-6.2h-13.3c-0.8,0-1.4,0.6-1.4,1.4c0,0.8,0.6,1.4,1.4,1.4h13.3
			c1.9,0,3.5,1.5,3.5,3.5l0.1,71.9c0,0.9-0.4,1.7-1,2.4c-0.7,0.7-1.5,1.1-2.4,1.1h-58.3c-0.3-1-0.7-1.9-1.3-2.9L106.6,107V81.9h5.7
			c2.7,0,4.8-2.1,4.8-4.8v-2.4c0-2.7-2.1-4.8-4.8-4.8H70.6c-2.7,0-4.8,2.1-4.8,4.8V77c0,2.7,2.1,4.8,4.8,4.8h5.1V108l-31.9,55.4
			c-2.2,2.6-2.6,6.4-0.9,9.4c1.4,2.6,4.4,4,8.4,4h80c4,0,7-1.4,8.4-4c0.7-1.1,1-2.3,1-3.7h57.8c1.6,0,3.2-0.7,4.3-1.8
			c1.2-1.2,1.8-2.7,1.8-4.3V91z M137.5,171.3c-1,1.6-3.1,2.6-6.1,2.6H51.5c-2.9,0-5.1-1-6.1-2.6c-1.2-2-1-4.5,0.6-6.4l32.5-56.2
			V79.2h-7.9c-1.2,0-2.1-1-2.1-2.1v-2.4c0-1.2,1-2.1,2.1-2.1h41.6c1.2,0,2.1,1,2.1,2.1V77c0,1.2-1,2.1-2.1,2.1h-8.4v28.5l20.3,35.2
			c-3.6-0.7-6.8-1.7-10.2-3.1c0.8-3.6-0.8-8.1-4.6-9.3c-3.7-1.2-7.5,0.8-9,4.3c-4-1.1-7.9-1.6-12.1-1.6c-2,0-4,0-5.9,0.2
			c-1.7,0.1-3.5,0.3-5.1,0.6c-3.9,0.6-7.5,1.5-10.9,2.8c-0.4,0.1-0.6,0.5-0.4,0.9c0.1,0.3,0.4,0.5,0.7,0.5c0.1,0,0.2,0,0.2,0
			c3.3-1.3,6.9-2.1,10.6-2.7c1.6-0.3,3.4-0.5,5-0.6c1.9-0.1,3.9-0.2,5.8-0.2c4.3,0.1,8.3,0.7,12.4,1.7h0.1c0.1,0,0.1,0,0.2,0h0.1
			c0.1,0,0.1,0,0.2-0.1c0,0,0,0,0.1-0.1l0.1-0.1c0,0,0-0.1,0.1-0.1l0.1-0.1c1-3.2,4.3-5,7.4-4.1c3.2,1.1,4.5,5.2,3.6,8.2v0.1v0.1
			v0.1v0.1c0,0,0,0.1,0.1,0.1c0,0,0,0.1,0.1,0.1l0.1,0.1c0,0,0.1,0,0.1,0.1c3.6,1.4,7.5,2.8,12.2,3.6l11.8,20.4
			C138.2,167.3,138.5,169.6,137.5,171.3z"/>
		
			<linearGradient id="SVGID_9_" gradientUnits="userSpaceOnUse" x1="69.8492" y1="69.1054" x2="200.3839" y2="75.4729" gradientTransform="matrix(1 0 0 -1 0 174)">
			<stop  offset="0" style="stop-color:#D93A5F"/>
			<stop  offset="1" style="stop-color:#9C1F4D"/>
		</linearGradient>
		<path class="st9" d="M111.6,91v13.9v10.9l2.7,4.7v-15.7V91c0-1.9,1.5-3.5,3.5-3.5h49.1c0.8,0,1.4-0.6,1.4-1.4
			c0-0.8-0.6-1.4-1.4-1.4h-49.1C114.4,84.8,111.6,87.6,111.6,91z"/>
	</g>
	<g>
		
			<linearGradient id="SVGID_10_" gradientUnits="userSpaceOnUse" x1="56.1264" y1="67.5874" x2="230.3466" y2="76.0859" gradientTransform="matrix(1 0 0 -1 0 174)">
			<stop  offset="0" style="stop-color:#D93A5F"/>
			<stop  offset="1" style="stop-color:#9C1F4D"/>
		</linearGradient>
		<path class="st10" d="M127.9,110.8h4.9c3,0,5.5-2.5,5.5-5.5v-4.9c0-3-2.5-5.5-5.5-5.5h-4.9c-3,0-5.5,2.5-5.5,5.5v4.9
			C122.4,108.2,124.9,110.8,127.9,110.8z M123.8,100.2c0-2.3,1.8-4.2,4.2-4.2h4.9c2.3,0,4.2,1.8,4.2,4.2v4.9c0,2.3-1.8,4.2-4.2,4.2
			h-4.9c-2.3,0-4.2-1.8-4.2-4.2V100.2z"/>
	</g>
	<g>
		
			<linearGradient id="SVGID_11_" gradientUnits="userSpaceOnUse" x1="57.302" y1="43.4869" x2="231.5222" y2="51.9855" gradientTransform="matrix(1 0 0 -1 0 174)">
			<stop  offset="0" style="stop-color:#D93A5F"/>
			<stop  offset="1" style="stop-color:#9C1F4D"/>
		</linearGradient>
		<path class="st11" d="M127.9,134.9h4.9c3,0,5.5-2.5,5.5-5.5v-4.9c0-3-2.5-5.5-5.5-5.5h-4.9c-3,0-5.5,2.5-5.5,5.5v4.9
			C122.4,132.4,124.9,134.9,127.9,134.9z M123.8,124.4c0-2.3,1.8-4.2,4.2-4.2h4.9c2.3,0,4.2,1.8,4.2,4.2v4.9c0,2.3-1.8,4.2-4.2,4.2
			h-4.9c-2.3,0-4.2-1.8-4.2-4.2V124.4z"/>
	</g>
	<g>
		
			<linearGradient id="SVGID_12_" gradientUnits="userSpaceOnUse" x1="58.4479" y1="19.9978" x2="232.6679" y2="28.4963" gradientTransform="matrix(1 0 0 -1 0 174)">
			<stop  offset="0" style="stop-color:#D93A5F"/>
			<stop  offset="1" style="stop-color:#9C1F4D"/>
		</linearGradient>
		<path class="st12" d="M133,144.3c2.3,0,4.2,1.9,4.2,4.3v4.9c0,1.4-0.7,2.6-1.7,3.3l0.7,1.2c1.4-1,2.4-2.6,2.4-4.5v-4.9
			c0-3-2.5-5.5-5.5-5.5h-5c-0.2,0-0.4,0-0.6,0l0.8,1.4H133L133,144.3z"/>
	</g>
	<g>
		<g>
			
				<linearGradient id="SVGID_13_" gradientUnits="userSpaceOnUse" x1="81.0707" y1="71.721" x2="206.564" y2="77.8426" gradientTransform="matrix(1 0 0 -1 0 174)">
				<stop  offset="0" style="stop-color:#D93A5F"/>
				<stop  offset="1" style="stop-color:#9C1F4D"/>
			</linearGradient>
			<path class="st13" d="M195,98.6h-48.7c-0.4,0-0.7-0.3-0.7-0.7s0.3-0.7,0.7-0.7H195c0.4,0,0.7,0.3,0.7,0.7S195.4,98.6,195,98.6z"
				/>
		</g>
		<g>
			
				<linearGradient id="SVGID_14_" gradientUnits="userSpaceOnUse" x1="97.5554" y1="67.2387" x2="205.1705" y2="72.4882" gradientTransform="matrix(1 0 0 -1 0 174)">
				<stop  offset="0" style="stop-color:#D93A5F"/>
				<stop  offset="1" style="stop-color:#9C1F4D"/>
			</linearGradient>
			<path class="st14" d="M195,103.4h-30c-0.4,0-0.7-0.3-0.7-0.7s0.3-0.7,0.7-0.7h30c0.4,0,0.7,0.3,0.7,0.7S195.4,103.4,195,103.4z"
				/>
		</g>
		<g>
			
				<linearGradient id="SVGID_15_" gradientUnits="userSpaceOnUse" x1="56.1759" y1="66.5728" x2="230.3961" y2="75.0714" gradientTransform="matrix(1 0 0 -1 0 174)">
				<stop  offset="0" style="stop-color:#D93A5F"/>
				<stop  offset="1" style="stop-color:#9C1F4D"/>
			</linearGradient>
			<path class="st15" d="M158.2,103.4h-11.9c-0.4,0-0.7-0.3-0.7-0.7s0.3-0.7,0.7-0.7h11.9c0.4,0,0.7,0.3,0.7,0.7
				S158.6,103.4,158.2,103.4z"/>
		</g>
		<g>
			
				<linearGradient id="SVGID_16_" gradientUnits="userSpaceOnUse" x1="37.1133" y1="58.99" x2="211.3335" y2="67.4885" gradientTransform="matrix(1 0 0 -1 0 174)">
				<stop  offset="0" style="stop-color:#D93A5F"/>
				<stop  offset="1" style="stop-color:#9C1F4D"/>
			</linearGradient>
			<path class="st16" d="M195,108.2h-10.8c-0.4,0-0.7-0.3-0.7-0.7s0.3-0.7,0.7-0.7H195c0.4,0,0.7,0.3,0.7,0.7S195.4,108.2,195,108.2
				z"/>
		</g>
		<g>
			
				<linearGradient id="SVGID_17_" gradientUnits="userSpaceOnUse" x1="89.846" y1="62.9149" x2="198.8254" y2="68.231" gradientTransform="matrix(1 0 0 -1 0 174)">
				<stop  offset="0" style="stop-color:#D93A5F"/>
				<stop  offset="1" style="stop-color:#9C1F4D"/>
			</linearGradient>
			<path class="st17" d="M177.4,108.2h-31.1c-0.4,0-0.7-0.3-0.7-0.7s0.3-0.7,0.7-0.7h31.1c0.4,0,0.7,0.3,0.7,0.7
				S177.8,108.2,177.4,108.2z"/>
		</g>
		<g>
			
				<linearGradient id="SVGID_18_" gradientUnits="userSpaceOnUse" x1="89.846" y1="62.9149" x2="198.8254" y2="68.231" gradientTransform="matrix(1 0 0 -1 0 174)">
				<stop  offset="0" style="stop-color:#D93A5F"/>
				<stop  offset="1" style="stop-color:#9C1F4D"/>
			</linearGradient>
			<path class="st18" d="M177.4,108.2h-31.1c-0.4,0-0.7-0.3-0.7-0.7s0.3-0.7,0.7-0.7h31.1c0.4,0,0.7,0.3,0.7,0.7
				S177.8,108.2,177.4,108.2z"/>
		</g>
	</g>
	<g>
		<g>
			
				<linearGradient id="SVGID_19_" gradientUnits="userSpaceOnUse" x1="91.4347" y1="48.5402" x2="198.1515" y2="53.7458" gradientTransform="matrix(1 0 0 -1 0 174)">
				<stop  offset="0" style="stop-color:#D93A5F"/>
				<stop  offset="1" style="stop-color:#9C1F4D"/>
			</linearGradient>
			<path class="st19" d="M175.7,122.7h-29.4c-0.4,0-0.7-0.3-0.7-0.7s0.3-0.7,0.7-0.7h29.4c0.4,0,0.7,0.3,0.7,0.7
				S176,122.7,175.7,122.7z"/>
		</g>
		<g>
			
				<linearGradient id="SVGID_20_" gradientUnits="userSpaceOnUse" x1="38.0423" y1="39.9448" x2="212.2625" y2="48.4433" gradientTransform="matrix(1 0 0 -1 0 174)">
				<stop  offset="0" style="stop-color:#D93A5F"/>
				<stop  offset="1" style="stop-color:#9C1F4D"/>
			</linearGradient>
			<path class="st20" d="M195,127.6h-20.5c-0.4,0-0.7-0.3-0.7-0.7c0-0.4,0.3-0.7,0.7-0.7H195c0.4,0,0.7,0.3,0.7,0.7
				C195.7,127.3,195.4,127.6,195,127.6z"/>
		</g>
		<g>
			
				<linearGradient id="SVGID_21_" gradientUnits="userSpaceOnUse" x1="97.9877" y1="44.2215" x2="192.0385" y2="48.8094" gradientTransform="matrix(1 0 0 -1 0 174)">
				<stop  offset="0" style="stop-color:#D93A5F"/>
				<stop  offset="1" style="stop-color:#9C1F4D"/>
			</linearGradient>
			<path class="st21" d="M167.7,127.6h-21.4c-0.4,0-0.7-0.3-0.7-0.7c0-0.4,0.3-0.7,0.7-0.7h21.4c0.4,0,0.7,0.3,0.7,0.7
				C168.4,127.3,168.1,127.6,167.7,127.6z"/>
		</g>
		<g>
			
				<linearGradient id="SVGID_22_" gradientUnits="userSpaceOnUse" x1="38.2545" y1="35.5949" x2="212.4747" y2="44.0935" gradientTransform="matrix(1 0 0 -1 0 174)">
				<stop  offset="0" style="stop-color:#D93A5F"/>
				<stop  offset="1" style="stop-color:#9C1F4D"/>
			</linearGradient>
			<path class="st22" d="M195,132.4h-39.8c-0.4,0-0.7-0.3-0.7-0.7s0.3-0.7,0.7-0.7H195c0.4,0,0.7,0.3,0.7,0.7S195.4,132.4,195,132.4
				z"/>
		</g>
		<g>
			
				<linearGradient id="SVGID_23_" gradientUnits="userSpaceOnUse" x1="57.5981" y1="37.4171" x2="231.8183" y2="45.9157" gradientTransform="matrix(1 0 0 -1 0 174)">
				<stop  offset="0" style="stop-color:#D93A5F"/>
				<stop  offset="1" style="stop-color:#9C1F4D"/>
			</linearGradient>
			<path class="st23" d="M167.8,132.4h-21.5c-0.4,0-0.7-0.3-0.7-0.7s0.3-0.7,0.7-0.7h21.5c0.4,0,0.7,0.3,0.7,0.7
				S168.2,132.4,167.8,132.4z"/>
		</g>
		<g>
			
				<linearGradient id="SVGID_24_" gradientUnits="userSpaceOnUse" x1="38.2545" y1="35.5949" x2="212.4747" y2="44.0935" gradientTransform="matrix(1 0 0 -1 0 174)">
				<stop  offset="0" style="stop-color:#D93A5F"/>
				<stop  offset="1" style="stop-color:#9C1F4D"/>
			</linearGradient>
			<path class="st24" d="M195,132.4h-39.8c-0.4,0-0.7-0.3-0.7-0.7s0.3-0.7,0.7-0.7H195c0.4,0,0.7,0.3,0.7,0.7S195.4,132.4,195,132.4
				z"/>
		</g>
		<g>
			
				<linearGradient id="SVGID_25_" gradientUnits="userSpaceOnUse" x1="57.5981" y1="37.4171" x2="231.8183" y2="45.9157" gradientTransform="matrix(1 0 0 -1 0 174)">
				<stop  offset="0" style="stop-color:#D93A5F"/>
				<stop  offset="1" style="stop-color:#9C1F4D"/>
			</linearGradient>
			<path class="st25" d="M167.8,132.4h-21.5c-0.4,0-0.7-0.3-0.7-0.7s0.3-0.7,0.7-0.7h21.5c0.4,0,0.7,0.3,0.7,0.7
				S168.2,132.4,167.8,132.4z"/>
		</g>
	</g>
	<g>
		<g>
			
				<linearGradient id="SVGID_26_" gradientUnits="userSpaceOnUse" x1="92.1405" y1="24.8999" x2="198.8572" y2="30.1057" gradientTransform="matrix(1 0 0 -1 0 174)">
				<stop  offset="0" style="stop-color:#D93A5F"/>
				<stop  offset="1" style="stop-color:#9C1F4D"/>
			</linearGradient>
			<path class="st26" d="M175.7,146.4h-29.4c-0.4,0-0.7-0.3-0.7-0.7s0.3-0.7,0.7-0.7h29.4c0.4,0,0.7,0.3,0.7,0.7
				S176,146.4,175.7,146.4z"/>
		</g>
		<g>
			
				<linearGradient id="SVGID_27_" gradientUnits="userSpaceOnUse" x1="108.4705" y1="20.1744" x2="200.4513" y2="24.6613" gradientTransform="matrix(1 0 0 -1 0 174)">
				<stop  offset="0" style="stop-color:#D93A5F"/>
				<stop  offset="1" style="stop-color:#9C1F4D"/>
			</linearGradient>
			<path class="st27" d="M185.3,151.2h-20.4c-0.4,0-0.7-0.3-0.7-0.7s0.3-0.7,0.7-0.7h20.4c0.4,0,0.7,0.3,0.7,0.7
				S185.7,151.2,185.3,151.2z"/>
		</g>
		<g>
			
				<linearGradient id="SVGID_28_" gradientUnits="userSpaceOnUse" x1="58.5037" y1="18.854" x2="232.7237" y2="27.3525" gradientTransform="matrix(1 0 0 -1 0 174)">
				<stop  offset="0" style="stop-color:#D93A5F"/>
				<stop  offset="1" style="stop-color:#9C1F4D"/>
			</linearGradient>
			<path class="st28" d="M158.2,151.2h-11.9c-0.4,0-0.7-0.3-0.7-0.7s0.3-0.7,0.7-0.7h11.9c0.4,0,0.7,0.3,0.7,0.7
				S158.6,151.2,158.2,151.2z"/>
		</g>
		<g>
			
				<linearGradient id="SVGID_29_" gradientUnits="userSpaceOnUse" x1="39.4411" y1="11.2711" x2="213.6613" y2="19.7697" gradientTransform="matrix(1 0 0 -1 0 174)">
				<stop  offset="0" style="stop-color:#D93A5F"/>
				<stop  offset="1" style="stop-color:#9C1F4D"/>
			</linearGradient>
			<path class="st29" d="M195,156.1h-10.8c-0.4,0-0.7-0.3-0.7-0.7s0.3-0.7,0.7-0.7H195c0.4,0,0.7,0.3,0.7,0.7S195.4,156.1,195,156.1
				z"/>
		</g>
		<g>
			
				<linearGradient id="SVGID_30_" gradientUnits="userSpaceOnUse" x1="91.3021" y1="15.1535" x2="200.2814" y2="20.4696" gradientTransform="matrix(1 0 0 -1 0 174)">
				<stop  offset="0" style="stop-color:#D93A5F"/>
				<stop  offset="1" style="stop-color:#9C1F4D"/>
			</linearGradient>
			<path class="st30" d="M177.4,156.1h-31.1c-0.4,0-0.7-0.3-0.7-0.7s0.3-0.7,0.7-0.7h31.1c0.4,0,0.7,0.3,0.7,0.7
				S177.8,156.1,177.4,156.1z"/>
		</g>
		<g>
			
				<linearGradient id="SVGID_31_" gradientUnits="userSpaceOnUse" x1="39.4411" y1="11.2711" x2="213.6613" y2="19.7697" gradientTransform="matrix(1 0 0 -1 0 174)">
				<stop  offset="0" style="stop-color:#D93A5F"/>
				<stop  offset="1" style="stop-color:#9C1F4D"/>
			</linearGradient>
			<path class="st31" d="M195,156.1h-10.8c-0.4,0-0.7-0.3-0.7-0.7s0.3-0.7,0.7-0.7H195c0.4,0,0.7,0.3,0.7,0.7S195.4,156.1,195,156.1
				z"/>
		</g>
		<g>
			
				<linearGradient id="SVGID_32_" gradientUnits="userSpaceOnUse" x1="91.3021" y1="15.1535" x2="200.2814" y2="20.4696" gradientTransform="matrix(1 0 0 -1 0 174)">
				<stop  offset="0" style="stop-color:#D93A5F"/>
				<stop  offset="1" style="stop-color:#9C1F4D"/>
			</linearGradient>
			<path class="st32" d="M177.4,156.1h-31.1c-0.4,0-0.7-0.3-0.7-0.7s0.3-0.7,0.7-0.7h31.1c0.4,0,0.7,0.3,0.7,0.7
				S177.8,156.1,177.4,156.1z"/>
		</g>
	</g>
</g>
</svg>
