<svg enable-background="new 0 0 465 465" viewBox="0 0 465 465" xmlns="http://www.w3.org/2000/svg"><path d="m240 356.071v-223.951c0-4.143-3.357-7.5-7.5-7.5s-7.5 3.357-7.5 7.5v223.951c0 4.143 3.357 7.5 7.5 7.5s7.5-3.357 7.5-7.5z"/><path d="m457.5 75.782c-15.856 0-35.614-6.842-56.533-14.085-26.492-9.174-56.521-19.571-87.663-19.571-36.035 0-58.019 15.791-70.115 29.038-4.524 4.956-8.03 9.922-10.688 14.327-2.658-4.405-6.164-9.371-10.688-14.327-12.097-13.247-34.08-29.038-70.115-29.038-31.143 0-61.171 10.397-87.663 19.571-20.921 7.243-40.679 14.085-56.535 14.085-4.143 0-7.5 3.357-7.5 7.5v302.092c0 4.143 3.357 7.5 7.5 7.5 18.38 0 39.297-7.243 61.441-14.911 25.375-8.786 54.136-18.745 82.755-18.745 24.54 0 44.403 8.126 59.038 24.152 2.792 3.058 7.537 3.273 10.596.48s3.273-7.537.48-10.596c-12.097-13.246-34.08-29.037-70.114-29.037-31.143 0-61.171 10.397-87.663 19.571-17.735 6.143-34.637 11.994-49.033 13.634v-287.012c16.491-1.571 34.755-7.896 53.941-14.539 25.375-8.786 54.136-18.745 82.755-18.745 57.881 0 73.025 45.962 73.634 47.894.968 3.148 3.876 5.298 7.17 5.298s6.202-2.149 7.17-5.298c.146-.479 15.383-47.894 73.634-47.894 28.619 0 57.38 9.959 82.755 18.745 19.187 6.644 37.45 12.968 53.941 14.539v287.012c-14.396-1.64-31.298-7.491-49.033-13.633-26.492-9.174-56.521-19.571-87.663-19.571-36.036 0-58.02 15.791-70.115 29.038-2.793 3.06-2.578 7.803.48 10.596 3.06 2.793 7.804 2.578 10.596-.48 14.635-16.027 34.498-24.153 59.039-24.153 28.619 0 57.38 9.959 82.755 18.745 22.145 7.668 43.062 14.911 61.441 14.911 4.143 0 7.5-3.357 7.5-7.5v-302.093c0-4.142-3.357-7.5-7.5-7.5z"/><path d="m457.5 407.874c-15.856 0-35.614-6.842-56.533-14.085-26.492-9.174-56.521-19.571-87.663-19.571-33.843 0-55.291 13.928-67.796 26.596l-26.017-.001c-12.505-12.668-33.954-26.595-67.795-26.595-31.143 0-61.171 10.397-87.663 19.571-20.919 7.243-40.677 14.085-56.533 14.085-4.143 0-7.5 3.357-7.5 7.5s3.357 7.5 7.5 7.5c18.38 0 39.297-7.243 61.441-14.911 25.375-8.786 54.136-18.745 82.755-18.745 24.54 0 44.403 8.126 59.038 24.152 1.421 1.556 3.431 2.442 5.538 2.442l32.454.001c2.107 0 4.117-.887 5.538-2.442 14.635-16.027 34.498-24.153 59.039-24.153 28.619 0 57.38 9.959 82.755 18.745 22.145 7.668 43.062 14.911 61.441 14.911 4.143 0 7.5-3.357 7.5-7.5s-3.356-7.5-7.499-7.5z"/></svg>