<svg enable-background="new 0 0 244.7 244.7" viewBox="0 0 244.7 244.7" xmlns="http://www.w3.org/2000/svg" xmlns:xlink="http://www.w3.org/1999/xlink"><linearGradient id="a"><stop offset="0" stop-color="#d93a5f"/><stop offset="1" stop-color="#9c1f4d"/></linearGradient><linearGradient id="b" gradientTransform="matrix(1 0 0 -1 0 243.4113)" gradientUnits="userSpaceOnUse" x1="-103.265" x2="30.1233" xlink:href="#a" y1="110.9722" y2="127.8289"/><linearGradient id="c" gradientTransform="matrix(1 0 0 -1 0 243.4113)" gradientUnits="userSpaceOnUse" x1="49.191" x2="182.5792" xlink:href="#a" y1="90.2109" y2="107.0677"/><linearGradient id="d" gradientTransform="matrix(1 0 0 -1 0 243.4113)" gradientUnits="userSpaceOnUse" x1="51.5731" x2="184.9613" xlink:href="#a" y1="30.4638" y2="47.3206"/><linearGradient id="e" gradientTransform="matrix(1 0 0 -1 0 243.4113)" gradientUnits="userSpaceOnUse" x1="111.1543" x2="244.5426" xlink:href="#a" y1="199.6859" y2="216.5426"/><linearGradient id="f" gradientTransform="matrix(1 0 0 -1 0 243.4113)" gradientUnits="userSpaceOnUse" x1="52.2572" x2="185.6455" xlink:href="#a" y1="109.4151" y2="126.2719"/><linearGradient id="g" gradientTransform="matrix(1 0 0 -1 0 243.4113)" gradientUnits="userSpaceOnUse" x1="51.6374" x2="185.0257" xlink:href="#a" y1="114.3192" y2="131.176"/><linearGradient id="h" gradientTransform="matrix(1 0 0 -1 0 243.4113)" gradientUnits="userSpaceOnUse" x1="51.3224" x2="184.7107" xlink:href="#a" y1="116.8118" y2="133.6686"/><linearGradient id="i" gradientTransform="matrix(1 0 0 -1 0 243.4113)" gradientUnits="userSpaceOnUse" x1="52.4939" x2="185.8821" xlink:href="#a" y1="107.5423" y2="124.399"/><linearGradient id="j" gradientTransform="matrix(1 0 0 -1 0 243.4113)" gradientUnits="userSpaceOnUse" x1="52.5272" x2="185.9154" xlink:href="#a" y1="107.2789" y2="124.1357"/><linearGradient id="k" gradientTransform="matrix(1 0 0 -1 0 243.4113)" gradientUnits="userSpaceOnUse" x1="51.9073" x2="185.2957" xlink:href="#a" y1="112.1833" y2="129.04"/><linearGradient id="l" gradientTransform="matrix(1 0 0 -1 0 243.4113)" gradientUnits="userSpaceOnUse" x1="51.7853" x2="185.1736" xlink:href="#a" y1="113.1489" y2="130.0057"/><linearGradient id="m" gradientTransform="matrix(1 0 0 -1 0 243.4113)" gradientUnits="userSpaceOnUse" x1="56.836" x2="190.2242" xlink:href="#a" y1="73.1828" y2="90.0396"/><linearGradient id="n" gradientTransform="matrix(1 0 0 -1 0 243.4113)" gradientUnits="userSpaceOnUse" x1="56.9931" x2="190.3815" xlink:href="#a" y1="71.939" y2="88.7957"/><linearGradient id="o" gradientTransform="matrix(1 0 0 -1 0 243.4113)" gradientUnits="userSpaceOnUse" x1="57.1504" x2="190.5387" xlink:href="#a" y1="70.6951" y2="87.5519"/><linearGradient id="p" gradientTransform="matrix(1 0 0 -1 0 243.4113)" gradientUnits="userSpaceOnUse" x1="57.3076" x2="190.6959" xlink:href="#a" y1="69.4512" y2="86.308"/><linearGradient id="q" gradientTransform="matrix(1 0 0 -1 0 243.4113)" gradientUnits="userSpaceOnUse" x1="44.9804" x2="178.3686" xlink:href="#a" y1="166.9972" y2="183.8539"/><linearGradient id="r" gradientTransform="matrix(1 0 0 -1 0 243.4113)" gradientUnits="userSpaceOnUse" x1="45.1375" x2="178.5258" xlink:href="#a" y1="165.7533" y2="182.6102"/><linearGradient id="s" gradientTransform="matrix(1 0 0 -1 0 243.4113)" gradientUnits="userSpaceOnUse" x1="45.2948" x2="178.683" xlink:href="#a" y1="164.5095" y2="181.3663"/><circle cx="122.3" cy="122.3" fill="#e7e9f2" opacity=".4" r="122.3"/><path d="m24.6 122.6c3.5 0 6.3-2.8 6.3-6.3s-2.8-6.3-6.3-6.3-6.3 2.8-6.3 6.3c.1 3.5 2.9 6.3 6.3 6.3zm0-11.1c2.7 0 4.8 2.2 4.8 4.8s-2.2 4.8-4.8 4.8-4.8-2.2-4.8-4.8 2.1-4.8 4.8-4.8z" fill="url(#b)"/><path d="m214.7 126c-3.5 0-6.3 2.8-6.3 6.3s2.8 6.3 6.3 6.3 6.3-2.8 6.3-6.3-2.8-6.3-6.3-6.3zm0 11.1c-2.7 0-4.8-2.2-4.8-4.8s2.2-4.8 4.8-4.8 4.8 2.2 4.8 4.8-2.1 4.8-4.8 4.8z" fill="url(#c)"/><path d="m129.8 202.3-.6-.2c-2.6-.4-4.6-2.4-5-5l-.1-.6h-.1c-.3-.7-.8-1.5-1.7-1.5s-1.4.8-1.7 1.5h-.1l-.1.6c-.4 2.6-2.4 4.6-5 5l-.6.1v.1c-.7.3-1.5.8-1.5 1.7s.8 1.4 1.5 1.7v.1l.6.1c2.6.4 4.6 2.4 5 5l.1.6h.1c.3.7.8 1.5 1.7 1.5s1.4-.8 1.7-1.5h.1l.1-.6c.4-2.6 2.4-4.6 5-5l.6-.1v-.1c.7-.3 1.5-.8 1.5-1.7s-.7-1.5-1.5-1.7zm-.8 2.1-.6.1v.1c-2.7.7-4.8 2.8-5.5 5.5h-.1l-.1.6c0 .4-.3.9-.4.9-.1-.1-.4-.5-.5-.9l-.1-.6h-.1c-.7-2.7-2.8-4.8-5.5-5.5v-.1l-.6-.1c-.4 0-.9-.3-.9-.4.1-.1.5-.4.9-.5l.6-.1v-.1c2.7-.7 4.8-2.8 5.5-5.5h.1l.1-.6c0-.4.3-.9.4-.9.1.1.4.5.5.9l.1.6h.1c.7 2.7 2.8 4.8 5.5 5.5v.1l.6.1c.4 0 .8.3.9.5-.1.1-.5.4-.9.4z" fill="url(#d)"/><path d="m95.1 45-.6-.2c-2.6-.4-4.6-2.4-5-5l-.1-.6h-.1c-.3-.7-.8-1.5-1.7-1.5s-1.4.8-1.7 1.5l-.1.6c-.4 2.6-2.4 4.6-5 5l-.7.1c-.7.3-1.5.9-1.5 1.8s.8 1.4 1.5 1.7v.1l.6.1c2.6.4 4.6 2.4 5 5l.1.6h.1c.3.7.9 1.5 1.7 1.5s1.4-.8 1.7-1.5h.1l.1-.6c.4-2.6 2.4-4.6 5-5l.6-.1v-.1c.7-.3 1.5-.8 1.5-1.7s-.8-1.5-1.5-1.7zm-.8 2.1-.6.1v.1c-2.7.7-4.8 2.8-5.5 5.5l-.1.6c0 .4-.3.9-.4.9-.1-.1-.4-.5-.5-.9l-.1-.6h-.1c-.7-2.7-2.8-4.8-5.5-5.5v-.1l-.6-.1c-.4 0-.9-.3-.9-.4.1-.1.5-.4.9-.5l.6-.1v-.1c2.7-.7 4.8-2.8 5.5-5.5h.1l.1-.6c0-.4.3-.9.4-.9.1.1.4.5.5.9l.1.6h.1c.7 2.7 2.8 4.8 5.5 5.5v.1l.6.1c.4 0 .8.3.9.5-.2.1-.6.4-1 .4z" fill="url(#e)"/><path d="m65.8 153.6c1.2 0 2.1-1 2.1-2.1v-38.4c0-1.2-1-2.1-2.1-2.1s-2.1 1-2.1 2.1v38.3c0 1.2 1 2.2 2.1 2.2z" fill="url(#f)"/><path d="m78.6 153.6c1.2 0 2.1-1 2.1-2.1v-51.6c0-1.2-1-2.1-2.1-2.1s-2.1 1-2.1 2.1v51.6c0 1.1 1 2.1 2.1 2.1z" fill="url(#g)"/><path d="m91.4 153.6c1.2 0 2.1-1 2.1-2.1v-59.9c0-1.2-1-2.1-2.1-2.1s-2.1 1-2.1 2.1v59.8c0 1.2.9 2.2 2.1 2.2z" fill="url(#h)"/><path d="m104.2 153.6c1.2 0 2.1-1 2.1-2.1v-44.3c0-1.2-1-2.1-2.1-2.1s-2.1 1-2.1 2.1v44.3c0 1.1.9 2.1 2.1 2.1z" fill="url(#i)"/><path d="m117 153.6c1.2 0 2.1-1 2.1-2.1v-47c0-1.2-1-2.1-2.1-2.1s-2.1 1-2.1 2.1v47c0 1.1.9 2.1 2.1 2.1z" fill="url(#j)"/><path d="m201 80.7v-2.8c0-6.3-5.1-11.4-11.4-11.4h-134.7c-6.3 0-11.4 5.1-11.4 11.4v88.9c0 6.3 5.1 11.4 11.4 11.4h134.8c3 0 5.9-1.2 8.1-3.4s3.3-5 3.3-8.1l-.1-83.3zm-146.1-11.3h134.7c4.7 0 8.6 3.9 8.6 8.6v2.8h-151.9v-2.8c0-4.8 3.9-8.6 8.6-8.6zm143.4 97.4c0 2.3-.9 4.4-2.5 6.1s-3.8 2.5-6.1 2.5h-134.8c-4.7 0-8.6-3.9-8.6-8.6v-83.2h151.8z" fill="url(#k)"/><path d="m162.4 142.4c14.4 0 26.1-11.7 26.1-26.1 0-3.8-.8-7.5-2.4-10.9-.3-.7-1.2-1-1.9-.7l-19.3 8.9 7.2-20c.1-.4.1-.7 0-1.1-.2-.3-.4-.6-.8-.7-2.8-1-5.8-1.6-8.9-1.6-14.4 0-26.1 11.7-26.1 26.1s11.7 26.1 26.1 26.1zm0-49.3c2.2 0 4.4.3 6.6.9l-7.9 21.8c-.2.5 0 1.1.4 1.5s1 .5 1.6.2l21.1-9.7c1 2.7 1.6 5.5 1.6 8.4 0 12.8-10.4 23.3-23.3 23.3s-23.4-10.4-23.4-23.2 10.4-23.2 23.3-23.2z" fill="url(#l)"/><path d="m147.4 154.7c-2.2 0-4.1 1.8-4.1 4.1 0 2.2 1.8 4.1 4.1 4.1 2.2 0 4.1-1.8 4.1-4.1-.1-2.2-1.9-4.1-4.1-4.1zm0 6.8c-1.5 0-2.7-1.2-2.7-2.7s1.2-2.6 2.7-2.6 2.7 1.2 2.7 2.6c-.1 1.5-1.3 2.7-2.7 2.7z" fill="url(#m)"/><path d="m157.4 154.7c-2.2 0-4.1 1.8-4.1 4.1 0 2.2 1.8 4.1 4.1 4.1 2.2 0 4.1-1.8 4.1-4.1-.1-2.2-1.9-4.1-4.1-4.1zm0 6.8c-1.5 0-2.7-1.2-2.7-2.7s1.2-2.6 2.7-2.6 2.7 1.2 2.7 2.6c-.1 1.5-1.3 2.7-2.7 2.7z" fill="url(#n)"/><path d="m167.4 154.7c-2.2 0-4.1 1.8-4.1 4.1 0 2.2 1.8 4.1 4.1 4.1 2.2 0 4.1-1.8 4.1-4.1-.1-2.2-1.9-4.1-4.1-4.1zm0 6.8c-1.5 0-2.7-1.2-2.7-2.7s1.2-2.6 2.7-2.6 2.7 1.2 2.7 2.6c-.1 1.5-1.3 2.7-2.7 2.7z" fill="url(#o)"/><path d="m177.4 154.7c-2.2 0-4.1 1.8-4.1 4.1 0 2.2 1.8 4.1 4.1 4.1 2.2 0 4.1-1.8 4.1-4.1-.1-2.2-1.9-4.1-4.1-4.1zm0 6.8c-1.5 0-2.7-1.2-2.7-2.7s1.2-2.6 2.7-2.6 2.7 1.2 2.7 2.6c-.1 1.5-1.3 2.7-2.7 2.7z" fill="url(#p)"/><path d="m56.3 78.3c1.8 0 3.3-1.5 3.3-3.3s-1.5-3.3-3.3-3.3-3.3 1.5-3.3 3.3 1.5 3.3 3.3 3.3zm0-5.2c1 0 1.9.8 1.9 1.9 0 1-.9 1.9-1.9 1.9s-1.9-.8-1.9-1.9.8-1.9 1.9-1.9z" fill="url(#q)"/><path d="m66.3 78.3c1.8 0 3.3-1.5 3.3-3.3s-1.5-3.3-3.3-3.3-3.3 1.5-3.3 3.3 1.5 3.3 3.3 3.3zm0-5.2c1 0 1.9.8 1.9 1.9 0 1-.9 1.9-1.9 1.9s-1.9-.8-1.9-1.9.8-1.9 1.9-1.9z" fill="url(#r)"/><path d="m76.3 78.3c1.8 0 3.3-1.5 3.3-3.3s-1.5-3.3-3.3-3.3-3.3 1.5-3.3 3.3 1.4 3.3 3.3 3.3zm0-5.2c1 0 1.9.8 1.9 1.9 0 1-.9 1.9-1.9 1.9s-1.9-.8-1.9-1.9.8-1.9 1.9-1.9z" fill="url(#s)"/></svg>