<svg enable-background="new 0 0 89.4 75" viewBox="0 0 89.4 75" xmlns="http://www.w3.org/2000/svg" xmlns:xlink="http://www.w3.org/1999/xlink"><clipPath id="a"><path d="m35.5 58.6v-2.3h2.3v2.3zm4.7 0v-2.3h2.3v2.3zm4.7 0v-2.3h2.3v2.3zm10.9 0v-2.3h2.3v2.3zm-36.7-46.9v-2.3h15.6v2.3zm0-4.7v-2.3h15.6v2.3zm49.1 62.9c.3.3.6.4 1 .4.3 0 .7-.1 1-.4.5-.5.5-1.4 0-1.9l-7.1-7.1c-.5.8-1.2 1.4-1.9 1.9zm-16-13c0 2.7 2.2 4.8 4.9 4.8s4.9-2.2 4.9-4.8c0-2.7-2.2-4.8-4.9-4.8-2.8-.1-4.9 2.1-4.9 4.8zm-12.2-37.3v7.5l-6-6c-10.3 4-17.2 13.9-17.2 24.9 0 14.7 12 26.6 26.8 26.6 6.4 0 12.5-2.3 17.4-6.4l-2.3-2.3c-.6.1-1.1.2-1.7.2-4 0-7.3-3.3-7.3-7.3s3.3-7.3 7.3-7.3 7.3 3.3 7.3 7.3c0 .6-.1 1.2-.2 1.7l1.9 1.9c2.6-4 4.1-8.5 4.3-13.3h-28v-27.7c-.7 0-1.5.1-2.3.2zm-23.2-17.2v12.1h13.9l6.8 6.8v-18.9zm-2.4-2.4h25.6v17.2c1.2-.2 2.4-.3 3.7-.3h1.2v27.8h28v1.3c0 5.9-1.8 11.4-5 16.3l4.1 4.1c1.5 1.5 1.5 3.9 0 5.3-.7.7-1.7 1.1-2.7 1.1s-1.9-.4-2.7-1.1l-3.8-3.7c-5.3 4.6-12 7.1-19.1 7.1-16.1 0-29.2-13-29.2-29 0-11.6 7-22.1 17.7-26.7l-2.4-2.4h-15.4zm19.5 47.3c0 .6.5 1.2 1.2 1.2.6 0 1.2-.5 1.2-1.2 0-.6-.5-1.2-1.2-1.2-.6 0-1.2.5-1.2 1.2zm-2.3 0c0-1.9 1.6-3.5 3.5-3.5s3.5 1.6 3.5 3.5-1.6 3.5-3.5 3.5-3.5-1.6-3.5-3.5zm-7.8-10.2c0 .6.5 1.2 1.2 1.2.6 0 1.2-.5 1.2-1.2 0-.6-.5-1.2-1.2-1.2s-1.2.6-1.2 1.2zm-2.4 0c0-1.9 1.6-3.5 3.5-3.5s3.5 1.6 3.5 3.5-1.6 3.5-3.5 3.5-3.5-1.6-3.5-3.5zm36.8-5.9h4.9v-12.2h-4.9zm-8.5-17v25.6h25.6c-.1-2.1-.4-4.1-1-6.1h-6.3v-11.1c-.8-.8-1.6-1.6-2.4-2.3v13.3h-9.8v-17h3.8c-3.1-1.4-6.5-2.3-9.9-2.4zm20.7 17h4.9v-17h-4.9zm-2.5-19.5h9.8v21.9h-.9c.6 2.4.9 4.8.9 7.3v1.2h-30.5v-30.4h1.2c5.8 0 11.4 1.7 16.1 4.9h.9v.6c.8.6 1.7 1.3 2.4 2v-7.5zm-44.1 35 10-10 1.7 1.7-10 10zm58.6-15.5h4.7v-21.8h-4.7zm-2.4 2.4v-26.6h9.4v26.6z"/></clipPath><clipPath id="b"><path d="m-484.6-1459h1920v4619h-1920z"/></clipPath><g clip-path="url(#a)"><path clip-path="url(#b)" d="m9.4-5h85v85h-85z" fill="#cb5061"/></g></svg>