<?xml version="1.0" encoding="utf-8"?>
<!-- Generator: Adobe Illustrator 23.0.4, SVG Export Plug-In . SVG Version: 6.00 Build 0)  -->
<svg version="1.1" id="Layer_1" xmlns="http://www.w3.org/2000/svg" xmlns:xlink="http://www.w3.org/1999/xlink" x="0px" y="0px"
	 viewBox="0 0 244.7 244.7" style="enable-background:new 0 0 244.7 244.7;" xml:space="preserve">
<style type="text/css">
	.st0{opacity:0.4;fill:#E7E9F2;}
	.st1{fill:url(#SVGID_1_);}
	.st2{fill:url(#SVGID_2_);}
	.st3{fill:url(#SVGID_3_);}
	.st4{fill:url(#SVGID_4_);}
	.st5{fill:url(#SVGID_5_);}
	.st6{fill:url(#SVGID_6_);}
	.st7{fill:url(#SVGID_7_);}
	.st8{fill:url(#SVGID_8_);}
	.st9{fill:url(#SVGID_9_);}
	.st10{fill:url(#SVGID_10_);}
	.st11{fill:url(#SVGID_11_);}
	.st12{fill:url(#SVGID_12_);}
	.st13{fill:url(#SVGID_13_);}
	.st14{fill:url(#SVGID_14_);}
	.st15{fill:url(#SVGID_15_);}
	.st16{fill:url(#SVGID_16_);}
	.st17{fill:url(#SVGID_17_);}
	.st18{fill:url(#SVGID_18_);}
</style>
<circle class="st0" cx="122.3" cy="122.3" r="122.3"/>
<linearGradient id="SVGID_1_" gradientUnits="userSpaceOnUse" x1="-103.265" y1="110.9722" x2="30.1233" y2="127.8289" gradientTransform="matrix(1 0 0 -1 0 243.4113)">
	<stop  offset="0" style="stop-color:#D93A5F"/>
	<stop  offset="1" style="stop-color:#9C1F4D"/>
</linearGradient>
<path class="st1" d="M24.6,122.6c3.5,0,6.3-2.8,6.3-6.3s-2.8-6.3-6.3-6.3s-6.3,2.8-6.3,6.3C18.4,119.8,21.2,122.6,24.6,122.6z
	 M24.6,111.5c2.7,0,4.8,2.2,4.8,4.8s-2.2,4.8-4.8,4.8s-4.8-2.2-4.8-4.8S21.9,111.5,24.6,111.5z"/>
<linearGradient id="SVGID_2_" gradientUnits="userSpaceOnUse" x1="49.191" y1="90.2109" x2="182.5792" y2="107.0677" gradientTransform="matrix(1 0 0 -1 0 243.4113)">
	<stop  offset="0" style="stop-color:#D93A5F"/>
	<stop  offset="1" style="stop-color:#9C1F4D"/>
</linearGradient>
<path class="st2" d="M214.7,126c-3.5,0-6.3,2.8-6.3,6.3s2.8,6.3,6.3,6.3s6.3-2.8,6.3-6.3S218.2,126,214.7,126z M214.7,137.1
	c-2.7,0-4.8-2.2-4.8-4.8s2.2-4.8,4.8-4.8s4.8,2.2,4.8,4.8S217.4,137.1,214.7,137.1z"/>
<linearGradient id="SVGID_3_" gradientUnits="userSpaceOnUse" x1="51.5731" y1="30.4638" x2="184.9613" y2="47.3206" gradientTransform="matrix(1 0 0 -1 0 243.4113)">
	<stop  offset="0" style="stop-color:#D93A5F"/>
	<stop  offset="1" style="stop-color:#9C1F4D"/>
</linearGradient>
<path class="st3" d="M129.8,202.3L129.8,202.3l-0.6-0.2c-2.6-0.4-4.6-2.4-5-5l-0.1-0.6H124c-0.3-0.7-0.8-1.5-1.7-1.5
	c-0.9,0-1.4,0.8-1.7,1.5h-0.1l-0.1,0.6c-0.4,2.6-2.4,4.6-5,5l-0.6,0.1v0.1c-0.7,0.3-1.5,0.8-1.5,1.7s0.8,1.4,1.5,1.7v0.1l0.6,0.1
	c2.6,0.4,4.6,2.4,5,5l0.1,0.6h0.1c0.3,0.7,0.8,1.5,1.7,1.5s1.4-0.8,1.7-1.5h0.1l0.1-0.6c0.4-2.6,2.4-4.6,5-5l0.6-0.1v-0.1
	c0.7-0.3,1.5-0.8,1.5-1.7S130.6,202.5,129.8,202.3z M129,204.4l-0.6,0.1v0.1c-2.7,0.7-4.8,2.8-5.5,5.5h-0.1l-0.1,0.6
	c0,0.4-0.3,0.9-0.4,0.9c-0.1-0.1-0.4-0.5-0.5-0.9l-0.1-0.6h-0.1c-0.7-2.7-2.8-4.8-5.5-5.5v-0.1l-0.6-0.1c-0.4,0-0.9-0.3-0.9-0.4
	c0.1-0.1,0.5-0.4,0.9-0.5l0.6-0.1v-0.1c2.7-0.7,4.8-2.8,5.5-5.5h0.1l0.1-0.6c0-0.4,0.3-0.9,0.4-0.9c0.1,0.1,0.4,0.5,0.5,0.9l0.1,0.6
	h0.1c0.7,2.7,2.8,4.8,5.5,5.5v0.1l0.6,0.1c0.4,0,0.8,0.3,0.9,0.5C129.8,204.1,129.4,204.4,129,204.4z"/>
<linearGradient id="SVGID_4_" gradientUnits="userSpaceOnUse" x1="111.1543" y1="199.6859" x2="244.5426" y2="216.5426" gradientTransform="matrix(1 0 0 -1 0 243.4113)">
	<stop  offset="0" style="stop-color:#D93A5F"/>
	<stop  offset="1" style="stop-color:#9C1F4D"/>
</linearGradient>
<path class="st4" d="M95.1,45L95.1,45l-0.6-0.2c-2.6-0.4-4.6-2.4-5-5l-0.1-0.6h-0.1c-0.3-0.7-0.8-1.5-1.7-1.5
	c-0.9,0-1.4,0.8-1.7,1.5l0,0l-0.1,0.6c-0.4,2.6-2.4,4.6-5,5l-0.7,0.1l0,0c-0.7,0.3-1.5,0.9-1.5,1.8s0.8,1.4,1.5,1.7v0.1l0.6,0.1
	c2.6,0.4,4.6,2.4,5,5l0.1,0.6h0.1c0.3,0.7,0.9,1.5,1.7,1.5c0.8,0,1.4-0.8,1.7-1.5h0.1l0.1-0.6c0.4-2.6,2.4-4.6,5-5l0.6-0.1v-0.1
	c0.7-0.3,1.5-0.8,1.5-1.7S95.8,45.2,95.1,45z M94.3,47.1l-0.6,0.1v0.1c-2.7,0.7-4.8,2.8-5.5,5.5l0,0l-0.1,0.6c0,0.4-0.3,0.9-0.4,0.9
	c-0.1-0.1-0.4-0.5-0.5-0.9l-0.1-0.6H87c-0.7-2.7-2.8-4.8-5.5-5.5v-0.1l-0.6-0.1c-0.4,0-0.9-0.3-0.9-0.4c0.1-0.1,0.5-0.4,0.9-0.5
	l0.6-0.1V46c2.7-0.7,4.8-2.8,5.5-5.5h0.1l0.1-0.6c0-0.4,0.3-0.9,0.4-0.9c0.1,0.1,0.4,0.5,0.5,0.9l0.1,0.6h0.1
	c0.7,2.7,2.8,4.8,5.5,5.5v0.1l0.6,0.1c0.4,0,0.8,0.3,0.9,0.5C95.1,46.8,94.7,47.1,94.3,47.1z"/>
<g>
	
		<linearGradient id="SVGID_5_" gradientUnits="userSpaceOnUse" x1="52.2572" y1="109.4151" x2="185.6455" y2="126.2719" gradientTransform="matrix(1 0 0 -1 0 243.4113)">
		<stop  offset="0" style="stop-color:#D93A5F"/>
		<stop  offset="1" style="stop-color:#9C1F4D"/>
	</linearGradient>
	<path class="st5" d="M65.8,153.6c1.2,0,2.1-1,2.1-2.1v-38.4c0-1.2-1-2.1-2.1-2.1s-2.1,1-2.1,2.1v38.3
		C63.7,152.6,64.7,153.6,65.8,153.6z"/>
	
		<linearGradient id="SVGID_6_" gradientUnits="userSpaceOnUse" x1="51.6374" y1="114.3192" x2="185.0257" y2="131.176" gradientTransform="matrix(1 0 0 -1 0 243.4113)">
		<stop  offset="0" style="stop-color:#D93A5F"/>
		<stop  offset="1" style="stop-color:#9C1F4D"/>
	</linearGradient>
	<path class="st6" d="M78.6,153.6c1.2,0,2.1-1,2.1-2.1V99.9c0-1.2-1-2.1-2.1-2.1s-2.1,1-2.1,2.1v51.6
		C76.5,152.6,77.5,153.6,78.6,153.6z"/>
	
		<linearGradient id="SVGID_7_" gradientUnits="userSpaceOnUse" x1="51.3224" y1="116.8118" x2="184.7107" y2="133.6686" gradientTransform="matrix(1 0 0 -1 0 243.4113)">
		<stop  offset="0" style="stop-color:#D93A5F"/>
		<stop  offset="1" style="stop-color:#9C1F4D"/>
	</linearGradient>
	<path class="st7" d="M91.4,153.6c1.2,0,2.1-1,2.1-2.1V91.6c0-1.2-1-2.1-2.1-2.1s-2.1,1-2.1,2.1v59.8
		C89.3,152.6,90.2,153.6,91.4,153.6z"/>
	
		<linearGradient id="SVGID_8_" gradientUnits="userSpaceOnUse" x1="52.4939" y1="107.5423" x2="185.8821" y2="124.399" gradientTransform="matrix(1 0 0 -1 0 243.4113)">
		<stop  offset="0" style="stop-color:#D93A5F"/>
		<stop  offset="1" style="stop-color:#9C1F4D"/>
	</linearGradient>
	<path class="st8" d="M104.2,153.6c1.2,0,2.1-1,2.1-2.1v-44.3c0-1.2-1-2.1-2.1-2.1s-2.1,1-2.1,2.1v44.3
		C102.1,152.6,103,153.6,104.2,153.6z"/>
	
		<linearGradient id="SVGID_9_" gradientUnits="userSpaceOnUse" x1="52.5272" y1="107.2789" x2="185.9154" y2="124.1357" gradientTransform="matrix(1 0 0 -1 0 243.4113)">
		<stop  offset="0" style="stop-color:#D93A5F"/>
		<stop  offset="1" style="stop-color:#9C1F4D"/>
	</linearGradient>
	<path class="st9" d="M117,153.6c1.2,0,2.1-1,2.1-2.1v-47c0-1.2-1-2.1-2.1-2.1s-2.1,1-2.1,2.1v47C114.9,152.6,115.8,153.6,117,153.6
		z"/>
	
		<linearGradient id="SVGID_10_" gradientUnits="userSpaceOnUse" x1="51.9073" y1="112.1833" x2="185.2957" y2="129.04" gradientTransform="matrix(1 0 0 -1 0 243.4113)">
		<stop  offset="0" style="stop-color:#D93A5F"/>
		<stop  offset="1" style="stop-color:#9C1F4D"/>
	</linearGradient>
	<path class="st10" d="M201,80.7v-2.8c0-6.3-5.1-11.4-11.4-11.4H54.9c-6.3,0-11.4,5.1-11.4,11.4v88.9c0,6.3,5.1,11.4,11.4,11.4
		h134.8c3,0,5.9-1.2,8.1-3.4c2.2-2.2,3.3-5,3.3-8.1L201,83.4L201,80.7z M54.9,69.4h134.7c4.7,0,8.6,3.9,8.6,8.6v2.8H46.3V78
		C46.3,73.2,50.2,69.4,54.9,69.4z M198.3,166.8c0,2.3-0.9,4.4-2.5,6.1s-3.8,2.5-6.1,2.5H54.9c-4.7,0-8.6-3.9-8.6-8.6V83.6h151.8
		L198.3,166.8z"/>
	
		<linearGradient id="SVGID_11_" gradientUnits="userSpaceOnUse" x1="51.7853" y1="113.1489" x2="185.1736" y2="130.0057" gradientTransform="matrix(1 0 0 -1 0 243.4113)">
		<stop  offset="0" style="stop-color:#D93A5F"/>
		<stop  offset="1" style="stop-color:#9C1F4D"/>
	</linearGradient>
	<path class="st11" d="M162.4,142.4c14.4,0,26.1-11.7,26.1-26.1c0-3.8-0.8-7.5-2.4-10.9c-0.3-0.7-1.2-1-1.9-0.7l-19.3,8.9l7.2-20
		c0.1-0.4,0.1-0.7,0-1.1c-0.2-0.3-0.4-0.6-0.8-0.7c-2.8-1-5.8-1.6-8.9-1.6c-14.4,0-26.1,11.7-26.1,26.1
		C136.3,130.7,148,142.4,162.4,142.4z M162.4,93.1c2.2,0,4.4,0.3,6.6,0.9l-7.9,21.8c-0.2,0.5,0,1.1,0.4,1.5s1,0.5,1.6,0.2l21.1-9.7
		c1,2.7,1.6,5.5,1.6,8.4c0,12.8-10.4,23.3-23.3,23.3s-23.4-10.4-23.4-23.2S149.5,93.1,162.4,93.1z"/>
	
		<linearGradient id="SVGID_12_" gradientUnits="userSpaceOnUse" x1="56.836" y1="73.1828" x2="190.2242" y2="90.0396" gradientTransform="matrix(1 0 0 -1 0 243.4113)">
		<stop  offset="0" style="stop-color:#D93A5F"/>
		<stop  offset="1" style="stop-color:#9C1F4D"/>
	</linearGradient>
	<path class="st12" d="M147.4,154.7c-2.2,0-4.1,1.8-4.1,4.1c0,2.2,1.8,4.1,4.1,4.1c2.2,0,4.1-1.8,4.1-4.1
		C151.4,156.6,149.6,154.7,147.4,154.7z M147.4,161.5c-1.5,0-2.7-1.2-2.7-2.7s1.2-2.6,2.7-2.6s2.7,1.2,2.7,2.6
		C150,160.3,148.8,161.5,147.4,161.5z"/>
	
		<linearGradient id="SVGID_13_" gradientUnits="userSpaceOnUse" x1="56.9931" y1="71.939" x2="190.3815" y2="88.7957" gradientTransform="matrix(1 0 0 -1 0 243.4113)">
		<stop  offset="0" style="stop-color:#D93A5F"/>
		<stop  offset="1" style="stop-color:#9C1F4D"/>
	</linearGradient>
	<path class="st13" d="M157.4,154.7c-2.2,0-4.1,1.8-4.1,4.1c0,2.2,1.8,4.1,4.1,4.1c2.2,0,4.1-1.8,4.1-4.1
		C161.4,156.6,159.6,154.7,157.4,154.7z M157.4,161.5c-1.5,0-2.7-1.2-2.7-2.7s1.2-2.6,2.7-2.6s2.7,1.2,2.7,2.6
		C160,160.3,158.8,161.5,157.4,161.5z"/>
	
		<linearGradient id="SVGID_14_" gradientUnits="userSpaceOnUse" x1="57.1504" y1="70.6951" x2="190.5387" y2="87.5519" gradientTransform="matrix(1 0 0 -1 0 243.4113)">
		<stop  offset="0" style="stop-color:#D93A5F"/>
		<stop  offset="1" style="stop-color:#9C1F4D"/>
	</linearGradient>
	<path class="st14" d="M167.4,154.7c-2.2,0-4.1,1.8-4.1,4.1c0,2.2,1.8,4.1,4.1,4.1c2.2,0,4.1-1.8,4.1-4.1
		C171.4,156.6,169.6,154.7,167.4,154.7z M167.4,161.5c-1.5,0-2.7-1.2-2.7-2.7s1.2-2.6,2.7-2.6s2.7,1.2,2.7,2.6
		C170,160.3,168.8,161.5,167.4,161.5z"/>
	
		<linearGradient id="SVGID_15_" gradientUnits="userSpaceOnUse" x1="57.3076" y1="69.4512" x2="190.6959" y2="86.308" gradientTransform="matrix(1 0 0 -1 0 243.4113)">
		<stop  offset="0" style="stop-color:#D93A5F"/>
		<stop  offset="1" style="stop-color:#9C1F4D"/>
	</linearGradient>
	<path class="st15" d="M177.4,154.7c-2.2,0-4.1,1.8-4.1,4.1c0,2.2,1.8,4.1,4.1,4.1c2.2,0,4.1-1.8,4.1-4.1
		C181.4,156.6,179.6,154.7,177.4,154.7z M177.4,161.5c-1.5,0-2.7-1.2-2.7-2.7s1.2-2.6,2.7-2.6s2.7,1.2,2.7,2.6
		C180,160.3,178.8,161.5,177.4,161.5z"/>
	
		<linearGradient id="SVGID_16_" gradientUnits="userSpaceOnUse" x1="44.9804" y1="166.9972" x2="178.3686" y2="183.8539" gradientTransform="matrix(1 0 0 -1 0 243.4113)">
		<stop  offset="0" style="stop-color:#D93A5F"/>
		<stop  offset="1" style="stop-color:#9C1F4D"/>
	</linearGradient>
	<path class="st16" d="M56.3,78.3c1.8,0,3.3-1.5,3.3-3.3c0-1.8-1.5-3.3-3.3-3.3S53,73.2,53,75C53,76.8,54.5,78.3,56.3,78.3z
		 M56.3,73.1c1,0,1.9,0.8,1.9,1.9c0,1-0.9,1.9-1.9,1.9s-1.9-0.8-1.9-1.9C54.4,73.9,55.2,73.1,56.3,73.1z"/>
	
		<linearGradient id="SVGID_17_" gradientUnits="userSpaceOnUse" x1="45.1375" y1="165.7533" x2="178.5258" y2="182.6102" gradientTransform="matrix(1 0 0 -1 0 243.4113)">
		<stop  offset="0" style="stop-color:#D93A5F"/>
		<stop  offset="1" style="stop-color:#9C1F4D"/>
	</linearGradient>
	<path class="st17" d="M66.3,78.3c1.8,0,3.3-1.5,3.3-3.3c0-1.8-1.5-3.3-3.3-3.3c-1.8,0-3.3,1.5-3.3,3.3C63,76.8,64.5,78.3,66.3,78.3
		z M66.3,73.1c1,0,1.9,0.8,1.9,1.9c0,1-0.9,1.9-1.9,1.9s-1.9-0.8-1.9-1.9C64.4,73.9,65.2,73.1,66.3,73.1z"/>
	
		<linearGradient id="SVGID_18_" gradientUnits="userSpaceOnUse" x1="45.2948" y1="164.5095" x2="178.683" y2="181.3663" gradientTransform="matrix(1 0 0 -1 0 243.4113)">
		<stop  offset="0" style="stop-color:#D93A5F"/>
		<stop  offset="1" style="stop-color:#9C1F4D"/>
	</linearGradient>
	<path class="st18" d="M76.3,78.3c1.8,0,3.3-1.5,3.3-3.3c0-1.8-1.5-3.3-3.3-3.3c-1.8,0-3.3,1.5-3.3,3.3C73,76.8,74.4,78.3,76.3,78.3
		z M76.3,73.1c1,0,1.9,0.8,1.9,1.9c0,1-0.9,1.9-1.9,1.9s-1.9-0.8-1.9-1.9C74.4,73.9,75.2,73.1,76.3,73.1z"/>
</g>
</svg>
