<?xml version="1.0" encoding="utf-8"?>
<!-- Generator: Adobe Illustrator 23.0.4, SVG Export Plug-In . SVG Version: 6.00 Build 0)  -->
<svg version="1.1" id="Layer_1" xmlns="http://www.w3.org/2000/svg" xmlns:xlink="http://www.w3.org/1999/xlink" x="0px" y="0px"
	 viewBox="0 0 89.4 75" style="enable-background:new 0 0 89.4 75;" xml:space="preserve">
<style type="text/css">
	.st0{clip-path:url(#SVGID_2_);}
	.st1{clip-path:url(#SVGID_4_);fill:#CB5061;}
</style>
<g>
	<defs>
		<path id="SVGID_1_" d="M35.5,58.6v-2.3h2.3v2.3H35.5z M40.2,58.6v-2.3h2.3v2.3H40.2z M44.9,58.6v-2.3h2.3v2.3H44.9z M55.8,58.6
			v-2.3h2.3v2.3H55.8z M19.1,11.7V9.4h15.6v2.3H19.1z M19.1,7V4.7h15.6V7H19.1z M68.2,69.9c0.3,0.3,0.6,0.4,1,0.4
			c0.3,0,0.7-0.1,1-0.4c0.5-0.5,0.5-1.4,0-1.9l-7.1-7.1c-0.5,0.8-1.2,1.4-1.9,1.9L68.2,69.9z M52.2,56.9c0,2.7,2.2,4.8,4.9,4.8
			c2.7,0,4.9-2.2,4.9-4.8c0-2.7-2.2-4.8-4.9-4.8C54.3,52,52.2,54.2,52.2,56.9z M40,19.6v7.5l-6-6C23.7,25.1,16.8,35,16.8,46
			c0,14.7,12,26.6,26.8,26.6c6.4,0,12.5-2.3,17.4-6.4l-2.3-2.3c-0.6,0.1-1.1,0.2-1.7,0.2c-4,0-7.3-3.3-7.3-7.3c0-4,3.3-7.3,7.3-7.3
			c4,0,7.3,3.3,7.3,7.3c0,0.6-0.1,1.2-0.2,1.7l1.9,1.9c2.6-4,4.1-8.5,4.3-13.3h-28V19.4C41.6,19.4,40.8,19.5,40,19.6z M16.8,2.4
			v12.1h13.9l6.8,6.8V2.4H16.8z M14.4,0H40v17.2c1.2-0.2,2.4-0.3,3.7-0.3h1.2v27.8h28V46c0,5.9-1.8,11.4-5,16.3l4.1,4.1
			c1.5,1.5,1.5,3.9,0,5.3c-0.7,0.7-1.7,1.1-2.7,1.1s-1.9-0.4-2.7-1.1l-3.8-3.7c-5.3,4.6-12,7.1-19.1,7.1c-16.1,0-29.2-13-29.2-29
			c0-11.6,7-22.1,17.7-26.7l-2.4-2.4H14.4V0z M33.9,47.3c0,0.6,0.5,1.2,1.2,1.2c0.6,0,1.2-0.5,1.2-1.2c0-0.6-0.5-1.2-1.2-1.2
			C34.5,46.1,33.9,46.6,33.9,47.3z M31.6,47.3c0-1.9,1.6-3.5,3.5-3.5c1.9,0,3.5,1.6,3.5,3.5c0,1.9-1.6,3.5-3.5,3.5
			C33.2,50.8,31.6,49.2,31.6,47.3z M23.8,37.1c0,0.6,0.5,1.2,1.2,1.2c0.6,0,1.2-0.5,1.2-1.2c0-0.6-0.5-1.2-1.2-1.2
			C24.3,35.9,23.8,36.5,23.8,37.1z M21.4,37.1c0-1.9,1.6-3.5,3.5-3.5c1.9,0,3.5,1.6,3.5,3.5c0,1.9-1.6,3.5-3.5,3.5
			C23,40.6,21.4,39,21.4,37.1z M58.2,31.2h4.9V19h-4.9V31.2z M49.7,14.2v25.6h25.6c-0.1-2.1-0.4-4.1-1-6.1h-6.3V22.6
			c-0.8-0.8-1.6-1.6-2.4-2.3v13.3h-9.8V16.6h3.8C56.5,15.2,53.1,14.3,49.7,14.2z M70.4,31.2h4.9V14.2h-4.9V31.2z M67.9,11.7h9.8
			v21.9h-0.9c0.6,2.4,0.9,4.8,0.9,7.3v1.2H47.2V11.7h1.2c5.8,0,11.4,1.7,16.1,4.9h0.9v0.6c0.8,0.6,1.7,1.3,2.4,2V11.7z M23.8,46.7
			l10-10l1.7,1.7l-10,10L23.8,46.7z M82.4,31.2h4.7V9.4h-4.7V31.2z M80,33.6V7h9.4v26.6H80z"/>
	</defs>
	<clipPath id="SVGID_2_">
		<use xlink:href="#SVGID_1_"  style="overflow:visible;"/>
	</clipPath>
	<g class="st0">
		<defs>
			<rect id="SVGID_3_" x="-484.6" y="-1459" width="1920" height="4619"/>
		</defs>
		<clipPath id="SVGID_4_">
			<use xlink:href="#SVGID_3_"  style="overflow:visible;"/>
		</clipPath>
		<rect x="9.4" y="-5" class="st1" width="85" height="85"/>
	</g>
</g>
</svg>
