<?xml version="1.0" encoding="utf-8"?>
<!-- Generator: Adobe Illustrator 23.0.4, SVG Export Plug-In . SVG Version: 6.00 Build 0)  -->
<svg version="1.1" id="Layer_1" xmlns="http://www.w3.org/2000/svg" xmlns:xlink="http://www.w3.org/1999/xlink" x="0px" y="0px"
	 viewBox="0 0 130 97" style="enable-background:new 0 0 130 97;" xml:space="preserve">
<style type="text/css">
	.st0{clip-path:url(#SVGID_2_);}
	.st1{clip-path:url(#SVGID_4_);fill:#FFFFFF;}
	.st2{clip-path:url(#SVGID_6_);}
	.st3{clip-path:url(#SVGID_8_);fill:#FFFFFF;}
	.st4{clip-path:url(#SVGID_10_);}
	.st5{clip-path:url(#SVGID_12_);enable-background:new    ;}
	.st6{clip-path:url(#SVGID_14_);}
	.st7{clip-path:url(#SVGID_16_);}
	.st8{clip-path:url(#SVGID_18_);fill:#FFFFFF;}
	.st9{clip-path:url(#SVGID_20_);}
	.st10{clip-path:url(#SVGID_22_);enable-background:new    ;}
	.st11{clip-path:url(#SVGID_24_);}
	.st12{clip-path:url(#SVGID_26_);}
	.st13{clip-path:url(#SVGID_28_);fill:#FFFFFF;}
	.st14{clip-path:url(#SVGID_30_);}
	.st15{clip-path:url(#SVGID_32_);fill:#FFFFFF;}
	.st16{clip-path:url(#SVGID_34_);}
	.st17{clip-path:url(#SVGID_36_);fill:#FFFFFF;}
	.st18{clip-path:url(#SVGID_38_);}
	.st19{clip-path:url(#SVGID_40_);fill:#FFFFFF;}
	.st20{clip-path:url(#SVGID_42_);}
	.st21{clip-path:url(#SVGID_44_);enable-background:new    ;}
	.st22{clip-path:url(#SVGID_46_);}
	.st23{clip-path:url(#SVGID_48_);}
	.st24{clip-path:url(#SVGID_50_);fill:#FFFFFF;}
	.st25{clip-path:url(#SVGID_52_);}
	.st26{clip-path:url(#SVGID_54_);fill:#FFFFFF;}
	.st27{clip-path:url(#SVGID_56_);}
	.st28{clip-path:url(#SVGID_58_);fill:#FFFFFF;}
	.st29{clip-path:url(#SVGID_60_);}
	.st30{clip-path:url(#SVGID_62_);fill:#FFFFFF;}
	.st31{clip-path:url(#SVGID_64_);}
	.st32{clip-path:url(#SVGID_66_);fill:#FFFFFF;}
	.st33{clip-path:url(#SVGID_68_);}
	.st34{clip-path:url(#SVGID_70_);fill:#FFFFFF;}
</style>
<g>
	<defs>
		<path id="SVGID_1_" d="M67,94.2c-0.3-0.1-0.7-0.3-1-0.4C66.3,93.9,66.7,94,67,94.2"/>
	</defs>
	<clipPath id="SVGID_2_">
		<use xlink:href="#SVGID_1_"  style="overflow:visible;"/>
	</clipPath>
	<g class="st0">
		<defs>
			<rect id="SVGID_3_" x="-396" y="-2651" width="1920" height="4619"/>
		</defs>
		<clipPath id="SVGID_4_">
			<use xlink:href="#SVGID_3_"  style="overflow:visible;"/>
		</clipPath>
		<rect x="61" y="88.7" class="st1" width="11" height="10.4"/>
	</g>
</g>
<g>
	<defs>
		<path id="SVGID_5_" d="M67,95c3,1.4,6.4,2,9.9,2c2.5,0,4.8-0.3,7.1-1.1c-2.2,0.9-4.6,1.1-7.1,1.1C73.4,96.9,70,96.4,67,95"/>
	</defs>
	<clipPath id="SVGID_6_">
		<use xlink:href="#SVGID_5_"  style="overflow:visible;"/>
	</clipPath>
	<g class="st2">
		<defs>
			<rect id="SVGID_7_" x="-396" y="-2651" width="1920" height="4619"/>
		</defs>
		<clipPath id="SVGID_8_">
			<use xlink:href="#SVGID_7_"  style="overflow:visible;"/>
		</clipPath>
		<rect x="62" y="90" class="st3" width="27" height="12"/>
	</g>
</g>
<g>
	<defs>
		<rect id="SVGID_9_" x="45.1" width="45.9" height="57.9"/>
	</defs>
	<clipPath id="SVGID_10_">
		<use xlink:href="#SVGID_9_"  style="overflow:visible;"/>
	</clipPath>
	<g class="st4">
		<defs>
			<rect id="SVGID_11_" x="-396" y="-2651" width="1920" height="4619"/>
		</defs>
		<clipPath id="SVGID_12_">
			<use xlink:href="#SVGID_11_"  style="overflow:visible;"/>
		</clipPath>
		<g class="st5">
			<g>
				<defs>
					<rect id="SVGID_13_" x="45" y="0" width="49" height="58"/>
				</defs>
				<clipPath id="SVGID_14_">
					<use xlink:href="#SVGID_13_"  style="overflow:visible;"/>
				</clipPath>
				<g class="st6">
					<defs>
						<path id="SVGID_15_" d="M47.1,57.8c8.5,0,17.1,0,25.6,0c3.3,0,6.4-0.8,9.3-2.4c8.3-4.4,11.4-14.9,6.7-22.7
							c-1.3-2.1-3-3.7-5.1-4.9c0-0.1,0.1-0.1,0.1-0.1c0.1-0.1,0.2-0.1,0.3-0.2c3.8-2.6,5.9-6.1,6-10.8c0.1-5.8-2-10.4-7-13.6
							C79.4,0.9,75.3,0.1,71,0c-8-0.1-16,0-23.9,0c-1.3,0-2,0.7-2,2.1c0,17.9,0,35.8,0,53.7C45.1,57.2,45.8,57.8,47.1,57.8z
							 M74.5,45.7c-1,0.4-2.2,0.7-3.3,0.7c-4.3,0.1-8.6,0.1-12.9,0.1c-0.1,0-0.3,0-0.5-0.1V33.8c0.3,0,0.6,0,0.8,0
							c3.8,0,7.6-0.1,11.4,0c1.5,0,3,0.3,4.5,0.8c2.4,0.9,3.7,2.9,3.7,5.5C78.2,42.8,77,44.7,74.5,45.7z M57.8,11
							c0.3,0,0.5-0.1,0.8-0.1c3.7,0,7.4,0,11,0c1.7,0,3.3,0.3,4.8,1.1c1.9,1,2.8,2.7,2.8,4.8c0,2.2-0.9,3.8-2.8,4.9
							c-1.4,0.8-3,1.1-4.6,1.1c-3.9,0-7.7,0-11.6,0c-0.1,0-0.2,0-0.4-0.1V11z"/>
					</defs>
					<clipPath id="SVGID_16_">
						<use xlink:href="#SVGID_15_"  style="overflow:visible;"/>
					</clipPath>
					<g class="st7">
						<defs>
							<rect id="SVGID_17_" x="45" y="0" width="46" height="58"/>
						</defs>
						<clipPath id="SVGID_18_">
							<use xlink:href="#SVGID_17_"  style="overflow:visible;"/>
						</clipPath>
						<rect x="40.1" y="-5" class="st8" width="55.9" height="67.9"/>
					</g>
				</g>
			</g>
		</g>
	</g>
</g>
<g>
	<defs>
		<rect id="SVGID_19_" y="0" width="37.9" height="58.8"/>
	</defs>
	<clipPath id="SVGID_20_">
		<use xlink:href="#SVGID_19_"  style="overflow:visible;"/>
	</clipPath>
	<g class="st9">
		<defs>
			<rect id="SVGID_21_" x="-396" y="-2651" width="1920" height="4619"/>
		</defs>
		<clipPath id="SVGID_22_">
			<use xlink:href="#SVGID_21_"  style="overflow:visible;"/>
		</clipPath>
		<g class="st10">
			<g>
				<defs>
					<rect id="SVGID_23_" x="-1" y="0" width="39" height="61"/>
				</defs>
				<clipPath id="SVGID_24_">
					<use xlink:href="#SVGID_23_"  style="overflow:visible;"/>
				</clipPath>
				<g class="st11">
					<defs>
						<path id="SVGID_25_" d="M4.2,54.1c4.9,4.8,12.7,6.1,19.2,3.2c0.7-0.3,1.4-0.7,2.1-1c0.4,1.8,0.8,2.1,2.6,2.1
							c2.5,0,5.1,0,7.6,0c1.6,0,2.2-0.6,2.2-2.2c0-18,0-36,0-54c0-1.5-0.6-2.1-2.1-2.1c-2.6,0-5.1,0-7.7,0c-1.9,0-2.5,0.6-2.5,2.4
							c0,4.8,0,9.7,0,14.5c0,0.3,0,0.7,0,1.2c-0.3-0.2-0.5-0.2-0.6-0.3c-3.8-2.2-7.8-2.9-12.1-2.2C7.4,16.5,0.4,20.8,0.1,29.8
							C0,34.6,0,39.5,0.1,44.3C0.2,48.1,1.5,51.4,4.2,54.1 M12.6,31.2c0.5-2.7,2-4.1,4.7-4.4c1.2-0.1,2.4-0.1,3.6,0.1
							c2,0.3,3.4,1.5,4,3.5c0.2,0.6,0.4,1.2,0.5,1.8c0.2,1.6,0.2,3.1,0.4,5.2c-0.2,1.5-0.3,3.5-0.6,5.4c-0.5,2.6-2.1,4.2-4.7,4.4
							c-1.3,0.1-2.7,0.1-4-0.2c-2.5-0.5-3.7-2.4-4-4.7C11.9,38.6,11.9,34.9,12.6,31.2"/>
					</defs>
					<clipPath id="SVGID_26_">
						<use xlink:href="#SVGID_25_"  style="overflow:visible;"/>
					</clipPath>
					<g class="st12">
						<defs>
							<rect id="SVGID_27_" y="0" width="38" height="59"/>
						</defs>
						<clipPath id="SVGID_28_">
							<use xlink:href="#SVGID_27_"  style="overflow:visible;"/>
						</clipPath>
						<rect x="-5" y="-5" class="st13" width="47.9" height="68.8"/>
					</g>
				</g>
			</g>
		</g>
	</g>
</g>
<g>
	<defs>
		<path id="SVGID_29_" d="M96,35.5c4.9,4.2,10.5,6.4,17.7,6.5c0.7-0.1,2.1-0.1,3.5-0.3c1-0.1,2-0.4,2.9-0.7
			c5.9-1.7,10.3-5.9,9.9-12.8c-0.3-5.5-3.7-9.7-9.2-10.8c-2.1-0.4-4.3-0.5-6.4-0.7c-1.6-0.2-3.3-0.3-4.9-0.6
			c-0.7-0.1-1.4-0.5-1.4-1.4c0-0.9,0.3-1.7,1.2-2c0.8-0.3,1.7-0.5,2.6-0.6c3.7-0.3,7,0.8,10,2.8c1,0.7,1.6,0.6,2.5-0.3
			c1.3-1.5,2.7-3,4-4.5c1.2-1.3,1.1-2.2-0.3-3.3c-3.6-2.8-7.8-4.3-12.3-4.7c-3.6-0.3-7.1-0.1-10.5,1.3c-5.2,2.1-8,6.5-7.7,12.3
			c0.2,4.8,3.5,8.7,8.6,10.1c2.1,0.6,4.3,0.7,6.5,0.9c1.7,0.2,3.4,0.3,5.1,0.5c0.8,0.1,1.6,0.4,1.7,1.3c0.2,1-0.2,1.8-1.1,2.2
			c-0.7,0.4-1.4,0.7-2.1,0.8c-4.9,0.8-9.3-0.3-13.1-3.7c-1-0.9-1.6-0.9-2.6,0c-1.5,1.4-3,2.9-4.5,4.3C94.7,33.4,94.7,34.4,96,35.5"
			/>
	</defs>
	<clipPath id="SVGID_30_">
		<use xlink:href="#SVGID_29_"  style="overflow:visible;"/>
	</clipPath>
	<g class="st14">
		<defs>
			<rect id="SVGID_31_" x="-396" y="-2651" width="1920" height="4619"/>
		</defs>
		<clipPath id="SVGID_32_">
			<use xlink:href="#SVGID_31_"  style="overflow:visible;"/>
		</clipPath>
		<rect x="90" y="-3" class="st15" width="45" height="50"/>
	</g>
</g>
<g>
	<defs>
		<path id="SVGID_33_" d="M30.6,65c-1.3,0-2.7,0-4,0c-0.8,0-1.3,0.3-1.7,1.1c-1.7,3.5-3.4,7-5.1,10.5c-1.1,2.2-2.1,4.4-3.3,6.8
			c-0.2-0.5-0.4-0.7-0.5-1c-2.7-5.4-5.4-10.9-8.1-16.3c-0.3-0.6-0.7-0.9-1.5-0.9c-1.4,0-2.8,0-4.2,0C1.4,65,1,65.3,1,66.3
			c0,9.8,0,19.6,0,29.4c0,0.9,0.3,1.3,1.3,1.3c1.4,0,2.8,0,4.2,0c1.4,0,1.6-0.2,1.6-1.6c0-4.2,0-8.5,0-12.7v-0.9
			c0.3,0.2,0.4,0.3,0.5,0.5c1.5,3.1,3.1,6.2,4.6,9.4c0.4,0.8,0.9,1.1,1.7,1.1c1.1-0.1,2.1,0,3.2,0c0.8,0,1.3-0.3,1.6-1
			c1.5-3.2,3.1-6.3,4.7-9.5c0.1-0.2,0.2-0.3,0.4-0.6c0,4.8,0,9.4,0,14c0,1.1,0.3,1.4,1.4,1.4c1.5,0,2.9,0,4.4,0c1,0,1.3-0.3,1.3-1.3
			c0-9.8,0-19.5,0-29.3C32,65.3,31.6,65,30.6,65"/>
	</defs>
	<clipPath id="SVGID_34_">
		<use xlink:href="#SVGID_33_"  style="overflow:visible;"/>
	</clipPath>
	<g class="st16">
		<defs>
			<rect id="SVGID_35_" x="-396" y="-2651" width="1920" height="4619"/>
		</defs>
		<clipPath id="SVGID_36_">
			<use xlink:href="#SVGID_35_"  style="overflow:visible;"/>
		</clipPath>
		<rect x="-4" y="60" class="st17" width="41" height="42"/>
	</g>
</g>
<g>
	<defs>
		<path id="SVGID_37_" d="M82.7,78c-1.7-0.5-3.5-0.6-5.3-0.9c-1.3-0.3-2.7-0.4-3.9-1c-2-0.9-2.1-3.4-0.2-4.5
			c0.8-0.5,1.8-0.8,2.7-0.9c2.9-0.3,5.7,0.6,8.3,1.9c1,0.5,1.3,0.5,2-0.4c0.8-1,1.5-2,2.3-3.1c0.8-1,0.7-1.5-0.5-2.1
			c-1-0.6-2.1-1.1-3.2-1.5c-4.4-1.7-8.8-2.2-13.3-0.6c-4.2,1.4-6.6,4.7-6.6,8.9c0,4.2,2.3,7.4,6.5,8.8c1.7,0.6,3.6,0.8,5.4,1.1
			c1.4,0.3,2.9,0.4,4.3,0.8c1.1,0.3,1.7,1.2,1.8,2.3c0.1,1.2-0.4,2-1.4,2.6c-0.6,0.3-1.3,0.6-1.9,0.7c-4,0.7-7.6-0.2-11-2.3
			c-1-0.7-1.2-0.6-2.1,0.2c-0.9,0.9-1.8,1.8-2.7,2.7c-0.9,0.9-0.9,1.4,0.2,2.2c0.6,0.5,1.2,0.9,1.9,1.2c0.3,0.1,0.5,0.3,0.8,0.4
			c3.2,1.7,6.7,2.4,10.5,2.4c2.6,0,5.1-0.3,7.5-1.4c0.3-0.2,0.7-0.3,1-0.5c3.5-2,5.2-5.7,4.4-9.7C89,81.4,86.4,79.1,82.7,78"/>
	</defs>
	<clipPath id="SVGID_38_">
		<use xlink:href="#SVGID_37_"  style="overflow:visible;"/>
	</clipPath>
	<g class="st18">
		<defs>
			<rect id="SVGID_39_" x="-396" y="-2651" width="1920" height="4619"/>
		</defs>
		<clipPath id="SVGID_40_">
			<use xlink:href="#SVGID_39_"  style="overflow:visible;"/>
		</clipPath>
		<rect x="58" y="59" class="st19" width="37" height="43"/>
	</g>
</g>
<g>
	<defs>
		<rect id="SVGID_41_" x="36.1" y="64" width="25.9" height="32.9"/>
	</defs>
	<clipPath id="SVGID_42_">
		<use xlink:href="#SVGID_41_"  style="overflow:visible;"/>
	</clipPath>
	<g class="st20">
		<defs>
			<rect id="SVGID_43_" x="-396" y="-2651" width="1920" height="4619"/>
		</defs>
		<clipPath id="SVGID_44_">
			<use xlink:href="#SVGID_43_"  style="overflow:visible;"/>
		</clipPath>
		<g class="st21">
			<g>
				<defs>
					<rect id="SVGID_45_" x="36" y="64" width="27" height="34"/>
				</defs>
				<clipPath id="SVGID_46_">
					<use xlink:href="#SVGID_45_"  style="overflow:visible;"/>
				</clipPath>
				<g class="st22">
					<defs>
						<path id="SVGID_47_" d="M36.1,65.4c0,6.7,0,13.4,0,20.1c0,3.6,1.5,6.5,4.3,8.7c3.5,2.6,7.4,3.2,11.5,2.5
							c5.9-1.1,10.1-5.6,10-11.9c0-0.7,0-1.5,0-2.2c0-2.2,0-4.5,0-6.7c0-3.4,0-6.9,0-10.3c0-1.1-0.3-1.4-1.4-1.4c-1.3,0-2.7,0-4,0
							c-1.4,0-1.7,0.2-1.7,1.7c0,6.3,0,12.6,0,18.9c0,2.7-1.3,4.7-3.7,5.3c-1.1,0.3-2.4,0.3-3.5,0.2c-2.1-0.3-3.7-1.5-4.2-3.8
							c-0.2-0.7-0.2-1.4-0.2-2.2c0-6.2,0-12.5,0-18.7c0-1.2-0.3-1.5-1.5-1.5c-1.4,0-2.8,0-4.2,0C36.5,64,36.1,64.4,36.1,65.4"/>
					</defs>
					<clipPath id="SVGID_48_">
						<use xlink:href="#SVGID_47_"  style="overflow:visible;"/>
					</clipPath>
					<g class="st23">
						<defs>
							<rect id="SVGID_49_" x="36" y="64" width="26" height="33"/>
						</defs>
						<clipPath id="SVGID_50_">
							<use xlink:href="#SVGID_49_"  style="overflow:visible;"/>
						</clipPath>
						<rect x="31.1" y="59" class="st24" width="35.9" height="42.9"/>
					</g>
				</g>
			</g>
		</g>
	</g>
</g>
<g>
	<defs>
		<path id="SVGID_51_" d="M61,76.6c0,2.1,0,4.2,0,6.3C61,80.8,61,78.7,61,76.6c0-3.2,0-6.4,0-9.7C61,70.2,61,73.4,61,76.6"/>
	</defs>
	<clipPath id="SVGID_52_">
		<use xlink:href="#SVGID_51_"  style="overflow:visible;"/>
	</clipPath>
	<g class="st25">
		<defs>
			<rect id="SVGID_53_" x="-396" y="-2651" width="1920" height="4619"/>
		</defs>
		<clipPath id="SVGID_54_">
			<use xlink:href="#SVGID_53_"  style="overflow:visible;"/>
		</clipPath>
		<rect x="56" y="62" class="st26" width="10" height="26"/>
	</g>
</g>
<g>
	<defs>
		<path id="SVGID_55_" d="M112.3,72.9c2.8-3.6,8.4-3,10.3,1.2c0.3,0.6,0.6,0.9,1.2,0.9c1.7,0,3.4,0,5,0c1,0,1.3-0.5,1.1-1.5
			c-0.4-2-1.3-3.7-2.7-5.2c-4.5-5.1-13.2-5.9-18.7-1.6c-2.6,2-4.3,4.6-4.4,8c-0.1,1.9,0,3.9,0,5.8c0,0-0.1,0-0.1,0
			c0,1.4,0,2.9,0,4.3c0,5.2,2.5,8.8,7.2,10.9c2.4,1.1,5,1.3,7.6,1.1c5.4-0.4,9.8-4,11.1-9.1c0.3-1.1-0.1-1.6-1.2-1.6
			c-1.5,0-3.1,0-4.6,0c-0.7,0-1.2,0.2-1.6,0.9c-1.4,2.5-3.6,3.5-6.5,3.2c-2.1-0.3-4.6-2-4.7-4.9c-0.1-3.3-0.1-6.6,0-9.9
			C111.4,74.6,111.7,73.6,112.3,72.9"/>
	</defs>
	<clipPath id="SVGID_56_">
		<use xlink:href="#SVGID_55_"  style="overflow:visible;"/>
	</clipPath>
	<g class="st27">
		<defs>
			<rect id="SVGID_57_" x="-396" y="-2651" width="1920" height="4619"/>
		</defs>
		<clipPath id="SVGID_58_">
			<use xlink:href="#SVGID_57_"  style="overflow:visible;"/>
		</clipPath>
		<rect x="99" y="59" class="st28" width="36" height="43"/>
	</g>
</g>
<g>
	<defs>
		<path id="SVGID_59_" d="M127.8,58c1.6,0,2.2-0.6,2.2-2.1c0-1.9,0-3.8,0-5.7c0-1.7-0.6-2.3-2.4-2.3c-4.8,0-9.7,0-14.5,0
			c-4.9,0-9.9,0-14.8,0c-1.6,0-2.2,0.6-2.2,2.1c0,1.9,0,3.9,0,5.8c0,1.5,0.6,2.1,2.2,2.1C108.1,58,117.9,58,127.8,58"/>
	</defs>
	<clipPath id="SVGID_60_">
		<use xlink:href="#SVGID_59_"  style="overflow:visible;"/>
	</clipPath>
	<g class="st29">
		<defs>
			<rect id="SVGID_61_" x="-396" y="-2651" width="1920" height="4619"/>
		</defs>
		<clipPath id="SVGID_62_">
			<use xlink:href="#SVGID_61_"  style="overflow:visible;"/>
		</clipPath>
		<rect x="91" y="43" class="st30" width="44" height="20"/>
	</g>
</g>
<g>
	<defs>
		<path id="SVGID_63_" d="M112.7,48c4.8,0,9.6,0,14.3,0C122.2,48,117.4,48,112.7,48c-4.9,0-9.8,0-14.7,0C102.9,48,107.8,48,112.7,48
			"/>
	</defs>
	<clipPath id="SVGID_64_">
		<use xlink:href="#SVGID_63_"  style="overflow:visible;"/>
	</clipPath>
	<g class="st31">
		<defs>
			<rect id="SVGID_65_" x="-396" y="-2651" width="1920" height="4619"/>
		</defs>
		<clipPath id="SVGID_66_">
			<use xlink:href="#SVGID_65_"  style="overflow:visible;"/>
		</clipPath>
		<rect x="93" y="43" class="st32" width="39" height="10"/>
	</g>
</g>
<g>
	<defs>
		<path id="SVGID_67_" d="M94.5,97c1.3,0,2.6,0,3.9,0c1.4,0,1.6-0.2,1.6-1.6c0-4.8,0-9.5,0-14.3h0c0-4.9,0-9.8,0-14.7
			c0-1.1-0.3-1.4-1.4-1.4c-1.4,0-2.7,0-4.1,0c-1.3,0-1.6,0.3-1.6,1.6c0,6,0,12,0,17.9c0,3.6,0,7.3,0,10.9C93,96.7,93.3,97,94.5,97"
			/>
	</defs>
	<clipPath id="SVGID_68_">
		<use xlink:href="#SVGID_67_"  style="overflow:visible;"/>
	</clipPath>
	<g class="st33">
		<defs>
			<rect id="SVGID_69_" x="-396" y="-2651" width="1920" height="4619"/>
		</defs>
		<clipPath id="SVGID_70_">
			<use xlink:href="#SVGID_69_"  style="overflow:visible;"/>
		</clipPath>
		<rect x="88" y="60" class="st34" width="17" height="42"/>
	</g>
</g>
</svg>
