<svg enable-background="new 0 0 130 97" viewBox="0 0 130 97" xmlns="http://www.w3.org/2000/svg" xmlns:xlink="http://www.w3.org/1999/xlink"><clipPath id="a"><path d="m67 94.2c-.3-.1-.7-.3-1-.4.3.1.7.2 1 .4"/></clipPath><clipPath id="b"><path d="m-396-2651h1920v4619h-1920z"/></clipPath><clipPath id="c"><path d="m67 95c3 1.4 6.4 2 9.9 2 2.5 0 4.8-.3 7.1-1.1-2.2.9-4.6 1.1-7.1 1.1-3.5-.1-6.9-.6-9.9-2"/></clipPath><clipPath id="d"><path d="m-396-2651h1920v4619h-1920z"/></clipPath><clipPath id="e"><path d="m45.1 0h45.9v57.9h-45.9z"/></clipPath><clipPath id="f"><path d="m-396-2651h1920v4619h-1920z"/></clipPath><clipPath id="g"><path d="m45 0h49v58h-49z"/></clipPath><clipPath id="h"><path d="m47.1 57.8h25.6c3.3 0 6.4-.8 9.3-2.4 8.3-4.4 11.4-14.9 6.7-22.7-1.3-2.1-3-3.7-5.1-4.9 0-.1.1-.1.1-.1.1-.1.2-.1.3-.2 3.8-2.6 5.9-6.1 6-10.8.1-5.8-2-10.4-7-13.6-3.6-2.2-7.7-3-12-3.1-8-.1-16 0-23.9 0-1.3 0-2 .7-2 2.1v53.7c0 1.4.7 2 2 2zm27.4-12.1c-1 .4-2.2.7-3.3.7-4.3.1-8.6.1-12.9.1-.1 0-.3 0-.5-.1v-12.6h.8c3.8 0 7.6-.1 11.4 0 1.5 0 3 .3 4.5.8 2.4.9 3.7 2.9 3.7 5.5 0 2.7-1.2 4.6-3.7 5.6zm-16.7-34.7c.3 0 .5-.1.8-.1h11c1.7 0 3.3.3 4.8 1.1 1.9 1 2.8 2.7 2.8 4.8 0 2.2-.9 3.8-2.8 4.9-1.4.8-3 1.1-4.6 1.1-3.9 0-7.7 0-11.6 0-.1 0-.2 0-.4-.1z"/></clipPath><clipPath id="i"><path d="m45 0h46v58h-46z"/></clipPath><clipPath id="j"><path d="m0 0h37.9v58.8h-37.9z"/></clipPath><clipPath id="k"><path d="m-396-2651h1920v4619h-1920z"/></clipPath><clipPath id="l"><path d="m-1 0h39v61h-39z"/></clipPath><clipPath id="m"><path d="m4.2 54.1c4.9 4.8 12.7 6.1 19.2 3.2.7-.3 1.4-.7 2.1-1 .4 1.8.8 2.1 2.6 2.1h7.6c1.6 0 2.2-.6 2.2-2.2 0-18 0-36 0-54 0-1.5-.6-2.1-2.1-2.1-2.6 0-5.1 0-7.7 0-1.9 0-2.5.6-2.5 2.4v14.5 1.2c-.3-.2-.5-.2-.6-.3-3.8-2.2-7.8-2.9-12.1-2.2-5.5.8-12.5 5.1-12.8 14.1-.1 4.8-.1 9.7 0 14.5.1 3.8 1.4 7.1 4.1 9.8m8.4-22.9c.5-2.7 2-4.1 4.7-4.4 1.2-.1 2.4-.1 3.6.1 2 .3 3.4 1.5 4 3.5.2.6.4 1.2.5 1.8.2 1.6.2 3.1.4 5.2-.2 1.5-.3 3.5-.6 5.4-.5 2.6-2.1 4.2-4.7 4.4-1.3.1-2.7.1-4-.2-2.5-.5-3.7-2.4-4-4.7-.6-3.7-.6-7.4.1-11.1"/></clipPath><clipPath id="n"><path d="m0 0h38v59h-38z"/></clipPath><clipPath id="o"><path d="m96 35.5c4.9 4.2 10.5 6.4 17.7 6.5.7-.1 2.1-.1 3.5-.3 1-.1 2-.4 2.9-.7 5.9-1.7 10.3-5.9 9.9-12.8-.3-5.5-3.7-9.7-9.2-10.8-2.1-.4-4.3-.5-6.4-.7-1.6-.2-3.3-.3-4.9-.6-.7-.1-1.4-.5-1.4-1.4s.3-1.7 1.2-2c.8-.3 1.7-.5 2.6-.6 3.7-.3 7 .8 10 2.8 1 .7 1.6.6 2.5-.3 1.3-1.5 2.7-3 4-4.5 1.2-1.3 1.1-2.2-.3-3.3-3.6-2.8-7.8-4.3-12.3-4.7-3.6-.3-7.1-.1-10.5 1.3-5.2 2.1-8 6.5-7.7 12.3.2 4.8 3.5 8.7 8.6 10.1 2.1.6 4.3.7 6.5.9 1.7.2 3.4.3 5.1.5.8.1 1.6.4 1.7 1.3.2 1-.2 1.8-1.1 2.2-.7.4-1.4.7-2.1.8-4.9.8-9.3-.3-13.1-3.7-1-.9-1.6-.9-2.6 0-1.5 1.4-3 2.9-4.5 4.3-1.4 1.3-1.4 2.3-.1 3.4"/></clipPath><clipPath id="p"><path d="m-396-2651h1920v4619h-1920z"/></clipPath><clipPath id="q"><path d="m30.6 65c-1.3 0-2.7 0-4 0-.8 0-1.3.3-1.7 1.1-1.7 3.5-3.4 7-5.1 10.5-1.1 2.2-2.1 4.4-3.3 6.8-.2-.5-.4-.7-.5-1-2.7-5.4-5.4-10.9-8.1-16.3-.3-.6-.7-.9-1.5-.9-1.4 0-2.8 0-4.2 0-.8-.2-1.2.1-1.2 1.1v29.4c0 .9.3 1.3 1.3 1.3h4.2c1.4 0 1.6-.2 1.6-1.6 0-4.2 0-8.5 0-12.7v-.9c.3.2.4.3.5.5 1.5 3.1 3.1 6.2 4.6 9.4.4.8.9 1.1 1.7 1.1 1.1-.1 2.1 0 3.2 0 .8 0 1.3-.3 1.6-1 1.5-3.2 3.1-6.3 4.7-9.5.1-.2.2-.3.4-.6v14c0 1.1.3 1.4 1.4 1.4h4.4c1 0 1.3-.3 1.3-1.3 0-9.8 0-19.5 0-29.3.1-1.2-.3-1.5-1.3-1.5"/></clipPath><clipPath id="r"><path d="m-396-2651h1920v4619h-1920z"/></clipPath><clipPath id="s"><path d="m82.7 78c-1.7-.5-3.5-.6-5.3-.9-1.3-.3-2.7-.4-3.9-1-2-.9-2.1-3.4-.2-4.5.8-.5 1.8-.8 2.7-.9 2.9-.3 5.7.6 8.3 1.9 1 .5 1.3.5 2-.4.8-1 1.5-2 2.3-3.1.8-1 .7-1.5-.5-2.1-1-.6-2.1-1.1-3.2-1.5-4.4-1.7-8.8-2.2-13.3-.6-4.2 1.4-6.6 4.7-6.6 8.9s2.3 7.4 6.5 8.8c1.7.6 3.6.8 5.4 1.1 1.4.3 2.9.4 4.3.8 1.1.3 1.7 1.2 1.8 2.3.1 1.2-.4 2-1.4 2.6-.6.3-1.3.6-1.9.7-4 .7-7.6-.2-11-2.3-1-.7-1.2-.6-2.1.2-.9.9-1.8 1.8-2.7 2.7s-.9 1.4.2 2.2c.6.5 1.2.9 1.9 1.2.3.1.5.3.8.4 3.2 1.7 6.7 2.4 10.5 2.4 2.6 0 5.1-.3 7.5-1.4.3-.2.7-.3 1-.5 3.5-2 5.2-5.7 4.4-9.7-1.2-3.9-3.8-6.2-7.5-7.3"/></clipPath><clipPath id="t"><path d="m-396-2651h1920v4619h-1920z"/></clipPath><clipPath id="u"><path d="m36.1 64h25.9v32.9h-25.9z"/></clipPath><clipPath id="v"><path d="m-396-2651h1920v4619h-1920z"/></clipPath><clipPath id="w"><path d="m36 64h27v34h-27z"/></clipPath><clipPath id="x"><path d="m36.1 65.4v20.1c0 3.6 1.5 6.5 4.3 8.7 3.5 2.6 7.4 3.2 11.5 2.5 5.9-1.1 10.1-5.6 10-11.9 0-.7 0-1.5 0-2.2 0-2.2 0-4.5 0-6.7 0-3.4 0-6.9 0-10.3 0-1.1-.3-1.4-1.4-1.4-1.3 0-2.7 0-4 0-1.4 0-1.7.2-1.7 1.7v18.9c0 2.7-1.3 4.7-3.7 5.3-1.1.3-2.4.3-3.5.2-2.1-.3-3.7-1.5-4.2-3.8-.2-.7-.2-1.4-.2-2.2 0-6.2 0-12.5 0-18.7 0-1.2-.3-1.5-1.5-1.5-1.4 0-2.8 0-4.2 0-1-.1-1.4.3-1.4 1.3"/></clipPath><clipPath id="y"><path d="m36 64h26v33h-26z"/></clipPath><clipPath id="z"><path d="m61 76.6v6.3c0-2.1 0-4.2 0-6.3 0-3.2 0-6.4 0-9.7z"/></clipPath><clipPath id="A"><path d="m-396-2651h1920v4619h-1920z"/></clipPath><clipPath id="B"><path d="m112.3 72.9c2.8-3.6 8.4-3 10.3 1.2.3.6.6.9 1.2.9h5c1 0 1.3-.5 1.1-1.5-.4-2-1.3-3.7-2.7-5.2-4.5-5.1-13.2-5.9-18.7-1.6-2.6 2-4.3 4.6-4.4 8-.1 1.9 0 3.9 0 5.8h-.1v4.3c0 5.2 2.5 8.8 7.2 10.9 2.4 1.1 5 1.3 7.6 1.1 5.4-.4 9.8-4 11.1-9.1.3-1.1-.1-1.6-1.2-1.6-1.5 0-3.1 0-4.6 0-.7 0-1.2.2-1.6.9-1.4 2.5-3.6 3.5-6.5 3.2-2.1-.3-4.6-2-4.7-4.9-.1-3.3-.1-6.6 0-9.9.1-.8.4-1.8 1-2.5"/></clipPath><clipPath id="C"><path d="m-396-2651h1920v4619h-1920z"/></clipPath><clipPath id="D"><path d="m127.8 58c1.6 0 2.2-.6 2.2-2.1 0-1.9 0-3.8 0-5.7 0-1.7-.6-2.3-2.4-2.3-4.8 0-9.7 0-14.5 0-4.9 0-9.9 0-14.8 0-1.6 0-2.2.6-2.2 2.1v5.8c0 1.5.6 2.1 2.2 2.1 9.8.1 19.6.1 29.5.1"/></clipPath><clipPath id="E"><path d="m-396-2651h1920v4619h-1920z"/></clipPath><clipPath id="F"><path d="m112.7 48h14.3c-4.8 0-9.6 0-14.3 0-4.9 0-9.8 0-14.7 0z"/></clipPath><clipPath id="G"><path d="m-396-2651h1920v4619h-1920z"/></clipPath><clipPath id="H"><path d="m94.5 97h3.9c1.4 0 1.6-.2 1.6-1.6 0-4.8 0-9.5 0-14.3 0-4.9 0-9.8 0-14.7 0-1.1-.3-1.4-1.4-1.4-1.4 0-2.7 0-4.1 0-1.3 0-1.6.3-1.6 1.6v17.9 10.9c.1 1.3.4 1.6 1.6 1.6"/></clipPath><clipPath id="I"><path d="m-396-2651h1920v4619h-1920z"/></clipPath><g clip-path="url(#a)"><path clip-path="url(#b)" d="m61 88.7h11v10.4h-11z" fill="#fff"/></g><g clip-path="url(#c)"><path clip-path="url(#d)" d="m62 90h27v12h-27z" fill="#fff"/></g><g clip-path="url(#e)"><g clip-path="url(#f)" enable-background="new"><g clip-path="url(#g)"><g clip-path="url(#h)"><path clip-path="url(#i)" d="m40.1-5h55.9v67.9h-55.9z" fill="#fff"/></g></g></g></g><g clip-path="url(#j)"><g clip-path="url(#k)" enable-background="new"><g clip-path="url(#l)"><g clip-path="url(#m)"><path clip-path="url(#n)" d="m-5-5h47.9v68.8h-47.9z" fill="#fff"/></g></g></g></g><g clip-path="url(#o)"><path clip-path="url(#p)" d="m90-3h45v50h-45z" fill="#fff"/></g><g clip-path="url(#q)"><path clip-path="url(#r)" d="m-4 60h41v42h-41z" fill="#fff"/></g><g clip-path="url(#s)"><path clip-path="url(#t)" d="m58 59h37v43h-37z" fill="#fff"/></g><g clip-path="url(#u)"><g clip-path="url(#v)" enable-background="new"><g clip-path="url(#w)"><g clip-path="url(#x)"><path clip-path="url(#y)" d="m31.1 59h35.9v42.9h-35.9z" fill="#fff"/></g></g></g></g><g clip-path="url(#z)"><path clip-path="url(#A)" d="m56 62h10v26h-10z" fill="#fff"/></g><g clip-path="url(#B)"><path clip-path="url(#C)" d="m99 59h36v43h-36z" fill="#fff"/></g><g clip-path="url(#D)"><path clip-path="url(#E)" d="m91 43h44v20h-44z" fill="#fff"/></g><g clip-path="url(#F)"><path clip-path="url(#G)" d="m93 43h39v10h-39z" fill="#fff"/></g><g clip-path="url(#H)"><path clip-path="url(#I)" d="m88 60h17v42h-17z" fill="#fff"/></g></svg>