<svg enable-background="new 0 0 289.3 80" viewBox="0 0 289.3 80" xmlns="http://www.w3.org/2000/svg"><path d="m23.1 31h-5.6v20.1h-9v-20.1h-3.6v-4.6l3.6-2.2v-.4c0-3.5.6-6.2 2.1-7.7 1.8-1.7 4.3-2.6 6.9-2.4 1.1 0 2.3 0 3.4.2 1.2.3 2.5.7 3.6 1.1l-1.9 6c-1.1-.3-2.1-.4-3.2-.4-.6-.1-1.2.2-1.5.7-.3.7-.5 1.4-.4 2.2v.5h5.6zm18-7.5c.8 0 1.6 0 2.4.2h.4l-.9 8.8c-1-.2-2-.3-3-.2-1.5-.1-3.1.3-4.3 1.3-1.1 1.1-1.6 2.6-1.5 4.2v13.2h-9v-27h6.9l1.5 4.4h.4c.6-1.4 1.7-2.7 3-3.5 1.3-.9 2.7-1.3 4.1-1.4zm29.4 13.9c.3 3.8-1 7.5-3.4 10.4-2.6 2.5-6.1 3.9-9.7 3.8-3.6.1-7.1-1.2-9.7-3.8-2.4-2.9-3.7-6.6-3.4-10.4-.3-3.8 1-7.5 3.4-10.4 2.6-2.5 6.1-3.9 9.7-3.8 2.4 0 4.8.6 6.9 1.8 2 1.1 3.5 2.8 4.5 4.9 1.3 2.3 1.9 4.9 1.7 7.5zm-16.9 0c-.1 1.8.1 3.6.9 5.3.5 1.2 1.7 1.9 3 1.8 1.3.1 2.4-.6 3-1.8.7-1.7 1-3.5.9-5.3.1-1.8-.2-3.6-.9-5.3-.9-1.7-3-2.3-4.7-1.3-.6.3-1 .8-1.3 1.3-.7 1.7-1 3.5-.9 5.3zm52.5 13.7v-14.8c.1-1.4-.2-2.9-.6-4.2-.4-.9-1.4-1.4-2.4-1.3-1.2 0-2.4.7-3 1.8-.8 1.8-1.2 3.8-1.1 5.7v12.8h-9.2v-14.8c.1-1.4-.2-2.9-.6-4.2-.4-.9-1.4-1.4-2.4-1.3-1.4 0-2.6.8-3.2 2-.9 2-1.3 4.2-1.1 6.4v11.9h-9v-27.1h6.9l1.1 3.3h.4c.7-1.3 1.7-2.3 3-2.9 1.4-.6 2.9-.9 4.5-.9 3.9 0 6.4 1.1 7.9 3.5h.7c.7-1.2 1.8-2.1 3-2.6 1.3-.6 2.8-.9 4.3-.9 2.5-.2 5 .7 6.9 2.4 1.6 2.1 2.4 4.8 2.1 7.5v17.7zm87.3-7.5c1.5 0 3.1-.3 4.5-.9v6.8c-1.1.4-2.3.8-3.4 1.1-1.3.3-2.6.4-3.9.4-2.4.3-4.9-.5-6.6-2.2-1.4-2.1-2.1-4.6-1.9-7.1v-11.1h-3.4v-3.8l4.1-2.9 2.4-6h6v5.5h6.4v7.1h-6.4v10.6c-.1 1.2.7 2.3 1.9 2.4 0 .1.2.1.3.1zm32.4-6.6c.3 3.8-1 7.5-3.4 10.4-2.6 2.6-6.2 3.9-9.9 3.8-3.6.2-7.1-1.2-9.7-3.7-2.5-2.9-3.8-6.6-3.6-10.4-.3-3.8 1-7.5 3.4-10.4 2.6-2.6 6.2-3.9 9.9-3.8 2.4 0 4.8.6 6.9 1.8 1.9 1.2 3.6 2.9 4.7 4.9 1.2 2.2 1.8 4.8 1.7 7.4zm-17.1 0c-.1 1.8.1 3.6.9 5.3.5 1.2 1.7 1.9 3 1.8 1.3.1 2.4-.6 3-1.8.7-1.7 1-3.5.9-5.3.1-1.8-.2-3.6-.9-5.3-.9-1.7-3-2.3-4.7-1.3-.6.3-1 .8-1.3 1.3-.8 1.7-1.1 3.5-.9 5.3zm-61.6 36.2-18.7-19.4c-10.3-10.9-10.3-27.9 0-38.8 9.6-10.3 25.8-10.9 36.1-1.2.4.4.8.8 1.2 1.2 10.3 10.9 10.3 27.9 0 38.8zm4.9-28.7 1.5 5.7h8.6l-9.7-32.4h-10.4l-9.7 32.7h8.8l1.3-6zm-1.7-6.4h-6.4c1.3-5.1 2.1-8.6 2.4-10.1.4-1.2.6-2.5.6-3.8.2.9.4 2.2.9 4 .4 2 .9 3.3 1.1 4.6zm108.1 35.1-18.4-19.4c-10.1-11-10.1-27.9 0-38.8 9.4-10.2 25.2-10.9 35.4-1.5l1.5 1.5c10.1 11 10.1 27.9 0 38.8zm12.1-37.1c-.9-1.4-2.4-2.4-4.1-2.6v-.5c1.4-.3 2.6-1.2 3.4-2.4.9-1.4 1.3-3 1.3-4.6.2-2.4-1-4.8-3-6.2-2.8-1.5-6-2.2-9.2-2h-10.5v32.7h11.8c3 .2 6-.7 8.4-2.6 2.1-1.7 3.2-4.4 3-7.1.2-1.7-.2-3.3-1.1-4.7zm-11 7.5h-2.8v-6.8h2.8c1.1-.1 2.2.2 3 .9.7.6 1.1 1.5 1.1 2.4-.2 2.4-1.5 3.5-4.1 3.5zm-3-19.2h2.4c2.6 0 3.9.9 3.9 2.6.1.9-.3 1.7-1.1 2.2-.8.6-1.8.9-2.8.9h-2.6v-5.7z" fill="#fff"/></svg>