<?xml version="1.0" encoding="utf-8"?>
<!-- Generator: Adobe Illustrator 23.0.4, SVG Export Plug-In . SVG Version: 6.00 Build 0)  -->
<svg version="1.1" id="Layer_1" xmlns="http://www.w3.org/2000/svg" xmlns:xlink="http://www.w3.org/1999/xlink" x="0px" y="0px"
	 viewBox="0 0 289.3 80" style="enable-background:new 0 0 289.3 80;" xml:space="preserve">
<style type="text/css">
	.st0{fill:#98ABB6;}
</style>
<g>
	<path id="fromAtoB_Logo" class="st0" d="M23.1,31h-5.6v20.1h-9V31H4.9v-4.6l3.6-2.2v-0.4c0-3.5,0.6-6.2,2.1-7.7
		c1.8-1.7,4.3-2.6,6.9-2.4c1.1,0,2.3,0,3.4,0.2c1.2,0.3,2.5,0.7,3.6,1.1l-1.9,6c-1.1-0.3-2.1-0.4-3.2-0.4c-0.6-0.1-1.2,0.2-1.5,0.7
		c-0.3,0.7-0.5,1.4-0.4,2.2V24h5.6V31z M41.1,23.5c0.8,0,1.6,0,2.4,0.2h0.4L43,32.5c-1-0.2-2-0.3-3-0.2c-1.5-0.1-3.1,0.3-4.3,1.3
		c-1.1,1.1-1.6,2.6-1.5,4.2V51h-9V24h6.9l1.5,4.4H34c0.6-1.4,1.7-2.7,3-3.5C38.3,24,39.7,23.6,41.1,23.5z M70.5,37.4
		c0.3,3.8-1,7.5-3.4,10.4c-2.6,2.5-6.1,3.9-9.7,3.8c-3.6,0.1-7.1-1.2-9.7-3.8c-2.4-2.9-3.7-6.6-3.4-10.4c-0.3-3.8,1-7.5,3.4-10.4
		c2.6-2.5,6.1-3.9,9.7-3.8c2.4,0,4.8,0.6,6.9,1.8c2,1.1,3.5,2.8,4.5,4.9C70.1,32.2,70.7,34.8,70.5,37.4z M53.6,37.4
		c-0.1,1.8,0.1,3.6,0.9,5.3c0.5,1.2,1.7,1.9,3,1.8c1.3,0.1,2.4-0.6,3-1.8c0.7-1.7,1-3.5,0.9-5.3c0.1-1.8-0.2-3.6-0.9-5.3
		c-0.9-1.7-3-2.3-4.7-1.3c-0.6,0.3-1,0.8-1.3,1.3C53.8,33.8,53.5,35.6,53.6,37.4z M106.1,51.1V36.3c0.1-1.4-0.2-2.9-0.6-4.2
		c-0.4-0.9-1.4-1.4-2.4-1.3c-1.2,0-2.4,0.7-3,1.8c-0.8,1.8-1.2,3.8-1.1,5.7v12.8h-9.2V36.3c0.1-1.4-0.2-2.9-0.6-4.2
		c-0.4-0.9-1.4-1.4-2.4-1.3c-1.4,0-2.6,0.8-3.2,2c-0.9,2-1.3,4.2-1.1,6.4v11.9h-9V24h6.9l1.1,3.3h0.4c0.7-1.3,1.7-2.3,3-2.9
		c1.4-0.6,2.9-0.9,4.5-0.9c3.9,0,6.4,1.1,7.9,3.5H98c0.7-1.2,1.8-2.1,3-2.6c1.3-0.6,2.8-0.9,4.3-0.9c2.5-0.2,5,0.7,6.9,2.4
		c1.6,2.1,2.4,4.8,2.1,7.5v17.7C114.3,51.1,106.1,51.1,106.1,51.1z M193.4,43.6c1.5,0,3.1-0.3,4.5-0.9v6.8c-1.1,0.4-2.3,0.8-3.4,1.1
		c-1.3,0.3-2.6,0.4-3.9,0.4c-2.4,0.3-4.9-0.5-6.6-2.2c-1.4-2.1-2.1-4.6-1.9-7.1V30.6h-3.4v-3.8l4.1-2.9l2.4-6h6v5.5h6.4v7.1h-6.4
		v10.6c-0.1,1.2,0.7,2.3,1.9,2.4C193.1,43.6,193.3,43.6,193.4,43.6z M225.8,37c0.3,3.8-1,7.5-3.4,10.4c-2.6,2.6-6.2,3.9-9.9,3.8
		c-3.6,0.2-7.1-1.2-9.7-3.7c-2.5-2.9-3.8-6.6-3.6-10.4c-0.3-3.8,1-7.5,3.4-10.4c2.6-2.6,6.2-3.9,9.9-3.8c2.4,0,4.8,0.6,6.9,1.8
		c1.9,1.2,3.6,2.9,4.7,4.9C225.3,31.8,225.9,34.4,225.8,37L225.8,37z M208.7,37c-0.1,1.8,0.1,3.6,0.9,5.3c0.5,1.2,1.7,1.9,3,1.8
		c1.3,0.1,2.4-0.6,3-1.8c0.7-1.7,1-3.5,0.9-5.3c0.1-1.8-0.2-3.6-0.9-5.3c-0.9-1.7-3-2.3-4.7-1.3c-0.6,0.3-1,0.8-1.3,1.3
		C208.8,33.4,208.5,35.2,208.7,37L208.7,37z M147.1,73.2l-18.7-19.4c-10.3-10.9-10.3-27.9,0-38.8c9.6-10.3,25.8-10.9,36.1-1.2
		c0.4,0.4,0.8,0.8,1.2,1.2c10.3,10.9,10.3,27.9,0,38.8L147.1,73.2z M152,44.5l1.5,5.7h8.6l-9.7-32.4H142l-9.7,32.7h8.8l1.3-6H152z
		 M150.3,38.1h-6.4c1.3-5.1,2.1-8.6,2.4-10.1c0.4-1.2,0.6-2.5,0.6-3.8c0.2,0.9,0.4,2.2,0.9,4c0.4,2,0.9,3.3,1.1,4.6L150.3,38.1z
		 M258.4,73.2L240,53.8c-10.1-11-10.1-27.9,0-38.8c9.4-10.2,25.2-10.9,35.4-1.5c0.5,0.5,1,1,1.5,1.5c10.1,11,10.1,27.9,0,38.8
		L258.4,73.2z M270.5,36.1c-0.9-1.4-2.4-2.4-4.1-2.6V33c1.4-0.3,2.6-1.2,3.4-2.4c0.9-1.4,1.3-3,1.3-4.6c0.2-2.4-1-4.8-3-6.2
		c-2.8-1.5-6-2.2-9.2-2h-10.5v32.7h11.8c3,0.2,6-0.7,8.4-2.6c2.1-1.7,3.2-4.4,3-7.1C271.8,39.1,271.4,37.5,270.5,36.1z M259.5,43.6
		h-2.8v-6.8h2.8c1.1-0.1,2.2,0.2,3,0.9c0.7,0.6,1.1,1.5,1.1,2.4C263.4,42.5,262.1,43.6,259.5,43.6z M256.5,24.4h2.4
		c2.6,0,3.9,0.9,3.9,2.6c0.1,0.9-0.3,1.7-1.1,2.2c-0.8,0.6-1.8,0.9-2.8,0.9h-2.6v-5.7C256.3,24.4,256.5,24.4,256.5,24.4z"/>
</g>
</svg>
