<?xml version="1.0" encoding="utf-8"?>
<!-- Generator: Adobe Illustrator 23.0.4, SVG Export Plug-In . SVG Version: 6.00 Build 0)  -->
<svg version="1.1" id="Layer_1" xmlns="http://www.w3.org/2000/svg" xmlns:xlink="http://www.w3.org/1999/xlink" x="0px" y="0px"
	 viewBox="0 0 147 134.1" style="enable-background:new 0 0 147 134.1;" xml:space="preserve">
<style type="text/css">
	.st0{opacity:0.3;fill:#231F20;enable-background:new    ;}
	.st1{fill:#FFFFFF;}
</style>
<g>
	<path class="st0" d="M11.9,90.2c-0.1,0.4-0.1,0.8-0.2,1.2c0,0.1-0.1,0.1-0.1,0.2c-0.1,0.6-0.1,1.2-0.1,1.8c0,0.2,0,0.5,0,0.7
		c0,0.8,0.1,1.5,0.2,2.3c0.1,0.9,0.3,1.8,0.6,2.7c0.4,1.3,1,2.4,1.7,3.5c0.7,1,1.5,1.8,2.4,2.6c0.9,0.7,1.9,1.4,3,1.9
		c1.5,0.7,3,1.3,4.5,1.6c0.5,0.1,1,0.2,1.5,0.2c0.4,0,0.7,0.1,1.1,0.1c1-0.1,1.9-0.2,2.8-0.6c0.5-0.2,1-0.5,1.3-0.9
		c0.2-0.3,0.5-0.5,0.7-0.8c0.3-0.4,0.5-0.9,0.7-1.4c0.1-0.4,0.3-0.8,0.4-1.2c0.1-0.4,0.3-0.7,0.6-1c0.3-0.2,0.6-0.3,0.9-0.2
		c0.3,0.1,0.5,0.2,0.7,0.5c0.6,0.6,1.3,1.3,1.8,1.9c0.6,0.7,1.3,1.4,2,1.9c0.1,0.1,0.2,0.2,0.3,0.2c0.9,0.9,1.9,1.7,3,2.6
		c1.1,0.9,2.3,1.7,3.5,2.5c0.9,0.6,1.7,1.1,2.6,1.6c0.9,0.5,1.8,1,2.7,1.4c1,0.5,2.1,0.9,3.1,1.3c0.5,0.2,1.1,0.4,1.6,0.6
		c1.4,0.5,2.8,0.9,4.3,1.2c0.8,0.2,1.5,0.3,2.3,0.4c0.6,0.1,1.2,0.2,1.8,0.3c0.5,0.1,0.9,0.1,1.4,0.1c0.2,0,0.3,0,0.5,0.1
		c0.1,0,0.1,0,0.2,0c0.7,0,1.4,0.1,2.1,0.1c1.3,0,2.7,0,4,0c0.2,0,0.5-0.1,0.7-0.1c0.1,0,0.3,0,0.4,0c0.4,0,0.8,0,1.3-0.1
		c0,0,0.1,0,0.1,0c0.6,0.1,1.1-0.1,1.7-0.1c0.6-0.1,1.3-0.2,1.9-0.3c0.5-0.1,1-0.2,1.5-0.2c0.7-0.1,1.3-0.2,2-0.3
		c1.2-0.2,2.3-0.5,3.5-0.8c1-0.3,2.1-0.5,3.1-0.9c1.3-0.4,2.5-0.8,3.8-1.2c1.5-0.5,3-1.1,4.5-1.7c1.1-0.5,2.2-0.9,3.4-1.5
		c0.5-0.2,1-0.4,1.4-0.7c0.8-0.4,1.7-0.8,2.5-1.2c1.1-0.6,2.3-1.2,3.4-1.8c1.6-0.9,3.3-1.9,4.9-2.9c0.3-0.2,0.7-0.4,1-0.7
		c0.2,0,0.3-0.1,0.4-0.2l0,0c0.1,0,0.1,0,0.2,0.1c-0.1,0.1-0.1,0.1-0.2,0.2c-3.1,2.7-6.3,5.2-9.8,7.2c-1.4,0.9-2.9,1.8-4.3,2.6
		c-3.5,2.1-7.3,3.8-11.2,5.1c-3.3,1.2-6.6,2.1-10,2.7c-1.8,0.3-3.6,0.6-5.4,0.8c-1.6,0.2-3.1,0.3-4.7,0.3c-1.8,0.1-3.6,0-5.4-0.1
		c-1.4-0.1-2.8-0.2-4.2-0.4c-1.9-0.2-3.8-0.6-5.7-1c-3-0.7-5.9-1.5-8.8-2.7c-1.7-0.7-3.4-1.5-5-2.4c-1.6-0.9-3.2-1.8-4.8-2.8
		c-2.5-1.5-5.1-2.6-7.9-3.3c-1.4-0.3-2.7-0.7-4-1.1c-1.6-0.5-3.1-1.1-4.5-1.9c-3.3-2-5.4-4.9-6.2-8.7c-0.3-1.6-0.5-3.3-0.3-5
		c0.1-1.5,0.3-3,0.7-4.6c0-0.1,0.1-0.2,0.1-0.3h0.1L11.9,90.2z"/>
	<path class="st0" d="M11.9,90.2L11.9,90.2h-0.1c0.1-0.4,0.1-0.7,0.3-1.1C12.1,89.4,12,89.8,11.9,90.2z"/>
	<path class="st0" d="M31,59.9c-0.2,0.5-0.2,1.1-0.1,1.6c0.1,0.4,0.2,0.7,0.4,1c0.4,0.5,0.6,0.4,0.9,0.2c0.6-0.4,1.2-0.7,1.8-1.1
		c0.3-0.2,0.7-0.4,1-0.6c0.6-0.4,1.3-0.7,1.9-1.1c0.3-0.1,0.5-0.3,0.8-0.4c0.1,0,0.1,0,0.2-0.1c0,0.5,0,0.9,0,1.3s-0.1,0.9-0.1,1.4
		c-0.1,2.8-0.2,5.5-0.2,8.3c-0.1,2.2-0.1,4.3-0.2,6.5c0,0.7,0,1.4,0.1,2c0.1,0.3,0.2,0.7,0.3,1.1c0.3,0.9,1,1.3,2,1.4
		c0.5,0,1-0.1,1.5-0.1c0.3,0,0.5-0.1,0.8-0.1c-0.3,0.6-1.1,1.1-1.7,1.2c-0.4,0.1-0.8,0.1-1.2,0.2c-0.5,0.1-1,0-1.4-0.1
		c-0.3-0.1-0.6-0.3-0.9-0.7c-0.4-0.5-0.5-1.1-0.6-1.7c-0.1-0.6-0.2-1.3-0.1-2c0-0.1,0-0.2,0-0.3c0.1-0.4,0.1-0.9,0.1-1.3
		c0-0.7,0-1.3,0-2c0-0.4,0-0.8,0.1-1.1c0-0.1,0-0.3,0-0.4c0-0.7,0-1.5,0-2.3c0-0.4,0-0.7,0.1-1.1c0-0.1,0-0.3,0-0.4
		c0-0.7,0-1.4,0-2.1c0-0.3,0-0.7,0.1-1c0-0.1,0-0.2,0-0.4c0-0.6,0-1.1,0-1.7c0-0.2,0.1-0.5,0.1-0.7c0-0.1,0-0.2,0-0.3
		c0-0.7,0-1.5,0-2.2c0-0.1,0-0.2-0.1-0.3c-0.1,0-0.3,0.1-0.3,0.1c-0.5,0.3-1,0.6-1.5,0.8c-0.4,0.2-0.7,0.4-1.1,0.6
		c-0.2,0.1-0.5,0.3-0.7,0.4c-0.6,0.4-1.3,0.8-1.9,1.2c-0.4,0.2-0.5,0.2-0.8-0.1c-0.3-0.3-0.4-0.6-0.5-1c-0.1-0.5-0.1-1,0.1-1.5
		c0.1-0.1,0.1-0.3,0.2-0.4c0.3-0.3,0.6-0.6,0.9-0.9C30.8,59.9,30.9,59.9,31,59.9z"/>
	<path class="st0" d="M75.7,72.5c0,0.3,0,0.6,0,0.8c0,7.4,0,14.7,0,22.1c0,0.2,0,0.3,0,0.5c0,0.5,0.3,0.7,0.8,0.7c0.1,0,0.1,0,0.2,0
		c1.3-0.2,2.5-0.4,3.8-0.7c1.5-0.3,3-0.5,4.5-0.8c0.3-0.1,0.5-0.1,0.8-0.1c-0.3,0.5-0.7,0.7-1.2,1c-0.2,0.1-0.4,0.1-0.6,0.2
		c-1,0.2-2.1,0.3-3.1,0.5c-0.6,0.1-1.3,0.2-1.9,0.4c-0.7,0.1-1.4,0.2-2.1,0.3c-0.5,0.1-1,0.2-1.5,0.3c-0.3,0.1-0.6,0-0.8-0.3
		c-0.1-0.1-0.2-0.2-0.1-0.4c0-0.1,0-0.2,0-0.4c0-7.5,0-14.9,0-22.4c0-0.1,0-0.3,0-0.4c0-0.2,0.1-0.3,0.2-0.5
		c0.3-0.3,0.6-0.6,0.9-0.9C75.5,72.5,75.6,72.5,75.7,72.5z"/>
	<path class="st0" d="M89.3,71.3c-0.1,0.2-0.1,0.3-0.2,0.5c-1,2.2-1.1,4.5-0.1,6.7c0.3,0.7,0.8,1.3,1.4,1.9c0.7,0.7,1.5,1.4,2.3,2
		c0.5,0.4,1,0.7,1.4,1.1c0.5,0.4,0.9,0.8,1.3,1.3c0.5,0.6,0.9,1.4,1,2.2c0.1,0.6,0,1.1-0.2,1.6c-0.2,0.6-0.7,1.1-1.3,1.3
		c0.3-1,0.3-1.9-0.2-2.8c-0.2-0.5-0.6-1-1-1.4c-0.7-0.7-1.5-1.3-2.3-1.9c-1-0.7-1.9-1.6-2.8-2.5c-0.9-1-1.5-2.2-1.7-3.6
		C87,77.1,87,76.5,87,76c0.1-0.7,0.2-1.4,0.5-2.1c0.2-0.6,0.6-1.2,1-1.8c0.2-0.3,0.5-0.5,0.7-0.7C89.2,71.3,89.3,71.4,89.3,71.3z"/>
	<path class="st0" d="M21.7,102c-0.9,0-1.5-0.3-2.1-0.7c-0.9-0.6-1.4-1.4-1.8-2.3c-0.3-0.7-0.4-1.5-0.1-2.3c0-0.1,0.1-0.2,0.1-0.2
		c0.5-0.7,1.2-1.1,2-1.3c0.3,0,0.6,0.1,0.9,0.2c0.3,0.1,0.6,0.3,0.8,0.5c0.4,0.3,0.7,0.8,1,1.2c0.3,0.5,0.6,0.9,0.9,1.4
		c0.2,0.3,0.3,0.7,0.4,1.1c0.1,0.6-0.1,1.2-0.5,1.6C22.8,101.7,22.3,102,21.7,102z"/>
	<path class="st0" d="M47.3,77.4c-0.1,0.3-0.2,0.5-0.2,0.8c0,7.5,0,15,0,22.5c0,0.1,0,0.1,0,0.2c0,0.6,0.3,0.8,0.9,0.7
		c0.3-0.1,0.6-0.1,0.9-0.2c0.6-0.1,1.2-0.2,1.7-0.3c-0.2,0.4-0.6,0.7-0.9,0.9c-0.1,0.1-0.2,0.1-0.4,0.1c-0.6,0.1-1.3,0.3-1.9,0.4
		c-0.2,0-0.4,0.1-0.6,0.1c-0.5,0.1-0.9-0.2-0.9-0.6c0-0.1,0-0.2,0-0.4c0-7.5,0-15,0-22.4c0-0.5,0.2-0.9,0.5-1.2
		c0.2-0.2,0.4-0.4,0.6-0.6C47.2,77.4,47.3,77.4,47.3,77.4z"/>
	<path class="st0" d="M60.4,75.5c0,0.2,0,0.4,0,0.6c0,7.3,0,14.6,0,21.9c0,0.2,0,0.3,0,0.5c0,0.4,0.3,0.7,0.7,0.7
		c0.1,0,0.2,0,0.4-0.1c0.7-0.1,1.3-0.3,2-0.4c0.5-0.1,0.9-0.3,1-0.9c0.1,0.1,0.2,0.1,0.1,0.3c-0.1,0.2-0.2,0.4-0.4,0.6
		c-0.3,0.3-0.6,0.6-0.9,0.9c-0.3,0.3-0.6,0.4-1,0.5c-0.7,0.1-1.4,0.2-2.1,0.4c-0.1,0-0.1,0-0.2,0.1c-0.4,0-0.7-0.2-0.7-0.6
		c0-0.2,0-0.3,0-0.5c0-7.5,0-15,0-22.5C59.3,76.2,59.7,75.8,60.4,75.5z"/>
	<path class="st0" d="M53.5,57.5c-0.1-0.4,0-0.8,0-1.1c0.1-0.1,0.1-0.1,0.1-0.1c0,0,0,0,0.1,0c0.3,0,0.7,0,1,0
		c0.7,0,1.4,0.1,2.1,0.1c0,0,0.1,0,0.1,0.1c0,0.1,0,0.3,0,0.4c0,0.4-0.1,0.8-0.1,1.1c0.1,1.6,0.2,3.1,0.7,4.6
		c0.3,1.2,0.9,2.3,1.7,3.3c0.9,1.1,2,1.8,3.4,2.1c1.5,0.3,3,0.2,4.5-0.5c0.7-0.3,1.4-0.7,2.1-1.2c0.1-0.1,0.2-0.1,0.3-0.2
		c0,0.1-0.1,0.2-0.1,0.3c-0.6,0.5-1.3,1.1-2,1.5c-1,0.6-2,1.1-3.1,1.3c-0.5,0.1-1.1,0.2-1.6,0.1c-1.1-0.1-2.2-0.4-3.1-0.9
		c-0.6-0.3-1-0.8-1.5-1.3c-0.7-0.9-1.2-1.9-1.6-3c-0.3-0.7-0.4-1.5-0.5-2.3c-0.1-0.4-0.1-0.8-0.2-1.2c0,0,0,0,0-0.1
		c0-0.6-0.1-1.2-0.1-1.8c0-0.2,0.1-0.4,0.1-0.6c0-0.2,0.1-0.4,0-0.6c-0.4-0.1-0.7-0.1-1.1-0.1C54.3,57.5,53.9,57.5,53.5,57.5z"/>
	<path class="st0" d="M102.7,67.9c0,0.2,0,0.4,0,0.6c0,7.4,0,14.7,0,22.1c0,0.2,0,0.3,0,0.5c0.1,0.5,0.4,0.7,0.9,0.7
		c0.8-0.1,1.5-0.3,2.3-0.4c0.2,0,0.4-0.1,0.5-0.2c0,0.1,0,0.2-0.1,0.3c-0.4,0.4-0.8,0.7-1.3,1c-0.3,0.2-0.7,0.2-1,0.3
		s-0.6,0.1-0.9,0.1c-0.3,0.1-0.6,0.1-0.8,0.1c-0.4,0-0.6-0.2-0.7-0.6c0-0.1,0-0.2,0-0.3c0-7.5,0-15,0-22.5
		C101.7,68.8,102.1,68.3,102.7,67.9z"/>
	<path class="st0" d="M42,58.5c0-0.1,0-0.3,0-0.4c0-0.1,0-0.1,0-0.2c1.3-0.6,6.3-1.5,7.6-1.5c0,0.1,0,0.2,0,0.3
		c-0.1,2.1-0.1,4.3-0.2,6.4c0,1.4-0.1,2.7-0.1,4.1c0,0.6,0,1.3,0.1,1.9c0.1,0.3,0.2,0.7,0.3,1c0.3,0.5,0.7,0.8,1.3,0.9
		c0.5,0,1.1-0.1,1.6-0.2c0.3-0.1,0.5-0.1,0.8-0.2c0,0.1-0.1,0.2-0.1,0.2c-0.3,0.2-0.5,0.5-0.8,0.7c-0.1,0.1-0.2,0.1-0.3,0.1
		c-0.4,0.1-0.9,0.1-1.3,0.2c-0.5,0.1-1,0.1-1.5,0.1c-0.5-0.1-0.9-0.3-1.1-0.7c-0.1-0.2-0.2-0.5-0.3-0.7c-0.1-0.6-0.2-1.1-0.2-1.8
		c0-0.5-0.1-1,0.1-1.5c0-0.1,0-0.2,0-0.4c0-0.8,0-1.6,0-2.4c0-0.4,0-0.9,0.1-1.3c0-0.1,0-0.3,0-0.4c0-1.1,0-2.2,0-3.3
		c0-0.2,0.1-0.4,0.1-0.6c0.1-0.5,0.1-0.9,0-1.4c-0.3-0.1-0.5-0.1-0.8,0c-0.4,0.1-0.8,0.1-1.2,0.2c-0.7,0.1-1.4,0.2-2.2,0.4
		C43.5,58.2,42.7,58.4,42,58.5z"/>
	<path class="st0" d="M77.7,32.3c0,0.1,0,0.1-0.1,0.2c-0.8,1.4-1.3,3-1.7,4.5c-0.5,1.8-0.8,3.6-1,5.4c-0.3,2.7-0.5,5.4-0.4,8
		c0.1,2,0.2,3.9,0.6,5.9c0,0.1,0.1,0.2,0.1,0.3c0,0.1,0,0.3-0.1,0.3c-0.3,0.6-0.7,1.1-1.1,1.7c-0.1-0.4-0.1-0.7-0.1-1.1
		c-0.1-0.5-0.1-0.9-0.2-1.4c-0.1-0.5-0.1-1-0.2-1.5c0-0.3,0-0.5,0-0.8c0-0.3,0-0.6-0.1-0.8c-0.1-0.1,0-0.3,0-0.4c0-1.3,0-2.7,0-4
		c0-0.2,0.1-0.4,0.1-0.6c0-0.2,0-0.3,0-0.5c0-0.5-0.1-0.9,0.1-1.4c0,0,0-0.1,0-0.1c-0.1-0.6,0.1-1.1,0.1-1.7
		c0.1-0.7,0.2-1.3,0.3-1.9c0.1-0.5,0.1-1,0.2-1.4c0.2-1.1,0.5-2.2,0.8-3.4c0.2-0.7,0.5-1.4,0.7-2.1c0.4-1.1,1-2.1,1.7-3
		C77.4,32.4,77.6,32.3,77.7,32.3z"/>
	<path class="st0" d="M90.9,31.7c0,0.1,0,0.1,0,0.2c-0.9,1.4-1.4,2.9-1.8,4.4c-0.4,1.6-0.7,3.2-0.9,4.8c-0.4,2.8-0.5,5.6-0.5,8.4
		c0.1,2.2,0.2,4.4,0.7,6.5c0.1,0.3,0,0.5-0.1,0.7c-0.3,0.4-0.5,0.7-0.8,1.1c-0.1-0.3-0.1-0.5-0.1-0.8c-0.2-0.7-0.3-1.4-0.4-2.1
		c-0.1-0.8-0.1-1.6-0.2-2.4c-0.1-1.1-0.1-2.1-0.1-3.2c0-0.2,0.1-0.5,0.1-0.7c0-0.2,0-0.3,0-0.5c0-0.6-0.1-1.1,0.1-1.7
		c0.1-0.2,0-0.4,0-0.6c0-0.3,0-0.5,0.1-0.8c0,0,0-0.1,0-0.1c-0.1-0.6,0.1-1.1,0.1-1.7c0-0.4,0.1-0.8,0.1-1.1
		c0.1-0.6,0.2-1.2,0.3-1.8c0.1-0.3,0.1-0.7,0.2-1c0.3-1.6,0.8-3.2,1.5-4.8c0.3-0.7,0.7-1.3,1.1-2c0.1-0.2,0.3-0.4,0.5-0.6
		C90.7,31.8,90.8,31.8,90.9,31.7z"/>
	<path class="st0" d="M49.6,34.6c0,0.4,0.1,0.8,0.1,1.2c0.1,0.8,0.1,1.6,0.1,2.5c0.1,4.6,0.2,9.3,0.1,13.9c0,0.6,0,1.1-0.1,1.7
		c0,0.1,0,0.2,0,0.3c-0.4,0-0.7,0-1,0c0-0.7,0-1.4,0-2.1c0-2.7,0-5.5,0-8.3c0-0.2-0.1-0.5-0.1-0.7c0-0.2,0-0.3,0-0.5
		c0-1,0-1.9,0-2.9c0-0.2-0.1-0.4-0.1-0.6c0-0.1,0-0.3,0-0.4c0-0.4,0-0.7,0-1.1c0-0.2,0-0.5-0.1-0.7c-0.1-0.3-0.1-0.7,0-1
		c0-0.3,0.2-0.5,0.4-0.7C49,34.9,49.3,34.7,49.6,34.6z"/>
	<path class="st0" d="M88.2,86.5c0,0.8,0,1.6,0,2.4c0,0.9,0.2,1.7,0.6,2.5c0.7,1.3,1.7,2.1,3.1,2.3c1.9,0.3,3.7-0.2,5.4-1.3
		c0.1-0.1,0.3-0.2,0.4-0.2c0.1,0.1,0,0.2-0.1,0.3c-0.5,0.5-0.9,0.9-1.5,1.3c-0.5,0.3-1.1,0.6-1.7,0.9c-0.6,0.2-1.2,0.4-1.9,0.4
		c-0.1,0-0.2,0-0.3,0c-0.2,0-0.4,0.1-0.6,0.1c-0.8-0.1-1.6-0.2-2.3-0.6c-0.9-0.5-1.5-1.2-1.9-2.1c-0.3-0.6-0.4-1.3-0.5-2
		c-0.1-0.7-0.1-1.4-0.1-2.1c0-0.4,0.1-0.8,0.5-1.1C87.5,87.1,87.9,86.8,88.2,86.5z"/>
	<path class="st0" d="M106.9,81.6c0-0.2,0-0.3,0-0.5c0-0.4,0.2-0.6,0.6-0.6c0.3-0.1,0.7-0.1,1-0.2c0.8-0.1,1.6-0.3,2.4-0.4
		c0.3-0.1,0.4,0,0.5,0.3c0,0.1,0,0.3,0,0.4c0,2.9,0,5.7,0,8.6c0,0.2,0,0.3,0,0.5c0,0.4,0.3,0.6,0.7,0.6c0.2,0,0.3,0,0.5-0.1
		c0.6-0.1,1.2-0.2,1.8-0.3c0.2-0.1,0.5-0.1,0.7-0.2c-0.3,0.5-0.8,1-1.4,1.3c-0.2,0.1-0.6,0.2-0.9,0.2c-0.5,0.1-1,0.2-1.5,0.3
		c-0.2,0-0.3,0-0.5,0c-0.3,0-0.6-0.2-0.6-0.6c0-0.1,0-0.3,0-0.4c0-2.9,0-5.8,0-8.7c0-0.1,0-0.3,0-0.4c0-0.3-0.2-0.4-0.5-0.3
		c-0.8,0.1-1.6,0.3-2.3,0.4C107.1,81.5,107,81.5,106.9,81.6z"/>
	<path class="st0" d="M64.5,89.3c0-0.2,0-0.4,0-0.6c0-0.3,0.1-0.5,0.4-0.6c0.2-0.1,0.5-0.1,0.7-0.2c0.2-0.1,0.3,0,0.4,0.2
		c0.1,0.1,0.1,0.3,0.1,0.4c0.6,2.1,1.2,4.1,1.8,6.2c0.2,0.6,0.3,1.3,0.5,1.9c0,0.1,0.1,0.3,0.1,0.4c0.2,0.3,0.4,0.5,0.7,0.5
		c0.2,0,0.3,0,0.5,0c0.6-0.1,1.2-0.3,1.8-0.3c0.3-0.1,0.6-0.2,0.8-0.4c0.1,0.1,0.1,0.1,0.2,0.2c-0.1,0.2-0.2,0.3-0.3,0.5
		c-0.6,0.5-1.1,1.1-2,1.2c-0.6,0.1-1.1,0.2-1.7,0.3c-0.5,0.1-0.9-0.1-1.1-0.5c-0.1-0.2-0.2-0.4-0.2-0.6c-0.3-1.1-0.6-2.1-0.9-3.2
		c-0.3-1.2-0.7-2.5-1-3.7c-0.1-0.3-0.2-0.6-0.2-0.9c0-0.1-0.1-0.2-0.1-0.3C65,89.4,64.8,89.3,64.5,89.3z"/>
	<path class="st0" d="M37.8,42c0,0.3,0.1,0.6,0.1,0.9C38,46,38,49.2,38,52.3c0,1,0,2,0,3c0,0.2,0,0.3,0,0.5
		c-0.2,0.2-0.4,0.2-0.6,0.3c-0.2,0.1-0.4,0.2-0.6,0.2c0-3.5,0-7.1,0-10.7c0-0.2-0.1-0.5-0.1-0.7c0-0.1,0-0.2,0-0.3c0-0.5,0-1,0-1.5
		c0-0.2,0.1-0.3,0.2-0.5c0.2-0.2,0.4-0.5,0.7-0.7C37.5,42,37.7,42,37.8,42z"/>
	<path class="st0" d="M74.2,60.7c0,0,0-0.1,0-0.1c0.3-0.5,0.6-1,0.9-1.5c0-0.1,0.1-0.1,0.1-0.2c0.1,0.2,0.1,0.4,0.2,0.5
		c0.2,0.9,0.5,1.8,0.9,2.7c0.3,0.7,0.7,1.3,1.2,1.9c1.1,1.3,2.6,1.8,4.3,1.2c0.7-0.2,1.3-0.6,1.9-1c0.1-0.1,0.3-0.2,0.5-0.3
		c-0.1,0.3-0.3,0.4-0.5,0.6c-0.2,0.2-0.5,0.4-0.8,0.6c-0.8,0.6-1.6,1-2.5,1.3c-1.1,0.3-2.2,0.2-3.1-0.5c-0.6-0.4-1.1-1-1.4-1.6
		c-0.7-1.1-1.1-2.3-1.4-3.5C74.3,60.9,74.2,60.8,74.2,60.7z"/>
	<path class="st0" d="M99.2,57.6c0.3-0.8,0.6-1.6,0.9-2.4c0,0,0.1-0.1,0.1-0.1c0.1,0.1,0.1,0.3,0.1,0.5c0.2,0.9,0.3,1.8,0.6,2.7
		c0.2,0.5,0.4,1,0.6,1.4c0.7,1.3,1.9,2,3.3,2.2c0.3,0.1,0.6,0.1,0.9,0.1c0.7,0,1.4-0.1,2.1-0.4c0.2-0.1,0.4-0.1,0.5-0.2
		c0,0,0,0.1,0,0.1c-0.4,0.3-0.7,0.7-1.2,0.9c-0.9,0.4-1.8,0.7-2.8,0.6c-0.9-0.1-1.9-0.2-2.6-0.8c-0.6-0.5-1.1-1-1.4-1.6
		c-0.5-0.8-0.7-1.7-1-2.6C99.3,57.8,99.3,57.7,99.2,57.6z"/>
	<path class="st0" d="M103,40.4c0,0.1-0.1,0.1-0.1,0.2c-0.9,1.4-1.5,3-1.9,4.7c-0.3,1-0.5,2.1-0.6,3.2c-0.1,1-0.4,1.9-0.7,2.9
		c-0.6,1.9-1.3,3.8-2.2,5.6c-0.3,0.7-0.7,1.5-1.2,2.2c-0.2,0.3-0.5,0.7-0.8,1c-0.1,0.1-0.2,0.1-0.2,0.2c-0.1-0.2,0-0.3,0.1-0.4
		c0.5-0.8,0.8-1.6,1.2-2.4c0.7-1.6,1.3-3.2,1.8-4.8c0.3-1.1,0.6-2.1,0.8-3.2c0.2-1.2,0.5-2.5,0.8-3.6c0.3-1.1,0.7-2.1,1.3-3.1
		c0.3-0.5,0.6-1,0.9-1.5c0.1-0.2,0.3-0.4,0.5-0.6C102.8,40.5,102.9,40.4,103,40.4z"/>
	<path class="st0" d="M92.6,73.1c0.2-0.7,1.3-1.4,2.4-1.3c0.4,0.1,0.6,0.3,0.8,0.6c0.2,0.3,0.3,0.6,0.3,1c0.1,0.4,0.1,0.8,0.1,1.3
		c0,0.2,0,0.5,0,0.7c0,0.6,0.2,0.8,0.8,0.7c0.5-0.1,0.9-0.2,1.4-0.3c0.3-0.1,0.6-0.1,0.9-0.2c-0.3,0.5-0.9,0.9-1.4,1.2
		c-0.2,0.1-0.5,0.1-0.7,0.2c-0.5,0.1-1.1,0.2-1.6,0.3c-0.2,0-0.3,0-0.5,0c-0.2,0-0.3-0.2-0.4-0.4c0,0,0-0.1,0-0.1
		c0.1-0.6-0.1-1.2-0.1-1.8c0-0.5-0.2-1-0.4-1.4c-0.2-0.3-0.5-0.6-0.9-0.6C93.2,73.1,92.9,73.1,92.6,73.1z"/>
	<path class="st0" d="M87.7,60.3c0.3-0.5,0.6-1,0.9-1.5c0.1,0,0.1,0.1,0.2,0.2c0.3,0.7,0.6,1.3,0.9,2c0.3,0.6,0.7,1.1,1.1,1.7
		c0.3,0.3,0.7,0.7,1.1,0.9c0.8,0.5,1.7,0.6,2.6,0.2c0.1-0.1,0.3-0.1,0.4-0.2c0,0.1-0.1,0.1-0.1,0.2c-0.4,0.3-0.9,0.7-1.3,1
		c-0.4,0.2-0.9,0.3-1.3,0.4c-0.3,0-0.6-0.1-0.9-0.2c-0.4-0.2-0.9-0.4-1.2-0.7c-0.3-0.3-0.6-0.6-0.8-1c-0.6-0.8-1-1.7-1.4-2.6
		C87.8,60.5,87.8,60.4,87.7,60.3z"/>
	<path class="st0" d="M111.3,66.4c0,3,0,6,0,9.1c0,0.1,0,0.1,0,0.2c0,0.4-0.1,0.6-0.6,0.7c-0.2,0-0.4,0.1-0.6,0.1c0-2.6,0-5.2,0-7.9
		c0-0.2,0-0.3,0-0.5c0-0.3,0.1-0.6,0.3-0.8C110.6,66.9,110.9,66.5,111.3,66.4z"/>
	<path class="st0" d="M61.5,58.6c-0.1-0.6,0-1.1,0-1.7c0.1,0,0.1-0.1,0.1-0.1c0.6,0.1,1.3,0.1,1.9,0.1c0.8,0.1,1.6-0.1,2.3-0.3
		c1.1-0.4,2.2-0.9,3-1.8c0.1-0.1,0.1-0.1,0.2-0.1c0.1,0.1,0,0.2-0.1,0.3c-0.3,0.5-0.7,0.8-1.1,1.2c-0.1,0.1-0.2,0.2-0.3,0.3
		c-0.6,0.6-1.4,1.1-2.2,1.4c-0.7,0.3-1.5,0.5-2.3,0.6c-0.2,0-0.4,0-0.6,0C62.2,58.6,61.9,58.6,61.5,58.6z"/>
	<path class="st0" d="M79.7,75.8c0-0.2,0-0.4,0-0.6c0-0.3,0.2-0.4,0.4-0.5c0.1,0,0.2-0.1,0.3-0.1c1.6-0.3,3.2-0.6,4.8-0.9
		c0.2-0.1,0.5-0.1,0.7-0.2c0,0.1,0,0.2,0,0.2c-0.4,0.4-0.8,0.8-1.3,1c-0.3,0.1-0.7,0.1-1,0.2c-0.7,0.2-1.4,0.3-2.1,0.4
		C80.8,75.6,80.3,75.7,79.7,75.8z"/>
	<path class="st0" d="M51.4,80.6c-0.1-0.7,0.1-0.8,0.7-1c1.7-0.3,3.5-0.6,5.2-0.9c-0.3,0.3-0.6,0.6-0.8,0.9
		c-0.1,0.2-0.3,0.2-0.5,0.2C55.5,80,55,80,54.6,80.1c-0.5,0.1-1,0.2-1.5,0.3C52.5,80.4,51.9,80.6,51.4,80.6z"/>
	<path class="st0" d="M79.7,85.9c0-0.1,0-0.3,0-0.4c0-0.4,0.2-0.6,0.5-0.6c0.4-0.1,0.7-0.1,1.1-0.2c0.9-0.2,1.7-0.3,2.6-0.5
		c0,0.1-0.1,0.2-0.1,0.3c-0.3,0.3-0.6,0.6-0.9,0.8c-0.2,0.1-0.5,0.2-0.8,0.3c-0.6,0.1-1.3,0.2-1.9,0.3
		C80.1,85.9,79.9,85.9,79.7,85.9z"/>
	<path class="st0" d="M51.4,91c-0.1-0.8,0-0.9,0.8-1c1.1-0.2,2.2-0.3,3.2-0.5c0.1,0,0.3-0.1,0.4-0.1c-0.3,0.3-0.5,0.6-0.8,0.8
		c-0.2,0.2-0.4,0.3-0.7,0.3c-0.9,0.1-1.8,0.3-2.7,0.4C51.5,90.9,51.4,91,51.4,91z"/>
	<path class="st0" d="M59.7,48.9c0,0.1-0.1,0.2-0.1,0.3c-1,1.7-1.6,3.4-2,5.3c0,0.1-0.1,0.2-0.1,0.3c-0.3,0-0.6,0-0.8-0.1
		c0.2-0.8,0.5-1.6,0.9-2.4c0.3-0.7,0.6-1.3,1-1.9c0.2-0.4,0.5-0.7,0.7-1.1C59.4,49.1,59.5,48.9,59.7,48.9z"/>
	<path class="st0" d="M69.6,66.1c0.1-0.1,0.3-0.2,0.4-0.4C70,65.9,69.8,66.1,69.6,66.1z"/>
	<path class="st0" d="M89.8,70.8c-0.1,0.1-0.2,0.2-0.2,0.3C89.5,70.9,89.6,70.8,89.8,70.8z"/>
	<path class="st0" d="M103.3,40.1c-0.1,0.1-0.2,0.2-0.2,0.3C103,40.2,103.1,40.1,103.3,40.1z"/>
	<path class="st0" d="M95.4,60.3c0,0.2-0.1,0.2-0.2,0.2C95.2,60.5,95.2,60.3,95.4,60.3z"/>
	<path class="st0" d="M60,48.5c-0.1,0.1-0.2,0.2-0.2,0.3C59.8,48.6,59.8,48.5,60,48.5z"/>
	<path class="st0" d="M113.1,105.1c-0.1,0.2-0.2,0.2-0.4,0.2c0.1-0.1,0.1-0.1,0.2-0.2C113,105.1,113,105.1,113.1,105.1z"/>
	<path class="st0" d="M106.5,91.2c0.1-0.1,0.2-0.2,0.2-0.2C106.7,91.1,106.6,91.2,106.5,91.2z"/>
	<path class="st0" d="M75.8,72.3c-0.1,0.1-0.1,0.1-0.2,0.2C75.7,72.4,75.7,72.3,75.8,72.3z"/>
	<path class="st0" d="M94.9,63.5c0.1-0.1,0.1-0.1,0.2-0.2C95.1,63.5,95.1,63.5,94.9,63.5z"/>
	<path class="st0" d="M31.1,59.7C31,59.8,31,59.8,31,59.9C31,59.8,31,59.7,31.1,59.7z"/>
	<path class="st0" d="M69,54.8c0.1-0.1,0.1-0.1,0.1-0.2C69.2,54.7,69.2,54.8,69,54.8z"/>
	<path class="st0" d="M77.8,32.1c-0.1,0.1-0.1,0.1-0.1,0.2C77.7,32.2,77.7,32.2,77.8,32.1z"/>
	<path class="st0" d="M91.2,31.3c-0.1,0.1-0.1,0.1-0.2,0.2C91.1,31.4,91.1,31.3,91.2,31.3z"/>
	<path class="st0" d="M85.8,73.7c0.1-0.1,0.1-0.1,0.1-0.1C85.9,73.6,85.9,73.6,85.8,73.7z"/>
	<path class="st0" d="M114.9,89.7c0.1,0,0.1-0.1,0.1-0.1C115,89.7,115,89.7,114.9,89.7z"/>
	<path class="st0" d="M89.4,71.2c0,0.1,0,0.1-0.1,0.1C89.4,71.3,89.4,71.2,89.4,71.2z"/>
	<path class="st0" d="M89.5,71.1c0,0.1-0.1,0.1-0.1,0.1C89.4,71.2,89.5,71.1,89.5,71.1z"/>
	<path class="st0" d="M69.5,66.2c0.1,0,0.1-0.1,0.1-0.1C69.6,66.1,69.5,66.1,69.5,66.2z"/>
	<path class="st0" d="M98,91.9c0,0,0.1-0.1,0.1-0.1C98.1,91.9,98,91.9,98,91.9z"/>
	<path class="st0" d="M97.9,92.1c0,0,0.1-0.1,0.1-0.1C98,92,97.9,92,97.9,92.1z"/>
	<path class="st0" d="M97.8,92.1c0,0,0.1-0.1,0.1-0.1C97.9,92.1,97.8,92.1,97.8,92.1z"/>
	<path class="st0" d="M97.7,92.2c0.1,0,0.1-0.1,0.1-0.1C97.7,92.2,97.7,92.2,97.7,92.2z"/>
	<path class="st0" d="M91.1,31.5c0,0-0.1,0.1-0.1,0.1C91,31.6,91,31.5,91.1,31.5z"/>
	<path class="st0" d="M84.1,64.1c0.1-0.1,0.1-0.1,0.1-0.2C84.2,64,84.2,64,84.1,64.1z"/>
	<polygon class="st0" points="56.2,54.7 56.2,54.7 56.2,54.6 	"/>
	<path class="st0" d="M69.2,54.6c0-0.1,0.1-0.1,0.1-0.1C69.2,54.6,69.2,54.6,69.2,54.6z"/>
	<path class="st0" d="M59.8,48.8c0,0.1-0.1,0.1-0.1,0.1C59.7,48.9,59.7,48.8,59.8,48.8z"/>
	<path class="st0" d="M91,31.6c0,0.1-0.1,0.1-0.1,0.1C90.9,31.7,91,31.7,91,31.6z"/>
	<path class="st0" d="M107.7,59.8c0.1-0.1,0.1-0.3,0.2-0.4c0.5-1,1-2,1.3-3.1c0.3-1.1,0.6-2.2,0.8-3.3c0.1-0.5,0.2-1,0.3-1.5
		c0.1-0.3,0.1-0.6,0.1-0.9c0.1-0.5,0.1-1.1,0.1-1.6c0-0.8,0-1.6,0-2.3c0-1-0.1-2-0.3-3c-0.2-0.8-0.5-1.6-1-2.3
		c-0.2-0.3-0.5-0.5-0.9-0.7c-0.3-0.1-0.7-0.1-1.1,0c-0.2,0.1-0.4,0.2-0.6,0.1c0.4-0.6,1-1,1.7-1.2c0.1,0,0.2-0.1,0.3-0.1
		c0.5-0.1,1,0,1.4,0.3c0.3,0.3,0.6,0.6,0.7,1c0.4,0.8,0.6,1.6,0.8,2.5c0.3,1.7,0.3,3.4,0.1,5.2c-0.2,2-0.5,3.9-1,5.8
		c-0.3,1.1-0.7,2.2-1.1,3.3c-0.3,0.7-0.7,1.3-1.2,1.9C108.2,59.5,108,59.8,107.7,59.8z"/>
	<path class="st0" d="M78.5,52c0.1-0.1,0.1-0.2,0.2-0.3c0.7-1.9,1.2-3.9,1.7-5.9c0.2-1,0.5-2,0.6-3.1c0.1-0.8,0.2-1.5,0.3-2.3
		c0.1-0.6,0.1-1.3,0.2-1.9c0.1-0.7,0.1-1.5,0.1-2.2c0-0.4-0.1-0.9-0.2-1.3c-0.1-0.4-0.3-0.6-0.7-0.7c0.1-0.3,0.3-0.6,0.5-0.8
		c0.1-0.1,0.2-0.2,0.4-0.3c0.4-0.2,0.8-0.1,1,0.3c0.1,0.2,0.2,0.5,0.2,0.7c0.1,0.4,0.1,0.9,0.1,1.3c0,1-0.1,2.1-0.2,3.1
		c-0.4,2.9-1,5.7-1.7,8.5c-0.5,1.8-1,3.6-1.8,5.3c-0.1,0.3-0.2,0.6-0.4,0.8c0,0-0.1,0-0.1,0c0,0,0,0,0-0.1
		C78.6,52.9,78.6,52.5,78.5,52z"/>
	<path class="st0" d="M91.7,51c0.1-0.1,0.1-0.2,0.2-0.3c0.5-1.4,0.9-2.8,1.3-4.2c0.2-0.9,0.5-1.8,0.7-2.7c0.2-0.8,0.3-1.7,0.5-2.5
		c0.1-0.5,0.2-1,0.3-1.5c0.1-0.3,0.1-0.6,0.1-0.9c0.1-1,0.2-2.1,0.1-3.1c0-0.3-0.1-0.6-0.2-0.9c-0.1-0.4-0.3-0.6-0.8-0.6
		c0.1-0.3,0.3-0.6,0.5-0.8c0.1-0.1,0.1-0.1,0.2-0.2c0.5-0.4,1-0.3,1.3,0.3C96,34,96,34.5,96,35c0,0.8,0,1.7-0.1,2.5
		c-0.5,3.8-1.4,7.6-2.6,11.2C92.9,49.9,92.5,51,92,52c-0.1,0.1-0.1,0.2-0.2,0.4c-0.1,0-0.1-0.1-0.1-0.1C91.7,51.9,91.7,51.4,91.7,51
		z"/>
	<path class="st0" d="M65.4,54.3c0.1-0.2,0.1-0.3,0.2-0.5c0.4-0.6,0.6-1.3,0.8-1.9c0.1-0.3,0.1-0.5,0.1-0.8c0.1-0.5,0.1-0.9,0.2-1.3
		c0-0.1,0-0.1,0-0.2c-0.1-0.5-0.1-0.9-0.2-1.3c-0.1-0.5-0.5-0.8-0.8-1.1c-0.1-0.1-0.3-0.1-0.5-0.1c-0.1,0-0.3,0.1-0.4,0.1
		c-0.1,0-0.2,0-0.3,0c0.3-0.5,0.6-0.9,1.1-1.1c1-0.5,1.5-0.4,1.9,0.6c0.3,0.6,0.3,1.2,0.3,1.8c-0.1,0.6-0.1,1.3-0.3,1.9
		c-0.1,0.5-0.2,0.9-0.4,1.3c-0.3,0.7-0.7,1.4-1.2,2c-0.1,0.2-0.3,0.3-0.4,0.4C65.5,54.3,65.4,54.3,65.4,54.3z"/>
	<path class="st0" d="M106.6,40.7c-0.1,0-0.1,0.1-0.1,0.1C106.5,40.8,106.5,40.7,106.6,40.7z"/>
	<path class="st0" d="M107.6,59.9c0,0,0.1-0.1,0.1-0.1C107.7,59.8,107.7,59.8,107.6,59.9z"/>
	<path class="st0" d="M64.5,47.3c-0.1,0.1-0.1,0.1-0.1,0.1C64.5,47.4,64.5,47.3,64.5,47.3z"/>
	<g>
		<path class="st1" d="M12.1,89.1c0-0.1,0-0.2,0.1-0.3c0.3-1.1,0.7-2.2,1.1-3.3c0.6-1.5,1-3,1.1-4.6c0.2-2.2,0.2-4.3,0.1-6.5
			c-0.1-1.9-0.1-3.8,0-5.6c0.1-1,0.2-2.1,0.3-3.1c0.3-2.1,0.7-4.1,1.2-6.2c0.8-3.3,1.9-6.5,3.3-9.6c1.9-4.4,4.3-8.6,7.2-12.5
			c2.7-3.6,5.7-6.9,9-9.9c4.1-3.7,8.5-6.8,13.3-9.5c5-2.8,10.3-4.9,15.8-6.4c2.1-0.6,4.2-1,6.4-1.3c1.5-0.2,3-0.4,4.5-0.5
			c1.2-0.1,2.4-0.1,3.6-0.1c1.5,0,3,0.1,4.5,0.3c1.1,0.1,2.2,0.2,3.3,0.4c1.4,0.2,2.8,0.4,4.2,0.7c2.9,0.5,5.8,1.3,8.7,2.2
			c3.9,1.3,7.7,3,11.3,5c4.1,2.4,7.8,5.3,11.1,8.8c0.8,0.9,1.5,1.8,2.3,2.6c0.7,0.8,1.3,1.5,2.1,2.2c0.3,0.2,0.6,0.4,0.8,0.6
			c0.1,0.1,0.3,0.2,0.5,0.2c0.2,0.1,0.4-0.1,0.5-0.3c0-0.2,0-0.4-0.1-0.6c-0.2-0.5-0.3-0.9-0.5-1.4c-0.6-1.2-1.3-2.3-2.1-3.3
			c-0.5-0.7-1.1-1.3-1.6-2c-0.1-0.1-0.2-0.2-0.2-0.3c-0.1-0.1,0-0.3,0.1-0.3c0.1-0.1,0.2-0.1,0.3-0.1c0.1,0,0.2,0.1,0.3,0.1
			c1.3,0.5,2.6,0.9,3.9,1.4c1,0.4,2,0.8,3,1.4c1.4,0.8,2.4,1.9,3.1,3.2c0.7,1.3,1.2,2.7,1.4,4.1c0.2,1,0.2,2.1,0.1,3.1
			c-0.1,1.7-0.5,3.3-0.7,4.9c-0.2,1.3-0.4,2.6-0.5,3.8c0,0.4,0,0.7,0,1.1c0.2,2.6,0.1,5.2,0,7.9c-0.1,1.5-0.2,2.9-0.3,4.4
			c-0.2,1.7-0.4,3.5-0.7,5.2c-0.1,0.6-0.2,1.2-0.2,1.8c-0.1,0.6-0.2,1.1-0.3,1.7c-0.7,3.4-1.7,6.8-2.9,10.2
			c-2.2,6-5.1,11.5-8.8,16.6c-1.7,2.2-3.4,4.4-5.3,6.4c-1,1-2.1,2-3.1,3c-0.1,0.1-0.3,0.2-0.3,0.4l0,0c-0.1,0-0.1,0-0.2,0
			c-0.1,0.1-0.1,0.1-0.2,0.2c-0.2,0.3-0.6,0.5-1,0.7c-1.6,1-3.2,1.9-4.9,2.9c-1.1,0.6-2.2,1.2-3.4,1.8c-0.8,0.4-1.6,0.8-2.5,1.2
			c-0.5,0.2-1,0.4-1.4,0.7c-1.1,0.5-2.2,1-3.4,1.5c-1.5,0.6-3,1.2-4.5,1.7c-1.3,0.4-2.5,0.9-3.8,1.2c-1,0.3-2,0.6-3.1,0.9
			c-1.2,0.3-2.3,0.6-3.5,0.8c-0.7,0.1-1.3,0.2-2,0.3c-0.5,0.1-1,0.2-1.5,0.2c-0.6,0.1-1.3,0.2-1.9,0.3c-0.6,0.1-1.1,0.2-1.7,0.1
			c0,0-0.1,0-0.1,0c-0.4,0.1-0.8,0.1-1.3,0.1c-0.1,0-0.3,0-0.4,0c-0.2,0-0.5,0.1-0.7,0.1c-1.3,0-2.7,0-4,0c-0.7,0-1.4-0.1-2.1-0.1
			c-0.1,0-0.1,0-0.2,0c-0.2,0-0.3,0-0.5-0.1c-0.5-0.1-0.9-0.1-1.4-0.1c-0.6-0.1-1.2-0.2-1.8-0.3c-0.8-0.1-1.5-0.3-2.3-0.4
			c-1.4-0.3-2.9-0.7-4.3-1.2c-0.6-0.2-1.1-0.4-1.6-0.6c-1.1-0.4-2.1-0.8-3.1-1.3c-0.9-0.5-1.8-0.9-2.7-1.4c-0.9-0.5-1.8-1-2.6-1.6
			c-1.2-0.8-2.3-1.6-3.5-2.5c-1-0.8-2-1.7-3-2.6c-0.1-0.1-0.2-0.2-0.3-0.2c-0.7-0.6-1.4-1.3-2-1.9c-0.6-0.7-1.2-1.3-1.8-1.9
			c-0.2-0.2-0.4-0.3-0.7-0.5c-0.3-0.1-0.6-0.1-0.9,0.2c-0.3,0.3-0.5,0.6-0.6,1c-0.1,0.4-0.3,0.8-0.4,1.2c-0.2,0.5-0.4,1-0.7,1.4
			c-0.2,0.3-0.5,0.5-0.7,0.8c-0.4,0.4-0.9,0.7-1.3,0.9c-0.9,0.4-1.8,0.5-2.8,0.6c-0.4,0-0.7-0.1-1.1-0.1c-0.5-0.1-1-0.1-1.5-0.2
			c-1.6-0.3-3.1-1-4.5-1.6c-1.1-0.5-2.1-1.1-3-1.9c-0.9-0.7-1.7-1.6-2.4-2.6c-0.7-1.1-1.3-2.3-1.7-3.5c-0.3-0.9-0.5-1.8-0.6-2.7
			c-0.1-0.8-0.2-1.5-0.2-2.3c0-0.2,0-0.5,0-0.7c0-0.6,0.1-1.2,0.1-1.8c0-0.1,0-0.1,0.1-0.2c0.1-0.4,0.1-0.8,0.2-1.2
			C12,89.8,12.1,89.4,12.1,89.1z M91,31.6c0,0.1-0.1,0.1-0.1,0.1h0c-0.1,0.1-0.2,0.1-0.3,0.2c-0.2,0.2-0.3,0.4-0.5,0.6
			c-0.4,0.6-0.8,1.3-1.1,2c-0.7,1.5-1.1,3.1-1.5,4.8c-0.1,0.3-0.1,0.7-0.2,1c-0.1,0.6-0.2,1.2-0.3,1.8C87,42.5,87,42.9,87,43.3
			c0,0.6-0.2,1.1-0.1,1.7c0,0,0,0.1,0,0.1c-0.1,0.2-0.1,0.5-0.1,0.8c0,0.2,0,0.4,0,0.6c-0.1,0.6-0.1,1.1-0.1,1.7c0,0.2,0,0.3,0,0.5
			c0,0.2-0.1,0.5-0.1,0.7c0,1.1,0,2.1,0.1,3.2c0.1,0.8,0.1,1.6,0.2,2.4c0.1,0.7,0.2,1.4,0.4,2.1c0.1,0.2,0.1,0.5,0.1,0.8
			c0,0.1-0.1,0.1-0.1,0.2c-0.6,0.9-1.2,1.7-1.9,2.4c-0.5,0.6-1.1,1.2-1.8,1.6c-0.3,0.2-0.7,0.4-1.1,0.5c-0.6,0.2-1.2,0-1.7-0.5
			c-0.3-0.2-0.5-0.5-0.6-0.9c-0.2-0.4-0.3-0.7-0.4-1.1c-0.3-1.1-0.5-2.3-0.6-3.4c0-0.2,0-0.3,0.1-0.4c0.8-1.2,1.3-2.5,1.8-3.8
			c1.7-4.5,3-9.1,3.5-13.9c0.1-1.1,0.2-2.1,0.1-3.2c-0.1-0.9-0.1-1.9-0.4-2.8c-0.2-0.6-0.4-1.1-0.7-1.6c-0.9-1.3-2.7-1.7-4.1-0.8
			c-0.4,0.3-0.8,0.6-1.1,1c-0.2,0.3-0.5,0.6-0.7,1c-0.1,0-0.1,0.1-0.1,0.2l0,0c-0.1,0-0.2,0.1-0.3,0.2c-0.7,0.9-1.3,1.9-1.7,3
			c-0.2,0.7-0.5,1.4-0.7,2.1c-0.3,1.1-0.6,2.2-0.8,3.4c-0.1,0.5-0.2,1-0.2,1.4c-0.1,0.7-0.2,1.3-0.3,1.9c-0.1,0.6-0.2,1.1-0.1,1.7
			c0,0,0,0.1,0,0.1c-0.1,0.5-0.1,0.9-0.1,1.4c0,0.2,0,0.3,0,0.5c0,0.2-0.1,0.4-0.1,0.6c0,1.3,0,2.7,0,4c0,0.1,0,0.3,0,0.4
			c0.1,0.3,0.1,0.6,0.1,0.8c0,0.3,0,0.5,0,0.8c0.1,0.5,0.1,1,0.2,1.5c0.1,0.5,0.1,0.9,0.2,1.4c0.1,0.4,0.1,0.7,0.1,1.1
			c-0.1,0.1-0.1,0.2-0.2,0.3c-0.4,0.5-0.8,1.1-1.2,1.6c-0.8,1-1.7,2.1-2.8,2.9C69,64,68.2,64.6,67.2,65c-0.7,0.3-1.3,0.4-2.1,0.3
			c-1.1-0.1-2.1-0.6-2.7-1.6c-0.2-0.4-0.4-0.8-0.5-1.3c-0.2-0.8-0.3-1.6-0.4-2.4c-0.1-0.5-0.1-1.1-0.1-1.6c0.3,0,0.6,0,0.9,0
			c0.2,0,0.4,0,0.6,0c0.8-0.1,1.5-0.3,2.3-0.6c0.8-0.3,1.6-0.8,2.2-1.4c0.1-0.1,0.2-0.2,0.3-0.3c0.4-0.4,0.8-0.7,1.1-1.2
			c0.1-0.1,0.1-0.2,0.1-0.3v0c0.1,0,0.1-0.1,0.1-0.2l0,0c0-0.1,0.1-0.1,0.1-0.1c0.1-0.1,0.1-0.2,0.1-0.2c0.5-0.6,0.8-1.3,1.1-2
			c0.3-0.7,0.5-1.5,0.5-2.3c0-1.1,0-2.2-0.3-3.3c-0.2-0.9-0.7-1.6-1.4-2.2c-1-0.8-2-1.1-3.2-0.8c-0.7,0.2-1.3,0.5-1.9,0.8
			c-0.8,0.5-1.5,1.1-2.2,1.7c-0.5,0.5-1,1-1.4,1.5c-0.2,0.2-0.3,0.5-0.5,0.7c-0.2,0.1-0.2,0.2-0.2,0.3l0,0c0,0.1-0.1,0.1-0.1,0.1h0
			c-0.2,0.1-0.3,0.2-0.5,0.4c-0.3,0.4-0.5,0.7-0.7,1.1c-0.4,0.6-0.7,1.2-1,1.9c-0.3,0.8-0.6,1.6-0.9,2.4c-0.1,0-0.2,0-0.4-0.1h0
			c-0.8,0-1.5-0.1-2.3-0.2c0-0.2,0-0.4,0-0.5c0-1.3,0.1-2.6,0.1-3.9c0.1-2.4,0.1-4.8,0.2-7.2c0-0.2,0-0.4,0-0.6
			c0.1-2,0.1-3.9,0.2-5.9c0-0.2,0-0.3,0-0.5c-0.1-1.3-0.9-1.8-1.9-2c-0.9-0.1-1.7,0.1-2.5,0.3c-0.2,0.1-0.3,0.2-0.3,0.5
			c-0.3,0.1-0.5,0.3-0.7,0.5c-0.2,0.2-0.4,0.4-0.4,0.7c0,0.3,0,0.7,0,1c0.1,0.2,0.1,0.5,0.1,0.7c0,0.4,0,0.7,0,1.1
			c0,0.1,0,0.3,0,0.4c0,0.2,0.1,0.4,0.1,0.6c0,1,0,1.9,0,2.9c0,0.2,0,0.3,0,0.5c0,0.2,0.1,0.5,0.1,0.7c0,2.7,0,5.5,0,8.3
			c0,0.7,0,1.4,0,2.1c0,0-0.1,0-0.1,0c-2.1,0.1-4.1,0.2-6.2,0.6c-0.1,0-0.2,0-0.3,0c0-0.4,0-0.7,0.1-1.1c0.1-1.8,0.1-3.6,0.2-5.4
			c0.1-1.4,0.1-2.9,0.2-4.3c0-0.3,0-0.6-0.1-0.8c-0.2-0.9-0.6-1.5-1.5-1.7c-0.2-0.1-0.5-0.1-0.7-0.1c-0.7-0.1-1.5,0.1-2.2,0.2
			c-0.3,0.1-0.4,0.2-0.4,0.5c-0.1,0.1-0.2,0.1-0.3,0.2c-0.2,0.2-0.5,0.5-0.7,0.7c-0.1,0.1-0.2,0.3-0.2,0.5c0,0.5,0,1,0,1.5
			c0,0.1,0,0.2,0,0.3c0,0.2,0.1,0.5,0.1,0.7c0,3.5,0,7.1,0,10.7c-0.3,0.1-0.6,0.3-1,0.4c-1.2,0.5-2.3,1.1-3.4,1.8
			c-0.5,0.3-1,0.6-1.3,1.1c-0.1,0-0.1,0.1-0.1,0.2l0,0c-0.1,0-0.2,0-0.2,0.1c-0.3,0.3-0.6,0.6-0.9,0.9c-0.1,0.1-0.2,0.3-0.2,0.4
			c-0.2,0.5-0.2,1-0.1,1.5c0.1,0.3,0.2,0.7,0.5,1c0.3,0.3,0.5,0.3,0.8,0.1c0.6-0.4,1.3-0.8,1.9-1.2c0.2-0.1,0.5-0.3,0.7-0.4
			c0.4-0.2,0.7-0.4,1.1-0.6c0.5-0.3,1-0.6,1.5-0.8c0.1-0.1,0.2-0.1,0.3-0.1c0,0.1,0.1,0.2,0.1,0.3c0,0.7,0,1.5,0,2.2
			c0,0.1,0,0.2,0,0.3c0,0.2-0.1,0.5-0.1,0.7c0,0.6,0,1.1,0,1.7c0,0.1,0,0.2,0,0.4c-0.1,0.3-0.1,0.7-0.1,1c0,0.7,0,1.4,0,2.1
			c0,0.1,0,0.3,0,0.4C36,69.8,36,70.1,36,70.5c0,0.7,0,1.5,0,2.3c0,0.1,0,0.3,0,0.4c-0.1,0.4-0.1,0.8-0.1,1.1c0,0.7,0,1.3,0,2
			c0,0.4,0.1,0.9-0.1,1.3c0,0.1,0,0.2,0,0.3c-0.1,0.7,0,1.3,0.1,2c0.1,0.6,0.2,1.2,0.6,1.7c0.2,0.3,0.5,0.5,0.9,0.7
			c0.5,0.2,1,0.2,1.4,0.1c0.4-0.1,0.8-0.1,1.2-0.2c0.7-0.1,1.4-0.6,1.7-1.2c0.1-0.1,0.2-0.1,0.2-0.3c0-0.1,0-0.2,0-0.3
			c-0.2-1.4-0.2-2.8-0.3-4.2c-0.1-2.2-0.1-4.4-0.1-6.5c0-2.6,0.1-5.2,0.1-7.8c0-1,0-1.9,0-2.9c0-0.2,0-0.3,0-0.5
			c0.7-0.2,1.5-0.3,2.2-0.5c0.7-0.1,1.4-0.3,2.2-0.4c0.4,0,0.8-0.1,1.2-0.2c0.3,0,0.5-0.1,0.8,0c0.1,0.5,0.1,0.9,0,1.4
			c0,0.2-0.1,0.4-0.1,0.6c0,1.1,0,2.2,0,3.3c0,0.1,0,0.3,0,0.4c-0.1,0.4-0.1,0.9-0.1,1.3c0,0.8,0,1.6,0,2.4c0,0.1,0,0.2,0,0.4
			c-0.1,0.5-0.1,1-0.1,1.5c0,0.6,0.1,1.2,0.2,1.8c0.1,0.2,0.2,0.5,0.3,0.7c0.2,0.4,0.6,0.7,1.1,0.7c0.5,0.1,1,0.1,1.5-0.1
			c0.4-0.1,0.9-0.2,1.3-0.2c0.1,0,0.2-0.1,0.3-0.1c0.3-0.2,0.5-0.4,0.8-0.7c0.1-0.1,0.1-0.2,0.1-0.2c0.1-0.1,0.2-0.1,0.4-0.2
			c0-0.2-0.1-0.4-0.1-0.6c-0.2-1.6-0.3-3.2-0.3-4.8c-0.1-2.4-0.1-4.7-0.1-7.1c0-0.1,0-0.3,0-0.4c0.4,0,0.7,0,1.1,0
			c0.3,0,0.7-0.1,1.1,0.1c0.1,0.2,0.1,0.4,0,0.6c0,0.2-0.1,0.4-0.1,0.6c0,0.6,0.1,1.2,0.1,1.8c0,0,0,0,0,0.1
			c0.1,0.4,0.1,0.8,0.2,1.2c0.1,0.8,0.3,1.5,0.5,2.3c0.4,1.1,0.9,2.1,1.6,3c0.4,0.5,0.9,1,1.5,1.3c1,0.6,2,0.8,3.1,0.9
			c0.5,0.1,1.1-0.1,1.6-0.1c1.1-0.2,2.1-0.7,3.1-1.3c0.7-0.5,1.3-1,2-1.5c0.1-0.1,0.2-0.2,0.1-0.3v0c0.1,0,0.1-0.1,0.1-0.1l0,0
			c0.2,0,0.3-0.2,0.4-0.4c0-0.1,0.1-0.1,0.1-0.1c1.5-1.3,2.7-2.9,3.8-4.5c0.1-0.1,0.2-0.2,0.2-0.3c0,0.1,0.1,0.2,0.1,0.2
			c0.4,1.2,0.7,2.4,1.4,3.5c0.4,0.6,0.9,1.1,1.4,1.6c0.9,0.7,2,0.8,3.1,0.5c0.9-0.3,1.8-0.7,2.5-1.3c0.3-0.2,0.5-0.4,0.8-0.6
			c0.2-0.2,0.4-0.3,0.5-0.6v0c0.1-0.1,0.1-0.1,0.1-0.2c0.1-0.1,0.2-0.2,0.2-0.2c0.9-0.7,1.7-1.6,2.5-2.5c0.3-0.3,0.5-0.6,0.7-0.9
			c0.1,0.1,0.1,0.2,0.2,0.3c0.3,0.9,0.8,1.8,1.4,2.6c0.2,0.3,0.5,0.7,0.8,1c0.3,0.3,0.7,0.6,1.2,0.7c0.3,0.1,0.6,0.2,0.9,0.2
			c0.5-0.1,0.9-0.2,1.3-0.4c0.5-0.3,0.9-0.6,1.3-1c0.1-0.1,0.1-0.1,0.1-0.2l0,0c0.1,0,0.2,0,0.2-0.2c0.8-0.6,1.4-1.3,2-2.1
			c0.5-0.7,1-1.5,1.4-2.3c0.2-0.5,0.5-0.9,0.7-1.4c0.1,0.1,0.1,0.2,0.2,0.4c0.2,0.9,0.5,1.8,1,2.6c0.3,0.7,0.9,1.2,1.4,1.6
			c0.8,0.6,1.7,0.7,2.6,0.8c1,0.1,1.9-0.2,2.8-0.6c0.5-0.2,0.8-0.6,1.2-0.9c0,0,0-0.1,0-0.1c1.4-0.6,2.3-1.7,3.1-2.9
			c0.2-0.4,0.5-0.8,0.7-1.2c1.4-2.9,2.1-6,2.3-9.2c0.1-0.9,0-1.8,0-2.8c0-1.2-0.2-2.4-0.6-3.5c-0.3-1-0.7-2-1.3-2.9
			c-1.3-1.7-3.8-2.5-5.9-1.6c-0.9,0.4-1.8,1-2.5,1.7c-0.3,0.3-0.7,0.7-1,1.1c-0.2,0.1-0.2,0.2-0.2,0.3l0,0c-0.1,0-0.2,0.1-0.3,0.2
			c-0.2,0.2-0.3,0.4-0.5,0.6c-0.3,0.5-0.7,1-0.9,1.5c-0.5,1-0.9,2.1-1.3,3.1c-0.4,1.2-0.6,2.4-0.8,3.6c-0.2,1.1-0.4,2.2-0.8,3.2
			c-0.5,1.6-1.1,3.3-1.8,4.8c-0.4,0.8-0.7,1.6-1.2,2.4c-0.1,0.1-0.2,0.2-0.1,0.4l0,0c-0.2,0-0.2,0.1-0.2,0.2
			c-0.1,0.1-0.2,0.2-0.3,0.2c-0.5,0.2-0.8,0.2-1.2-0.2c-0.1-0.2-0.3-0.3-0.4-0.5c-0.1-0.2-0.2-0.5-0.3-0.8c-0.3-1.1-0.5-2.2-0.7-3.3
			c0-0.2,0-0.3,0.1-0.5c0.7-1,1.2-2.1,1.7-3.2c1.8-4.1,3.1-8.3,3.8-12.7c0.2-1.5,0.3-3,0.3-4.5c0-0.7-0.1-1.3-0.2-2
			c-0.2-0.8-0.5-1.6-0.9-2.2c-0.9-1.2-2.5-1.6-3.6-1.2c-0.8,0.2-1.4,0.7-1.9,1.3c-0.1,0.1-0.2,0.3-0.3,0.4c-0.1,0-0.1,0.1-0.2,0.2
			l0,0C91,31.5,91,31.6,91,31.6L91,31.6z M97.8,92.1L97.8,92.1c0,0,0.1-0.1,0.1-0.1l0,0c0,0,0.1-0.1,0.1-0.1l0,0
			c0,0,0.1-0.1,0.1-0.1c0.1-0.1,0.2-0.2,0.2-0.3c0.7-0.8,1.2-1.7,1.6-2.7c0.3-0.9,0.4-1.9,0.4-2.8c0-1.2-0.3-2.3-1-3.4
			c-0.5-0.7-1.1-1.4-1.8-2c-0.6-0.6-1.3-1.1-1.9-1.6c-0.7-0.5-1.3-1.1-1.9-1.7c-0.3-0.3-0.6-0.7-0.9-1.1c-0.5-0.8-0.6-1.7-0.5-2.6
			c0.1-0.2,0.1-0.5,0.3-0.7c0.3,0,0.6,0,0.9,0c0.4,0,0.7,0.2,0.9,0.6c0.2,0.4,0.4,0.9,0.4,1.4c0,0.6,0.2,1.2,0.1,1.8
			c0,0,0,0.1,0,0.1c0,0.2,0.2,0.3,0.4,0.4c0.2,0,0.3,0,0.5,0c0.5-0.1,1.1-0.2,1.6-0.3c0.2-0.1,0.5-0.1,0.7-0.2
			c0.5-0.3,1-0.7,1.4-1.2c0,0,0.1-0.1,0.1-0.1c0.4-0.2,0.6-0.5,0.6-1c0-0.8,0-1.5-0.1-2.3c-0.1-0.7-0.3-1.3-0.6-1.9
			c-0.6-1.3-1.7-2-3.2-2.2c-0.7-0.1-1.4,0-2.1,0.1c-1.7,0.3-3.1,1.1-4.2,2.4c0,0-0.1,0.1-0.1,0.1c-0.2,0.1-0.2,0.2-0.2,0.3l0,0
			c0,0.1-0.1,0.1-0.1,0.1l0,0c0,0.1-0.1,0.1-0.1,0.1h0c-0.1,0-0.1,0-0.1,0c-0.2,0.2-0.5,0.5-0.7,0.7c-0.4,0.5-0.7,1.1-1,1.8
			c-0.3,0.7-0.4,1.4-0.5,2.1c-0.1,0.6,0,1.1,0.1,1.7c0.2,1.4,0.8,2.6,1.7,3.6c0.8,0.9,1.8,1.8,2.8,2.5c0.8,0.6,1.6,1.2,2.3,1.9
			c0.4,0.4,0.7,0.9,1,1.4c0.4,0.9,0.5,1.9,0.2,2.8c-0.2,0.2-0.5,0.2-0.8,0.3c-0.9,0.1-1.7-0.2-2-1.1c-0.1-0.4-0.2-0.8-0.2-1.2
			c0-0.5,0-1,0-1.5c0-0.1,0-0.3,0-0.4c-0.1-0.3-0.3-0.6-0.6-0.6c-0.1,0-0.3,0-0.4,0c-0.5,0.1-1.1,0.2-1.6,0.3s-0.9,0.3-1.2,0.7
			c-0.3,0.3-0.6,0.6-0.9,0.9c-0.3,0.3-0.5,0.6-0.5,1.1c0,0.7,0,1.4,0.1,2.1c0.1,0.7,0.2,1.3,0.5,2c0.4,0.9,1,1.6,1.9,2.1
			c0.7,0.4,1.5,0.5,2.3,0.6c0.2,0,0.4,0,0.6-0.1c0.1,0,0.2,0,0.3,0c0.6-0.1,1.3-0.2,1.9-0.4c0.6-0.2,1.1-0.5,1.7-0.9
			c0.6-0.3,1.1-0.8,1.5-1.3c0.1-0.1,0.2-0.2,0.1-0.3v0C97.7,92.2,97.7,92.2,97.8,92.1z M85.8,73.7c0.1-0.1,0.1-0.1,0.1-0.1
			c0.3-0.3,0.4-0.6,0.3-1c0-0.4,0-0.8,0-1.3c0-0.2,0-0.3,0-0.5c-0.1-0.3-0.3-0.6-0.6-0.6c-0.2,0-0.3,0-0.5,0.1
			c-1.1,0.2-2.1,0.4-3.2,0.6c-1.7,0.3-3.5,0.6-5.2,0.9c-0.3,0.1-0.7,0.2-0.9,0.5c-0.1,0-0.2,0.1-0.2,0.2l0,0c-0.1,0-0.2,0-0.2,0.1
			c-0.3,0.3-0.6,0.6-0.9,0.9c-0.1,0.1-0.2,0.3-0.2,0.5c0,0.1,0,0.3,0,0.4c0,7.5,0,14.9,0,22.4c0,0.1,0,0.2,0,0.4
			c0,0.2,0.1,0.3,0.1,0.4c0.2,0.3,0.5,0.4,0.8,0.3c0.5-0.1,1-0.2,1.5-0.3c0.7-0.1,1.4-0.2,2.1-0.3c0.6-0.1,1.3-0.3,1.9-0.4
			c1-0.2,2.1-0.4,3.1-0.5c0.2,0,0.4-0.1,0.6-0.2c0.4-0.3,0.9-0.5,1.2-1c0,0,0.1-0.1,0.1-0.1c0.5-0.2,0.7-0.6,0.7-1.1
			c0-0.5,0-1,0-1.5c0-0.1,0-0.2,0-0.3c-0.1-0.5-0.5-0.8-1-0.7c-1.5,0.2-2.9,0.5-4.4,0.7c-0.4,0.1-0.7,0.1-1.1,0.2
			c-0.3,0.1-0.4,0-0.4-0.3c0-0.1,0-0.2,0-0.4c0-1.8,0-3.5,0-5.3c0-0.2,0-0.3,0-0.5c0.2,0,0.3,0,0.5,0c0.6-0.1,1.3-0.2,1.9-0.3
			c0.3-0.1,0.5-0.1,0.8-0.3c0.3-0.2,0.7-0.5,0.9-0.8c0.1-0.1,0.1-0.2,0.1-0.3c0.3-0.2,0.5-0.4,0.6-0.7c0-0.7,0-1.4,0-2.1
			c0-0.3-0.3-0.5-0.6-0.5c-0.2,0-0.5,0-0.7,0.1c-1,0.2-2,0.3-3,0.5c-0.3,0.1-0.4,0-0.5-0.4c0-0.1,0-0.1,0-0.2c0-1.5,0-3,0-4.6
			c0-0.2,0-0.3,0-0.5c0.5-0.1,1.1-0.2,1.6-0.3c0.7-0.1,1.4-0.2,2.1-0.4c0.3-0.1,0.7-0.1,1-0.2c0.5-0.2,1-0.6,1.3-1
			c0.1-0.1,0-0.2,0-0.2C85.8,73.7,85.8,73.7,85.8,73.7z M114.9,89.7c0.1,0,0.1-0.1,0.1-0.1c0.3-0.3,0.3-0.6,0.3-1c0-0.9,0-1.8,0-2.7
			c0-6.5,0-13.1,0-19.6c0-0.2,0-0.4,0-0.6c-0.1-0.3-0.3-0.6-0.6-0.6c-0.1,0-0.2,0-0.3,0c-0.7,0.1-1.5,0.3-2.2,0.4
			c-0.5,0.1-0.9,0.3-1,0.8c-0.4,0.2-0.6,0.5-0.9,0.8c-0.2,0.2-0.3,0.5-0.3,0.8c0,0.2,0,0.3,0,0.5c0,2.6,0,5.2,0,7.9
			c-0.1,0-0.2,0.1-0.2,0.1c-0.9,0.1-1.7,0.3-2.6,0.4c-0.1,0-0.1,0-0.2,0c-0.1,0-0.2-0.1-0.3-0.2c0-0.2,0-0.3,0-0.5
			c0-2.8,0-5.6,0-8.4c0-0.2,0-0.4-0.1-0.6c-0.1-0.2-0.2-0.4-0.5-0.4c-0.1,0-0.2,0-0.4,0c-0.3,0-0.6,0.1-0.8,0.1
			c-0.5,0.1-1,0.2-1.5,0.3c-0.4,0.1-0.7,0.3-0.8,0.7c0,0.1-0.1,0.1-0.1,0.1c-0.7,0.4-1.1,0.9-1.1,1.7c0,7.5,0,15,0,22.5
			c0,0.1,0,0.2,0,0.3c0.1,0.4,0.3,0.6,0.7,0.6c0.3,0,0.6,0,0.8-0.1c0.3-0.1,0.6-0.1,0.9-0.1c0.3-0.1,0.7-0.1,1-0.3
			c0.5-0.3,0.9-0.6,1.3-1c0.1-0.1,0.1-0.2,0.1-0.3l0,0c0.2,0,0.2-0.1,0.2-0.2c0.2-0.3,0.2-0.6,0.2-1c0-2.6,0-5.2,0-7.9
			c0-0.2,0-0.4,0-0.6c0.1,0,0.3-0.1,0.4-0.1c0.8-0.1,1.6-0.3,2.3-0.4c0.3-0.1,0.5,0.1,0.5,0.3c0,0.1,0,0.3,0,0.4c0,2.9,0,5.8,0,8.7
			c0,0.1,0,0.3,0,0.4c0,0.3,0.3,0.6,0.6,0.6c0.2,0,0.3,0,0.5,0c0.5-0.1,1-0.2,1.5-0.3c0.3-0.1,0.6-0.1,0.9-0.2
			C114.2,90.7,114.6,90.2,114.9,89.7L114.9,89.7z M55.8,89.3c0.1-0.1,0.1-0.1,0.2-0.2c0.2-0.2,0.3-0.4,0.3-0.7c0-0.6,0-1.3,0-1.9
			c0-0.5-0.3-0.7-0.7-0.7c-0.1,0-0.2,0-0.3,0.1c-1.1,0.2-2.2,0.4-3.4,0.6c-0.1,0-0.2,0-0.3,0c-0.2,0-0.3-0.1-0.3-0.2s0-0.4,0-0.6
			c0-1.5,0-3.1,0-4.6c0-0.2,0-0.3,0-0.5c0.6,0,1.1-0.2,1.7-0.3c0.5-0.1,1-0.2,1.5-0.3c0.5-0.1,0.9-0.1,1.3-0.2
			c0.2,0,0.4-0.1,0.5-0.2c0.3-0.3,0.6-0.6,0.8-0.9c0,0,0.1,0,0.1-0.1c0.5-0.2,0.7-0.6,0.7-1.1c0-0.3,0-0.7,0-1c0-0.3,0-0.5,0-0.8
			c0-0.3-0.1-0.4-0.4-0.5c-0.1,0-0.3-0.1-0.4,0c-0.2,0-0.4,0.1-0.6,0.1c-1.5,0.3-3,0.5-4.5,0.8c-1.3,0.2-2.5,0.5-3.8,0.7
			c-0.4,0.1-0.7,0.2-1,0.5c-0.1,0-0.1,0.1-0.2,0.1c-0.2,0.2-0.4,0.4-0.6,0.6c-0.3,0.3-0.5,0.7-0.5,1.2c0,7.5,0,15,0,22.4
			c0,0.1,0,0.2,0,0.4c0.1,0.5,0.5,0.7,0.9,0.6c0.2,0,0.4-0.1,0.6-0.1c0.6-0.1,1.3-0.3,1.9-0.4c0.1,0,0.3-0.1,0.4-0.1
			c0.3-0.3,0.7-0.5,0.9-0.9c0,0,0.1-0.1,0.1-0.1c0.3-0.2,0.5-0.5,0.5-0.9c0-0.1,0-0.3,0-0.4c0-2.7,0-5.4,0-8.1c0-0.2,0-0.4,0-0.6
			c0.1,0,0.2-0.1,0.2-0.1c0.9-0.1,1.8-0.3,2.7-0.4c0.3-0.1,0.5-0.2,0.7-0.3C55.3,89.9,55.5,89.6,55.8,89.3z M72.5,96.8
			c0.1-0.3,0.1-0.6-0.1-0.9c-0.2-0.5-0.3-0.9-0.4-1.3c-0.7-2.3-1.5-4.7-2.2-7c-0.2-0.5-0.1-0.6,0.3-1c0.1-0.1,0.2-0.1,0.2-0.2
			c0.9-0.7,1.4-1.5,1.7-2.6c0.1-0.4,0.2-0.7,0.3-1.1c0.2-1.8,0.2-3.5,0-5.3c-0.1-0.7-0.3-1.4-0.6-2c-0.5-1-1.3-1.6-2.5-1.9
			c-0.7-0.2-1.5-0.2-2.2,0c-1.9,0.3-3.9,0.7-5.8,1c-0.6,0.1-0.9,0.4-1,1c-0.7,0.3-1,0.7-1,1.5c0,7.5,0,15,0,22.5c0,0.2,0,0.3,0,0.5
			c0.1,0.4,0.3,0.6,0.7,0.6c0.1,0,0.1,0,0.2-0.1c0.7-0.1,1.4-0.2,2.1-0.4c0.4-0.1,0.7-0.2,1-0.5c0.3-0.3,0.6-0.6,0.9-0.9
			c0.2-0.2,0.3-0.3,0.4-0.6c0.1-0.1,0-0.2-0.1-0.3c0-0.1,0-0.1,0-0.2c0-2.7,0-5.4,0-8c0-0.1,0-0.3,0-0.4c0.3-0.1,0.5,0.1,0.6,0.4
			c0.1,0.1,0.1,0.2,0.1,0.3c0.1,0.3,0.2,0.6,0.2,0.9c0.3,1.2,0.7,2.5,1,3.7c0.3,1.1,0.6,2.1,0.9,3.2c0.1,0.2,0.1,0.4,0.2,0.6
			c0.2,0.4,0.7,0.6,1.1,0.5c0.6-0.1,1.1-0.3,1.7-0.3c0.9-0.1,1.4-0.7,2-1.2c0.1-0.1,0.2-0.3,0.3-0.5C72.6,96.8,72.6,96.8,72.5,96.8z
			 M82.6,15.7c-0.1,0-0.2-0.1-0.2-0.1c-1-0.1-2.1-0.2-3.1-0.2c-1.9-0.1-3.9-0.1-5.9,0.1c-1.2,0.1-2.4,0.2-3.6,0.4
			c-1.4,0.2-2.9,0.5-4.3,0.8c-3.4,0.7-6.6,1.9-9.7,3.4c-2.4,1.2-4.7,2.7-6.8,4.4c-0.7,0.6-1.3,1.1-1.8,1.9c-0.2,0.2-0.3,0.5-0.4,0.7
			c-0.1,0.3,0,0.6,0.4,0.6c0.1,0,0.3,0,0.4,0c0.2,0,0.4-0.1,0.6-0.2c0.8-0.2,1.5-0.6,2.3-0.9c1.3-0.6,2.6-1.4,3.9-2.1
			c5.6-3.1,11.5-5.4,17.7-7c2-0.5,3.9-0.9,5.9-1.2c1.3-0.2,2.6-0.4,3.8-0.5C82.1,15.8,82.3,15.7,82.6,15.7z M21.7,102
			c0.6,0,1.1-0.3,1.5-0.8c0.4-0.5,0.6-1,0.5-1.6c-0.1-0.4-0.2-0.8-0.4-1.1c-0.3-0.5-0.6-0.9-0.9-1.4c-0.3-0.5-0.6-0.9-1-1.2
			c-0.2-0.2-0.5-0.4-0.8-0.5c-0.3-0.1-0.6-0.2-0.9-0.2c-0.9,0.1-1.5,0.6-2,1.3c-0.1,0.1-0.1,0.2-0.1,0.2c-0.3,0.8-0.2,1.6,0.1,2.3
			c0.4,0.9,1,1.8,1.8,2.3C20.2,101.7,20.8,102,21.7,102z"/>
		<path class="st1" d="M107.6,59.9c-0.2,0.1-0.3,0.2-0.5,0.2c-0.5,0.1-0.9,0-1.2-0.4c-0.3-0.4-0.6-0.7-0.7-1.2c-0.4-1-0.7-1.9-0.8-3
			c-0.3-1.8-0.4-3.5-0.3-5.3c0.1-2.1,0.3-4.1,0.9-6.1c0.3-0.9,0.6-1.8,1.1-2.6c0.1-0.2,0.3-0.5,0.5-0.7c0.1,0,0.1-0.1,0.1-0.1h0
			c0.2,0.1,0.4-0.1,0.6-0.1c0.4-0.1,0.7-0.1,1.1,0c0.3,0.1,0.6,0.4,0.9,0.7c0.5,0.7,0.8,1.5,1,2.3c0.2,1,0.4,2,0.3,3
			c0,0.8,0,1.6,0,2.3c0,0.5-0.1,1.1-0.1,1.6c0,0.3-0.1,0.6-0.1,0.9c-0.1,0.5-0.2,1-0.3,1.5c-0.2,1.1-0.5,2.2-0.8,3.3
			c-0.3,1.1-0.7,2.1-1.3,3.1c-0.1,0.1-0.1,0.3-0.2,0.4v0C107.7,59.8,107.7,59.8,107.6,59.9z"/>
		<path class="st1" d="M78.5,52c-0.1-0.9-0.1-1.9-0.1-2.8c0-1.4,0-2.7,0.1-4.1c0.2-2.5,0.5-4.9,1-7.4c0.2-0.9,0.5-1.8,0.8-2.7
			c0.1-0.2,0.2-0.4,0.3-0.6c0.4,0.1,0.6,0.3,0.7,0.7c0.1,0.4,0.2,0.9,0.2,1.3c0,0.7,0,1.5-0.1,2.2c-0.1,0.6-0.1,1.3-0.2,1.9
			c-0.1,0.8-0.2,1.5-0.3,2.3c-0.2,1-0.4,2.1-0.6,3.1c-0.5,2-1,3.9-1.7,5.9C78.7,51.8,78.6,51.9,78.5,52z"/>
		<path class="st1" d="M91.7,51c0-0.2-0.1-0.3-0.1-0.5c0-1.6,0-3.1,0-4.7c0-1.5,0.2-3.1,0.4-4.6c0.2-1.5,0.5-3.1,0.9-4.6
			c0.2-0.6,0.4-1.2,0.6-1.8c0.1-0.2,0.2-0.4,0.3-0.6c0.4,0,0.7,0.3,0.8,0.6c0.1,0.3,0.2,0.6,0.2,0.9c0.1,1,0,2.1-0.1,3.1
			c0,0.3-0.1,0.6-0.1,0.9c-0.1,0.5-0.2,1-0.3,1.5c-0.2,0.8-0.3,1.7-0.5,2.5c-0.2,0.9-0.5,1.8-0.7,2.7c-0.3,1.4-0.8,2.8-1.3,4.2
			C91.8,50.8,91.7,50.9,91.7,51z"/>
		<path class="st1" d="M65.4,54.3c-0.1,0.1-0.1,0.2-0.3,0.3c-0.6,0.4-1.2,0.6-1.9,0.8c-0.5,0.1-1,0.1-1.4-0.1
			c-0.1-0.2-0.1-0.3-0.1-0.5c0.1-0.3,0.1-0.7,0.2-1c0.4-1.8,0.9-3.5,1.7-5.1c0.2-0.5,0.4-0.9,0.8-1.3c0.1-0.1,0.1-0.1,0.1-0.1h0
			c0.1,0,0.2,0,0.3,0c0.1,0,0.3-0.1,0.4-0.1c0.2,0,0.3-0.1,0.5,0.1c0.4,0.3,0.7,0.6,0.8,1.1c0.1,0.5,0.1,0.9,0.2,1.3
			c0,0.1,0,0.1,0,0.2c-0.1,0.5-0.1,0.9-0.2,1.3c-0.1,0.3-0.1,0.6-0.1,0.8c-0.2,0.7-0.4,1.3-0.8,1.9C65.5,54,65.5,54.2,65.4,54.3z"/>
		<path class="st1" d="M67.1,84.6c-0.4,0.2-0.8,0.2-1.2,0.3c-0.3,0.1-0.6,0.1-0.9,0.1c-0.2,0-0.3-0.1-0.3-0.3c0-0.1,0-0.2,0-0.3
			c0-1.9,0-3.9,0-5.8c0-0.1,0-0.2,0-0.3c0.4-0.1,0.8-0.1,1.2-0.1c0.7,0,1.1,0.3,1.3,0.9c0.2,0.5,0.3,1.1,0.3,1.7c0,0.5,0,0.9,0,1.4
			C67.4,83.1,67.3,83.8,67.1,84.6z"/>
	</g>
	<path class="st0" d="M67.1,84.6c0.2-0.7,0.3-1.5,0.3-2.3c0-0.5,0-0.9,0-1.4c0-0.6-0.1-1.1-0.3-1.7c-0.2-0.6-0.6-0.9-1.3-0.9
		c-0.4,0-0.8,0-1.2,0.1c0-0.2,0-0.4,0-0.6c0-0.3,0.2-0.5,0.4-0.6c0.6-0.1,1.2-0.2,1.8-0.2c0.1,0,0.2,0,0.3,0
		c0.5,0.1,0.9,0.3,1.1,0.8c0.1,0.3,0.2,0.6,0.3,0.9c0.2,1,0.1,2.1,0.1,3.1c0,0.4-0.1,0.9-0.2,1.3c-0.2,0.6-0.5,1.1-1.1,1.4
		C67.2,84.6,67.1,84.6,67.1,84.6z"/>
</g>
</svg>
