<svg enable-background="new 0 0 147 134.1" viewBox="0 0 147 134.1" xmlns="http://www.w3.org/2000/svg"><g fill="#231f20"><path d="m11.9 90.2c-.1.4-.1.8-.2 1.2 0 .1-.1.1-.1.2-.1.6-.1 1.2-.1 1.8v.7c0 .8.1 1.5.2 2.3.1.9.3 1.8.6 2.7.4 1.3 1 2.4 1.7 3.5.7 1 1.5 1.8 2.4 2.6.9.7 1.9 1.4 3 1.9 1.5.7 3 1.3 4.5 1.6.5.1 1 .2 1.5.2.4 0 .7.1 1.1.1 1-.1 1.9-.2 2.8-.6.5-.2 1-.5 1.3-.9.2-.3.5-.5.7-.8.3-.4.5-.9.7-1.4.1-.4.3-.8.4-1.2s.3-.7.6-1c.3-.2.6-.3.9-.2s.5.2.7.5c.6.6 1.3 1.3 1.8 1.9.6.7 1.3 1.4 2 1.9.1.1.2.2.3.2.9.9 1.9 1.7 3 2.6s2.3 1.7 3.5 2.5c.9.6 1.7 1.1 2.6 1.6s1.8 1 2.7 1.4c1 .5 2.1.9 3.1 1.3.5.2 1.1.4 1.6.6 1.4.5 2.8.9 4.3 1.2.8.2 1.5.3 2.3.4.6.1 1.2.2 1.8.3.5.1.9.1 1.4.1.2 0 .3 0 .5.1h.2c.7 0 1.4.1 2.1.1h4c.2 0 .5-.1.7-.1h.4c.4 0 .8 0 1.3-.1h.1c.6.1 1.1-.1 1.7-.1.6-.1 1.3-.2 1.9-.3.5-.1 1-.2 1.5-.2.7-.1 1.3-.2 2-.3 1.2-.2 2.3-.5 3.5-.8 1-.3 2.1-.5 3.1-.9 1.3-.4 2.5-.8 3.8-1.2 1.5-.5 3-1.1 4.5-1.7 1.1-.5 2.2-.9 3.4-1.5.5-.2 1-.4 1.4-.7.8-.4 1.7-.8 2.5-1.2 1.1-.6 2.3-1.2 3.4-1.8 1.6-.9 3.3-1.9 4.9-2.9.3-.2.7-.4 1-.7.2 0 .3-.1.4-.2.1 0 .1 0 .2.1-.1.1-.1.1-.2.2-3.1 2.7-6.3 5.2-9.8 7.2-1.4.9-2.9 1.8-4.3 2.6-3.5 2.1-7.3 3.8-11.2 5.1-3.3 1.2-6.6 2.1-10 2.7-1.8.3-3.6.6-5.4.8-1.6.2-3.1.3-4.7.3-1.8.1-3.6 0-5.4-.1-1.4-.1-2.8-.2-4.2-.4-1.9-.2-3.8-.6-5.7-1-3-.7-5.9-1.5-8.8-2.7-1.7-.7-3.4-1.5-5-2.4s-3.2-1.8-4.8-2.8c-2.5-1.5-5.1-2.6-7.9-3.3-1.4-.3-2.7-.7-4-1.1-1.6-.5-3.1-1.1-4.5-1.9-3.3-2-5.4-4.9-6.2-8.7-.3-1.6-.5-3.3-.3-5 .1-1.5.3-3 .7-4.6 0-.1.1-.2.1-.3h.1z" opacity=".3"/><path d="m11.9 90.2h-.1c.1-.4.1-.7.3-1.1 0 .3-.1.7-.2 1.1z" opacity=".3"/><path d="m31 59.9c-.2.5-.2 1.1-.1 1.6.1.4.2.7.4 1 .4.5.6.4.9.2.6-.4 1.2-.7 1.8-1.1.3-.2.7-.4 1-.6.6-.4 1.3-.7 1.9-1.1.3-.1.5-.3.8-.4.1 0 .1 0 .2-.1v1.3s-.1.9-.1 1.4c-.1 2.8-.2 5.5-.2 8.3-.1 2.2-.1 4.3-.2 6.5 0 .7 0 1.4.1 2 .1.3.2.7.3 1.1.3.9 1 1.3 2 1.4.5 0 1-.1 1.5-.1.3 0 .5-.1.8-.1-.3.6-1.1 1.1-1.7 1.2-.4.1-.8.1-1.2.2-.5.1-1 0-1.4-.1-.3-.1-.6-.3-.9-.7-.4-.5-.5-1.1-.6-1.7s-.2-1.3-.1-2c0-.1 0-.2 0-.3.1-.4.1-.9.1-1.3 0-.7 0-1.3 0-2 0-.4 0-.8.1-1.1 0-.1 0-.3 0-.4 0-.7 0-1.5 0-2.3 0-.4 0-.7.1-1.1 0-.1 0-.3 0-.4 0-.7 0-1.4 0-2.1 0-.3 0-.7.1-1 0-.1 0-.2 0-.4 0-.6 0-1.1 0-1.7 0-.2.1-.5.1-.7 0-.1 0-.2 0-.3 0-.7 0-1.5 0-2.2 0-.1 0-.2-.1-.3-.1 0-.3.1-.3.1-.5.3-1 .6-1.5.8-.4.2-.7.4-1.1.6-.2.1-.5.3-.7.4-.6.4-1.3.8-1.9 1.2-.4.2-.5.2-.8-.1s-.4-.6-.5-1c-.1-.5-.1-1 .1-1.5.1-.1.1-.3.2-.4.3-.3.6-.6.9-.9-.2.2-.1.2 0 .2z" opacity=".3"/><path d="m75.7 72.5v.8 22.1.5c0 .5.3.7.8.7h.2c1.3-.2 2.5-.4 3.8-.7 1.5-.3 3-.5 4.5-.8.3-.1.5-.1.8-.1-.3.5-.7.7-1.2 1-.2.1-.4.1-.6.2-1 .2-2.1.3-3.1.5-.6.1-1.3.2-1.9.4-.7.1-1.4.2-2.1.3-.5.1-1 .2-1.5.3-.3.1-.6 0-.8-.3-.1-.1-.2-.2-.1-.4 0-.1 0-.2 0-.4 0-7.5 0-14.9 0-22.4 0-.1 0-.3 0-.4 0-.2.1-.3.2-.5l.9-.9c-.1.1 0 .1.1.1z" opacity=".3"/><path d="m89.3 71.3c-.1.2-.1.3-.2.5-1 2.2-1.1 4.5-.1 6.7.3.7.8 1.3 1.4 1.9.7.7 1.5 1.4 2.3 2 .5.4 1 .7 1.4 1.1.5.4.9.8 1.3 1.3.5.6.9 1.4 1 2.2.1.6 0 1.1-.2 1.6-.2.6-.7 1.1-1.3 1.3.3-1 .3-1.9-.2-2.8-.2-.5-.6-1-1-1.4-.7-.7-1.5-1.3-2.3-1.9-1-.7-1.9-1.6-2.8-2.5-.9-1-1.5-2.2-1.7-3.6.1-.6.1-1.2.1-1.7.1-.7.2-1.4.5-2.1.2-.6.6-1.2 1-1.8.2-.3.5-.5.7-.7 0-.1.1 0 .1-.1z" opacity=".3"/><path d="m21.7 102c-.9 0-1.5-.3-2.1-.7-.9-.6-1.4-1.4-1.8-2.3-.3-.7-.4-1.5-.1-2.3 0-.1.1-.2.1-.2.5-.7 1.2-1.1 2-1.3.3 0 .6.1.9.2s.6.3.8.5c.4.3.7.8 1 1.2.3.5.6.9.9 1.4.2.3.3.7.4 1.1.1.6-.1 1.2-.5 1.6-.5.5-1 .8-1.6.8z" opacity=".3"/><path d="m47.3 77.4c-.1.3-.2.5-.2.8v22.5.2c0 .6.3.8.9.7.3-.1.6-.1.9-.2.6-.1 1.2-.2 1.7-.3-.2.4-.6.7-.9.9-.1.1-.2.1-.4.1-.6.1-1.3.3-1.9.4-.2 0-.4.1-.6.1-.5.1-.9-.2-.9-.6 0-.1 0-.2 0-.4 0-7.5 0-15 0-22.4 0-.5.2-.9.5-1.2.2-.2.4-.4.6-.6z" opacity=".3"/><path d="m60.4 75.5v.6 21.9.5c0 .4.3.7.7.7.1 0 .2 0 .4-.1.7-.1 1.3-.3 2-.4.5-.1.9-.3 1-.9.1.1.2.1.1.3s-.2.4-.4.6c-.3.3-.6.6-.9.9s-.6.4-1 .5c-.7.1-1.4.2-2.1.4-.1 0-.1 0-.2.1-.4 0-.7-.2-.7-.6 0-.2 0-.3 0-.5 0-7.5 0-15 0-22.5 0-.8.4-1.2 1.1-1.5z" opacity=".3"/><path d="m53.5 57.5c-.1-.4 0-.8 0-1.1.1-.1.1-.1.1-.1h.1 1c.7 0 1.4.1 2.1.1 0 0 .1 0 .1.1v.4c0 .4-.1.8-.1 1.1.1 1.6.2 3.1.7 4.6.3 1.2.9 2.3 1.7 3.3.9 1.1 2 1.8 3.4 2.1 1.5.3 3 .2 4.5-.5.7-.3 1.4-.7 2.1-1.2.1-.1.2-.1.3-.2 0 .1-.1.2-.1.3-.6.5-1.3 1.1-2 1.5-1 .6-2 1.1-3.1 1.3-.5.1-1.1.2-1.6.1-1.1-.1-2.2-.4-3.1-.9-.6-.3-1-.8-1.5-1.3-.7-.9-1.2-1.9-1.6-3-.3-.7-.4-1.5-.5-2.3-.1-.4-.1-.8-.2-1.2 0 0 0 0 0-.1 0-.6-.1-1.2-.1-1.8 0-.2.1-.4.1-.6s.1-.4 0-.6c-.4-.1-.7-.1-1.1-.1-.4.1-.8.1-1.2.1z" opacity=".3"/><path d="m102.7 67.9v.6 22.1.5c.1.5.4.7.9.7.8-.1 1.5-.3 2.3-.4.2 0 .4-.1.5-.2 0 .1 0 .2-.1.3-.4.4-.8.7-1.3 1-.3.2-.7.2-1 .3s-.6.1-.9.1c-.3.1-.6.1-.8.1-.4 0-.6-.2-.7-.6 0-.1 0-.2 0-.3 0-7.5 0-15 0-22.5.1-.8.5-1.3 1.1-1.7z" opacity=".3"/><path d="m42 58.5c0-.1 0-.3 0-.4s0-.1 0-.2c1.3-.6 6.3-1.5 7.6-1.5v.3c-.1 2.1-.1 4.3-.2 6.4 0 1.4-.1 2.7-.1 4.1 0 .6 0 1.3.1 1.9.1.3.2.7.3 1 .3.5.7.8 1.3.9.5 0 1.1-.1 1.6-.2.3-.1.5-.1.8-.2 0 .1-.1.2-.1.2-.3.2-.5.5-.8.7-.1.1-.2.1-.3.1-.4.1-.9.1-1.3.2-.5.1-1 .1-1.5.1-.5-.1-.9-.3-1.1-.7-.1-.2-.2-.5-.3-.7-.1-.6-.2-1.1-.2-1.8 0-.5-.1-1 .1-1.5 0-.1 0-.2 0-.4 0-.8 0-1.6 0-2.4 0-.4 0-.9.1-1.3 0-.1 0-.3 0-.4 0-1.1 0-2.2 0-3.3 0-.2.1-.4.1-.6.1-.5.1-.9 0-1.4-.3-.1-.5-.1-.8 0-.4.1-.8.1-1.2.2-.7.1-1.4.2-2.2.4-.4.2-1.2.4-1.9.5z" opacity=".3"/><path d="m77.7 32.3c0 .1 0 .1-.1.2-.8 1.4-1.3 3-1.7 4.5-.5 1.8-.8 3.6-1 5.4-.3 2.7-.5 5.4-.4 8 .1 2 .2 3.9.6 5.9 0 .1.1.2.1.3s0 .3-.1.3c-.3.6-.7 1.1-1.1 1.7-.1-.4-.1-.7-.1-1.1-.1-.5-.1-.9-.2-1.4s-.1-1-.2-1.5c0-.3 0-.5 0-.8s0-.6-.1-.8c-.1-.1 0-.3 0-.4 0-1.3 0-2.7 0-4 0-.2.1-.4.1-.6s0-.3 0-.5c0-.5-.1-.9.1-1.4v-.1c-.1-.6.1-1.1.1-1.7.1-.7.2-1.3.3-1.9.1-.5.1-1 .2-1.4.2-1.1.5-2.2.8-3.4.2-.7.5-1.4.7-2.1.4-1.1 1-2.1 1.7-3 0-.1.2-.2.3-.2z" opacity=".3"/><path d="m90.9 31.7v.2c-.9 1.4-1.4 2.9-1.8 4.4-.4 1.6-.7 3.2-.9 4.8-.4 2.8-.5 5.6-.5 8.4.1 2.2.2 4.4.7 6.5.1.3 0 .5-.1.7-.3.4-.5.7-.8 1.1-.1-.3-.1-.5-.1-.8-.2-.7-.3-1.4-.4-2.1-.1-.8-.1-1.6-.2-2.4-.1-1.1-.1-2.1-.1-3.2 0-.2.1-.5.1-.7s0-.3 0-.5c0-.6-.1-1.1.1-1.7.1-.2 0-.4 0-.6 0-.3 0-.5.1-.8v-.1c-.1-.6.1-1.1.1-1.7 0-.4.1-.8.1-1.1.1-.6.2-1.2.3-1.8.1-.3.1-.7.2-1 .3-1.6.8-3.2 1.5-4.8.3-.7.7-1.3 1.1-2 .1-.2.3-.4.5-.6-.1-.1 0-.1.1-.2z" opacity=".3"/><path d="m49.6 34.6c0 .4.1.8.1 1.2.1.8.1 1.6.1 2.5.1 4.6.2 9.3.1 13.9 0 .6 0 1.1-.1 1.7v.3c-.4 0-.7 0-1 0 0-.7 0-1.4 0-2.1 0-2.7 0-5.5 0-8.3 0-.2-.1-.5-.1-.7s0-.3 0-.5c0-1 0-1.9 0-2.9 0-.2-.1-.4-.1-.6 0-.1 0-.3 0-.4 0-.4 0-.7 0-1.1 0-.2 0-.5-.1-.7-.1-.3-.1-.7 0-1 0-.3.2-.5.4-.7.1-.3.4-.5.7-.6z" opacity=".3"/><path d="m88.2 86.5v2.4c0 .9.2 1.7.6 2.5.7 1.3 1.7 2.1 3.1 2.3 1.9.3 3.7-.2 5.4-1.3.1-.1.3-.2.4-.2.1.1 0 .2-.1.3-.5.5-.9.9-1.5 1.3-.5.3-1.1.6-1.7.9-.6.2-1.2.4-1.9.4-.1 0-.2 0-.3 0-.2 0-.4.1-.6.1-.8-.1-1.6-.2-2.3-.6-.9-.5-1.5-1.2-1.9-2.1-.3-.6-.4-1.3-.5-2s-.1-1.4-.1-2.1c0-.4.1-.8.5-1.1.2-.2.6-.5.9-.8z" opacity=".3"/><path d="m106.9 81.6c0-.2 0-.3 0-.5 0-.4.2-.6.6-.6.3-.1.7-.1 1-.2.8-.1 1.6-.3 2.4-.4.3-.1.4 0 .5.3v.4 8.6.5c0 .4.3.6.7.6.2 0 .3 0 .5-.1.6-.1 1.2-.2 1.8-.3.2-.1.5-.1.7-.2-.3.5-.8 1-1.4 1.3-.2.1-.6.2-.9.2-.5.1-1 .2-1.5.3-.2 0-.3 0-.5 0-.3 0-.6-.2-.6-.6 0-.1 0-.3 0-.4 0-2.9 0-5.8 0-8.7 0-.1 0-.3 0-.4 0-.3-.2-.4-.5-.3-.8.1-1.6.3-2.3.4-.3 0-.4 0-.5.1z" opacity=".3"/><path d="m64.5 89.3c0-.2 0-.4 0-.6 0-.3.1-.5.4-.6.2-.1.5-.1.7-.2s.3 0 .4.2c.1.1.1.3.1.4.6 2.1 1.2 4.1 1.8 6.2.2.6.3 1.3.5 1.9 0 .1.1.3.1.4.2.3.4.5.7.5h.5c.6-.1 1.2-.3 1.8-.3.3-.1.6-.2.8-.4l.2.2c-.1.2-.2.3-.3.5-.6.5-1.1 1.1-2 1.2-.6.1-1.1.2-1.7.3-.5.1-.9-.1-1.1-.5-.1-.2-.2-.4-.2-.6-.3-1.1-.6-2.1-.9-3.2-.3-1.2-.7-2.5-1-3.7-.1-.3-.2-.6-.2-.9 0-.1-.1-.2-.1-.3 0-.4-.2-.5-.5-.5z" opacity=".3"/><path d="m37.8 42c0 .3.1.6.1.9.1 3.1.1 6.3.1 9.4v3 .5c-.2.2-.4.2-.6.3s-.4.2-.6.2c0-3.5 0-7.1 0-10.7 0-.2-.1-.5-.1-.7 0-.1 0-.2 0-.3 0-.5 0-1 0-1.5 0-.2.1-.3.2-.5.2-.2.4-.5.7-.7-.1.1.1.1.2.1z" opacity=".3"/><path d="m74.2 60.7v-.1c.3-.5.6-1 .9-1.5 0-.1.1-.1.1-.2.1.2.1.4.2.5.2.9.5 1.8.9 2.7.3.7.7 1.3 1.2 1.9 1.1 1.3 2.6 1.8 4.3 1.2.7-.2 1.3-.6 1.9-1 .1-.1.3-.2.5-.3-.1.3-.3.4-.5.6s-.5.4-.8.6c-.8.6-1.6 1-2.5 1.3-1.1.3-2.2.2-3.1-.5-.6-.4-1.1-1-1.4-1.6-.7-1.1-1.1-2.3-1.4-3.5-.2.1-.3 0-.3-.1z" opacity=".3"/><path d="m99.2 57.6c.3-.8.6-1.6.9-2.4 0 0 .1-.1.1-.1.1.1.1.3.1.5.2.9.3 1.8.6 2.7.2.5.4 1 .6 1.4.7 1.3 1.9 2 3.3 2.2.3.1.6.1.9.1.7 0 1.4-.1 2.1-.4.2-.1.4-.1.5-.2v.1c-.4.3-.7.7-1.2.9-.9.4-1.8.7-2.8.6-.9-.1-1.9-.2-2.6-.8-.6-.5-1.1-1-1.4-1.6-.5-.8-.7-1.7-1-2.6 0-.2 0-.3-.1-.4z" opacity=".3"/><path d="m103 40.4c0 .1-.1.1-.1.2-.9 1.4-1.5 3-1.9 4.7-.3 1-.5 2.1-.6 3.2-.1 1-.4 1.9-.7 2.9-.6 1.9-1.3 3.8-2.2 5.6-.3.7-.7 1.5-1.2 2.2-.2.3-.5.7-.8 1-.1.1-.2.1-.2.2-.1-.2 0-.3.1-.4.5-.8.8-1.6 1.2-2.4.7-1.6 1.3-3.2 1.8-4.8.3-1.1.6-2.1.8-3.2.2-1.2.5-2.5.8-3.6s.7-2.1 1.3-3.1c.3-.5.6-1 .9-1.5.1-.2.3-.4.5-.6.1-.3.2-.4.3-.4z" opacity=".3"/><path d="m92.6 73.1c.2-.7 1.3-1.4 2.4-1.3.4.1.6.3.8.6s.3.6.3 1c.1.4.1.8.1 1.3v.7c0 .6.2.8.8.7.5-.1.9-.2 1.4-.3.3-.1.6-.1.9-.2-.3.5-.9.9-1.4 1.2-.2.1-.5.1-.7.2-.5.1-1.1.2-1.6.3-.2 0-.3 0-.5 0s-.3-.2-.4-.4v-.1c.1-.6-.1-1.2-.1-1.8 0-.5-.2-1-.4-1.4-.2-.3-.5-.6-.9-.6-.1.1-.4.1-.7.1z" opacity=".3"/><path d="m87.7 60.3c.3-.5.6-1 .9-1.5.1 0 .1.1.2.2.3.7.6 1.3.9 2 .3.6.7 1.1 1.1 1.7.3.3.7.7 1.1.9.8.5 1.7.6 2.6.2.1-.1.3-.1.4-.2 0 .1-.1.1-.1.2-.4.3-.9.7-1.3 1-.4.2-.9.3-1.3.4-.3 0-.6-.1-.9-.2-.4-.2-.9-.4-1.2-.7s-.6-.6-.8-1c-.6-.8-1-1.7-1.4-2.6-.1-.2-.1-.3-.2-.4z" opacity=".3"/><path d="m111.3 66.4v9.1.2c0 .4-.1.6-.6.7-.2 0-.4.1-.6.1 0-2.6 0-5.2 0-7.9 0-.2 0-.3 0-.5 0-.3.1-.6.3-.8.2-.4.5-.8.9-.9z" opacity=".3"/><path d="m61.5 58.6c-.1-.6 0-1.1 0-1.7.1 0 .1-.1.1-.1.6.1 1.3.1 1.9.1.8.1 1.6-.1 2.3-.3 1.1-.4 2.2-.9 3-1.8.1-.1.1-.1.2-.1.1.1 0 .2-.1.3-.3.5-.7.8-1.1 1.2-.1.1-.2.2-.3.3-.6.6-1.4 1.1-2.2 1.4-.7.3-1.5.5-2.3.6-.2 0-.4 0-.6 0-.2.1-.5.1-.9.1z" opacity=".3"/><path d="m79.7 75.8c0-.2 0-.4 0-.6 0-.3.2-.4.4-.5.1 0 .2-.1.3-.1 1.6-.3 3.2-.6 4.8-.9.2-.1.5-.1.7-.2v.2c-.4.4-.8.8-1.3 1-.3.1-.7.1-1 .2-.7.2-1.4.3-2.1.4-.7.3-1.2.4-1.8.5z" opacity=".3"/><path d="m51.4 80.6c-.1-.7.1-.8.7-1 1.7-.3 3.5-.6 5.2-.9-.3.3-.6.6-.8.9-.1.2-.3.2-.5.2-.5.2-1 .2-1.4.3-.5.1-1 .2-1.5.3-.6 0-1.2.2-1.7.2z" opacity=".3"/><path d="m79.7 85.9c0-.1 0-.3 0-.4 0-.4.2-.6.5-.6.4-.1.7-.1 1.1-.2.9-.2 1.7-.3 2.6-.5 0 .1-.1.2-.1.3-.3.3-.6.6-.9.8-.2.1-.5.2-.8.3-.6.1-1.3.2-1.9.3-.1 0-.3 0-.5 0z" opacity=".3"/><path d="m51.4 91c-.1-.8 0-.9.8-1 1.1-.2 2.2-.3 3.2-.5.1 0 .3-.1.4-.1-.3.3-.5.6-.8.8-.2.2-.4.3-.7.3-.9.1-1.8.3-2.7.4-.1 0-.2.1-.2.1z" opacity=".3"/><path d="m59.7 48.9c0 .1-.1.2-.1.3-1 1.7-1.6 3.4-2 5.3 0 .1-.1.2-.1.3-.3 0-.6 0-.8-.1.2-.8.5-1.6.9-2.4.3-.7.6-1.3 1-1.9.2-.4.5-.7.7-1.1.1-.2.2-.4.4-.4z" opacity=".3"/><path d="m69.6 66.1c.1-.1.3-.2.4-.4 0 .2-.2.4-.4.4z" opacity=".3"/><path d="m89.8 70.8c-.1.1-.2.2-.2.3-.1-.2 0-.3.2-.3z" opacity=".3"/><path d="m103.3 40.1c-.1.1-.2.2-.2.3-.1-.2 0-.3.2-.3z" opacity=".3"/><path d="m95.4 60.3c0 .2-.1.2-.2.2 0 0 0-.2.2-.2z" opacity=".3"/><path d="m60 48.5c-.1.1-.2.2-.2.3 0-.2 0-.3.2-.3z" opacity=".3"/><path d="m113.1 105.1c-.1.2-.2.2-.4.2.1-.1.1-.1.2-.2z" opacity=".3"/><path d="m106.5 91.2c.1-.1.2-.2.2-.2 0 .1-.1.2-.2.2z" opacity=".3"/><path d="m75.8 72.3c-.1.1-.1.1-.2.2.1-.1.1-.2.2-.2z" opacity=".3"/><path d="m94.9 63.5c.1-.1.1-.1.2-.2 0 .2 0 .2-.2.2z" opacity=".3"/><path d="m31.1 59.7c-.1.1-.1.1-.1.2 0-.1 0-.2.1-.2z" opacity=".3"/><path d="m69 54.8c.1-.1.1-.1.1-.2.1.1.1.2-.1.2z" opacity=".3"/><path d="m77.8 32.1c-.1.1-.1.1-.1.2 0-.1 0-.1.1-.2z" opacity=".3"/><path d="m91.2 31.3c-.1.1-.1.1-.2.2.1-.1.1-.2.2-.2z" opacity=".3"/><path d="m85.8 73.7c.1-.1.1-.1.1-.1s0 0-.1.1z" opacity=".3"/><path d="m114.9 89.7c.1 0 .1-.1.1-.1 0 .1 0 .1-.1.1z" opacity=".3"/><path d="m89.4 71.2c0 .1 0 .1-.1.1.1 0 .1-.1.1-.1z" opacity=".3"/><path d="m89.5 71.1c0 .1-.1.1-.1.1s.1-.1.1-.1z" opacity=".3"/><path d="m69.5 66.2c.1 0 .1-.1.1-.1s-.1 0-.1.1z" opacity=".3"/><path d="m98 91.9s.1-.1.1-.1c0 .1-.1.1-.1.1z" opacity=".3"/><path d="m97.9 92.1s.1-.1.1-.1-.1 0-.1.1z" opacity=".3"/><path d="m97.8 92.1s.1-.1.1-.1c0 .1-.1.1-.1.1z" opacity=".3"/><path d="m97.7 92.2c.1 0 .1-.1.1-.1-.1.1-.1.1-.1.1z" opacity=".3"/><path d="m91.1 31.5s-.1.1-.1.1 0-.1.1-.1z" opacity=".3"/><path d="m84.1 64.1c.1-.1.1-.1.1-.2 0 .1 0 .1-.1.2z" opacity=".3"/><path d="m56.2 54.7v-.1z" opacity=".3"/><path d="m69.2 54.6c0-.1.1-.1.1-.1-.1.1-.1.1-.1.1z" opacity=".3"/><path d="m59.8 48.8c0 .1-.1.1-.1.1s0-.1.1-.1z" opacity=".3"/><path d="m91 31.6c0 .1-.1.1-.1.1s.1 0 .1-.1z" opacity=".3"/><path d="m107.7 59.8c.1-.1.1-.3.2-.4.5-1 1-2 1.3-3.1s.6-2.2.8-3.3c.1-.5.2-1 .3-1.5.1-.3.1-.6.1-.9.1-.5.1-1.1.1-1.6 0-.8 0-1.6 0-2.3 0-1-.1-2-.3-3-.2-.8-.5-1.6-1-2.3-.2-.3-.5-.5-.9-.7-.3-.1-.7-.1-1.1 0-.2.1-.4.2-.6.1.4-.6 1-1 1.7-1.2.1 0 .2-.1.3-.1.5-.1 1 0 1.4.3.3.3.6.6.7 1 .4.8.6 1.6.8 2.5.3 1.7.3 3.4.1 5.2-.2 2-.5 3.9-1 5.8-.3 1.1-.7 2.2-1.1 3.3-.3.7-.7 1.3-1.2 1.9-.1 0-.3.3-.6.3z" opacity=".3"/><path d="m78.5 52c.1-.1.1-.2.2-.3.7-1.9 1.2-3.9 1.7-5.9.2-1 .5-2 .6-3.1.1-.8.2-1.5.3-2.3.1-.6.1-1.3.2-1.9.1-.7.1-1.5.1-2.2 0-.4-.1-.9-.2-1.3s-.3-.6-.7-.7c.1-.3.3-.6.5-.8.1-.1.2-.2.4-.3.4-.2.8-.1 1 .3.1.2.2.5.2.7.1.4.1.9.1 1.3 0 1-.1 2.1-.2 3.1-.4 2.9-1 5.7-1.7 8.5-.5 1.8-1 3.6-1.8 5.3-.1.3-.2.6-.4.8h-.1s0 0 0-.1c-.1-.2-.1-.6-.2-1.1z" opacity=".3"/><path d="m91.7 51c.1-.1.1-.2.2-.3.5-1.4.9-2.8 1.3-4.2.2-.9.5-1.8.7-2.7.2-.8.3-1.7.5-2.5.1-.5.2-1 .3-1.5.1-.3.1-.6.1-.9.1-1 .2-2.1.1-3.1 0-.3-.1-.6-.2-.9-.1-.4-.3-.6-.8-.6.1-.3.3-.6.5-.8.1-.1.1-.1.2-.2.5-.4 1-.3 1.3.3.1.4.1.9.1 1.4 0 .8 0 1.7-.1 2.5-.5 3.8-1.4 7.6-2.6 11.2-.4 1.2-.8 2.3-1.3 3.3-.1.1-.1.2-.2.4-.1 0-.1-.1-.1-.1 0-.4 0-.9 0-1.3z" opacity=".3"/><path d="m65.4 54.3c.1-.2.1-.3.2-.5.4-.6.6-1.3.8-1.9.1-.3.1-.5.1-.8.1-.5.1-.9.2-1.3 0-.1 0-.1 0-.2-.1-.5-.1-.9-.2-1.3-.1-.5-.5-.8-.8-1.1-.1-.1-.3-.1-.5-.1-.1 0-.3.1-.4.1s-.2 0-.3 0c.3-.5.6-.9 1.1-1.1 1-.5 1.5-.4 1.9.6.3.6.3 1.2.3 1.8-.1.6-.1 1.3-.3 1.9-.1.5-.2.9-.4 1.3-.3.7-.7 1.4-1.2 2-.1.2-.3.3-.4.4 0 .2-.1.2-.1.2z" opacity=".3"/><path d="m106.6 40.7c-.1 0-.1.1-.1.1s0-.1.1-.1z" opacity=".3"/><path d="m107.6 59.9s.1-.1.1-.1 0 0-.1.1z" opacity=".3"/><path d="m64.5 47.3c-.1.1-.1.1-.1.1.1 0 .1-.1.1-.1z" opacity=".3"/></g><path d="m12.1 89.1c0-.1 0-.2.1-.3.3-1.1.7-2.2 1.1-3.3.6-1.5 1-3 1.1-4.6.2-2.2.2-4.3.1-6.5-.1-1.9-.1-3.8 0-5.6.1-1 .2-2.1.3-3.1.3-2.1.7-4.1 1.2-6.2.8-3.3 1.9-6.5 3.3-9.6 1.9-4.4 4.3-8.6 7.2-12.5 2.7-3.6 5.7-6.9 9-9.9 4.1-3.7 8.5-6.8 13.3-9.5 5-2.8 10.3-4.9 15.8-6.4 2.1-.6 4.2-1 6.4-1.3 1.5-.2 3-.4 4.5-.5 1.2-.1 2.4-.1 3.6-.1 1.5 0 3 .1 4.5.3 1.1.1 2.2.2 3.3.4 1.4.2 2.8.4 4.2.7 2.9.5 5.8 1.3 8.7 2.2 3.9 1.3 7.7 3 11.3 5 4.1 2.4 7.8 5.3 11.1 8.8.8.9 1.5 1.8 2.3 2.6.7.8 1.3 1.5 2.1 2.2.3.2.6.4.8.6.1.1.3.2.5.2.2.1.4-.1.5-.3 0-.2 0-.4-.1-.6-.2-.5-.3-.9-.5-1.4-.6-1.2-1.3-2.3-2.1-3.3-.5-.7-1.1-1.3-1.6-2-.1-.1-.2-.2-.2-.3-.1-.1 0-.3.1-.3.1-.1.2-.1.3-.1s.2.1.3.1c1.3.5 2.6.9 3.9 1.4 1 .4 2 .8 3 1.4 1.4.8 2.4 1.9 3.1 3.2s1.2 2.7 1.4 4.1c.2 1 .2 2.1.1 3.1-.1 1.7-.5 3.3-.7 4.9-.2 1.3-.4 2.6-.5 3.8v1.1c.2 2.6.1 5.2 0 7.9-.1 1.5-.2 2.9-.3 4.4-.2 1.7-.4 3.5-.7 5.2-.1.6-.2 1.2-.2 1.8-.1.6-.2 1.1-.3 1.7-.7 3.4-1.7 6.8-2.9 10.2-2.2 6-5.1 11.5-8.8 16.6-1.7 2.2-3.4 4.4-5.3 6.4-1 1-2.1 2-3.1 3-.1.1-.3.2-.3.4-.1 0-.1 0-.2 0-.1.1-.1.1-.2.2-.2.3-.6.5-1 .7-1.6 1-3.2 1.9-4.9 2.9-1.1.6-2.2 1.2-3.4 1.8-.8.4-1.6.8-2.5 1.2-.5.2-1 .4-1.4.7-1.1.5-2.2 1-3.4 1.5-1.5.6-3 1.2-4.5 1.7-1.3.4-2.5.9-3.8 1.2-1 .3-2 .6-3.1.9-1.2.3-2.3.6-3.5.8-.7.1-1.3.2-2 .3-.5.1-1 .2-1.5.2-.6.1-1.3.2-1.9.3s-1.1.2-1.7.1h-.1c-.4.1-.8.1-1.3.1-.1 0-.3 0-.4 0-.2 0-.5.1-.7.1-1.3 0-2.7 0-4 0-.7 0-1.4-.1-2.1-.1-.1 0-.1 0-.2 0-.2 0-.3 0-.5-.1-.5-.1-.9-.1-1.4-.1-.6-.1-1.2-.2-1.8-.3-.8-.1-1.5-.3-2.3-.4-1.4-.3-2.9-.7-4.3-1.2-.6-.2-1.1-.4-1.6-.6-1.1-.4-2.1-.8-3.1-1.3-.9-.5-1.8-.9-2.7-1.4s-1.8-1-2.6-1.6c-1.2-.8-2.3-1.6-3.5-2.5-1-.8-2-1.7-3-2.6-.1-.1-.2-.2-.3-.2-.7-.6-1.4-1.3-2-1.9-.6-.7-1.2-1.3-1.8-1.9-.2-.2-.4-.3-.7-.5-.3-.1-.6-.1-.9.2s-.5.6-.6 1-.3.8-.4 1.2c-.2.5-.4 1-.7 1.4-.2.3-.5.5-.7.8-.4.4-.9.7-1.3.9-.9.4-1.8.5-2.8.6-.4 0-.7-.1-1.1-.1-.5-.1-1-.1-1.5-.2-1.6-.3-3.1-1-4.5-1.6-1.1-.5-2.1-1.1-3-1.9-.9-.7-1.7-1.6-2.4-2.6-.7-1.1-1.3-2.3-1.7-3.5-.3-.9-.5-1.8-.6-2.7-.1-.8-.2-1.5-.2-2.3 0-.2 0-.5 0-.7 0-.6.1-1.2.1-1.8 0-.1 0-.1.1-.2.1-.4.1-.8.2-1.2.4-.6.5-1 .5-1.3zm78.9-57.5c0 .1-.1.1-.1.1-.1.1-.2.1-.3.2-.2.2-.3.4-.5.6-.4.6-.8 1.3-1.1 2-.7 1.5-1.1 3.1-1.5 4.8-.1.3-.1.7-.2 1-.1.6-.2 1.2-.3 1.8v1.2c0 .6-.2 1.1-.1 1.7v.1c-.1.2-.1.5-.1.8v.6c-.1.6-.1 1.1-.1 1.7v.5c0 .2-.1.5-.1.7 0 1.1 0 2.1.1 3.2.1.8.1 1.6.2 2.4.1.7.2 1.4.4 2.1.1.2.1.5.1.8 0 .1-.1.1-.1.2-.6.9-1.2 1.7-1.9 2.4-.5.6-1.1 1.2-1.8 1.6-.3.2-.7.4-1.1.5-.6.2-1.2 0-1.7-.5-.3-.2-.5-.5-.6-.9-.2-.4-.3-.7-.4-1.1-.3-1.1-.5-2.3-.6-3.4 0-.2 0-.3.1-.4.8-1.2 1.3-2.5 1.8-3.8 1.7-4.5 3-9.1 3.5-13.9.1-1.1.2-2.1.1-3.2-.1-.9-.1-1.9-.4-2.8-.2-.6-.4-1.1-.7-1.6-.9-1.3-2.7-1.7-4.1-.8-.4.3-.8.6-1.1 1-.2.3-.5.6-.7 1-.1 0-.1.1-.1.2-.1 0-.2.1-.3.2-.7.9-1.3 1.9-1.7 3-.2.7-.5 1.4-.7 2.1-.3 1.1-.6 2.2-.8 3.4-.1.5-.2 1-.2 1.4-.1.7-.2 1.3-.3 1.9s-.2 1.1-.1 1.7v.1c-.1.5-.1.9-.1 1.4v.5c0 .2-.1.4-.1.6v4 .4c.1.3.1.6.1.8v.8c.1.5.1 1 .2 1.5s.1.9.2 1.4c.1.4.1.7.1 1.1-.1.1-.1.2-.2.3-.4.5-.8 1.1-1.2 1.6-.8 1-1.7 2.1-2.8 2.9-.7.5-1.5 1.1-2.5 1.5-.7.3-1.3.4-2.1.3-1.1-.1-2.1-.6-2.7-1.6-.2-.4-.4-.8-.5-1.3-.2-.8-.3-1.6-.4-2.4-.1-.5-.1-1.1-.1-1.6h.9.6c.8-.1 1.5-.3 2.3-.6s1.6-.8 2.2-1.4c.1-.1.2-.2.3-.3.4-.4.8-.7 1.1-1.2.1-.1.1-.2.1-.3.1 0 .1-.1.1-.2 0-.1.1-.1.1-.1.1-.1.1-.2.1-.2.5-.6.8-1.3 1.1-2s.5-1.5.5-2.3c0-1.1 0-2.2-.3-3.3-.2-.9-.7-1.6-1.4-2.2-1-.8-2-1.1-3.2-.8-.7.2-1.3.5-1.9.8-.8.5-1.5 1.1-2.2 1.7-.5.5-1 1-1.4 1.5-.2.2-.3.5-.5.7-.2.1-.2.2-.2.3 0 .1-.1.1-.1.1-.2.1-.3.2-.5.4-.3.4-.5.7-.7 1.1-.4.6-.7 1.2-1 1.9-.3.8-.6 1.6-.9 2.4-.1 0-.2 0-.4-.1-.8 0-1.5-.1-2.3-.2 0-.2 0-.4 0-.5 0-1.3.1-2.6.1-3.9.1-2.4.1-4.8.2-7.2 0-.2 0-.4 0-.6.1-2 .1-3.9.2-5.9 0-.2 0-.3 0-.5-.1-1.3-.9-1.8-1.9-2-.9-.1-1.7.1-2.5.3-.2.1-.3.2-.3.5-.3.1-.5.3-.7.5s-.4.4-.4.7v1c.1.2.1.5.1.7v1.1.4c0 .2.1.4.1.6v2.9.5c0 .2.1.5.1.7v8.3 2.1h-.1c-2.1.1-4.1.2-6.2.6-.1 0-.2 0-.3 0 0-.4 0-.7.1-1.1.1-1.8.1-3.6.2-5.4.1-1.4.1-2.9.2-4.3 0-.3 0-.6-.1-.8-.2-.9-.6-1.5-1.5-1.7-.2-.1-.5-.1-.7-.1-.7-.1-1.5.1-2.2.2-.3.1-.4.2-.4.5-.1.1-.2.1-.3.2-.2.2-.5.5-.7.7-.1.1-.2.3-.2.5v1.5.3c0 .2.1.5.1.7v10.7c-.3.1-.6.3-1 .4-1.2.5-2.3 1.1-3.4 1.8-.5.3-1 .6-1.3 1.1-.1 0-.1.1-.1.2-.1 0-.2 0-.2.1-.3.3-.6.6-.9.9-.1.1-.2.3-.2.4-.2.5-.2 1-.1 1.5.1.3.2.7.5 1s.5.3.8.1c.6-.4 1.3-.8 1.9-1.2.2-.1.5-.3.7-.4.4-.2.7-.4 1.1-.6.5-.3 1-.6 1.5-.8.1-.1.2-.1.3-.1 0 .1.1.2.1.3v2.2.3c0 .2-.1.5-.1.7v1.7.4c-.1.3-.1.7-.1 1v2.1.4c-.2 0-.2.3-.2.7v2.3.4c-.1.4-.1.8-.1 1.1v2c0 .4.1.9-.1 1.3v.3c-.1.7 0 1.3.1 2 .1.6.2 1.2.6 1.7.2.3.5.5.9.7.5.2 1 .2 1.4.1s.8-.1 1.2-.2c.7-.1 1.4-.6 1.7-1.2.1-.1.2-.1.2-.3 0-.1 0-.2 0-.3-.2-1.4-.2-2.8-.3-4.2-.1-2.2-.1-4.4-.1-6.5 0-2.6.1-5.2.1-7.8 0-1 0-1.9 0-2.9 0-.2 0-.3 0-.5.7-.2 1.5-.3 2.2-.5.7-.1 1.4-.3 2.2-.4.4 0 .8-.1 1.2-.2.3 0 .5-.1.8 0 .1.5.1.9 0 1.4 0 .2-.1.4-.1.6v3.3.4c-.1.4-.1.9-.1 1.3v2.4.4c-.1.5-.1 1-.1 1.5 0 .6.1 1.2.2 1.8.1.2.2.5.3.7.2.4.6.7 1.1.7.5.1 1 .1 1.5-.1.4-.1.9-.2 1.3-.2.1 0 .2-.1.3-.1.3-.2.5-.4.8-.7.1-.1.1-.2.1-.2.1-.1.2-.1.4-.2 0-.2-.1-.4-.1-.6-.2-1.6-.3-3.2-.3-4.8-.1-2.4-.1-4.7-.1-7.1 0-.1 0-.3 0-.4h1.1c.3 0 .7-.1 1.1.1.1.2.1.4 0 .6 0 .2-.1.4-.1.6 0 .6.1 1.2.1 1.8v.1c.1.4.1.8.2 1.2.1.8.3 1.5.5 2.3.4 1.1.9 2.1 1.6 3 .4.5.9 1 1.5 1.3 1 .6 2 .8 3.1.9.5.1 1.1-.1 1.6-.1 1.1-.2 2.1-.7 3.1-1.3.7-.5 1.3-1 2-1.5.1-.1.2-.2.1-.3.1 0 .1-.1.1-.1.2 0 .3-.2.4-.4 0-.1.1-.1.1-.1 1.5-1.3 2.7-2.9 3.8-4.5.1-.1.2-.2.2-.3 0 .1.1.2.1.2.4 1.2.7 2.4 1.4 3.5.4.6.9 1.1 1.4 1.6.9.7 2 .8 3.1.5.9-.3 1.8-.7 2.5-1.3.3-.2.5-.4.8-.6.2-.2.4-.3.5-.6.1-.1.1-.1.1-.2.1-.1.2-.2.2-.2.9-.7 1.7-1.6 2.5-2.5.3-.3.5-.6.7-.9.1.1.1.2.2.3.3.9.8 1.8 1.4 2.6.2.3.5.7.8 1s.7.6 1.2.7c.3.1.6.2.9.2.5-.1.9-.2 1.3-.4.5-.3.9-.6 1.3-1 .1-.1.1-.1.1-.2.1 0 .2 0 .2-.2.8-.6 1.4-1.3 2-2.1.5-.7 1-1.5 1.4-2.3.2-.5.5-.9.7-1.4.1.1.1.2.2.4.2.9.5 1.8 1 2.6.3.7.9 1.2 1.4 1.6.8.6 1.7.7 2.6.8 1 .1 1.9-.2 2.8-.6.5-.2.8-.6 1.2-.9v-.1c1.4-.6 2.3-1.7 3.1-2.9.2-.4.5-.8.7-1.2 1.4-2.9 2.1-6 2.3-9.2.1-.9 0-1.8 0-2.8 0-1.2-.2-2.4-.6-3.5-.3-1-.7-2-1.3-2.9-1.3-1.7-3.8-2.5-5.9-1.6-.9.4-1.8 1-2.5 1.7-.3.3-.7.7-1 1.1-.2.1-.2.2-.2.3-.1 0-.2.1-.3.2-.2.2-.3.4-.5.6-.3.5-.7 1-.9 1.5-.5 1-.9 2.1-1.3 3.1-.4 1.2-.6 2.4-.8 3.6-.2 1.1-.4 2.2-.8 3.2-.5 1.6-1.1 3.3-1.8 4.8-.4.8-.7 1.6-1.2 2.4-.1.1-.2.2-.1.4-.2 0-.2.1-.2.2-.1.1-.2.2-.3.2-.5.2-.8.2-1.2-.2-.1-.2-.3-.3-.4-.5s-.2-.5-.3-.8c-.3-1.1-.5-2.2-.7-3.3 0-.2 0-.3.1-.5.7-1 1.2-2.1 1.7-3.2 1.8-4.1 3.1-8.3 3.8-12.7.2-1.5.3-3 .3-4.5 0-.7-.1-1.3-.2-2-.2-.8-.5-1.6-.9-2.2-.9-1.2-2.5-1.6-3.6-1.2-.8.2-1.4.7-1.9 1.3-.1.1-.2.3-.3.4-.1 0-.1.1-.2.2.7.2.7.3.7.3zm6.8 60.5s.1-.1.1-.1.1-.1.1-.1.1-.1.1-.1c.1-.1.2-.2.2-.3.7-.8 1.2-1.7 1.6-2.7.3-.9.4-1.9.4-2.8 0-1.2-.3-2.3-1-3.4-.5-.7-1.1-1.4-1.8-2-.6-.6-1.3-1.1-1.9-1.6-.7-.5-1.3-1.1-1.9-1.7-.3-.3-.6-.7-.9-1.1-.5-.8-.6-1.7-.5-2.6.1-.2.1-.5.3-.7h.9c.4 0 .7.2.9.6s.4.9.4 1.4c0 .6.2 1.2.1 1.8v.1c0 .2.2.3.4.4h.5c.5-.1 1.1-.2 1.6-.3.2-.1.5-.1.7-.2.5-.3 1-.7 1.4-1.2 0 0 .1-.1.1-.1.4-.2.6-.5.6-1 0-.8 0-1.5-.1-2.3-.1-.7-.3-1.3-.6-1.9-.6-1.3-1.7-2-3.2-2.2-.7-.1-1.4 0-2.1.1-1.7.3-3.1 1.1-4.2 2.4 0 0-.1.1-.1.1-.2.1-.2.2-.2.3 0 .1-.1.1-.1.1 0 .1-.1.1-.1.1-.1 0-.1 0-.1 0-.2.2-.5.5-.7.7-.4.5-.7 1.1-1 1.8s-.4 1.4-.5 2.1c-.1.6 0 1.1.1 1.7.2 1.4.8 2.6 1.7 3.6.8.9 1.8 1.8 2.8 2.5.8.6 1.6 1.2 2.3 1.9.4.4.7.9 1 1.4.4.9.5 1.9.2 2.8-.2.2-.5.2-.8.3-.9.1-1.7-.2-2-1.1-.1-.4-.2-.8-.2-1.2 0-.5 0-1 0-1.5 0-.1 0-.3 0-.4-.1-.3-.3-.6-.6-.6-.1 0-.3 0-.4 0-.5.1-1.1.2-1.6.3s-.9.3-1.2.7c-.3.3-.6.6-.9.9s-.5.6-.5 1.1c0 .7 0 1.4.1 2.1s.2 1.3.5 2c.4.9 1 1.6 1.9 2.1.7.4 1.5.5 2.3.6.2 0 .4 0 .6-.1h.3c.6-.1 1.3-.2 1.9-.4s1.1-.5 1.7-.9c.6-.3 1.1-.8 1.5-1.3.1-.1.2-.2.1-.3-.3.3-.3.3-.2.2zm-12-18.4c.1-.1.1-.1.1-.1.3-.3.4-.6.3-1 0-.4 0-.8 0-1.3 0-.2 0-.3 0-.5-.1-.3-.3-.6-.6-.6-.2 0-.3 0-.5.1-1.1.2-2.1.4-3.2.6-1.7.3-3.5.6-5.2.9-.3.1-.7.2-.9.5-.1 0-.2.1-.2.2-.1 0-.2 0-.2.1-.3.3-.6.6-.9.9-.1.1-.2.3-.2.5v.4 22.4.4c0 .2.1.3.1.4.2.3.5.4.8.3l1.5-.3c.7-.1 1.4-.2 2.1-.3.6-.1 1.3-.3 1.9-.4 1-.2 2.1-.4 3.1-.5.2 0 .4-.1.6-.2.4-.3.9-.5 1.2-1 0 0 .1-.1.1-.1.5-.2.7-.6.7-1.1s0-1 0-1.5c0-.1 0-.2 0-.3-.1-.5-.5-.8-1-.7-1.5.2-2.9.5-4.4.7-.4.1-.7.1-1.1.2-.3.1-.4 0-.4-.3 0-.1 0-.2 0-.4 0-1.8 0-3.5 0-5.3 0-.2 0-.3 0-.5h.5c.6-.1 1.3-.2 1.9-.3.3-.1.5-.1.8-.3s.7-.5.9-.8c.1-.1.1-.2.1-.3.3-.2.5-.4.6-.7 0-.7 0-1.4 0-2.1 0-.3-.3-.5-.6-.5-.2 0-.5 0-.7.1-1 .2-2 .3-3 .5-.3.1-.4 0-.5-.4 0-.1 0-.1 0-.2 0-1.5 0-3 0-4.6 0-.2 0-.3 0-.5.5-.1 1.1-.2 1.6-.3.7-.1 1.4-.2 2.1-.4.3-.1.7-.1 1-.2.5-.2 1-.6 1.3-1 .1-.1 0-.2 0-.2zm29.1 16c.1 0 .1-.1.1-.1.3-.3.3-.6.3-1 0-.9 0-1.8 0-2.7 0-6.5 0-13.1 0-19.6 0-.2 0-.4 0-.6-.1-.3-.3-.6-.6-.6-.1 0-.2 0-.3 0-.7.1-1.5.3-2.2.4-.5.1-.9.3-1 .8-.4.2-.6.5-.9.8-.2.2-.3.5-.3.8v.5 7.9c-.1 0-.2.1-.2.1-.9.1-1.7.3-2.6.4-.1 0-.1 0-.2 0s-.2-.1-.3-.2c0-.2 0-.3 0-.5 0-2.8 0-5.6 0-8.4 0-.2 0-.4-.1-.6s-.2-.4-.5-.4c-.1 0-.2 0-.4 0-.3 0-.6.1-.8.1-.5.1-1 .2-1.5.3-.4.1-.7.3-.8.7 0 .1-.1.1-.1.1-.7.4-1.1.9-1.1 1.7v22.5.3c.1.4.3.6.7.6.3 0 .6 0 .8-.1.3-.1.6-.1.9-.1.3-.1.7-.1 1-.3.5-.3.9-.6 1.3-1 .1-.1.1-.2.1-.3.2 0 .2-.1.2-.2.2-.3.2-.6.2-1 0-2.6 0-5.2 0-7.9 0-.2 0-.4 0-.6.1 0 .3-.1.4-.1.8-.1 1.6-.3 2.3-.4.3-.1.5.1.5.3v.4 8.7.4c0 .3.3.6.6.6h.5l1.5-.3c.3-.1.6-.1.9-.2.9-.2 1.3-.7 1.6-1.2zm-59.1-.4c.1-.1.1-.1.2-.2.2-.2.3-.4.3-.7 0-.6 0-1.3 0-1.9 0-.5-.3-.7-.7-.7-.1 0-.2 0-.3.1-1.1.2-2.2.4-3.4.6-.1 0-.2 0-.3 0-.2 0-.3-.1-.3-.2s0-.4 0-.6c0-1.5 0-3.1 0-4.6 0-.2 0-.3 0-.5.6 0 1.1-.2 1.7-.3.5-.1 1-.2 1.5-.3s.9-.1 1.3-.2c.2 0 .4-.1.5-.2.3-.3.6-.6.8-.9 0 0 .1 0 .1-.1.5-.2.7-.6.7-1.1 0-.3 0-.7 0-1s0-.5 0-.8-.1-.4-.4-.5c-.1 0-.3-.1-.4 0-.2 0-.4.1-.6.1-1.5.3-3 .5-4.5.8-1.3.2-2.5.5-3.8.7-.4.1-.7.2-1 .5-.1 0-.1.1-.2.1-.2.2-.4.4-.6.6-.3.3-.5.7-.5 1.2v22.4.4c.1.5.5.7.9.6.2 0 .4-.1.6-.1.6-.1 1.3-.3 1.9-.4.1 0 .3-.1.4-.1.3-.3.7-.5.9-.9 0 0 .1-.1.1-.1.3-.2.5-.5.5-.9 0-.1 0-.3 0-.4 0-2.7 0-5.4 0-8.1 0-.2 0-.4 0-.6.1 0 .2-.1.2-.1.9-.1 1.8-.3 2.7-.4.3-.1.5-.2.7-.3.5-.3.7-.6 1-.9zm16.7 7.5c.1-.3.1-.6-.1-.9-.2-.5-.3-.9-.4-1.3-.7-2.3-1.5-4.7-2.2-7-.2-.5-.1-.6.3-1 .1-.1.2-.1.2-.2.9-.7 1.4-1.5 1.7-2.6.1-.4.2-.7.3-1.1.2-1.8.2-3.5 0-5.3-.1-.7-.3-1.4-.6-2-.5-1-1.3-1.6-2.5-1.9-.7-.2-1.5-.2-2.2 0-1.9.3-3.9.7-5.8 1-.6.1-.9.4-1 1-.7.3-1 .7-1 1.5v22.5.5c.1.4.3.6.7.6.1 0 .1 0 .2-.1.7-.1 1.4-.2 2.1-.4.4-.1.7-.2 1-.5s.6-.6.9-.9c.2-.2.3-.3.4-.6.1-.1 0-.2-.1-.3 0-.1 0-.1 0-.2 0-2.7 0-5.4 0-8 0-.1 0-.3 0-.4.3-.1.5.1.6.4.1.1.1.2.1.3.1.3.2.6.2.9.3 1.2.7 2.5 1 3.7.3 1.1.6 2.1.9 3.2.1.2.1.4.2.6.2.4.7.6 1.1.5.6-.1 1.1-.3 1.7-.3.9-.1 1.4-.7 2-1.2.1-.1.2-.3.3-.5zm10.1-81.1c-.1 0-.2-.1-.2-.1-1-.1-2.1-.2-3.1-.2-1.9-.1-3.9-.1-5.9.1-1.2.1-2.4.2-3.6.4-1.4.2-2.9.5-4.3.8-3.4.7-6.6 1.9-9.7 3.4-2.4 1.2-4.7 2.7-6.8 4.4-.7.6-1.3 1.1-1.8 1.9-.2.2-.3.5-.4.7-.1.3 0 .6.4.6h.4c.2 0 .4-.1.6-.2.8-.2 1.5-.6 2.3-.9 1.3-.6 2.6-1.4 3.9-2.1 5.6-3.1 11.5-5.4 17.7-7 2-.5 3.9-.9 5.9-1.2 1.3-.2 2.6-.4 3.8-.5.3 0 .5-.1.8-.1zm-60.9 86.3c.6 0 1.1-.3 1.5-.8s.6-1 .5-1.6c-.1-.4-.2-.8-.4-1.1-.3-.5-.6-.9-.9-1.4s-.6-.9-1-1.2c-.2-.2-.5-.4-.8-.5s-.6-.2-.9-.2c-.9.1-1.5.6-2 1.3-.1.1-.1.2-.1.2-.3.8-.2 1.6.1 2.3.4.9 1 1.8 1.8 2.3.7.4 1.3.7 2.2.7z" fill="#fff"/><path d="m107.6 59.9c-.2.1-.3.2-.5.2-.5.1-.9 0-1.2-.4s-.6-.7-.7-1.2c-.4-1-.7-1.9-.8-3-.3-1.8-.4-3.5-.3-5.3.1-2.1.3-4.1.9-6.1.3-.9.6-1.8 1.1-2.6.1-.2.3-.5.5-.7.1 0 .1-.1.1-.1.2.1.4-.1.6-.1.4-.1.7-.1 1.1 0 .3.1.6.4.9.7.5.7.8 1.5 1 2.3.2 1 .4 2 .3 3v2.3c0 .5-.1 1.1-.1 1.6 0 .3-.1.6-.1.9-.1.5-.2 1-.3 1.5-.2 1.1-.5 2.2-.8 3.3s-.7 2.1-1.3 3.1c-.1.1-.1.3-.2.4-.1.1-.1.1-.2.2z" fill="#fff"/><path d="m78.5 52c-.1-.9-.1-1.9-.1-2.8 0-1.4 0-2.7.1-4.1.2-2.5.5-4.9 1-7.4.2-.9.5-1.8.8-2.7.1-.2.2-.4.3-.6.4.1.6.3.7.7s.2.9.2 1.3c0 .7 0 1.5-.1 2.2-.1.6-.1 1.3-.2 1.9-.1.8-.2 1.5-.3 2.3-.2 1-.4 2.1-.6 3.1-.5 2-1 3.9-1.7 5.9.1 0 0 .1-.1.2z" fill="#fff"/><path d="m91.7 51c0-.2-.1-.3-.1-.5 0-1.6 0-3.1 0-4.7 0-1.5.2-3.1.4-4.6s.5-3.1.9-4.6c.2-.6.4-1.2.6-1.8.1-.2.2-.4.3-.6.4 0 .7.3.8.6s.2.6.2.9c.1 1 0 2.1-.1 3.1 0 .3-.1.6-.1.9-.1.5-.2 1-.3 1.5-.2.8-.3 1.7-.5 2.5-.2.9-.5 1.8-.7 2.7-.3 1.4-.8 2.8-1.3 4.2 0 .2-.1.3-.1.4z" fill="#fff"/><path d="m65.4 54.3c-.1.1-.1.2-.3.3-.6.4-1.2.6-1.9.8-.5.1-1 .1-1.4-.1-.1-.2-.1-.3-.1-.5.1-.3.1-.7.2-1 .4-1.8.9-3.5 1.7-5.1.2-.5.4-.9.8-1.3.1-.1.1-.1.1-.1h.3c.1 0 .3-.1.4-.1.2 0 .3-.1.5.1.4.3.7.6.8 1.1s.1.9.2 1.3v.2c-.1.5-.1.9-.2 1.3-.1.3-.1.6-.1.8-.2.7-.4 1.3-.8 1.9-.1.1-.1.3-.2.4z" fill="#fff"/><path d="m67.1 84.6c-.4.2-.8.2-1.2.3-.3.1-.6.1-.9.1-.2 0-.3-.1-.3-.3 0-.1 0-.2 0-.3 0-1.9 0-3.9 0-5.8 0-.1 0-.2 0-.3.4-.1.8-.1 1.2-.1.7 0 1.1.3 1.3.9.2.5.3 1.1.3 1.7v1.4c-.1.9-.2 1.6-.4 2.4z" fill="#fff"/><path d="m67.1 84.6c.2-.7.3-1.5.3-2.3 0-.5 0-.9 0-1.4 0-.6-.1-1.1-.3-1.7s-.6-.9-1.3-.9c-.4 0-.8 0-1.2.1 0-.2 0-.4 0-.6 0-.3.2-.5.4-.6.6-.1 1.2-.2 1.8-.2h.3c.5.1.9.3 1.1.8.1.3.2.6.3.9.2 1 .1 2.1.1 3.1 0 .4-.1.9-.2 1.3-.2.6-.5 1.1-1.1 1.4-.1.1-.2.1-.2.1z" fill="#231f20" opacity=".3"/></svg>