<svg enable-background="new 0 0 250 40" viewBox="0 0 250 40" xmlns="http://www.w3.org/2000/svg" xmlns:xlink="http://www.w3.org/1999/xlink"><clipPath id="a"><path d="m0 .1h32.9v38.9h-32.9z"/></clipPath><clipPath id="b"><path d="m-938-2681h1920v4619h-1920z"/></clipPath><clipPath id="c"><path d="m0 0h33v40h-33z"/></clipPath><clipPath id="d"><path d="m0 .1h5.6 1.4v15.6h18.9v-15.6h.4 6.1c.4 0 .5.1.5.5v.4 37.2c0 1 0 .9-.9.9-1.8 0-3.6 0-5.4 0h-.7v-.7c0-5.1 0-10.1 0-15.2 0-.5-.2-.7-.7-.7-5.9 0-11.7 0-17.6 0-.2 0-.4 0-.6 0v16.5h-7z"/></clipPath><clipPath id="e"><path d="m0 0h33v39h-33z"/></clipPath><clipPath id="f"><path d="m94.7 14.4c.1-.1.2-.2.3-.3.7-.7 1.4-1.4 2.1-2.2.6-.7 1.4-1 2.2-1.2 4.2-.8 8.1 0 11.5 2.7 3 2.3 4.6 5.5 5.1 9.3.5 4.2-1 7.8-3.6 10.9-1.6 1.9-3.3 3.8-5.1 5.5-.5.5-1.4.7-2.1.8-3.2.6-6.2.1-8.9-1.7-.5-.4-1-.8-1.6-1.3v2.7c-.2 0-.4 0-.6 0-1.8 0-3.6 0-5.5 0-.5 0-.6-.2-.6-.6 0-12.7 0-25.5 0-38.2.1-.7.2-.8.7-.8h5.5.5v14.3c0 .1.1.1.1.1m15 11.4c0-.3 0-.7-.1-1.1-.5-3.7-2.3-6.4-5.9-7.8-3.6-1.3-7.4.3-8.8 3.6-.8 1.8-.9 3.6-.6 5.5.6 3.4 2.4 5.9 5.6 7.2 3.1 1.3 6.2.4 8.1-2 1.3-1.4 1.7-3.3 1.7-5.4"/></clipPath><clipPath id="g"><path d="m-938-2681h1920v4619h-1920z"/></clipPath><clipPath id="h"><path d="m127.7 27.6c.3 1.5.9 2.8 2 3.9 1.7 1.8 3.9 2.4 6.4 2.3s4.6-1 6.5-2.6c.1-.1.1-.1.2-.2 1.1 1.6 2.1 3.2 3.2 4.9-1 .9-2 1.7-3.2 2.2-5.3 2.6-10.6 2.6-15.8-.4-3.4-2-5.4-5.1-5.9-9-.6-4.4.9-8.1 3.9-11.3 1.7-1.8 3.4-3.6 5.2-5.3.4-.4 1-.5 1.6-.7 5-1.2 10.5.3 13.7 4.5 1.4 1.8 2.2 3.9 2.5 6.2 0 .2-.1.4-.2.6-1.5 1.6-3 3.1-4.5 4.6-.2.2-.5.3-.8.3-4.7 0-9.5 0-14.2 0zm.1-4.9h13.8c-.5-3.1-2.8-5.6-6.8-5.7-3.4-.1-6.7 2.6-7 5.7z"/></clipPath><clipPath id="i"><path d="m-938-2681h1920v4619h-1920z"/></clipPath><clipPath id="j"><path d="m231.6 39h-1.1c-1.6 0-3.2 0-4.9 0-.7 0-.7 0-.7-.7 0-8 0-16.1 0-24.1 0-1 0-2 0-3.1 0-.3.1-.5.4-.5h6c.1 0 .1 0 .2.1v3.7c.2-.2.3-.3.4-.4.8-.8 1.6-1.6 2.4-2.5.6-.7 1.3-1 2.1-1.2 3.3-.6 6.4-.3 9.2 1.6 2.4 1.7 3.6 4.1 4.1 6.9.2.9.2 1.9.2 2.8v16.6.8c-.2 0-.4 0-.5 0-1.8 0-3.6 0-5.4 0-.5 0-.6-.2-.6-.6 0-4.9 0-9.8 0-14.7 0-1.1-.1-2.2-.4-3.2-.7-2.8-2.6-4.3-5.3-4.3-2.8 0-5 1.6-5.7 4.2-.2.9-.4 1.9-.4 2.8v15.1z"/></clipPath><clipPath id="k"><path d="m-938-2681h1920v4619h-1920z"/></clipPath><clipPath id="l"><path d="m39.1 10.1h27.9v29.9h-27.9z"/></clipPath><clipPath id="m"><path d="m-938-2681h1920v4619h-1920z"/></clipPath><clipPath id="n"><path d="m38 9h30v32h-30z"/></clipPath><clipPath id="o"><path d="m53.1 40c-6.3-.1-11.8-4.1-13.5-10.1-1.4-5-.2-9.5 3.2-13.3 1.6-1.8 3.2-3.6 4.9-5.2.5-.5 1.3-.7 2.1-.9 5-1 9.5.1 13.2 3.8 3.1 3.1 4.4 6.8 3.9 11.2-.3 3.3-1.8 6-4 8.3-1.3 1.4-2.7 2.8-3.9 4.3-.7.9-1.7 1.2-2.7 1.5-1 .1-2.1.2-3.2.4m-7.7-15.9c.1 3.8 1.6 6.7 4.8 8.6 3.5 2.1 7.8.9 9.6-2.7.9-1.7 1.1-3.6.8-5.5-.5-3.4-2.2-6-5.2-7.5-3.1-1.6-6.5-.8-8.5 1.8-1.1 1.6-1.5 3.4-1.5 5.3"/></clipPath><clipPath id="p"><path d="m39 10h28v30h-28z"/></clipPath><clipPath id="q"><path d="m205.1 40c-6.1 0-11.4-3.6-13.3-9.1-1.8-5.2-.6-9.8 3.1-13.8 1.5-1.7 3.1-3.3 4.8-4.9.4-.4 1-.5 1.5-.7 7.3-2 15 1.9 17.2 9 1.4 4.4.6 8.5-2.3 12.1-1.3 1.7-2.9 3.2-4.4 4.8-.1.1-.2.2-.2.3-1 1.4-2.5 1.9-4.1 2.1-.8.1-1.6.1-2.3.2m-7.8-15v.4c.3 3.6 2.1 6.3 5.4 7.9 2.7 1.3 5.8.8 7.8-1.2 1.3-1.3 1.9-2.9 2.1-4.7.3-3.9-1-7-4.3-9.1-2.4-1.6-5-1.9-7.6-.4-2.6 1.6-3.4 4.2-3.4 7.1"/></clipPath><clipPath id="r"><path d="m-938-2681h1920v4619h-1920z"/></clipPath><clipPath id="s"><path d="m181.4 17.3v21.7h-6.4v-36h6.3v8.2h5.6v.4 5.2c0 .4-.1.5-.5.5-1.5 0-3 0-4.4 0-.1 0-.3 0-.6 0"/></clipPath><clipPath id="t"><path d="m-938-2681h1920v4619h-1920z"/></clipPath><clipPath id="u"><path d="m0 0h250v40h-250z"/></clipPath><clipPath id="v"><path d="m-938-2681h1920v4619h-1920z"/></clipPath><clipPath id="w"><path d="m73 0h98v39h-98z"/></clipPath><clipPath id="x"><path d="m73 0h7v39h-7z"/></clipPath><clipPath id="y"><path d="m0 0h250v40h-250z"/></clipPath><clipPath id="z"><path d="m154 11h6.8v3.9c.8-.7 1.5-1.4 2.2-2.1.5-.5 1-1.1 1.6-1.6.2-.1.4-.3.6-.3h4.3c.4 0 .5.1.5.5v5.1c0 .4-.1.5-.5.5-1.2 0-2.4 0-3.6.2-3 .5-5.2 3.2-5.2 6.1v14.9.8h-6.7z"/></clipPath><clipPath id="A"><path d="m0 0h250v40h-250z"/></clipPath><g clip-path="url(#a)"><g clip-path="url(#b)" enable-background="new"><g clip-path="url(#c)"><g clip-path="url(#d)"><path clip-path="url(#e)" d="m-5-4.9h42.9v48.9h-42.9z" fill="#fff"/></g></g></g></g><g clip-path="url(#f)"><path clip-path="url(#g)" d="m83-5h38v50h-38z" fill="#fff"/></g><g clip-path="url(#h)"><path clip-path="url(#i)" d="m116 6h37v39h-37z" fill="#fff"/></g><g clip-path="url(#j)"><path clip-path="url(#k)" d="m220 5h35v39h-35z" fill="#fff"/></g><g clip-path="url(#l)"><g clip-path="url(#m)" enable-background="new"><g clip-path="url(#n)"><g clip-path="url(#o)"><path clip-path="url(#p)" d="m34.1 5.1h37.9v39.9h-37.9z" fill="#fff"/></g></g></g></g><g clip-path="url(#q)"><path clip-path="url(#r)" d="m186 6h38v39h-38z" fill="#fff"/></g><g clip-path="url(#s)"><path clip-path="url(#t)" d="m170-2h22v46h-22z" fill="#fff"/></g><g clip-path="url(#u)"><g clip-path="url(#v)" enable-background="new"><g clip-path="url(#w)"><g clip-path="url(#x)"><path clip-path="url(#y)" d="m68-5h17v49h-17z" fill="#fff"/></g></g><g clip-path="url(#w)"><g clip-path="url(#z)"><path clip-path="url(#A)" d="m149 6h26v38h-26z" fill="#fff"/></g></g></g></g></svg>