<?xml version="1.0" encoding="utf-8"?>
<!-- Generator: Adobe Illustrator 23.0.4, SVG Export Plug-In . SVG Version: 6.00 Build 0)  -->
<svg version="1.1" id="Layer_1" xmlns="http://www.w3.org/2000/svg" xmlns:xlink="http://www.w3.org/1999/xlink" x="0px" y="0px"
	 viewBox="0 0 250 40" style="enable-background:new 0 0 250 40;" xml:space="preserve">
<style type="text/css">
	.st0{clip-path:url(#SVGID_2_);}
	.st1{clip-path:url(#SVGID_4_);enable-background:new    ;}
	.st2{clip-path:url(#SVGID_6_);}
	.st3{clip-path:url(#SVGID_8_);}
	.st4{clip-path:url(#SVGID_10_);fill:#FFFFFF;}
	.st5{clip-path:url(#SVGID_12_);}
	.st6{clip-path:url(#SVGID_14_);fill:#FFFFFF;}
	.st7{clip-path:url(#SVGID_16_);}
	.st8{clip-path:url(#SVGID_18_);fill:#FFFFFF;}
	.st9{clip-path:url(#SVGID_20_);}
	.st10{clip-path:url(#SVGID_22_);fill:#FFFFFF;}
	.st11{clip-path:url(#SVGID_24_);}
	.st12{clip-path:url(#SVGID_26_);enable-background:new    ;}
	.st13{clip-path:url(#SVGID_28_);}
	.st14{clip-path:url(#SVGID_30_);}
	.st15{clip-path:url(#SVGID_32_);fill:#FFFFFF;}
	.st16{clip-path:url(#SVGID_34_);}
	.st17{clip-path:url(#SVGID_36_);fill:#FFFFFF;}
	.st18{clip-path:url(#SVGID_38_);}
	.st19{clip-path:url(#SVGID_40_);fill:#FFFFFF;}
	.st20{clip-path:url(#SVGID_42_);}
	.st21{clip-path:url(#SVGID_44_);enable-background:new    ;}
	.st22{clip-path:url(#SVGID_46_);}
	.st23{clip-path:url(#SVGID_48_);}
	.st24{clip-path:url(#SVGID_50_);fill:#FFFFFF;}
	.st25{clip-path:url(#SVGID_52_);}
	.st26{clip-path:url(#SVGID_54_);fill:#FFFFFF;}
</style>
<g>
	<defs>
		<rect id="SVGID_1_" x="0" y="0.1" width="32.9" height="38.9"/>
	</defs>
	<clipPath id="SVGID_2_">
		<use xlink:href="#SVGID_1_"  style="overflow:visible;"/>
	</clipPath>
	<g class="st0">
		<defs>
			<rect id="SVGID_3_" x="-938" y="-2681" width="1920" height="4619"/>
		</defs>
		<clipPath id="SVGID_4_">
			<use xlink:href="#SVGID_3_"  style="overflow:visible;"/>
		</clipPath>
		<g class="st1">
			<g>
				<defs>
					<rect id="SVGID_5_" y="0" width="33" height="40"/>
				</defs>
				<clipPath id="SVGID_6_">
					<use xlink:href="#SVGID_5_"  style="overflow:visible;"/>
				</clipPath>
				<g class="st2">
					<defs>
						<path id="SVGID_7_" d="M0,0.1c1.9,0,3.7,0,5.6,0c0.5,0,0.9,0,1.4,0v15.6h18.9V0.1c0.2,0,0.3,0,0.4,0c2,0,4.1,0,6.1,0
							c0.4,0,0.5,0.1,0.5,0.5c0,0.1,0,0.2,0,0.4c0,12.4,0,24.8,0,37.2c0,1,0,0.9-0.9,0.9c-1.8,0-3.6,0-5.4,0h-0.7v-0.7
							c0-5.1,0-10.1,0-15.2c0-0.5-0.2-0.7-0.7-0.7c-5.9,0-11.7,0-17.6,0c-0.2,0-0.4,0-0.6,0V39H0V0.1z"/>
					</defs>
					<clipPath id="SVGID_8_">
						<use xlink:href="#SVGID_7_"  style="overflow:visible;"/>
					</clipPath>
					<g class="st3">
						<defs>
							<rect id="SVGID_9_" y="0" width="33" height="39"/>
						</defs>
						<clipPath id="SVGID_10_">
							<use xlink:href="#SVGID_9_"  style="overflow:visible;"/>
						</clipPath>
						<rect x="-5" y="-4.9" class="st4" width="42.9" height="48.9"/>
					</g>
				</g>
			</g>
		</g>
	</g>
</g>
<g>
	<defs>
		<path id="SVGID_11_" d="M94.7,14.4c0.1-0.1,0.2-0.2,0.3-0.3c0.7-0.7,1.4-1.4,2.1-2.2c0.6-0.7,1.4-1,2.2-1.2
			c4.2-0.8,8.1,0,11.5,2.7c3,2.3,4.6,5.5,5.1,9.3c0.5,4.2-1,7.8-3.6,10.9c-1.6,1.9-3.3,3.8-5.1,5.5c-0.5,0.5-1.4,0.7-2.1,0.8
			c-3.2,0.6-6.2,0.1-8.9-1.7c-0.5-0.4-1-0.8-1.6-1.3v2.7c-0.2,0-0.4,0-0.6,0c-1.8,0-3.6,0-5.5,0c-0.5,0-0.6-0.2-0.6-0.6
			c0-12.7,0-25.5,0-38.2C88,0.1,88.1,0,88.6,0c1.8,0,3.6,0,5.5,0c0.2,0,0.3,0,0.5,0v14.3C94.6,14.4,94.7,14.4,94.7,14.4 M109.7,25.8
			c0-0.3,0-0.7-0.1-1.1c-0.5-3.7-2.3-6.4-5.9-7.8c-3.6-1.3-7.4,0.3-8.8,3.6c-0.8,1.8-0.9,3.6-0.6,5.5c0.6,3.4,2.4,5.9,5.6,7.2
			c3.1,1.3,6.2,0.4,8.1-2C109.3,29.8,109.7,27.9,109.7,25.8"/>
	</defs>
	<clipPath id="SVGID_12_">
		<use xlink:href="#SVGID_11_"  style="overflow:visible;"/>
	</clipPath>
	<g class="st5">
		<defs>
			<rect id="SVGID_13_" x="-938" y="-2681" width="1920" height="4619"/>
		</defs>
		<clipPath id="SVGID_14_">
			<use xlink:href="#SVGID_13_"  style="overflow:visible;"/>
		</clipPath>
		<rect x="83" y="-5" class="st6" width="38" height="50"/>
	</g>
</g>
<g>
	<defs>
		<path id="SVGID_15_" d="M127.7,27.6c0.3,1.5,0.9,2.8,2,3.9c1.7,1.8,3.9,2.4,6.4,2.3c2.5-0.1,4.6-1,6.5-2.6
			c0.1-0.1,0.1-0.1,0.2-0.2c1.1,1.6,2.1,3.2,3.2,4.9c-1,0.9-2,1.7-3.2,2.2c-5.3,2.6-10.6,2.6-15.8-0.4c-3.4-2-5.4-5.1-5.9-9
			c-0.6-4.4,0.9-8.1,3.9-11.3c1.7-1.8,3.4-3.6,5.2-5.3c0.4-0.4,1-0.5,1.6-0.7c5-1.2,10.5,0.3,13.7,4.5c1.4,1.8,2.2,3.9,2.5,6.2
			c0,0.2-0.1,0.4-0.2,0.6c-1.5,1.6-3,3.1-4.5,4.6c-0.2,0.2-0.5,0.3-0.8,0.3c-4.7,0-9.5,0-14.2,0H127.7z M127.8,22.7h13.8
			c-0.5-3.1-2.8-5.6-6.8-5.7C131.4,16.9,128.1,19.6,127.8,22.7z"/>
	</defs>
	<clipPath id="SVGID_16_">
		<use xlink:href="#SVGID_15_"  style="overflow:visible;"/>
	</clipPath>
	<g class="st7">
		<defs>
			<rect id="SVGID_17_" x="-938" y="-2681" width="1920" height="4619"/>
		</defs>
		<clipPath id="SVGID_18_">
			<use xlink:href="#SVGID_17_"  style="overflow:visible;"/>
		</clipPath>
		<rect x="116" y="6" class="st8" width="37" height="39"/>
	</g>
</g>
<g>
	<defs>
		<path id="SVGID_19_" d="M231.6,39h-1.1c-1.6,0-3.2,0-4.9,0c-0.7,0-0.7,0-0.7-0.7c0-8,0-16.1,0-24.1c0-1,0-2,0-3.1
			c0-0.3,0.1-0.5,0.4-0.5c2,0,4,0,6,0c0.1,0,0.1,0,0.2,0.1v3.7c0.2-0.2,0.3-0.3,0.4-0.4c0.8-0.8,1.6-1.6,2.4-2.5
			c0.6-0.7,1.3-1,2.1-1.2c3.3-0.6,6.4-0.3,9.2,1.6c2.4,1.7,3.6,4.1,4.1,6.9c0.2,0.9,0.2,1.9,0.2,2.8c0,5.5,0,11.1,0,16.6V39
			c-0.2,0-0.4,0-0.5,0c-1.8,0-3.6,0-5.4,0c-0.5,0-0.6-0.2-0.6-0.6c0-4.9,0-9.8,0-14.7c0-1.1-0.1-2.2-0.4-3.2
			c-0.7-2.8-2.6-4.3-5.3-4.3c-2.8,0-5,1.6-5.7,4.2c-0.2,0.9-0.4,1.9-0.4,2.8c0,5,0,10.1,0,15.1V39z"/>
	</defs>
	<clipPath id="SVGID_20_">
		<use xlink:href="#SVGID_19_"  style="overflow:visible;"/>
	</clipPath>
	<g class="st9">
		<defs>
			<rect id="SVGID_21_" x="-938" y="-2681" width="1920" height="4619"/>
		</defs>
		<clipPath id="SVGID_22_">
			<use xlink:href="#SVGID_21_"  style="overflow:visible;"/>
		</clipPath>
		<rect x="220" y="5" class="st10" width="35" height="39"/>
	</g>
</g>
<g>
	<defs>
		<rect id="SVGID_23_" x="39.1" y="10.1" width="27.9" height="29.9"/>
	</defs>
	<clipPath id="SVGID_24_">
		<use xlink:href="#SVGID_23_"  style="overflow:visible;"/>
	</clipPath>
	<g class="st11">
		<defs>
			<rect id="SVGID_25_" x="-938" y="-2681" width="1920" height="4619"/>
		</defs>
		<clipPath id="SVGID_26_">
			<use xlink:href="#SVGID_25_"  style="overflow:visible;"/>
		</clipPath>
		<g class="st12">
			<g>
				<defs>
					<rect id="SVGID_27_" x="38" y="9" width="30" height="32"/>
				</defs>
				<clipPath id="SVGID_28_">
					<use xlink:href="#SVGID_27_"  style="overflow:visible;"/>
				</clipPath>
				<g class="st13">
					<defs>
						<path id="SVGID_29_" d="M53.1,40c-6.3-0.1-11.8-4.1-13.5-10.1c-1.4-5-0.2-9.5,3.2-13.3c1.6-1.8,3.2-3.6,4.9-5.2
							c0.5-0.5,1.3-0.7,2.1-0.9c5-1,9.5,0.1,13.2,3.8c3.1,3.1,4.4,6.8,3.9,11.2c-0.3,3.3-1.8,6-4,8.3c-1.3,1.4-2.7,2.8-3.9,4.3
							c-0.7,0.9-1.7,1.2-2.7,1.5C55.3,39.7,54.2,39.8,53.1,40 M45.4,24.1c0.1,3.8,1.6,6.7,4.8,8.6c3.5,2.1,7.8,0.9,9.6-2.7
							c0.9-1.7,1.1-3.6,0.8-5.5c-0.5-3.4-2.2-6-5.2-7.5c-3.1-1.6-6.5-0.8-8.5,1.8C45.8,20.4,45.4,22.2,45.4,24.1"/>
					</defs>
					<clipPath id="SVGID_30_">
						<use xlink:href="#SVGID_29_"  style="overflow:visible;"/>
					</clipPath>
					<g class="st14">
						<defs>
							<rect id="SVGID_31_" x="39" y="10" width="28" height="30"/>
						</defs>
						<clipPath id="SVGID_32_">
							<use xlink:href="#SVGID_31_"  style="overflow:visible;"/>
						</clipPath>
						<rect x="34.1" y="5.1" class="st15" width="37.9" height="39.9"/>
					</g>
				</g>
			</g>
		</g>
	</g>
</g>
<g>
	<defs>
		<path id="SVGID_33_" d="M205.1,40c-6.1,0-11.4-3.6-13.3-9.1c-1.8-5.2-0.6-9.8,3.1-13.8c1.5-1.7,3.1-3.3,4.8-4.9
			c0.4-0.4,1-0.5,1.5-0.7c7.3-2,15,1.9,17.2,9c1.4,4.4,0.6,8.5-2.3,12.1c-1.3,1.7-2.9,3.2-4.4,4.8c-0.1,0.1-0.2,0.2-0.2,0.3
			c-1,1.4-2.5,1.9-4.1,2.1C206.6,39.9,205.8,39.9,205.1,40 M197.3,25c0,0.1,0,0.2,0,0.4c0.3,3.6,2.1,6.3,5.4,7.9
			c2.7,1.3,5.8,0.8,7.8-1.2c1.3-1.3,1.9-2.9,2.1-4.7c0.3-3.9-1-7-4.3-9.1c-2.4-1.6-5-1.9-7.6-0.4C198.1,19.5,197.3,22.1,197.3,25"/>
	</defs>
	<clipPath id="SVGID_34_">
		<use xlink:href="#SVGID_33_"  style="overflow:visible;"/>
	</clipPath>
	<g class="st16">
		<defs>
			<rect id="SVGID_35_" x="-938" y="-2681" width="1920" height="4619"/>
		</defs>
		<clipPath id="SVGID_36_">
			<use xlink:href="#SVGID_35_"  style="overflow:visible;"/>
		</clipPath>
		<rect x="186" y="6" class="st17" width="38" height="39"/>
	</g>
</g>
<g>
	<defs>
		<path id="SVGID_37_" d="M181.4,17.3V39H175V3h6.3v8.2h5.6c0,0.2,0,0.3,0,0.4c0,1.7,0,3.4,0,5.2c0,0.4-0.1,0.5-0.5,0.5
			c-1.5,0-3,0-4.4,0C181.9,17.3,181.7,17.3,181.4,17.3"/>
	</defs>
	<clipPath id="SVGID_38_">
		<use xlink:href="#SVGID_37_"  style="overflow:visible;"/>
	</clipPath>
	<g class="st18">
		<defs>
			<rect id="SVGID_39_" x="-938" y="-2681" width="1920" height="4619"/>
		</defs>
		<clipPath id="SVGID_40_">
			<use xlink:href="#SVGID_39_"  style="overflow:visible;"/>
		</clipPath>
		<rect x="170" y="-2" class="st19" width="22" height="46"/>
	</g>
</g>
<g>
	<defs>
		<rect id="SVGID_41_" y="0" width="250" height="40"/>
	</defs>
	<clipPath id="SVGID_42_">
		<use xlink:href="#SVGID_41_"  style="overflow:visible;"/>
	</clipPath>
	<g class="st20">
		<defs>
			<rect id="SVGID_43_" x="-938" y="-2681" width="1920" height="4619"/>
		</defs>
		<clipPath id="SVGID_44_">
			<use xlink:href="#SVGID_43_"  style="overflow:visible;"/>
		</clipPath>
		<g class="st21">
			<g>
				<defs>
					<rect id="SVGID_45_" x="73" y="0" width="98" height="39"/>
				</defs>
				<clipPath id="SVGID_46_">
					<use xlink:href="#SVGID_45_"  style="overflow:visible;"/>
				</clipPath>
				<g class="st22">
					<defs>
						<rect id="SVGID_47_" x="73" y="0" width="7" height="39"/>
					</defs>
					<clipPath id="SVGID_48_">
						<use xlink:href="#SVGID_47_"  style="overflow:visible;"/>
					</clipPath>
					<g class="st23">
						<defs>
							<rect id="SVGID_49_" y="0" width="250" height="40"/>
						</defs>
						<clipPath id="SVGID_50_">
							<use xlink:href="#SVGID_49_"  style="overflow:visible;"/>
						</clipPath>
						<rect x="68" y="-5" class="st24" width="17" height="49"/>
					</g>
				</g>
				<g class="st22">
					<defs>
						<path id="SVGID_51_" d="M154,11h6.8v3.9c0.8-0.7,1.5-1.4,2.2-2.1c0.5-0.5,1-1.1,1.6-1.6c0.2-0.1,0.4-0.3,0.6-0.3
							c1.4,0,2.9,0,4.3,0c0.4,0,0.5,0.1,0.5,0.5c0,1.7,0,3.4,0,5.1c0,0.4-0.1,0.5-0.5,0.5c-1.2,0-2.4,0-3.6,0.2
							c-3,0.5-5.2,3.2-5.2,6.1c0,5,0,9.9,0,14.9V39H154V11z"/>
					</defs>
					<clipPath id="SVGID_52_">
						<use xlink:href="#SVGID_51_"  style="overflow:visible;"/>
					</clipPath>
					<g class="st25">
						<defs>
							<rect id="SVGID_53_" y="0" width="250" height="40"/>
						</defs>
						<clipPath id="SVGID_54_">
							<use xlink:href="#SVGID_53_"  style="overflow:visible;"/>
						</clipPath>
						<rect x="149" y="6" class="st26" width="26" height="38"/>
					</g>
				</g>
			</g>
		</g>
	</g>
</g>
</svg>
