<?xml version="1.0" encoding="utf-8"?>
<!-- Generator: Adobe Illustrator 23.0.4, SVG Export Plug-In . SVG Version: 6.00 Build 0)  -->
<svg version="1.1" id="Layer_1" xmlns="http://www.w3.org/2000/svg" xmlns:xlink="http://www.w3.org/1999/xlink" x="0px" y="0px"
	 viewBox="0 0 336.9 90.4" style="enable-background:new 0 0 336.9 90.4;" xml:space="preserve">
<style type="text/css">
	.st0{fill:#FFFFFF;}
</style>
<g>
	<path class="st0" d="M38,68.4c-2.9,0-4.8-1.9-4.8-4.6V43.7c0-5-2-8.5-7.7-8.5c-6.7,0-8.8,3.9-8.8,9.1v19.5c0,2.7-2.1,4.7-4.8,4.7
		c-2.7,0-4.7-1.9-4.7-4.6V9.9c0-2.7,2.1-4.8,4.7-4.8c2.7,0,4.8,2.1,4.8,4.8v21.8c1.6-2.5,5.3-5.3,11.2-5.3
		c11.9,0.1,14.8,7.7,14.8,15.4v21.9C42.7,66.5,40.6,68.4,38,68.4L38,68.4z M65.1,68.8c-11.9,0-19.2-6.8-19.2-21.2
		c0-14.3,7.3-21.2,19.2-21.2s19.4,6.8,19.4,21.2C84.4,62.1,77,68.8,65.1,68.8z M65.1,34.6c-6.3,0-9.7,4.2-9.7,13
		c0,8.7,3.4,13.1,9.7,13.1c6.4,0,9.7-4.4,9.7-13C74.8,39,71.4,34.6,65.1,34.6z M144.7,68.4c-2.8,0-4.8-1.9-4.8-4.6V43.7
		c0-5-1.9-8.5-7.7-8.5c-6.4,0-8.8,3.4-8.8,8.5v20.1c0,2.7-2.1,4.7-4.7,4.7c-2.8,0-4.7-1.9-4.7-4.6V43.7c0-5-2.1-8.5-7.7-8.5
		c-6.7,0-8.8,3.9-8.8,9.1v19.5c0,2.7-2,4.7-4.7,4.7c-2.7,0-4.8-1.9-4.8-4.6v-32c0-2.6,2.2-4.7,4.8-4.7c2.6,0,4.7,2.1,4.7,4.7
		c1.7-2.5,5.4-5.3,11.3-5.3c7.3,0,10.9,2.3,13.1,5.7c2.8-3.8,6.7-5.7,12.6-5.7c11.9,0,15.1,7.6,15.1,15.3v21.9
		C149.4,66.5,147.4,68.4,144.7,68.4L144.7,68.4z M183.9,51.1h-21.7c0,6.4,4.5,9.3,10.3,9.3c3.9,0,6.7-1.3,8.7-2.7c1-0.6,1.7-1,2.8-1
		c2.2,0,4.1,1.8,4.1,4.2c0,1.3-0.6,2.4-1.5,3.1c-1.5,1.5-6.1,4.8-14.2,4.8c-12.2,0-19.8-6.7-19.8-21.3c0-13.4,7-21,19-21
		c14.8,0,17.6,11.5,17.6,17.6C189.3,47.3,189.3,51.1,183.9,51.1L183.9,51.1z M171.8,34.7c-5.1,0-8.8,2.8-9.3,8.5h17.4
		C179.9,38.8,177.5,34.7,171.8,34.7L171.8,34.7z M288,31.9c-1.2,0-2.1,0.2-2.7,0.8c1.8,2.4,2.7,5.3,2.7,8.9c0,9.3-6.5,15-17.2,15
		c-3,0-6.1-0.6-8.3-1.4c-0.6,0.4-0.8,1.2-0.8,1.8c0,1.5,1.2,3,5.2,3h8.2c9.1,0,16.3,3,16.3,12s-8.5,13.3-19.6,13.3
		c-9.6,0-19.6-2.7-19.6-13.1c0-3.1,1.5-6.2,5.3-8.6c-2.3-1.4-4.1-3.6-4.1-7c0-2.2,1-4.4,3-6.1c-2.1-2.6-2.8-5.6-2.8-9.1
		c0-9.4,6.4-15.1,17.2-15.1c3.2,0,6.1,0.6,8.5,1.6c1.6-2.1,4.5-4.1,8.8-4.1c2.2,0,3.9,1.8,3.9,3.9C292,30.1,290.1,31.9,288,31.9
		L288,31.9z M271.9,77.3c5.3,0,10-1.6,10-5.2c0-2.8-3-4.2-6.9-4.2h-8.2c-3.4,0.6-5.1,2.5-5.1,4.5C261.6,75.7,265.2,77.3,271.9,77.3
		L271.9,77.3z M270.7,34.5c-4.8,0-7.7,3-7.7,7.1c0,3.9,2.8,7,7.7,7c4.8,0,7.7-3,7.7-7S275.6,34.5,270.7,34.5L270.7,34.5z
		 M310.5,68.8c-11.9,0-19.2-6.8-19.2-21.2c0-14.3,7.4-21.2,19.2-21.2c11.9,0,19.2,6.8,19.2,21.2C329.7,62.1,322.3,68.8,310.5,68.8z
		 M310.5,34.6c-6.4,0-9.7,4.2-9.7,13c0,8.7,3.3,13.1,9.7,13.1c6.4,0,9.7-4.4,9.7-13C320.2,39,316.8,34.6,310.5,34.6z"/>
	<path class="st0" d="M244.2,65.2l-8.3,17.6c-0.8,1.6-2.4,2.6-4.2,2.6c-1.8,0-3.4-1-4.2-2.6L219.2,65c-2.8-5.1-6.7-9.1-6.7-17.2
		c0-14.4,7.4-21.2,19.2-21.2c11.9,0,19.4,6.8,19.4,21.2c0,8.3-4,11.5-6.8,17.4H244.2z M231.5,34.6c-6.3,0-9.7,3.6-9.7,11.1
		c0,0.8,0.3,1.7,0.6,2.4c1.1,4.5,4.8,8.7,9.3,8.7c4.8,0,8.7-4.8,9.3-9.7c0.2-0.4,0.2-0.9,0.2-1.5C241.2,38.3,237.9,34.6,231.5,34.6
		L231.5,34.6z M208.5,35.6h-4.1v21.3c0,2.1,1.8,3.2,3.4,3.2c2.3,0,4.1,1.8,4.1,4.2c0,2.2-1.8,4.1-4.1,4.1c-7.9,0-12.7-5-12.7-12
		V35.6h-2c-2.2,0-4-1.8-4-3.9s1.8-3.9,4-3.9h2v-7.4c0-2.5,2.1-4.7,4.7-4.7c2.6,0,4.7,2.1,4.7,4.7v7.4h4.1c2.2,0,3.9,1.8,3.9,4
		c0,2.2-1.8,4-3.9,4L208.5,35.6z"/>
</g>
</svg>
