<svg enable-background="new 0 0 336.9 90.4" viewBox="0 0 336.9 90.4" xmlns="http://www.w3.org/2000/svg"><g fill="#fff"><path d="m38 68.4c-2.9 0-4.8-1.9-4.8-4.6v-20.1c0-5-2-8.5-7.7-8.5-6.7 0-8.8 3.9-8.8 9.1v19.5c0 2.7-2.1 4.7-4.8 4.7s-4.7-1.9-4.7-4.6v-54c0-2.7 2.1-4.8 4.7-4.8 2.7 0 4.8 2.1 4.8 4.8v21.8c1.6-2.5 5.3-5.3 11.2-5.3 11.9.1 14.8 7.7 14.8 15.4v21.9c0 2.8-2.1 4.7-4.7 4.7zm27.1.4c-11.9 0-19.2-6.8-19.2-21.2 0-14.3 7.3-21.2 19.2-21.2s19.4 6.8 19.4 21.2c-.1 14.5-7.5 21.2-19.4 21.2zm0-34.2c-6.3 0-9.7 4.2-9.7 13 0 8.7 3.4 13.1 9.7 13.1 6.4 0 9.7-4.4 9.7-13 0-8.7-3.4-13.1-9.7-13.1zm79.6 33.8c-2.8 0-4.8-1.9-4.8-4.6v-20.1c0-5-1.9-8.5-7.7-8.5-6.4 0-8.8 3.4-8.8 8.5v20.1c0 2.7-2.1 4.7-4.7 4.7-2.8 0-4.7-1.9-4.7-4.6v-20.2c0-5-2.1-8.5-7.7-8.5-6.7 0-8.8 3.9-8.8 9.1v19.5c0 2.7-2 4.7-4.7 4.7s-4.8-1.9-4.8-4.6v-32c0-2.6 2.2-4.7 4.8-4.7s4.7 2.1 4.7 4.7c1.7-2.5 5.4-5.3 11.3-5.3 7.3 0 10.9 2.3 13.1 5.7 2.8-3.8 6.7-5.7 12.6-5.7 11.9 0 15.1 7.6 15.1 15.3v21.9c-.2 2.7-2.2 4.6-4.9 4.6zm39.2-17.3h-21.7c0 6.4 4.5 9.3 10.3 9.3 3.9 0 6.7-1.3 8.7-2.7 1-.6 1.7-1 2.8-1 2.2 0 4.1 1.8 4.1 4.2 0 1.3-.6 2.4-1.5 3.1-1.5 1.5-6.1 4.8-14.2 4.8-12.2 0-19.8-6.7-19.8-21.3 0-13.4 7-21 19-21 14.8 0 17.6 11.5 17.6 17.6.1 3.2.1 7-5.3 7zm-12.1-16.4c-5.1 0-8.8 2.8-9.3 8.5h17.4c0-4.4-2.4-8.5-8.1-8.5zm116.2-2.8c-1.2 0-2.1.2-2.7.8 1.8 2.4 2.7 5.3 2.7 8.9 0 9.3-6.5 15-17.2 15-3 0-6.1-.6-8.3-1.4-.6.4-.8 1.2-.8 1.8 0 1.5 1.2 3 5.2 3h8.2c9.1 0 16.3 3 16.3 12s-8.5 13.3-19.6 13.3c-9.6 0-19.6-2.7-19.6-13.1 0-3.1 1.5-6.2 5.3-8.6-2.3-1.4-4.1-3.6-4.1-7 0-2.2 1-4.4 3-6.1-2.1-2.6-2.8-5.6-2.8-9.1 0-9.4 6.4-15.1 17.2-15.1 3.2 0 6.1.6 8.5 1.6 1.6-2.1 4.5-4.1 8.8-4.1 2.2 0 3.9 1.8 3.9 3.9 0 2.4-1.9 4.2-4 4.2zm-16.1 45.4c5.3 0 10-1.6 10-5.2 0-2.8-3-4.2-6.9-4.2h-8.2c-3.4.6-5.1 2.5-5.1 4.5-.1 3.3 3.5 4.9 10.2 4.9zm-1.2-42.8c-4.8 0-7.7 3-7.7 7.1 0 3.9 2.8 7 7.7 7 4.8 0 7.7-3 7.7-7s-2.8-7.1-7.7-7.1zm39.8 34.3c-11.9 0-19.2-6.8-19.2-21.2 0-14.3 7.4-21.2 19.2-21.2 11.9 0 19.2 6.8 19.2 21.2 0 14.5-7.4 21.2-19.2 21.2zm0-34.2c-6.4 0-9.7 4.2-9.7 13 0 8.7 3.3 13.1 9.7 13.1s9.7-4.4 9.7-13c0-8.7-3.4-13.1-9.7-13.1z"/><path d="m244.2 65.2-8.3 17.6c-.8 1.6-2.4 2.6-4.2 2.6s-3.4-1-4.2-2.6l-8.3-17.8c-2.8-5.1-6.7-9.1-6.7-17.2 0-14.4 7.4-21.2 19.2-21.2 11.9 0 19.4 6.8 19.4 21.2 0 8.3-4 11.5-6.8 17.4zm-12.7-30.6c-6.3 0-9.7 3.6-9.7 11.1 0 .8.3 1.7.6 2.4 1.1 4.5 4.8 8.7 9.3 8.7 4.8 0 8.7-4.8 9.3-9.7.2-.4.2-.9.2-1.5 0-7.3-3.3-11-9.7-11zm-23 1h-4.1v21.3c0 2.1 1.8 3.2 3.4 3.2 2.3 0 4.1 1.8 4.1 4.2 0 2.2-1.8 4.1-4.1 4.1-7.9 0-12.7-5-12.7-12v-20.8h-2c-2.2 0-4-1.8-4-3.9s1.8-3.9 4-3.9h2v-7.4c0-2.5 2.1-4.7 4.7-4.7s4.7 2.1 4.7 4.7v7.4h4.1c2.2 0 3.9 1.8 3.9 4s-1.8 4-3.9 4z"/></g></svg>