<?xml version="1.0" encoding="utf-8"?>
<!-- Generator: Adobe Illustrator 23.0.4, SVG Export Plug-In . SVG Version: 6.00 Build 0)  -->
<svg version="1.1" id="Layer_1" xmlns="http://www.w3.org/2000/svg" xmlns:xlink="http://www.w3.org/1999/xlink" x="0px" y="0px"
	 viewBox="0 0 289.3 80" style="enable-background:new 0 0 289.3 80;" xml:space="preserve">
<style type="text/css">
	.st0{fill:#FFFFFF;}
</style>
<g>
	<g id="Layer_1-2">
		<path class="st0" d="M15,59.8c3.1,3.1,7.2,4.8,11.6,4.7c4.3,0,8.5-1.7,11.6-4.7c3.1-3,4.8-7.2,4.8-11.6V15.5h-8.3v32.7
			c0,2.2-0.8,4.3-2.4,5.8c-1.5,1.5-3.6,2.4-5.7,2.3c-2.2,0-4.2-0.8-5.7-2.4L15,59.8L15,59.8z"/>
		<path class="st0" d="M96,15.5h-8.2v28.6c0,3.3-1.3,6.4-3.7,8.6c-2.2,2.4-5.4,3.7-8.6,3.6c-3.3,0-6.4-1.3-8.7-3.6
			c-2.3-2.3-3.6-5.4-3.5-8.6V15.5h-8.1v28.6c0,11.3,9.2,20.4,20.4,20.4c5.4,0,10.5-2.1,14.3-5.9c3.9-3.8,6.1-9,6-14.5V15.5z"/>
		<polygon class="st0" points="108.3,64.5 116.4,64.5 116.4,35.2 149.1,64.5 149.1,64.4 149.1,64.5 149.1,15.5 140.9,15.5 
			140.9,44.8 108.3,15.5 108.3,64.5 		"/>
		<polygon class="st0" points="161.3,64.5 169.5,64.5 169.5,15.5 161.3,15.5 161.3,64.5 		"/>
		<polygon class="st0" points="241.7,15.5 241.7,64.5 274.4,64.5 274.4,56.3 249.9,56.3 249.9,44.1 274.4,44.1 274.4,36 249.9,36 
			249.9,23.7 274.4,23.7 274.4,15.5 241.7,15.5 		"/>
		<path class="st0" d="M188.1,22.7c-4.7,4.5-7.3,10.8-7.2,17.3c-0.1,6.5,2.5,12.8,7.2,17.3c4.5,4.7,10.8,7.3,17.3,7.2
			c5.1,0,10.1-1.6,14.2-4.5l4.5,4.5l5.9-5.8l-4.6-4.5c3-4.1,4.6-9.1,4.6-14.2c0.1-6.5-2.5-12.8-7.3-17.3c-9.5-9.5-24.9-9.6-34.5-0.1
			C188.2,22.6,188.1,22.7,188.1,22.7L188.1,22.7z M216.9,28.5c3.1,3,4.8,7.2,4.8,11.5c0.1,4.4-1.7,8.5-4.8,11.6
			c-3,3.1-7.2,4.8-11.5,4.7c-8.9,0.1-16.2-7.1-16.3-16c0-0.1,0-0.2,0-0.3c0-9,7.2-16.3,16.2-16.3c0,0,0.1,0,0.1,0
			C209.7,23.6,213.9,25.4,216.9,28.5L216.9,28.5z"/>
	</g>
</g>
</svg>
