<svg enable-background="new 0 0 289.3 80" viewBox="0 0 289.3 80" xmlns="http://www.w3.org/2000/svg"><g fill="#fff"><path d="m15 59.8c3.1 3.1 7.2 4.8 11.6 4.7 4.3 0 8.5-1.7 11.6-4.7s4.8-7.2 4.8-11.6v-32.7h-8.3v32.7c0 2.2-.8 4.3-2.4 5.8-1.5 1.5-3.6 2.4-5.7 2.3-2.2 0-4.2-.8-5.7-2.4z"/><path d="m96 15.5h-8.2v28.6c0 3.3-1.3 6.4-3.7 8.6-2.2 2.4-5.4 3.7-8.6 3.6-3.3 0-6.4-1.3-8.7-3.6s-3.6-5.4-3.5-8.6v-28.6h-8.1v28.6c0 11.3 9.2 20.4 20.4 20.4 5.4 0 10.5-2.1 14.3-5.9 3.9-3.8 6.1-9 6-14.5v-28.6z"/><path d="m108.3 64.5h8.1v-29.3l32.7 29.3v-.1.1-49h-8.2v29.3l-32.6-29.3z"/><path d="m161.3 64.5h8.2v-49h-8.2z"/><path d="m241.7 15.5v49h32.7v-8.2h-24.5v-12.2h24.5v-8.1h-24.5v-12.3h24.5v-8.2z"/><path d="m188.1 22.7c-4.7 4.5-7.3 10.8-7.2 17.3-.1 6.5 2.5 12.8 7.2 17.3 4.5 4.7 10.8 7.3 17.3 7.2 5.1 0 10.1-1.6 14.2-4.5l4.5 4.5 5.9-5.8-4.6-4.5c3-4.1 4.6-9.1 4.6-14.2.1-6.5-2.5-12.8-7.3-17.3-9.5-9.5-24.9-9.6-34.5-.1 0 0-.1.1-.1.1zm28.8 5.8c3.1 3 4.8 7.2 4.8 11.5.1 4.4-1.7 8.5-4.8 11.6-3 3.1-7.2 4.8-11.5 4.7-8.9.1-16.2-7.1-16.3-16 0-.1 0-.2 0-.3 0-9 7.2-16.3 16.2-16.3h.1c4.3-.1 8.5 1.7 11.5 4.8z"/></g></svg>