<?xml version="1.0" encoding="utf-8"?>
<!-- Generator: Adobe Illustrator 23.0.4, SVG Export Plug-In . SVG Version: 6.00 Build 0)  -->
<svg version="1.1" id="Layer_1" xmlns="http://www.w3.org/2000/svg" xmlns:xlink="http://www.w3.org/1999/xlink" x="0px" y="0px"
	 viewBox="0 0 187.1 85.6" style="enable-background:new 0 0 187.1 85.6;" xml:space="preserve">
<style type="text/css">
	.st0{clip-path:url(#SVGID_2_);}
	.st1{clip-path:url(#SVGID_4_);fill:#FEFEFE;}
	.st2{clip-path:url(#SVGID_6_);}
	.st3{clip-path:url(#SVGID_8_);enable-background:new    ;}
	.st4{clip-path:url(#SVGID_10_);}
	.st5{clip-path:url(#SVGID_12_);}
	.st6{clip-path:url(#SVGID_14_);fill:#FEFEFE;}
	.st7{clip-path:url(#SVGID_16_);}
	.st8{clip-path:url(#SVGID_18_);fill:#FEFEFE;}
	.st9{clip-path:url(#SVGID_20_);}
	.st10{clip-path:url(#SVGID_22_);fill:#FEFEFE;}
	.st11{clip-path:url(#SVGID_24_);}
	.st12{clip-path:url(#SVGID_26_);fill:#FEFEFE;}
	.st13{clip-path:url(#SVGID_28_);}
	.st14{clip-path:url(#SVGID_30_);fill:#FEFEFE;}
	.st15{clip-path:url(#SVGID_32_);}
	.st16{clip-path:url(#SVGID_34_);fill:#FEFEFE;}
	.st17{clip-path:url(#SVGID_36_);}
	.st18{clip-path:url(#SVGID_38_);fill:#FEFEFE;}
	.st19{clip-path:url(#SVGID_40_);}
	.st20{clip-path:url(#SVGID_42_);fill:#FEFEFE;}
	.st21{clip-path:url(#SVGID_44_);}
	.st22{clip-path:url(#SVGID_46_);fill:#FEFEFE;}
	.st23{clip-path:url(#SVGID_48_);}
	.st24{clip-path:url(#SVGID_50_);fill:#FEFEFE;}
	.st25{clip-path:url(#SVGID_52_);}
	.st26{clip-path:url(#SVGID_54_);fill:#FEFEFE;}
	.st27{clip-path:url(#SVGID_56_);}
	.st28{clip-path:url(#SVGID_58_);fill:#FEFEFE;}
	.st29{clip-path:url(#SVGID_60_);}
	.st30{clip-path:url(#SVGID_62_);fill:#FEFEFE;}
	.st31{clip-path:url(#SVGID_64_);}
	.st32{clip-path:url(#SVGID_66_);fill:#FEFEFE;}
	.st33{clip-path:url(#SVGID_68_);}
	.st34{clip-path:url(#SVGID_70_);fill:#FEFEFE;}
	.st35{clip-path:url(#SVGID_72_);}
	.st36{clip-path:url(#SVGID_74_);fill:#FEFEFE;}
	.st37{clip-path:url(#SVGID_76_);}
	.st38{clip-path:url(#SVGID_78_);fill:#FEFEFE;}
	.st39{clip-path:url(#SVGID_80_);}
	.st40{clip-path:url(#SVGID_82_);fill:#FEFEFE;}
	.st41{clip-path:url(#SVGID_84_);}
	.st42{clip-path:url(#SVGID_86_);fill:#FEFEFE;}
	.st43{clip-path:url(#SVGID_88_);}
	.st44{clip-path:url(#SVGID_90_);fill:#FEFEFE;}
	.st45{clip-path:url(#SVGID_92_);}
	.st46{clip-path:url(#SVGID_94_);fill:#FEFEFE;}
	.st47{clip-path:url(#SVGID_96_);}
	.st48{clip-path:url(#SVGID_98_);fill:#FEFEFE;}
</style>
<g>
	<g>
		<defs>
			<path id="SVGID_1_" d="M66.2,68.6c0,0-0.2-0.4-0.2-0.5c-0.1-0.2-0.1-0.6,0-0.7c0-0.1,0-0.1-0.1-0.2c0,0,0-0.3,0-0.4
				c0-0.1-0.2-0.5-0.2-0.6c0-0.1,0-0.3,0-0.4c0-0.1,0-0.1-0.1-0.2l-0.9-2.8l-0.4-1.3c0-0.1-0.6-1.1-0.7-1.2c-0.7-2-2.8-5.4-4.9-6.7
				c-0.1,0-0.7-0.7-0.7-0.8c-0.1-0.1-0.5-0.3-0.5-0.3c-0.2-0.2-0.3-0.4-0.5-0.4c-0.1,0-0.1,0-0.1,0.1c-0.1,0.1-0.7,1.6-0.8,1.8
				c-0.1,0.2-0.3,0.4-0.3,0.5c-0.1,0.2-0.1,0.5-0.2,0.7c-0.6,2.5-5.3,10.4-6.5,12.7l-4.4,8.3c-0.8,1.3-0.7,0-1-0.2
				c-0.4-0.2-0.3,0.1-0.5,0.3c-0.3,0.2-1,0.3-1.2,0.3c0,0-0.5,0.3-0.6,0.3c-0.1,0-0.3,0-0.3-0.1c0-0.1,0.1-0.3,0.1-0.4
				c0-0.1,0-0.2-0.1-0.2c-0.1-0.1-0.1,0-0.3,0.1c-0.2,0.1-0.2,0-0.3-0.2c-0.1-0.2-1.6-0.5-1.8-0.4c-0.2,0.1-0.6,0.4-0.7,0.2
				c-0.1-0.1,0-0.3-0.1-0.4c0-0.1-0.1-0.2-0.3-0.2c-0.3,0-0.5,0.1-0.5,0c-0.1-0.2,0-0.3-0.1-0.3c0,0-0.4-0.1-0.4-0.2
				c-0.1-0.1-0.1-0.2-0.3-0.3c0,0-0.1,0-0.1,0c-0.3,0-0.5,0.1-0.6,0C35.1,74.2,35,74,35,73.7c-0.1-0.2-0.1-0.8-0.1-0.8
				c0,0-0.1-0.1-0.1-0.1c-0.1,0-0.3,0.1-0.4,0.1c-0.2,0.1-5.7,3.2-5.9,3.3c-0.6,0.4-0.8,0.6-0.9,1.3c-0.2,1.9,0.7,7.3,3.3,8
				c0.3,0.1,0.6,0,0.9-0.1L57.1,73c0.9-0.4,8.3-3.9,8.5-4C65.7,68.9,66.2,68.7,66.2,68.6 M21.3,63C21.3,63,21.3,63.1,21.3,63
				C21.3,63.1,21.3,63.1,21.3,63c-0.2,0.1-14.5,7.7-15.7,8.3L0.9,74c-0.6,0.3-0.9,0.9-0.9,1.5c-0.1,1.9,1,4.6,2.3,6.3
				c0.3,0.5,1.1,1.4,1.8,1.6c0.3,0.1,0.6,0,0.9-0.1c0.1,0,14.7-6.9,16.6-7.8c4.8-2.1,8.8-3.9,13.6-5.9c0.3-0.1,0.3-0.1,0.4-0.4
				c0.1-0.3,0.2-0.8,0.2-1c0-0.1,0.2-0.5,0.4-0.7c0.1-0.2,0.5-1.3,0.7-1.8c0.1-0.2,0.2-0.4,0.2-0.6c0.1-0.3,0.2-0.9,0.3-1.1l5.2-13
				l2.5-6.1c0.4-1.2,0.3-1.5,1-2.7c0.1-0.2,0.9-2.7,0.9-2.9c0.1-0.4,0.4-0.8,0-0.9c-0.2,0-0.5,0.1-0.7,0.1c-0.5,0.2-0.9,0.3-1.3,0.5
				C31.3,45.5,19.8,51.2,6.5,58.5c-0.9,0.5-1.7,1-2.6,1.5c-0.6,0.4-1,1-0.9,1.7C3.2,64,3.7,66,4.8,68c0.4,0.7,0.9,0.6,1.7,0.4
				c0.2,0,3.8-1.5,5.1-2l9.5-3.4C21.2,63.1,21.3,63,21.3,63 M71.3,47c0,0.2,0.4,0.6,0.5,0.7c0.3,0.3,0.8,0.8,1,0.9
				c1.4,1.6,2.3,3.2,3,5.3c0,0,15.2-0.2,15.3-0.3c7.4-2.5,13.7-4.4,21.3-6.3c0.3-0.1,0.6-0.2,0.7-0.5c1.1-2.5-0.1-7.6-1.4-9.8
				c-0.4-0.6-0.8-0.6-1.6-0.4C108.6,37,99.3,39,97,39.6c-8.3,2-15.3,3.9-23.5,6.6C72.9,46.3,71.3,46.8,71.3,47 M58.2,34.4
				c-0.1,0.2,0.1,0.3,0.2,0.4c0.1,0.1,2.2,1.5,2.4,1.6c0.1,0.1,0.3,0.2,0.4,0.4c0.6,0.7,0.6,0.9,1.2,1.3c0.6,0.4,0.3,0.2,0.9,0.9
				c0.2,0.2,1,0.9,1.2,1.1c0.2,0.3,0.2,0.3,0.5,0.4c0.1,0,3.9,3.8,3.9,3.9c0.3,0.4,0.7,1.2,1.1,1.1c0.1,0,9.6-4.6,10.1-4.9
				c2.4-1.1,4.4-2.1,6.9-3.2c3.9-1.7,11.2-5,11.9-5.3c0.7-0.3,1-0.5,1-1.2c-0.1-1.9-2.4-7.7-4.3-8.9c-0.5-0.3-1-0.1-1.6,0.1
				C89,23.6,58.6,33.2,58.2,34.4 M89.1,18.1l0.4-1.1c0,0,0-0.1,0-0.1c0-0.2-0.1-0.2-0.2-0.4c-0.1-0.1-0.1-0.6-0.1-0.7
				c0-0.1,0-0.1-0.1-0.2c-0.2-0.2-0.5-0.4-0.6-0.6c0-0.1-0.1-1.1-0.1-1.1c0-0.1-0.2-0.2-0.2-0.3c0,0,0-0.1-0.1-0.1
				c0-0.1-0.1-0.4-0.1-0.4c0,0-0.1-0.1-0.2-0.1c0,0,0-0.1,0-0.2c0-0.2,0.1-0.4-0.1-0.5c-0.2-0.2-0.3-0.2-0.4-0.4
				c-0.2-0.5-1-0.8-1.6-0.7c-0.1,0-0.7,0.3-1,0.3c-0.2,0-0.4,0.1-0.7,0.1c-0.6,0-0.6,0-1.3,0.3c-0.2,0.1-5.4,1.5-6.2,1.8
				C54.8,20,37.1,27.4,17.3,38.5c-0.3,0.2-0.9,0.6-1.1,0.8c-0.2,0.3-0.3,0.5-0.5,0.7c-0.1,0.1-0.3,0.1-0.5,0.2
				c-0.1,0-0.7,0.5-0.7,0.6c0,0.1-0.1,0.3,0,0.4c0,0,0.1,0.1,0.1,0.1c0.1,0,0.2,0,0.3,0.1c0.1,0,0.2,0.1,0.3,0.1
				c0.2,0.1,0.3,0,0.4,0.1c0.1,0.1,0.2,0.6,0.4,0.7c0.1,0.1,0.3,0.1,0.4,0.2c0,0,0,0,0,0c0,0.1,0.2,1.2,0.2,1.4
				c0,0.1-0.1,0.7,0.1,0.8c0.1,0.1,0.5,0,0.6,0c0.6-0.2,0.6-0.4,1.4-1l1.9-1.1c0.1-0.1,0.4-0.2,0.4-0.2c0-0.1,0.1-0.1,0.1-0.2
				c0.1-0.2,0.3-0.2,0.6-0.3c0.3-0.1,0.3,0,0.5,0.2c0.6,0.4,1,0.7,1.7,0.2c0.3-0.2,0.5-0.3,0.9-0.5c20.4-9.7,38.5-16.1,60.5-21.3
				c0.4-0.1,3.7-0.9,3.8-0.9c0.5-0.3,0.4-0.8,0.2-1.4C89.1,18.2,89.1,18.2,89.1,18.1 M46.2,10.3c0,1.9,0.8,5.2,2.6,6.4
				c0.2,0.1,0.4,0.2,0.5,0.4c0.2,0.2,0.1,0.3,0.3,0.4c0.3,0.1,0.4,0,1,0c0.1,0,0.5,0.1,0.7,0c0.2,0,0.3-0.2,0.5-0.1
				c0.1,0.1,0.1,0.1,0.1,0.2c0.1,0.2,0.7,0.2,0.9,0.2c0.6-0.1,1.1-0.2,1.4-0.7c0.1-0.1,0.5-0.8,0.9-0.9c0.2-0.1,0.3-0.1,0.4-0.1
				c0.2-0.2,0.4-0.6,0.5-0.7c0.1-0.1,0.6-0.5,0.9-0.8c1.5-1.4,3.4-5.6,3-8c-0.1-0.5-0.5-2.2-0.7-2.6c-0.1-0.2-0.3-0.4-0.4-0.6
				c0-0.1,0-0.1,0-0.2c-0.3-1-2-3.1-3-3.1c-0.1,0-0.2,0-0.3,0C55.4,0.2,55,0,54.9,0c-0.1,0-0.6,0-0.6,0.1c-0.4,0.2-0.7,0.3-1.1,0.4
				c-0.2,0-0.3,0-0.4,0.1c-0.1,0.1-0.2,0.2-0.4,0.3c-0.1,0-0.4,0.2-0.6,0.2C50.1,2,48.1,4.3,47.4,6C47.2,6.6,46.2,9.8,46.2,10.3"/>
		</defs>
		<clipPath id="SVGID_2_">
			<use xlink:href="#SVGID_1_"  style="overflow:visible;"/>
		</clipPath>
		<g class="st0">
			<defs>
				<rect id="SVGID_3_" x="-715" y="-2508" width="1920" height="4619"/>
			</defs>
			<clipPath id="SVGID_4_">
				<use xlink:href="#SVGID_3_"  style="overflow:visible;"/>
			</clipPath>
			<rect x="-5" y="-5" class="st1" width="123.5" height="95.6"/>
		</g>
	</g>
	<g>
		<defs>
			<rect id="SVGID_5_" x="178.4" y="71.6" width="8.7" height="12.3"/>
		</defs>
		<clipPath id="SVGID_6_">
			<use xlink:href="#SVGID_5_"  style="overflow:visible;"/>
		</clipPath>
		<g class="st2">
			<defs>
				<rect id="SVGID_7_" x="-715" y="-2508" width="1920" height="4619"/>
			</defs>
			<clipPath id="SVGID_8_">
				<use xlink:href="#SVGID_7_"  style="overflow:visible;"/>
			</clipPath>
			<g class="st3">
				<g>
					<defs>
						<rect id="SVGID_9_" x="178" y="71" width="10" height="13"/>
					</defs>
					<clipPath id="SVGID_10_">
						<use xlink:href="#SVGID_9_"  style="overflow:visible;"/>
					</clipPath>
					<g class="st4">
						<defs>
							<path id="SVGID_11_" d="M184.7,73.4c0.6,0,1.3,0.2,2,0.6l0.4-2.1c-0.8-0.2-1.6-0.3-2.4-0.3c-2.2,0-3.6,1.1-4,2.9
								c-0.3,1.2,0,2,0.8,3l1.7,2.2c0.3,0.4,0.4,0.8,0.3,1.1c-0.2,0.7-0.9,1.2-1.9,1.2c-0.7,0-1.6-0.3-2.7-1l-0.4,2.3
								c0.5,0.4,1.5,0.6,2.8,0.6c2.2,0,3.8-1.3,4.3-3.1c0.3-1.1,0-2-0.8-3l-1.8-2.4c-0.2-0.2-0.2-0.5-0.1-0.8
								C182.9,73.9,183.6,73.4,184.7,73.4"/>
						</defs>
						<clipPath id="SVGID_12_">
							<use xlink:href="#SVGID_11_"  style="overflow:visible;"/>
						</clipPath>
						<g class="st5">
							<defs>
								<rect id="SVGID_13_" x="178" y="71" width="10" height="13"/>
							</defs>
							<clipPath id="SVGID_14_">
								<use xlink:href="#SVGID_13_"  style="overflow:visible;"/>
							</clipPath>
							<rect x="173.4" y="66.6" class="st6" width="18.7" height="22.3"/>
						</g>
					</g>
				</g>
			</g>
		</g>
	</g>
	<g>
		<defs>
			<path id="SVGID_15_" d="M173.1,79.7l0.4-1.2h3.3c0.5,0,0.9,0,1.4,0.1l0.6-2.2c-0.6,0.1-1.1,0.1-1.7,0.1h-3l0.3-1.1
				c0.2-0.6,0.3-1,0.5-1.3h3.4c0.2,0,0.8,0,1.7,0.1l0.6-2.2h-7.3c-1.3,4.9-2.4,8.9-3.4,11.8h7.3l0.7-2.3c-1.1,0.1-2.4,0.2-3.8,0.2
				c-0.5,0-1,0-1.4,0l0.1-0.2C172.8,80.6,172.9,80.2,173.1,79.7"/>
		</defs>
		<clipPath id="SVGID_16_">
			<use xlink:href="#SVGID_15_"  style="overflow:visible;"/>
		</clipPath>
		<g class="st7">
			<defs>
				<rect id="SVGID_17_" x="-715" y="-2508" width="1920" height="4619"/>
			</defs>
			<clipPath id="SVGID_18_">
				<use xlink:href="#SVGID_17_"  style="overflow:visible;"/>
			</clipPath>
			<rect x="164.8" y="66.8" class="st8" width="20.8" height="21.8"/>
		</g>
	</g>
	<g>
		<defs>
			<path id="SVGID_19_" d="M171.1,75c0.3-1.4,0.1-2.4-0.5-2.8c-0.4-0.3-1-0.3-1.8-0.3h-4.4c-1.3,5.1-2.5,9.1-3.4,11.8h2.3
				c0.6-2.1,0.9-3.3,1-3.6l1.3-4.6c0.2-0.6,0.4-1.2,0.6-1.7c0.5,0,0.9-0.1,1.3-0.1c1.4,0,1.9,0.2,1.6,1.4c-0.3,1.2-1.2,1.8-2.7,1.8
				c-0.3,0-0.6,0-0.8-0.1l0.7,6.7h2.3c-0.3-1.8-0.5-3.5-0.7-5.2C169.6,77.7,170.7,76.6,171.1,75"/>
		</defs>
		<clipPath id="SVGID_20_">
			<use xlink:href="#SVGID_19_"  style="overflow:visible;"/>
		</clipPath>
		<g class="st9">
			<defs>
				<rect id="SVGID_21_" x="-715" y="-2508" width="1920" height="4619"/>
			</defs>
			<clipPath id="SVGID_22_">
				<use xlink:href="#SVGID_21_"  style="overflow:visible;"/>
			</clipPath>
			<rect x="156" y="66.8" class="st10" width="20.3" height="21.8"/>
		</g>
	</g>
	<g>
		<defs>
			<path id="SVGID_23_" d="M155.6,79.7l0.4-1.2h3.3c0.5,0,0.9,0,1.4,0.1l0.6-2.2c-0.6,0.1-1.1,0.1-1.7,0.1h-3l0.3-1.1
				c0.2-0.6,0.3-1,0.5-1.3h3.4c0.2,0,0.8,0,1.7,0.1l0.6-2.2h-7.3c-1.3,4.9-2.4,8.9-3.4,11.8h7.3l0.7-2.3c-1.1,0.1-2.4,0.2-3.8,0.2
				c-0.5,0-1,0-1.4,0l0.1-0.2C155.3,80.6,155.5,80.2,155.6,79.7"/>
		</defs>
		<clipPath id="SVGID_24_">
			<use xlink:href="#SVGID_23_"  style="overflow:visible;"/>
		</clipPath>
		<g class="st11">
			<defs>
				<rect id="SVGID_25_" x="-715" y="-2508" width="1920" height="4619"/>
			</defs>
			<clipPath id="SVGID_26_">
				<use xlink:href="#SVGID_25_"  style="overflow:visible;"/>
			</clipPath>
			<rect x="147.3" y="66.8" class="st12" width="20.8" height="21.8"/>
		</g>
	</g>
	<g>
		<defs>
			<path id="SVGID_27_" d="M154,71.8h-2.3c-1.3,5.2-2.5,9.1-3.4,11.8h2.3c0.2-0.7,0.3-1.3,0.4-1.7c0.1-0.4,0.2-0.6,0.2-0.9l2-6.7
				C153.4,73.5,153.7,72.7,154,71.8"/>
		</defs>
		<clipPath id="SVGID_28_">
			<use xlink:href="#SVGID_27_"  style="overflow:visible;"/>
		</clipPath>
		<g class="st13">
			<defs>
				<rect id="SVGID_29_" x="-715" y="-2508" width="1920" height="4619"/>
			</defs>
			<clipPath id="SVGID_30_">
				<use xlink:href="#SVGID_29_"  style="overflow:visible;"/>
			</clipPath>
			<rect x="143.3" y="66.8" class="st14" width="15.7" height="21.8"/>
		</g>
	</g>
	<g>
		<defs>
			<path id="SVGID_31_" d="M150.8,71.8h-7.9l-0.6,2c0.8-0.1,1.5-0.1,2.2-0.1c0.2,0,0.5,0,0.7,0c-0.9,3.4-1.9,6.7-3,9.9h2.3
				c0.1-0.3,0.2-0.7,0.2-1.1c0.2-0.7,0.4-1.6,0.7-2.5l1.8-6.3c0.3,0,0.6,0,0.9,0c0.7,0,1.3,0,2,0.1L150.8,71.8z"/>
		</defs>
		<clipPath id="SVGID_32_">
			<use xlink:href="#SVGID_31_"  style="overflow:visible;"/>
		</clipPath>
		<g class="st15">
			<defs>
				<rect id="SVGID_33_" x="-715" y="-2508" width="1920" height="4619"/>
			</defs>
			<clipPath id="SVGID_34_">
				<use xlink:href="#SVGID_33_"  style="overflow:visible;"/>
			</clipPath>
			<rect x="137.2" y="66.8" class="st16" width="18.6" height="21.8"/>
		</g>
	</g>
	<g>
		<defs>
			<path id="SVGID_35_" d="M139.9,72.5c-0.2,0.7-0.4,1.4-0.6,2.1l-2,7.1l-1.2-9.9h-3.3c-1.5,5.4-2.6,9.4-3.5,11.8h2
				c0.3-1.1,0.6-2.3,1-3.7l1.8-6.3l0.8,6.7c0.1,1.2,0.3,2.2,0.3,3.3h3.4c0.1-0.5,0.2-0.9,0.3-1.3c0.1-0.5,0.3-1,0.4-1.3l1.9-6.7
				c0.2-0.8,0.5-1.6,0.8-2.5h-2C140,72.1,139.9,72.3,139.9,72.5"/>
		</defs>
		<clipPath id="SVGID_36_">
			<use xlink:href="#SVGID_35_"  style="overflow:visible;"/>
		</clipPath>
		<g class="st17">
			<defs>
				<rect id="SVGID_37_" x="-715" y="-2508" width="1920" height="4619"/>
			</defs>
			<clipPath id="SVGID_38_">
				<use xlink:href="#SVGID_37_"  style="overflow:visible;"/>
			</clipPath>
			<rect x="124.3" y="66.8" class="st18" width="22.8" height="21.8"/>
		</g>
	</g>
	<g>
		<defs>
			<path id="SVGID_39_" d="M125.5,71.6c-3.5,0-6.2,2.4-7.2,6.4c-0.9,3.8,0.5,5.9,4.2,5.9c3.5,0,6.2-2.4,7.2-6.4
				C130.6,73.7,129.1,71.6,125.5,71.6 M127.4,77.5c-0.7,2.8-2.3,4.3-4.5,4.3c-2.1,0-2.9-1.4-2.3-3.8c0.7-2.8,2.3-4.3,4.4-4.3
				C127.2,73.7,128,75,127.4,77.5"/>
		</defs>
		<clipPath id="SVGID_40_">
			<use xlink:href="#SVGID_39_"  style="overflow:visible;"/>
		</clipPath>
		<g class="st19">
			<defs>
				<rect id="SVGID_41_" x="-715" y="-2508" width="1920" height="4619"/>
			</defs>
			<clipPath id="SVGID_42_">
				<use xlink:href="#SVGID_41_"  style="overflow:visible;"/>
			</clipPath>
			<rect x="113" y="66.6" class="st20" width="21.9" height="22.3"/>
		</g>
	</g>
	<g>
		<defs>
			<path id="SVGID_43_" d="M118.3,75c0.3-1.4,0.1-2.4-0.5-2.8c-0.4-0.3-1-0.3-1.8-0.3h-4.4c-1.3,5.1-2.5,9.1-3.4,11.8h2.3
				c0.6-2.1,0.9-3.3,1-3.6l1.3-4.6c0.2-0.6,0.4-1.2,0.6-1.7c0.5,0,0.9-0.1,1.3-0.1c1.4,0,1.9,0.2,1.6,1.4c-0.3,1.2-1.2,1.8-2.7,1.8
				c-0.3,0-0.6,0-0.8-0.1l0.7,6.7h2.3c-0.3-1.8-0.5-3.5-0.7-5.2C116.8,77.7,117.9,76.6,118.3,75"/>
		</defs>
		<clipPath id="SVGID_44_">
			<use xlink:href="#SVGID_43_"  style="overflow:visible;"/>
		</clipPath>
		<g class="st21">
			<defs>
				<rect id="SVGID_45_" x="-715" y="-2508" width="1920" height="4619"/>
			</defs>
			<clipPath id="SVGID_46_">
				<use xlink:href="#SVGID_45_"  style="overflow:visible;"/>
			</clipPath>
			<rect x="103.1" y="66.8" class="st22" width="20.3" height="21.8"/>
		</g>
	</g>
	<g>
		<defs>
			<path id="SVGID_47_" d="M106.9,76.4h-2.4l0.3-1.1c0.2-0.6,0.3-1,0.5-1.3h2.8c0.2,0,0.8,0,1.7,0.1l0.6-2.2h-6.8
				c-1.3,4.9-2.4,8.9-3.4,11.8h2.3c0.1-0.4,0.2-0.9,0.3-1.3c0.2-0.9,0.5-1.8,0.7-2.6l0.4-1.2h2.7c0.5,0,0.9,0,1.4,0.1l0.6-2.2
				C108.1,76.4,107.6,76.4,106.9,76.4"/>
		</defs>
		<clipPath id="SVGID_48_">
			<use xlink:href="#SVGID_47_"  style="overflow:visible;"/>
		</clipPath>
		<g class="st23">
			<defs>
				<rect id="SVGID_49_" x="-715" y="-2508" width="1920" height="4619"/>
			</defs>
			<clipPath id="SVGID_50_">
				<use xlink:href="#SVGID_49_"  style="overflow:visible;"/>
			</clipPath>
			<rect x="95.2" y="66.8" class="st24" width="20.2" height="21.8"/>
		</g>
	</g>
	<g>
		<defs>
			<path id="SVGID_51_" d="M76.6,71.8h-3c-0.3,0.6-0.6,1.1-0.8,1.4l-6.6,10.3h2.3c0.3-0.7,0.6-1.3,1-1.8l1.8-2.9h3.4l0.2,3.3
				c0,0.2,0,0.7-0.1,1.4h2.4l-0.5-9.8C76.6,73.2,76.6,72.5,76.6,71.8z M72.3,77l2.2-3.6l0.2,3.6H72.3z"/>
		</defs>
		<clipPath id="SVGID_52_">
			<use xlink:href="#SVGID_51_"  style="overflow:visible;"/>
		</clipPath>
		<g class="st25">
			<defs>
				<rect id="SVGID_53_" x="-715" y="-2508" width="1920" height="4619"/>
			</defs>
			<clipPath id="SVGID_54_">
				<use xlink:href="#SVGID_53_"  style="overflow:visible;"/>
			</clipPath>
			<rect x="61.2" y="66.8" class="st26" width="21" height="21.8"/>
		</g>
	</g>
	<g>
		<defs>
			<path id="SVGID_55_" d="M90.3,71.8h-2c-0.1,0.2-0.1,0.5-0.2,0.7c-0.2,0.7-0.4,1.4-0.6,2.1l-2,7.1l-1.2-9.9H81
				c-1.5,5.4-2.6,9.4-3.5,11.8h2c0.3-1.1,0.6-2.3,1-3.7l1.8-6.3l0.8,6.7c0.1,1.2,0.3,2.2,0.3,3.3h3.4c0.1-0.5,0.2-0.9,0.3-1.3
				c0.1-0.6,0.3-1,0.4-1.3l1.9-6.7C89.7,73.5,90,72.7,90.3,71.8"/>
		</defs>
		<clipPath id="SVGID_56_">
			<use xlink:href="#SVGID_55_"  style="overflow:visible;"/>
		</clipPath>
		<g class="st27">
			<defs>
				<rect id="SVGID_57_" x="-715" y="-2508" width="1920" height="4619"/>
			</defs>
			<clipPath id="SVGID_58_">
				<use xlink:href="#SVGID_57_"  style="overflow:visible;"/>
			</clipPath>
			<rect x="72.5" y="66.8" class="st28" width="22.8" height="21.8"/>
		</g>
	</g>
	<g>
		<defs>
			<path id="SVGID_59_" d="M90.8,74.5c-0.3,1.2,0,2,0.8,3l1.7,2.2c0.3,0.4,0.4,0.8,0.3,1.1c-0.2,0.7-0.9,1.2-1.9,1.2
				c-0.7,0-1.6-0.3-2.7-1l-0.4,2.3c0.5,0.4,1.5,0.6,2.8,0.6c2.2,0,3.8-1.3,4.3-3.1c0.3-1.1,0-2-0.8-3L93,75.4
				c-0.2-0.2-0.2-0.5-0.1-0.8c0.2-0.7,0.9-1.2,2-1.2c0.6,0,1.3,0.2,2,0.6l0.4-2.1c-0.8-0.2-1.6-0.3-2.4-0.3
				C92.7,71.6,91.3,72.7,90.8,74.5"/>
		</defs>
		<clipPath id="SVGID_60_">
			<use xlink:href="#SVGID_59_"  style="overflow:visible;"/>
		</clipPath>
		<g class="st29">
			<defs>
				<rect id="SVGID_61_" x="-715" y="-2508" width="1920" height="4619"/>
			</defs>
			<clipPath id="SVGID_62_">
				<use xlink:href="#SVGID_61_"  style="overflow:visible;"/>
			</clipPath>
			<rect x="83.5" y="66.6" class="st30" width="18.7" height="22.3"/>
		</g>
	</g>
	<g>
		<defs>
			<path id="SVGID_63_" d="M67.2,80.7c0.3-1.1,0-2-0.8-3l-1.8-2.4c-0.2-0.2-0.2-0.5-0.1-0.8c0.2-0.7,0.9-1.2,2-1.2
				c0.6,0,1.3,0.2,2,0.6l0.4-2.1c-0.8-0.2-1.6-0.3-2.4-0.3c-2.2,0-3.6,1.1-4,2.9c-0.3,1.2,0,2,0.8,3l1.7,2.2
				c0.3,0.4,0.4,0.8,0.3,1.1c-0.2,0.7-0.9,1.2-1.9,1.2c-0.7,0-1.6-0.3-2.7-1l-0.4,2.3c0.5,0.4,1.5,0.6,2.8,0.6
				C65.2,83.9,66.8,82.6,67.2,80.7"/>
		</defs>
		<clipPath id="SVGID_64_">
			<use xlink:href="#SVGID_63_"  style="overflow:visible;"/>
		</clipPath>
		<g class="st31">
			<defs>
				<rect id="SVGID_65_" x="-715" y="-2508" width="1920" height="4619"/>
			</defs>
			<clipPath id="SVGID_66_">
				<use xlink:href="#SVGID_65_"  style="overflow:visible;"/>
			</clipPath>
			<rect x="55.2" y="66.6" class="st32" width="18.7" height="22.3"/>
		</g>
	</g>
	<g>
		<defs>
			<path id="SVGID_67_" d="M76.6,65.4l2.2-6.8l-0.5,8.7c0,0.4-0.1,0.8-0.1,1.3h2.6c0.2-0.5,0.5-1,0.7-1.4l4.3-8.2
				c-0.1,0.7-0.3,1.3-0.4,1.8l-0.2,1l-1.3,4.8c-0.2,0.6-0.3,1.2-0.6,2h2.1c0.2-0.8,0.3-1.4,0.4-1.9c0.1-0.3,0.1-0.5,0.2-0.7l1.9-6.8
				c0.1-0.5,0.3-1.3,0.7-2.5h-3.3c-0.3,0.6-0.5,1.1-0.7,1.5L80.3,66l0.5-8.2c0-0.1,0-0.5,0.1-1.2h-3.4c-1.5,5.2-2.8,9.2-3.8,11.9h2
				C76.1,67.2,76.4,66.1,76.6,65.4"/>
		</defs>
		<clipPath id="SVGID_68_">
			<use xlink:href="#SVGID_67_"  style="overflow:visible;"/>
		</clipPath>
		<g class="st33">
			<defs>
				<rect id="SVGID_69_" x="-715" y="-2508" width="1920" height="4619"/>
			</defs>
			<clipPath id="SVGID_70_">
				<use xlink:href="#SVGID_69_"  style="overflow:visible;"/>
			</clipPath>
			<rect x="68.7" y="51.7" class="st34" width="24.8" height="21.9"/>
		</g>
	</g>
	<g>
		<defs>
			<path id="SVGID_71_" d="M113.9,68.6l0.7-2.3c-1.1,0.1-2.4,0.2-3.8,0.2c-0.5,0-1,0-1.4,0l0.1-0.3c0.1-0.5,0.3-1,0.4-1.5l0.4-1.2
				h3.3c0.5,0,0.9,0,1.4,0.1l0.6-2.2c-0.6,0.1-1.1,0.1-1.7,0.1h-3l0.3-1.1c0.2-0.6,0.3-1,0.5-1.3h3.4c0.2,0,0.8,0,1.7,0.1l0.6-2.2
				h-7.4c-1.3,5-2.4,9-3.4,11.9H113.9z"/>
		</defs>
		<clipPath id="SVGID_72_">
			<use xlink:href="#SVGID_71_"  style="overflow:visible;"/>
		</clipPath>
		<g class="st35">
			<defs>
				<rect id="SVGID_73_" x="-715" y="-2508" width="1920" height="4619"/>
			</defs>
			<clipPath id="SVGID_74_">
				<use xlink:href="#SVGID_73_"  style="overflow:visible;"/>
			</clipPath>
			<rect x="101.5" y="51.7" class="st36" width="20.8" height="21.9"/>
		</g>
	</g>
	<g>
		<defs>
			<path id="SVGID_75_" d="M127.1,68.6c0.2-0.7,0.3-1.3,0.4-1.7c0.1-0.4,0.2-0.6,0.2-0.9l2-6.8c0.2-0.8,0.5-1.6,0.8-2.5h-2.3
				c-1.3,5.2-2.5,9.2-3.4,11.9H127.1z"/>
		</defs>
		<clipPath id="SVGID_76_">
			<use xlink:href="#SVGID_75_"  style="overflow:visible;"/>
		</clipPath>
		<g class="st37">
			<defs>
				<rect id="SVGID_77_" x="-715" y="-2508" width="1920" height="4619"/>
			</defs>
			<clipPath id="SVGID_78_">
				<use xlink:href="#SVGID_77_"  style="overflow:visible;"/>
			</clipPath>
			<rect x="119.7" y="51.7" class="st38" width="15.8" height="21.9"/>
		</g>
	</g>
	<g>
		<defs>
			<path id="SVGID_79_" d="M130.9,68.6c0.3-1.1,0.6-2.3,1-3.7l1.8-6.3l0.8,6.7c0.1,1.2,0.3,2.2,0.3,3.3h3.5c0.1-0.5,0.2-0.9,0.3-1.3
				c0.1-0.6,0.3-1,0.4-1.3l1.9-6.8c0.2-0.8,0.5-1.6,0.8-2.5h-2.1c-0.1,0.2-0.1,0.5-0.2,0.7c-0.2,0.8-0.4,1.4-0.6,2.1l-2,7.2l-1.2-10
				h-3.3c-1.5,5.5-2.6,9.5-3.5,11.9H130.9z"/>
		</defs>
		<clipPath id="SVGID_80_">
			<use xlink:href="#SVGID_79_"  style="overflow:visible;"/>
		</clipPath>
		<g class="st39">
			<defs>
				<rect id="SVGID_81_" x="-715" y="-2508" width="1920" height="4619"/>
			</defs>
			<clipPath id="SVGID_82_">
				<use xlink:href="#SVGID_81_"  style="overflow:visible;"/>
			</clipPath>
			<rect x="123.8" y="51.7" class="st40" width="22.8" height="21.9"/>
		</g>
	</g>
	<g>
		<defs>
			<path id="SVGID_83_" d="M94.3,68.6l0.7-2.3c-1.1,0.1-2.4,0.2-3.8,0.2c-0.5,0-1,0-1.4,0l0.1-0.3c0.1-0.5,0.3-1,0.4-1.5l0.4-1.2
				h3.3c0.5,0,0.9,0,1.4,0.1l0.6-2.2c-0.6,0.1-1.1,0.1-1.7,0.1h-3l0.3-1.1c0.2-0.6,0.3-1,0.5-1.3h3.4c0.2,0,0.8,0,1.7,0.1l0.6-2.2
				h-7.4c-1.3,5-2.4,9-3.4,11.9H94.3z"/>
		</defs>
		<clipPath id="SVGID_84_">
			<use xlink:href="#SVGID_83_"  style="overflow:visible;"/>
		</clipPath>
		<g class="st41">
			<defs>
				<rect id="SVGID_85_" x="-715" y="-2508" width="1920" height="4619"/>
			</defs>
			<clipPath id="SVGID_86_">
				<use xlink:href="#SVGID_85_"  style="overflow:visible;"/>
			</clipPath>
			<rect x="82" y="51.7" class="st42" width="20.8" height="21.9"/>
		</g>
	</g>
	<g>
		<defs>
			<path id="SVGID_87_" d="M144.6,64.6c0.3,0.4,0.4,0.8,0.3,1.1c-0.2,0.7-0.9,1.2-1.9,1.2c-0.7,0-1.6-0.3-2.7-1l-0.4,2.3
				c0.5,0.4,1.5,0.6,2.8,0.6c2.2,0,3.8-1.3,4.3-3.1c0.3-1.1,0-2-0.8-3l-1.8-2.4c-0.2-0.2-0.2-0.5-0.1-0.8c0.2-0.7,0.9-1.2,2-1.2
				c0.6,0,1.3,0.2,2,0.6l0.4-2.1c-0.8-0.2-1.6-0.3-2.4-0.3c-2.2,0-3.6,1.1-4,2.9c-0.3,1.2,0,2,0.8,3L144.6,64.6z"/>
		</defs>
		<clipPath id="SVGID_88_">
			<use xlink:href="#SVGID_87_"  style="overflow:visible;"/>
		</clipPath>
		<g class="st43">
			<defs>
				<rect id="SVGID_89_" x="-715" y="-2508" width="1920" height="4619"/>
			</defs>
			<clipPath id="SVGID_90_">
				<use xlink:href="#SVGID_89_"  style="overflow:visible;"/>
			</clipPath>
			<rect x="134.9" y="51.5" class="st44" width="18.7" height="22.4"/>
		</g>
	</g>
	<g>
		<defs>
			<path id="SVGID_91_" d="M120.5,68.8c0.9,0,1.8-0.1,2.7-0.3l0.8-2.5c-1,0.3-1.8,0.4-2.6,0.4c-2.4,0-3.4-1.4-2.7-3.9
				c0.7-2.7,2.4-4.2,4.7-4.2c1,0,1.9,0.2,2.6,0.5l0.5-2.3c-1-0.2-1.7-0.3-2.4-0.3c-3.9,0-6.6,2.3-7.6,6.5
				C115.6,66.7,116.9,68.8,120.5,68.8"/>
		</defs>
		<clipPath id="SVGID_92_">
			<use xlink:href="#SVGID_91_"  style="overflow:visible;"/>
		</clipPath>
		<g class="st45">
			<defs>
				<rect id="SVGID_93_" x="-715" y="-2508" width="1920" height="4619"/>
			</defs>
			<clipPath id="SVGID_94_">
				<use xlink:href="#SVGID_93_"  style="overflow:visible;"/>
			</clipPath>
			<rect x="111.2" y="51.4" class="st46" width="20.2" height="22.4"/>
		</g>
	</g>
	<g>
		<defs>
			<path id="SVGID_95_" d="M106.9,62.2c0.5-2.1,0.3-3.7-0.5-4.6c-0.7-0.8-1.6-0.8-2.9-0.8H99c-1.3,5.2-2.5,9.1-3.4,11.9h4.5
				C103.4,68.6,106,66.1,106.9,62.2 M102.5,65.8c-1,0.7-1.8,0.7-2.9,0.7h-1.1l0.2-0.7c0.2-0.6,0.3-1.2,0.5-1.8l1.5-5.2h1.8
				c1,0,1.7,0,2.1,0.5c0.4,0.6,0.5,1.6,0.1,3C104.3,63.8,103.5,65,102.5,65.8"/>
		</defs>
		<clipPath id="SVGID_96_">
			<use xlink:href="#SVGID_95_"  style="overflow:visible;"/>
		</clipPath>
		<g class="st47">
			<defs>
				<rect id="SVGID_97_" x="-715" y="-2508" width="1920" height="4619"/>
			</defs>
			<clipPath id="SVGID_98_">
				<use xlink:href="#SVGID_97_"  style="overflow:visible;"/>
			</clipPath>
			<rect x="90.6" y="51.7" class="st48" width="21.6" height="21.9"/>
		</g>
	</g>
</g>
</svg>
