<svg enable-background="new 0 0 187.1 85.6" viewBox="0 0 187.1 85.6" xmlns="http://www.w3.org/2000/svg" xmlns:xlink="http://www.w3.org/1999/xlink"><clipPath id="a"><path d="m66.2 68.6s-.2-.4-.2-.5c-.1-.2-.1-.6 0-.7 0-.1 0-.1-.1-.2 0 0 0-.3 0-.4s-.2-.5-.2-.6 0-.3 0-.4 0-.1-.1-.2l-.9-2.8-.4-1.3c0-.1-.6-1.1-.7-1.2-.7-2-2.8-5.4-4.9-6.7-.1 0-.7-.7-.7-.8-.1-.1-.5-.3-.5-.3-.2-.2-.3-.4-.5-.4-.1 0-.1 0-.1.1-.1.1-.7 1.6-.8 1.8s-.3.4-.3.5c-.1.2-.1.5-.2.7-.6 2.5-5.3 10.4-6.5 12.7l-4.4 8.3c-.8 1.3-.7 0-1-.2-.4-.2-.3.1-.5.3-.3.2-1 .3-1.2.3 0 0-.5.3-.6.3s-.3 0-.3-.1.1-.3.1-.4 0-.2-.1-.2c-.1-.1-.1 0-.3.1s-.2 0-.3-.2-1.6-.5-1.8-.4-.6.4-.7.2c-.1-.1 0-.3-.1-.4 0-.1-.1-.2-.3-.2-.3 0-.5.1-.5 0-.1-.2 0-.3-.1-.3 0 0-.4-.1-.4-.2-.1-.1-.1-.2-.3-.3h-.1c-.3 0-.5.1-.6 0-.5-.3-.6-.5-.6-.8-.1-.2-.1-.8-.1-.8s-.1-.1-.1-.1c-.1 0-.3.1-.4.1-.2.1-5.7 3.2-5.9 3.3-.6.4-.8.6-.9 1.3-.2 1.9.7 7.3 3.3 8 .3.1.6 0 .9-.1l25.3-12.4c.9-.4 8.3-3.9 8.5-4 .1-.1.6-.3.6-.4m-44.9-5.6s0 .1 0 0c0 .1 0 .1 0 0-.2.1-14.5 7.7-15.7 8.3l-4.7 2.7c-.6.3-.9.9-.9 1.5-.1 1.9 1 4.6 2.3 6.3.3.5 1.1 1.4 1.8 1.6.3.1.6 0 .9-.1.1 0 14.7-6.9 16.6-7.8 4.8-2.1 8.8-3.9 13.6-5.9.3-.1.3-.1.4-.4s.2-.8.2-1c0-.1.2-.5.4-.7.1-.2.5-1.3.7-1.8.1-.2.2-.4.2-.6.1-.3.2-.9.3-1.1l5.2-13 2.5-6.1c.4-1.2.3-1.5 1-2.7.1-.2.9-2.7.9-2.9.1-.4.4-.8 0-.9-.2 0-.5.1-.7.1-.5.2-.9.3-1.3.5-13.7 6.5-25.2 12.2-38.5 19.5-.9.5-1.7 1-2.6 1.5-.6.4-1 1-.9 1.7.2 2.3.7 4.3 1.8 6.3.4.7.9.6 1.7.4.2 0 3.8-1.5 5.1-2l9.5-3.4c.1.1.2 0 .2 0m50-16c0 .2.4.6.5.7.3.3.8.8 1 .9 1.4 1.6 2.3 3.2 3 5.3 0 0 15.2-.2 15.3-.3 7.4-2.5 13.7-4.4 21.3-6.3.3-.1.6-.2.7-.5 1.1-2.5-.1-7.6-1.4-9.8-.4-.6-.8-.6-1.6-.4-1.5.4-10.8 2.4-13.1 3-8.3 2-15.3 3.9-23.5 6.6-.6.1-2.2.6-2.2.8m-13.1-12.6c-.1.2.1.3.2.4s2.2 1.5 2.4 1.6c.1.1.3.2.4.4.6.7.6.9 1.2 1.3s.3.2.9.9c.2.2 1 .9 1.2 1.1.2.3.2.3.5.4.1 0 3.9 3.8 3.9 3.9.3.4.7 1.2 1.1 1.1.1 0 9.6-4.6 10.1-4.9 2.4-1.1 4.4-2.1 6.9-3.2 3.9-1.7 11.2-5 11.9-5.3s1-.5 1-1.2c-.1-1.9-2.4-7.7-4.3-8.9-.5-.3-1-.1-1.6.1-5 1.5-35.4 11.1-35.8 12.3m30.9-16.3.4-1.1v-.1c0-.2-.1-.2-.2-.4-.1-.1-.1-.6-.1-.7s0-.1-.1-.2c-.2-.2-.5-.4-.6-.6 0-.1-.1-1.1-.1-1.1 0-.1-.2-.2-.2-.3 0 0 0-.1-.1-.1 0-.1-.1-.4-.1-.4s-.1-.1-.2-.1c0 0 0-.1 0-.2 0-.2.1-.4-.1-.5-.2-.2-.3-.2-.4-.4-.2-.5-1-.8-1.6-.7-.1 0-.7.3-1 .3-.2 0-.4.1-.7.1-.6 0-.6 0-1.3.3-.2.1-5.4 1.5-6.2 1.8-21.7 6.3-39.4 13.7-59.2 24.8-.3.2-.9.6-1.1.8-.2.3-.3.5-.5.7-.1.1-.3.1-.5.2-.1 0-.7.5-.7.6s-.1.3 0 .4c0 0 .1.1.1.1.1 0 .2 0 .3.1.1 0 .2.1.3.1.2.1.3 0 .4.1s.2.6.4.7c.1.1.3.1.4.2 0 .1.2 1.2.2 1.4 0 .1-.1.7.1.8.1.1.5 0 .6 0 .6-.2.6-.4 1.4-1l1.9-1.1c.1-.1.4-.2.4-.2 0-.1.1-.1.1-.2.1-.2.3-.2.6-.3s.3 0 .5.2c.6.4 1 .7 1.7.2.3-.2.5-.3.9-.5 20.4-9.7 38.5-16.1 60.5-21.3.4-.1 3.7-.9 3.8-.9.5-.3.4-.8.2-1.4-.2 0-.2 0-.2-.1m-42.9-7.8c0 1.9.8 5.2 2.6 6.4.2.1.4.2.5.4.2.2.1.3.3.4.3.1.4 0 1 0 .1 0 .5.1.7 0 .2 0 .3-.2.5-.1.1.1.1.1.1.2.1.2.7.2.9.2.6-.1 1.1-.2 1.4-.7.1-.1.5-.8.9-.9.2-.1.3-.1.4-.1.2-.2.4-.6.5-.7s.6-.5.9-.8c1.5-1.4 3.4-5.6 3-8-.1-.5-.5-2.2-.7-2.6-.1-.2-.3-.4-.4-.6 0-.1 0-.1 0-.2-.3-1-2-3.1-3-3.1-.1 0-.2 0-.3 0-.1.1-.5-.1-.6-.1s-.6 0-.6.1c-.4.2-.7.3-1.1.4-.2 0-.3 0-.4.1s-.2.2-.4.3c-.1 0-.4.2-.6.2-1.7.9-3.7 3.2-4.4 4.9-.2.6-1.2 3.8-1.2 4.3"/></clipPath><clipPath id="b"><path d="m-715-2508h1920v4619h-1920z"/></clipPath><clipPath id="c"><path d="m178.4 71.6h8.7v12.3h-8.7z"/></clipPath><clipPath id="d"><path d="m-715-2508h1920v4619h-1920z"/></clipPath><clipPath id="e"><path d="m178 71h10v13h-10z"/></clipPath><clipPath id="f"><path d="m184.7 73.4c.6 0 1.3.2 2 .6l.4-2.1c-.8-.2-1.6-.3-2.4-.3-2.2 0-3.6 1.1-4 2.9-.3 1.2 0 2 .8 3l1.7 2.2c.3.4.4.8.3 1.1-.2.7-.9 1.2-1.9 1.2-.7 0-1.6-.3-2.7-1l-.4 2.3c.5.4 1.5.6 2.8.6 2.2 0 3.8-1.3 4.3-3.1.3-1.1 0-2-.8-3l-1.8-2.4c-.2-.2-.2-.5-.1-.8 0-.7.7-1.2 1.8-1.2"/></clipPath><clipPath id="g"><path d="m178 71h10v13h-10z"/></clipPath><clipPath id="h"><path d="m173.1 79.7.4-1.2h3.3c.5 0 .9 0 1.4.1l.6-2.2c-.6.1-1.1.1-1.7.1h-3l.3-1.1c.2-.6.3-1 .5-1.3h3.4c.2 0 .8 0 1.7.1l.6-2.2h-7.3c-1.3 4.9-2.4 8.9-3.4 11.8h7.3l.7-2.3c-1.1.1-2.4.2-3.8.2-.5 0-1 0-1.4 0l.1-.2c0-.9.1-1.3.3-1.8"/></clipPath><clipPath id="i"><path d="m-715-2508h1920v4619h-1920z"/></clipPath><clipPath id="j"><path d="m171.1 75c.3-1.4.1-2.4-.5-2.8-.4-.3-1-.3-1.8-.3h-4.4c-1.3 5.1-2.5 9.1-3.4 11.8h2.3c.6-2.1.9-3.3 1-3.6l1.3-4.6c.2-.6.4-1.2.6-1.7.5 0 .9-.1 1.3-.1 1.4 0 1.9.2 1.6 1.4s-1.2 1.8-2.7 1.8c-.3 0-.6 0-.8-.1l.7 6.7h2.3c-.3-1.8-.5-3.5-.7-5.2 1.7-.6 2.8-1.7 3.2-3.3"/></clipPath><clipPath id="k"><path d="m-715-2508h1920v4619h-1920z"/></clipPath><clipPath id="l"><path d="m155.6 79.7.4-1.2h3.3c.5 0 .9 0 1.4.1l.6-2.2c-.6.1-1.1.1-1.7.1h-3l.3-1.1c.2-.6.3-1 .5-1.3h3.4c.2 0 .8 0 1.7.1l.6-2.2h-7.3c-1.3 4.9-2.4 8.9-3.4 11.8h7.3l.7-2.3c-1.1.1-2.4.2-3.8.2-.5 0-1 0-1.4 0l.1-.2c0-.9.2-1.3.3-1.8"/></clipPath><clipPath id="m"><path d="m-715-2508h1920v4619h-1920z"/></clipPath><clipPath id="n"><path d="m154 71.8h-2.3c-1.3 5.2-2.5 9.1-3.4 11.8h2.3c.2-.7.3-1.3.4-1.7s.2-.6.2-.9l2-6.7c.2-.8.5-1.6.8-2.5"/></clipPath><clipPath id="o"><path d="m-715-2508h1920v4619h-1920z"/></clipPath><clipPath id="p"><path d="m150.8 71.8h-7.9l-.6 2c.8-.1 1.5-.1 2.2-.1h.7c-.9 3.4-1.9 6.7-3 9.9h2.3c.1-.3.2-.7.2-1.1.2-.7.4-1.6.7-2.5l1.8-6.3h.9c.7 0 1.3 0 2 .1z"/></clipPath><clipPath id="q"><path d="m-715-2508h1920v4619h-1920z"/></clipPath><clipPath id="r"><path d="m139.9 72.5c-.2.7-.4 1.4-.6 2.1l-2 7.1-1.2-9.9h-3.3c-1.5 5.4-2.6 9.4-3.5 11.8h2c.3-1.1.6-2.3 1-3.7l1.8-6.3.8 6.7c.1 1.2.3 2.2.3 3.3h3.4c.1-.5.2-.9.3-1.3.1-.5.3-1 .4-1.3l1.9-6.7c.2-.8.5-1.6.8-2.5h-2c0 .3-.1.5-.1.7"/></clipPath><clipPath id="s"><path d="m-715-2508h1920v4619h-1920z"/></clipPath><clipPath id="t"><path d="m125.5 71.6c-3.5 0-6.2 2.4-7.2 6.4-.9 3.8.5 5.9 4.2 5.9 3.5 0 6.2-2.4 7.2-6.4.9-3.8-.6-5.9-4.2-5.9m1.9 5.9c-.7 2.8-2.3 4.3-4.5 4.3-2.1 0-2.9-1.4-2.3-3.8.7-2.8 2.3-4.3 4.4-4.3 2.2 0 3 1.3 2.4 3.8"/></clipPath><clipPath id="u"><path d="m-715-2508h1920v4619h-1920z"/></clipPath><clipPath id="v"><path d="m118.3 75c.3-1.4.1-2.4-.5-2.8-.4-.3-1-.3-1.8-.3h-4.4c-1.3 5.1-2.5 9.1-3.4 11.8h2.3c.6-2.1.9-3.3 1-3.6l1.3-4.6c.2-.6.4-1.2.6-1.7.5 0 .9-.1 1.3-.1 1.4 0 1.9.2 1.6 1.4s-1.2 1.8-2.7 1.8c-.3 0-.6 0-.8-.1l.7 6.7h2.3c-.3-1.8-.5-3.5-.7-5.2 1.7-.6 2.8-1.7 3.2-3.3"/></clipPath><clipPath id="w"><path d="m-715-2508h1920v4619h-1920z"/></clipPath><clipPath id="x"><path d="m106.9 76.4h-2.4l.3-1.1c.2-.6.3-1 .5-1.3h2.8c.2 0 .8 0 1.7.1l.6-2.2h-6.8c-1.3 4.9-2.4 8.9-3.4 11.8h2.3c.1-.4.2-.9.3-1.3.2-.9.5-1.8.7-2.6l.4-1.2h2.7c.5 0 .9 0 1.4.1l.6-2.2c-.5-.1-1-.1-1.7-.1"/></clipPath><clipPath id="y"><path d="m-715-2508h1920v4619h-1920z"/></clipPath><clipPath id="z"><path d="m76.6 71.8h-3c-.3.6-.6 1.1-.8 1.4l-6.6 10.3h2.3c.3-.7.6-1.3 1-1.8l1.8-2.9h3.4l.2 3.3c0 .2 0 .7-.1 1.4h2.4l-.5-9.8c-.1-.5-.1-1.2-.1-1.9zm-4.3 5.2 2.2-3.6.2 3.6z"/></clipPath><clipPath id="A"><path d="m-715-2508h1920v4619h-1920z"/></clipPath><clipPath id="B"><path d="m90.3 71.8h-2c-.1.2-.1.5-.2.7-.2.7-.4 1.4-.6 2.1l-2 7.1-1.2-9.9h-3.3c-1.5 5.4-2.6 9.4-3.5 11.8h2c.3-1.1.6-2.3 1-3.7l1.8-6.3.8 6.7c.1 1.2.3 2.2.3 3.3h3.4c.1-.5.2-.9.3-1.3.1-.6.3-1 .4-1.3l1.9-6.7c.3-.8.6-1.6.9-2.5"/></clipPath><clipPath id="C"><path d="m-715-2508h1920v4619h-1920z"/></clipPath><clipPath id="D"><path d="m90.8 74.5c-.3 1.2 0 2 .8 3l1.7 2.2c.3.4.4.8.3 1.1-.2.7-.9 1.2-1.9 1.2-.7 0-1.6-.3-2.7-1l-.4 2.3c.5.4 1.5.6 2.8.6 2.2 0 3.8-1.3 4.3-3.1.3-1.1 0-2-.8-3l-1.9-2.4c-.2-.2-.2-.5-.1-.8.2-.7.9-1.2 2-1.2.6 0 1.3.2 2 .6l.4-2.1c-.8-.2-1.6-.3-2.4-.3-2.2 0-3.6 1.1-4.1 2.9"/></clipPath><clipPath id="E"><path d="m-715-2508h1920v4619h-1920z"/></clipPath><clipPath id="F"><path d="m67.2 80.7c.3-1.1 0-2-.8-3l-1.8-2.4c-.2-.2-.2-.5-.1-.8.2-.7.9-1.2 2-1.2.6 0 1.3.2 2 .6l.4-2.1c-.8-.2-1.6-.3-2.4-.3-2.2 0-3.6 1.1-4 2.9-.3 1.2 0 2 .8 3l1.7 2.2c.3.4.4.8.3 1.1-.2.7-.9 1.2-1.9 1.2-.7 0-1.6-.3-2.7-1l-.4 2.3c.5.4 1.5.6 2.8.6 2.1.1 3.7-1.2 4.1-3.1"/></clipPath><clipPath id="G"><path d="m-715-2508h1920v4619h-1920z"/></clipPath><clipPath id="H"><path d="m76.6 65.4 2.2-6.8-.5 8.7c0 .4-.1.8-.1 1.3h2.6c.2-.5.5-1 .7-1.4l4.3-8.2c-.1.7-.3 1.3-.4 1.8l-.2 1-1.3 4.8c-.2.6-.3 1.2-.6 2h2.1c.2-.8.3-1.4.4-1.9.1-.3.1-.5.2-.7l1.9-6.8c.1-.5.3-1.3.7-2.5h-3.3c-.3.6-.5 1.1-.7 1.5l-4.3 7.8.5-8.2c0-.1 0-.5.1-1.2h-3.4c-1.5 5.2-2.8 9.2-3.8 11.9h2c.4-1.3.7-2.4.9-3.1"/></clipPath><clipPath id="I"><path d="m-715-2508h1920v4619h-1920z"/></clipPath><clipPath id="J"><path d="m113.9 68.6.7-2.3c-1.1.1-2.4.2-3.8.2-.5 0-1 0-1.4 0l.1-.3c.1-.5.3-1 .4-1.5l.4-1.2h3.3c.5 0 .9 0 1.4.1l.6-2.2c-.6.1-1.1.1-1.7.1h-3l.3-1.1c.2-.6.3-1 .5-1.3h3.4c.2 0 .8 0 1.7.1l.6-2.2h-7.4c-1.3 5-2.4 9-3.4 11.9h7.3z"/></clipPath><clipPath id="K"><path d="m-715-2508h1920v4619h-1920z"/></clipPath><clipPath id="L"><path d="m127.1 68.6c.2-.7.3-1.3.4-1.7s.2-.6.2-.9l2-6.8c.2-.8.5-1.6.8-2.5h-2.3c-1.3 5.2-2.5 9.2-3.4 11.9z"/></clipPath><clipPath id="M"><path d="m-715-2508h1920v4619h-1920z"/></clipPath><clipPath id="N"><path d="m130.9 68.6c.3-1.1.6-2.3 1-3.7l1.8-6.3.8 6.7c.1 1.2.3 2.2.3 3.3h3.5c.1-.5.2-.9.3-1.3.1-.6.3-1 .4-1.3l1.9-6.8c.2-.8.5-1.6.8-2.5h-2.1c-.1.2-.1.5-.2.7-.2.8-.4 1.4-.6 2.1l-2 7.2-1.2-10h-3.3c-1.5 5.5-2.6 9.5-3.5 11.9z"/></clipPath><clipPath id="O"><path d="m-715-2508h1920v4619h-1920z"/></clipPath><clipPath id="P"><path d="m94.3 68.6.7-2.3c-1.1.1-2.4.2-3.8.2-.5 0-1 0-1.4 0l.1-.3c.1-.5.3-1 .4-1.5l.4-1.2h3.3c.5 0 .9 0 1.4.1l.6-2.2c-.6.1-1.1.1-1.7.1h-3l.3-1.1c.2-.6.3-1 .5-1.3h3.4c.2 0 .8 0 1.7.1l.6-2.2h-7.4c-1.3 5-2.4 9-3.4 11.9h7.3z"/></clipPath><clipPath id="Q"><path d="m-715-2508h1920v4619h-1920z"/></clipPath><clipPath id="R"><path d="m144.6 64.6c.3.4.4.8.3 1.1-.2.7-.9 1.2-1.9 1.2-.7 0-1.6-.3-2.7-1l-.4 2.3c.5.4 1.5.6 2.8.6 2.2 0 3.8-1.3 4.3-3.1.3-1.1 0-2-.8-3l-1.8-2.4c-.2-.2-.2-.5-.1-.8.2-.7.9-1.2 2-1.2.6 0 1.3.2 2 .6l.4-2.1c-.8-.2-1.6-.3-2.4-.3-2.2 0-3.6 1.1-4 2.9-.3 1.2 0 2 .8 3z"/></clipPath><clipPath id="S"><path d="m-715-2508h1920v4619h-1920z"/></clipPath><clipPath id="T"><path d="m120.5 68.8c.9 0 1.8-.1 2.7-.3l.8-2.5c-1 .3-1.8.4-2.6.4-2.4 0-3.4-1.4-2.7-3.9.7-2.7 2.4-4.2 4.7-4.2 1 0 1.9.2 2.6.5l.5-2.3c-1-.2-1.7-.3-2.4-.3-3.9 0-6.6 2.3-7.6 6.5-.9 4 .4 6.1 4 6.1"/></clipPath><clipPath id="U"><path d="m-715-2508h1920v4619h-1920z"/></clipPath><clipPath id="V"><path d="m106.9 62.2c.5-2.1.3-3.7-.5-4.6-.7-.8-1.6-.8-2.9-.8h-4.5c-1.3 5.2-2.5 9.1-3.4 11.9h4.5c3.3-.1 5.9-2.6 6.8-6.5m-4.4 3.6c-1 .7-1.8.7-2.9.7h-1.1l.2-.7c.2-.6.3-1.2.5-1.8l1.5-5.2h1.8c1 0 1.7 0 2.1.5.4.6.5 1.6.1 3-.4 1.5-1.2 2.7-2.2 3.5"/></clipPath><clipPath id="W"><path d="m-715-2508h1920v4619h-1920z"/></clipPath><g clip-path="url(#a)"><path clip-path="url(#b)" d="m-5-5h123.5v95.6h-123.5z" fill="#fefefe"/></g><g clip-path="url(#c)"><g clip-path="url(#d)" enable-background="new"><g clip-path="url(#e)"><g clip-path="url(#f)"><path clip-path="url(#g)" d="m173.4 66.6h18.7v22.3h-18.7z" fill="#fefefe"/></g></g></g></g><g clip-path="url(#h)"><path clip-path="url(#i)" d="m164.8 66.8h20.8v21.8h-20.8z" fill="#fefefe"/></g><g clip-path="url(#j)"><path clip-path="url(#k)" d="m156 66.8h20.3v21.8h-20.3z" fill="#fefefe"/></g><g clip-path="url(#l)"><path clip-path="url(#m)" d="m147.3 66.8h20.8v21.8h-20.8z" fill="#fefefe"/></g><g clip-path="url(#n)"><path clip-path="url(#o)" d="m143.3 66.8h15.7v21.8h-15.7z" fill="#fefefe"/></g><g clip-path="url(#p)"><path clip-path="url(#q)" d="m137.2 66.8h18.6v21.8h-18.6z" fill="#fefefe"/></g><g clip-path="url(#r)"><path clip-path="url(#s)" d="m124.3 66.8h22.8v21.8h-22.8z" fill="#fefefe"/></g><g clip-path="url(#t)"><path clip-path="url(#u)" d="m113 66.6h21.9v22.3h-21.9z" fill="#fefefe"/></g><g clip-path="url(#v)"><path clip-path="url(#w)" d="m103.1 66.8h20.3v21.8h-20.3z" fill="#fefefe"/></g><g clip-path="url(#x)"><path clip-path="url(#y)" d="m95.2 66.8h20.2v21.8h-20.2z" fill="#fefefe"/></g><g clip-path="url(#z)"><path clip-path="url(#A)" d="m61.2 66.8h21v21.8h-21z" fill="#fefefe"/></g><g clip-path="url(#B)"><path clip-path="url(#C)" d="m72.5 66.8h22.8v21.8h-22.8z" fill="#fefefe"/></g><g clip-path="url(#D)"><path clip-path="url(#E)" d="m83.5 66.6h18.7v22.3h-18.7z" fill="#fefefe"/></g><g clip-path="url(#F)"><path clip-path="url(#G)" d="m55.2 66.6h18.7v22.3h-18.7z" fill="#fefefe"/></g><g clip-path="url(#H)"><path clip-path="url(#I)" d="m68.7 51.7h24.8v21.9h-24.8z" fill="#fefefe"/></g><g clip-path="url(#J)"><path clip-path="url(#K)" d="m101.5 51.7h20.8v21.9h-20.8z" fill="#fefefe"/></g><g clip-path="url(#L)"><path clip-path="url(#M)" d="m119.7 51.7h15.8v21.9h-15.8z" fill="#fefefe"/></g><g clip-path="url(#N)"><path clip-path="url(#O)" d="m123.8 51.7h22.8v21.9h-22.8z" fill="#fefefe"/></g><g clip-path="url(#P)"><path clip-path="url(#Q)" d="m82 51.7h20.8v21.9h-20.8z" fill="#fefefe"/></g><g clip-path="url(#R)"><path clip-path="url(#S)" d="m134.9 51.5h18.7v22.4h-18.7z" fill="#fefefe"/></g><g clip-path="url(#T)"><path clip-path="url(#U)" d="m111.2 51.4h20.2v22.4h-20.2z" fill="#fefefe"/></g><g clip-path="url(#V)"><path clip-path="url(#W)" d="m90.6 51.7h21.6v21.9h-21.6z" fill="#fefefe"/></g></svg>