<svg enable-background="new 0 0 224.8 85.2" viewBox="0 0 224.8 85.2" xmlns="http://www.w3.org/2000/svg" xmlns:xlink="http://www.w3.org/1999/xlink"><defs><path id="a" d="m70.7 59.5h1.3c5.5 0 8.2 2.6 8.2 7.8s-2.7 7.8-8.2 7.8h-1.3zm-3.9-3.4v22.3h6.4c3.3 0 5.9-1.1 8-3.2s3.1-4.8 3.1-8-1-5.9-3.1-8-4.7-3.2-8-3.2h-6.4zm109.3 0v3.2h5.1v19.1h3.5v-19.1h5.1v-3.2zm-150.5-.6-5.7 15.4-6-15.4h-2.9l-3.8 23h3.9l2.6-15.1 5.4 15.4h.9l5.7-15.4 2.3 15.1h4l-3.4-22.9zm17.9 17.4c-1.4-1.7-2.1-3.6-2.1-5.8s.7-4 2-5.6c1.3-1.5 3.1-2.3 5.3-2.3s4 .8 5.4 2.3c1.3 1.5 2 3.4 2 5.6 0 2.3-.7 4.3-2 5.9s-3.1 2.4-5.3 2.4c-2.1-.1-3.9-.9-5.3-2.5m-2.9-13.9c-2.2 2.3-3.2 5.1-3.2 8.3 0 3.3 1.1 6 3.2 8.3s4.9 3.4 8.2 3.4 6-1.1 8.1-3.4 3.2-5.1 3.2-8.3-1.1-6-3.2-8.3-4.8-3.5-8.1-3.5-6 1.2-8.2 3.5m55.5 13.9c-1.4-1.7-2.1-3.6-2.1-5.8s.7-4 2-5.6c1.3-1.5 3.1-2.3 5.3-2.3s4 .8 5.4 2.3c1.3 1.5 2 3.4 2 5.6 0 2.3-.7 4.3-2 5.9s-3.1 2.4-5.3 2.4c-2.1-.1-3.9-.9-5.3-2.5m-2.9-13.9c-2.2 2.3-3.2 5.1-3.2 8.3 0 3.3 1.1 6 3.2 8.3s4.9 3.4 8.2 3.4 6-1.1 8.2-3.4c2.1-2.3 3.2-5.1 3.2-8.3s-1.1-6-3.2-8.3-4.9-3.5-8.1-3.5c-3.5 0-6.2 1.2-8.3 3.5m43.3-3.5-5.7 15.4-6-15.4h-2.8l-3.9 22.9h3.9l2.6-15.1 5.4 15.4h.9l5.7-15.4 2.3 15.1h3.9l-3.4-22.9zm18 17.4c-1.4-1.7-2.1-3.6-2.1-5.8s.7-4 2-5.6c1.3-1.5 3.1-2.3 5.3-2.3s4 .8 5.4 2.3c1.3 1.5 2 3.4 2 5.6 0 2.3-.7 4.3-2 5.9s-3.1 2.4-5.3 2.4c-2.2-.1-3.9-.9-5.3-2.5m-3-13.9c-2.2 2.3-3.2 5.1-3.2 8.3 0 3.3 1.1 6 3.2 8.3s4.9 3.4 8.2 3.4 6-1.1 8.2-3.4c2.1-2.3 3.2-5.1 3.2-8.3s-1.1-6-3.2-8.3-4.9-3.5-8.1-3.5c-3.4 0-6.1 1.2-8.3 3.5m49.6 13.9c-1.4-1.7-2.1-3.6-2.1-5.8s.7-4 2-5.6c1.3-1.5 3.1-2.3 5.3-2.3s4 .8 5.4 2.3c1.3 1.5 2 3.4 2 5.6 0 2.3-.7 4.3-2 5.9s-3.1 2.4-5.3 2.4c-2.2-.1-3.9-.9-5.3-2.5m-2.9-13.9c-2.2 2.3-3.2 5.1-3.2 8.3 0 3.3 1.1 6 3.2 8.3s4.9 3.4 8.2 3.4 6-1.1 8.1-3.4 3.2-5.1 3.2-8.3-1.1-6-3.2-8.3-4.8-3.5-8.1-3.5c-3.4 0-6.1 1.2-8.2 3.5"/><clipPath id="b"><use xlink:href="#a"/></clipPath><clipPath><use xlink:href="#c"/></clipPath><path id="c" d="m-59.5-93.4h238.8v31.8h-238.8z"/></defs><g fill="#98abb6"><path d="m70.7 59.5h1.3c5.5 0 8.2 2.6 8.2 7.8s-2.7 7.8-8.2 7.8h-1.3zm-3.9-3.4v22.3h6.4c3.3 0 5.9-1.1 8-3.2s3.1-4.8 3.1-8-1-5.9-3.1-8-4.7-3.2-8-3.2h-6.4zm109.3 0v3.2h5.1v19.1h3.5v-19.1h5.1v-3.2zm-150.5-.6-5.7 15.4-6-15.4h-2.9l-3.8 23h3.9l2.6-15.1 5.4 15.4h.9l5.7-15.4 2.3 15.1h4l-3.4-22.9zm17.9 17.4c-1.4-1.7-2.1-3.6-2.1-5.8s.7-4 2-5.6c1.3-1.5 3.1-2.3 5.3-2.3s4 .8 5.4 2.3c1.3 1.5 2 3.4 2 5.6 0 2.3-.7 4.3-2 5.9s-3.1 2.4-5.3 2.4c-2.1-.1-3.9-.9-5.3-2.5m-2.9-13.9c-2.2 2.3-3.2 5.1-3.2 8.3 0 3.3 1.1 6 3.2 8.3s4.9 3.4 8.2 3.4 6-1.1 8.1-3.4 3.2-5.1 3.2-8.3-1.1-6-3.2-8.3-4.8-3.5-8.1-3.5-6 1.2-8.2 3.5m55.5 13.9c-1.4-1.7-2.1-3.6-2.1-5.8s.7-4 2-5.6c1.3-1.5 3.1-2.3 5.3-2.3s4 .8 5.4 2.3c1.3 1.5 2 3.4 2 5.6 0 2.3-.7 4.3-2 5.9s-3.1 2.4-5.3 2.4c-2.1-.1-3.9-.9-5.3-2.5m-2.9-13.9c-2.2 2.3-3.2 5.1-3.2 8.3 0 3.3 1.1 6 3.2 8.3s4.9 3.4 8.2 3.4 6-1.1 8.2-3.4c2.1-2.3 3.2-5.1 3.2-8.3s-1.1-6-3.2-8.3-4.9-3.5-8.1-3.5c-3.5 0-6.2 1.2-8.3 3.5m43.3-3.5-5.7 15.4-6-15.4h-2.8l-3.9 22.9h3.9l2.6-15.1 5.4 15.4h.9l5.7-15.4 2.3 15.1h3.9l-3.4-22.9zm18 17.4c-1.4-1.7-2.1-3.6-2.1-5.8s.7-4 2-5.6c1.3-1.5 3.1-2.3 5.3-2.3s4 .8 5.4 2.3c1.3 1.5 2 3.4 2 5.6 0 2.3-.7 4.3-2 5.9s-3.1 2.4-5.3 2.4c-2.2-.1-3.9-.9-5.3-2.5m-3-13.9c-2.2 2.3-3.2 5.1-3.2 8.3 0 3.3 1.1 6 3.2 8.3s4.9 3.4 8.2 3.4 6-1.1 8.2-3.4c2.1-2.3 3.2-5.1 3.2-8.3s-1.1-6-3.2-8.3-4.9-3.5-8.1-3.5c-3.4 0-6.1 1.2-8.3 3.5m49.6 13.9c-1.4-1.7-2.1-3.6-2.1-5.8s.7-4 2-5.6c1.3-1.5 3.1-2.3 5.3-2.3s4 .8 5.4 2.3c1.3 1.5 2 3.4 2 5.6 0 2.3-.7 4.3-2 5.9s-3.1 2.4-5.3 2.4c-2.2-.1-3.9-.9-5.3-2.5m-2.9-13.9c-2.2 2.3-3.2 5.1-3.2 8.3 0 3.3 1.1 6 3.2 8.3s4.9 3.4 8.2 3.4 6-1.1 8.1-3.4 3.2-5.1 3.2-8.3-1.1-6-3.2-8.3-4.8-3.5-8.1-3.5c-3.4 0-6.1 1.2-8.2 3.5"/><use xlink:href="#a"/><g clip-path="url(#b)"><path d="m-59.5-93.4h238.8v31.8h-238.8z"/><use xlink:href="#c"/></g><path d="m128.7 15.5-16.2-9.4-16.2 9.4v18.7l16.2 9.4 16.2-9.4m-1.2-.6-15.1 8.7-15.1-8.7v-17.4l15.1-8.7 15.1 8.7z"/><path d="m77.6 29.4h16.3v1.1h-16.3z"/><path d="m131 29.4h16.2v1.1h-16.2z"/><path d="m112.4 8.8-13.9 8v16.1l13.9 8 14-8.1v-16zm4.3 21.7-1.1-7.5-2.9 7.7h-.5l-2.7-7.7-1.3 7.6h-1.9l1.9-11.5h1.4l3 7.7 2.9-7.7h1.5l1.7 11.5z"/></g></svg>