<?xml version="1.0" encoding="utf-8"?>
<!-- Generator: Adobe Illustrator 23.0.4, SVG Export Plug-In . SVG Version: 6.00 Build 0)  -->
<svg version="1.1" id="Layer_1" xmlns="http://www.w3.org/2000/svg" xmlns:xlink="http://www.w3.org/1999/xlink" x="0px" y="0px"
	 viewBox="0 0 224.8 85.2" style="enable-background:new 0 0 224.8 85.2;" xml:space="preserve">
<style type="text/css">
	.st0{fill:#98ABB6;}
	.st1{clip-path:url(#SVGID_4_);}
	.st2{clip-path:url(#SVGID_6_);}
</style>
<g>
	<g>
		<path id="SVGID_1_" class="st0" d="M70.7,59.5H72c5.5,0,8.2,2.6,8.2,7.8c0,5.2-2.7,7.8-8.2,7.8h-1.3V59.5z M66.8,56.1v22.3h6.4
			c3.3,0,5.9-1.1,8-3.2s3.1-4.8,3.1-8c0-3.2-1-5.9-3.1-8s-4.7-3.2-8-3.2h-6.4V56.1z M176.1,56.1v3.2h5.1v19.1h3.5V59.3h5.1v-3.2
			H176.1z M25.6,55.5l-5.7,15.4l-6-15.4H11l-3.8,23h3.9l2.6-15.1l5.4,15.4H20l5.7-15.4L28,78.5h4l-3.4-22.9L25.6,55.5L25.6,55.5z
			 M43.5,72.9c-1.4-1.7-2.1-3.6-2.1-5.8c0-2.2,0.7-4,2-5.6c1.3-1.5,3.1-2.3,5.3-2.3s4,0.8,5.4,2.3c1.3,1.5,2,3.4,2,5.6
			c0,2.3-0.7,4.3-2,5.9s-3.1,2.4-5.3,2.4C46.7,75.3,44.9,74.5,43.5,72.9 M40.6,59c-2.2,2.3-3.2,5.1-3.2,8.3c0,3.3,1.1,6,3.2,8.3
			c2.1,2.3,4.9,3.4,8.2,3.4s6-1.1,8.1-3.4c2.1-2.3,3.2-5.1,3.2-8.3c0-3.2-1.1-6-3.2-8.3c-2.1-2.3-4.8-3.5-8.1-3.5
			C45.5,55.5,42.8,56.7,40.6,59 M96.1,72.9c-1.4-1.7-2.1-3.6-2.1-5.8c0-2.2,0.7-4,2-5.6c1.3-1.5,3.1-2.3,5.3-2.3
			c2.2,0,4,0.8,5.4,2.3c1.3,1.5,2,3.4,2,5.6c0,2.3-0.7,4.3-2,5.9s-3.1,2.4-5.3,2.4C99.3,75.3,97.5,74.5,96.1,72.9 M93.2,59
			C91,61.3,90,64.1,90,67.3c0,3.3,1.1,6,3.2,8.3s4.9,3.4,8.2,3.4c3.3,0,6-1.1,8.2-3.4c2.1-2.3,3.2-5.1,3.2-8.3c0-3.2-1.1-6-3.2-8.3
			s-4.9-3.5-8.1-3.5C98,55.5,95.3,56.7,93.2,59 M136.5,55.5l-5.7,15.4l-6-15.4H122l-3.9,22.9h3.9l2.6-15.1l5.4,15.4h0.9l5.7-15.4
			l2.3,15.1h3.9l-3.4-22.9H136.5z M154.5,72.9c-1.4-1.7-2.1-3.6-2.1-5.8c0-2.2,0.7-4,2-5.6c1.3-1.5,3.1-2.3,5.3-2.3s4,0.8,5.4,2.3
			c1.3,1.5,2,3.4,2,5.6c0,2.3-0.7,4.3-2,5.9s-3.1,2.4-5.3,2.4C157.6,75.3,155.9,74.5,154.5,72.9 M151.5,59c-2.2,2.3-3.2,5.1-3.2,8.3
			c0,3.3,1.1,6,3.2,8.3c2.1,2.3,4.9,3.4,8.2,3.4s6-1.1,8.2-3.4c2.1-2.3,3.2-5.1,3.2-8.3c0-3.2-1.1-6-3.2-8.3
			c-2.1-2.3-4.9-3.5-8.1-3.5C156.4,55.5,153.7,56.7,151.5,59 M201.1,72.9c-1.4-1.7-2.1-3.6-2.1-5.8c0-2.2,0.7-4,2-5.6
			c1.3-1.5,3.1-2.3,5.3-2.3s4,0.8,5.4,2.3c1.3,1.5,2,3.4,2,5.6c0,2.3-0.7,4.3-2,5.9s-3.1,2.4-5.3,2.4
			C204.2,75.3,202.5,74.5,201.1,72.9 M198.2,59c-2.2,2.3-3.2,5.1-3.2,8.3c0,3.3,1.1,6,3.2,8.3c2.1,2.3,4.9,3.4,8.2,3.4
			s6-1.1,8.1-3.4s3.2-5.1,3.2-8.3c0-3.2-1.1-6-3.2-8.3c-2.1-2.3-4.8-3.5-8.1-3.5C203,55.5,200.3,56.7,198.2,59"/>
	</g>
	<g>
		<defs>
			<path id="SVGID_2_" d="M70.7,59.5H72c5.5,0,8.2,2.6,8.2,7.8c0,5.2-2.7,7.8-8.2,7.8h-1.3V59.5z M66.8,56.1v22.3h6.4
				c3.3,0,5.9-1.1,8-3.2s3.1-4.8,3.1-8c0-3.2-1-5.9-3.1-8s-4.7-3.2-8-3.2h-6.4V56.1z M176.1,56.1v3.2h5.1v19.1h3.5V59.3h5.1v-3.2
				H176.1z M25.6,55.5l-5.7,15.4l-6-15.4H11l-3.8,23h3.9l2.6-15.1l5.4,15.4H20l5.7-15.4L28,78.5h4l-3.4-22.9L25.6,55.5L25.6,55.5z
				 M43.5,72.9c-1.4-1.7-2.1-3.6-2.1-5.8c0-2.2,0.7-4,2-5.6c1.3-1.5,3.1-2.3,5.3-2.3s4,0.8,5.4,2.3c1.3,1.5,2,3.4,2,5.6
				c0,2.3-0.7,4.3-2,5.9s-3.1,2.4-5.3,2.4C46.7,75.3,44.9,74.5,43.5,72.9 M40.6,59c-2.2,2.3-3.2,5.1-3.2,8.3c0,3.3,1.1,6,3.2,8.3
				c2.1,2.3,4.9,3.4,8.2,3.4s6-1.1,8.1-3.4c2.1-2.3,3.2-5.1,3.2-8.3c0-3.2-1.1-6-3.2-8.3c-2.1-2.3-4.8-3.5-8.1-3.5
				C45.5,55.5,42.8,56.7,40.6,59 M96.1,72.9c-1.4-1.7-2.1-3.6-2.1-5.8c0-2.2,0.7-4,2-5.6c1.3-1.5,3.1-2.3,5.3-2.3
				c2.2,0,4,0.8,5.4,2.3c1.3,1.5,2,3.4,2,5.6c0,2.3-0.7,4.3-2,5.9s-3.1,2.4-5.3,2.4C99.3,75.3,97.5,74.5,96.1,72.9 M93.2,59
				C91,61.3,90,64.1,90,67.3c0,3.3,1.1,6,3.2,8.3s4.9,3.4,8.2,3.4c3.3,0,6-1.1,8.2-3.4c2.1-2.3,3.2-5.1,3.2-8.3c0-3.2-1.1-6-3.2-8.3
				s-4.9-3.5-8.1-3.5C98,55.5,95.3,56.7,93.2,59 M136.5,55.5l-5.7,15.4l-6-15.4H122l-3.9,22.9h3.9l2.6-15.1l5.4,15.4h0.9l5.7-15.4
				l2.3,15.1h3.9l-3.4-22.9H136.5z M154.5,72.9c-1.4-1.7-2.1-3.6-2.1-5.8c0-2.2,0.7-4,2-5.6c1.3-1.5,3.1-2.3,5.3-2.3s4,0.8,5.4,2.3
				c1.3,1.5,2,3.4,2,5.6c0,2.3-0.7,4.3-2,5.9s-3.1,2.4-5.3,2.4C157.6,75.3,155.9,74.5,154.5,72.9 M151.5,59
				c-2.2,2.3-3.2,5.1-3.2,8.3c0,3.3,1.1,6,3.2,8.3c2.1,2.3,4.9,3.4,8.2,3.4s6-1.1,8.2-3.4c2.1-2.3,3.2-5.1,3.2-8.3
				c0-3.2-1.1-6-3.2-8.3c-2.1-2.3-4.9-3.5-8.1-3.5C156.4,55.5,153.7,56.7,151.5,59 M201.1,72.9c-1.4-1.7-2.1-3.6-2.1-5.8
				c0-2.2,0.7-4,2-5.6c1.3-1.5,3.1-2.3,5.3-2.3s4,0.8,5.4,2.3c1.3,1.5,2,3.4,2,5.6c0,2.3-0.7,4.3-2,5.9s-3.1,2.4-5.3,2.4
				C204.2,75.3,202.5,74.5,201.1,72.9 M198.2,59c-2.2,2.3-3.2,5.1-3.2,8.3c0,3.3,1.1,6,3.2,8.3c2.1,2.3,4.9,3.4,8.2,3.4
				s6-1.1,8.1-3.4s3.2-5.1,3.2-8.3c0-3.2-1.1-6-3.2-8.3c-2.1-2.3-4.8-3.5-8.1-3.5C203,55.5,200.3,56.7,198.2,59"/>
		</defs>
		<use xlink:href="#SVGID_2_"  style="overflow:visible;fill:#98ABB6;"/>
		<clipPath id="SVGID_4_">
			<use xlink:href="#SVGID_2_"  style="overflow:visible;"/>
		</clipPath>
		<g class="st1">
			<g>
				<rect id="SVGID_3_" x="-59.5" y="-93.4" class="st0" width="238.8" height="31.8"/>
			</g>
			<g>
				<defs>
					<rect id="SVGID_5_" x="-59.5" y="-93.4" width="238.8" height="31.8"/>
				</defs>
				<use xlink:href="#SVGID_5_"  style="overflow:visible;fill:#98ABB6;"/>
				<clipPath id="SVGID_6_">
					<use xlink:href="#SVGID_5_"  style="overflow:visible;"/>
				</clipPath>
				<g transform="matrix(1 0 0 1 0 0)" class="st2">
				</g>
			</g>
		</g>
	</g>
</g>
<path class="st0" d="M128.7,15.5l-16.2-9.4l-16.2,9.4v18.7l16.2,9.4l16.2-9.4 M127.5,33.6l-15.1,8.7l-15.1-8.7V16.2l15.1-8.7
	l15.1,8.7V33.6z"/>
<rect x="77.6" y="29.4" class="st0" width="16.3" height="1.1"/>
<rect x="131" y="29.4" class="st0" width="16.2" height="1.1"/>
<path class="st0" d="M112.4,8.8l-13.9,8v16.1l13.9,8l14-8.1v-16L112.4,8.8z M116.7,30.5l-1.1-7.5l-2.9,7.7h-0.5l-2.7-7.7l-1.3,7.6
	h-1.9l1.9-11.5h1.4l3,7.7l2.9-7.7h1.5l1.7,11.5L116.7,30.5L116.7,30.5z"/>
</svg>
