<?xml version="1.0" encoding="utf-8"?>
<!-- Generator: Adobe Illustrator 23.0.4, SVG Export Plug-In . SVG Version: 6.00 Build 0)  -->
<svg version="1.1" id="Layer_1" xmlns="http://www.w3.org/2000/svg" xmlns:xlink="http://www.w3.org/1999/xlink" x="0px" y="0px"
	 viewBox="0 0 174.6 95" style="enable-background:new 0 0 174.6 95;" xml:space="preserve">
<style type="text/css">
	.st0{clip-path:url(#SVGID_2_);}
	.st1{clip-path:url(#SVGID_4_);enable-background:new    ;}
	.st2{clip-path:url(#SVGID_6_);}
	.st3{clip-path:url(#SVGID_8_);}
	.st4{clip-path:url(#SVGID_10_);fill:#FFFFFF;}
	.st5{clip-path:url(#SVGID_12_);}
	.st6{clip-path:url(#SVGID_14_);fill:#FFFFFF;}
	.st7{clip-path:url(#SVGID_16_);}
	.st8{clip-path:url(#SVGID_18_);fill:#FFFFFF;}
	.st9{clip-path:url(#SVGID_20_);}
	.st10{clip-path:url(#SVGID_22_);fill:#FFFFFF;}
	.st11{clip-path:url(#SVGID_24_);}
	.st12{clip-path:url(#SVGID_26_);fill:#FFFFFF;}
	.st13{clip-path:url(#SVGID_28_);}
	.st14{clip-path:url(#SVGID_30_);enable-background:new    ;}
	.st15{clip-path:url(#SVGID_32_);}
	.st16{clip-path:url(#SVGID_34_);}
	.st17{clip-path:url(#SVGID_36_);fill:#FFFFFF;}
	.st18{clip-path:url(#SVGID_38_);}
	.st19{clip-path:url(#SVGID_40_);fill:#FFFFFF;}
	.st20{clip-path:url(#SVGID_42_);}
	.st21{clip-path:url(#SVGID_44_);fill:#FFFFFF;}
	.st22{clip-path:url(#SVGID_46_);}
	.st23{clip-path:url(#SVGID_48_);enable-background:new    ;}
	.st24{clip-path:url(#SVGID_50_);}
	.st25{clip-path:url(#SVGID_52_);}
	.st26{clip-path:url(#SVGID_54_);fill:#FFFFFF;}
	.st27{clip-path:url(#SVGID_56_);}
	.st28{clip-path:url(#SVGID_58_);fill:#FFFFFF;}
</style>
<g>
	<g>
		<defs>
			<rect id="SVGID_1_" x="150.4" width="24.1" height="23.6"/>
		</defs>
		<clipPath id="SVGID_2_">
			<use xlink:href="#SVGID_1_"  style="overflow:visible;"/>
		</clipPath>
		<g class="st0">
			<defs>
				<rect id="SVGID_3_" x="-396" y="-2498" width="1920" height="4619"/>
			</defs>
			<clipPath id="SVGID_4_">
				<use xlink:href="#SVGID_3_"  style="overflow:visible;"/>
			</clipPath>
			<g class="st1">
				<g>
					<defs>
						<rect id="SVGID_5_" x="150" y="-1" width="25" height="25"/>
					</defs>
					<clipPath id="SVGID_6_">
						<use xlink:href="#SVGID_5_"  style="overflow:visible;"/>
					</clipPath>
					<g class="st2">
						<defs>
							<path id="SVGID_7_" d="M160.9,0.1c2.6-0.3,5.3,0.1,7.5,1.4c3.1,1.7,5.4,4.9,6,8.4c0.3,2,0.2,4-0.5,5.9c-1,2.7-3,5-5.5,6.4
								c-2.3,1.3-5.1,1.7-7.8,1.3c-2.7-0.4-5.3-1.8-7.1-3.9c-1.9-2.1-3-4.8-3-7.5c-0.1-2.6,0.8-5.2,2.3-7.3
								C154.7,2.3,157.7,0.5,160.9,0.1 M161.9,1.6c-1.1,0.2-1.9,1.1-2.3,2.1c-0.3,0.7-0.9,1.3-1.7,1.6c-1.1,0.4-2.3,0-3.5,0.3
								c-1,0.3-1.7,1.3-1.6,2.3c0.2,1.4,1.3,2.4,1.4,3.8c0.1,0.8-0.4,1.4-0.8,2.1c-0.4,0.8-0.7,1.7-0.5,2.6c0.4,1,1.5,1.6,2.6,1.5
								c1.1-0.1,2.4-0.1,3.3,0.7c0.8,0.8,1.2,1.9,2,2.7c0.8,0.7,2.2,0.8,3,0.1c1.1-0.8,1.4-2.4,2.5-3.1c1.1-0.6,2.5-0.3,3.7-0.5
								c1-0.1,1.8-1,1.8-2c0-1.1-0.8-2-1.2-3.1c-0.4-0.8-0.3-1.7,0.1-2.4c0.5-0.9,1.1-1.8,1-2.8c-0.1-1.1-1.2-2-2.3-2
								c-1.1-0.1-2.5,0.2-3.4-0.5c-1.1-0.7-1.3-2-2.3-2.8C163.4,1.7,162.7,1.5,161.9,1.6"/>
						</defs>
						<clipPath id="SVGID_8_">
							<use xlink:href="#SVGID_7_"  style="overflow:visible;"/>
						</clipPath>
						<g class="st3">
							<defs>
								<rect id="SVGID_9_" x="150" width="25" height="24"/>
							</defs>
							<clipPath id="SVGID_10_">
								<use xlink:href="#SVGID_9_"  style="overflow:visible;"/>
							</clipPath>
							<rect x="145.4" y="-5" class="st4" width="34.1" height="33.6"/>
						</g>
					</g>
				</g>
			</g>
		</g>
	</g>
	<g>
		<defs>
			<path id="SVGID_11_" d="M60.5,15.1c3.6-0.5,7.3,0.3,10.4,2.2c3.9,2.3,6.9,6.2,8.2,10.6c1.5,4.8,1.1,10.2-1,14.7
				c-1.9,3.9-5.1,7.2-9,8.9c-3.5,1.5-7.5,1.8-11.2,0.7c-3.8-1.1-7-3.6-9.3-6.9c-2.6-3.8-3.8-8.5-3.5-13.1c0.3-4.6,2.4-9.2,5.7-12.4
				C53.4,17.3,56.8,15.6,60.5,15.1 M60.6,24.7c-1.9,0.4-3.6,1.5-4.8,3.1c-1.6,1.9-2.4,4.5-2.2,6.9c0.2,2.8,1.5,5.5,3.7,7.2
				c1.8,1.4,4.3,2.1,6.6,1.7c2.4-0.4,4.6-1.9,5.9-3.9c1.4-2.1,2-4.8,1.5-7.3c-0.4-2.7-2.1-5.3-4.4-6.7
				C65.1,24.6,62.8,24.2,60.6,24.7"/>
		</defs>
		<clipPath id="SVGID_12_">
			<use xlink:href="#SVGID_11_"  style="overflow:visible;"/>
		</clipPath>
		<g class="st5">
			<defs>
				<rect id="SVGID_13_" x="-396" y="-2498" width="1920" height="4619"/>
			</defs>
			<clipPath id="SVGID_14_">
				<use xlink:href="#SVGID_13_"  style="overflow:visible;"/>
			</clipPath>
			<rect x="40" y="10" class="st6" width="45" height="48"/>
		</g>
	</g>
	<g>
		<defs>
			<path id="SVGID_15_" d="M0,17c1.3,0,2.6,0,3.9,0c5.4,6.3,10.8,12.5,16.1,18.8c5.4-6.1,10.8-12.2,16.2-18.3c1.3,0,2.5,0,3.8,0
				c0,11.5,0,23,0,34.5c-3.4,0-6.8,0-10.2,0c0-4,0-7.9,0-11.9c-3.2,3.3-6.5,6.7-9.7,10.1c-3.2-3.4-6.3-6.9-9.5-10.3c0,4,0,8,0,12
				c-3.5,0-7.1,0-10.6,0C0,40.2,0,28.6,0,17z"/>
		</defs>
		<clipPath id="SVGID_16_">
			<use xlink:href="#SVGID_15_"  style="overflow:visible;"/>
		</clipPath>
		<g class="st7">
			<defs>
				<rect id="SVGID_17_" x="-396" y="-2498" width="1920" height="4619"/>
			</defs>
			<clipPath id="SVGID_18_">
				<use xlink:href="#SVGID_17_"  style="overflow:visible;"/>
			</clipPath>
			<rect x="-5" y="12" class="st8" width="50" height="45"/>
		</g>
	</g>
	<g>
		<defs>
			<path id="SVGID_19_" d="M84,17c1.2,0,2.4,0,3.7,0c5.9,5.1,11.8,10.2,17.7,15.2c0-5,0-10.1,0-15.1c3.2,0,6.4,0,9.6,0
				c0,11.6,0,23.2,0,34.7c-1.1,0-2.1,0-3.2,0c-6.2-5.3-12.3-10.6-18.5-15.8c0,5.3,0,10.6,0,16c-3.1,0-6.2,0-9.4,0
				C84,40.3,84,28.7,84,17z"/>
		</defs>
		<clipPath id="SVGID_20_">
			<use xlink:href="#SVGID_19_"  style="overflow:visible;"/>
		</clipPath>
		<g class="st9">
			<defs>
				<rect id="SVGID_21_" x="-396" y="-2498" width="1920" height="4619"/>
			</defs>
			<clipPath id="SVGID_22_">
				<use xlink:href="#SVGID_21_"  style="overflow:visible;"/>
			</clipPath>
			<rect x="79" y="12" class="st10" width="41" height="45"/>
		</g>
	</g>
	<g>
		<defs>
			<path id="SVGID_23_" d="M119,17c9.3,0,18.7,0,28,0c0,2.8,0,5.6,0,8.4c-3,0-6,0-9,0c0,8.9,0,17.7,0,26.6c-3.3,0-6.6,0-9.9,0
				c0-8.8,0-17.7,0-26.5c-3,0-6.1,0-9.1,0C119,22.7,119,19.8,119,17L119,17z"/>
		</defs>
		<clipPath id="SVGID_24_">
			<use xlink:href="#SVGID_23_"  style="overflow:visible;"/>
		</clipPath>
		<g class="st11">
			<defs>
				<rect id="SVGID_25_" x="-396" y="-2498" width="1920" height="4619"/>
			</defs>
			<clipPath id="SVGID_26_">
				<use xlink:href="#SVGID_25_"  style="overflow:visible;"/>
			</clipPath>
			<rect x="114" y="12" class="st12" width="38" height="45"/>
		</g>
	</g>
	<g>
		<defs>
			<rect id="SVGID_27_" x="118.3" y="58" width="28.4" height="37"/>
		</defs>
		<clipPath id="SVGID_28_">
			<use xlink:href="#SVGID_27_"  style="overflow:visible;"/>
		</clipPath>
		<g class="st13">
			<defs>
				<rect id="SVGID_29_" x="-396" y="-2498" width="1920" height="4619"/>
			</defs>
			<clipPath id="SVGID_30_">
				<use xlink:href="#SVGID_29_"  style="overflow:visible;"/>
			</clipPath>
			<g class="st14">
				<g>
					<defs>
						<rect id="SVGID_31_" x="118" y="57" width="29" height="39"/>
					</defs>
					<clipPath id="SVGID_32_">
						<use xlink:href="#SVGID_31_"  style="overflow:visible;"/>
					</clipPath>
					<g class="st15">
						<defs>
							<path id="SVGID_33_" d="M134.4,58.3c3.9-0.5,7.9-0.2,11.8,0.4c-0.3,2.7-0.6,5.3-0.9,8c-1.9-0.4-3.8-0.6-5.7-0.6
								c-2.4,0-4.8,0.8-6.9,2.1c-2.1,1.3-3.8,3.3-4.4,5.8c-0.7,2.9-0.1,6.2,1.9,8.6c1.8,2.2,4.5,3.7,7.4,4.3c3,0.5,6,0.2,9-0.1
								c0,2.6,0.2,5.2,0,7.8c-3.7,0.6-7.5,0.8-11.2,0.4c-2.3-0.3-4.6-0.8-6.6-1.9c-2.8-1.4-5.3-3.4-7.2-5.9c-2-2.6-3.2-5.9-3.3-9.1
								c-0.1-3.4,0.4-7,2-10.1c1-2.1,2.6-3.8,4.5-5.2c1.3-1,2.8-1.8,4.3-2.7C130.7,58.9,132.6,58.5,134.4,58.3"/>
						</defs>
						<clipPath id="SVGID_34_">
							<use xlink:href="#SVGID_33_"  style="overflow:visible;"/>
						</clipPath>
						<g class="st16">
							<defs>
								<rect id="SVGID_35_" x="118" y="58" width="29" height="37"/>
							</defs>
							<clipPath id="SVGID_36_">
								<use xlink:href="#SVGID_35_"  style="overflow:visible;"/>
							</clipPath>
							<rect x="113.3" y="53" class="st17" width="38.4" height="47"/>
						</g>
					</g>
				</g>
			</g>
		</g>
	</g>
	<g>
		<defs>
			<path id="SVGID_37_" d="M30.1,59c3.3,0,6.6,0,10,0c0,9.1,0,18.3,0,27.4c2.7,0,5.3,0,8,0c0,2.9,0,5.7,0,8.6c-6,0-12,0-18,0
				C30,83,30.1,71,30.1,59"/>
		</defs>
		<clipPath id="SVGID_38_">
			<use xlink:href="#SVGID_37_"  style="overflow:visible;"/>
		</clipPath>
		<g class="st18">
			<defs>
				<rect id="SVGID_39_" x="-396" y="-2498" width="1920" height="4619"/>
			</defs>
			<clipPath id="SVGID_40_">
				<use xlink:href="#SVGID_39_"  style="overflow:visible;"/>
			</clipPath>
			<rect x="25" y="54" class="st19" width="28" height="46"/>
		</g>
	</g>
	<g>
		<defs>
			<path id="SVGID_41_" d="M63.7,59c1.5,0,3.1,0,4.6,0c4.9,12,9.8,24,14.7,36c-3.6,0-7.1,0-10.7,0c-2.1-5.1-4.1-10.3-6.2-15.4
				c-2.3,5.2-4.6,10.3-6.9,15.4c-3.4,0-6.8,0-10.2,0C53.9,83,58.8,71,63.7,59"/>
		</defs>
		<clipPath id="SVGID_42_">
			<use xlink:href="#SVGID_41_"  style="overflow:visible;"/>
		</clipPath>
		<g class="st20">
			<defs>
				<rect id="SVGID_43_" x="-396" y="-2498" width="1920" height="4619"/>
			</defs>
			<clipPath id="SVGID_44_">
				<use xlink:href="#SVGID_43_"  style="overflow:visible;"/>
			</clipPath>
			<rect x="44" y="54" class="st21" width="44" height="46"/>
		</g>
	</g>
	<g>
		<defs>
			<rect id="SVGID_45_" y="59.1" width="27.8" height="35.7"/>
		</defs>
		<clipPath id="SVGID_46_">
			<use xlink:href="#SVGID_45_"  style="overflow:visible;"/>
		</clipPath>
		<g class="st22">
			<defs>
				<rect id="SVGID_47_" x="-396" y="-2498" width="1920" height="4619"/>
			</defs>
			<clipPath id="SVGID_48_">
				<use xlink:href="#SVGID_47_"  style="overflow:visible;"/>
			</clipPath>
			<g class="st23">
				<g>
					<defs>
						<rect id="SVGID_49_" x="-1" y="59" width="30" height="36"/>
					</defs>
					<clipPath id="SVGID_50_">
						<use xlink:href="#SVGID_49_"  style="overflow:visible;"/>
					</clipPath>
					<g class="st24">
						<defs>
							<path id="SVGID_51_" d="M0,59.1c6.2,0,12.4,0,18.6,0c2.7,0.2,5.5,1.5,7,3.8c1.4,2.2,1.5,5,1,7.4c-0.4,2.4-2,4.9-4.5,5.8
								c2.6,0.7,4.6,2.9,5.2,5.3c0.6,2.2,0.5,4.5-0.2,6.7c-0.8,2.3-2.6,4.2-4.8,5.3c-1.6,0.8-3.5,1.3-5.3,1.4c-5.7,0-11.4,0-17.1,0
								C0,82.9,0,71,0,59.1 M10.1,65.4c0,2.4,0,4.8,0,7.2c1.7,0,3.4,0.1,5.2,0.1c1.2,0,2.4-0.6,2.9-1.7c0.5-1.1,0.5-2.5,0-3.6
								c-0.5-1.2-1.8-1.9-3-1.9C13.5,65.5,11.8,65.5,10.1,65.4 M9.8,79.6c0,2.4,0,4.9,0,7.3c1.7,0,3.4,0,5.1,0
								c1.4-0.2,2.9-1.1,3.3-2.5c0.4-1.2,0.2-2.7-0.8-3.7c-0.9-0.8-2.2-1.2-3.4-1.2C12.6,79.5,11.2,79.5,9.8,79.6"/>
						</defs>
						<clipPath id="SVGID_52_">
							<use xlink:href="#SVGID_51_"  style="overflow:visible;"/>
						</clipPath>
						<g class="st25">
							<defs>
								<rect id="SVGID_53_" y="59" width="28" height="36"/>
							</defs>
							<clipPath id="SVGID_54_">
								<use xlink:href="#SVGID_53_"  style="overflow:visible;"/>
							</clipPath>
							<rect x="-5" y="54.1" class="st26" width="37.8" height="45.7"/>
						</g>
					</g>
				</g>
			</g>
		</g>
	</g>
	<g>
		<defs>
			<path id="SVGID_55_" d="M84,60c1.2,0,2.4,0,3.7,0c5.9,5.1,11.8,10.2,17.7,15.2c0-5,0-10.1,0-15.1c3.2,0,6.4,0,9.6,0
				c0,11.6,0,23.2,0,34.8c-1.1,0-2.1,0-3.2,0c-6.2-5.3-12.3-10.6-18.5-15.9c0,5.3,0,10.6,0,16c-3.1,0-6.2,0-9.4,0
				C84,83.3,84,71.7,84,60"/>
		</defs>
		<clipPath id="SVGID_56_">
			<use xlink:href="#SVGID_55_"  style="overflow:visible;"/>
		</clipPath>
		<g class="st27">
			<defs>
				<rect id="SVGID_57_" x="-396" y="-2498" width="1920" height="4619"/>
			</defs>
			<clipPath id="SVGID_58_">
				<use xlink:href="#SVGID_57_"  style="overflow:visible;"/>
			</clipPath>
			<rect x="79" y="55" class="st28" width="41" height="45"/>
		</g>
	</g>
</g>
</svg>
