<svg enable-background="new 0 0 174.6 95" viewBox="0 0 174.6 95" xmlns="http://www.w3.org/2000/svg" xmlns:xlink="http://www.w3.org/1999/xlink"><clipPath id="a"><path d="m150.4 0h24.1v23.6h-24.1z"/></clipPath><clipPath id="b"><path d="m-396-2498h1920v4619h-1920z"/></clipPath><clipPath id="c"><path d="m150-1h25v25h-25z"/></clipPath><clipPath id="d"><path d="m160.9.1c2.6-.3 5.3.1 7.5 1.4 3.1 1.7 5.4 4.9 6 8.4.3 2 .2 4-.5 5.9-1 2.7-3 5-5.5 6.4-2.3 1.3-5.1 1.7-7.8 1.3s-5.3-1.8-7.1-3.9c-1.9-2.1-3-4.8-3-7.5-.1-2.6.8-5.2 2.3-7.3 1.9-2.5 4.9-4.3 8.1-4.7m1 1.5c-1.1.2-1.9 1.1-2.3 2.1-.3.7-.9 1.3-1.7 1.6-1.1.4-2.3 0-3.5.3-1 .3-1.7 1.3-1.6 2.3.2 1.4 1.3 2.4 1.4 3.8.1.8-.4 1.4-.8 2.1-.4.8-.7 1.7-.5 2.6.4 1 1.5 1.6 2.6 1.5s2.4-.1 3.3.7c.8.8 1.2 1.9 2 2.7.8.7 2.2.8 3 .1 1.1-.8 1.4-2.4 2.5-3.1 1.1-.6 2.5-.3 3.7-.5 1-.1 1.8-1 1.8-2 0-1.1-.8-2-1.2-3.1-.4-.8-.3-1.7.1-2.4.5-.9 1.1-1.8 1-2.8-.1-1.1-1.2-2-2.3-2-1.1-.1-2.5.2-3.4-.5-1.1-.7-1.3-2-2.3-2.8-.3-.5-1-.7-1.8-.6"/></clipPath><clipPath id="e"><path d="m150 0h25v24h-25z"/></clipPath><clipPath id="f"><path d="m60.5 15.1c3.6-.5 7.3.3 10.4 2.2 3.9 2.3 6.9 6.2 8.2 10.6 1.5 4.8 1.1 10.2-1 14.7-1.9 3.9-5.1 7.2-9 8.9-3.5 1.5-7.5 1.8-11.2.7-3.8-1.1-7-3.6-9.3-6.9-2.6-3.8-3.8-8.5-3.5-13.1s2.4-9.2 5.7-12.4c2.6-2.5 6-4.2 9.7-4.7m.1 9.6c-1.9.4-3.6 1.5-4.8 3.1-1.6 1.9-2.4 4.5-2.2 6.9.2 2.8 1.5 5.5 3.7 7.2 1.8 1.4 4.3 2.1 6.6 1.7 2.4-.4 4.6-1.9 5.9-3.9 1.4-2.1 2-4.8 1.5-7.3-.4-2.7-2.1-5.3-4.4-6.7-1.8-1.1-4.1-1.5-6.3-1"/></clipPath><clipPath id="g"><path d="m-396-2498h1920v4619h-1920z"/></clipPath><clipPath id="h"><path d="m0 17h3.9c5.4 6.3 10.8 12.5 16.1 18.8 5.4-6.1 10.8-12.2 16.2-18.3h3.8v34.5c-3.4 0-6.8 0-10.2 0 0-4 0-7.9 0-11.9-3.2 3.3-6.5 6.7-9.7 10.1-3.2-3.4-6.3-6.9-9.5-10.3v12c-3.5 0-7.1 0-10.6 0 0-11.7 0-23.3 0-34.9z"/></clipPath><clipPath id="i"><path d="m-396-2498h1920v4619h-1920z"/></clipPath><clipPath id="j"><path d="m84 17h3.7c5.9 5.1 11.8 10.2 17.7 15.2 0-5 0-10.1 0-15.1h9.6v34.7c-1.1 0-2.1 0-3.2 0-6.2-5.3-12.3-10.6-18.5-15.8v16c-3.1 0-6.2 0-9.4 0 .1-11.7.1-23.3.1-35z"/></clipPath><clipPath id="k"><path d="m-396-2498h1920v4619h-1920z"/></clipPath><clipPath id="l"><path d="m119 17h28v8.4c-3 0-6 0-9 0v26.6c-3.3 0-6.6 0-9.9 0 0-8.8 0-17.7 0-26.5-3 0-6.1 0-9.1 0 0-2.8 0-5.7 0-8.5z"/></clipPath><clipPath id="m"><path d="m-396-2498h1920v4619h-1920z"/></clipPath><clipPath id="n"><path d="m118.3 58h28.4v37h-28.4z"/></clipPath><clipPath id="o"><path d="m-396-2498h1920v4619h-1920z"/></clipPath><clipPath id="p"><path d="m118 57h29v39h-29z"/></clipPath><clipPath id="q"><path d="m134.4 58.3c3.9-.5 7.9-.2 11.8.4-.3 2.7-.6 5.3-.9 8-1.9-.4-3.8-.6-5.7-.6-2.4 0-4.8.8-6.9 2.1s-3.8 3.3-4.4 5.8c-.7 2.9-.1 6.2 1.9 8.6 1.8 2.2 4.5 3.7 7.4 4.3 3 .5 6 .2 9-.1 0 2.6.2 5.2 0 7.8-3.7.6-7.5.8-11.2.4-2.3-.3-4.6-.8-6.6-1.9-2.8-1.4-5.3-3.4-7.2-5.9-2-2.6-3.2-5.9-3.3-9.1-.1-3.4.4-7 2-10.1 1-2.1 2.6-3.8 4.5-5.2 1.3-1 2.8-1.8 4.3-2.7 1.6-1.2 3.5-1.6 5.3-1.8"/></clipPath><clipPath id="r"><path d="m118 58h29v37h-29z"/></clipPath><clipPath id="s"><path d="m30.1 59h10v27.4h8v8.6c-6 0-12 0-18 0-.1-12 0-24 0-36"/></clipPath><clipPath id="t"><path d="m-396-2498h1920v4619h-1920z"/></clipPath><clipPath id="u"><path d="m63.7 59h4.6l14.7 36c-3.6 0-7.1 0-10.7 0-2.1-5.1-4.1-10.3-6.2-15.4-2.3 5.2-4.6 10.3-6.9 15.4-3.4 0-6.8 0-10.2 0 4.9-12 9.8-24 14.7-36"/></clipPath><clipPath id="v"><path d="m-396-2498h1920v4619h-1920z"/></clipPath><clipPath id="w"><path d="m0 59.1h27.8v35.7h-27.8z"/></clipPath><clipPath id="x"><path d="m-396-2498h1920v4619h-1920z"/></clipPath><clipPath id="y"><path d="m-1 59h30v36h-30z"/></clipPath><clipPath id="z"><path d="m0 59.1h18.6c2.7.2 5.5 1.5 7 3.8 1.4 2.2 1.5 5 1 7.4-.4 2.4-2 4.9-4.5 5.8 2.6.7 4.6 2.9 5.2 5.3.6 2.2.5 4.5-.2 6.7-.8 2.3-2.6 4.2-4.8 5.3-1.6.8-3.5 1.3-5.3 1.4-5.7 0-11.4 0-17.1 0 .1-11.9.1-23.8.1-35.7m10.1 6.3v7.2c1.7 0 3.4.1 5.2.1 1.2 0 2.4-.6 2.9-1.7s.5-2.5 0-3.6c-.5-1.2-1.8-1.9-3-1.9-1.7 0-3.4 0-5.1-.1m-.3 14.2v7.3h5.1c1.4-.2 2.9-1.1 3.3-2.5.4-1.2.2-2.7-.8-3.7-.9-.8-2.2-1.2-3.4-1.2-1.4 0-2.8 0-4.2.1"/></clipPath><clipPath id="A"><path d="m0 59h28v36h-28z"/></clipPath><clipPath id="B"><path d="m84 60h3.7c5.9 5.1 11.8 10.2 17.7 15.2 0-5 0-10.1 0-15.1h9.6v34.8c-1.1 0-2.1 0-3.2 0-6.2-5.3-12.3-10.6-18.5-15.9v16c-3.1 0-6.2 0-9.4 0 .1-11.7.1-23.3.1-35"/></clipPath><clipPath id="C"><path d="m-396-2498h1920v4619h-1920z"/></clipPath><g clip-path="url(#a)"><g clip-path="url(#b)" enable-background="new"><g clip-path="url(#c)"><g clip-path="url(#d)"><path clip-path="url(#e)" d="m145.4-5h34.1v33.6h-34.1z" fill="#fff"/></g></g></g></g><g clip-path="url(#f)"><path clip-path="url(#g)" d="m40 10h45v48h-45z" fill="#fff"/></g><g clip-path="url(#h)"><path clip-path="url(#i)" d="m-5 12h50v45h-50z" fill="#fff"/></g><g clip-path="url(#j)"><path clip-path="url(#k)" d="m79 12h41v45h-41z" fill="#fff"/></g><g clip-path="url(#l)"><path clip-path="url(#m)" d="m114 12h38v45h-38z" fill="#fff"/></g><g clip-path="url(#n)"><g clip-path="url(#o)" enable-background="new"><g clip-path="url(#p)"><g clip-path="url(#q)"><path clip-path="url(#r)" d="m113.3 53h38.4v47h-38.4z" fill="#fff"/></g></g></g></g><g clip-path="url(#s)"><path clip-path="url(#t)" d="m25 54h28v46h-28z" fill="#fff"/></g><g clip-path="url(#u)"><path clip-path="url(#v)" d="m44 54h44v46h-44z" fill="#fff"/></g><g clip-path="url(#w)"><g clip-path="url(#x)" enable-background="new"><g clip-path="url(#y)"><g clip-path="url(#z)"><path clip-path="url(#A)" d="m-5 54.1h37.8v45.7h-37.8z" fill="#fff"/></g></g></g></g><g clip-path="url(#B)"><path clip-path="url(#C)" d="m79 55h41v45h-41z" fill="#fff"/></g></svg>