<svg enable-background="new 0 0 139.5 79.3" viewBox="0 0 139.5 79.3" xmlns="http://www.w3.org/2000/svg"><path d="m15.2 27.9 22.8 33.6h4.2v-43.8h-5.1v33.3l-22.1-32.5-.5-.9h-2.4v-.1.1h-1.9v43.8h5.1zm60.3 16.1c7.7-4.6 10.7-8.7 10.7-14.4 0-7.7-5.2-12.8-13.3-12.8-6.1 0-11.7 3.6-14.1 9.2l-.8 1.7 4.6 2.1.8-1.6c1.6-3.9 5.3-6.4 9.5-6.4 5.1 0 8.2 2.9 8.2 7.7 0 3.1-1.4 5.9-8.1 10.1-12 7.4-14.7 10.7-15 18.6v3.3h28.1v-5.1h-22.8c.4-3.9 2.2-6.3 12.2-12.4zm39.3-10.9c-3.8.1-7.5 1.5-10.4 3.8.8-9.5 5-15 11.4-15 2.8-.1 5.7 1 7.7 3.1l1.5 1.3 3.3-3.9-1.5-1.3c-3-2.7-7-4.2-11-4.2-10.2 0-16.6 8.9-16.6 23.5 0 16.2 8.1 22 15.6 22 9.5 0 14.6-7.6 14.6-15 0-10.6-7.9-14.3-14.6-14.3zm9.6 14.1c0 5-3.3 10.1-9.5 10.1-4.2 0-9.5-3.6-10.4-13.7 1.8-2.2 5.8-5.5 10.5-5.5 8.3-.1 9.4 6.4 9.4 9.1zm-114.3 20.1h32.1v3.7h-32.1zm.1-59h32.1v3.8h-32.1z" fill="#fff"/></svg>