<svg enable-background="new 0 0 325 81.9" viewBox="0 0 325 81.9" xmlns="http://www.w3.org/2000/svg" xmlns:xlink="http://www.w3.org/1999/xlink"><clipPath id="a"><path d="m0 0h83.9v81.9h-83.9z"/></clipPath><clipPath id="b"><path d="m-1198-2511.1h1920v4619h-1920z"/></clipPath><clipPath id="c"><path d="m-1-1.1h85v84h-85z"/></clipPath><clipPath id="d"><path d="m41.9 0h40.1c1.9 0 1.9 0 1.9 1.9v78.3c0 1.7 0 1.7-1.7 1.7-27 0-54 0-81.1 0-.2 0-.4 0-.5 0-.5.1-.6-.2-.6-.7 0-.2 0-.5 0-.7v-79-.1c0-1.5-.2-1.4 1.4-1.4zm0 77.4h34.7c2.3 0 2.3 0 2.3-2.3 0-22.8 0-45.5 0-68.3 0-.4 0-.7 0-1.1-.1-1.2-.2-1.3-1.4-1.3-23.7 0-47.3 0-71 0-1.5.1-2 .6-2 2v69c0 1.5.4 1.9 1.9 1.9 11.9.1 23.7.1 35.5.1"/></clipPath><clipPath id="e"><path d="m0-.1h84v82h-84z"/></clipPath><clipPath id="f"><path d="m123 13.6c-1 0-2 0-3 0-.5 0-.8.1-.8.8v5.6c0 .6.1.9.8 1 .3 0 .9-.1.8.5 0 .2-.5.4-.8.4-1.8 0-3.5 0-5.3 0-.3 0-.6 0-.7-.5 0-.4.2-.4.5-.5.2-.1.3-.3.4-.5.1-.1.1-.4.2-.4.6-.2.5-.6.5-1 0-1.5 0-3 0-4.4 0-2.3 0-4.7 0-7 0-.9-.5-1.5-1.2-1.9-.5-.3-.4-.6-.4-1s.2-.7.6-.7h5.6c.2 0 .4.1.5.3 0 .1-.1.4-.2.5-.3.3-.4.9-1.1.9-.1 0-.2.3-.2.5v5.3c0 .4.2.6.6.6h6.6c.4 0 .6-.2.6-.6 0-1.6 0-3.2 0-4.9 0-.5-.2-.8-.8-.9-.4-.1-.8-.1-.8-.7 0-.7.1-.9.8-.9h5.2c.2 0 .7.2.7.4.1.4.1.9-.4 1.1-.2.1-.4.2-.6.2-.4 0-.5.3-.5.6v1.1 11.7.9c0 .6.2 1.1.9 1.1.1 0 .3 0 .4.1s.3.3.3.4-.2.3-.4.4-.5.1-.7.1c-1.5 0-3 0-4.5 0-.2 0-.5 0-.7-.1s-.3-.3-.4-.4c0-.1.1-.3.2-.4 1.1-.4 1.5-1.2 1.4-2.4-.1-1.4 0-2.8 0-4.2 0-.6-.2-.8-.8-.8-1.2-.3-2.3-.3-3.3-.3"/></clipPath><clipPath id="g"><path d="m-1198-2511.1h1920v4619h-1920z"/></clipPath><clipPath id="h"><path d="m123.5 67.1h2.8c1.2 0 1.4-.2 1.4-1.4 0-.9 0-1.8 0-2.7 0-1.1-.3-1.9-1.3-2.5-.3-.1-.3-.8-.3-1.1 0-.5.4-.4.7-.4h5.3c.2 0 .4.1.6.2-.1.2-.2.4-.3.6-.2.4-.4.9-1 .9-.1 0-.2.3-.2.4-.1.5-.1 1-.1 1.5v10.8 1.2c.1 1.2.1 1.2 1.2 1.4.2.1.4.3.6.5-.2.1-.4.3-.6.3-2.1 0-4.1 0-6.2 0-.1 0-.3-.1-.4-.1-.1-.1-.2-.2-.3-.2l.3-.3c.1-.1.2-.1.3-.1 1 .2.9-1 1.6-1.2.1 0 .1-.5.1-.7 0-1.5 0-3 0-4.5 0-1.1-.7-1.7-1.7-1.7-1.7 0-3.4 0-5.1 0-1 0-1.7.7-1.7 1.7v4.4c0 .5.3.8.6 1.3.3.4.5.8 1 .8.1 0 .2.1.3.1l.3.3c-.1.1-.2.2-.3.2-.2.1-.5.1-.7.1-1.8 0-3.7 0-5.5 0-.1 0-.3 0-.4-.1-.2-.1-.3-.2-.5-.3.2-.1.3-.4.5-.4.3-.1.9-.1 1-.3.2-.4.3-.9.3-1.3 0-4.1 0-8.2 0-12.3 0-.3 0-.7-.1-1-.1-.2-.3-.5-.4-.5-.7 0-.6-1-1.1-1.1.1-.2.2-.5.3-.5.3-.1.6 0 .9 0h4.7c.3 0 .7-.1.7.4 0 .4.1.9-.4 1.2-.7.4-1.2 1.3-1.2 2.1v3.2c0 1 .2 1.2 1.2 1.2 1.1 0 2.1-.1 3.1-.1z"/></clipPath><clipPath id="i"><path d="m-1198-2511.1h1920v4619h-1920z"/></clipPath><clipPath id="j"><path d="m280 67.1h3c.8 0 .9-.1.9-.9 0-1.6 0-3.3 0-4.9 0-.4-.1-.6-.5-.8s-.7-.7-1-1.2c0-.1.1-.3.2-.4s.3 0 .4 0h5.4c.3 0 .7 0 .7.4s.1.9-.4 1.1h-.1c-1.1 0-1.1.9-1.1 1.7v11.9c0 1 .7 1.4 1.2 1.9.2.1.3.3.4.5-.2.1-.3.4-.5.4-2 0-3.9 0-5.9 0-.1 0-.3-.3-.4-.4.1-.1.3-.3.4-.4.4-.1.9 0 1-.3.2-.4.2-.9.2-1.4 0-1.8 0-3.6 0-5.4 0-1.1-.1-1.1-1.1-1.1-1.9 0-3.8 0-5.7 0-.6 0-.9.2-.9.9v6.4c0 .7.2.9.8.9.1 0 .3 0 .4.1.2.1.3.2.4.4-.2.1-.3.4-.5.4-2 0-3.9 0-5.9 0-.2 0-.3-.3-.5-.4.2-.2.3-.4.5-.5.6-.3 1.2-1.2 1.2-1.9 0-4 0-8 0-11.9 0-1.3 0-1.3-1.2-1.7-.7-.2-.4-.7-.4-1.1 0-.5.3-.5.7-.5h5.4c.2 0 .4.2.6.2-.1.2-.2.5-.3.6-.4.2-.3 1.1-1.1 1 0 0-.2.3-.2.5v5.3c0 .6.3.6.8.6z"/></clipPath><clipPath id="k"><path d="m-1198-2511.1h1920v4619h-1920z"/></clipPath><clipPath id="l"><path d="m312.7 58.9h4.1c.4 0 .9-.1 1.1.5 0 .1.3.2.5.2.6.1 1.2-.1 1.5.7.1.3.9.1.9.7.9.2.7 1.2 1.2 1.7.4.4.2 1.8-.2 2.3-.1.1-.2.2-.2.2.2 1.1-.7 1.5-1.3 2.1-.3.3-.8.3-1.1.5-.2.1-.4.2-.4.3 0 .2.2.4.3.5.4.1.4.3.5.6.1.5 0 1.1.8 1.3.1 0 .1.4.2.6.1.4 0 1.1.7 1.2.1 0 .2.1.2.1 0 .8.5 1.3.9 1.9.2.2.2.7.6.6.1 0 .2 0 .2.1.1 1 .8.7 1.4.9.2 0 .4.3.4.4s-.2.4-.4.4c-.7.1-1.3.1-2 .1-1.1 0-2.1 0-3.2 0-.5 0-.8-.1-.8-.7 0-.5.2-1.1-.7-1.2-.1 0-.1-.3-.2-.5-.1-.6 0-1.2-.7-1.5-.2-.1-.2-.6-.2-.9-.1-.5-.1-1.1-.7-1.4-.1-.1-.2-.2-.2-.3 0-.4-.1-.7-.6-.7-.1 0-.3-.2-.4-.3-.1-.4-.3-.5-.7-.5-1.1-.1-1.2-.1-1.2 1v4.4c0 .3.1.6.1 1 0 .5.2.7.7.7.2 0 .4 0 .6.1.1.1.4.3.3.3-.1.2-.2.3-.4.4s-.4.1-.6.1c-1.9 0-3.7 0-5.6 0-.2 0-.4 0-.5-.1-.3-.1-.5-.3-.8-.4.2-.1.5-.3.7-.4.5-.1 1-.1 1-.8 1.1-.4.7-1.4.7-2.1 0-3.5 0-6.9 0-10.4 0-1.1-.5-1.8-1.4-2.2-.5-.3-.3-.7-.3-1.1s.4-.5.7-.5c1.7.1 3.1.1 4.5.1zm.5 5.3v3c0 .2.2.6.4.6.6 0 1.3.1 1.9-.1.5-.2 1.2-.5 1.4-1s.6-.5.9-.8c.2-.3.2-.8.3-1.2 0-.1.2-.2.4-.4.4-.4.4-.6 0-1-.1-.1-.4-.2-.4-.3-.1-.7 0-1.5-1-1.7 0-.8-.6-.7-1.1-.7-.6-.1-1.2-.1-1.9-.1-.6 0-.8.3-.8.8-.1 1-.1 1.9-.1 2.9z"/></clipPath><clipPath id="m"><path d="m-1198-2511.1h1920v4619h-1920z"/></clipPath><clipPath id="n"><path d="m221.4 72.2v2.9c0 .6.2.9.8.9.3 0 .9-.2.9.4s-.6.4-.9.5c-1.8 0-3.6 0-5.5 0-.2 0-.4 0-.6-.1-.1 0-.2-.3-.1-.4.1-.2.2-.4.4-.4.8-.2 1-.9 1.3-1.5.1-.3.1-.7.1-1.1 0-3.4 0-6.9 0-10.3 0-.4 0-.7 0-1.1 0-.8-.3-1.4-1.1-1.5-.7-.1-.5-.6-.5-1.1s.3-.6.7-.6h8.2c.2 0 .5.1.5.2.2.6.6.5 1 .6.5.1 1-.1 1.2.6 0 .2.6.3 1 .3s.5.2.6.6c.1.5-.1 1.1.7 1.4.4.1.2 2.9-.2 3.3-.2.2-.3.4-.5.6-.1.2-.3.4-.4.5s-.4.1-.4.2c-.1.8-.7.8-1.2.9-.2 0-.3.1-.4.2.1.2.2.3.3.5 0 0 .2 0 .2.1.3.6.7 1.1 1 1.7.2.5 0 1.1.8 1.3.1 0 .1.4.2.6.1.5-.1 1.1.7 1.1 0 0 .1.1.1.2.1.4.1.9.3 1.2s.8.2.8.8c0 .1.4.2.6.2.3.1.6 0 .8.1.1 0 .2.3.2.4s-.1.3-.2.3c-.2.1-.4.1-.6.1-1.5 0-3.1 0-4.6 0-.5 0-.8-.2-.8-.8 0-.4-.1-.8-.1-1.2 0-.2 0-.5-.1-.5-.7-.3-.5-1-.8-1.5-.4-.7-.9-1.3-.9-2.2-.9 0-.6-1.3-1.5-1.3-.1-.8-.8-.7-1.3-.7s-.6.2-.6.6c-.1 1.2-.1 2.1-.1 3zm0-8v2.9c0 .2.1.5.2.7.3.3 2.2 0 2.4-.4s.4-.4.8-.5c.7-.1 1.1-.4 1.1-1.2 0-.2.1-.4.2-.5 1.1-.5.6-1.5.6-2.3 0-.1-.1-.4-.2-.4-.7-.3-.7-1.1-1.3-1.5-.2-.1-.4-.4-.7-.5-.6 0-1.3-.1-1.9-.1-1 0-1 0-1.1 1s-.1 1.9-.1 2.8"/></clipPath><clipPath id="o"><path d="m-1198-2511.1h1920v4619h-1920z"/></clipPath><clipPath id="p"><path d="m134.4 49.9c-1.7 0-3.4 0-5.2 0-.3 0-.6 0-.9-.1-.1 0-.3-.3-.3-.4s.1-.3.2-.4h.1c1.3-.5 1.3-.5 1.3-1.9 0-4.1 0-8.2 0-12.2 0-1.1 0-1.1-1-1.3-.7-.1-.6-.5-.6-1 0-.6.3-.6.7-.6h7.9c.2 0 .4 0 .5.1.7.8 1.7.6 2.5.7.5.1 1.1-.1 1.2.7 0 .1.5.2.8.2.3.1.7.1.8.5 0 .1.3.2.4.3s.3.1.4.2c.1.4.3.8.8.8 0 .9 1.3 1.2 1.1 2.2 0 .1.1.4.2.5.7.3.6.9.6 1.5v4c0 .2-.1.7-.2.7-.8.2-.6.9-.7 1.4 0 .2-.2.5-.3.5-.4.1-.4.6-.6.7-.6.3-.6 1.3-1.4 1.3-.1 0-.3.2-.3.3-.1.5-.4.5-.7.6-.4 0-.8.1-1 .6-.1.2-.5.3-.8.3-1.7-.2-3.6-.2-5.5-.2zm-1.3-9.2v5.6c0 .7-.3 1.6.7 1.9.1.9.8.7 1.3.7h2.2c.7-.1 1.6.2 1.9-.8 0-.1.2-.1.3-.1.3 0 .5-.1.6-.5 0-.1.3-.2.4-.4.1-.1.3-.3.4-.4.2-.2.3-.4.5-.6.1-.1.3-.2.3-.4.1-.6 0-1.3.7-1.6.1 0 .1-.4.1-.6 0-1.8.6-3.6-.6-5.3-.2-.3-.2-.8-.3-1.1-.2-.5-.6-.9-.7-1.4-.1-.6-1.1-.4-.9-1.2-.9 0-1.4-1-2.2-1.1-1.2-.1-2.5-.1-3.7-.1-.8 0-.8 0-.8.9-.2 2.3-.2 4.4-.2 6.5z"/></clipPath><clipPath id="q"><path d="m-1198-2511.1h1920v4619h-1920z"/></clipPath><clipPath id="r"><path d="m224.6 49.9c-1.8 0-3.5 0-5.3 0-.3 0-.7 0-1-.1-.1 0-.3-.3-.3-.4s.2-.2.3-.4h.1c.4-.1 1 0 1.1-.3.2-.4.2-1 .2-1.5 0-4.2 0-8.3 0-12.5 0-1.1 0-1.1-1-1.3-.6-.1-.6-.5-.7-1 0-.6.3-.6.7-.6h8.4c.2 0 .6 0 .7.1.6.7 1.4.6 2.2.6.4 0 .8 0 1 .5.1.2.6.3.9.4s.6.1.8.5c.2.5.7.9 1.2 1.2.3.2.4.2.5.6 0 .2.2.3.4.4.1.1.2.1.3.1.3.8.8 1.6.9 2.4.1 1.8.1 3.6.1 5.4 0 .4-.2.8-.5 1.2-.4.5-.8 1-1.2 1.6-.3.5-.8.8-1.2 1.3-.3.3-.5.7-.8.8-.4.1-.6.3-.9.6-.2.3-.7.3-1.1.3-2 .1-3.9.1-5.8.1zm-1.5-9.3v6.1c0 .5-.1 1.2.7 1.4.1 0 .2.2.2.3 0 .5.3.5.6.5h3.9c.3 0 .6 0 .6-.4 0-.1.1-.3.2-.3.9-.1 1.2-.9 1.8-1.5.4-.4.5-1 .8-1.3.7-.5.7-1.1.7-1.8 0-1.5 0-3 0-4.4 0-1.1-1.2-1.7-1.1-2.8 0 0-.1 0-.2-.1-.4-.4-1-.8-1.3-1.3-.2-.3-.3-.5-.7-.5-.1 0-.3-.1-.3-.2 0-.7-.5-.6-.9-.6-1.4-.1-2.9-.1-4.3-.1-.6 0-.8.2-.7.8z"/></clipPath><clipPath id="s"><path d="m-1198-2511.1h1920v4619h-1920z"/></clipPath><clipPath id="t"><path d="m153 68v2.3c0 .5.1 1.2-.6 1.4-.1.1-.2.5-.2.8-.1.4 0 .9-.7 1.1-.4.1-.1 1-.8.9 0 .8-1.1.7-1.1 1.5 0 .1-.1.2-.1.2-1-.1-1.6 1.2-2.6 1-.6-.1-1.1.2-1.7.6-.4.3-1.2.2-1.8.2-.5 0-1 .1-1.5-.5-.2-.3-.8-.2-1.1-.3-.5-.1-1.2.1-1.4-.7-.8.1-.8-1.1-1.5-1.1 0-.8-1.1-.7-1.1-1.5-.9-.3-.6-1.3-.9-1.8-1.3-1.6-.5-3.4-.7-5.2 0-.3 0-.6 0-.9 0-.2 0-.5.1-.5.7-.3.6-1 .7-1.6 0-.1 0-.2.1-.3.9-.8 1.5-2 2.5-2.7.7-.5 1.2-1.4 2.2-1.2.4.1 1 0 1.2-.6 0-.1.4-.2.5-.2h3.9c.2 0 .5 0 .5.2.2.7.8.6 1.4.7.5.1 1.1 0 1.3.7.8 0 .8 1 1.4 1.2.2.1.2.7.4.8.8.2.7.8.8 1.4 0 .1 0 .3.1.3 1.2.5.6 1.7.7 2.5zm-3.5 0c0-.7 0-1.3 0-2 0-.2 0-.6-.1-.6-.9-.4-.6-1.2-.7-1.9-.1-.3-.2-.8-.3-.8-.6-.2-.4-1.4-1.3-1.3 0-.9-.7-.7-1.2-.8-.2 0-.4-.1-.5-.2-.3-.9-.9-.6-1.5-.6-.5 0-.9.1-1.2.6-.3.3-.9.4-1.4.5-.1 0-.1.2-.2.3-.4.6-1.1 1.1-1.1 2 0 .1-.1.2-.1.2-.9.1-.6.9-.7 1.4-.1.6.1 1.3-.6 1.5-.1 0-.1.3-.1.5v3.3c0 .2.1.5.2.6.6.2.5.7.5 1.2.1.7-.2 1.6.8 1.8v.1c.2 1.1 1.3 1.4 1.8 2.3 0 .1.2.1.4.1 1.1.2 2.3.3 3.4 0 .1 0 .4-.1.4-.1 0-.9.9-.9 1.4-1.5.8-1.1 1.2-1.4 1.3-2.7.1-.4 0-1 .6-1.2.1 0 .2-.4.2-.7 0-.6 0-1.3 0-2z"/></clipPath><clipPath id="u"><path d="m-1198-2511.1h1920v4619h-1920z"/></clipPath><clipPath id="v"><path d="m193 68v2.5c0 .5.1 1.1-.6 1.4-.1 0-.2.4-.2.6-.1.5 0 1.2-.7 1.2.1.7-.8.7-1 1.3 0 .1-.3.2-.4.4-.2.1-.3.3-.5.4-.1.1-.1.3-.1.3-1-.1-1.5 1.1-2.5 1.1-.7 0-1.3.2-1.9.6-.7.4-1.6.4-2.4-.1-.1-.1-.3-.3-.4-.3-1.2 0-2.3-.6-3.4-1.1-.2-.1-.5-.2-.5-.4-.1-.3-.2-.5-.5-.5-.1 0-.2-.1-.3-.1-.1-.5-.2-.8-.8-.8-.1-.8-1.3-1.1-1-2.2 0-.2 0-.5-.1-.5-.8-.3-.6-1-.6-1.6 0-.9 0-1.9 0-2.8 0-.7-.2-1.5.6-2 .1-.1.1-.4.1-.6.1-.5-.1-1.2.7-1.2 0-.8.7-1 1.1-1.4.4-.5.7-1.3 1.4-1.3.1 0 .3-.1.3-.2.3-.5.8-.5 1.2-.6.5-.1 1.1.1 1.4-.7 0-.1.4-.1.6-.1h3.8c.3 0 .5 0 .8.4.1.2.6.3.9.4.6.1 1.3 0 1.7.8.8-.1.8 1 1.5 1.1.1.8 1.3 1.1 1.1 2.1 0 .1.1.5.2.5.8.1.6.8.6 1.3-.1.4-.1 1.2-.1 2.1zm-3.5.4c0-.1 0-.1 0-.2 0-1.2.2-2.5-.7-3.6-.1-.1-.1-.3-.1-.4-.1-.7.1-1.5-.8-1.9-.1 0 0-.3-.1-.4 0-.1-.1-.3-.2-.3-.7-.3-1-1.2-1.9-1.1-.1 0-.2-.1-.3-.2-.6-.6-1.9-.6-2.5-.1-1.1.9-2.4 1.6-2.9 3.2 0 0-.1.1-.1.1-.7.1-.5.7-.6 1.2-.2.9.1 2-.7 2.7-.1.1-.1.3-.1.5.1.8-.3 1.7.6 2.3.1.1.1.4.1.6.1.5.1 1.1.2 1.6 0 .3.1.6.3.8.6.6 1 1.2 1.4 2 .1.1.2.1.3.2.2.1.3.3.5.4s.3.4.5.4h3.4c.2 0 .5-.1.5-.2 0-.7.6-.6.9-.7.5-.1.7-.3.7-.8 0-.3.2-.8.3-.8.6-.2.4-.6.5-1 .1-.3.1-.8.3-1 .4-.2.4-.6.5-1 0-.8 0-1.6 0-2.3z"/></clipPath><clipPath id="w"><path d="m-1198-2511.1h1920v4619h-1920z"/></clipPath><clipPath id="x"><path d="m200.8 41.9v5.2c0 .8.5 1.5 1.4 1.9.2.1.3.3.4.5 0 .1-.3.3-.4.3-1.2 0-2.4 0-3.6 0-.2 0-.3-.3-.5-.4.1-.1.3-.3.4-.4.4-.1 1-.1 1.1-.3.2-.4.3-1 .3-1.5 0-4 0-8 0-12 0-.3-.1-.6 0-.9 0-.5-.1-.8-.7-.8-.5 0-.8-.2-.9-.8-.1-.7 0-.9.7-.9h4.6c.3 0 .5.2.8.4.6.6 1.1 1.1 1.1 1.9.6.2.7.9 1 1 .6.3.6.8.7 1.2.1.2.3.4.5.6.1.2.3.4.4.5s.2.4.4.4c.4.1.5.2.5.6 0 .1.2.4.3.4.5 0 .4.3.6.7.1.4.4.7.6 1 .4.6 1.1.9 1.3 1.6 0 .1.3.4.4.3.2-.1.4-.3.5-.5.1-.1 0-.3 0-.4 0-2.2 0-4.5 0-6.7 0-.6.2-1.5-.9-1.6-.3 0-.6-.6-.8-1-.1-.1.1-.5.2-.5h4.5c.1 0 .2.4.3.5-.5.2-.5 1.1-1.2 1.1-.1 0-.3.3-.4.5-.1.5-.1 1-.1 1.5v13c0 1.1 0 1.1-.9 1.2s-1.4-.2-1.7-.9c-.1-.4-.1-.8-.7-.9-.2 0-.2-.6-.4-.8-.4-.2-.6-.7-.9-.9-.5-.5-.8-.9-.9-1.6 0-.1-.2-.2-.3-.2s-.3 0-.3-.1c-.1-.6-.6-.9-1-1.3-.4-.3-.7-.8-.9-1.2-.2-.5-.3-1-.9-1.2.1-.8-1.2-.7-1.1-1.6-.9-.2-.6-1.3-1-1.5-.7-.4-.6-1.4-1.5-1.4 0 0-.1 0-.1-.1-.2-.2-.4-.4-.6-.6-.1.3-.2.7-.2 1-.2 2.2-.1 4-.1 5.7z"/></clipPath><clipPath id="y"><path d="m-1198-2511.1h1920v4619h-1920z"/></clipPath><clipPath id="z"><path d="m258.4 42.3v4.3 1c.1 1.2.1 1.2 1.3 1.5.2 0 .3.3.5.4-.2.1-.3.4-.5.4-1.4 0-2.8 0-4.3 0-.2 0-.4-.2-.5-.4.2-.1.3-.4.5-.4 1.2-.3 1.2-.3 1.4-1.5 0-.4 0-.7 0-1.1 0-3.5 0-7 0-10.5 0-.6-.1-1.1-.1-1.7 0-.4-.1-.6-.5-.8-.5-.2-.8-.7-1.1-1.1 0-.1.1-.4.2-.4.2-.1.5-.1.8-.1h4.2c.5 0 .8.1 1.2.5s.6.9 1 1.1c.5.4.6.9.8 1.4.1.2.3.2.4.4.1.1.3.3.4.4.2.2.3.4.5.6.1.2.3.3.3.5.1.5.2 1 .8 1.2.1 0 .1.3.2.5s.3.3.4.5.3.3.5.5c.6.6.8 1.3 1.3 1.9.2.3.5.7.8 1.1.2.3.8.2.9.7.1.3.5.2.6-.1.1-.2.1-.5.1-.7 0-2.3 0-4.6 0-6.9 0-.9-.6-1.5-1.3-1.8-.6-.3-.4-.9-.4-1.3 0-.1.4-.3.7-.3h3c.4 0 .8 0 .7.6 0 .4.1.9-.5 1-.3.1-.9.1-1 .3-.2.3-.1.8-.1 1.3v12.3 1.6c0 .3.2.8-.4 1-.7.1-1.1 0-1.4-.6-.3-.4-1.1-.4-1-1.1-.9-.6-1.5-1.5-1.8-2.5 0-.1-.2-.2-.3-.3-.3 0-.5-.2-.5-.5 0-.2-.3-.3-.4-.5h-.2c-.4-.6-.8-1.2-1.1-1.8-.2-.3-.1-.7-.6-.8-.1 0-.2-.3-.3-.5-.1-.1-.1-.4-.2-.5-.8-.5-1.5-1.2-1.7-2.2 0-.2-.2-.4-.4-.4-.4-.1-.4-.3-.5-.6 0-.1-.2-.3-.3-.3-.4 0-.5-.3-.6-.6 0-.2-.4-.4-.5-.4-.2 0-.4.3-.5.5-.1.3-.1.6-.1.9-.4 1.2-.4 2.7-.4 4.3"/></clipPath><clipPath id="A"><path d="m-1198-2511.1h1920v4619h-1920z"/></clipPath><clipPath id="B"><path d="m199.1 68.7c0 1 .1 2 .1 3 0 .7-.1 1.6.7 2 0 .8.6 1.2 1 1.5s.7.9 1.1 1c.9.2 1.9.2 2.8.2.2 0 .3-.1.5-.1.9.1 1.5-.3 1.6-1.3 0-.1 0-.3.1-.3 1.2-.6.4-1.7.6-2.6 0-.1-.1-.3-.1-.3-.7 0-.5-1.2-1.3-1.1 0 0-.1-.7-.1-1.1s.3-.5.6-.5h3.7 1.5c.8 0 1.1.6.8 1.3-.1.2-.3.3-.6.3-1 .3-1 .3-1.1 1.4v2.5c0 .3-.1.5-.4.7-.7.4-1.2 1.1-2 1-.5 1.1-1.5.6-2.3.8-.5.1-.9.2-1.4.5-.6.3-1.6.4-2.2.1-.5-.3-1-.5-1.6-.5-.5-.1-1.1.1-1.5-.6-.1-.2-.5-.3-.8-.3s-.5-.1-.6-.5c0-.2-.2-.4-.4-.4-.3 0-.5-.2-.5-.5 0-.1-.1-.3-.1-.3-.8.1-.6-1.2-1.3-1.2 0 0-.1-.1-.1-.1.1-1.4-1.3-2.4-1-4 .1-.6 0-1.3 0-2 0-.5 0-1 .5-1.5.3-.2.2-.8.3-1.2.1-.5 0-1.1.6-1.2 0-.9 1.1-.8 1.1-1.7.7 0 .7-1.1 1.5-1.2.2 0 .3-.4.5-.5.4-.2.8-.3 1.2-.4s1 .1 1.2-.6c0-.1.3-.2.5-.2h3.6c.2 0 .6.1.6.3.2.6.7.5 1.1.5.6 0 1.2 0 1.8-.1.5 0 .8.1.8.7v3.3c0 .3 0 .7-.5.7-.4 0-.4-.3-.4-.6-.1-.5.1-1.2-.7-1.2.1-.9-1-.8-1.1-1.5 0-.1-.4-.3-.6-.3-.5-.1-1-.1-1.5-.6-.2-.3-.8-.2-1.3-.3-.4 0-.9-.1-1.1.5 0 .1-.1.2-.2.2-.4.1-.8 0-1.1.2s-.5.5-.7.8c-.1.1-.4.3-.4.4.1.7-.7.4-.8.9-.1.4-.1 1.1-.3 1.2-.8.4-.6 1.1-.6 1.7v3z"/></clipPath><clipPath id="C"><path d="m-1198-2511.1h1920v4619h-1920z"/></clipPath><clipPath id="D"><path d="m110.7 42.2v5.4c0 1.1 0 1.2 1.1 1.4.3.1.6.1.5.5 0 .2-.3.4-.5.4-1.1 0-2.2 0-3.3 0-.2 0-.4-.2-.5-.4.1-.2.3-.4.4-.5.9-.4 1.3-.9 1.3-1.8 0-4 0-8.1 0-12.1 0-.2-.1-.4 0-.6 0-.5-.2-.8-.7-.8-.3 0-.8.1-.9-.5-.1-.9 0-1.1.9-1.1h4.3c.5 0 .9.2 1 .7.1.4.1.9.7.9.1.8 1.1 1.1 1.2 1.9 0 .2.3.4.4.6s.3.4.4.5.1.4.1.4c.5.1.7.4.8.9.8.2.8.9.9 1.6 0 .1.2.2.4.3.1.1.4.2.4.3.1.7 1.1.8 1 1.5.7.1.7.8 1 1.3.1.1.2.3.3.3 0 0 .2-.2.3-.3.1-.3.2-.6.2-.8 0-2.5 0-5 0-7.5 0-.6-.1-1.1-.9-1.1-.5 0-.7-.3-.8-.8 0-.6.1-.8.7-.8h2.9c.5 0 .7.2.6.7 0 .4.2.8-.5 1-1.2.2-1.2.3-1.2 1.6v12.9 1c0 .4.2.8-.5.9-.6.1-1.1-.1-1.4-.6-.1-.2-.3-.4-.4-.6-.2-.3-.4-.6-.6-.9-.1-.2-.3-.4-.4-.6s-.3-.4-.4-.5c-.1-.2-.2-.4-.4-.4-.3-.1-.5-.2-.5-.6 0-.2-.2-.3-.4-.4-.1-.1-.3-.1-.3-.2-.1-.7-.5-1.3-1-1.8-.2-.2-.2-.5-.5-.5-.2 0-.3-.3-.4-.4-.1-.2-.2-.4-.4-.6s-.4-.5-.5-.7c-.2-.4-.1-.9-.7-.9 0-.8-1.1-.8-1.1-1.6 0-.1-.3-.2-.4-.3s-.3-.1-.3-.2c-.4-.7-.7-1.4-1.1-2.1-.1-.1-.3-.3-.4-.3-.2.1-.3.3-.4.4-.1.4-.1.9-.1 1.3.1 1.2.1 2.9.1 4.6z"/></clipPath><clipPath id="E"><path d="m-1198-2511.1h1920v4619h-1920z"/></clipPath><clipPath id="F"><path d="m170.1 31.9h3.4c.8 0 1.5-.2 2.1.6.1.1.5.1.7.2.4.1.9 0 1.1.7.1.3.8.6 1.1 1 1 1 1.9 3.2 1.2 4.3-.4.7-.5 1.6-1 1.9-.6.4-1 1.4-1.9 1.3-.1 0-.4.1-.4.1-.2 1-1 .6-1.5.7-1.3 0-2.6 0-3.9 0-.8 0-.8 0-.8.8v3.7c0 1 .6 1.4 1.3 1.8.2.2.6.2.5.5-.1.2-.4.4-.6.4-1.9 0-3.8 0-5.7 0-.3 0-.7 0-.7-.5 0-.4.3-.4.6-.4 1.1-.2 1.1-.2 1.1-1.3 0-4.3 0-8.7 0-13 0-.5.1-1.1-.7-1.2-.3 0-.7-.6-.9-1s.1-.5.4-.5h2.6c.7-.1 1.4-.1 2-.1m.1 5.7v3.5c0 .2.2.7.3.7 1.1-.2 2.5.7 3.3-.7 0-.1.2-.1.3-.1.7-.3 1.1-.8 1.4-1.5.1-.1.2-.3.3-.4.4-.1.5-.4.5-.7-.1-.8.4-1.8-.6-2.3-.1-.7-.4-1.4-1-1.9-.3-.2-.4-.5-.8-.5-1 0-2 0-2.9-.1-.6 0-.8.3-.8.8.1 1 0 2.1 0 3.2"/></clipPath><clipPath id="G"><path d="m-1198-2511.1h1920v4619h-1920z"/></clipPath><clipPath id="H"><path d="m142.1 21.9c-2.2 0-4.4 0-6.6 0-.2 0-.5 0-.6 0-.3-.1-.6-.3-.9-.5.3-.1.5-.3.8-.4.5-.1.8-.2.8-.8 1.1-.7.7-1.8.7-2.7 0-3.3 0-6.6 0-10 0-.7-.6-1.7-1.3-2-.5-.2-.4-.6-.4-1s.2-.6.6-.6h.6 10.9c1.3 0 2.1.8 2.1 2.1 0 .6.1 1.1.1 1.7 0 .2-.2.4-.4.7-.2-.1-.4-.3-.5-.4-.2-.2-.4-.4-.5-.6-.2-.3-.4-.6-.4-.9-.1-.5-.3-.8-.8-.8-1.9-.1-3.8-.1-5.7-.2-.5 0-.7.2-.7.7v5.1c0 .5.2.7.7.6h1.4c1.4 0 1.4 0 1.7-1.4.1-.6.5-.5.9-.5s.7.1.7.6v4.2c0 .5-.3.5-.7.5-.3 0-.8.1-.9-.4 0-.1 0-.2 0-.3-.2-1.2-1-1.9-2.2-1.9-1.9 0-1.6-.2-1.6 1.6v4.9c0 .8.8 1.7 1.6 1.7 1.6 0 3.2 0 4.8-.1.3 0 .7 0 .8-.5 0-.1.3-.2.5-.3s.3-.3.5-.5c.1-.1.3-.4.4-.4.4-.1.5-.3.5-.7 0-.1 0-.3 0-.4 0-.3-.1-.8.5-.8.5 0 .4.4.4.7v3.1c0 .6-.2.8-.7.8-1.4 0-2.8 0-4.2 0-1 .1-1.9.1-2.9.1z"/></clipPath><clipPath id="I"><path d="m-1198-2511.1h1920v4619h-1920z"/></clipPath><clipPath id="J"><path d="m259.3 58.9h3.6c.3 0 .7 0 .8.1.4.7 1 .6 1.6.7.4.1.9 0 1.1.6.8.1.7 1.2 1.4 1.5.1.1.2.4.2.7v3.9c0 .1 0 .4-.1.4-.5.2-.5.7-.8 1s-.6.7-.8.9c-.8.5-1.6 1.3-2.7 1.1s-2.2 0-3.3 0c-.4 0-.7.1-.7.6 0 1.7.1 3.3.1 5 0 .6.2.7.7.8.3 0 .9-.2.9.4 0 .7-.6.4-1 .5-1.7 0-3.4 0-5.1 0-.4 0-.7-.2-1.1-.4.3-.2.7-.3 1-.5.2-.1.3-.3.5-.4.1-.1.1-.4.1-.4.9-.2.6-1 .6-1.5 0-3.7 0-7.4 0-11.1 0-1-.6-1.5-1.2-1.9-.5-.4-.4-.8-.4-1.2 0-.5.4-.5.7-.5 1.3-.3 2.6-.3 3.9-.3m.2 5.8v3.4c0 .5.2.8.7.8.8-.1 1.8.4 2.4-.7.1-.1.2-.1.4-.1 1-.1 1.3-1.1 1.5-1.7.3-1 .1-2.1.2-3.2 0-.6-.4-.5-.7-.8 0 0 0-.1-.1-.2-.4-.8-.9-1.4-1.8-1.5-.5 0-1.1-.1-1.6 0-.9 0-1 .1-1 1.1-.1.9 0 1.9 0 2.9"/></clipPath><clipPath id="K"><path d="m-1198-2511.1h1920v4619h-1920z"/></clipPath><clipPath id="L"><path d="m104.4 58.9h4.1c.4 0 .9-.1 1.1.5 0 .1.3.2.5.2.6.1 1.2 0 1.5.7.1.2.8.3.8.8.9.1.5 1.4 1.4 1.5.1 0 .1.4.1.6v1.8c0 .4 0 .8-.5.9-.2 0-.2.5-.3.7-.1.4 0 1.1-.7 1.1-.3.8-1 .9-1.7.9-.1 0-.3.1-.3.1-.2.9-.8.6-1.3.6-1.3 0-2.6 0-3.9 0-.9 0-1 0-1 .9 0 1 .1 2 0 3-.1.9.3 1.5.8 2.1.1.1.4.1.5.2.2.1.3.3.5.4-.2.2-.4.4-.6.4-1.5 0-3 .1-4.5.1-.5 0-1.1 0-1.6-.1-.2 0-.3-.2-.5-.3.1-.2.3-.4.4-.5.4-.1 1-.1 1.1-.3.2-.4.2-1 .2-1.5 0-4.1 0-8.1 0-12.2 0-.3 0-.7-.1-1 0-.2-.2-.4-.2-.4-.7 0-.8-.5-1-.9-.1-.2-.2-.4-.3-.6.2-.1.4-.2.7-.2h2.6 2.2zm-.1 5.7v3.6c0 .2.3.6.4.6 1.1-.2 2.5.8 3.3-.7h.1c.8-.3 1.4-.8 1.6-1.7 0-.1.1-.3.2-.3.6-.2.4-.8.5-1.2 0-.5.1-1.2-.1-1.3-.8-.5-.3-2-1.5-2.2 0 0 0-.1 0-.2 0-.4-.3-.5-.6-.5-1.1 0-2.1-.1-3.2-.1-.5 0-.7.2-.7.7z"/></clipPath><clipPath id="M"><path d="m-1198-2511.1h1920v4619h-1920z"/></clipPath><clipPath id="N"><path d="m298.5 76.9c-2.1 0-4.2 0-6.3 0-.2 0-.5 0-.7-.1s-.4-.3-.4-.4.2-.3.3-.4c.8-.3 1.4-1.2 1.4-2 0-3.9 0-7.8 0-11.8 0-.9-.2-1.5-1.1-1.7-.7-.1-.5-.7-.5-1.1 0-.5.4-.5.8-.5h11.5c.8 0 1.6.9 1.7 1.7 0 .7.1 1.4 0 2.2 0 .2-.2.5-.4.6-.3.1-.5-.1-.5-.5 0-.6 0-1.2-.7-1.4-.2-1.2-1.2-1-1.9-1-1.5-.1-2.9 0-4.4 0-.6 0-.8.2-.8.8v5c0 .5.2.7.7.7h1.6c.6 0 1.3.1 1.3-.8.8-.2.9-.9.9-1.6 0-.1.2-.2.3-.2s.3.1.3.2c.1.3.1.6.2 1v4.2c0 .3.1.7-.4.8s-.4-.3-.5-.6c-.2-1-1.2-1.9-2.2-2-2.2-.2-2.2-.2-2.2 2.1v4.3c0 .4-.1.8.5.8.1 0 .2 0 .2.1.2 1 1 .7 1.6.8h3.5c.5 0 1.2.2 1.3-.7.7 0 .8-.9 1.3-1.1.1-.1.3-.3.3-.5.1-.3.1-.7.1-1 0-.2.2-.3.4-.4.2.2.4.3.4.5.1.7 0 1.4 0 2.2 0 2 0 2-1.9 2-2-.2-3.9-.2-5.7-.2z"/></clipPath><clipPath id="O"><path d="m-1198-2511.1h1920v4619h-1920z"/></clipPath><clipPath id="P"><path d="m155.7 49.9c-2.2 0-4.3 0-6.5 0-.3 0-.6 0-.9-.1-.2 0-.4-.2-.4-.4 0-.1.2-.3.3-.4h.1c1.2-.3 1.3-.3 1.3-1.6 0-4.2 0-8.3 0-12.5 0-.3 0-.6-.1-1 0-.1-.1-.4-.2-.4-.8.1-.7-.9-1.3-1.1-.3-.1-.2-.5.2-.6h.6 12.1c1 0 1 0 1.2 1 .1.3.2.6.3.8.6.7.3 1.5.3 2.3 0 .1-.3.1-.4.2-.3-.5-1-.5-1.2-1.2-.2-.6-.7-1.3-1.4-1.3-1.9-.1-3.8-.1-5.7-.1-.6 0-.9.2-.9.9v4.7c0 .6.2.8.8.8h2.6c.6 0 1-.3 1-1 0-.1 0-.3.1-.4.1-.2.3-.3.5-.5.1.2.3.3.4.5s.1.4.1.5v3c0 .2 0 .4-.1.5-.1.2-.3.4-.4.6-.2-.2-.4-.4-.5-.6-.2-.3-.1-.7-.4-.9-.6-.5-1.1-1-2-1-2 .1-2 0-2 2.1v2.6c0 .8-.2 1.6.6 2.1 0 0 .1.1.1.2.1 1.1.9 1.3 1.8 1.3h3.9c.6 0 1.3.1 1.6-.7 1 .1.8-1.1 1.5-1.4.2-.1.2-.7.3-1.1s-.1-1 .5-1.2c.1.4.3.8.3 1.2 0 1.1-.1 2.2-.1 3.4 0 .4-.2.7-.6.7s-.7.1-1.1.1c-1.9 0-4.1 0-6.3 0z"/></clipPath><clipPath id="Q"><path d="m-1198-2511.1h1920v4619h-1920z"/></clipPath><clipPath id="R"><path d="m246 49.9c-2.2 0-4.4 0-6.6 0-.1 0-.2 0-.3 0-.4-.1-1.1-.3-1.1-.4 0-.6.6-.4 1-.5.3-.1.5-.1.6-.5 0-.1.1-.3.1-.3.9-.2.7-.9.7-1.4 0-3.7 0-7.5 0-11.2 0-.9-.6-1.6-1.2-1.9-.7-.3-.5-.8-.5-1.2 0-.5.5-.4.8-.4h9.6c.5 0 1.1.1 1.6 0 1-.3 1.4.7 2.1 1 .1 0 .1.3.1.5 0 .8.1 1.6 0 2.4 0 .2-.2.4-.3.6-.2-.1-.4-.3-.5-.4-.1-.3-.1-.6-.5-.7-.1 0-.3-.3-.3-.4-.1-1.2-.9-1.2-1.8-1.2-1.6 0-3.2 0-4.9-.1-.6 0-.9.2-.9.8v4.8c0 .6.2.9.8.8.7 0 1.4 0 2.1-.1.4 0 .8 0 .9-.6.1-.4.8-.7 1.2-1 0 0 .3.3.3.4v2.7 1.5c0 .4-.3.5-.6.2-.5-.6-1.2-1-1.6-1.7-.4-.6-.8-.6-1.4-.6-1.8 0-1.9-.3-1.8 1.8 0 1.6.1 3.2.2 4.8 0 .4 0 .7.6.7.1 0 .2 0 .2.1.2 1 1 .7 1.6.7h3.8c.4 0 1 .1 1.1-.6.9 0 .8-1.1 1.5-1.3.1 0 .2-.4.3-.6.1-.5.2-1.1.3-1.6 0-.1.1-.2.2-.2s.3.1.3.2c.1.3.2.6.2.9v3.5c0 .5-.2.7-.7.7-1.4 0-2.7 0-4.1 0-1-.2-2-.2-3.1-.2z"/></clipPath><clipPath id="S"><path d="m-1198-2511.1h1920v4619h-1920z"/></clipPath><clipPath id="T"><path d="m188.8 49.9c-2.2 0-4.4 0-6.6 0-.3 0-.5 0-.7-.1s-.3-.3-.5-.4c.2-.1.3-.4.5-.4.4-.1 1 0 1.1-.3.2-.4.3-1 .3-1.6 0-1.7 0-3.3 0-5 0-2.1 0-4.3 0-6.4 0-.6-.1-1.1-.2-1.7 0-.2-.1-.5-.2-.5-.8.2-.7-.9-1.3-1-.1 0-.2-.3-.2-.4s.3-.2.4-.2h.6 11.8c1.1 0 1.3.1 1.4 1.2.1.6 0 1.2.6 1.7.1.1.1.4.1.6 0 .3-.2.5-.3.7-.2-.1-.4-.3-.6-.4-.8-.3-.8-1.3-1.5-1.8-.2-.1-.3-.4-.6-.4-1.9 0-3.9 0-5.8 0-.5 0-.8.2-.8.8v4.8c0 .5.1.7.7.7.9 0 1.7.1 2.6 0 .8 0 1-.2 1.2-1.1 0-.1 0-.2 0-.3.1-.2.3-.3.4-.5.1.1.4.3.4.4v4.2c0 .2-.2.4-.4.6-.1-.2-.3-.3-.4-.5-.1-.3-.1-.9-.3-1-.7-.3-1.1-1.1-2-1.1-2.2.1-2.2 0-2.2 2.1v3.6c0 .4 0 .7.4.9.2.1.3.5.4.7.1.6.4.9 1 .9h5.2c.4 0 .9-.1 1-.7.9 0 .9-1 1.5-1.4.3-.2.3-.8.4-1.3.1-.3.2-.6.4-.9.1.3.4.6.4.9 0 1.3-.1 2.5-.2 3.8 0 .2-.3.4-.5.4-.3.1-.7.1-1.1.1-2.1.3-4.2.3-6.4.3z"/></clipPath><clipPath id="U"><path d="m-1198-2511.1h1920v4619h-1920z"/></clipPath><clipPath id="V"><path d="m283.4 31.9h7.3c1.2 0 1.2 0 1.2 1.2v2.6c0 .3 0 .6-.4.6s-.4-.3-.5-.6c0-.6 0-1.3-.8-1.4-.1-1.1-.9-.8-1.5-.8-.9-.1-1.9 0-2.8 0-1.1 0-1.1 0-1.1 1.1v8.5 3.9c0 1.2.3 1.5 1.4 2 .2.1.3.3.3.4s-.2.3-.4.4c-.1.1-.4 0-.5 0-1.8 0-3.5 0-5.3 0-.2 0-.4 0-.6-.1-.1-.1-.3-.2-.3-.4 0-.1.1-.4.2-.4.3-.1.6-.1.8-.1.4 0 .6-.2.6-.6s0-.7 0-1.1c0-4.2 0-8.4 0-12.6 0-1.2 0-1.2-1.2-1.2s-2.3.1-3.5.1c-.4 0-.8 0-.8.6 0 .1-.1.3-.2.3-.7.2-.7.7-.8 1.3 0 .2-.3.3-.4.5-.1-.2-.4-.3-.4-.5 0-.7 0-1.4 0-2.1 0-1.1.8-1.9 1.9-1.9 2.8.3 5.3.3 7.8.3"/></clipPath><clipPath id="W"><path d="m-1198-2511.1h1920v4619h-1920z"/></clipPath><clipPath id="X"><path d="m164.1 58.9h6.9c1.2 0 1.9.8 1.9 1.9v2.1c0 .2-.2.3-.4.5-.1-.2-.3-.3-.4-.5s-.1-.4-.1-.6c0-.3 0-.7-.5-.7-.1 0-.3-.1-.3-.2 0-.9-.7-.7-1.2-.8-.6-.1-1.1-.2-1.6-.6-.6-.4-1.6-.1-2.4-.1-.1 0-.2.3-.2.4 0 .4 0 .8-.1 1.2v12.7c0 1 .6 1.4 1.3 1.9.2.2.6.2.5.5-.1.2-.4.4-.7.4-1.9 0-3.9 0-5.8 0-.2 0-.6-.2-.6-.4-.1-.5.3-.4.6-.5 1.1-.1 1.1-.2 1.1-1.2 0-4.6 0-9.2 0-13.9 0-1.2-.1-1.2-1.3-1.2-.6 0-1.2-.2-1.5.6 0 .1-.4.2-.7.2-.4.1-.8.1-1.2.1-.1 0-.4 0-.4.1-.4.6-.8 1.3-1.1 1.9-.1.2 0 .4-.1.6-.1.3.1.9-.4.8-.2 0-.4-.6-.4-.9 0-1 0-1.9 0-2.9 0-.2.2-.4.4-.6.1-.1.4-.2.4-.3.2-.6.6-.5 1.1-.5z"/></clipPath><clipPath id="Y"><path d="m-1198-2511.1h1920v4619h-1920z"/></clipPath><clipPath id="Z"><path d="m102.3 3.9h7.2c1.2 0 1.3.1 1.4 1.4 0 .8.1 1.6 0 2.4 0 .2-.2.6-.4.6-.4.1-.6-.3-.5-.6.3-1-.8-1.2-1-1.9 0-.1-.3-.1-.4-.1-1.4-.1-2.8-.1-4.2-.2-.5 0-.7.3-.7.8v13.1c0 .8.6 1.3 1.3 1.6.3.1.6.2.5.6-.1.2-.4.4-.6.4-1.9 0-3.8 0-5.7 0-.1 0-.3 0-.4-.1-.2-.1-.4-.3-.4-.4s.2-.3.4-.4c.4-.1 1-.1 1.2-.4s.2-.9.2-1.4c0-4.3 0-8.5 0-12.8 0-1-.1-1.1-1-1.1-1.3 0-2.5.1-3.8.2-.3 0-.5.1-.6.5-.1.5-.1 1.2-.9 1.3-.1 0-.1.4-.2.6-.1.1-.3.3-.4.3s-.3-.2-.3-.3c0-.9 0-1.8.1-2.7.1-.8 1.1-1.4 1.9-1.4z"/></clipPath><clipPath id="aa"><path d="m-1198-2511.1h1920v4619h-1920z"/></clipPath><clipPath id="ab"><path d="m249.5 77.9c-.9 0-1.9 0-2.8 0-.2 0-.5-.2-.6-.3-.1-.3.1-.5.4-.6.4 0 .4-.3.4-.6 0-.6 0-1.2-.5-1.7-.3-.3-.3-.9-.4-1.4 0-.6-.2-.9-.8-.9-1.7 0-3.4-.1-5.1 0-.9 0-1 .2-1 1.1-.1.6.1 1.3-.6 1.7-.2.1-.1.7-.2 1.1-.1.5.2.6.6.7.1 0 .3.3.3.5 0 .1-.3.4-.4.4-1.2 0-2.3 0-3.5-.1-.1 0-.2-.2-.3-.3.1-.1.2-.3.3-.3.3-.1.6-.1.8-.2s.3-.3.5-.4v-.1c.1-.5.9-.2.9-1-.1-.5.2-1 .7-1.2.2-.1.1-.6.2-.9.1-.4-.1-.8.5-1.1.2-.1.3-.7.4-1.1.1-.6-.1-1.3.7-1.5.2-.1.2-.7.2-1 0-.4 0-.7.5-1 .2-.1.3-.7.4-1 .1-.6-.1-1.3.7-1.5 0 0 .1-.1.1-.1-.3-1.3 1-2 1-3.3 0-.5-.1-1.2.7-1.2h.1c.7-.6.7-.6 1 .3 0 .1 0 .3.1.3.9.3.7 1.1.8 1.8 0 .1 0 .3.1.3.8.2.7 1 .8 1.6v.2c.8.4.7 1.2.8 2 0 .1 0 .2.1.3.6.6.8 1.3.8 2.2.9.4.5 1.5.9 1.9.6.7.7 1.6.8 2.4 0 .1.1.3.1.3.7.2.6.9.7 1.4 0 .4.1.6.5.7.3.1.4.7.6.8.3.2.7.1 1.1.2.1 0 .2.3.2.4s-.2.3-.3.4c-.2.1-.5.1-.7.1-.1 0-.2 0-.3 0-.8-.3-1.6-.3-2.3-.3zm-6.8-6.5h2.1c.2 0 .4-.2.5-.3 0-.2-.1-.6-.2-.6-.6-.1-.5-.6-.6-1-.1-.5 0-1.1-.3-1.3-.5-.5-.6-1-.6-1.5 0-.7-.2-.7-1.1-.8-.6-.1-.6.4-.7.8 0 .4 0 .9-.2 1-.7.3-.6.9-.6 1.5-.1.5.1 1.2-.7 1.4-.1 0-.2.4-.1.6 0 .1.3.3.4.3.7-.1 1.4-.1 2.1-.1"/></clipPath><clipPath id="ac"><path d="m-1198-2511.1h1920v4619h-1920z"/></clipPath><clipPath id="ad"><path d="m102.6 49.9c-1 0-2 0-2.9 0-.2 0-.5-.2-.6-.4-.1-.4.2-.4.5-.5 1.1-.2 1.2-.2 1.2-1.4 0-4.2 0-8.5 0-12.7 0-.6.1-1.3-.8-1.4-.3 0-.5-.7-.7-1.1 0-.1.1-.3.2-.4s.3 0 .5 0h5c.5 0 .8 0 .9.6 0 .6 0 1-.7 1-.5 0-.8.4-.9.9 0 .2-.1.5-.1.8v11.8c0 1 .5 1.6 1.4 1.9.2.1.3.3.4.5-.2.1-.3.4-.5.4-1 0-2 0-2.9 0z"/></clipPath><clipPath id="ae"><path d="m-1198-2511.1h1920v4619h-1920z"/></clipPath><clipPath id="af"><path d="m56.5 27.9h6.6c.6 0 1.3-.1 1.6.6.1.2.7.1.7.3.3.7 1 .8 1.6 1.1.1.1.2.4.3.5.2.3.4.6.6.9.1.2.2.4.3.6.1.4.1 1 .6 1.2.1 0 .2.3.2.5v3.1c0 .2-.2.4-.3.6s-.4.4-.4.6c.1.9-.8 1.2-1 1.9-.8 0-.7 1.1-1.5 1.1-.2.8-1 .6-1.4.9-1.3 1.1-2.8.6-4.3.7-1.4.1-2.8.1-4.2 0-.6 0-.8.2-.8.8v5.7c0 .5-.1 1 .6 1.2.1 0 .2.2.2.3 0 .4.4.5.5.7.4.7 1 .8 1.7.8.1 0 .3.3.3.4s-.2.3-.4.4-.5 0-.7 0c-2.8 0-5.7 0-8.5 0-.2 0-.4.1-.5 0-.2-.1-.3-.3-.4-.5.1-.1.3-.4.4-.3 1.1.2 1.3-1 2.2-1.1.1 0 .1-.2.1-.4 0-.4.1-.9.1-1.3 0-6.1 0-12.1 0-18.2 0-.3 0-.6 0-.9 0-.2-.2-.4-.4-.5-.1-.1-.3-.1-.3-.1-.1-.8-.8-.7-1.3-.9-.1 0-.3-.2-.4-.3.1-.1.2-.3.4-.4.4-.1.8-.1 1.1-.1 2.3.1 4.5.1 6.7.1m-1.3 7.4v5.6c0 .6.2.8.8.8h3.7c.2 0 .5-.1.6-.2.2-.7.9-.6 1.4-.8.2-.1.4-.1.4-.2 0-.5.5-.6.8-.8s.3-.8.4-1.1c0-.1.2-.2.3-.3.1-.2.3-.4.4-.6.3-1.7.3-3.5 0-5.2-.1-.4 0-.9-.6-1-.1 0-.3-.2-.3-.3.1-.8-1.1-.7-1-1.5-.8 0-1.4-.8-2.1-.9-1.3-.2-2.6 0-4 0-.6 0-.8.3-.8.8z"/></clipPath><clipPath id="ag"><path d="m-1198-2511.1h1920v4619h-1920z"/></clipPath><clipPath id="ah"><path d="m21.6 40.2c0-3.2 0-6.3 0-9.5 0-.5.2-1.1-.6-1.2-.2-.8-.8-.8-1.5-.8-.3 0-.5-.1-.5-.5s.3-.4.6-.4h.5 7.6.9c.2 0 .3.2.5.4-.1.2-.3.3-.4.4s-.2 0-.3 0c-1 0-1.4.6-1.9 1.4-.7 1.1-.6 2.1-.6 3.2v14.9c0 .5-.1 1 .4 1.4.1.1.2.4.2.7 0 .4 0 .8.6.9.1 0 .2.2.2.3.1.5.4.5.7.5h.5c.2.1.4.2.5.4.1.4-.2.4-.5.4-.2 0-.3 0-.5 0-2.7 0-5.4 0-8.1 0-.2 0-.3 0-.5 0-.2-.1-.4-.3-.4-.4.1-.2.3-.5.4-.4 1 .2 1.3-.9 2-1.2.1 0 .1-.3.1-.5 0-.6.1-1.2.1-1.9 0-2.5 0-5.3 0-8.1z"/></clipPath><clipPath id="ai"><path d="m-1198-2511.1h1920v4619h-1920z"/></clipPath><clipPath id="aj"><path d="m42 40.7v1.3c-.1.5.1 1.2-.7 1.2.1.9-1.2.6-1.2 1.4 0 .1-.4.2-.5.2-.7 0-1.4 0-2.1 0-.4 0-.8 0-.9-.5 0-.1-.4-.2-.6-.3-.3-.1-.6-.1-.8-.3-.5-.4 0-1.3-.8-1.8-.6-.4-.2-1.3-.3-1.9 0-.1.2-.3.4-.5.1-.1.3-.3.3-.4 0-.4.1-.8.6-.8.1-.8 1-.7 1.3-1.3 0-.1.3-.2.4-.2h2.4c.2 0 .4.2.6.4.2.1.4.2.6.4.2.1.3.3.5.5v.2c1.2.6.6 1.8.8 2.4"/></clipPath><clipPath id="ak"><path d="m-1198-2511.1h1920v4619h-1920z"/></clipPath><g clip-path="url(#a)"><g clip-path="url(#b)" enable-background="new"><g clip-path="url(#c)"><g clip-path="url(#d)"><path clip-path="url(#e)" d="m-5-5h93.9v91.9h-93.9z" fill="#fff"/></g></g></g></g><g clip-path="url(#f)"><path clip-path="url(#g)" d="m109-1.1h28v28h-28z" fill="#fff"/></g><g clip-path="url(#h)"><path clip-path="url(#i)" d="m109 53.9h29v28h-29z" fill="#fff"/></g><g clip-path="url(#j)"><path clip-path="url(#k)" d="m266 53.9h28v28h-28z" fill="#fff"/></g><g clip-path="url(#l)"><path clip-path="url(#m)" d="m302 53.9h28v28h-28z" fill="#fff"/></g><g clip-path="url(#n)"><path clip-path="url(#o)" d="m211 53.9h27v28h-27z" fill="#fff"/></g><g clip-path="url(#p)"><path clip-path="url(#q)" d="m123 26.9h28v28h-28z" fill="#fff"/></g><g clip-path="url(#r)"><path clip-path="url(#s)" d="m213 26.9h28v28h-28z" fill="#fff"/></g><g clip-path="url(#t)"><path clip-path="url(#u)" d="m130 53.9h28v29h-28z" fill="#fff"/></g><g clip-path="url(#v)"><path clip-path="url(#w)" d="m170 53.9h28v29h-28z" fill="#fff"/></g><g clip-path="url(#x)"><path clip-path="url(#y)" d="m193 26.9h28v28h-28z" fill="#fff"/></g><g clip-path="url(#z)"><path clip-path="url(#A)" d="m250 26.9h28v28h-28z" fill="#fff"/></g><g clip-path="url(#B)"><path clip-path="url(#C)" d="m190 53.9h28v29h-28z" fill="#fff"/></g><g clip-path="url(#D)"><path clip-path="url(#E)" d="m103 26.9h27v28h-27z" fill="#fff"/></g><g clip-path="url(#F)"><path clip-path="url(#G)" d="m160 26.9h25v28h-25z" fill="#fff"/></g><g clip-path="url(#H)"><path clip-path="url(#I)" d="m129-1.1h26v28h-26z" fill="#fff"/></g><g clip-path="url(#J)"><path clip-path="url(#K)" d="m249 53.9h24v28h-24z" fill="#fff"/></g><g clip-path="url(#L)"><path clip-path="url(#M)" d="m94 53.9h25v28h-25z" fill="#fff"/></g><g clip-path="url(#N)"><path clip-path="url(#O)" d="m286 53.9h25v28h-25z" fill="#fff"/></g><g clip-path="url(#P)"><path clip-path="url(#Q)" d="m143 26.9h26v28h-26z" fill="#fff"/></g><g clip-path="url(#R)"><path clip-path="url(#S)" d="m233 26.9h26v28h-26z" fill="#fff"/></g><g clip-path="url(#T)"><path clip-path="url(#U)" d="m176 26.9h26v28h-26z" fill="#fff"/></g><g clip-path="url(#V)"><path clip-path="url(#W)" d="m269 26.9h28v28h-28z" fill="#fff"/></g><g clip-path="url(#X)"><path clip-path="url(#Y)" d="m150 53.9h28v28h-28z" fill="#fff"/></g><g clip-path="url(#Z)"><path clip-path="url(#aa)" d="m88-1.1h28v28h-28z" fill="#fff"/></g><g clip-path="url(#ab)"><path clip-path="url(#ac)" d="m230 54.9h28v28h-28z" fill="#fff"/></g><g clip-path="url(#ad)"><path clip-path="url(#ae)" d="m94 26.9h17v28h-17z" fill="#fff"/></g><g clip-path="url(#af)"><path clip-path="url(#ag)" d="m43 22.9h31v35h-31z" fill="#fff"/></g><g clip-path="url(#ah)"><path clip-path="url(#ai)" d="m14 22.9h20v35h-20z" fill="#fff"/></g><g clip-path="url(#aj)"><path clip-path="url(#ak)" d="m29 31.9h18v18h-18z" fill="#fff"/></g></svg>