<?xml version="1.0" encoding="utf-8"?>
<!-- Generator: Adobe Illustrator 23.0.4, SVG Export Plug-In . SVG Version: 6.00 Build 0)  -->
<svg version="1.1" id="Layer_1" xmlns="http://www.w3.org/2000/svg" xmlns:xlink="http://www.w3.org/1999/xlink" x="0px" y="0px"
	 viewBox="0 0 325 81.9" style="enable-background:new 0 0 325 81.9;" xml:space="preserve">
<style type="text/css">
	.st0{clip-path:url(#SVGID_2_);}
	.st1{clip-path:url(#SVGID_4_);enable-background:new    ;}
	.st2{clip-path:url(#SVGID_6_);}
	.st3{clip-path:url(#SVGID_8_);}
	.st4{clip-path:url(#SVGID_10_);fill:#FFFFFF;}
	.st5{clip-path:url(#SVGID_12_);}
	.st6{clip-path:url(#SVGID_14_);fill:#FFFFFF;}
	.st7{clip-path:url(#SVGID_16_);}
	.st8{clip-path:url(#SVGID_18_);fill:#FFFFFF;}
	.st9{clip-path:url(#SVGID_20_);}
	.st10{clip-path:url(#SVGID_22_);fill:#FFFFFF;}
	.st11{clip-path:url(#SVGID_24_);}
	.st12{clip-path:url(#SVGID_26_);fill:#FFFFFF;}
	.st13{clip-path:url(#SVGID_28_);}
	.st14{clip-path:url(#SVGID_30_);fill:#FFFFFF;}
	.st15{clip-path:url(#SVGID_32_);}
	.st16{clip-path:url(#SVGID_34_);fill:#FFFFFF;}
	.st17{clip-path:url(#SVGID_36_);}
	.st18{clip-path:url(#SVGID_38_);fill:#FFFFFF;}
	.st19{clip-path:url(#SVGID_40_);}
	.st20{clip-path:url(#SVGID_42_);fill:#FFFFFF;}
	.st21{clip-path:url(#SVGID_44_);}
	.st22{clip-path:url(#SVGID_46_);fill:#FFFFFF;}
	.st23{clip-path:url(#SVGID_48_);}
	.st24{clip-path:url(#SVGID_50_);fill:#FFFFFF;}
	.st25{clip-path:url(#SVGID_52_);}
	.st26{clip-path:url(#SVGID_54_);fill:#FFFFFF;}
	.st27{clip-path:url(#SVGID_56_);}
	.st28{clip-path:url(#SVGID_58_);fill:#FFFFFF;}
	.st29{clip-path:url(#SVGID_60_);}
	.st30{clip-path:url(#SVGID_62_);fill:#FFFFFF;}
	.st31{clip-path:url(#SVGID_64_);}
	.st32{clip-path:url(#SVGID_66_);fill:#FFFFFF;}
	.st33{clip-path:url(#SVGID_68_);}
	.st34{clip-path:url(#SVGID_70_);fill:#FFFFFF;}
	.st35{clip-path:url(#SVGID_72_);}
	.st36{clip-path:url(#SVGID_74_);fill:#FFFFFF;}
	.st37{clip-path:url(#SVGID_76_);}
	.st38{clip-path:url(#SVGID_78_);fill:#FFFFFF;}
	.st39{clip-path:url(#SVGID_80_);}
	.st40{clip-path:url(#SVGID_82_);fill:#FFFFFF;}
	.st41{clip-path:url(#SVGID_84_);}
	.st42{clip-path:url(#SVGID_86_);fill:#FFFFFF;}
	.st43{clip-path:url(#SVGID_88_);}
	.st44{clip-path:url(#SVGID_90_);fill:#FFFFFF;}
	.st45{clip-path:url(#SVGID_92_);}
	.st46{clip-path:url(#SVGID_94_);fill:#FFFFFF;}
	.st47{clip-path:url(#SVGID_96_);}
	.st48{clip-path:url(#SVGID_98_);fill:#FFFFFF;}
	.st49{clip-path:url(#SVGID_100_);}
	.st50{clip-path:url(#SVGID_102_);fill:#FFFFFF;}
	.st51{clip-path:url(#SVGID_104_);}
	.st52{clip-path:url(#SVGID_106_);fill:#FFFFFF;}
	.st53{clip-path:url(#SVGID_108_);}
	.st54{clip-path:url(#SVGID_110_);fill:#FFFFFF;}
	.st55{clip-path:url(#SVGID_112_);}
	.st56{clip-path:url(#SVGID_114_);fill:#FFFFFF;}
	.st57{clip-path:url(#SVGID_116_);}
	.st58{clip-path:url(#SVGID_118_);fill:#FFFFFF;}
	.st59{clip-path:url(#SVGID_120_);}
	.st60{clip-path:url(#SVGID_122_);fill:#FFFFFF;}
	.st61{clip-path:url(#SVGID_124_);}
	.st62{clip-path:url(#SVGID_126_);fill:#FFFFFF;}
</style>
<g>
	<g>
		<defs>
			<rect id="SVGID_1_" width="83.9" height="81.9"/>
		</defs>
		<clipPath id="SVGID_2_">
			<use xlink:href="#SVGID_1_"  style="overflow:visible;"/>
		</clipPath>
		<g class="st0">
			<defs>
				<rect id="SVGID_3_" x="-1198" y="-2511.1" width="1920" height="4619"/>
			</defs>
			<clipPath id="SVGID_4_">
				<use xlink:href="#SVGID_3_"  style="overflow:visible;"/>
			</clipPath>
			<g class="st1">
				<g>
					<defs>
						<rect id="SVGID_5_" x="-1" y="-1.1" width="85" height="84"/>
					</defs>
					<clipPath id="SVGID_6_">
						<use xlink:href="#SVGID_5_"  style="overflow:visible;"/>
					</clipPath>
					<g class="st2">
						<defs>
							<path id="SVGID_7_" d="M41.9,0C55.2,0,68.6,0,82,0c1.9,0,1.9,0,1.9,1.9v78.3c0,1.7,0,1.7-1.7,1.7c-27,0-54,0-81.1,0
								c-0.2,0-0.4,0-0.5,0C0.1,82,0,81.7,0,81.2c0-0.2,0-0.5,0-0.7v-79c0,0,0-0.1,0-0.1C0-0.1-0.2,0,1.4,0C14.9,0,28.4,0,41.9,0
								 M41.9,77.4h34.7c2.3,0,2.3,0,2.3-2.3c0-22.8,0-45.5,0-68.3c0-0.4,0-0.7,0-1.1c-0.1-1.2-0.2-1.3-1.4-1.3c-23.7,0-47.3,0-71,0
								C5,4.5,4.5,5,4.5,6.4c0,23,0,46,0,69c0,1.5,0.4,1.9,1.9,1.9C18.3,77.4,30.1,77.4,41.9,77.4"/>
						</defs>
						<clipPath id="SVGID_8_">
							<use xlink:href="#SVGID_7_"  style="overflow:visible;"/>
						</clipPath>
						<g class="st3">
							<defs>
								<rect id="SVGID_9_" y="-0.1" width="84" height="82"/>
							</defs>
							<clipPath id="SVGID_10_">
								<use xlink:href="#SVGID_9_"  style="overflow:visible;"/>
							</clipPath>
							<rect x="-5" y="-5" class="st4" width="93.9" height="91.9"/>
						</g>
					</g>
				</g>
			</g>
		</g>
	</g>
	<g>
		<defs>
			<path id="SVGID_11_" d="M123,13.6c-1,0-2,0-3,0c-0.5,0-0.8,0.1-0.8,0.8c0,1.9,0,3.7,0,5.6c0,0.6,0.1,0.9,0.8,1
				c0.3,0,0.9-0.1,0.8,0.5c0,0.2-0.5,0.4-0.8,0.4c-1.8,0-3.5,0-5.3,0c-0.3,0-0.6,0-0.7-0.5c0-0.4,0.2-0.4,0.5-0.5
				c0.2-0.1,0.3-0.3,0.4-0.5c0.1-0.1,0.1-0.4,0.2-0.4c0.6-0.2,0.5-0.6,0.5-1c0-1.5,0-3,0-4.4c0-2.3,0-4.7,0-7c0-0.9-0.5-1.5-1.2-1.9
				c-0.5-0.3-0.4-0.6-0.4-1c0-0.4,0.2-0.7,0.6-0.7c1.9,0,3.7,0,5.6,0c0.2,0,0.4,0.1,0.5,0.3c0,0.1-0.1,0.4-0.2,0.5
				c-0.3,0.3-0.4,0.9-1.1,0.9c-0.1,0-0.2,0.3-0.2,0.5c0,1.8,0,3.5,0,5.3c0,0.4,0.2,0.6,0.6,0.6c2.2,0,4.4,0,6.6,0
				c0.4,0,0.6-0.2,0.6-0.6c0-1.6,0-3.2,0-4.9c0-0.5-0.2-0.8-0.8-0.9c-0.4-0.1-0.8-0.1-0.8-0.7c0-0.7,0.1-0.9,0.8-0.9
				c1.7,0,3.4,0,5.2,0c0.2,0,0.7,0.2,0.7,0.4c0.1,0.4,0.1,0.9-0.4,1.1c-0.2,0.1-0.4,0.2-0.6,0.2c-0.4,0-0.5,0.3-0.5,0.6
				c0,0.4,0,0.7,0,1.1c0,3.9,0,7.8,0,11.7c0,0.3,0,0.6,0,0.9c0,0.6,0.2,1.1,0.9,1.1c0.1,0,0.3,0,0.4,0.1c0.1,0.1,0.3,0.3,0.3,0.4
				c0,0.1-0.2,0.3-0.4,0.4c-0.2,0.1-0.5,0.1-0.7,0.1c-1.5,0-3,0-4.5,0c-0.2,0-0.5,0-0.7-0.1c-0.2-0.1-0.3-0.3-0.4-0.4
				c0-0.1,0.1-0.3,0.2-0.4c1.1-0.4,1.5-1.2,1.4-2.4c-0.1-1.4,0-2.8,0-4.2c0-0.6-0.2-0.8-0.8-0.8C125.1,13.6,124,13.6,123,13.6"/>
		</defs>
		<clipPath id="SVGID_12_">
			<use xlink:href="#SVGID_11_"  style="overflow:visible;"/>
		</clipPath>
		<g class="st5">
			<defs>
				<rect id="SVGID_13_" x="-1198" y="-2511.1" width="1920" height="4619"/>
			</defs>
			<clipPath id="SVGID_14_">
				<use xlink:href="#SVGID_13_"  style="overflow:visible;"/>
			</clipPath>
			<rect x="109" y="-1.1" class="st6" width="28" height="28"/>
		</g>
	</g>
	<g>
		<defs>
			<path id="SVGID_15_" d="M123.5,67.1c0.9,0,1.9,0,2.8,0c1.2,0,1.4-0.2,1.4-1.4c0-0.9,0-1.8,0-2.7c0-1.1-0.3-1.9-1.3-2.5
				c-0.3-0.1-0.3-0.8-0.3-1.1c0-0.5,0.4-0.4,0.7-0.4c1.8,0,3.6,0,5.3,0c0.2,0,0.4,0.1,0.6,0.2c-0.1,0.2-0.2,0.4-0.3,0.6
				c-0.2,0.4-0.4,0.9-1,0.9c-0.1,0-0.2,0.3-0.2,0.4c-0.1,0.5-0.1,1-0.1,1.5c0,3.6,0,7.2,0,10.8c0,0.4,0,0.8,0,1.2
				c0.1,1.2,0.1,1.2,1.2,1.4c0.2,0.1,0.4,0.3,0.6,0.5c-0.2,0.1-0.4,0.3-0.6,0.3c-2.1,0-4.1,0-6.2,0c-0.1,0-0.3-0.1-0.4-0.1
				c-0.1-0.1-0.2-0.2-0.3-0.2c0.1-0.1,0.2-0.2,0.3-0.3c0.1-0.1,0.2-0.1,0.3-0.1c1,0.2,0.9-1,1.6-1.2c0.1,0,0.1-0.5,0.1-0.7
				c0-1.5,0-3,0-4.5c0-1.1-0.7-1.7-1.7-1.7c-1.7,0-3.4,0-5.1,0c-1,0-1.7,0.7-1.7,1.7c0,1.5,0,3,0,4.4c0,0.5,0.3,0.8,0.6,1.3
				c0.3,0.4,0.5,0.8,1,0.8c0.1,0,0.2,0.1,0.3,0.1c0.1,0.1,0.2,0.2,0.3,0.3c-0.1,0.1-0.2,0.2-0.3,0.2c-0.2,0.1-0.5,0.1-0.7,0.1
				c-1.8,0-3.7,0-5.5,0c-0.1,0-0.3,0-0.4-0.1c-0.2-0.1-0.3-0.2-0.5-0.3c0.2-0.1,0.3-0.4,0.5-0.4c0.3-0.1,0.9-0.1,1-0.3
				c0.2-0.4,0.3-0.9,0.3-1.3c0-4.1,0-8.2,0-12.3c0-0.3,0-0.7-0.1-1c-0.1-0.2-0.3-0.5-0.4-0.5c-0.7,0-0.6-1-1.1-1.1
				c0.1-0.2,0.2-0.5,0.3-0.5c0.3-0.1,0.6,0,0.9,0c1.6,0,3.1,0,4.7,0c0.3,0,0.7-0.1,0.7,0.4c0,0.4,0.1,0.9-0.4,1.2
				c-0.7,0.4-1.2,1.3-1.2,2.1c0,1.1,0,2.2,0,3.2c0,1,0.2,1.2,1.2,1.2C121.5,67.2,122.5,67.1,123.5,67.1L123.5,67.1z"/>
		</defs>
		<clipPath id="SVGID_16_">
			<use xlink:href="#SVGID_15_"  style="overflow:visible;"/>
		</clipPath>
		<g class="st7">
			<defs>
				<rect id="SVGID_17_" x="-1198" y="-2511.1" width="1920" height="4619"/>
			</defs>
			<clipPath id="SVGID_18_">
				<use xlink:href="#SVGID_17_"  style="overflow:visible;"/>
			</clipPath>
			<rect x="109" y="53.9" class="st8" width="29" height="28"/>
		</g>
	</g>
	<g>
		<defs>
			<path id="SVGID_19_" d="M280,67.1c1,0,2,0,3,0c0.8,0,0.9-0.1,0.9-0.9c0-1.6,0-3.3,0-4.9c0-0.4-0.1-0.6-0.5-0.8
				c-0.4-0.2-0.7-0.7-1-1.2c0-0.1,0.1-0.3,0.2-0.4c0.1-0.1,0.3,0,0.4,0c1.8,0,3.6,0,5.4,0c0.3,0,0.7,0,0.7,0.4
				c0,0.4,0.1,0.9-0.4,1.1c0,0-0.1,0-0.1,0c-1.1,0-1.1,0.9-1.1,1.7c0,4,0,8,0,11.9c0,1,0.7,1.4,1.2,1.9c0.2,0.1,0.3,0.3,0.4,0.5
				c-0.2,0.1-0.3,0.4-0.5,0.4c-2,0-3.9,0-5.9,0c-0.1,0-0.3-0.3-0.4-0.4c0.1-0.1,0.3-0.3,0.4-0.4c0.4-0.1,0.9,0,1-0.3
				c0.2-0.4,0.2-0.9,0.2-1.4c0-1.8,0-3.6,0-5.4c0-1.1-0.1-1.1-1.1-1.1c-1.9,0-3.8,0-5.7,0c-0.6,0-0.9,0.2-0.9,0.9c0,2.1,0,4.3,0,6.4
				c0,0.7,0.2,0.9,0.8,0.9c0.1,0,0.3,0,0.4,0.1c0.2,0.1,0.3,0.2,0.4,0.4c-0.2,0.1-0.3,0.4-0.5,0.4c-2,0-3.9,0-5.9,0
				c-0.2,0-0.3-0.3-0.5-0.4c0.2-0.2,0.3-0.4,0.5-0.5c0.6-0.3,1.2-1.2,1.2-1.9c0-4,0-8,0-11.9c0-1.3,0-1.3-1.2-1.7
				c-0.7-0.2-0.4-0.7-0.4-1.1c0-0.5,0.3-0.5,0.7-0.5c1.8,0,3.6,0,5.4,0c0.2,0,0.4,0.2,0.6,0.2c-0.1,0.2-0.2,0.5-0.3,0.6
				c-0.4,0.2-0.3,1.1-1.1,1c0,0-0.2,0.3-0.2,0.5c0,1.8,0,3.5,0,5.3c0,0.6,0.3,0.6,0.8,0.6C277.9,67.1,278.9,67.1,280,67.1L280,67.1z
				"/>
		</defs>
		<clipPath id="SVGID_20_">
			<use xlink:href="#SVGID_19_"  style="overflow:visible;"/>
		</clipPath>
		<g class="st9">
			<defs>
				<rect id="SVGID_21_" x="-1198" y="-2511.1" width="1920" height="4619"/>
			</defs>
			<clipPath id="SVGID_22_">
				<use xlink:href="#SVGID_21_"  style="overflow:visible;"/>
			</clipPath>
			<rect x="266" y="53.9" class="st10" width="28" height="28"/>
		</g>
	</g>
	<g>
		<defs>
			<path id="SVGID_23_" d="M312.7,58.9c1.4,0,2.7,0,4.1,0c0.4,0,0.9-0.1,1.1,0.5c0,0.1,0.3,0.2,0.5,0.2c0.6,0.1,1.2-0.1,1.5,0.7
				c0.1,0.3,0.9,0.1,0.9,0.7c0.9,0.2,0.7,1.2,1.2,1.7c0.4,0.4,0.2,1.8-0.2,2.3c-0.1,0.1-0.2,0.2-0.2,0.2c0.2,1.1-0.7,1.5-1.3,2.1
				c-0.3,0.3-0.8,0.3-1.1,0.5c-0.2,0.1-0.4,0.2-0.4,0.3c0,0.2,0.2,0.4,0.3,0.5c0.4,0.1,0.4,0.3,0.5,0.6c0.1,0.5,0,1.1,0.8,1.3
				c0.1,0,0.1,0.4,0.2,0.6c0.1,0.4,0,1.1,0.7,1.2c0.1,0,0.2,0.1,0.2,0.1c0,0.8,0.5,1.3,0.9,1.9c0.2,0.2,0.2,0.7,0.6,0.6
				c0.1,0,0.2,0,0.2,0.1c0.1,1,0.8,0.7,1.4,0.9c0.2,0,0.4,0.3,0.4,0.4c0,0.1-0.2,0.4-0.4,0.4c-0.7,0.1-1.3,0.1-2,0.1
				c-1.1,0-2.1,0-3.2,0c-0.5,0-0.8-0.1-0.8-0.7c0-0.5,0.2-1.1-0.7-1.2c-0.1,0-0.1-0.3-0.2-0.5c-0.1-0.6,0-1.2-0.7-1.5
				c-0.2-0.1-0.2-0.6-0.2-0.9c-0.1-0.5-0.1-1.1-0.7-1.4c-0.1-0.1-0.2-0.2-0.2-0.3c0-0.4-0.1-0.7-0.6-0.7c-0.1,0-0.3-0.2-0.4-0.3
				c-0.1-0.4-0.3-0.5-0.7-0.5c-1.1-0.1-1.2-0.1-1.2,1c0,1.5,0,3,0,4.4c0,0.3,0.1,0.6,0.1,1c0,0.5,0.2,0.7,0.7,0.7
				c0.2,0,0.4,0,0.6,0.1c0.1,0.1,0.4,0.3,0.3,0.3c-0.1,0.2-0.2,0.3-0.4,0.4c-0.2,0.1-0.4,0.1-0.6,0.1c-1.9,0-3.7,0-5.6,0
				c-0.2,0-0.4,0-0.5-0.1c-0.3-0.1-0.5-0.3-0.8-0.4c0.2-0.1,0.5-0.3,0.7-0.4c0.5-0.1,1-0.1,1-0.8c1.1-0.4,0.7-1.4,0.7-2.1
				c0-3.5,0-6.9,0-10.4c0-1.1-0.5-1.8-1.4-2.2c-0.5-0.3-0.3-0.7-0.3-1.1c0-0.4,0.4-0.5,0.7-0.5C309.9,58.9,311.3,58.9,312.7,58.9
				L312.7,58.9z M313.2,64.2L313.2,64.2c0,1,0,2,0,3c0,0.2,0.2,0.6,0.4,0.6c0.6,0,1.3,0.1,1.9-0.1c0.5-0.2,1.2-0.5,1.4-1
				c0.2-0.5,0.6-0.5,0.9-0.8c0.2-0.3,0.2-0.8,0.3-1.2c0-0.1,0.2-0.2,0.4-0.4c0.4-0.4,0.4-0.6,0-1c-0.1-0.1-0.4-0.2-0.4-0.3
				c-0.1-0.7,0-1.5-1-1.7c0-0.8-0.6-0.7-1.1-0.7c-0.6-0.1-1.2-0.1-1.9-0.1c-0.6,0-0.8,0.3-0.8,0.8C313.2,62.3,313.2,63.2,313.2,64.2
				z"/>
		</defs>
		<clipPath id="SVGID_24_">
			<use xlink:href="#SVGID_23_"  style="overflow:visible;"/>
		</clipPath>
		<g class="st11">
			<defs>
				<rect id="SVGID_25_" x="-1198" y="-2511.1" width="1920" height="4619"/>
			</defs>
			<clipPath id="SVGID_26_">
				<use xlink:href="#SVGID_25_"  style="overflow:visible;"/>
			</clipPath>
			<rect x="302" y="53.9" class="st12" width="28" height="28"/>
		</g>
	</g>
	<g>
		<defs>
			<path id="SVGID_27_" d="M221.4,72.2c0,1,0,1.9,0,2.9c0,0.6,0.2,0.9,0.8,0.9c0.3,0,0.9-0.2,0.9,0.4c0,0.6-0.6,0.4-0.9,0.5
				c-1.8,0-3.6,0-5.5,0c-0.2,0-0.4,0-0.6-0.1c-0.1,0-0.2-0.3-0.1-0.4c0.1-0.2,0.2-0.4,0.4-0.4c0.8-0.2,1-0.9,1.3-1.5
				c0.1-0.3,0.1-0.7,0.1-1.1c0-3.4,0-6.9,0-10.3c0-0.4,0-0.7,0-1.1c0-0.8-0.3-1.4-1.1-1.5c-0.7-0.1-0.5-0.6-0.5-1.1
				c0-0.5,0.3-0.6,0.7-0.6c2.7,0,5.5,0,8.2,0c0.2,0,0.5,0.1,0.5,0.2c0.2,0.6,0.6,0.5,1,0.6c0.5,0.1,1-0.1,1.2,0.6
				c0,0.2,0.6,0.3,1,0.3c0.4,0,0.5,0.2,0.6,0.6c0.1,0.5-0.1,1.1,0.7,1.4c0.4,0.1,0.2,2.9-0.2,3.3c-0.2,0.2-0.3,0.4-0.5,0.6
				c-0.1,0.2-0.3,0.4-0.4,0.5c-0.1,0.1-0.4,0.1-0.4,0.2c-0.1,0.8-0.7,0.8-1.2,0.9c-0.2,0-0.3,0.1-0.4,0.2c0.1,0.2,0.2,0.3,0.3,0.5
				c0,0,0.2,0,0.2,0.1c0.3,0.6,0.7,1.1,1,1.7c0.2,0.5,0,1.1,0.8,1.3c0.1,0,0.1,0.4,0.2,0.6c0.1,0.5-0.1,1.1,0.7,1.1
				c0,0,0.1,0.1,0.1,0.2c0.1,0.4,0.1,0.9,0.3,1.2c0.2,0.3,0.8,0.2,0.8,0.8c0,0.1,0.4,0.2,0.6,0.2c0.3,0.1,0.6,0,0.8,0.1
				c0.1,0,0.2,0.3,0.2,0.4c0,0.1-0.1,0.3-0.2,0.3c-0.2,0.1-0.4,0.1-0.6,0.1c-1.5,0-3.1,0-4.6,0c-0.5,0-0.8-0.2-0.8-0.8
				c0-0.4-0.1-0.8-0.1-1.2c0-0.2,0-0.5-0.1-0.5c-0.7-0.3-0.5-1-0.8-1.5c-0.4-0.7-0.9-1.3-0.9-2.2c-0.9,0-0.6-1.3-1.5-1.3
				c-0.1-0.8-0.8-0.7-1.3-0.7c-0.5,0-0.6,0.2-0.6,0.6C221.4,70.4,221.4,71.3,221.4,72.2C221.4,72.2,221.4,72.2,221.4,72.2
				 M221.4,64.2L221.4,64.2c0,1,0,1.9,0,2.9c0,0.2,0.1,0.5,0.2,0.7c0.3,0.3,2.2,0,2.4-0.4c0.2-0.4,0.4-0.4,0.8-0.5
				c0.7-0.1,1.1-0.4,1.1-1.2c0-0.2,0.1-0.4,0.2-0.5c1.1-0.5,0.6-1.5,0.6-2.3c0-0.1-0.1-0.4-0.2-0.4c-0.7-0.3-0.7-1.1-1.3-1.5
				c-0.2-0.1-0.4-0.4-0.7-0.5c-0.6,0-1.3-0.1-1.9-0.1c-1,0-1,0-1.1,1C221.4,62.4,221.4,63.3,221.4,64.2"/>
		</defs>
		<clipPath id="SVGID_28_">
			<use xlink:href="#SVGID_27_"  style="overflow:visible;"/>
		</clipPath>
		<g class="st13">
			<defs>
				<rect id="SVGID_29_" x="-1198" y="-2511.1" width="1920" height="4619"/>
			</defs>
			<clipPath id="SVGID_30_">
				<use xlink:href="#SVGID_29_"  style="overflow:visible;"/>
			</clipPath>
			<rect x="211" y="53.9" class="st14" width="27" height="28"/>
		</g>
	</g>
	<g>
		<defs>
			<path id="SVGID_31_" d="M134.4,49.9c-1.7,0-3.4,0-5.2,0c-0.3,0-0.6,0-0.9-0.1c-0.1,0-0.3-0.3-0.3-0.4c0-0.1,0.1-0.3,0.2-0.4
				c0,0,0.1,0,0.1,0c1.3-0.5,1.3-0.5,1.3-1.9c0-4.1,0-8.2,0-12.2c0-1.1,0-1.1-1-1.3c-0.7-0.1-0.6-0.5-0.6-1c0-0.6,0.3-0.6,0.7-0.6
				c2.6,0,5.3,0,7.9,0c0.2,0,0.4,0,0.5,0.1c0.7,0.8,1.7,0.6,2.5,0.7c0.5,0.1,1.1-0.1,1.2,0.7c0,0.1,0.5,0.2,0.8,0.2
				c0.3,0.1,0.7,0.1,0.8,0.5c0,0.1,0.3,0.2,0.4,0.3c0.1,0.1,0.3,0.1,0.4,0.2c0.1,0.4,0.3,0.8,0.8,0.8c0,0.9,1.3,1.2,1.1,2.2
				c0,0.1,0.1,0.4,0.2,0.5c0.7,0.3,0.6,0.9,0.6,1.5c0,1.3,0,2.7,0,4c0,0.2-0.1,0.7-0.2,0.7c-0.8,0.2-0.6,0.9-0.7,1.4
				c0,0.2-0.2,0.5-0.3,0.5c-0.4,0.1-0.4,0.6-0.6,0.7c-0.6,0.3-0.6,1.3-1.4,1.3c-0.1,0-0.3,0.2-0.3,0.3c-0.1,0.5-0.4,0.5-0.7,0.6
				c-0.4,0-0.8,0.1-1,0.6c-0.1,0.2-0.5,0.3-0.8,0.3C138.2,49.9,136.3,49.9,134.4,49.9L134.4,49.9z M133.1,40.7L133.1,40.7
				c0,1.9,0,3.8,0,5.6c0,0.7-0.3,1.6,0.7,1.9c0.1,0.9,0.8,0.7,1.3,0.7c0.7,0,1.4,0,2.2,0c0.7-0.1,1.6,0.2,1.9-0.8
				c0-0.1,0.2-0.1,0.3-0.1c0.3,0,0.5-0.1,0.6-0.5c0-0.1,0.3-0.2,0.4-0.4c0.1-0.1,0.3-0.3,0.4-0.4c0.2-0.2,0.3-0.4,0.5-0.6
				c0.1-0.1,0.3-0.2,0.3-0.4c0.1-0.6,0-1.3,0.7-1.6c0.1,0,0.1-0.4,0.1-0.6c0-1.8,0.6-3.6-0.6-5.3c-0.2-0.3-0.2-0.8-0.3-1.1
				c-0.2-0.5-0.6-0.9-0.7-1.4c-0.1-0.6-1.1-0.4-0.9-1.2c-0.9,0-1.4-1-2.2-1.1c-1.2-0.1-2.5-0.1-3.7-0.1c-0.8,0-0.8,0-0.8,0.9
				C133.1,36.5,133.1,38.6,133.1,40.7z"/>
		</defs>
		<clipPath id="SVGID_32_">
			<use xlink:href="#SVGID_31_"  style="overflow:visible;"/>
		</clipPath>
		<g class="st15">
			<defs>
				<rect id="SVGID_33_" x="-1198" y="-2511.1" width="1920" height="4619"/>
			</defs>
			<clipPath id="SVGID_34_">
				<use xlink:href="#SVGID_33_"  style="overflow:visible;"/>
			</clipPath>
			<rect x="123" y="26.9" class="st16" width="28" height="28"/>
		</g>
	</g>
	<g>
		<defs>
			<path id="SVGID_35_" d="M224.6,49.9c-1.8,0-3.5,0-5.3,0c-0.3,0-0.7,0-1-0.1c-0.1,0-0.3-0.3-0.3-0.4c0-0.1,0.2-0.2,0.3-0.4
				c0,0,0.1,0,0.1,0c0.4-0.1,1,0,1.1-0.3c0.2-0.4,0.2-1,0.2-1.5c0-4.2,0-8.3,0-12.5c0-1.1,0-1.1-1-1.3c-0.6-0.1-0.6-0.5-0.7-1
				c0-0.6,0.3-0.6,0.7-0.6c2.8,0,5.6,0,8.4,0c0.2,0,0.6,0,0.7,0.1c0.6,0.7,1.4,0.6,2.2,0.6c0.4,0,0.8,0,1,0.5
				c0.1,0.2,0.6,0.3,0.9,0.4c0.3,0.1,0.6,0.1,0.8,0.5c0.2,0.5,0.7,0.9,1.2,1.2c0.3,0.2,0.4,0.2,0.5,0.6c0,0.2,0.2,0.3,0.4,0.4
				c0.1,0.1,0.2,0.1,0.3,0.1c0.3,0.8,0.8,1.6,0.9,2.4c0.1,1.8,0.1,3.6,0.1,5.4c0,0.4-0.2,0.8-0.5,1.2c-0.4,0.5-0.8,1-1.2,1.6
				c-0.3,0.5-0.8,0.8-1.2,1.3c-0.3,0.3-0.5,0.7-0.8,0.8c-0.4,0.1-0.6,0.3-0.9,0.6c-0.2,0.3-0.7,0.3-1.1,0.3
				C228.4,49.9,226.5,49.9,224.6,49.9L224.6,49.9z M223.1,40.6L223.1,40.6c0,2,0,4,0,6.1c0,0.5-0.1,1.2,0.7,1.4
				c0.1,0,0.2,0.2,0.2,0.3c0,0.5,0.3,0.5,0.6,0.5c1.3,0,2.6,0,3.9,0c0.3,0,0.6,0,0.6-0.4c0-0.1,0.1-0.3,0.2-0.3
				c0.9-0.1,1.2-0.9,1.8-1.5c0.4-0.4,0.5-1,0.8-1.3c0.7-0.5,0.7-1.1,0.7-1.8c0-1.5,0-3,0-4.4c0-1.1-1.2-1.7-1.1-2.8
				c0,0-0.1,0-0.2-0.1c-0.4-0.4-1-0.8-1.3-1.3c-0.2-0.3-0.3-0.5-0.7-0.5c-0.1,0-0.3-0.1-0.3-0.2c0-0.7-0.5-0.6-0.9-0.6
				c-1.4-0.1-2.9-0.1-4.3-0.1c-0.6,0-0.8,0.2-0.7,0.8C223.1,36.4,223.1,38.5,223.1,40.6z"/>
		</defs>
		<clipPath id="SVGID_36_">
			<use xlink:href="#SVGID_35_"  style="overflow:visible;"/>
		</clipPath>
		<g class="st17">
			<defs>
				<rect id="SVGID_37_" x="-1198" y="-2511.1" width="1920" height="4619"/>
			</defs>
			<clipPath id="SVGID_38_">
				<use xlink:href="#SVGID_37_"  style="overflow:visible;"/>
			</clipPath>
			<rect x="213" y="26.9" class="st18" width="28" height="28"/>
		</g>
	</g>
	<g>
		<defs>
			<path id="SVGID_39_" d="M153,68c0,0.8,0,1.5,0,2.3c0,0.5,0.1,1.2-0.6,1.4c-0.1,0.1-0.2,0.5-0.2,0.8c-0.1,0.4,0,0.9-0.7,1.1
				c-0.4,0.1-0.1,1-0.8,0.9c0,0.8-1.1,0.7-1.1,1.5c0,0.1-0.1,0.2-0.1,0.2c-1-0.1-1.6,1.2-2.6,1c-0.6-0.1-1.1,0.2-1.7,0.6
				c-0.4,0.3-1.2,0.2-1.8,0.2c-0.5,0-1,0.1-1.5-0.5c-0.2-0.3-0.8-0.2-1.1-0.3c-0.5-0.1-1.2,0.1-1.4-0.7c-0.8,0.1-0.8-1.1-1.5-1.1
				c0-0.8-1.1-0.7-1.1-1.5c-0.9-0.3-0.6-1.3-0.9-1.8c-1.3-1.6-0.5-3.4-0.7-5.2c0-0.3,0-0.6,0-0.9c0-0.2,0-0.5,0.1-0.5
				c0.7-0.3,0.6-1,0.7-1.6c0-0.1,0-0.2,0.1-0.3c0.9-0.8,1.5-2,2.5-2.7c0.7-0.5,1.2-1.4,2.2-1.2c0.4,0.1,1,0,1.2-0.6
				c0-0.1,0.4-0.2,0.5-0.2c1.3,0,2.6,0,3.9,0c0.2,0,0.5,0,0.5,0.2c0.2,0.7,0.8,0.6,1.4,0.7c0.5,0.1,1.1,0,1.3,0.7
				c0.8,0,0.8,1,1.4,1.2c0.2,0.1,0.2,0.7,0.4,0.8c0.8,0.2,0.7,0.8,0.8,1.4c0,0.1,0,0.3,0.1,0.3c1.2,0.5,0.6,1.7,0.7,2.5
				C153,67.1,153,67.6,153,68L153,68z M149.5,68c0-0.7,0-1.3,0-2c0-0.2,0-0.6-0.1-0.6c-0.9-0.4-0.6-1.2-0.7-1.9
				c-0.1-0.3-0.2-0.8-0.3-0.8c-0.6-0.2-0.4-1.4-1.3-1.3c0-0.9-0.7-0.7-1.2-0.8c-0.2,0-0.4-0.1-0.5-0.2c-0.3-0.9-0.9-0.6-1.5-0.6
				c-0.5,0-0.9,0.1-1.2,0.6c-0.3,0.3-0.9,0.4-1.4,0.5c-0.1,0-0.1,0.2-0.2,0.3c-0.4,0.6-1.1,1.1-1.1,2c0,0.1-0.1,0.2-0.1,0.2
				c-0.9,0.1-0.6,0.9-0.7,1.4c-0.1,0.6,0.1,1.3-0.6,1.5c-0.1,0-0.1,0.3-0.1,0.5c0,1.1,0,2.2,0,3.3c0,0.2,0.1,0.5,0.2,0.6
				c0.6,0.2,0.5,0.7,0.5,1.2c0.1,0.7-0.2,1.6,0.8,1.8c0,0,0,0.1,0,0.1c0.2,1.1,1.3,1.4,1.8,2.3c0,0.1,0.2,0.1,0.4,0.1
				c1.1,0.2,2.3,0.3,3.4,0c0.1,0,0.4-0.1,0.4-0.1c0-0.9,0.9-0.9,1.4-1.5c0.8-1.1,1.2-1.4,1.3-2.7c0.1-0.4,0-1,0.6-1.2
				c0.1,0,0.2-0.4,0.2-0.7C149.5,69.4,149.5,68.7,149.5,68z"/>
		</defs>
		<clipPath id="SVGID_40_">
			<use xlink:href="#SVGID_39_"  style="overflow:visible;"/>
		</clipPath>
		<g class="st19">
			<defs>
				<rect id="SVGID_41_" x="-1198" y="-2511.1" width="1920" height="4619"/>
			</defs>
			<clipPath id="SVGID_42_">
				<use xlink:href="#SVGID_41_"  style="overflow:visible;"/>
			</clipPath>
			<rect x="130" y="53.9" class="st20" width="28" height="29"/>
		</g>
	</g>
	<g>
		<defs>
			<path id="SVGID_43_" d="M193,68c0,0.8,0,1.7,0,2.5c0,0.5,0.1,1.1-0.6,1.4c-0.1,0-0.2,0.4-0.2,0.6c-0.1,0.5,0,1.2-0.7,1.2
				c0.1,0.7-0.8,0.7-1,1.3c0,0.1-0.3,0.2-0.4,0.4c-0.2,0.1-0.3,0.3-0.5,0.4c-0.1,0.1-0.1,0.3-0.1,0.3c-1-0.1-1.5,1.1-2.5,1.1
				c-0.7,0-1.3,0.2-1.9,0.6c-0.7,0.4-1.6,0.4-2.4-0.1c-0.1-0.1-0.3-0.3-0.4-0.3c-1.2,0-2.3-0.6-3.4-1.1c-0.2-0.1-0.5-0.2-0.5-0.4
				c-0.1-0.3-0.2-0.5-0.5-0.5c-0.1,0-0.2-0.1-0.3-0.1c-0.1-0.5-0.2-0.8-0.8-0.8c-0.1-0.8-1.3-1.1-1-2.2c0-0.2,0-0.5-0.1-0.5
				c-0.8-0.3-0.6-1-0.6-1.6c0-0.9,0-1.9,0-2.8c0-0.7-0.2-1.5,0.6-2c0.1-0.1,0.1-0.4,0.1-0.6c0.1-0.5-0.1-1.2,0.7-1.2
				c0-0.8,0.7-1,1.1-1.4c0.4-0.5,0.7-1.3,1.4-1.3c0.1,0,0.3-0.1,0.3-0.2c0.3-0.5,0.8-0.5,1.2-0.6c0.5-0.1,1.1,0.1,1.4-0.7
				c0-0.1,0.4-0.1,0.6-0.1c1.3,0,2.5,0,3.8,0c0.3,0,0.5,0,0.8,0.4c0.1,0.2,0.6,0.3,0.9,0.4c0.6,0.1,1.3,0,1.7,0.8
				c0.8-0.1,0.8,1,1.5,1.1c0.1,0.8,1.3,1.1,1.1,2.1c0,0.1,0.1,0.5,0.2,0.5c0.8,0.1,0.6,0.8,0.6,1.3C193,66.3,193,67.1,193,68L193,68
				z M189.5,68.4L189.5,68.4c0-0.1,0-0.1,0-0.2c0-1.2,0.2-2.5-0.7-3.6c-0.1-0.1-0.1-0.3-0.1-0.4c-0.1-0.7,0.1-1.5-0.8-1.9
				c-0.1,0,0-0.3-0.1-0.4c0-0.1-0.1-0.3-0.2-0.3c-0.7-0.3-1-1.2-1.9-1.1c-0.1,0-0.2-0.1-0.3-0.2c-0.6-0.6-1.9-0.6-2.5-0.1
				c-1.1,0.9-2.4,1.6-2.9,3.2c0,0-0.1,0.1-0.1,0.1c-0.7,0.1-0.5,0.7-0.6,1.2c-0.2,0.9,0.1,2-0.7,2.7c-0.1,0.1-0.1,0.3-0.1,0.5
				c0.1,0.8-0.3,1.7,0.6,2.3c0.1,0.1,0.1,0.4,0.1,0.6c0.1,0.5,0.1,1.1,0.2,1.6c0,0.3,0.1,0.6,0.3,0.8c0.6,0.6,1,1.2,1.4,2
				c0.1,0.1,0.2,0.1,0.3,0.2c0.2,0.1,0.3,0.3,0.5,0.4c0.2,0.1,0.3,0.4,0.5,0.4c1.1,0,2.2,0,3.4,0c0.2,0,0.5-0.1,0.5-0.2
				c0-0.7,0.6-0.6,0.9-0.7c0.5-0.1,0.7-0.3,0.7-0.8c0-0.3,0.2-0.8,0.3-0.8c0.6-0.2,0.4-0.6,0.5-1c0.1-0.3,0.1-0.8,0.3-1
				c0.4-0.2,0.4-0.6,0.5-1C189.5,69.9,189.5,69.1,189.5,68.4z"/>
		</defs>
		<clipPath id="SVGID_44_">
			<use xlink:href="#SVGID_43_"  style="overflow:visible;"/>
		</clipPath>
		<g class="st21">
			<defs>
				<rect id="SVGID_45_" x="-1198" y="-2511.1" width="1920" height="4619"/>
			</defs>
			<clipPath id="SVGID_46_">
				<use xlink:href="#SVGID_45_"  style="overflow:visible;"/>
			</clipPath>
			<rect x="170" y="53.9" class="st22" width="28" height="29"/>
		</g>
	</g>
	<g>
		<defs>
			<path id="SVGID_47_" d="M200.8,41.9c0,1.7,0,3.5,0,5.2c0,0.8,0.5,1.5,1.4,1.9c0.2,0.1,0.3,0.3,0.4,0.5c0,0.1-0.3,0.3-0.4,0.3
				c-1.2,0-2.4,0-3.6,0c-0.2,0-0.3-0.3-0.5-0.4c0.1-0.1,0.3-0.3,0.4-0.4c0.4-0.1,1-0.1,1.1-0.3c0.2-0.4,0.3-1,0.3-1.5c0-4,0-8,0-12
				c0-0.3-0.1-0.6,0-0.9c0-0.5-0.1-0.8-0.7-0.8c-0.5,0-0.8-0.2-0.9-0.8c-0.1-0.7,0-0.9,0.7-0.9c1.5,0,3.1,0,4.6,0
				c0.3,0,0.5,0.2,0.8,0.4c0.6,0.6,1.1,1.1,1.1,1.9c0.6,0.2,0.7,0.9,1,1c0.6,0.3,0.6,0.8,0.7,1.2c0.1,0.2,0.3,0.4,0.5,0.6
				c0.1,0.2,0.3,0.4,0.4,0.5c0.1,0.1,0.2,0.4,0.4,0.4c0.4,0.1,0.5,0.2,0.5,0.6c0,0.1,0.2,0.4,0.3,0.4c0.5,0,0.4,0.3,0.6,0.7
				c0.1,0.4,0.4,0.7,0.6,1c0.4,0.6,1.1,0.9,1.3,1.6c0,0.1,0.3,0.4,0.4,0.3c0.2-0.1,0.4-0.3,0.5-0.5c0.1-0.1,0-0.3,0-0.4
				c0-2.2,0-4.5,0-6.7c0-0.6,0.2-1.5-0.9-1.6c-0.3,0-0.6-0.6-0.8-1c-0.1-0.1,0.1-0.5,0.2-0.5c1.5,0,3,0,4.5,0c0.1,0,0.2,0.4,0.3,0.5
				c-0.5,0.2-0.5,1.1-1.2,1.1c-0.1,0-0.3,0.3-0.4,0.5c-0.1,0.5-0.1,1-0.1,1.5c0,4.3,0,8.7,0,13c0,1.1,0,1.1-0.9,1.2
				c-0.9,0.1-1.4-0.2-1.7-0.9c-0.1-0.4-0.1-0.8-0.7-0.9c-0.2,0-0.2-0.6-0.4-0.8c-0.4-0.2-0.6-0.7-0.9-0.9c-0.5-0.5-0.8-0.9-0.9-1.6
				c0-0.1-0.2-0.2-0.3-0.2c-0.1,0-0.3,0-0.3-0.1c-0.1-0.6-0.6-0.9-1-1.3c-0.4-0.3-0.7-0.8-0.9-1.2c-0.2-0.5-0.3-1-0.9-1.2
				c0.1-0.8-1.2-0.7-1.1-1.6c-0.9-0.2-0.6-1.3-1-1.5c-0.7-0.4-0.6-1.4-1.5-1.4c0,0-0.1,0-0.1-0.1c-0.2-0.2-0.4-0.4-0.6-0.6
				c-0.1,0.3-0.2,0.7-0.2,1C200.7,38.4,200.8,40.2,200.8,41.9L200.8,41.9z"/>
		</defs>
		<clipPath id="SVGID_48_">
			<use xlink:href="#SVGID_47_"  style="overflow:visible;"/>
		</clipPath>
		<g class="st23">
			<defs>
				<rect id="SVGID_49_" x="-1198" y="-2511.1" width="1920" height="4619"/>
			</defs>
			<clipPath id="SVGID_50_">
				<use xlink:href="#SVGID_49_"  style="overflow:visible;"/>
			</clipPath>
			<rect x="193" y="26.9" class="st24" width="28" height="28"/>
		</g>
	</g>
	<g>
		<defs>
			<path id="SVGID_51_" d="M258.4,42.3c0,1.4,0,2.9,0,4.3c0,0.3,0,0.7,0,1c0.1,1.2,0.1,1.2,1.3,1.5c0.2,0,0.3,0.3,0.5,0.4
				c-0.2,0.1-0.3,0.4-0.5,0.4c-1.4,0-2.8,0-4.3,0c-0.2,0-0.4-0.2-0.5-0.4c0.2-0.1,0.3-0.4,0.5-0.4c1.2-0.3,1.2-0.3,1.4-1.5
				c0-0.4,0-0.7,0-1.1c0-3.5,0-7,0-10.5c0-0.6-0.1-1.1-0.1-1.7c0-0.4-0.1-0.6-0.5-0.8c-0.5-0.2-0.8-0.7-1.1-1.1
				c0-0.1,0.1-0.4,0.2-0.4c0.2-0.1,0.5-0.1,0.8-0.1c1.4,0,2.8,0,4.2,0c0.5,0,0.8,0.1,1.2,0.5c0.4,0.4,0.6,0.9,1,1.1
				c0.5,0.4,0.6,0.9,0.8,1.4c0.1,0.2,0.3,0.2,0.4,0.4c0.1,0.1,0.3,0.3,0.4,0.4c0.2,0.2,0.3,0.4,0.5,0.6c0.1,0.2,0.3,0.3,0.3,0.5
				c0.1,0.5,0.2,1,0.8,1.2c0.1,0,0.1,0.3,0.2,0.5c0.1,0.2,0.3,0.3,0.4,0.5c0.1,0.2,0.3,0.3,0.5,0.5c0.6,0.6,0.8,1.3,1.3,1.9
				c0.2,0.3,0.5,0.7,0.8,1.1c0.2,0.3,0.8,0.2,0.9,0.7c0.1,0.3,0.5,0.2,0.6-0.1c0.1-0.2,0.1-0.5,0.1-0.7c0-2.3,0-4.6,0-6.9
				c0-0.9-0.6-1.5-1.3-1.8c-0.6-0.3-0.4-0.9-0.4-1.3c0-0.1,0.4-0.3,0.7-0.3c1,0,2,0,3,0c0.4,0,0.8,0,0.7,0.6c0,0.4,0.1,0.9-0.5,1
				c-0.3,0.1-0.9,0.1-1,0.3c-0.2,0.3-0.1,0.8-0.1,1.3c0,4.1,0,8.2,0,12.3c0,0.5,0,1.1,0,1.6c0,0.3,0.2,0.8-0.4,1
				c-0.7,0.1-1.1,0-1.4-0.6c-0.3-0.4-1.1-0.4-1-1.1c-0.9-0.6-1.5-1.5-1.8-2.5c0-0.1-0.2-0.2-0.3-0.3c-0.3,0-0.5-0.2-0.5-0.5
				c0-0.2-0.3-0.3-0.4-0.5c0,0-0.2,0-0.2,0c-0.4-0.6-0.8-1.2-1.1-1.8c-0.2-0.3-0.1-0.7-0.6-0.8c-0.1,0-0.2-0.3-0.3-0.5
				c-0.1-0.1-0.1-0.4-0.2-0.5c-0.8-0.5-1.5-1.2-1.7-2.2c0-0.2-0.2-0.4-0.4-0.4c-0.4-0.1-0.4-0.3-0.5-0.6c0-0.1-0.2-0.3-0.3-0.3
				c-0.4,0-0.5-0.3-0.6-0.6c0-0.2-0.4-0.4-0.5-0.4c-0.2,0-0.4,0.3-0.5,0.5c-0.1,0.3-0.1,0.6-0.1,0.9
				C258.4,39.2,258.4,40.7,258.4,42.3"/>
		</defs>
		<clipPath id="SVGID_52_">
			<use xlink:href="#SVGID_51_"  style="overflow:visible;"/>
		</clipPath>
		<g class="st25">
			<defs>
				<rect id="SVGID_53_" x="-1198" y="-2511.1" width="1920" height="4619"/>
			</defs>
			<clipPath id="SVGID_54_">
				<use xlink:href="#SVGID_53_"  style="overflow:visible;"/>
			</clipPath>
			<rect x="250" y="26.9" class="st26" width="28" height="28"/>
		</g>
	</g>
	<g>
		<defs>
			<path id="SVGID_55_" d="M199.1,68.7c0,1,0.1,2,0.1,3c0,0.7-0.1,1.6,0.7,2c0,0.8,0.6,1.2,1,1.5c0.4,0.3,0.7,0.9,1.1,1
				c0.9,0.2,1.9,0.2,2.8,0.2c0.2,0,0.3-0.1,0.5-0.1c0.9,0.1,1.5-0.3,1.6-1.3c0-0.1,0-0.3,0.1-0.3c1.2-0.6,0.4-1.7,0.6-2.6
				c0-0.1-0.1-0.3-0.1-0.3c-0.7,0-0.5-1.2-1.3-1.1c0,0-0.1-0.7-0.1-1.1c0-0.4,0.3-0.5,0.6-0.5c1.2,0,2.5,0,3.7,0c0.5,0,1,0,1.5,0
				c0.8,0,1.1,0.6,0.8,1.3c-0.1,0.2-0.3,0.3-0.6,0.3c-1,0.3-1,0.3-1.1,1.4c0,0.8,0,1.7,0,2.5c0,0.3-0.1,0.5-0.4,0.7
				c-0.7,0.4-1.2,1.1-2,1c-0.5,1.1-1.5,0.6-2.3,0.8c-0.5,0.1-0.9,0.2-1.4,0.5c-0.6,0.3-1.6,0.4-2.2,0.1c-0.5-0.3-1-0.5-1.6-0.5
				c-0.5-0.1-1.1,0.1-1.5-0.6c-0.1-0.2-0.5-0.3-0.8-0.3c-0.3,0-0.5-0.1-0.6-0.5c0-0.2-0.2-0.4-0.4-0.4c-0.3,0-0.5-0.2-0.5-0.5
				c0-0.1-0.1-0.3-0.1-0.3c-0.8,0.1-0.6-1.2-1.3-1.2c0,0-0.1-0.1-0.1-0.1c0.1-1.4-1.3-2.4-1-4c0.1-0.6,0-1.3,0-2c0-0.5,0-1,0.5-1.5
				c0.3-0.2,0.2-0.8,0.3-1.2c0.1-0.5,0-1.1,0.6-1.2c0-0.9,1.1-0.8,1.1-1.7c0.7,0,0.7-1.1,1.5-1.2c0.2,0,0.3-0.4,0.5-0.5
				c0.4-0.2,0.8-0.3,1.2-0.4c0.4-0.1,1,0.1,1.2-0.6c0-0.1,0.3-0.2,0.5-0.2c1.2,0,2.4,0,3.6,0c0.2,0,0.6,0.1,0.6,0.3
				c0.2,0.6,0.7,0.5,1.1,0.5c0.6,0,1.2,0,1.8-0.1c0.5,0,0.8,0.1,0.8,0.7c0,1.1,0,2.2,0,3.3c0,0.3,0,0.7-0.5,0.7
				c-0.4,0-0.4-0.3-0.4-0.6c-0.1-0.5,0.1-1.2-0.7-1.2c0.1-0.9-1-0.8-1.1-1.5c0-0.1-0.4-0.3-0.6-0.3c-0.5-0.1-1-0.1-1.5-0.6
				c-0.2-0.3-0.8-0.2-1.3-0.3c-0.4,0-0.9-0.1-1.1,0.5c0,0.1-0.1,0.2-0.2,0.2c-0.4,0.1-0.8,0-1.1,0.2c-0.3,0.2-0.5,0.5-0.7,0.8
				c-0.1,0.1-0.4,0.3-0.4,0.4c0.1,0.7-0.7,0.4-0.8,0.9c-0.1,0.4-0.1,1.1-0.3,1.2c-0.8,0.4-0.6,1.1-0.6,1.7c0,1,0,2,0,3L199.1,68.7z"
				/>
		</defs>
		<clipPath id="SVGID_56_">
			<use xlink:href="#SVGID_55_"  style="overflow:visible;"/>
		</clipPath>
		<g class="st27">
			<defs>
				<rect id="SVGID_57_" x="-1198" y="-2511.1" width="1920" height="4619"/>
			</defs>
			<clipPath id="SVGID_58_">
				<use xlink:href="#SVGID_57_"  style="overflow:visible;"/>
			</clipPath>
			<rect x="190" y="53.9" class="st28" width="28" height="29"/>
		</g>
	</g>
	<g>
		<defs>
			<path id="SVGID_59_" d="M110.7,42.2c0,1.8,0,3.6,0,5.4c0,1.1,0,1.2,1.1,1.4c0.3,0.1,0.6,0.1,0.5,0.5c0,0.2-0.3,0.4-0.5,0.4
				c-1.1,0-2.2,0-3.3,0c-0.2,0-0.4-0.2-0.5-0.4c0.1-0.2,0.3-0.4,0.4-0.5c0.9-0.4,1.3-0.9,1.3-1.8c0-4,0-8.1,0-12.1
				c0-0.2-0.1-0.4,0-0.6c0-0.5-0.2-0.8-0.7-0.8c-0.3,0-0.8,0.1-0.9-0.5c-0.1-0.9,0-1.1,0.9-1.1c1.4,0,2.9,0,4.3,0
				c0.5,0,0.9,0.2,1,0.7c0.1,0.4,0.1,0.9,0.7,0.9c0.1,0.8,1.1,1.1,1.2,1.9c0,0.2,0.3,0.4,0.4,0.6c0.1,0.2,0.3,0.4,0.4,0.5
				c0.1,0.1,0.1,0.4,0.1,0.4c0.5,0.1,0.7,0.4,0.8,0.9c0.8,0.2,0.8,0.9,0.9,1.6c0,0.1,0.2,0.2,0.4,0.3c0.1,0.1,0.4,0.2,0.4,0.3
				c0.1,0.7,1.1,0.8,1,1.5c0.7,0.1,0.7,0.8,1,1.3c0.1,0.1,0.2,0.3,0.3,0.3c0,0,0.2-0.2,0.3-0.3c0.1-0.3,0.2-0.6,0.2-0.8
				c0-2.5,0-5,0-7.5c0-0.6-0.1-1.1-0.9-1.1c-0.5,0-0.7-0.3-0.8-0.8c0-0.6,0.1-0.8,0.7-0.8c1,0,1.9,0,2.9,0c0.5,0,0.7,0.2,0.6,0.7
				c0,0.4,0.2,0.8-0.5,1c-1.2,0.2-1.2,0.3-1.2,1.6c0,4.3,0,8.6,0,12.9c0,0.3,0,0.7,0,1c0,0.4,0.2,0.8-0.5,0.9
				c-0.6,0.1-1.1-0.1-1.4-0.6c-0.1-0.2-0.3-0.4-0.4-0.6c-0.2-0.3-0.4-0.6-0.6-0.9c-0.1-0.2-0.3-0.4-0.4-0.6
				c-0.1-0.2-0.3-0.4-0.4-0.5c-0.1-0.2-0.2-0.4-0.4-0.4c-0.3-0.1-0.5-0.2-0.5-0.6c0-0.2-0.2-0.3-0.4-0.4c-0.1-0.1-0.3-0.1-0.3-0.2
				c-0.1-0.7-0.5-1.3-1-1.8c-0.2-0.2-0.2-0.5-0.5-0.5c-0.2,0-0.3-0.3-0.4-0.4c-0.1-0.2-0.2-0.4-0.4-0.6c-0.2-0.2-0.4-0.5-0.5-0.7
				c-0.2-0.4-0.1-0.9-0.7-0.9c0-0.8-1.1-0.8-1.1-1.6c0-0.1-0.3-0.2-0.4-0.3c-0.1-0.1-0.3-0.1-0.3-0.2c-0.4-0.7-0.7-1.4-1.1-2.1
				c-0.1-0.1-0.3-0.3-0.4-0.3c-0.2,0.1-0.3,0.3-0.4,0.4c-0.1,0.4-0.1,0.9-0.1,1.3C110.7,38.8,110.7,40.5,110.7,42.2L110.7,42.2z"/>
		</defs>
		<clipPath id="SVGID_60_">
			<use xlink:href="#SVGID_59_"  style="overflow:visible;"/>
		</clipPath>
		<g class="st29">
			<defs>
				<rect id="SVGID_61_" x="-1198" y="-2511.1" width="1920" height="4619"/>
			</defs>
			<clipPath id="SVGID_62_">
				<use xlink:href="#SVGID_61_"  style="overflow:visible;"/>
			</clipPath>
			<rect x="103" y="26.9" class="st30" width="27" height="28"/>
		</g>
	</g>
	<g>
		<defs>
			<path id="SVGID_63_" d="M170.1,31.9c1.1,0,2.2,0,3.4,0c0.8,0,1.5-0.2,2.1,0.6c0.1,0.1,0.5,0.1,0.7,0.2c0.4,0.1,0.9,0,1.1,0.7
				c0.1,0.3,0.8,0.6,1.1,1c1,1,1.9,3.2,1.2,4.3c-0.4,0.7-0.5,1.6-1,1.9c-0.6,0.4-1,1.4-1.9,1.3c-0.1,0-0.4,0.1-0.4,0.1
				c-0.2,1-1,0.6-1.5,0.7c-1.3,0-2.6,0-3.9,0c-0.8,0-0.8,0-0.8,0.8c0,1.2,0,2.5,0,3.7c0,1,0.6,1.4,1.3,1.8c0.2,0.2,0.6,0.2,0.5,0.5
				c-0.1,0.2-0.4,0.4-0.6,0.4c-1.9,0-3.8,0-5.7,0c-0.3,0-0.7,0-0.7-0.5c0-0.4,0.3-0.4,0.6-0.4c1.1-0.2,1.1-0.2,1.1-1.3
				c0-4.3,0-8.7,0-13c0-0.5,0.1-1.1-0.7-1.2c-0.3,0-0.7-0.6-0.9-1c-0.2-0.4,0.1-0.5,0.4-0.5c0.9,0,1.8,0,2.6,0
				C168.8,31.9,169.5,31.9,170.1,31.9 M170.2,37.6c0,1.2,0,2.3,0,3.5c0,0.2,0.2,0.7,0.3,0.7c1.1-0.2,2.5,0.7,3.3-0.7
				c0-0.1,0.2-0.1,0.3-0.1c0.7-0.3,1.1-0.8,1.4-1.5c0.1-0.1,0.2-0.3,0.3-0.4c0.4-0.1,0.5-0.4,0.5-0.7c-0.1-0.8,0.4-1.8-0.6-2.3
				c-0.1-0.7-0.4-1.4-1-1.9c-0.3-0.2-0.4-0.5-0.8-0.5c-1,0-2,0-2.9-0.1c-0.6,0-0.8,0.3-0.8,0.8C170.3,35.4,170.2,36.5,170.2,37.6"/>
		</defs>
		<clipPath id="SVGID_64_">
			<use xlink:href="#SVGID_63_"  style="overflow:visible;"/>
		</clipPath>
		<g class="st31">
			<defs>
				<rect id="SVGID_65_" x="-1198" y="-2511.1" width="1920" height="4619"/>
			</defs>
			<clipPath id="SVGID_66_">
				<use xlink:href="#SVGID_65_"  style="overflow:visible;"/>
			</clipPath>
			<rect x="160" y="26.9" class="st32" width="25" height="28"/>
		</g>
	</g>
	<g>
		<defs>
			<path id="SVGID_67_" d="M142.1,21.9c-2.2,0-4.4,0-6.6,0c-0.2,0-0.5,0-0.6,0c-0.3-0.1-0.6-0.3-0.9-0.5c0.3-0.1,0.5-0.3,0.8-0.4
				c0.5-0.1,0.8-0.2,0.8-0.8c1.1-0.7,0.7-1.8,0.7-2.7c0-3.3,0-6.6,0-10c0-0.7-0.6-1.7-1.3-2c-0.5-0.2-0.4-0.6-0.4-1
				c0-0.4,0.2-0.6,0.6-0.6c0.2,0,0.4,0,0.6,0c3.6,0,7.3,0,10.9,0c1.3,0,2.1,0.8,2.1,2.1c0,0.6,0.1,1.1,0.1,1.7
				c0,0.2-0.2,0.4-0.4,0.7c-0.2-0.1-0.4-0.3-0.5-0.4c-0.2-0.2-0.4-0.4-0.5-0.6c-0.2-0.3-0.4-0.6-0.4-0.9c-0.1-0.5-0.3-0.8-0.8-0.8
				c-1.9-0.1-3.8-0.1-5.7-0.2c-0.5,0-0.7,0.2-0.7,0.7c0,1.7,0,3.4,0,5.1c0,0.5,0.2,0.7,0.7,0.6c0.5,0,0.9,0,1.4,0
				c1.4,0,1.4,0,1.7-1.4c0.1-0.6,0.5-0.5,0.9-0.5c0.4,0,0.7,0.1,0.7,0.6c0,1.4,0,2.8,0,4.2c0,0.5-0.3,0.5-0.7,0.5
				c-0.3,0-0.8,0.1-0.9-0.4c0-0.1,0-0.2,0-0.3c-0.2-1.2-1-1.9-2.2-1.9c-1.9,0-1.6-0.2-1.6,1.6c0,1.6,0,3.2,0,4.9
				c0,0.8,0.8,1.7,1.6,1.7c1.6,0,3.2,0,4.8-0.1c0.3,0,0.7,0,0.8-0.5c0-0.1,0.3-0.2,0.5-0.3c0.2-0.1,0.3-0.3,0.5-0.5
				c0.1-0.1,0.3-0.4,0.4-0.4c0.4-0.1,0.5-0.3,0.5-0.7c0-0.1,0-0.3,0-0.4c0-0.3-0.1-0.8,0.5-0.8c0.5,0,0.4,0.4,0.4,0.7
				c0,1,0,2.1,0,3.1c0,0.6-0.2,0.8-0.7,0.8c-1.4,0-2.8,0-4.2,0C144,21.9,143.1,21.9,142.1,21.9L142.1,21.9z"/>
		</defs>
		<clipPath id="SVGID_68_">
			<use xlink:href="#SVGID_67_"  style="overflow:visible;"/>
		</clipPath>
		<g class="st33">
			<defs>
				<rect id="SVGID_69_" x="-1198" y="-2511.1" width="1920" height="4619"/>
			</defs>
			<clipPath id="SVGID_70_">
				<use xlink:href="#SVGID_69_"  style="overflow:visible;"/>
			</clipPath>
			<rect x="129" y="-1.1" class="st34" width="26" height="28"/>
		</g>
	</g>
	<g>
		<defs>
			<path id="SVGID_71_" d="M259.3,58.9c1.2,0,2.4,0,3.6,0c0.3,0,0.7,0,0.8,0.1c0.4,0.7,1,0.6,1.6,0.7c0.4,0.1,0.9,0,1.1,0.6
				c0.8,0.1,0.7,1.2,1.4,1.5c0.1,0.1,0.2,0.4,0.2,0.7c0,1.3,0,2.6,0,3.9c0,0.1,0,0.4-0.1,0.4c-0.5,0.2-0.5,0.7-0.8,1
				c-0.3,0.3-0.6,0.7-0.8,0.9c-0.8,0.5-1.6,1.3-2.7,1.1c-1.1-0.2-2.2,0-3.3,0c-0.4,0-0.7,0.1-0.7,0.6c0,1.7,0.1,3.3,0.1,5
				c0,0.6,0.2,0.7,0.7,0.8c0.3,0,0.9-0.2,0.9,0.4c0,0.7-0.6,0.4-1,0.5c-1.7,0-3.4,0-5.1,0c-0.4,0-0.7-0.2-1.1-0.4
				c0.3-0.2,0.7-0.3,1-0.5c0.2-0.1,0.3-0.3,0.5-0.4c0.1-0.1,0.1-0.4,0.1-0.4c0.9-0.2,0.6-1,0.6-1.5c0-3.7,0-7.4,0-11.1
				c0-1-0.6-1.5-1.2-1.9c-0.5-0.4-0.4-0.8-0.4-1.2c0-0.5,0.4-0.5,0.7-0.5C256.7,58.9,258,58.9,259.3,58.9 M259.5,64.7L259.5,64.7
				c0,1.1,0,2.2,0,3.4c0,0.5,0.2,0.8,0.7,0.8c0.8-0.1,1.8,0.4,2.4-0.7c0.1-0.1,0.2-0.1,0.4-0.1c1-0.1,1.3-1.1,1.5-1.7
				c0.3-1,0.1-2.1,0.2-3.2c0-0.6-0.4-0.5-0.7-0.8c0,0,0-0.1-0.1-0.2c-0.4-0.8-0.9-1.4-1.8-1.5c-0.5,0-1.1-0.1-1.6,0
				c-0.9,0-1,0.1-1,1.1C259.4,62.7,259.5,63.7,259.5,64.7"/>
		</defs>
		<clipPath id="SVGID_72_">
			<use xlink:href="#SVGID_71_"  style="overflow:visible;"/>
		</clipPath>
		<g class="st35">
			<defs>
				<rect id="SVGID_73_" x="-1198" y="-2511.1" width="1920" height="4619"/>
			</defs>
			<clipPath id="SVGID_74_">
				<use xlink:href="#SVGID_73_"  style="overflow:visible;"/>
			</clipPath>
			<rect x="249" y="53.9" class="st36" width="24" height="28"/>
		</g>
	</g>
	<g>
		<defs>
			<path id="SVGID_75_" d="M104.4,58.9c1.4,0,2.8,0,4.1,0c0.4,0,0.9-0.1,1.1,0.5c0,0.1,0.3,0.2,0.5,0.2c0.6,0.1,1.2,0,1.5,0.7
				c0.1,0.2,0.8,0.3,0.8,0.8c0.9,0.1,0.5,1.4,1.4,1.5c0.1,0,0.1,0.4,0.1,0.6c0,0.6,0,1.2,0,1.8c0,0.4,0,0.8-0.5,0.9
				c-0.2,0-0.2,0.5-0.3,0.7c-0.1,0.4,0,1.1-0.7,1.1c-0.3,0.8-1,0.9-1.7,0.9c-0.1,0-0.3,0.1-0.3,0.1c-0.2,0.9-0.8,0.6-1.3,0.6
				c-1.3,0-2.6,0-3.9,0c-0.9,0-1,0-1,0.9c0,1,0.1,2,0,3c-0.1,0.9,0.3,1.5,0.8,2.1c0.1,0.1,0.4,0.1,0.5,0.2c0.2,0.1,0.3,0.3,0.5,0.4
				c-0.2,0.2-0.4,0.4-0.6,0.4c-1.5,0-3,0.1-4.5,0.1c-0.5,0-1.1,0-1.6-0.1c-0.2,0-0.3-0.2-0.5-0.3c0.1-0.2,0.3-0.4,0.4-0.5
				c0.4-0.1,1-0.1,1.1-0.3c0.2-0.4,0.2-1,0.2-1.5c0-4.1,0-8.1,0-12.2c0-0.3,0-0.7-0.1-1c0-0.2-0.2-0.4-0.2-0.4c-0.7,0-0.8-0.5-1-0.9
				c-0.1-0.2-0.2-0.4-0.3-0.6c0.2-0.1,0.4-0.2,0.7-0.2c0.8,0,1.7,0,2.6,0H104.4z M104.3,64.6c0,1.2,0,2.4,0,3.6
				c0,0.2,0.3,0.6,0.4,0.6c1.1-0.2,2.5,0.8,3.3-0.7c0,0,0.1,0,0.1,0c0.8-0.3,1.4-0.8,1.6-1.7c0-0.1,0.1-0.3,0.2-0.3
				c0.6-0.2,0.4-0.8,0.5-1.2c0-0.5,0.1-1.2-0.1-1.3c-0.8-0.5-0.3-2-1.5-2.2c0,0,0-0.1,0-0.2c0-0.4-0.3-0.5-0.6-0.5
				c-1.1,0-2.1-0.1-3.2-0.1c-0.5,0-0.7,0.2-0.7,0.7C104.3,62.4,104.3,63.5,104.3,64.6z"/>
		</defs>
		<clipPath id="SVGID_76_">
			<use xlink:href="#SVGID_75_"  style="overflow:visible;"/>
		</clipPath>
		<g class="st37">
			<defs>
				<rect id="SVGID_77_" x="-1198" y="-2511.1" width="1920" height="4619"/>
			</defs>
			<clipPath id="SVGID_78_">
				<use xlink:href="#SVGID_77_"  style="overflow:visible;"/>
			</clipPath>
			<rect x="94" y="53.9" class="st38" width="25" height="28"/>
		</g>
	</g>
	<g>
		<defs>
			<path id="SVGID_79_" d="M298.5,76.9c-2.1,0-4.2,0-6.3,0c-0.2,0-0.5,0-0.7-0.1c-0.2-0.1-0.4-0.3-0.4-0.4c0-0.1,0.2-0.3,0.3-0.4
				c0.8-0.3,1.4-1.2,1.4-2c0-3.9,0-7.8,0-11.8c0-0.9-0.2-1.5-1.1-1.7c-0.7-0.1-0.5-0.7-0.5-1.1c0-0.5,0.4-0.5,0.8-0.5
				c3.8,0,7.6,0,11.5,0c0.8,0,1.6,0.9,1.7,1.7c0,0.7,0.1,1.4,0,2.2c0,0.2-0.2,0.5-0.4,0.6c-0.3,0.1-0.5-0.1-0.5-0.5
				c0-0.6,0-1.2-0.7-1.4c-0.2-1.2-1.2-1-1.9-1c-1.5-0.1-2.9,0-4.4,0c-0.6,0-0.8,0.2-0.8,0.8c0,1.7,0,3.3,0,5c0,0.5,0.2,0.7,0.7,0.7
				c0.5,0,1.1,0,1.6,0c0.6,0,1.3,0.1,1.3-0.8c0.8-0.2,0.9-0.9,0.9-1.6c0-0.1,0.2-0.2,0.3-0.2c0.1,0,0.3,0.1,0.3,0.2
				c0.1,0.3,0.1,0.6,0.2,1c0,1.4,0,2.8,0,4.2c0,0.3,0.1,0.7-0.4,0.8c-0.5,0.1-0.4-0.3-0.5-0.6c-0.2-1-1.2-1.9-2.2-2
				c-2.2-0.2-2.2-0.2-2.2,2.1c0,1.4,0,2.9,0,4.3c0,0.4-0.1,0.8,0.5,0.8c0.1,0,0.2,0,0.2,0.1c0.2,1,1,0.7,1.6,0.8c1.2,0,2.3,0,3.5,0
				c0.5,0,1.2,0.2,1.3-0.7c0.7,0,0.8-0.9,1.3-1.1c0.1-0.1,0.3-0.3,0.3-0.5c0.1-0.3,0.1-0.7,0.1-1c0-0.2,0.2-0.3,0.4-0.4
				c0.2,0.2,0.4,0.3,0.4,0.5c0.1,0.7,0,1.4,0,2.2c0,2,0,2-1.9,2C302.2,76.9,300.3,76.9,298.5,76.9L298.5,76.9z"/>
		</defs>
		<clipPath id="SVGID_80_">
			<use xlink:href="#SVGID_79_"  style="overflow:visible;"/>
		</clipPath>
		<g class="st39">
			<defs>
				<rect id="SVGID_81_" x="-1198" y="-2511.1" width="1920" height="4619"/>
			</defs>
			<clipPath id="SVGID_82_">
				<use xlink:href="#SVGID_81_"  style="overflow:visible;"/>
			</clipPath>
			<rect x="286" y="53.9" class="st40" width="25" height="28"/>
		</g>
	</g>
	<g>
		<defs>
			<path id="SVGID_83_" d="M155.7,49.9c-2.2,0-4.3,0-6.5,0c-0.3,0-0.6,0-0.9-0.1c-0.2,0-0.4-0.2-0.4-0.4c0-0.1,0.2-0.3,0.3-0.4
				c0,0,0.1,0,0.1,0c1.2-0.3,1.3-0.3,1.3-1.6c0-4.2,0-8.3,0-12.5c0-0.3,0-0.6-0.1-1c0-0.1-0.1-0.4-0.2-0.4c-0.8,0.1-0.7-0.9-1.3-1.1
				c-0.3-0.1-0.2-0.5,0.2-0.6c0.2,0,0.4,0,0.6,0c4,0,8.1,0,12.1,0c1,0,1,0,1.2,1c0.1,0.3,0.2,0.6,0.3,0.8c0.6,0.7,0.3,1.5,0.3,2.3
				c0,0.1-0.3,0.1-0.4,0.2c-0.3-0.5-1-0.5-1.2-1.2c-0.2-0.6-0.7-1.3-1.4-1.3c-1.9-0.1-3.8-0.1-5.7-0.1c-0.6,0-0.9,0.2-0.9,0.9
				c0,1.6,0,3.1,0,4.7c0,0.6,0.2,0.8,0.8,0.8c0.9,0,1.7,0,2.6,0c0.6,0,1-0.3,1-1c0-0.1,0-0.3,0.1-0.4c0.1-0.2,0.3-0.3,0.5-0.5
				c0.1,0.2,0.3,0.3,0.4,0.5c0.1,0.2,0.1,0.4,0.1,0.5c0,1,0,2,0,3c0,0.2,0,0.4-0.1,0.5c-0.1,0.2-0.3,0.4-0.4,0.6
				c-0.2-0.2-0.4-0.4-0.5-0.6c-0.2-0.3-0.1-0.7-0.4-0.9c-0.6-0.5-1.1-1-2-1c-2,0.1-2,0-2,2.1c0,0.9,0,1.7,0,2.6
				c0,0.8-0.2,1.6,0.6,2.1c0,0,0.1,0.1,0.1,0.2c0.1,1.1,0.9,1.3,1.8,1.3c1.3,0,2.6,0,3.9,0c0.6,0,1.3,0.1,1.6-0.7
				c1,0.1,0.8-1.1,1.5-1.4c0.2-0.1,0.2-0.7,0.3-1.1c0.1-0.4-0.1-1,0.5-1.2c0.1,0.4,0.3,0.8,0.3,1.2c0,1.1-0.1,2.2-0.1,3.4
				c0,0.4-0.2,0.7-0.6,0.7c-0.4,0-0.7,0.1-1.1,0.1C160.1,49.9,157.9,49.9,155.7,49.9L155.7,49.9z"/>
		</defs>
		<clipPath id="SVGID_84_">
			<use xlink:href="#SVGID_83_"  style="overflow:visible;"/>
		</clipPath>
		<g class="st41">
			<defs>
				<rect id="SVGID_85_" x="-1198" y="-2511.1" width="1920" height="4619"/>
			</defs>
			<clipPath id="SVGID_86_">
				<use xlink:href="#SVGID_85_"  style="overflow:visible;"/>
			</clipPath>
			<rect x="143" y="26.9" class="st42" width="26" height="28"/>
		</g>
	</g>
	<g>
		<defs>
			<path id="SVGID_87_" d="M246,49.9c-2.2,0-4.4,0-6.6,0c-0.1,0-0.2,0-0.3,0c-0.4-0.1-1.1-0.3-1.1-0.4c0-0.6,0.6-0.4,1-0.5
				c0.3-0.1,0.5-0.1,0.6-0.5c0-0.1,0.1-0.3,0.1-0.3c0.9-0.2,0.7-0.9,0.7-1.4c0-3.7,0-7.5,0-11.2c0-0.9-0.6-1.6-1.2-1.9
				c-0.7-0.3-0.5-0.8-0.5-1.2c0-0.5,0.5-0.4,0.8-0.4c3.2,0,6.4,0,9.6,0c0.5,0,1.1,0.1,1.6,0c1-0.3,1.4,0.7,2.1,1
				c0.1,0,0.1,0.3,0.1,0.5c0,0.8,0.1,1.6,0,2.4c0,0.2-0.2,0.4-0.3,0.6c-0.2-0.1-0.4-0.3-0.5-0.4c-0.1-0.3-0.1-0.6-0.5-0.7
				c-0.1,0-0.3-0.3-0.3-0.4c-0.1-1.2-0.9-1.2-1.8-1.2c-1.6,0-3.2,0-4.9-0.1c-0.6,0-0.9,0.2-0.9,0.8c0,1.6,0,3.2,0,4.8
				c0,0.6,0.2,0.9,0.8,0.8c0.7,0,1.4,0,2.1-0.1c0.4,0,0.8,0,0.9-0.6c0.1-0.4,0.8-0.7,1.2-1c0,0,0.3,0.3,0.3,0.4c0,0.9,0,1.8,0,2.7
				c0,0.5,0,1,0,1.5c0,0.4-0.3,0.5-0.6,0.2c-0.5-0.6-1.2-1-1.6-1.7c-0.4-0.6-0.8-0.6-1.4-0.6c-1.8,0-1.9-0.3-1.8,1.8
				c0,1.6,0.1,3.2,0.2,4.8c0,0.4,0,0.7,0.6,0.7c0.1,0,0.2,0,0.2,0.1c0.2,1,1,0.7,1.6,0.7c1.3,0,2.5,0,3.8,0c0.4,0,1,0.1,1.1-0.6
				c0.9,0,0.8-1.1,1.5-1.3c0.1,0,0.2-0.4,0.3-0.6c0.1-0.5,0.2-1.1,0.3-1.6c0-0.1,0.1-0.2,0.2-0.2c0.1,0,0.3,0.1,0.3,0.2
				c0.1,0.3,0.2,0.6,0.2,0.9c0,1.2,0,2.3,0,3.5c0,0.5-0.2,0.7-0.7,0.7c-1.4,0-2.7,0-4.1,0C248.1,49.9,247.1,49.9,246,49.9L246,49.9z
				"/>
		</defs>
		<clipPath id="SVGID_88_">
			<use xlink:href="#SVGID_87_"  style="overflow:visible;"/>
		</clipPath>
		<g class="st43">
			<defs>
				<rect id="SVGID_89_" x="-1198" y="-2511.1" width="1920" height="4619"/>
			</defs>
			<clipPath id="SVGID_90_">
				<use xlink:href="#SVGID_89_"  style="overflow:visible;"/>
			</clipPath>
			<rect x="233" y="26.9" class="st44" width="26" height="28"/>
		</g>
	</g>
	<g>
		<defs>
			<path id="SVGID_91_" d="M188.8,49.9c-2.2,0-4.4,0-6.6,0c-0.3,0-0.5,0-0.7-0.1c-0.2-0.1-0.3-0.3-0.5-0.4c0.2-0.1,0.3-0.4,0.5-0.4
				c0.4-0.1,1,0,1.1-0.3c0.2-0.4,0.3-1,0.3-1.6c0-1.7,0-3.3,0-5c0-2.1,0-4.3,0-6.4c0-0.6-0.1-1.1-0.2-1.7c0-0.2-0.1-0.5-0.2-0.5
				c-0.8,0.2-0.7-0.9-1.3-1c-0.1,0-0.2-0.3-0.2-0.4c0-0.1,0.3-0.2,0.4-0.2c0.2,0,0.4,0,0.6,0c3.9,0,7.9,0,11.8,0
				c1.1,0,1.3,0.1,1.4,1.2c0.1,0.6,0,1.2,0.6,1.7c0.1,0.1,0.1,0.4,0.1,0.6c0,0.3-0.2,0.5-0.3,0.7c-0.2-0.1-0.4-0.3-0.6-0.4
				c-0.8-0.3-0.8-1.3-1.5-1.8c-0.2-0.1-0.3-0.4-0.6-0.4c-1.9,0-3.9,0-5.8,0c-0.5,0-0.8,0.2-0.8,0.8c0,1.6,0,3.2,0,4.8
				c0,0.5,0.1,0.7,0.7,0.7c0.9,0,1.7,0.1,2.6,0c0.8,0,1-0.2,1.2-1.1c0-0.1,0-0.2,0-0.3c0.1-0.2,0.3-0.3,0.4-0.5
				c0.1,0.1,0.4,0.3,0.4,0.4c0,1.4,0,2.8,0,4.2c0,0.2-0.2,0.4-0.4,0.6c-0.1-0.2-0.3-0.3-0.4-0.5c-0.1-0.3-0.1-0.9-0.3-1
				c-0.7-0.3-1.1-1.1-2-1.1c-2.2,0.1-2.2,0-2.2,2.1c0,1.2,0,2.4,0,3.6c0,0.4,0,0.7,0.4,0.9c0.2,0.1,0.3,0.5,0.4,0.7
				c0.1,0.6,0.4,0.9,1,0.9c1.7,0,3.4,0,5.2,0c0.4,0,0.9-0.1,1-0.7c0.9,0,0.9-1,1.5-1.4c0.3-0.2,0.3-0.8,0.4-1.3
				c0.1-0.3,0.2-0.6,0.4-0.9c0.1,0.3,0.4,0.6,0.4,0.9c0,1.3-0.1,2.5-0.2,3.8c0,0.2-0.3,0.4-0.5,0.4c-0.3,0.1-0.7,0.1-1.1,0.1
				C193.1,49.9,191,49.9,188.8,49.9L188.8,49.9z"/>
		</defs>
		<clipPath id="SVGID_92_">
			<use xlink:href="#SVGID_91_"  style="overflow:visible;"/>
		</clipPath>
		<g class="st45">
			<defs>
				<rect id="SVGID_93_" x="-1198" y="-2511.1" width="1920" height="4619"/>
			</defs>
			<clipPath id="SVGID_94_">
				<use xlink:href="#SVGID_93_"  style="overflow:visible;"/>
			</clipPath>
			<rect x="176" y="26.9" class="st46" width="26" height="28"/>
		</g>
	</g>
	<g>
		<defs>
			<path id="SVGID_95_" d="M283.4,31.9c2.4,0,4.9,0,7.3,0c1.2,0,1.2,0,1.2,1.2c0,0.9,0,1.7,0,2.6c0,0.3,0,0.6-0.4,0.6
				c-0.4,0-0.4-0.3-0.5-0.6c0-0.6,0-1.3-0.8-1.4c-0.1-1.1-0.9-0.8-1.5-0.8c-0.9-0.1-1.9,0-2.8,0c-1.1,0-1.1,0-1.1,1.1
				c0,2.8,0,5.6,0,8.5c0,1.3,0,2.6,0,3.9c0,1.2,0.3,1.5,1.4,2c0.2,0.1,0.3,0.3,0.3,0.4c0,0.1-0.2,0.3-0.4,0.4c-0.1,0.1-0.4,0-0.5,0
				c-1.8,0-3.5,0-5.3,0c-0.2,0-0.4,0-0.6-0.1c-0.1-0.1-0.3-0.2-0.3-0.4c0-0.1,0.1-0.4,0.2-0.4c0.3-0.1,0.6-0.1,0.8-0.1
				c0.4,0,0.6-0.2,0.6-0.6c0-0.4,0-0.7,0-1.1c0-4.2,0-8.4,0-12.6c0-1.2,0-1.2-1.2-1.2c-1.2,0-2.3,0.1-3.5,0.1c-0.4,0-0.8,0-0.8,0.6
				c0,0.1-0.1,0.3-0.2,0.3c-0.7,0.2-0.7,0.7-0.8,1.3c0,0.2-0.3,0.3-0.4,0.5c-0.1-0.2-0.4-0.3-0.4-0.5c0-0.7,0-1.4,0-2.1
				c0-1.1,0.8-1.9,1.9-1.9C278.4,31.9,280.9,31.9,283.4,31.9"/>
		</defs>
		<clipPath id="SVGID_96_">
			<use xlink:href="#SVGID_95_"  style="overflow:visible;"/>
		</clipPath>
		<g class="st47">
			<defs>
				<rect id="SVGID_97_" x="-1198" y="-2511.1" width="1920" height="4619"/>
			</defs>
			<clipPath id="SVGID_98_">
				<use xlink:href="#SVGID_97_"  style="overflow:visible;"/>
			</clipPath>
			<rect x="269" y="26.9" class="st48" width="28" height="28"/>
		</g>
	</g>
	<g>
		<defs>
			<path id="SVGID_99_" d="M164.1,58.9c2.3,0,4.6,0,6.9,0c1.2,0,1.9,0.8,1.9,1.9c0,0.7,0,1.4,0,2.1c0,0.2-0.2,0.3-0.4,0.5
				c-0.1-0.2-0.3-0.3-0.4-0.5c-0.1-0.2-0.1-0.4-0.1-0.6c0-0.3,0-0.7-0.5-0.7c-0.1,0-0.3-0.1-0.3-0.2c0-0.9-0.7-0.7-1.2-0.8
				c-0.6-0.1-1.1-0.2-1.6-0.6c-0.6-0.4-1.6-0.1-2.4-0.1c-0.1,0-0.2,0.3-0.2,0.4c0,0.4,0,0.8-0.1,1.2c0,4.2,0,8.4,0,12.7
				c0,1,0.6,1.4,1.3,1.9c0.2,0.2,0.6,0.2,0.5,0.5c-0.1,0.2-0.4,0.4-0.7,0.4c-1.9,0-3.9,0-5.8,0c-0.2,0-0.6-0.2-0.6-0.4
				c-0.1-0.5,0.3-0.4,0.6-0.5c1.1-0.1,1.1-0.2,1.1-1.2c0-4.6,0-9.2,0-13.9c0-1.2-0.1-1.2-1.3-1.2c-0.6,0-1.2-0.2-1.5,0.6
				c0,0.1-0.4,0.2-0.7,0.2c-0.4,0.1-0.8,0.1-1.2,0.1c-0.1,0-0.4,0-0.4,0.1c-0.4,0.6-0.8,1.3-1.1,1.9c-0.1,0.2,0,0.4-0.1,0.6
				c-0.1,0.3,0.1,0.9-0.4,0.8c-0.2,0-0.4-0.6-0.4-0.9c0-1,0-1.9,0-2.9c0-0.2,0.2-0.4,0.4-0.6c0.1-0.1,0.4-0.2,0.4-0.3
				c0.2-0.6,0.6-0.5,1.1-0.5C159.3,58.9,161.7,58.9,164.1,58.9"/>
		</defs>
		<clipPath id="SVGID_100_">
			<use xlink:href="#SVGID_99_"  style="overflow:visible;"/>
		</clipPath>
		<g class="st49">
			<defs>
				<rect id="SVGID_101_" x="-1198" y="-2511.1" width="1920" height="4619"/>
			</defs>
			<clipPath id="SVGID_102_">
				<use xlink:href="#SVGID_101_"  style="overflow:visible;"/>
			</clipPath>
			<rect x="150" y="53.9" class="st50" width="28" height="28"/>
		</g>
	</g>
	<g>
		<defs>
			<path id="SVGID_103_" d="M102.3,3.9c2.4,0,4.8,0,7.2,0c1.2,0,1.3,0.1,1.4,1.4c0,0.8,0.1,1.6,0,2.4c0,0.2-0.2,0.6-0.4,0.6
				c-0.4,0.1-0.6-0.3-0.5-0.6c0.3-1-0.8-1.2-1-1.9c0-0.1-0.3-0.1-0.4-0.1c-1.4-0.1-2.8-0.1-4.2-0.2c-0.5,0-0.7,0.3-0.7,0.8
				c0,4.4,0,8.7,0,13.1c0,0.8,0.6,1.3,1.3,1.6c0.3,0.1,0.6,0.2,0.5,0.6c-0.1,0.2-0.4,0.4-0.6,0.4c-1.9,0-3.8,0-5.7,0
				c-0.1,0-0.3,0-0.4-0.1c-0.2-0.1-0.4-0.3-0.4-0.4c0-0.1,0.2-0.3,0.4-0.4c0.4-0.1,1-0.1,1.2-0.4c0.2-0.3,0.2-0.9,0.2-1.4
				c0-4.3,0-8.5,0-12.8c0-1-0.1-1.1-1-1.1c-1.3,0-2.5,0.1-3.8,0.2c-0.3,0-0.5,0.1-0.6,0.5c-0.1,0.5-0.1,1.2-0.9,1.3
				c-0.1,0-0.1,0.4-0.2,0.6c-0.1,0.1-0.3,0.3-0.4,0.3C93.2,8.3,93,8.1,93,8c0-0.9,0-1.8,0.1-2.7c0.1-0.8,1.1-1.4,1.9-1.4
				C97.5,3.9,99.9,3.9,102.3,3.9"/>
		</defs>
		<clipPath id="SVGID_104_">
			<use xlink:href="#SVGID_103_"  style="overflow:visible;"/>
		</clipPath>
		<g class="st51">
			<defs>
				<rect id="SVGID_105_" x="-1198" y="-2511.1" width="1920" height="4619"/>
			</defs>
			<clipPath id="SVGID_106_">
				<use xlink:href="#SVGID_105_"  style="overflow:visible;"/>
			</clipPath>
			<rect x="88" y="-1.1" class="st52" width="28" height="28"/>
		</g>
	</g>
	<g>
		<defs>
			<path id="SVGID_107_" d="M249.5,77.9c-0.9,0-1.9,0-2.8,0c-0.2,0-0.5-0.2-0.6-0.3c-0.1-0.3,0.1-0.5,0.4-0.6c0.4,0,0.4-0.3,0.4-0.6
				c0-0.6,0-1.2-0.5-1.7c-0.3-0.3-0.3-0.9-0.4-1.4c0-0.6-0.2-0.9-0.8-0.9c-1.7,0-3.4-0.1-5.1,0c-0.9,0-1,0.2-1,1.1
				c-0.1,0.6,0.1,1.3-0.6,1.7c-0.2,0.1-0.1,0.7-0.2,1.1c-0.1,0.5,0.2,0.6,0.6,0.7c0.1,0,0.3,0.3,0.3,0.5c0,0.1-0.3,0.4-0.4,0.4
				c-1.2,0-2.3,0-3.5-0.1c-0.1,0-0.2-0.2-0.3-0.3c0.1-0.1,0.2-0.3,0.3-0.3c0.3-0.1,0.6-0.1,0.8-0.2c0.2-0.1,0.3-0.3,0.5-0.4
				c0,0,0-0.1,0-0.1c0.1-0.5,0.9-0.2,0.9-1c-0.1-0.5,0.2-1,0.7-1.2c0.2-0.1,0.1-0.6,0.2-0.9c0.1-0.4-0.1-0.8,0.5-1.1
				c0.2-0.1,0.3-0.7,0.4-1.1c0.1-0.6-0.1-1.3,0.7-1.5c0.2-0.1,0.2-0.7,0.2-1c0-0.4,0-0.7,0.5-1c0.2-0.1,0.3-0.7,0.4-1
				c0.1-0.6-0.1-1.3,0.7-1.5c0,0,0.1-0.1,0.1-0.1c-0.3-1.3,1-2,1-3.3c0-0.5-0.1-1.2,0.7-1.2c0,0,0.1,0,0.1,0c0.7-0.6,0.7-0.6,1,0.3
				c0,0.1,0,0.3,0.1,0.3c0.9,0.3,0.7,1.1,0.8,1.8c0,0.1,0,0.3,0.1,0.3c0.8,0.2,0.7,1,0.8,1.6c0,0.1,0,0.2,0,0.2
				c0.8,0.4,0.7,1.2,0.8,2c0,0.1,0,0.2,0.1,0.3c0.6,0.6,0.8,1.3,0.8,2.2c0.9,0.4,0.5,1.5,0.9,1.9c0.6,0.7,0.7,1.6,0.8,2.4
				c0,0.1,0.1,0.3,0.1,0.3c0.7,0.2,0.6,0.9,0.7,1.4c0,0.4,0.1,0.6,0.5,0.7c0.3,0.1,0.4,0.7,0.6,0.8c0.3,0.2,0.7,0.1,1.1,0.2
				c0.1,0,0.2,0.3,0.2,0.4c0,0.1-0.2,0.3-0.3,0.4c-0.2,0.1-0.5,0.1-0.7,0.1c-0.1,0-0.2,0-0.3,0C251,77.9,250.2,77.9,249.5,77.9
				C249.5,77.9,249.5,77.9,249.5,77.9 M242.7,71.4L242.7,71.4c0.7,0,1.4,0,2.1,0c0.2,0,0.4-0.2,0.5-0.3c0-0.2-0.1-0.6-0.2-0.6
				c-0.6-0.1-0.5-0.6-0.6-1c-0.1-0.5,0-1.1-0.3-1.3c-0.5-0.5-0.6-1-0.6-1.5c0-0.7-0.2-0.7-1.1-0.8c-0.6-0.1-0.6,0.4-0.7,0.8
				c0,0.4,0,0.9-0.2,1c-0.7,0.3-0.6,0.9-0.6,1.5c-0.1,0.5,0.1,1.2-0.7,1.4c-0.1,0-0.2,0.4-0.1,0.6c0,0.1,0.3,0.3,0.4,0.3
				C241.3,71.4,242,71.4,242.7,71.4"/>
		</defs>
		<clipPath id="SVGID_108_">
			<use xlink:href="#SVGID_107_"  style="overflow:visible;"/>
		</clipPath>
		<g class="st53">
			<defs>
				<rect id="SVGID_109_" x="-1198" y="-2511.1" width="1920" height="4619"/>
			</defs>
			<clipPath id="SVGID_110_">
				<use xlink:href="#SVGID_109_"  style="overflow:visible;"/>
			</clipPath>
			<rect x="230" y="54.9" class="st54" width="28" height="28"/>
		</g>
	</g>
	<g>
		<defs>
			<path id="SVGID_111_" d="M102.6,49.9c-1,0-2,0-2.9,0c-0.2,0-0.5-0.2-0.6-0.4c-0.1-0.4,0.2-0.4,0.5-0.5c1.1-0.2,1.2-0.2,1.2-1.4
				c0-4.2,0-8.5,0-12.7c0-0.6,0.1-1.3-0.8-1.4c-0.3,0-0.5-0.7-0.7-1.1c0-0.1,0.1-0.3,0.2-0.4c0.1-0.1,0.3,0,0.5,0c1.7,0,3.4,0,5,0
				c0.5,0,0.8,0,0.9,0.6c0,0.6,0,1-0.7,1c-0.5,0-0.8,0.4-0.9,0.9c0,0.2-0.1,0.5-0.1,0.8c0,3.9,0,7.9,0,11.8c0,1,0.5,1.6,1.4,1.9
				c0.2,0.1,0.3,0.3,0.4,0.5c-0.2,0.1-0.3,0.4-0.5,0.4C104.5,49.9,103.5,49.9,102.6,49.9L102.6,49.9z"/>
		</defs>
		<clipPath id="SVGID_112_">
			<use xlink:href="#SVGID_111_"  style="overflow:visible;"/>
		</clipPath>
		<g class="st55">
			<defs>
				<rect id="SVGID_113_" x="-1198" y="-2511.1" width="1920" height="4619"/>
			</defs>
			<clipPath id="SVGID_114_">
				<use xlink:href="#SVGID_113_"  style="overflow:visible;"/>
			</clipPath>
			<rect x="94" y="26.9" class="st56" width="17" height="28"/>
		</g>
	</g>
	<g>
		<defs>
			<path id="SVGID_115_" d="M56.5,27.9c2.2,0,4.4,0,6.6,0c0.6,0,1.3-0.1,1.6,0.6c0.1,0.2,0.7,0.1,0.7,0.3c0.3,0.7,1,0.8,1.6,1.1
				c0.1,0.1,0.2,0.4,0.3,0.5c0.2,0.3,0.4,0.6,0.6,0.9c0.1,0.2,0.2,0.4,0.3,0.6c0.1,0.4,0.1,1,0.6,1.2c0.1,0,0.2,0.3,0.2,0.5
				c0,1,0,2.1,0,3.1c0,0.2-0.2,0.4-0.3,0.6c-0.1,0.2-0.4,0.4-0.4,0.6c0.1,0.9-0.8,1.2-1,1.9c-0.8,0-0.7,1.1-1.5,1.1
				c-0.2,0.8-1,0.6-1.4,0.9c-1.3,1.1-2.8,0.6-4.3,0.7c-1.4,0.1-2.8,0.1-4.2,0c-0.6,0-0.8,0.2-0.8,0.8c0,1.9,0,3.8,0,5.7
				c0,0.5-0.1,1,0.6,1.2c0.1,0,0.2,0.2,0.2,0.3c0,0.4,0.4,0.5,0.5,0.7c0.4,0.7,1,0.8,1.7,0.8c0.1,0,0.3,0.3,0.3,0.4
				c0,0.1-0.2,0.3-0.4,0.4c-0.2,0.1-0.5,0-0.7,0c-2.8,0-5.7,0-8.5,0c-0.2,0-0.4,0.1-0.5,0c-0.2-0.1-0.3-0.3-0.4-0.5
				c0.1-0.1,0.3-0.4,0.4-0.3c1.1,0.2,1.3-1,2.2-1.1c0.1,0,0.1-0.2,0.1-0.4c0-0.4,0.1-0.9,0.1-1.3c0-6.1,0-12.1,0-18.2
				c0-0.3,0-0.6,0-0.9c0-0.2-0.2-0.4-0.4-0.5c-0.1-0.1-0.3-0.1-0.3-0.1c-0.1-0.8-0.8-0.7-1.3-0.9c-0.1,0-0.3-0.2-0.4-0.3
				c0.1-0.1,0.2-0.3,0.4-0.4c0.4-0.1,0.8-0.1,1.1-0.1C52.1,27.9,54.3,27.9,56.5,27.9 M55.2,35.3c0,1.9,0,3.7,0,5.6
				c0,0.6,0.2,0.8,0.8,0.8c1.2,0,2.4,0,3.7,0c0.2,0,0.5-0.1,0.6-0.2c0.2-0.7,0.9-0.6,1.4-0.8c0.2-0.1,0.4-0.1,0.4-0.2
				c0-0.5,0.5-0.6,0.8-0.8c0.3-0.2,0.3-0.8,0.4-1.1c0-0.1,0.2-0.2,0.3-0.3c0.1-0.2,0.3-0.4,0.4-0.6c0.3-1.7,0.3-3.5,0-5.2
				c-0.1-0.4,0-0.9-0.6-1c-0.1,0-0.3-0.2-0.3-0.3c0.1-0.8-1.1-0.7-1-1.5c-0.8,0-1.4-0.8-2.1-0.9c-1.3-0.2-2.6,0-4,0
				c-0.6,0-0.8,0.3-0.8,0.8C55.2,31.6,55.2,33.4,55.2,35.3"/>
		</defs>
		<clipPath id="SVGID_116_">
			<use xlink:href="#SVGID_115_"  style="overflow:visible;"/>
		</clipPath>
		<g class="st57">
			<defs>
				<rect id="SVGID_117_" x="-1198" y="-2511.1" width="1920" height="4619"/>
			</defs>
			<clipPath id="SVGID_118_">
				<use xlink:href="#SVGID_117_"  style="overflow:visible;"/>
			</clipPath>
			<rect x="43" y="22.9" class="st58" width="31" height="35"/>
		</g>
	</g>
	<g>
		<defs>
			<path id="SVGID_119_" d="M21.6,40.2c0-3.2,0-6.3,0-9.5c0-0.5,0.2-1.1-0.6-1.2c-0.2-0.8-0.8-0.8-1.5-0.8c-0.3,0-0.5-0.1-0.5-0.5
				c0-0.4,0.3-0.4,0.6-0.4c0.2,0,0.3,0,0.5,0c2.5,0,5.1,0,7.6,0c0.3,0,0.6,0,0.9,0c0.2,0,0.3,0.2,0.5,0.4c-0.1,0.2-0.3,0.3-0.4,0.4
				c-0.1,0.1-0.2,0-0.3,0c-1,0-1.4,0.6-1.9,1.4c-0.7,1.1-0.6,2.1-0.6,3.2c0,5,0,9.9,0,14.9c0,0.5-0.1,1,0.4,1.4
				c0.1,0.1,0.2,0.4,0.2,0.7c0,0.4,0,0.8,0.6,0.9c0.1,0,0.2,0.2,0.2,0.3c0.1,0.5,0.4,0.5,0.7,0.5c0.2,0,0.3,0,0.5,0
				c0.2,0.1,0.4,0.2,0.5,0.4c0.1,0.4-0.2,0.4-0.5,0.4c-0.2,0-0.3,0-0.5,0c-2.7,0-5.4,0-8.1,0c-0.2,0-0.3,0-0.5,0
				c-0.2-0.1-0.4-0.3-0.4-0.4c0.1-0.2,0.3-0.5,0.4-0.4c1,0.2,1.3-0.9,2-1.2c0.1,0,0.1-0.3,0.1-0.5c0-0.6,0.1-1.2,0.1-1.9
				C21.6,45.8,21.6,43,21.6,40.2L21.6,40.2z"/>
		</defs>
		<clipPath id="SVGID_120_">
			<use xlink:href="#SVGID_119_"  style="overflow:visible;"/>
		</clipPath>
		<g class="st59">
			<defs>
				<rect id="SVGID_121_" x="-1198" y="-2511.1" width="1920" height="4619"/>
			</defs>
			<clipPath id="SVGID_122_">
				<use xlink:href="#SVGID_121_"  style="overflow:visible;"/>
			</clipPath>
			<rect x="14" y="22.9" class="st60" width="20" height="35"/>
		</g>
	</g>
	<g>
		<defs>
			<path id="SVGID_123_" d="M42,40.7c0,0.6,0,1,0,1.3c-0.1,0.5,0.1,1.2-0.7,1.2c0.1,0.9-1.2,0.6-1.2,1.4c0,0.1-0.4,0.2-0.5,0.2
				c-0.7,0-1.4,0-2.1,0c-0.4,0-0.8,0-0.9-0.5c0-0.1-0.4-0.2-0.6-0.3c-0.3-0.1-0.6-0.1-0.8-0.3c-0.5-0.4,0-1.3-0.8-1.8
				c-0.6-0.4-0.2-1.3-0.3-1.9c0-0.1,0.2-0.3,0.4-0.5c0.1-0.1,0.3-0.3,0.3-0.4c0-0.4,0.1-0.8,0.6-0.8c0.1-0.8,1-0.7,1.3-1.3
				c0-0.1,0.3-0.2,0.4-0.2c0.8,0,1.6,0,2.4,0c0.2,0,0.4,0.2,0.6,0.4c0.2,0.1,0.4,0.2,0.6,0.4c0.2,0.1,0.3,0.3,0.5,0.5
				c0,0,0,0.2,0,0.2C42.4,38.9,41.8,40.1,42,40.7"/>
		</defs>
		<clipPath id="SVGID_124_">
			<use xlink:href="#SVGID_123_"  style="overflow:visible;"/>
		</clipPath>
		<g class="st61">
			<defs>
				<rect id="SVGID_125_" x="-1198" y="-2511.1" width="1920" height="4619"/>
			</defs>
			<clipPath id="SVGID_126_">
				<use xlink:href="#SVGID_125_"  style="overflow:visible;"/>
			</clipPath>
			<rect x="29" y="31.9" class="st62" width="18" height="18"/>
		</g>
	</g>
</g>
</svg>
