<svg enable-background="new 0 0 248.8 78.6" viewBox="0 0 248.8 78.6" xmlns="http://www.w3.org/2000/svg" xmlns:xlink="http://www.w3.org/1999/xlink"><clipPath id="a"><path d="m25.7 0v25.7h-25.7v25.6h25.7v25.7h25.6v-25.7h25.7v-25.6h-25.7v-25.7z"/></clipPath><clipPath id="b"><path d="m-922-2513h1920v4619h-1920z"/></clipPath><clipPath id="c"><path d="m98 0h19.2v21.6h-19.2z"/></clipPath><clipPath id="d"><path d="m-922-2513h1920v4619h-1920z"/></clipPath><clipPath id="e"><path d="m98 0h20v22h-20z"/></clipPath><clipPath id="f"><path d="m98 0h9.3c5.6 0 9.8 3.5 9.8 10.7 0 6.3-3.2 10.9-9.8 10.9h-9.3zm4.8 17.6h4.2c2.8 0 5.4-1.7 5.4-6.5 0-4.4-1.5-7.1-6.3-7.1h-3.4v13.6z"/></clipPath><clipPath id="g"><path d="m98 0h20v22h-20z"/></clipPath><clipPath id="h"><path d="m123.3 14.9c.1 2.7 1.5 4 3.9 4 1.7 0 3.1-1.1 3.4-2h3.8c-1.2 3.7-3.8 5.3-7.3 5.3-4.9 0-8-3.4-8-8.2 0-4.7 3.2-8.3 8-8.3 5.3 0 7.9 4.5 7.6 9.3zm7.1-2.8c-.4-2.2-1.3-3.3-3.4-3.3-2.7 0-3.5 2.1-3.6 3.3z"/></clipPath><clipPath id="i"><path d="m-922-2513h1920v4619h-1920z"/></clipPath><clipPath id="j"><path d="m151.9 21.6h-4.1v-2.2h-.1c-1.1 1.8-3 2.6-4.8 2.6-4.6 0-5.7-2.6-5.7-6.4v-9.6h4.3v8.8c0 2.6.8 3.8 2.8 3.8 2.3 0 3.3-1.3 3.3-4.5v-8.1h4.3z"/></clipPath><clipPath id="k"><path d="m-922-2513h1920v4619h-1920z"/></clipPath><clipPath id="l"><path d="m160.8 6h3.2v2.9h-3.2v7.7c0 1.5.4 1.8 1.8 1.8.5 0 .9 0 1.3-.1v3.4c-.7.1-1.7.2-2.5.2-2.6 0-4.9-.6-4.9-3.7v-9.3h-2.6v-2.9h2.6v-4.7h4.3z"/></clipPath><clipPath id="m"><path d="m-922-2513h1920v4619h-1920z"/></clipPath><clipPath id="n"><path d="m169.7 16.6c0 1.9 1.6 2.6 3.3 2.6 1.2 0 2.8-.5 2.8-2 0-1.3-1.8-1.8-4.9-2.4-2.5-.5-5-1.4-5-4.2 0-4 3.5-5 6.8-5 3.4 0 6.6 1.1 6.9 5h-4.1c-.1-1.7-1.4-2.1-2.9-2.1-1 0-2.4.2-2.4 1.5 0 1.5 2.4 1.8 4.9 2.3 2.5.6 5 1.5 5 4.4 0 4.1-3.6 5.4-7.2 5.4s-7.2-1.4-7.4-5.5z"/></clipPath><clipPath id="o"><path d="m-922-2513h1920v4619h-1920z"/></clipPath><clipPath id="p"><path d="m193.1 11.5c-.3-1.8-1.4-2.7-3.2-2.7-2.8 0-3.7 2.8-3.7 5.1 0 2.2.9 4.9 3.6 4.9 2 0 3.2-1.3 3.4-3.2h4.2c-.5 4.1-3.4 6.4-7.6 6.4-4.7 0-7.9-3.3-7.9-8 0-4.9 2.9-8.5 8-8.5 3.7 0 7.1 1.9 7.4 5.9z"/></clipPath><clipPath id="q"><path d="m-922-2513h1920v4619h-1920z"/></clipPath><clipPath id="r"><path d="m199.8 0h4.3v8.1h.1c1.1-1.8 3-2.6 4.6-2.6 4.6 0 5.7 2.6 5.7 6.4v9.6h-4.3v-8.8c0-2.6-.8-3.8-2.8-3.8-2.3 0-3.3 1.3-3.3 4.5v8.2h-4.3z"/></clipPath><clipPath id="s"><path d="m-922-2513h1920v4619h-1920z"/></clipPath><clipPath id="t"><path d="m221.2 14.9c.1 2.7 1.5 4 3.9 4 1.7 0 3.1-1.1 3.4-2h3.8c-1.2 3.7-3.8 5.3-7.3 5.3-4.9 0-8-3.4-8-8.2 0-4.7 3.2-8.3 8-8.3 5.3 0 7.9 4.5 7.6 9.3zm7-2.8c-.4-2.2-1.3-3.3-3.4-3.3-2.7 0-3.5 2.1-3.6 3.3z"/></clipPath><clipPath id="u"><path d="m-922-2513h1920v4619h-1920z"/></clipPath><clipPath id="v"><path d="m234.3 5.6h14.5v16.5h-14.5z"/></clipPath><clipPath id="w"><path d="m-922-2513h1920v4619h-1920z"/></clipPath><clipPath id="x"><path d="m234 5h15v18h-15z"/></clipPath><clipPath id="y"><path d="m238.4 16.6c0 1.9 1.6 2.6 3.3 2.6 1.2 0 2.8-.5 2.8-2 0-1.3-1.8-1.8-4.9-2.4-2.5-.5-5-1.4-5-4.2 0-4 3.5-5 6.8-5 3.4 0 6.6 1.1 6.9 5h-4.1c-.1-1.7-1.4-2.1-2.9-2.1-1 0-2.4.2-2.4 1.5 0 1.5 2.4 1.8 4.9 2.3 2.5.6 5 1.5 5 4.4 0 4.1-3.6 5.4-7.2 5.4s-7.2-1.4-7.4-5.5z"/></clipPath><clipPath id="z"><path d="m234 5h15v18h-15z"/></clipPath><clipPath id="A"><path d="m98.1 28.3h11.7c3.9 0 6.3 2.7 6.3 6 0 2.5-1 4.4-3.4 5.4v.1c2.3.6 3 2.9 3.2 5 .1 1.4.1 3.9.9 5.1h-4.8c-.6-1.4-.5-3.4-.8-5.2-.3-2.3-1.2-3.3-3.6-3.3h-4.8v8.4h-4.8v-21.5zm4.7 9.8h5.2c2.1 0 3.3-.9 3.3-3.1 0-2.1-1.2-3-3.3-3h-5.2z"/></clipPath><clipPath id="B"><path d="m-922-2513h1920v4619h-1920z"/></clipPath><clipPath id="C"><path d="m126.7 33.9c4.9 0 8.1 3.3 8.1 8.3s-3.2 8.2-8.1 8.2-8.1-3.3-8.1-8.2c0-5.1 3.2-8.3 8.1-8.3m0 13.2c2.9 0 3.8-2.5 3.8-5s-.9-5-3.8-5-3.8 2.5-3.8 5 .9 5 3.8 5"/></clipPath><clipPath id="D"><path d="m-922-2513h1920v4619h-1920z"/></clipPath><clipPath id="E"><path d="m143.1 34.3h3.2v2.9h-3.2v7.7c0 1.5.4 1.8 1.8 1.8.5 0 .9 0 1.3-.1v3.4c-.7.1-1.7.2-2.5.2-2.6 0-4.9-.6-4.9-3.7v-9.2h-2.6v-2.9h2.6v-4.7h4.3z"/></clipPath><clipPath id="F"><path d="m-922-2513h1920v4619h-1920z"/></clipPath><clipPath id="G"><path d="m151.9 43.1c.1 2.7 1.5 4 3.9 4 1.7 0 3.1-1.1 3.4-2h3.8c-1.2 3.7-3.8 5.3-7.3 5.3-4.9 0-8-3.4-8-8.2 0-4.7 3.2-8.3 8-8.3 5.3 0 7.9 4.5 7.6 9.3zm7-2.7c-.4-2.2-1.3-3.3-3.4-3.3-2.7 0-3.5 2.1-3.6 3.3z"/></clipPath><clipPath id="H"><path d="m-922-2513h1920v4619h-1920z"/></clipPath><clipPath id="I"><path d="m169.1 44.8c0 1.9 1.6 2.6 3.3 2.6 1.2 0 2.8-.5 2.8-2 0-1.3-1.8-1.8-4.9-2.4-2.5-.5-5-1.4-5-4.2 0-4 3.5-5 6.8-5 3.4 0 6.6 1.1 6.9 5h-4.1c-.1-1.7-1.4-2.1-2.9-2.1-1 0-2.4.2-2.4 1.5 0 1.5 2.4 1.8 4.9 2.3 2.5.6 5 1.5 5 4.4 0 4.1-3.6 5.4-7.2 5.4s-7.2-1.4-7.4-5.5z"/></clipPath><clipPath id="J"><path d="m-922-2513h1920v4619h-1920z"/></clipPath><clipPath id="K"><path d="m98 56.6h4.8v9l8.4-9h6l-8.5 8.5 9.3 13.1h-6l-6.5-9.7-2.7 2.7v7h-4.8z"/></clipPath><clipPath id="L"><path d="m-922-2513h1920v4619h-1920z"/></clipPath><clipPath id="M"><path d="m119.5 62.6h4.1v2.9h.1c.8-2 2.9-3.3 5-3.3.3 0 .7.1.9.2v4c-.4-.1-1-.2-1.5-.2-3.2 0-4.2 2.3-4.2 5v7h-4.3v-15.6z"/></clipPath><clipPath id="N"><path d="m-922-2513h1920v4619h-1920z"/></clipPath><clipPath id="O"><path d="m134.3 71.4c.1 2.7 1.5 4 3.9 4 1.7 0 3.1-1.1 3.4-2h3.8c-1.2 3.7-3.8 5.3-7.3 5.3-4.9 0-8-3.4-8-8.2 0-4.7 3.2-8.3 8-8.3 5.3 0 7.9 4.5 7.6 9.3h-11.4zm7-2.7c-.4-2.2-1.3-3.3-3.4-3.3-2.7 0-3.5 2.1-3.6 3.3z"/></clipPath><clipPath id="P"><path d="m-922-2513h1920v4619h-1920z"/></clipPath><clipPath id="Q"><path d="m147.9 62.6h14.7v16.1h-14.7z"/></clipPath><clipPath id="R"><path d="m-922-2513h1920v4619h-1920z"/></clipPath><clipPath id="S"><path d="m147 62h16v17h-16z"/></clipPath><clipPath id="T"><path d="m162.6 78.2h-4.1v-2.2h-.1c-1.1 1.8-3 2.6-4.8 2.6-4.6 0-5.7-2.6-5.7-6.4v-9.6h4.3v8.8c0 2.6.8 3.8 2.8 3.8 2.3 0 3.3-1.3 3.3-4.5v-8.2h4.3z"/></clipPath><clipPath id="U"><path d="m147 62h16v17h-16z"/></clipPath><clipPath id="V"><path d="m165 75 8.1-9.2h-7.5v-3.2h13.2v3.2l-8.2 9.2h8.8v3.2h-14.4z"/></clipPath><clipPath id="W"><path d="m-922-2513h1920v4619h-1920z"/></clipPath><g clip-path="url(#a)"><path clip-path="url(#b)" d="m-5-5h87v87h-87z" fill="#fff"/></g><g clip-path="url(#c)"><g clip-path="url(#d)" enable-background="new"><g clip-path="url(#e)"><g clip-path="url(#f)"><path clip-path="url(#g)" d="m93-5h29.2v31.6h-29.2z" fill="#fff"/></g></g></g></g><g clip-path="url(#h)"><path clip-path="url(#i)" d="m114 .6h25.7v26.5h-25.7z" fill="#fff"/></g><g clip-path="url(#j)"><path clip-path="url(#k)" d="m132.2 1h24.7v26.1h-24.7z" fill="#fff"/></g><g clip-path="url(#l)"><path clip-path="url(#m)" d="m148.9-3.7h20.1v30.5h-20.1z" fill="#fff"/></g><g clip-path="url(#n)"><path clip-path="url(#o)" d="m160.6.6h24.5v26.5h-24.5z" fill="#fff"/></g><g clip-path="url(#p)"><path clip-path="url(#q)" d="m176.9.6h25.5v26.5h-25.5z" fill="#fff"/></g><g clip-path="url(#r)"><path clip-path="url(#s)" d="m194.8-5h24.7v31.6h-24.7z" fill="#fff"/></g><g clip-path="url(#t)"><path clip-path="url(#u)" d="m211.9.6h25.7v26.5h-25.7z" fill="#fff"/></g><g clip-path="url(#v)"><g clip-path="url(#w)" enable-background="new"><g clip-path="url(#x)"><g clip-path="url(#y)"><path clip-path="url(#z)" d="m229.3.6h24.5v26.5h-24.5z" fill="#fff"/></g></g></g></g><g clip-path="url(#A)"><path clip-path="url(#B)" d="m93.1 23.3h28.7v31.6h-28.7z" fill="#fff"/></g><g clip-path="url(#C)"><path clip-path="url(#D)" d="m113.6 28.9h26.2v26.5h-26.2z" fill="#fff"/></g><g clip-path="url(#E)"><path clip-path="url(#F)" d="m131.1 24.6h20.1v30.5h-20.1z" fill="#fff"/></g><g clip-path="url(#G)"><path clip-path="url(#H)" d="m142.6 28.9h25.7v26.5h-25.7z" fill="#fff"/></g><g clip-path="url(#I)"><path clip-path="url(#J)" d="m160 28.9h24.5v26.5h-24.5z" fill="#fff"/></g><g clip-path="url(#K)"><path clip-path="url(#L)" d="m93 51.6h30v31.6h-30z" fill="#fff"/></g><g clip-path="url(#M)"><path clip-path="url(#N)" d="m114.5 57.1h20.1v26.1h-20.1z" fill="#fff"/></g><g clip-path="url(#O)"><path clip-path="url(#P)" d="m125 57.1h25.7v26.5h-25.7z" fill="#fff"/></g><g clip-path="url(#Q)"><g clip-path="url(#R)" enable-background="new"><g clip-path="url(#S)"><g clip-path="url(#T)"><path clip-path="url(#U)" d="m142.9 57.6h24.7v26.1h-24.7z" fill="#fff"/></g></g></g></g><g clip-path="url(#V)"><path clip-path="url(#W)" d="m160 57.6h24.4v25.6h-24.4z" fill="#fff"/></g></svg>