<?xml version="1.0" encoding="utf-8"?>
<!-- Generator: Adobe Illustrator 23.0.4, SVG Export Plug-In . SVG Version: 6.00 Build 0)  -->
<svg version="1.1" id="Layer_1" xmlns="http://www.w3.org/2000/svg" xmlns:xlink="http://www.w3.org/1999/xlink" x="0px" y="0px"
	 viewBox="0 0 248.8 78.6" style="enable-background:new 0 0 248.8 78.6;" xml:space="preserve">
<style type="text/css">
	.st0{clip-path:url(#SVGID_2_);}
	.st1{clip-path:url(#SVGID_4_);fill:#FFFFFF;}
	.st2{clip-path:url(#SVGID_6_);}
	.st3{clip-path:url(#SVGID_8_);enable-background:new    ;}
	.st4{clip-path:url(#SVGID_10_);}
	.st5{clip-path:url(#SVGID_12_);}
	.st6{clip-path:url(#SVGID_14_);fill:#FFFFFF;}
	.st7{clip-path:url(#SVGID_16_);}
	.st8{clip-path:url(#SVGID_18_);fill:#FFFFFF;}
	.st9{clip-path:url(#SVGID_20_);}
	.st10{clip-path:url(#SVGID_22_);fill:#FFFFFF;}
	.st11{clip-path:url(#SVGID_24_);}
	.st12{clip-path:url(#SVGID_26_);fill:#FFFFFF;}
	.st13{clip-path:url(#SVGID_28_);}
	.st14{clip-path:url(#SVGID_30_);fill:#FFFFFF;}
	.st15{clip-path:url(#SVGID_32_);}
	.st16{clip-path:url(#SVGID_34_);fill:#FFFFFF;}
	.st17{clip-path:url(#SVGID_36_);}
	.st18{clip-path:url(#SVGID_38_);fill:#FFFFFF;}
	.st19{clip-path:url(#SVGID_40_);}
	.st20{clip-path:url(#SVGID_42_);fill:#FFFFFF;}
	.st21{clip-path:url(#SVGID_44_);}
	.st22{clip-path:url(#SVGID_46_);enable-background:new    ;}
	.st23{clip-path:url(#SVGID_48_);}
	.st24{clip-path:url(#SVGID_50_);}
	.st25{clip-path:url(#SVGID_52_);fill:#FFFFFF;}
	.st26{clip-path:url(#SVGID_54_);}
	.st27{clip-path:url(#SVGID_56_);fill:#FFFFFF;}
	.st28{clip-path:url(#SVGID_58_);}
	.st29{clip-path:url(#SVGID_60_);fill:#FFFFFF;}
	.st30{clip-path:url(#SVGID_62_);}
	.st31{clip-path:url(#SVGID_64_);fill:#FFFFFF;}
	.st32{clip-path:url(#SVGID_66_);}
	.st33{clip-path:url(#SVGID_68_);fill:#FFFFFF;}
	.st34{clip-path:url(#SVGID_70_);}
	.st35{clip-path:url(#SVGID_72_);fill:#FFFFFF;}
	.st36{clip-path:url(#SVGID_74_);}
	.st37{clip-path:url(#SVGID_76_);fill:#FFFFFF;}
	.st38{clip-path:url(#SVGID_78_);}
	.st39{clip-path:url(#SVGID_80_);fill:#FFFFFF;}
	.st40{clip-path:url(#SVGID_82_);}
	.st41{clip-path:url(#SVGID_84_);fill:#FFFFFF;}
	.st42{clip-path:url(#SVGID_86_);}
	.st43{clip-path:url(#SVGID_88_);enable-background:new    ;}
	.st44{clip-path:url(#SVGID_90_);}
	.st45{clip-path:url(#SVGID_92_);}
	.st46{clip-path:url(#SVGID_94_);fill:#FFFFFF;}
	.st47{clip-path:url(#SVGID_96_);}
	.st48{clip-path:url(#SVGID_98_);fill:#FFFFFF;}
</style>
<g>
	<g>
		<defs>
			<polygon id="SVGID_1_" points="25.7,0 25.7,25.7 0,25.7 0,51.3 25.7,51.3 25.7,77 51.3,77 51.3,51.3 77,51.3 77,25.7 51.3,25.7 
				51.3,0 			"/>
		</defs>
		<clipPath id="SVGID_2_">
			<use xlink:href="#SVGID_1_"  style="overflow:visible;"/>
		</clipPath>
		<g class="st0">
			<defs>
				<rect id="SVGID_3_" x="-922" y="-2513" width="1920" height="4619"/>
			</defs>
			<clipPath id="SVGID_4_">
				<use xlink:href="#SVGID_3_"  style="overflow:visible;"/>
			</clipPath>
			<rect x="-5" y="-5" class="st1" width="87" height="87"/>
		</g>
	</g>
	<g>
		<defs>
			<rect id="SVGID_5_" x="98" y="0" width="19.2" height="21.6"/>
		</defs>
		<clipPath id="SVGID_6_">
			<use xlink:href="#SVGID_5_"  style="overflow:visible;"/>
		</clipPath>
		<g class="st2">
			<defs>
				<rect id="SVGID_7_" x="-922" y="-2513" width="1920" height="4619"/>
			</defs>
			<clipPath id="SVGID_8_">
				<use xlink:href="#SVGID_7_"  style="overflow:visible;"/>
			</clipPath>
			<g class="st3">
				<g>
					<defs>
						<rect id="SVGID_9_" x="98" width="20" height="22"/>
					</defs>
					<clipPath id="SVGID_10_">
						<use xlink:href="#SVGID_9_"  style="overflow:visible;"/>
					</clipPath>
					<g class="st4">
						<defs>
							<path id="SVGID_11_" d="M98,0h9.3c5.6,0,9.8,3.5,9.8,10.7c0,6.3-3.2,10.9-9.8,10.9H98V0z M102.8,17.6h4.2
								c2.8,0,5.4-1.7,5.4-6.5c0-4.4-1.5-7.1-6.3-7.1h-3.4V17.6z"/>
						</defs>
						<clipPath id="SVGID_12_">
							<use xlink:href="#SVGID_11_"  style="overflow:visible;"/>
						</clipPath>
						<g class="st5">
							<defs>
								<rect id="SVGID_13_" x="98" width="20" height="22"/>
							</defs>
							<clipPath id="SVGID_14_">
								<use xlink:href="#SVGID_13_"  style="overflow:visible;"/>
							</clipPath>
							<rect x="93" y="-5" class="st6" width="29.2" height="31.6"/>
						</g>
					</g>
				</g>
			</g>
		</g>
	</g>
	<g>
		<defs>
			<path id="SVGID_15_" d="M123.3,14.9c0.1,2.7,1.5,4,3.9,4c1.7,0,3.1-1.1,3.4-2h3.8c-1.2,3.7-3.8,5.3-7.3,5.3c-4.9,0-8-3.4-8-8.2
				c0-4.7,3.2-8.3,8-8.3c5.3,0,7.9,4.5,7.6,9.3L123.3,14.9L123.3,14.9z M130.4,12.1c-0.4-2.2-1.3-3.3-3.4-3.3
				c-2.7,0-3.5,2.1-3.6,3.3H130.4z"/>
		</defs>
		<clipPath id="SVGID_16_">
			<use xlink:href="#SVGID_15_"  style="overflow:visible;"/>
		</clipPath>
		<g class="st7">
			<defs>
				<rect id="SVGID_17_" x="-922" y="-2513" width="1920" height="4619"/>
			</defs>
			<clipPath id="SVGID_18_">
				<use xlink:href="#SVGID_17_"  style="overflow:visible;"/>
			</clipPath>
			<rect x="114" y="0.6" class="st8" width="25.7" height="26.5"/>
		</g>
	</g>
	<g>
		<defs>
			<path id="SVGID_19_" d="M151.9,21.6h-4.1v-2.2h-0.1c-1.1,1.8-3,2.6-4.8,2.6c-4.6,0-5.7-2.6-5.7-6.4V6h4.3v8.8
				c0,2.6,0.8,3.8,2.8,3.8c2.3,0,3.3-1.3,3.3-4.5V6h4.3L151.9,21.6L151.9,21.6z"/>
		</defs>
		<clipPath id="SVGID_20_">
			<use xlink:href="#SVGID_19_"  style="overflow:visible;"/>
		</clipPath>
		<g class="st9">
			<defs>
				<rect id="SVGID_21_" x="-922" y="-2513" width="1920" height="4619"/>
			</defs>
			<clipPath id="SVGID_22_">
				<use xlink:href="#SVGID_21_"  style="overflow:visible;"/>
			</clipPath>
			<rect x="132.2" y="1" class="st10" width="24.7" height="26.1"/>
		</g>
	</g>
	<g>
		<defs>
			<path id="SVGID_23_" d="M160.8,6h3.2v2.9h-3.2v7.7c0,1.5,0.4,1.8,1.8,1.8c0.5,0,0.9,0,1.3-0.1v3.4c-0.7,0.1-1.7,0.2-2.5,0.2
				c-2.6,0-4.9-0.6-4.9-3.7V8.9h-2.6V6h2.6V1.3h4.3L160.8,6L160.8,6z"/>
		</defs>
		<clipPath id="SVGID_24_">
			<use xlink:href="#SVGID_23_"  style="overflow:visible;"/>
		</clipPath>
		<g class="st11">
			<defs>
				<rect id="SVGID_25_" x="-922" y="-2513" width="1920" height="4619"/>
			</defs>
			<clipPath id="SVGID_26_">
				<use xlink:href="#SVGID_25_"  style="overflow:visible;"/>
			</clipPath>
			<rect x="148.9" y="-3.7" class="st12" width="20.1" height="30.5"/>
		</g>
	</g>
	<g>
		<defs>
			<path id="SVGID_27_" d="M169.7,16.6c0,1.9,1.6,2.6,3.3,2.6c1.2,0,2.8-0.5,2.8-2c0-1.3-1.8-1.8-4.9-2.4c-2.5-0.5-5-1.4-5-4.2
				c0-4,3.5-5,6.8-5c3.4,0,6.6,1.1,6.9,5h-4.1c-0.1-1.7-1.4-2.1-2.9-2.1c-1,0-2.4,0.2-2.4,1.5c0,1.5,2.4,1.8,4.9,2.3
				c2.5,0.6,5,1.5,5,4.4c0,4.1-3.6,5.4-7.2,5.4c-3.6,0-7.2-1.4-7.4-5.5H169.7z"/>
		</defs>
		<clipPath id="SVGID_28_">
			<use xlink:href="#SVGID_27_"  style="overflow:visible;"/>
		</clipPath>
		<g class="st13">
			<defs>
				<rect id="SVGID_29_" x="-922" y="-2513" width="1920" height="4619"/>
			</defs>
			<clipPath id="SVGID_30_">
				<use xlink:href="#SVGID_29_"  style="overflow:visible;"/>
			</clipPath>
			<rect x="160.6" y="0.6" class="st14" width="24.5" height="26.5"/>
		</g>
	</g>
	<g>
		<defs>
			<path id="SVGID_31_" d="M193.1,11.5c-0.3-1.8-1.4-2.7-3.2-2.7c-2.8,0-3.7,2.8-3.7,5.1c0,2.2,0.9,4.9,3.6,4.9c2,0,3.2-1.3,3.4-3.2
				h4.2c-0.5,4.1-3.4,6.4-7.6,6.4c-4.7,0-7.9-3.3-7.9-8c0-4.9,2.9-8.5,8-8.5c3.7,0,7.1,1.9,7.4,5.9L193.1,11.5L193.1,11.5z"/>
		</defs>
		<clipPath id="SVGID_32_">
			<use xlink:href="#SVGID_31_"  style="overflow:visible;"/>
		</clipPath>
		<g class="st15">
			<defs>
				<rect id="SVGID_33_" x="-922" y="-2513" width="1920" height="4619"/>
			</defs>
			<clipPath id="SVGID_34_">
				<use xlink:href="#SVGID_33_"  style="overflow:visible;"/>
			</clipPath>
			<rect x="176.9" y="0.6" class="st16" width="25.5" height="26.5"/>
		</g>
	</g>
	<g>
		<defs>
			<path id="SVGID_35_" d="M199.8,0h4.3v8.1h0.1c1.1-1.8,3-2.6,4.6-2.6c4.6,0,5.7,2.6,5.7,6.4v9.6h-4.3v-8.8c0-2.6-0.8-3.8-2.8-3.8
				c-2.3,0-3.3,1.3-3.3,4.5v8.2h-4.3V0z"/>
		</defs>
		<clipPath id="SVGID_36_">
			<use xlink:href="#SVGID_35_"  style="overflow:visible;"/>
		</clipPath>
		<g class="st17">
			<defs>
				<rect id="SVGID_37_" x="-922" y="-2513" width="1920" height="4619"/>
			</defs>
			<clipPath id="SVGID_38_">
				<use xlink:href="#SVGID_37_"  style="overflow:visible;"/>
			</clipPath>
			<rect x="194.8" y="-5" class="st18" width="24.7" height="31.6"/>
		</g>
	</g>
	<g>
		<defs>
			<path id="SVGID_39_" d="M221.2,14.9c0.1,2.7,1.5,4,3.9,4c1.7,0,3.1-1.1,3.4-2h3.8c-1.2,3.7-3.8,5.3-7.3,5.3c-4.9,0-8-3.4-8-8.2
				c0-4.7,3.2-8.3,8-8.3c5.3,0,7.9,4.5,7.6,9.3L221.2,14.9L221.2,14.9z M228.2,12.1c-0.4-2.2-1.3-3.3-3.4-3.3
				c-2.7,0-3.5,2.1-3.6,3.3H228.2z"/>
		</defs>
		<clipPath id="SVGID_40_">
			<use xlink:href="#SVGID_39_"  style="overflow:visible;"/>
		</clipPath>
		<g class="st19">
			<defs>
				<rect id="SVGID_41_" x="-922" y="-2513" width="1920" height="4619"/>
			</defs>
			<clipPath id="SVGID_42_">
				<use xlink:href="#SVGID_41_"  style="overflow:visible;"/>
			</clipPath>
			<rect x="211.9" y="0.6" class="st20" width="25.7" height="26.5"/>
		</g>
	</g>
	<g>
		<defs>
			<rect id="SVGID_43_" x="234.3" y="5.6" width="14.5" height="16.5"/>
		</defs>
		<clipPath id="SVGID_44_">
			<use xlink:href="#SVGID_43_"  style="overflow:visible;"/>
		</clipPath>
		<g class="st21">
			<defs>
				<rect id="SVGID_45_" x="-922" y="-2513" width="1920" height="4619"/>
			</defs>
			<clipPath id="SVGID_46_">
				<use xlink:href="#SVGID_45_"  style="overflow:visible;"/>
			</clipPath>
			<g class="st22">
				<g>
					<defs>
						<rect id="SVGID_47_" x="234" y="5" width="15" height="18"/>
					</defs>
					<clipPath id="SVGID_48_">
						<use xlink:href="#SVGID_47_"  style="overflow:visible;"/>
					</clipPath>
					<g class="st23">
						<defs>
							<path id="SVGID_49_" d="M238.4,16.6c0,1.9,1.6,2.6,3.3,2.6c1.2,0,2.8-0.5,2.8-2c0-1.3-1.8-1.8-4.9-2.4c-2.5-0.5-5-1.4-5-4.2
								c0-4,3.5-5,6.8-5c3.4,0,6.6,1.1,6.9,5h-4.1c-0.1-1.7-1.4-2.1-2.9-2.1c-1,0-2.4,0.2-2.4,1.5c0,1.5,2.4,1.8,4.9,2.3
								c2.5,0.6,5,1.5,5,4.4c0,4.1-3.6,5.4-7.2,5.4c-3.6,0-7.2-1.4-7.4-5.5H238.4z"/>
						</defs>
						<clipPath id="SVGID_50_">
							<use xlink:href="#SVGID_49_"  style="overflow:visible;"/>
						</clipPath>
						<g class="st24">
							<defs>
								<rect id="SVGID_51_" x="234" y="5" width="15" height="18"/>
							</defs>
							<clipPath id="SVGID_52_">
								<use xlink:href="#SVGID_51_"  style="overflow:visible;"/>
							</clipPath>
							<rect x="229.3" y="0.6" class="st25" width="24.5" height="26.5"/>
						</g>
					</g>
				</g>
			</g>
		</g>
	</g>
	<g>
		<defs>
			<path id="SVGID_53_" d="M98.1,28.3h11.7c3.9,0,6.3,2.7,6.3,6c0,2.5-1,4.4-3.4,5.4v0.1c2.3,0.6,3,2.9,3.2,5
				c0.1,1.4,0.1,3.9,0.9,5.1H112c-0.6-1.4-0.5-3.4-0.8-5.2c-0.3-2.3-1.2-3.3-3.6-3.3h-4.8v8.4h-4.8V28.3z M102.8,38.1h5.2
				c2.1,0,3.3-0.9,3.3-3.1c0-2.1-1.2-3-3.3-3h-5.2V38.1z"/>
		</defs>
		<clipPath id="SVGID_54_">
			<use xlink:href="#SVGID_53_"  style="overflow:visible;"/>
		</clipPath>
		<g class="st26">
			<defs>
				<rect id="SVGID_55_" x="-922" y="-2513" width="1920" height="4619"/>
			</defs>
			<clipPath id="SVGID_56_">
				<use xlink:href="#SVGID_55_"  style="overflow:visible;"/>
			</clipPath>
			<rect x="93.1" y="23.3" class="st27" width="28.7" height="31.6"/>
		</g>
	</g>
	<g>
		<defs>
			<path id="SVGID_57_" d="M126.7,33.9c4.9,0,8.1,3.3,8.1,8.3c0,5-3.2,8.2-8.1,8.2c-4.9,0-8.1-3.3-8.1-8.2
				C118.6,37.1,121.8,33.9,126.7,33.9 M126.7,47.1c2.9,0,3.8-2.5,3.8-5c0-2.5-0.9-5-3.8-5c-2.9,0-3.8,2.5-3.8,5
				C122.9,44.6,123.8,47.1,126.7,47.1"/>
		</defs>
		<clipPath id="SVGID_58_">
			<use xlink:href="#SVGID_57_"  style="overflow:visible;"/>
		</clipPath>
		<g class="st28">
			<defs>
				<rect id="SVGID_59_" x="-922" y="-2513" width="1920" height="4619"/>
			</defs>
			<clipPath id="SVGID_60_">
				<use xlink:href="#SVGID_59_"  style="overflow:visible;"/>
			</clipPath>
			<rect x="113.6" y="28.9" class="st29" width="26.2" height="26.5"/>
		</g>
	</g>
	<g>
		<defs>
			<path id="SVGID_61_" d="M143.1,34.3h3.2v2.9h-3.2v7.7c0,1.5,0.4,1.8,1.8,1.8c0.5,0,0.9,0,1.3-0.1v3.4c-0.7,0.1-1.7,0.2-2.5,0.2
				c-2.6,0-4.9-0.6-4.9-3.7v-9.2h-2.6v-2.9h2.6v-4.7h4.3L143.1,34.3L143.1,34.3z"/>
		</defs>
		<clipPath id="SVGID_62_">
			<use xlink:href="#SVGID_61_"  style="overflow:visible;"/>
		</clipPath>
		<g class="st30">
			<defs>
				<rect id="SVGID_63_" x="-922" y="-2513" width="1920" height="4619"/>
			</defs>
			<clipPath id="SVGID_64_">
				<use xlink:href="#SVGID_63_"  style="overflow:visible;"/>
			</clipPath>
			<rect x="131.1" y="24.6" class="st31" width="20.1" height="30.5"/>
		</g>
	</g>
	<g>
		<defs>
			<path id="SVGID_65_" d="M151.9,43.1c0.1,2.7,1.5,4,3.9,4c1.7,0,3.1-1.1,3.4-2h3.8c-1.2,3.7-3.8,5.3-7.3,5.3c-4.9,0-8-3.4-8-8.2
				c0-4.7,3.2-8.3,8-8.3c5.3,0,7.9,4.5,7.6,9.3L151.9,43.1L151.9,43.1z M158.9,40.4c-0.4-2.2-1.3-3.3-3.4-3.3
				c-2.7,0-3.5,2.1-3.6,3.3H158.9z"/>
		</defs>
		<clipPath id="SVGID_66_">
			<use xlink:href="#SVGID_65_"  style="overflow:visible;"/>
		</clipPath>
		<g class="st32">
			<defs>
				<rect id="SVGID_67_" x="-922" y="-2513" width="1920" height="4619"/>
			</defs>
			<clipPath id="SVGID_68_">
				<use xlink:href="#SVGID_67_"  style="overflow:visible;"/>
			</clipPath>
			<rect x="142.6" y="28.9" class="st33" width="25.7" height="26.5"/>
		</g>
	</g>
	<g>
		<defs>
			<path id="SVGID_69_" d="M169.1,44.8c0,1.9,1.6,2.6,3.3,2.6c1.2,0,2.8-0.5,2.8-2c0-1.3-1.8-1.8-4.9-2.4c-2.5-0.5-5-1.4-5-4.2
				c0-4,3.5-5,6.8-5c3.4,0,6.6,1.1,6.9,5h-4.1c-0.1-1.7-1.4-2.1-2.9-2.1c-1,0-2.4,0.2-2.4,1.5c0,1.5,2.4,1.8,4.9,2.3
				c2.5,0.6,5,1.5,5,4.4c0,4.1-3.6,5.4-7.2,5.4c-3.6,0-7.2-1.4-7.4-5.5L169.1,44.8L169.1,44.8z"/>
		</defs>
		<clipPath id="SVGID_70_">
			<use xlink:href="#SVGID_69_"  style="overflow:visible;"/>
		</clipPath>
		<g class="st34">
			<defs>
				<rect id="SVGID_71_" x="-922" y="-2513" width="1920" height="4619"/>
			</defs>
			<clipPath id="SVGID_72_">
				<use xlink:href="#SVGID_71_"  style="overflow:visible;"/>
			</clipPath>
			<rect x="160" y="28.9" class="st35" width="24.5" height="26.5"/>
		</g>
	</g>
	<g>
		<defs>
			<polygon id="SVGID_73_" points="98,56.6 102.8,56.6 102.8,65.6 111.2,56.6 117.2,56.6 108.7,65.1 118,78.2 112,78.2 105.5,68.5 
				102.8,71.2 102.8,78.2 98,78.2 			"/>
		</defs>
		<clipPath id="SVGID_74_">
			<use xlink:href="#SVGID_73_"  style="overflow:visible;"/>
		</clipPath>
		<g class="st36">
			<defs>
				<rect id="SVGID_75_" x="-922" y="-2513" width="1920" height="4619"/>
			</defs>
			<clipPath id="SVGID_76_">
				<use xlink:href="#SVGID_75_"  style="overflow:visible;"/>
			</clipPath>
			<rect x="93" y="51.6" class="st37" width="30" height="31.6"/>
		</g>
	</g>
	<g>
		<defs>
			<path id="SVGID_77_" d="M119.5,62.6h4.1v2.9h0.1c0.8-2,2.9-3.3,5-3.3c0.3,0,0.7,0.1,0.9,0.2v4c-0.4-0.1-1-0.2-1.5-0.2
				c-3.2,0-4.2,2.3-4.2,5v7h-4.3V62.6z"/>
		</defs>
		<clipPath id="SVGID_78_">
			<use xlink:href="#SVGID_77_"  style="overflow:visible;"/>
		</clipPath>
		<g class="st38">
			<defs>
				<rect id="SVGID_79_" x="-922" y="-2513" width="1920" height="4619"/>
			</defs>
			<clipPath id="SVGID_80_">
				<use xlink:href="#SVGID_79_"  style="overflow:visible;"/>
			</clipPath>
			<rect x="114.5" y="57.1" class="st39" width="20.1" height="26.1"/>
		</g>
	</g>
	<g>
		<defs>
			<path id="SVGID_81_" d="M134.3,71.4c0.1,2.7,1.5,4,3.9,4c1.7,0,3.1-1.1,3.4-2h3.8c-1.2,3.7-3.8,5.3-7.3,5.3c-4.9,0-8-3.4-8-8.2
				c0-4.7,3.2-8.3,8-8.3c5.3,0,7.9,4.5,7.6,9.3H134.3z M141.3,68.7c-0.4-2.2-1.3-3.3-3.4-3.3c-2.7,0-3.5,2.1-3.6,3.3H141.3z"/>
		</defs>
		<clipPath id="SVGID_82_">
			<use xlink:href="#SVGID_81_"  style="overflow:visible;"/>
		</clipPath>
		<g class="st40">
			<defs>
				<rect id="SVGID_83_" x="-922" y="-2513" width="1920" height="4619"/>
			</defs>
			<clipPath id="SVGID_84_">
				<use xlink:href="#SVGID_83_"  style="overflow:visible;"/>
			</clipPath>
			<rect x="125" y="57.1" class="st41" width="25.7" height="26.5"/>
		</g>
	</g>
	<g>
		<defs>
			<rect id="SVGID_85_" x="147.9" y="62.6" width="14.7" height="16.1"/>
		</defs>
		<clipPath id="SVGID_86_">
			<use xlink:href="#SVGID_85_"  style="overflow:visible;"/>
		</clipPath>
		<g class="st42">
			<defs>
				<rect id="SVGID_87_" x="-922" y="-2513" width="1920" height="4619"/>
			</defs>
			<clipPath id="SVGID_88_">
				<use xlink:href="#SVGID_87_"  style="overflow:visible;"/>
			</clipPath>
			<g class="st43">
				<g>
					<defs>
						<rect id="SVGID_89_" x="147" y="62" width="16" height="17"/>
					</defs>
					<clipPath id="SVGID_90_">
						<use xlink:href="#SVGID_89_"  style="overflow:visible;"/>
					</clipPath>
					<g class="st44">
						<defs>
							<path id="SVGID_91_" d="M162.6,78.2h-4.1V76h-0.1c-1.1,1.8-3,2.6-4.8,2.6c-4.6,0-5.7-2.6-5.7-6.4v-9.6h4.3v8.8
								c0,2.6,0.8,3.8,2.8,3.8c2.3,0,3.3-1.3,3.3-4.5v-8.2h4.3V78.2z"/>
						</defs>
						<clipPath id="SVGID_92_">
							<use xlink:href="#SVGID_91_"  style="overflow:visible;"/>
						</clipPath>
						<g class="st45">
							<defs>
								<rect id="SVGID_93_" x="147" y="62" width="16" height="17"/>
							</defs>
							<clipPath id="SVGID_94_">
								<use xlink:href="#SVGID_93_"  style="overflow:visible;"/>
							</clipPath>
							<rect x="142.9" y="57.6" class="st46" width="24.7" height="26.1"/>
						</g>
					</g>
				</g>
			</g>
		</g>
	</g>
	<g>
		<defs>
			<polygon id="SVGID_95_" points="165,75 173.1,65.8 165.6,65.8 165.6,62.6 178.8,62.6 178.8,65.8 170.6,75 179.4,75 179.4,78.2 
				165,78.2 			"/>
		</defs>
		<clipPath id="SVGID_96_">
			<use xlink:href="#SVGID_95_"  style="overflow:visible;"/>
		</clipPath>
		<g class="st47">
			<defs>
				<rect id="SVGID_97_" x="-922" y="-2513" width="1920" height="4619"/>
			</defs>
			<clipPath id="SVGID_98_">
				<use xlink:href="#SVGID_97_"  style="overflow:visible;"/>
			</clipPath>
			<rect x="160" y="57.6" class="st48" width="24.4" height="25.6"/>
		</g>
	</g>
</g>
</svg>
