<?xml version="1.0" encoding="utf-8"?>
<!-- Generator: Adobe Illustrator 23.0.4, SVG Export Plug-In . SVG Version: 6.00 Build 0)  -->
<svg version="1.1" id="Layer_1" xmlns="http://www.w3.org/2000/svg" xmlns:xlink="http://www.w3.org/1999/xlink" x="0px" y="0px"
	 viewBox="0 0 269 54" style="enable-background:new 0 0 269 54;" xml:space="preserve">
<style type="text/css">
	.st0{clip-path:url(#SVGID_2_);}
	.st1{clip-path:url(#SVGID_4_);fill:#FFFFFF;}
	.st2{clip-path:url(#SVGID_6_);}
	.st3{clip-path:url(#SVGID_8_);fill:#FFFFFF;}
	.st4{clip-path:url(#SVGID_10_);}
	.st5{clip-path:url(#SVGID_12_);enable-background:new    ;}
	.st6{clip-path:url(#SVGID_14_);}
	.st7{clip-path:url(#SVGID_16_);}
	.st8{clip-path:url(#SVGID_18_);fill:#FFFFFF;}
	.st9{clip-path:url(#SVGID_20_);}
	.st10{clip-path:url(#SVGID_22_);fill:#FFFFFF;}
	.st11{clip-path:url(#SVGID_24_);}
	.st12{clip-path:url(#SVGID_26_);fill:#FFFFFF;}
	.st13{clip-path:url(#SVGID_28_);}
	.st14{clip-path:url(#SVGID_30_);enable-background:new    ;}
	.st15{clip-path:url(#SVGID_32_);}
	.st16{clip-path:url(#SVGID_34_);}
	.st17{clip-path:url(#SVGID_36_);fill:#FFFFFF;}
</style>
<g>
	<g>
		<defs>
			<path id="SVGID_1_" d="M142.7,54c-0.9-0.2-1.7-0.3-2.6-0.5c-12.7-2.2-22-13.1-22.1-26c0-12.9,9.2-23.9,21.9-26.1
				c15.1-2.6,29.5,8.1,30.9,23.1c0,0.4,0,0.9,0,1.5c-0.4,0-0.9,0.1-1.3,0.1c-6.4,0-12.8,0-19.2,0c-0.8,0-1.3-0.2-1.7-0.9
				c-1.1-1.9-3.3-2.8-5.3-2.3c-2.1,0.6-3.6,2.4-3.6,4.5c0,2.1,1.3,4,3.4,4.7c2.1,0.6,4.3-0.2,5.5-2.1c0.3-0.4,0.8-0.9,1.3-0.9
				c6.8-0.1,13.6,0,20.4,0c0.1,0,0.3,0,0.7,0.1c-0.4,1.9-0.6,3.9-1.1,5.8C167,45.3,158,52.7,147.2,53.8c-0.2,0-0.5,0.2-0.7,0.2
				H142.7z"/>
		</defs>
		<clipPath id="SVGID_2_">
			<use xlink:href="#SVGID_1_"  style="overflow:visible;"/>
		</clipPath>
		<g class="st0">
			<defs>
				<rect id="SVGID_3_" x="-598" y="-2674" width="1920" height="4619"/>
			</defs>
			<clipPath id="SVGID_4_">
				<use xlink:href="#SVGID_3_"  style="overflow:visible;"/>
			</clipPath>
			<rect x="113" y="-4" class="st1" width="63" height="63"/>
		</g>
	</g>
	<g>
		<defs>
			<path id="SVGID_5_" d="M0,35h10.2c-1.6-1.7-3-3.3-4.6-4.7C-3.2,22.6,0.5,6,13,2c12-3.8,23.5,3.3,24.9,15.7c0.1,0.7,0,1.3,0,2.1
				h-9.8c1.6,1.6,3,3.3,4.5,4.6c8.3,7,6,18.7-0.3,24.3c-3.1,2.8-6.8,4.4-10.9,5c-0.3,0-0.7,0.2-1,0.3h-3.8c-0.2-0.1-0.4-0.2-0.6-0.2
				c-7.7-1-13.4-6-15.4-13.5C0.4,39.1,0.2,38,0,36.9V35z"/>
		</defs>
		<clipPath id="SVGID_6_">
			<use xlink:href="#SVGID_5_"  style="overflow:visible;"/>
		</clipPath>
		<g class="st2">
			<defs>
				<rect id="SVGID_7_" x="-598" y="-2674" width="1920" height="4619"/>
			</defs>
			<clipPath id="SVGID_8_">
				<use xlink:href="#SVGID_7_"  style="overflow:visible;"/>
			</clipPath>
			<rect x="-5" y="-4" class="st3" width="48" height="63"/>
		</g>
	</g>
	<g>
		<defs>
			<rect id="SVGID_9_" x="220.2" y="1.1" width="48.6" height="51.6"/>
		</defs>
		<clipPath id="SVGID_10_">
			<use xlink:href="#SVGID_9_"  style="overflow:visible;"/>
		</clipPath>
		<g class="st4">
			<defs>
				<rect id="SVGID_11_" x="-598" y="-2674" width="1920" height="4619"/>
			</defs>
			<clipPath id="SVGID_12_">
				<use xlink:href="#SVGID_11_"  style="overflow:visible;"/>
			</clipPath>
			<g class="st5">
				<g>
					<defs>
						<rect id="SVGID_13_" x="220" y="1" width="50" height="52"/>
					</defs>
					<clipPath id="SVGID_14_">
						<use xlink:href="#SVGID_13_"  style="overflow:visible;"/>
					</clipPath>
					<g class="st6">
						<defs>
							<path id="SVGID_15_" d="M220.2,52.7V1.1h1.5c7.4,0,14.7,0,22.1,0c13,0,24.1,10.5,25,23.6c0.9,13.6-7.5,25-20.6,27.6
								c-1.2,0.2-2.5,0.4-3.7,0.4c-7.8,0-15.6,0-23.4,0C220.8,52.7,220.5,52.7,220.2,52.7"/>
						</defs>
						<clipPath id="SVGID_16_">
							<use xlink:href="#SVGID_15_"  style="overflow:visible;"/>
						</clipPath>
						<g class="st7">
							<defs>
								<rect id="SVGID_17_" x="220" y="1" width="49" height="52"/>
							</defs>
							<clipPath id="SVGID_18_">
								<use xlink:href="#SVGID_17_"  style="overflow:visible;"/>
							</clipPath>
							<rect x="215.2" y="-3.9" class="st8" width="58.6" height="61.6"/>
						</g>
					</g>
				</g>
			</g>
		</g>
	</g>
	<g>
		<defs>
			<path id="SVGID_19_" d="M215.9,2c0,0.5,0.1,0.9,0.1,1.3c0,4.6,0,9.1,0,13.8h-19v2.8h18.9v15.2H197V38h18.9v15H174V2H215.9z"/>
		</defs>
		<clipPath id="SVGID_20_">
			<use xlink:href="#SVGID_19_"  style="overflow:visible;"/>
		</clipPath>
		<g class="st9">
			<defs>
				<rect id="SVGID_21_" x="-598" y="-2674" width="1920" height="4619"/>
			</defs>
			<clipPath id="SVGID_22_">
				<use xlink:href="#SVGID_21_"  style="overflow:visible;"/>
			</clipPath>
			<rect x="169" y="-3" class="st10" width="52" height="61"/>
		</g>
	</g>
	<g>
		<defs>
			<path id="SVGID_23_" d="M65.7,42.1V53H43V2h1.4c7.9,0,15.9,0,23.8,0c10.6,0,19,7.9,19.7,18.2c0.8,12-7.9,20.7-17.5,21.6
				C68.9,42,67.4,42,65.7,42.1"/>
		</defs>
		<clipPath id="SVGID_24_">
			<use xlink:href="#SVGID_23_"  style="overflow:visible;"/>
		</clipPath>
		<g class="st11">
			<defs>
				<rect id="SVGID_25_" x="-598" y="-2674" width="1920" height="4619"/>
			</defs>
			<clipPath id="SVGID_26_">
				<use xlink:href="#SVGID_25_"  style="overflow:visible;"/>
			</clipPath>
			<rect x="38" y="-3" class="st12" width="55" height="61"/>
		</g>
	</g>
	<g>
		<defs>
			<rect id="SVGID_27_" width="269" height="54"/>
		</defs>
		<clipPath id="SVGID_28_">
			<use xlink:href="#SVGID_27_"  style="overflow:visible;"/>
		</clipPath>
		<g class="st13">
			<defs>
				<rect id="SVGID_29_" x="-598" y="-2674" width="1920" height="4619"/>
			</defs>
			<clipPath id="SVGID_30_">
				<use xlink:href="#SVGID_29_"  style="overflow:visible;"/>
			</clipPath>
			<g class="st14">
				<g>
					<defs>
						<rect id="SVGID_31_" x="92" y="2" width="24" height="51"/>
					</defs>
					<clipPath id="SVGID_32_">
						<use xlink:href="#SVGID_31_"  style="overflow:visible;"/>
					</clipPath>
					<g class="st15">
						<defs>
							<rect id="SVGID_33_" x="92" y="2" width="24" height="51"/>
						</defs>
						<clipPath id="SVGID_34_">
							<use xlink:href="#SVGID_33_"  style="overflow:visible;"/>
						</clipPath>
						<g class="st16">
							<defs>
								<rect id="SVGID_35_" y="1" width="269" height="53"/>
							</defs>
							<clipPath id="SVGID_36_">
								<use xlink:href="#SVGID_35_"  style="overflow:visible;"/>
							</clipPath>
							<rect x="87" y="-3" class="st17" width="34" height="61"/>
						</g>
					</g>
				</g>
			</g>
		</g>
	</g>
</g>
</svg>
