<svg enable-background="new 0 0 269 54" viewBox="0 0 269 54" xmlns="http://www.w3.org/2000/svg" xmlns:xlink="http://www.w3.org/1999/xlink"><clipPath id="a"><path d="m142.7 54c-.9-.2-1.7-.3-2.6-.5-12.7-2.2-22-13.1-22.1-26 0-12.9 9.2-23.9 21.9-26.1 15.1-2.6 29.5 8.1 30.9 23.1v1.5c-.4 0-.9.1-1.3.1-6.4 0-12.8 0-19.2 0-.8 0-1.3-.2-1.7-.9-1.1-1.9-3.3-2.8-5.3-2.3-2.1.6-3.6 2.4-3.6 4.5s1.3 4 3.4 4.7c2.1.6 4.3-.2 5.5-2.1.3-.4.8-.9 1.3-.9 6.8-.1 13.6 0 20.4 0 .1 0 .3 0 .7.1-.4 1.9-.6 3.9-1.1 5.8-2.9 10.3-11.9 17.7-22.7 18.8-.2 0-.5.2-.7.2z"/></clipPath><clipPath id="b"><path d="m-598-2674h1920v4619h-1920z"/></clipPath><clipPath id="c"><path d="m0 35h10.2c-1.6-1.7-3-3.3-4.6-4.7-8.8-7.7-5.1-24.3 7.4-28.3 12-3.8 23.5 3.3 24.9 15.7.1.7 0 1.3 0 2.1h-9.8c1.6 1.6 3 3.3 4.5 4.6 8.3 7 6 18.7-.3 24.3-3.1 2.8-6.8 4.4-10.9 5-.3 0-.7.2-1 .3h-3.8c-.2-.1-.4-.2-.6-.2-7.7-1-13.4-6-15.4-13.5-.2-1.2-.4-2.3-.6-3.4z"/></clipPath><clipPath id="d"><path d="m-598-2674h1920v4619h-1920z"/></clipPath><clipPath id="e"><path d="m220.2 1.1h48.6v51.6h-48.6z"/></clipPath><clipPath id="f"><path d="m-598-2674h1920v4619h-1920z"/></clipPath><clipPath id="g"><path d="m220 1h50v52h-50z"/></clipPath><clipPath id="h"><path d="m220.2 52.7v-51.6h1.5 22.1c13 0 24.1 10.5 25 23.6.9 13.6-7.5 25-20.6 27.6-1.2.2-2.5.4-3.7.4-7.8 0-15.6 0-23.4 0-.3 0-.6 0-.9 0"/></clipPath><clipPath id="i"><path d="m220 1h49v52h-49z"/></clipPath><clipPath id="j"><path d="m215.9 2c0 .5.1.9.1 1.3v13.8h-19v2.8h18.9v15.2h-18.9v2.9h18.9v15h-41.9v-51z"/></clipPath><clipPath id="k"><path d="m-598-2674h1920v4619h-1920z"/></clipPath><clipPath id="l"><path d="m65.7 42.1v10.9h-22.7v-51h1.4 23.8c10.6 0 19 7.9 19.7 18.2.8 12-7.9 20.7-17.5 21.6-1.5.2-3 .2-4.7.3"/></clipPath><clipPath id="m"><path d="m-598-2674h1920v4619h-1920z"/></clipPath><clipPath id="n"><path d="m0 0h269v54h-269z"/></clipPath><clipPath id="o"><path d="m-598-2674h1920v4619h-1920z"/></clipPath><clipPath id="p"><path d="m92 2h24v51h-24z"/></clipPath><clipPath id="q"><path d="m92 2h24v51h-24z"/></clipPath><clipPath id="r"><path d="m0 1h269v53h-269z"/></clipPath><g clip-path="url(#a)"><path clip-path="url(#b)" d="m113-4h63v63h-63z" fill="#fff"/></g><g clip-path="url(#c)"><path clip-path="url(#d)" d="m-5-4h48v63h-48z" fill="#fff"/></g><g clip-path="url(#e)"><g clip-path="url(#f)" enable-background="new"><g clip-path="url(#g)"><g clip-path="url(#h)"><path clip-path="url(#i)" d="m215.2-3.9h58.6v61.6h-58.6z" fill="#fff"/></g></g></g></g><g clip-path="url(#j)"><path clip-path="url(#k)" d="m169-3h52v61h-52z" fill="#fff"/></g><g clip-path="url(#l)"><path clip-path="url(#m)" d="m38-3h55v61h-55z" fill="#fff"/></g><g clip-path="url(#n)"><g clip-path="url(#o)" enable-background="new"><g clip-path="url(#p)"><g clip-path="url(#q)"><path clip-path="url(#r)" d="m87-3h34v61h-34z" fill="#fff"/></g></g></g></g></svg>