<svg enable-background="new 0 0 76.9 94" viewBox="0 0 76.9 94" xmlns="http://www.w3.org/2000/svg" xmlns:xlink="http://www.w3.org/1999/xlink"><clipPath id="a"><path d="m0 44h76.9v50h-76.9z"/></clipPath><clipPath id="b"><path d="m-599-2499h1920v4619h-1920z"/></clipPath><clipPath id="c"><path d="m0 44h77v51h-77z"/></clipPath><clipPath id="d"><path d="m73.6 44v6.1l-.5-.5c-.3-.3-.5-.5-.5-.6s0 0 0 0-.3-.1-.5-.2c-.7-.4-1.3-.5-2.2-.5s-1.4.1-2.1.5c-1.5.7-2.5 2.2-2.9 4.4-.2 1.3-.1 3.3.2 4.5.6 2 1.9 3.4 3.7 3.9.6.2 2 .2 2.6 0 .9-.2 1.6-.7 2.1-1.4l.2-.3v.7.7h3.3v-17.3zm-68.1 4.2c-.1 0-.1 0 0 0-.2.1-1 .2-1.5.2-.1 0-.2 0-.2 0s-.2.1-.5.2c-1.8.6-2.6 1.7-2.6 3.3 0 .4.1.8.1 1.1.1.2.1.5.1.5 0 .1.4.6.7.9.1.1.2.2.2.2s0 .1.1.1c.2 0 .9.5.9.6h.3c.1.1.2.1.2.1s.3.1.7.2c.3.1 1.1.4 1.8.5.7.2 1.3.3 1.3.3s.2.1.2.1c.3.2.7.5.9.7.2.3.3.6.2.9s-.5.7-.7.7c-.1 0-.1 0-.1 0 .1.1-1 .3-1.7.3-.6 0-1.1-.2-1.1-.3 0 0 0 0-.1 0-.2.1-.7-.4-.9-.8-.1-.2-.2-.4-.2-.6v-.2h-1.7-1.7v.2c0 .1.1.4.1.6.1.6.5 1.4 1.1 2 .3.5.6.6 1 .8.2.1.6.3 1 .4 1 .3 1.5.4 3 .4 1.2 0 1.5 0 2.1-.2 1.6-.4 2.7-1.4 3.1-2.6.2-.5.2-1.7.1-2.3 0-.2-.1-.4-.1-.4s-.1-.2-.2-.4c-.4-.6-1-1.1-2.2-1.5-.5-.2-2.9-.9-3.3-1-.3 0-.9-.2-1.3-.4-.6-.4-.8-.8-.5-1.3.2-.3.6-.5 1.4-.6 1-.1 1.8.1 2.3.5.2.2.5.9.5 1.1h3.2v-.3c0-.4-.1-1-.3-1.4-.5-1.2-1.4-1.9-2.7-2.3-.6-.2-2.1-.3-2.6-.3-.4.1-.5.1-.4 0zm51.9 0c-.2 0-.4 0-.7 0-.8 0-1.4 0-1.4.1 0 0 0 .1-.1 0 0 0-.2 0-.4.1-2 .6-3 1.7-3.2 3.7l-.1.5h1.6 1.6l.1-.3c.3-1 .8-1.4 2-1.5.9 0 1.6.1 1.9.6.2.3.3.3.2.8 0 .5 0 .5-.3.7-.3.3-.8.4-2.3.7-2.6.4-3.7.8-4.4 1.7-.6.7-.8 1.9-.8 3 0 .5.1 1.1.4 1.5.7 1.3 2.5 2 4.7 1.7.3 0 .8-.1 1.1-.2.5-.2 1.5-.7 1.7-1 .1-.1.1-.1.2.4l.1.5h1.6 1.6v-4.5c0-4.9 0-5.2-.4-6.1-.5-1.3-1.6-2.1-3.3-2.4-.4 0-.8 0-1.4 0zm-21.4.1h-.4c-1.4 0-2.3.4-3.1 1-.3.2-.5.4-.7.7v-1.3h-3.2v12.8h3.4v-3.7c0-3.6 0-3.7.2-4.2.3-.9 1-1.5 2-1.7.6-.2 1.1-.1 1.8 0zm-15.1 0c-.7 0-1.3.2-1.9.4-.3.2-.6.4-1 .7l-.6.5v-1.3h-3.3v19.5h3.3v-4.2c0-4.1 0-4.2.1-4 .1.1.1.2.1.2s0 .1 0 0c0 0 .2.1.3.2.3.3 1 .8 1.5 1 .7.3 2.1.3 2.8.1.3-.1.5-.1.6-.1s.1 0 .1-.1c0 0 0-.1.1-.1.6-.2 1.6-1.1 2-1.8.8-1.3 1.1-2.5 1.1-4.3 0-1.4-.1-2.3-.6-3.4-.1-.3-.2-.6-.2-.7 0 0 0-.1-.1-.1 0 0-.1 0-.1-.1s0-.1-.1-.1c0 0-.2-.2-.3-.4-.5-1.2-2.2-1.9-3.8-1.9zm22.6 0c-1.1 0-1.6.1-2.4.4-.3.1-.5.2-.6.1s-.1.2-.4.3c-1.2.7-2.2 2.1-2.5 3.5-.2.9-.2 1.1-.2 2.3 0 1.3.2 2.1.5 3.2.1.4.3.8.5 1.1.2.4 1 1.2 1.4 1.5.6.4 1.4.7 2.3.9.7.1 2.4.1 3 0 1.2-.2 2.1-.9 2.9-1.7.3-.3.6-.7.8-1.1.1-.3.3-.6.4-.8l.1-.4h-3.5v.2c0 .2-.5.8-.6.8 0 0-.1 0-.2.1-.2.2-.9.4-1.5.3-1.4-.1-2.3-1.1-2.6-2.7l-.1-.3h8.6v-.5c0-.7-.2-2-.4-2.8-.1-.3-.1-.6-.1-.6s-.1 0-.1-.1-.2-.4-.3-.8c-.3-.6-.4-.8-1-1.3-1.1-1.2-2.2-1.6-4-1.6zm-.3 2.8c.3 0 .7 0 1 .1.8.3 1.5 1.2 1.6 2.2v.4h-2.5-2.5l.1-.3c.2-1 .7-1.8 1.5-2.2.2-.2.5-.2.8-.2zm-23.3 0h.3c.7 0 1.1.2 1.6.7.4.4.8 1.1 1 1.9.2.9.1 2.4-.1 3.1-.2.6-.6 1.3-.8 1.3-.1 0-.2.1-.3.2-.4.3-1.7.5-2.4.2-.4-.1-1-.6-.9-.7-.2.1-.6-.8-.8-1.7-.1-.7-.1-2.1 0-2.6.3-1.1.9-1.9 1.7-2.2.3-.1.5-.2.7-.2zm51 .1h.5c1.5.3 2.2 1.5 2.2 3.8 0 1.2-.2 2.1-.8 2.8-.3.3-.8.7-.9.6-.1 0-.1 0 0 0 .1.1-.3.3-.9.3-.4 0-.6 0-.6-.1 0 0 0-.1-.1 0s-.6-.2-.6-.3c0 0 0 0-.1 0-.1.1-.8-.6-1-1.1-.3-.6-.5-1.2-.5-2-.1-1.2.2-2.5.7-3.2.2-.3.8-.8 1-.7h.1c-.1.1.5-.1 1-.1zm-68.7 3.9c0 .1.2.1.2.1s0 0-.2-.1c.1 0 .1 0 0 0zm56.8.1c.1 0 .1.2.1.9 0 .8 0 1-.2 1.3-.6 1.2-2.3 2-3.4 1.6-.2-.1-.3-.2-.4-.2-.1-.1-.1-.1-.1-.1s-.1-.1-.2-.2c-.1-.2-.2-.4-.2-.8 0-1.1.6-1.5 2.7-2 .5-.1 1.1-.3 1.3-.3.1-.1.3-.1.3-.1s.1 0 0 0c0 0 0-.1.1-.1zm-32.3 7.1-.3.3c-.6.6-1.4 1.1-2.4 1.4-.6.2-1.7.4-2.2.4h-.5v14.5 14.5h5.4l.1-13.1c0-.2.1-.5.2-.6 0-.2.1-.3.1-.3s0 0 0-.1c-.1-.3 1.2-2.1 1.4-2 .1 0 .1 0 0 0-.1-.1.7-.5 1.2-.6.6-.2 2.4-.1 2.3 0 0 0 .1 0 .2.1.4 0 1.3.6 1.2.8 0 0 0 .1 0 0 .1-.1.5.8.6 1.4l.2 14.5h5.8l-.1-15.5c-.1-1-.2-1.5-.7-2.4-.3-.7-.5-.9-1.1-1.5-.8-.8-1.4-1.2-2.4-1.5-1.7-.6-3.9-.6-5.5 0-1 .3-1.7.8-2.3 1.3-.2.2-.3.2-.4.2s-.1 0 0 0c0 0-.1.3-.3.5s-.3.5-.4.6c0 .1-.1-2.8-.1-6.3zm16.5 7.1h5.4v-4.9h-5.4zm23.3-4.9.1 22.8c.1.8.1.9.4 1.6.3.8.6 1.4 1 2.1.1.2.2.3.3.4.2.2.3.4.5.5.4.3.8.7 1.3.9.5.3 1 .5 1.5.7.8.3 1.2.3 2.6.5.3 0 1.9 0 2.4-.1h.4v-4.7h-1.1c-1.3 0-1.7 0-2.4-.4-.3-.2-.6-.4-.8-.7 0-.1 0-.1-.1-.2 0 0 0-.1-.1-.1-.2-.5-.4-.9-.5-1.5l-.1-9.9h5v-4.2h-5v-7.6h-5.4zm-23.3 28.9h5.4v-21.3h-5.4zm9-21.3v21.3h5.5c.3-3.7-.7-11 .6-13.6.3-.6 1.1-1.4 1.2-1.4h.1c-.1-.1.7-.4 1.3-.6.4-.1.8-.2 1.6-.2h1.3l.3.1v-2.7-2.8h-1.3c-.7 0-1.4.1-1.5.1-.5.1-1.4.4-1.8.7-.5.3-1.5 1.2-1.9 1.7l-.2.3v-1.5c0-.8 0-1.5-.1-1.5h-5.1zm-42.6.1c-.1 0-.3 0-.4 0-.7 0-1.4 0-1.8.1-3.4.4-5.4 1.6-6.3 3.7-.1.3-.3 1.4-.4 1.9 0 .3.1 1.1.2 1.8.4 2.1 2.1 3.5 5.5 4.7.5.2.9.3.9.3.1 0 .1.1.2.1 0 0 .7.2 1.5.4 2.1.5 2.6.6 2.6.7h.1c.1-.1.6.2.5.3h.1c.2-.1.7.4.9.8.2.5.3 1.1.1 1.5-.2.5-.9 1-1 .9-.1 0-.1 0 0 0 0 .1-.5.2-1 .4-.7.1-2.9.1-2.8 0 0 0 0 0-.1 0-.2 0-1-.3-1.4-.6-.6-.4-1.1-1.2-1.2-1.9v-.4h-5.8v.6c.1 1 .4 2.1.9 2.9.1.2.2.3.2.3s.2.3.5.5c1.9 2 4.9 3.1 8.7 2.9.6 0 1.4-.1 1.8-.1.9-.1 1.9-.4 2.7-.7.3-.1.6-.2.7-.2 0 0 .1 0 .1-.1v-.1c.2 0 1.2-.7 1.6-1.1s.8-.9.9-1c0 0 .1-.1.1 0 0 0 0 0 0-.1 0 0 0-.2.1-.4.5-1 .7-2.6.5-4.1-.1-.4-.1-.8-.1-.8s-.1-.1-.2-.3c-.1-.5-.4-.9-.9-1.4-.2-.3-.4-.5-.4-.5s-.2-.1-.3-.2c-1-.6-2.5-1.2-5.7-2.1s-4-1.2-4.6-1.7c-.3-.3-.4-.6-.4-1 0-1 .7-1.5 2.4-1.7.8-.1 2.3 0 2.4.2 0 0 .1.1.1 0 .2-.1.9.3 1.2.6s.7 1.1.8 1.5v.3h5.3l-.1-.5c0-.3-.1-.7-.1-.8 0-.2-.1-.4-.1-.5s-.1-.4-.2-.7c-.8-2.2-2.7-3.6-5.5-4.2-.7-.1-1.8-.2-2.8-.2z"/></clipPath><clipPath id="e"><path d="m0 44h77v50h-77z"/></clipPath><clipPath id="f"><path d="m30.3 0-16.3 16.7v.1l25 25.2 25-25.4-16.3-16.6-8.7 8.8zm0 7.8 8.7 8.9 8.7-8.8 8.6 8.7-17.3 17.6-17.3-17.6z"/></clipPath><clipPath id="g"><path d="m-599-2499h1920v4619h-1920z"/></clipPath><g clip-path="url(#a)"><g clip-path="url(#b)" enable-background="new"><g clip-path="url(#c)"><g clip-path="url(#d)"><path clip-path="url(#e)" d="m-5 39h86.9v60h-86.9z" fill="#fff"/></g></g></g></g><g clip-path="url(#f)"><path clip-path="url(#g)" d="m9-5h60v52h-60z" fill="#fff"/></g></svg>