<?xml version="1.0" encoding="utf-8"?>
<!-- Generator: Adobe Illustrator 23.0.4, SVG Export Plug-In . SVG Version: 6.00 Build 0)  -->
<svg version="1.1" id="Layer_1" xmlns="http://www.w3.org/2000/svg" xmlns:xlink="http://www.w3.org/1999/xlink" x="0px" y="0px"
	 viewBox="0 0 76.9 94" style="enable-background:new 0 0 76.9 94;" xml:space="preserve">
<style type="text/css">
	.st0{clip-path:url(#SVGID_2_);}
	.st1{clip-path:url(#SVGID_4_);enable-background:new    ;}
	.st2{clip-path:url(#SVGID_6_);}
	.st3{clip-path:url(#SVGID_8_);}
	.st4{clip-path:url(#SVGID_10_);fill:#FFFFFF;}
	.st5{clip-path:url(#SVGID_12_);}
	.st6{clip-path:url(#SVGID_14_);fill:#FFFFFF;}
</style>
<g>
	<g>
		<defs>
			<rect id="SVGID_1_" y="44" width="76.9" height="50"/>
		</defs>
		<clipPath id="SVGID_2_">
			<use xlink:href="#SVGID_1_"  style="overflow:visible;"/>
		</clipPath>
		<g class="st0">
			<defs>
				<rect id="SVGID_3_" x="-599" y="-2499" width="1920" height="4619"/>
			</defs>
			<clipPath id="SVGID_4_">
				<use xlink:href="#SVGID_3_"  style="overflow:visible;"/>
			</clipPath>
			<g class="st1">
				<g>
					<defs>
						<rect id="SVGID_5_" x="0" y="44" width="77" height="51"/>
					</defs>
					<clipPath id="SVGID_6_">
						<use xlink:href="#SVGID_5_"  style="overflow:visible;"/>
					</clipPath>
					<g class="st2">
						<defs>
							<path id="SVGID_7_" d="M73.6,44v6.1l-0.5-0.5c-0.3-0.3-0.5-0.5-0.5-0.6s0,0,0,0c0,0-0.3-0.1-0.5-0.2
								c-0.7-0.4-1.3-0.5-2.2-0.5c-0.9,0-1.4,0.1-2.1,0.5c-1.5,0.7-2.5,2.2-2.9,4.4c-0.2,1.3-0.1,3.3,0.2,4.5c0.6,2,1.9,3.4,3.7,3.9
								c0.6,0.2,2,0.2,2.6,0c0.9-0.2,1.6-0.7,2.1-1.4l0.2-0.3v0.7v0.7h3.3V44H73.6z M5.5,48.2C5.4,48.2,5.4,48.2,5.5,48.2
								c-0.2,0.1-1,0.2-1.5,0.2c-0.1,0-0.2,0-0.2,0c0,0-0.2,0.1-0.5,0.2c-1.8,0.6-2.6,1.7-2.6,3.3c0,0.4,0.1,0.8,0.1,1.1
								c0.1,0.2,0.1,0.5,0.1,0.5c0,0.1,0.4,0.6,0.7,0.9c0.1,0.1,0.2,0.2,0.2,0.2c0,0,0,0.1,0.1,0.1c0.2,0,0.9,0.5,0.9,0.6
								c0,0,0,0,0,0c0,0,0.2,0,0.3,0c0.1,0.1,0.2,0.1,0.2,0.1c0,0,0.3,0.1,0.7,0.2c0.3,0.1,1.1,0.4,1.8,0.5c0.7,0.2,1.3,0.3,1.3,0.3
								s0.2,0.1,0.2,0.1C7.6,56.7,8,57,8.2,57.2c0.2,0.3,0.3,0.6,0.2,0.9c-0.1,0.3-0.5,0.7-0.7,0.7c-0.1,0-0.1,0-0.1,0
								c0.1,0.1-1,0.3-1.7,0.3c-0.6,0-1.1-0.2-1.1-0.3c0,0,0,0-0.1,0c-0.2,0.1-0.7-0.4-0.9-0.8c-0.1-0.2-0.2-0.4-0.2-0.6v-0.2H1.9
								H0.2l0,0.2c0,0.1,0.1,0.4,0.1,0.6c0.1,0.6,0.5,1.4,1.1,2c0.3,0.5,0.6,0.6,1,0.8c0.2,0.1,0.6,0.3,1,0.4c1,0.3,1.5,0.4,3,0.4
								c1.2,0,1.5,0,2.1-0.2c1.6-0.4,2.7-1.4,3.1-2.6c0.2-0.5,0.2-1.7,0.1-2.3c0-0.2-0.1-0.4-0.1-0.4c0,0-0.1-0.2-0.2-0.4
								c-0.4-0.6-1-1.1-2.2-1.5c-0.5-0.2-2.9-0.9-3.3-1C5.6,53.2,5,53,4.6,52.8C4,52.4,3.8,52,4.1,51.5c0.2-0.3,0.6-0.5,1.4-0.6
								c1-0.1,1.8,0.1,2.3,0.5c0.2,0.2,0.5,0.9,0.5,1.1l3.2,0v-0.3c0-0.4-0.1-1-0.3-1.4c-0.5-1.2-1.4-1.9-2.7-2.3
								c-0.6-0.2-2.1-0.3-2.6-0.3C5.5,48.3,5.4,48.3,5.5,48.2C5.5,48.2,5.5,48.2,5.5,48.2z M57.4,48.2c-0.2,0-0.4,0-0.7,0
								c-0.8,0-1.4,0-1.4,0.1c0,0,0,0.1-0.1,0c0,0-0.2,0-0.4,0.1c-2,0.6-3,1.7-3.2,3.7l-0.1,0.5h1.6h1.6l0.1-0.3
								c0.3-1,0.8-1.4,2-1.5c0.9,0,1.6,0.1,1.9,0.6c0.2,0.3,0.3,0.3,0.2,0.8c0,0.5,0,0.5-0.3,0.7c-0.3,0.3-0.8,0.4-2.3,0.7
								c-2.6,0.4-3.7,0.8-4.4,1.7c-0.6,0.7-0.8,1.9-0.8,3c0,0.5,0.1,1.1,0.4,1.5c0.7,1.3,2.5,2,4.7,1.7h0c0.3,0,0.8-0.1,1.1-0.2
								c0.5-0.2,1.5-0.7,1.7-1c0.1-0.1,0.1-0.1,0.2,0.4l0.1,0.5h1.6h1.6l0-4.5c0-4.9,0-5.2-0.4-6.1c-0.5-1.3-1.6-2.1-3.3-2.4
								C58.4,48.2,58,48.2,57.4,48.2z M36,48.3l-0.4,0c-1.4,0-2.3,0.4-3.1,1c-0.3,0.2-0.5,0.4-0.7,0.7l0-1.3h-3.2v12.8H32l0-3.7
								c0-3.6,0-3.7,0.2-4.2c0.3-0.9,1-1.5,2-1.7c0.6-0.2,1.1-0.1,1.8,0V48.3z M20.9,48.3c-0.7,0-1.3,0.2-1.9,0.4
								c-0.3,0.2-0.6,0.4-1,0.7l-0.6,0.5l0-1.3h-3.3l0,19.5l3.3,0l0-4.2c0-4.1,0-4.2,0.1-4c0.1,0.1,0.1,0.2,0.1,0.2c0,0,0,0.1,0,0
								c0,0,0.2,0.1,0.3,0.2c0.3,0.3,1,0.8,1.5,1c0.7,0.3,2.1,0.3,2.8,0.1c0.3-0.1,0.5-0.1,0.6-0.1c0.1,0,0.1,0,0.1-0.1
								c0,0,0-0.1,0.1-0.1c0.6-0.2,1.6-1.1,2-1.8c0.8-1.3,1.1-2.5,1.1-4.3c0-1.4-0.1-2.3-0.6-3.4c-0.1-0.3-0.2-0.6-0.2-0.7
								c0,0,0-0.1-0.1-0.1c0,0-0.1,0-0.1-0.1c0-0.1,0-0.1-0.1-0.1c0,0-0.2-0.2-0.3-0.4C24.2,49,22.5,48.3,20.9,48.3z M43.5,48.3
								c-1.1,0-1.6,0.1-2.4,0.4c-0.3,0.1-0.5,0.2-0.6,0.1c0,0-0.1,0,0,0c0,0-0.1,0.2-0.4,0.3c-1.2,0.7-2.2,2.1-2.5,3.5
								c-0.2,0.9-0.2,1.1-0.2,2.3c0,1.3,0.2,2.1,0.5,3.2c0.1,0.4,0.3,0.8,0.5,1.1c0.2,0.4,1,1.2,1.4,1.5c0.6,0.4,1.4,0.7,2.3,0.9
								c0.7,0.1,2.4,0.1,3,0c1.2-0.2,2.1-0.9,2.9-1.7c0.3-0.3,0.6-0.7,0.8-1.1c0.1-0.3,0.3-0.6,0.4-0.8l0.1-0.4h-3.5l0,0.2
								c0,0.2-0.5,0.8-0.6,0.8c0,0-0.1,0-0.2,0.1c-0.2,0.2-0.9,0.4-1.5,0.3c-1.4-0.1-2.3-1.1-2.6-2.7l-0.1-0.3h8.6v-0.5
								c0-0.7-0.2-2-0.4-2.8c-0.1-0.3-0.1-0.6-0.1-0.6c0,0,0,0,0,0c0,0-0.1,0-0.1-0.1c0-0.1-0.2-0.4-0.3-0.8c-0.3-0.6-0.4-0.8-1-1.3
								C46.4,48.7,45.3,48.3,43.5,48.3z M43.2,51.1c0.3,0,0.7,0,1,0.1c0.8,0.3,1.5,1.2,1.6,2.2l0,0.4h-2.5h-2.5l0.1-0.3
								c0.2-1,0.7-1.8,1.5-2.2C42.6,51.1,42.9,51.1,43.2,51.1z M19.9,51.1c0.1,0,0.2,0,0.3,0c0.7,0,1.1,0.2,1.6,0.7
								c0.4,0.4,0.8,1.1,1,1.9c0.2,0.9,0.1,2.4-0.1,3.1c-0.2,0.6-0.6,1.3-0.8,1.3c-0.1,0-0.2,0.1-0.3,0.2c-0.4,0.3-1.7,0.5-2.4,0.2
								c-0.4-0.1-1-0.6-0.9-0.7c0,0,0-0.1,0,0c-0.2,0.1-0.6-0.8-0.8-1.7c-0.1-0.7-0.1-2.1,0-2.6c0.3-1.1,0.9-1.9,1.7-2.2
								C19.5,51.2,19.7,51.1,19.9,51.1z M70.9,51.2c0.2,0,0.4,0,0.5,0c1.5,0.3,2.2,1.5,2.2,3.8c0,1.2-0.2,2.1-0.8,2.8
								c-0.3,0.3-0.8,0.7-0.9,0.6c-0.1,0-0.1,0,0,0c0.1,0.1-0.3,0.3-0.9,0.3c-0.4,0-0.6,0-0.6-0.1c0,0,0-0.1-0.1,0
								c-0.1,0.1-0.6-0.2-0.6-0.3c0,0,0,0-0.1,0c-0.1,0.1-0.8-0.6-1-1.1c-0.3-0.6-0.5-1.2-0.5-2c-0.1-1.2,0.2-2.5,0.7-3.2
								c0.2-0.3,0.8-0.8,1-0.7c0.1,0,0.1,0,0.1,0C69.8,51.4,70.4,51.2,70.9,51.2z M2.2,55.1C2.2,55.1,2.2,55.1,2.2,55.1
								c0,0.1,0.2,0.1,0.2,0.1C2.4,55.2,2.4,55.2,2.2,55.1C2.3,55.1,2.3,55.1,2.2,55.1C2.3,55.1,2.2,55.1,2.2,55.1z M59,55.2
								c0.1,0,0.1,0.2,0.1,0.9c0,0.8,0,1-0.2,1.3c-0.6,1.2-2.3,2-3.4,1.6c-0.2-0.1-0.3-0.2-0.4-0.2c-0.1-0.1-0.1-0.1-0.1-0.1
								c0,0-0.1-0.1-0.2-0.2c-0.1-0.2-0.2-0.4-0.2-0.8c0-1.1,0.6-1.5,2.7-2c0.5-0.1,1.1-0.3,1.3-0.3c0.1-0.1,0.3-0.1,0.3-0.1
								c0,0,0.1,0,0,0C58.9,55.3,58.9,55.2,59,55.2C59,55.2,59,55.2,59,55.2z M26.7,62.3l-0.3,0.3C25.8,63.2,25,63.7,24,64
								c-0.6,0.2-1.7,0.4-2.2,0.4h-0.5v14.5v14.5l5.4,0l0.1-13.1c0-0.2,0.1-0.5,0.2-0.6c0-0.2,0.1-0.3,0.1-0.3c0,0,0,0,0-0.1
								c-0.1-0.3,1.2-2.1,1.4-2c0.1,0,0.1,0,0,0c-0.1-0.1,0.7-0.5,1.2-0.6c0.6-0.2,2.4-0.1,2.3,0c0,0,0.1,0,0.2,0.1
								c0.4,0,1.3,0.6,1.2,0.8c0,0,0,0.1,0,0c0.1-0.1,0.5,0.8,0.6,1.4l0.2,14.5H40L39.9,78c-0.1-1-0.2-1.5-0.7-2.4
								c-0.3-0.7-0.5-0.9-1.1-1.5c-0.8-0.8-1.4-1.2-2.4-1.5C34,72,31.8,72,30.2,72.6c-1,0.3-1.7,0.8-2.3,1.3
								c-0.2,0.2-0.3,0.2-0.4,0.2c-0.1,0-0.1,0,0,0c0,0-0.1,0.3-0.3,0.5c-0.2,0.2-0.3,0.5-0.4,0.6c0,0.1-0.1-2.8-0.1-6.3L26.7,62.3z
								 M43.2,69.4h5.4v-4.9h-5.4V69.4z M66.5,64.5l0.1,22.8c0.1,0.8,0.1,0.9,0.4,1.6c0.3,0.8,0.6,1.4,1,2.1
								c0.1,0.2,0.2,0.3,0.3,0.4c0.2,0.2,0.3,0.4,0.5,0.5c0.4,0.3,0.8,0.7,1.3,0.9c0.5,0.3,1,0.5,1.5,0.7c0.8,0.3,1.2,0.3,2.6,0.5
								c0.3,0,1.9,0,2.4-0.1l0.4,0l0-4.7l-1.1,0c-1.3,0-1.7,0-2.4-0.4c-0.3-0.2-0.6-0.4-0.8-0.7c0-0.1,0-0.1-0.1-0.2
								c0,0,0-0.1-0.1-0.1c-0.2-0.5-0.4-0.9-0.5-1.5l-0.1-9.9h5v-4.2h-5v-7.6H66.5z M43.2,93.4h5.4V72.1h-5.4V93.4z M52.2,72.1v21.3
								h5.5c0.3-3.7-0.7-11,0.6-13.6c0.3-0.6,1.1-1.4,1.2-1.4c0.1,0,0.1,0,0.1,0c-0.1-0.1,0.7-0.4,1.3-0.6c0.4-0.1,0.8-0.2,1.6-0.2
								c0.6,0,1.2,0,1.3,0l0.3,0.1V75v-2.8l-1.3,0c-0.7,0-1.4,0.1-1.5,0.1c-0.5,0.1-1.4,0.4-1.8,0.7c-0.5,0.3-1.5,1.2-1.9,1.7
								l-0.2,0.3l0-1.5c0-0.8,0-1.5-0.1-1.5H52.2z M9.6,72.2c-0.1,0-0.3,0-0.4,0c-0.7,0-1.4,0-1.8,0.1C4,72.7,2,73.9,1.1,76
								c-0.1,0.3-0.3,1.4-0.4,1.9c0,0.3,0.1,1.1,0.2,1.8c0.4,2.1,2.1,3.5,5.5,4.7c0.5,0.2,0.9,0.3,0.9,0.3c0.1,0,0.1,0.1,0.2,0.1
								c0,0,0.7,0.2,1.5,0.4c2.1,0.5,2.6,0.6,2.6,0.7c0,0,0,0,0.1,0c0.1-0.1,0.6,0.2,0.5,0.3c0,0,0,0,0.1,0c0.2-0.1,0.7,0.4,0.9,0.8
								c0.2,0.5,0.3,1.1,0.1,1.5c-0.2,0.5-0.9,1-1,0.9c-0.1,0-0.1,0,0,0c0,0.1-0.5,0.2-1,0.4c-0.7,0.1-2.9,0.1-2.8,0c0,0,0,0-0.1,0
								c-0.2,0-1-0.3-1.4-0.6c-0.6-0.4-1.1-1.2-1.2-1.9l0-0.4H0l0,0.6c0.1,1,0.4,2.1,0.9,2.9c0.1,0.2,0.2,0.3,0.2,0.3
								c0,0,0.2,0.3,0.5,0.5c1.9,2,4.9,3.1,8.7,2.9c0.6,0,1.4-0.1,1.8-0.1c0.9-0.1,1.9-0.4,2.7-0.7c0.3-0.1,0.6-0.2,0.7-0.2
								c0,0,0.1,0,0.1-0.1c0,0,0-0.1,0-0.1c0.2,0,1.2-0.7,1.6-1.1c0.4-0.4,0.8-0.9,0.9-1c0,0,0.1-0.1,0.1,0c0,0,0,0,0-0.1
								c0,0,0-0.2,0.1-0.4c0.5-1,0.7-2.6,0.5-4.1c-0.1-0.4-0.1-0.8-0.1-0.8c0,0,0,0,0,0c0,0-0.1-0.1-0.2-0.3
								c-0.1-0.5-0.4-0.9-0.9-1.4c-0.2-0.3-0.4-0.5-0.4-0.5c0,0-0.2-0.1-0.3-0.2c-1-0.6-2.5-1.2-5.7-2.1c-3.2-0.9-4-1.2-4.6-1.7
								c-0.3-0.3-0.4-0.6-0.4-1c0-1,0.7-1.5,2.4-1.7c0.8-0.1,2.3,0,2.4,0.2c0,0,0.1,0.1,0.1,0c0.2-0.1,0.9,0.3,1.2,0.6
								c0.3,0.3,0.7,1.1,0.8,1.5l0,0.3h5.3l-0.1-0.5c0-0.3-0.1-0.7-0.1-0.8c0-0.2-0.1-0.4-0.1-0.5c0-0.1-0.1-0.4-0.2-0.7
								c-0.8-2.2-2.7-3.6-5.5-4.2C11.7,72.3,10.6,72.2,9.6,72.2z"/>
						</defs>
						<clipPath id="SVGID_8_">
							<use xlink:href="#SVGID_7_"  style="overflow:visible;"/>
						</clipPath>
						<g class="st3">
							<defs>
								<rect id="SVGID_9_" x="0" y="44" width="77" height="50"/>
							</defs>
							<clipPath id="SVGID_10_">
								<use xlink:href="#SVGID_9_"  style="overflow:visible;"/>
							</clipPath>
							<rect x="-5" y="39" class="st4" width="86.9" height="60"/>
						</g>
					</g>
				</g>
			</g>
		</g>
	</g>
	<g>
		<defs>
			<path id="SVGID_11_" d="M30.3,0L14,16.7l0,0.1L39,42l25-25.4L47.7,0L39,8.8L30.3,0z M30.3,7.8l8.7,8.9l8.7-8.8l8.6,8.7L39,34.2
				L21.7,16.6L30.3,7.8z"/>
		</defs>
		<clipPath id="SVGID_12_">
			<use xlink:href="#SVGID_11_"  style="overflow:visible;"/>
		</clipPath>
		<g class="st5">
			<defs>
				<rect id="SVGID_13_" x="-599" y="-2499" width="1920" height="4619"/>
			</defs>
			<clipPath id="SVGID_14_">
				<use xlink:href="#SVGID_13_"  style="overflow:visible;"/>
			</clipPath>
			<rect x="9" y="-5" class="st6" width="60" height="52"/>
		</g>
	</g>
</g>
</svg>
