<svg enable-background="new 0 0 250 80" viewBox="0 0 250 80" xmlns="http://www.w3.org/2000/svg" xmlns:xlink="http://www.w3.org/1999/xlink"><clipPath id="a"><path d="m103 56c-1.2 0-2.3-.1-3.3-.4s-1.9-.7-2.7-1.4c-.7-.6-1.3-1.5-1.7-2.5s-.6-2.3-.6-3.9v-14.7h-3.7v-5.5h3.6v-7.6h6.6v7.7h7.7v5.5h-7.7v13.7c0 1.2.3 2.1.9 2.7.6.5 1.5.8 2.6.8 1.4 0 2.8-.3 4.1-1v5.2c-.8.5-1.7.8-2.7 1.1-.8.2-1.9.3-3.1.3"/></clipPath><clipPath id="b"><path d="m-1262-2664h1920v4619h-1920z"/></clipPath><clipPath id="c"><path d="m171 51.6 15.9-18.4h-15.3v-5.2h23.4v4.4l-15.9 18.4h15.9v5.2h-24z"/></clipPath><clipPath id="d"><path d="m-1262-2664h1920v4619h-1920z"/></clipPath><clipPath id="e"><path d="m0 0h250v80h-250z"/></clipPath><clipPath id="f"><path d="m-1262-2664h1920v4619h-1920z"/></clipPath><clipPath id="g"><path d="m0 0h250v80h-250z"/></clipPath><clipPath id="h"><path d="m199 28h6v28h-6z"/></clipPath><clipPath id="i"><path d="m0 0h250v80h-250z"/></clipPath><clipPath id="j"><path d="m212 17h6v39h-6z"/></clipPath><clipPath id="k"><path d="m0 0h250v80h-250z"/></clipPath><clipPath id="l"><path d="m229.5 64c-1.4 0-2.6-.2-3.6-.5-1.1-.3-2.1-.7-3.1-1.3l2.2-4.8c.6.3 1.2.6 1.8.8s1.3.3 2 .3c.9 0 1.7-.2 2.3-.7s1.2-1.3 1.7-2.6l-11.8-28.2h6.9l8 21 7.3-21h6.7l-11.2 29.1c-.6 1.5-1.2 2.7-1.8 3.7s-1.3 1.8-2 2.4-1.6 1.1-2.5 1.4c-.8.3-1.8.4-2.9.4"/></clipPath><clipPath id="m"><path d="m0 0h250v80h-250z"/></clipPath><clipPath id="n"><path d="m149.7 34.2c1.3-1.4 2.9-2 4.9-2 1.1 0 2 .2 2.8.6s1.5.9 2.1 1.6c.6.6 1.1 1.4 1.4 2.3.2.6.4 1.3.5 1.9h-14c.5-1.8 1.2-3.2 2.3-4.4m17.5 2c-.6-1.8-1.4-3.4-2.5-4.8s-2.5-2.5-4.2-3.3-3.6-1.2-5.8-1.2c-2 0-3.8.4-5.5 1.1-1.7.8-3.1 1.8-4.3 3.1s-2.2 2.9-2.8 4.6c-.7 1.8-1 3.6-1 5.6v.1c0 2.1.4 4.1 1.1 5.9s1.8 3.3 3 4.6c1.3 1.3 2.8 2.2 4.5 2.9s3.6 1.1 5.6 1.1c2.6 0 4.8-.5 6.6-1.4s3.4-2.2 4.8-3.8l-3.8-3.3c-1.1 1.1-2.3 1.9-3.4 2.5-1.2.6-2.5.8-4.1.8-2.1 0-3.8-.6-5.3-1.8s-2.4-3-2.7-5.2h20.5c0-.3.1-.6.1-.9s0-.6 0-.9c0-2-.3-3.9-.8-5.7"/></clipPath><clipPath id="o"><path d="m0 0h250v80h-250z"/></clipPath><clipPath id="p"><path d="m119.7 34.2c1.3-1.4 2.9-2 4.9-2 1.1 0 2 .2 2.8.6s1.5.9 2.1 1.6c.6.6 1.1 1.4 1.4 2.3.2.6.4 1.3.5 1.9h-14c.5-1.8 1.2-3.2 2.3-4.4m17.5 2c-.6-1.8-1.4-3.4-2.5-4.8s-2.5-2.5-4.2-3.3-3.6-1.2-5.8-1.2c-2 0-3.8.4-5.5 1.1-1.7.8-3.1 1.8-4.3 3.1s-2.2 2.9-2.8 4.6c-.7 1.8-1 3.6-1 5.6v.1c0 2.1.4 4.1 1.1 5.9s1.8 3.3 3 4.6c1.3 1.3 2.8 2.2 4.5 2.9s3.6 1.1 5.6 1.1c2.6 0 4.8-.5 6.6-1.4s3.4-2.2 4.8-3.8l-3.8-3.3c-1.1 1.1-2.3 1.9-3.4 2.5-1.2.6-2.5.8-4.1.8-2.1 0-3.8-.6-5.3-1.8s-2.4-3-2.7-5.2h20.5c0-.3.1-.6.1-.9s0-.6 0-.9c0-2-.3-3.9-.8-5.7"/></clipPath><clipPath id="q"><path d="m0 0h250v80h-250z"/></clipPath><clipPath id="r"><path d="m206 19.5c0 1.9-1.6 3.5-3.5 3.5s-3.5-1.6-3.5-3.5 1.6-3.5 3.5-3.5 3.5 1.6 3.5 3.5"/></clipPath><clipPath id="s"><path d="m0 0h250v80h-250z"/></clipPath><clipPath id="t"><path d="m78.7 38.7h-3.7c-.7-18.3-15.4-33-33.7-33.7v-3.7c0-.7-.6-1.3-1.3-1.3s-1.3.6-1.3 1.3v3.7c-18.3.7-33 15.4-33.7 33.7h-3.7c-.7 0-1.3.6-1.3 1.3s.6 1.3 1.3 1.3h3.7c.7 18.3 15.4 33 33.7 33.7v3.7c0 .7.6 1.3 1.3 1.3s1.3-.6 1.3-1.3v-3.7c18.3-.7 33-15.4 33.7-33.7h3.7c.7 0 1.3-.6 1.3-1.3s-.6-1.3-1.3-1.3zm-40-28.2v5c-12.5.6-22.5 10.7-23.2 23.2h-5c.7-15.2 13-27.5 28.2-28.2zm0 59c-15.2-.7-27.5-12.9-28.2-28.2h5c.7 12.5 10.7 22.5 23.2 23.2zm-8.5-15.2c-.3 0-.5-.2-.5-.5v-16.7l-1.6 1.6c-.2.2-.5.2-.7 0l-4.9-4.9c-.2-.2-.2-.5 0-.7l7.3-7.3c.1-.1.2-.2.4-.2h5c.3 0 .5.2.5.5 0 2.7 2.2 5 4.9 5s5-2.2 5-4.9c0-.3.2-.5.5-.5h5c.2 0 .3.1.4.2l7.3 7.3c.1.1.1.2.1.3s-.1.3-.1.3l-4.9 4.9c-.2.2-.5.2-.7 0l-1.6-1.6v16.7c0 .3-.2.5-.5.5zm11.1 15.2v-5c12.5-.6 22.5-10.7 23.2-23.2h5c-.7 15.2-13 27.5-28.2 28.2zm23.2-30.8c-.6-12.5-10.7-22.6-23.2-23.2v-5c15.3.7 27.5 13 28.2 28.2z"/></clipPath><clipPath id="u"><path d="m0 0h250v80h-250z"/></clipPath><g clip-path="url(#a)"><path clip-path="url(#b)" d="m86 15h28v46h-28z" fill="#fff"/></g><g clip-path="url(#c)"><path clip-path="url(#d)" d="m166 23h34v38h-34z" fill="#fff"/></g><g clip-path="url(#e)"><g clip-path="url(#f)" enable-background="new"><g clip-path="url(#g)"><g clip-path="url(#h)"><path clip-path="url(#i)" d="m194 23h16v38h-16z" fill="#fff"/></g></g><g clip-path="url(#g)"><g clip-path="url(#j)"><path clip-path="url(#k)" d="m207 12h16v49h-16z" fill="#fff"/></g></g><g clip-path="url(#g)"><g clip-path="url(#l)"><path clip-path="url(#m)" d="m216 22h39v47h-39z" fill="#fff"/></g></g><g clip-path="url(#g)"><g clip-path="url(#n)"><path clip-path="url(#o)" d="m136 22h37v39h-37z" fill="#fff"/></g></g><g clip-path="url(#g)"><g clip-path="url(#p)"><path clip-path="url(#q)" d="m106 22h37v39h-37z" fill="#fff"/></g></g><g clip-path="url(#g)"><g clip-path="url(#r)"><path clip-path="url(#s)" d="m194 11h17v17h-17z" fill="#fff"/></g></g><g clip-path="url(#g)"><g clip-path="url(#t)"><path clip-path="url(#u)" d="m-5-5h90v90h-90z" fill="#fff"/></g></g></g></g></svg>