<?xml version="1.0" encoding="utf-8"?>
<!-- Generator: Adobe Illustrator 23.0.4, SVG Export Plug-In . SVG Version: 6.00 Build 0)  -->
<svg version="1.1" id="Layer_1" xmlns="http://www.w3.org/2000/svg" xmlns:xlink="http://www.w3.org/1999/xlink" x="0px" y="0px"
	 viewBox="0 0 250 80" style="enable-background:new 0 0 250 80;" xml:space="preserve">
<style type="text/css">
	.st0{clip-path:url(#SVGID_2_);}
	.st1{clip-path:url(#SVGID_4_);fill:#FFFFFF;}
	.st2{clip-path:url(#SVGID_6_);}
	.st3{clip-path:url(#SVGID_8_);fill:#FFFFFF;}
	.st4{clip-path:url(#SVGID_10_);}
	.st5{clip-path:url(#SVGID_12_);enable-background:new    ;}
	.st6{clip-path:url(#SVGID_14_);}
	.st7{clip-path:url(#SVGID_16_);}
	.st8{clip-path:url(#SVGID_18_);fill:#FFFFFF;}
	.st9{clip-path:url(#SVGID_20_);}
	.st10{clip-path:url(#SVGID_22_);fill:#FFFFFF;}
	.st11{clip-path:url(#SVGID_24_);}
	.st12{clip-path:url(#SVGID_26_);fill:#FFFFFF;}
	.st13{clip-path:url(#SVGID_28_);}
	.st14{clip-path:url(#SVGID_30_);fill:#FFFFFF;}
	.st15{clip-path:url(#SVGID_32_);}
	.st16{clip-path:url(#SVGID_34_);fill:#FFFFFF;}
	.st17{clip-path:url(#SVGID_36_);}
	.st18{clip-path:url(#SVGID_38_);fill:#FFFFFF;}
	.st19{clip-path:url(#SVGID_40_);}
	.st20{clip-path:url(#SVGID_42_);fill:#FFFFFF;}
</style>
<g>
	<defs>
		<path id="SVGID_1_" d="M103,56c-1.2,0-2.3-0.1-3.3-0.4c-1-0.3-1.9-0.7-2.7-1.4c-0.7-0.6-1.3-1.5-1.7-2.5c-0.4-1-0.6-2.3-0.6-3.9
			V33.1H91v-5.5h3.6V20h6.6v7.7h7.7v5.5h-7.7v13.7c0,1.2,0.3,2.1,0.9,2.7c0.6,0.5,1.5,0.8,2.6,0.8c1.4,0,2.8-0.3,4.1-1v5.2
			c-0.8,0.5-1.7,0.8-2.7,1.1C105.3,55.9,104.2,56,103,56"/>
	</defs>
	<clipPath id="SVGID_2_">
		<use xlink:href="#SVGID_1_"  style="overflow:visible;"/>
	</clipPath>
	<g class="st0">
		<defs>
			<rect id="SVGID_3_" x="-1262" y="-2664" width="1920" height="4619"/>
		</defs>
		<clipPath id="SVGID_4_">
			<use xlink:href="#SVGID_3_"  style="overflow:visible;"/>
		</clipPath>
		<rect x="86" y="15" class="st1" width="28" height="46"/>
	</g>
</g>
<g>
	<defs>
		<polygon id="SVGID_5_" points="171,51.6 186.9,33.2 171.6,33.2 171.6,28 195,28 195,32.4 179.1,50.8 195,50.8 195,56 171,56 		"/>
	</defs>
	<clipPath id="SVGID_6_">
		<use xlink:href="#SVGID_5_"  style="overflow:visible;"/>
	</clipPath>
	<g class="st2">
		<defs>
			<rect id="SVGID_7_" x="-1262" y="-2664" width="1920" height="4619"/>
		</defs>
		<clipPath id="SVGID_8_">
			<use xlink:href="#SVGID_7_"  style="overflow:visible;"/>
		</clipPath>
		<rect x="166" y="23" class="st3" width="34" height="38"/>
	</g>
</g>
<g>
	<defs>
		<rect id="SVGID_9_" width="250" height="80"/>
	</defs>
	<clipPath id="SVGID_10_">
		<use xlink:href="#SVGID_9_"  style="overflow:visible;"/>
	</clipPath>
	<g class="st4">
		<defs>
			<rect id="SVGID_11_" x="-1262" y="-2664" width="1920" height="4619"/>
		</defs>
		<clipPath id="SVGID_12_">
			<use xlink:href="#SVGID_11_"  style="overflow:visible;"/>
		</clipPath>
		<g class="st5">
			<g>
				<defs>
					<rect id="SVGID_13_" width="250" height="80"/>
				</defs>
				<clipPath id="SVGID_14_">
					<use xlink:href="#SVGID_13_"  style="overflow:visible;"/>
				</clipPath>
				<g class="st6">
					<defs>
						<rect id="SVGID_15_" x="199" y="28" width="6" height="28"/>
					</defs>
					<clipPath id="SVGID_16_">
						<use xlink:href="#SVGID_15_"  style="overflow:visible;"/>
					</clipPath>
					<g class="st7">
						<defs>
							<rect id="SVGID_17_" width="250" height="80"/>
						</defs>
						<clipPath id="SVGID_18_">
							<use xlink:href="#SVGID_17_"  style="overflow:visible;"/>
						</clipPath>
						<rect x="194" y="23" class="st8" width="16" height="38"/>
					</g>
				</g>
				<g class="st6">
					<defs>
						<rect id="SVGID_19_" x="212" y="17" width="6" height="39"/>
					</defs>
					<clipPath id="SVGID_20_">
						<use xlink:href="#SVGID_19_"  style="overflow:visible;"/>
					</clipPath>
					<g class="st9">
						<defs>
							<rect id="SVGID_21_" width="250" height="80"/>
						</defs>
						<clipPath id="SVGID_22_">
							<use xlink:href="#SVGID_21_"  style="overflow:visible;"/>
						</clipPath>
						<rect x="207" y="12" class="st10" width="16" height="49"/>
					</g>
				</g>
				<g class="st6">
					<defs>
						<path id="SVGID_23_" d="M229.5,64c-1.4,0-2.6-0.2-3.6-0.5c-1.1-0.3-2.1-0.7-3.1-1.3l2.2-4.8c0.6,0.3,1.2,0.6,1.8,0.8
							c0.6,0.2,1.3,0.3,2,0.3c0.9,0,1.7-0.2,2.3-0.7c0.6-0.5,1.2-1.3,1.7-2.6L221,27h6.9l8,21l7.3-21h6.7l-11.2,29.1
							c-0.6,1.5-1.2,2.7-1.8,3.7c-0.6,1-1.3,1.8-2,2.4c-0.7,0.6-1.6,1.1-2.5,1.4C231.6,63.9,230.6,64,229.5,64"/>
					</defs>
					<clipPath id="SVGID_24_">
						<use xlink:href="#SVGID_23_"  style="overflow:visible;"/>
					</clipPath>
					<g class="st11">
						<defs>
							<rect id="SVGID_25_" width="250" height="80"/>
						</defs>
						<clipPath id="SVGID_26_">
							<use xlink:href="#SVGID_25_"  style="overflow:visible;"/>
						</clipPath>
						<rect x="216" y="22" class="st12" width="39" height="47"/>
					</g>
				</g>
				<g class="st6">
					<defs>
						<path id="SVGID_27_" d="M149.7,34.2c1.3-1.4,2.9-2,4.9-2c1.1,0,2,0.2,2.8,0.6c0.8,0.4,1.5,0.9,2.1,1.6
							c0.6,0.6,1.1,1.4,1.4,2.3c0.2,0.6,0.4,1.3,0.5,1.9h-14C147.9,36.8,148.6,35.4,149.7,34.2 M167.2,36.2
							c-0.6-1.8-1.4-3.4-2.5-4.8c-1.1-1.4-2.5-2.5-4.2-3.3c-1.7-0.8-3.6-1.2-5.8-1.2c-2,0-3.8,0.4-5.5,1.1c-1.7,0.8-3.1,1.8-4.3,3.1
							c-1.2,1.3-2.2,2.9-2.8,4.6c-0.7,1.8-1,3.6-1,5.6v0.1c0,2.1,0.4,4.1,1.1,5.9c0.7,1.8,1.8,3.3,3,4.6c1.3,1.3,2.8,2.2,4.5,2.9
							c1.7,0.7,3.6,1.1,5.6,1.1c2.6,0,4.8-0.5,6.6-1.4c1.8-0.9,3.4-2.2,4.8-3.8l-3.8-3.3c-1.1,1.1-2.3,1.9-3.4,2.5
							c-1.2,0.6-2.5,0.8-4.1,0.8c-2.1,0-3.8-0.6-5.3-1.8c-1.5-1.2-2.4-3-2.7-5.2h20.5c0-0.3,0.1-0.6,0.1-0.9c0-0.3,0-0.6,0-0.9
							C168,39.9,167.7,38,167.2,36.2"/>
					</defs>
					<clipPath id="SVGID_28_">
						<use xlink:href="#SVGID_27_"  style="overflow:visible;"/>
					</clipPath>
					<g class="st13">
						<defs>
							<rect id="SVGID_29_" width="250" height="80"/>
						</defs>
						<clipPath id="SVGID_30_">
							<use xlink:href="#SVGID_29_"  style="overflow:visible;"/>
						</clipPath>
						<rect x="136" y="22" class="st14" width="37" height="39"/>
					</g>
				</g>
				<g class="st6">
					<defs>
						<path id="SVGID_31_" d="M119.7,34.2c1.3-1.4,2.9-2,4.9-2c1.1,0,2,0.2,2.8,0.6c0.8,0.4,1.5,0.9,2.1,1.6
							c0.6,0.6,1.1,1.4,1.4,2.3c0.2,0.6,0.4,1.3,0.5,1.9h-14C117.9,36.8,118.6,35.4,119.7,34.2 M137.2,36.2
							c-0.6-1.8-1.4-3.4-2.5-4.8c-1.1-1.4-2.5-2.5-4.2-3.3c-1.7-0.8-3.6-1.2-5.8-1.2c-2,0-3.8,0.4-5.5,1.1c-1.7,0.8-3.1,1.8-4.3,3.1
							c-1.2,1.3-2.2,2.9-2.8,4.6c-0.7,1.8-1,3.6-1,5.6v0.1c0,2.1,0.4,4.1,1.1,5.9c0.7,1.8,1.8,3.3,3,4.6c1.3,1.3,2.8,2.2,4.5,2.9
							c1.7,0.7,3.6,1.1,5.6,1.1c2.6,0,4.8-0.5,6.6-1.4c1.8-0.9,3.4-2.2,4.8-3.8l-3.8-3.3c-1.1,1.1-2.3,1.9-3.4,2.5
							c-1.2,0.6-2.5,0.8-4.1,0.8c-2.1,0-3.8-0.6-5.3-1.8c-1.5-1.2-2.4-3-2.7-5.2h20.5c0-0.3,0.1-0.6,0.1-0.9c0-0.3,0-0.6,0-0.9
							C138,39.9,137.7,38,137.2,36.2"/>
					</defs>
					<clipPath id="SVGID_32_">
						<use xlink:href="#SVGID_31_"  style="overflow:visible;"/>
					</clipPath>
					<g class="st15">
						<defs>
							<rect id="SVGID_33_" width="250" height="80"/>
						</defs>
						<clipPath id="SVGID_34_">
							<use xlink:href="#SVGID_33_"  style="overflow:visible;"/>
						</clipPath>
						<rect x="106" y="22" class="st16" width="37" height="39"/>
					</g>
				</g>
				<g class="st6">
					<defs>
						<path id="SVGID_35_" d="M206,19.5c0,1.9-1.6,3.5-3.5,3.5c-1.9,0-3.5-1.6-3.5-3.5s1.6-3.5,3.5-3.5C204.4,16,206,17.6,206,19.5"
							/>
					</defs>
					<clipPath id="SVGID_36_">
						<use xlink:href="#SVGID_35_"  style="overflow:visible;"/>
					</clipPath>
					<g class="st17">
						<defs>
							<rect id="SVGID_37_" width="250" height="80"/>
						</defs>
						<clipPath id="SVGID_38_">
							<use xlink:href="#SVGID_37_"  style="overflow:visible;"/>
						</clipPath>
						<rect x="194" y="11" class="st18" width="17" height="17"/>
					</g>
				</g>
				<g class="st6">
					<defs>
						<path id="SVGID_39_" d="M78.7,38.7L78.7,38.7H75C74.3,20.4,59.6,5.7,41.3,5V1.3C41.3,0.6,40.7,0,40,0c-0.7,0-1.3,0.6-1.3,1.3
							V5C20.4,5.7,5.7,20.4,5,38.7H1.3C0.6,38.7,0,39.3,0,40c0,0.7,0.6,1.3,1.3,1.3H5c0.7,18.3,15.4,33,33.7,33.7v3.7
							c0,0.7,0.6,1.3,1.3,1.3c0.7,0,1.3-0.6,1.3-1.3V75c18.3-0.7,33-15.4,33.7-33.7h3.7c0.7,0,1.3-0.6,1.3-1.3
							C80,39.3,79.4,38.7,78.7,38.7z M38.7,10.5v5c-12.5,0.6-22.5,10.7-23.2,23.2h-5C11.2,23.5,23.5,11.2,38.7,10.5z M38.7,69.5
							c-15.2-0.7-27.5-12.9-28.2-28.2h5c0.7,12.5,10.7,22.5,23.2,23.2V69.5z M30.2,54.3c-0.3,0-0.5-0.2-0.5-0.5l0-16.7l-1.6,1.6
							c-0.2,0.2-0.5,0.2-0.7,0l-4.9-4.9c-0.2-0.2-0.2-0.5,0-0.7l7.3-7.3c0.1-0.1,0.2-0.2,0.4-0.2l5,0c0.3,0,0.5,0.2,0.5,0.5
							c0,2.7,2.2,5,4.9,5c2.7,0,5-2.2,5-4.9c0-0.3,0.2-0.5,0.5-0.5l5,0c0.2,0,0.3,0.1,0.4,0.2l7.3,7.3c0.1,0.1,0.1,0.2,0.1,0.3
							c0,0.1-0.1,0.3-0.1,0.3l-4.9,4.9c-0.2,0.2-0.5,0.2-0.7,0l-1.6-1.6l0,16.7c0,0.3-0.2,0.5-0.5,0.5L30.2,54.3z M41.3,69.5v-5
							c12.5-0.6,22.5-10.7,23.2-23.2h5C68.8,56.5,56.5,68.8,41.3,69.5z M64.5,38.7c-0.6-12.5-10.7-22.6-23.2-23.2v-5
							c15.3,0.7,27.5,13,28.2,28.2H64.5z"/>
					</defs>
					<clipPath id="SVGID_40_">
						<use xlink:href="#SVGID_39_"  style="overflow:visible;"/>
					</clipPath>
					<g class="st19">
						<defs>
							<rect id="SVGID_41_" width="250" height="80"/>
						</defs>
						<clipPath id="SVGID_42_">
							<use xlink:href="#SVGID_41_"  style="overflow:visible;"/>
						</clipPath>
						<rect x="-5" y="-5" class="st20" width="90" height="90"/>
					</g>
				</g>
			</g>
		</g>
	</g>
</g>
</svg>
