<?xml version="1.0" encoding="utf-8"?>
<!-- Generator: Adobe Illustrator 23.0.4, SVG Export Plug-In . SVG Version: 6.00 Build 0)  -->
<svg version="1.1" id="Layer_1" xmlns="http://www.w3.org/2000/svg" xmlns:xlink="http://www.w3.org/1999/xlink" x="0px" y="0px"
	 viewBox="0 0 289.3 90.4" style="enable-background:new 0 0 289.3 90.4;" xml:space="preserve">
<style type="text/css">
	.st0{fill:#98ABB6;}
</style>
<g id="oQ0FWF.tif">
	<g>
		<g>
			<path class="st0" d="M12.1,40.6c0.5-2.6,1-5.2,1.5-7.7c0.2-0.9,0.5-1.9,0.7-2.6c2.3,1.9,4.3,4.2,6.9,5.7c2.5,1.4,5.4,2.1,8.3,3.1
				c-5,9.5-3.6,19.3,0.6,29.6c1-1.1,1.8-2.1,2.6-3c3.2-3.7,6.2-7.7,9.7-11.1c4.9-4.7,9.5-4.6,14.4,0c3.5,3.4,6.5,7.4,9.7,11.1
				c0.8,0.9,1.4,1.8,2.4,3c4.3-10.3,5.7-20,0.4-30.1c6.3-0.6,11.4-3.3,15.3-9.2c0.7,3.8,1.5,6.9,1.7,10.1
				c1.1,14.3-2.5,27.3-11.1,38.8c-4.7,6.3-9.8,6.1-14.5-0.3c-1.4-1.9-2.6-4.1-3.8-6.2c-0.8-1.2-1.5-2.6-2.3-3.8
				c-3.1-4.3-7.2-4.3-10.3,0c-1.6,2.3-2.9,5-4.5,7.3c-1.4,2-3,4.1-4.8,5.7c-3.2,2.6-6.1,2.3-9.1-0.5c-3.5-3.3-5.8-7.4-7.8-11.7
				c-2.8-6.2-4.8-12.6-5.5-19.5c0-0.5-0.3-1-0.4-1.5C12.1,45.6,12.1,43.1,12.1,40.6z"/>
			<path class="st0" d="M277.3,69.3c-2.6,1.6-5.4,0.8-8.1,0.6c-0.5,0-0.9-1.3-1.5-2.1c-3.1,2.3-6.5,3.4-10.5,2.6
				c-4.1-0.8-6.3-3.4-6.5-7.5c-0.4-7.4,2.8-10.7,10.2-10.8c2.1,0,4.2,0,6.3,0c1.1-3.9,0-5.3-3.8-5.4c-2.7,0-5.3,0-8,0
				c-1.8,0-2.6-0.8-2.5-2.5c0-0.9-0.2-1.9,0.1-2.6c0.3-0.7,1.1-1.7,1.8-1.7c4.1-0.1,8.2-0.1,12.3,0.1c4.6,0.3,8.4,2.1,10,6.9
				C277.3,54.3,277.3,61.8,277.3,69.3z M268.1,58.4c-2.7,0-4.5-0.1-6.3,0.1c-0.6,0.1-1.5,1-1.6,1.6c-0.1,0.9,0.6,2.7,0.8,2.6
				c1.9-0.2,3.8-0.5,5.6-1.2C267.2,61.2,267.5,59.8,268.1,58.4z"/>
			<path class="st0" d="M128.7,50.8c-1.7,5.8-3.4,11.4-5,17.1c-0.5,1.6-1.4,2.2-3.1,2.2c-8.5-0.2-6.8,1.3-8.8-6.6
				c-2.7-10.5-5.3-21-7.9-31.5c-0.6-2.3-0.4-2.6,2-2.6c1.6,0,3.2,0.1,4.9,0c1.9-0.1,2.7,0.8,3.1,2.4c1.6,6.8,3.3,13.6,5,20.8
				c1.3-4.1,2.5-7.9,3.7-11.7c2.6-8,0.7-6.4,9.1-6.6c1.6,0,2.4,0.7,2.8,2.2c1.6,5.3,3.2,10.7,4.8,16.2c0.1-0.2,0.4-0.3,0.4-0.5
				c1.6-6.6,3.2-13.1,4.6-19.8c0.5-2.1,1.4-3.1,3.8-3c6.1,0.1,6.1,0,4.6,6c-2.7,10.7-5.4,21.3-8,31.9c-0.5,2.1-1.5,2.9-3.7,2.9
				c-7.7-0.2-6.2,1-8.4-6.3C131.3,59.5,130,55.2,128.7,50.8z"/>
			<path class="st0" d="M237.3,42.4c0-2,1.3-2.4,3.2-2.3c1.3,0.1,2.7,0,4,0c1.5,0,2.2,0.7,2.2,2.1c0,10.3,0.1,20.6,0,30.9
				c0,3.8-2.5,7-6.7,7.7c-5.1,0.8-10.4,1.2-15.6,0.9c-3.2-0.2-1.3-3.6-1.6-5.5c-0.3-1.4,0.7-2.1,2.1-2.1c2.6,0,5.2,0,7.7,0
				c4,0,4.6-0.5,4.5-4.6c0-0.5,0-1,0-1.1c-3.1,0.7-6.1,1.8-9.2,2c-5.3,0.3-8.4-2.7-8.7-8.1c-0.2-4.8-0.3-9.6-0.1-14.4
				c0.2-6.2,4.8-9.5,11.2-8.1C232.6,40.4,234.8,41.5,237.3,42.4z M228.7,55.1c0,1.5,0,3,0,4.4c0,2.4,0.8,3.2,3.1,2.7
				c1.5-0.3,3-1.1,4.4-1.9c0.4-0.2,0.7-0.9,0.8-1.4c0.1-2.5,0-5,0-7.5c0-0.4-0.2-1.2-0.5-1.3c-1.8-0.8-3.6-1.6-5.4-2.1
				c-1.5-0.4-2.3,0.6-2.3,2.2C228.7,51.9,228.7,53.5,228.7,55.1z"/>
			<path class="st0" d="M214.4,55.2c0,1.7,0,3.4,0,5.1c0,4.9-1.9,7.6-6.5,9.2c-5,1.6-10.2,1.6-15.2-0.2c-4.1-1.5-5.9-4.2-5.9-8.6
				c0-3.8,0-7.5,0-11.3c0-4.2,2.1-7.1,6.1-8.5c4.8-1.6,9.7-1.6,14.5-0.3c4.6,1.3,6.8,4.2,6.9,9.1C214.4,51.5,214.4,53.3,214.4,55.2z
				 M204.7,55.1L204.7,55.1c0-1.7,0.1-3.4,0-5c-0.1-2-1.4-2.8-4.2-2.8s-4,0.8-4.1,2.9c-0.1,3.3-0.1,6.6,0,9.9c0,2.2,1.3,3.1,4.2,3.1
				c2.8,0,4-0.9,4.1-3.1C204.8,58.3,204.7,56.7,204.7,55.1z"/>
			<path class="st0" d="M154.5,55.1c0-1.9,0-3.8,0-5.7c0-4.2,1.9-7.1,5.8-8.4c5.2-1.9,10.5-1.9,15.8,0c3.5,1.3,5.8,3.8,5.9,7.7
				c0.1,4.3,0.1,8.7,0,13c0,3.2-1.7,5.7-4.6,7c-5.8,2.6-11.7,2.6-17.5,0.3c-3.7-1.4-5.4-4.3-5.3-8.3C154.5,58.8,154.5,57,154.5,55.1
				z M164.2,55.1c0,1.6,0,3.2,0,4.8c0,2.3,1.2,3.2,4,3.2c3,0,4.2-0.9,4.2-3.2c0-2.7,0-5.3,0-7.9c0-4.1-2.1-5.7-6-4.6
				c-1.4,0.4-2.3,1.2-2.3,2.8C164.2,51.8,164.2,53.4,164.2,55.1z"/>
			<path class="st0" d="M41.7,19.7c0,6.5-5.3,11.6-11.9,11.6c-6.7,0-11.8-5.2-11.8-12C18,13,23.7,7.4,30,7.6
				C36.6,7.7,41.8,13.1,41.7,19.7z"/>
			<path class="st0" d="M68.9,31.3C62,31.3,57,26.1,57,19.2c0-6.3,5.4-11.6,11.8-11.6c6.5,0,11.8,5.3,11.9,12
				C80.7,26.1,75.5,31.3,68.9,31.3z"/>
		</g>
	</g>
</g>
</svg>
