<svg enable-background="new 0 0 289.3 90.4" viewBox="0 0 289.3 90.4" xmlns="http://www.w3.org/2000/svg"><g fill="#98abb6"><path d="m12.1 40.6c.5-2.6 1-5.2 1.5-7.7.2-.9.5-1.9.7-2.6 2.3 1.9 4.3 4.2 6.9 5.7 2.5 1.4 5.4 2.1 8.3 3.1-5 9.5-3.6 19.3.6 29.6 1-1.1 1.8-2.1 2.6-3 3.2-3.7 6.2-7.7 9.7-11.1 4.9-4.7 9.5-4.6 14.4 0 3.5 3.4 6.5 7.4 9.7 11.1.8.9 1.4 1.8 2.4 3 4.3-10.3 5.7-20 .4-30.1 6.3-.6 11.4-3.3 15.3-9.2.7 3.8 1.5 6.9 1.7 10.1 1.1 14.3-2.5 27.3-11.1 38.8-4.7 6.3-9.8 6.1-14.5-.3-1.4-1.9-2.6-4.1-3.8-6.2-.8-1.2-1.5-2.6-2.3-3.8-3.1-4.3-7.2-4.3-10.3 0-1.6 2.3-2.9 5-4.5 7.3-1.4 2-3 4.1-4.8 5.7-3.2 2.6-6.1 2.3-9.1-.5-3.5-3.3-5.8-7.4-7.8-11.7-2.8-6.2-4.8-12.6-5.5-19.5 0-.5-.3-1-.4-1.5-.1-2.2-.1-4.7-.1-7.2z"/><path d="m277.3 69.3c-2.6 1.6-5.4.8-8.1.6-.5 0-.9-1.3-1.5-2.1-3.1 2.3-6.5 3.4-10.5 2.6-4.1-.8-6.3-3.4-6.5-7.5-.4-7.4 2.8-10.7 10.2-10.8h6.3c1.1-3.9 0-5.3-3.8-5.4-2.7 0-5.3 0-8 0-1.8 0-2.6-.8-2.5-2.5 0-.9-.2-1.9.1-2.6s1.1-1.7 1.8-1.7c4.1-.1 8.2-.1 12.3.1 4.6.3 8.4 2.1 10 6.9.2 7.4.2 14.9.2 22.4zm-9.2-10.9c-2.7 0-4.5-.1-6.3.1-.6.1-1.5 1-1.6 1.6-.1.9.6 2.7.8 2.6 1.9-.2 3.8-.5 5.6-1.2.6-.3.9-1.7 1.5-3.1z"/><path d="m128.7 50.8c-1.7 5.8-3.4 11.4-5 17.1-.5 1.6-1.4 2.2-3.1 2.2-8.5-.2-6.8 1.3-8.8-6.6-2.7-10.5-5.3-21-7.9-31.5-.6-2.3-.4-2.6 2-2.6 1.6 0 3.2.1 4.9 0 1.9-.1 2.7.8 3.1 2.4 1.6 6.8 3.3 13.6 5 20.8 1.3-4.1 2.5-7.9 3.7-11.7 2.6-8 .7-6.4 9.1-6.6 1.6 0 2.4.7 2.8 2.2 1.6 5.3 3.2 10.7 4.8 16.2.1-.2.4-.3.4-.5 1.6-6.6 3.2-13.1 4.6-19.8.5-2.1 1.4-3.1 3.8-3 6.1.1 6.1 0 4.6 6-2.7 10.7-5.4 21.3-8 31.9-.5 2.1-1.5 2.9-3.7 2.9-7.7-.2-6.2 1-8.4-6.3-1.3-4.4-2.6-8.7-3.9-13.1z"/><path d="m237.3 42.4c0-2 1.3-2.4 3.2-2.3 1.3.1 2.7 0 4 0 1.5 0 2.2.7 2.2 2.1 0 10.3.1 20.6 0 30.9 0 3.8-2.5 7-6.7 7.7-5.1.8-10.4 1.2-15.6.9-3.2-.2-1.3-3.6-1.6-5.5-.3-1.4.7-2.1 2.1-2.1h7.7c4 0 4.6-.5 4.5-4.6 0-.5 0-1 0-1.1-3.1.7-6.1 1.8-9.2 2-5.3.3-8.4-2.7-8.7-8.1-.2-4.8-.3-9.6-.1-14.4.2-6.2 4.8-9.5 11.2-8.1 2.3.6 4.5 1.7 7 2.6zm-8.6 12.7v4.4c0 2.4.8 3.2 3.1 2.7 1.5-.3 3-1.1 4.4-1.9.4-.2.7-.9.8-1.4.1-2.5 0-5 0-7.5 0-.4-.2-1.2-.5-1.3-1.8-.8-3.6-1.6-5.4-2.1-1.5-.4-2.3.6-2.3 2.2-.1 1.7-.1 3.3-.1 4.9z"/><path d="m214.4 55.2v5.1c0 4.9-1.9 7.6-6.5 9.2-5 1.6-10.2 1.6-15.2-.2-4.1-1.5-5.9-4.2-5.9-8.6 0-3.8 0-7.5 0-11.3 0-4.2 2.1-7.1 6.1-8.5 4.8-1.6 9.7-1.6 14.5-.3 4.6 1.3 6.8 4.2 6.9 9.1.1 1.8.1 3.6.1 5.5zm-9.7-.1c0-1.7.1-3.4 0-5-.1-2-1.4-2.8-4.2-2.8s-4 .8-4.1 2.9c-.1 3.3-.1 6.6 0 9.9 0 2.2 1.3 3.1 4.2 3.1 2.8 0 4-.9 4.1-3.1.1-1.8 0-3.4 0-5z"/><path d="m154.5 55.1c0-1.9 0-3.8 0-5.7 0-4.2 1.9-7.1 5.8-8.4 5.2-1.9 10.5-1.9 15.8 0 3.5 1.3 5.8 3.8 5.9 7.7.1 4.3.1 8.7 0 13 0 3.2-1.7 5.7-4.6 7-5.8 2.6-11.7 2.6-17.5.3-3.7-1.4-5.4-4.3-5.3-8.3-.1-1.9-.1-3.7-.1-5.6zm9.7 0v4.8c0 2.3 1.2 3.2 4 3.2 3 0 4.2-.9 4.2-3.2 0-2.7 0-5.3 0-7.9 0-4.1-2.1-5.7-6-4.6-1.4.4-2.3 1.2-2.3 2.8.1 1.6.1 3.2.1 4.9z"/><path d="m41.7 19.7c0 6.5-5.3 11.6-11.9 11.6-6.7 0-11.8-5.2-11.8-12 0-6.3 5.7-11.9 12-11.7 6.6.1 11.8 5.5 11.7 12.1z"/><path d="m68.9 31.3c-6.9 0-11.9-5.2-11.9-12.1 0-6.3 5.4-11.6 11.8-11.6 6.5 0 11.8 5.3 11.9 12 0 6.5-5.2 11.7-11.8 11.7z"/></g></svg>