<?xml version="1.0" encoding="utf-8"?>
<!-- Generator: Adobe Illustrator 23.0.4, SVG Export Plug-In . SVG Version: 6.00 Build 0)  -->
<svg version="1.1" id="Layer_1" xmlns="http://www.w3.org/2000/svg" xmlns:xlink="http://www.w3.org/1999/xlink" x="0px" y="0px"
	 viewBox="0 0 336.9 90.4" style="enable-background:new 0 0 336.9 90.4;" xml:space="preserve">
<style type="text/css">
	.st0{fill:#FFFFFF;}
</style>
<g>
	<path class="st0" d="M103.3,64.2H81.2l22.9-26.6c0.5-0.6,0.7-1.1,0.7-1.8v-3.6c0-1-0.7-1.7-1.7-1.7h-29c-1,0-1.7,0.7-1.7,1.7v2.5
		c0,1,0.7,1.7,1.7,1.7h22.4L73.7,62.9c-0.5,0.7-0.8,1-0.8,1.9v3.5c0,1,0.7,1.7,1.7,1.7h28.7c1,0,1.7-0.7,1.7-1.7v-2.5
		C105,64.9,104.2,64.2,103.3,64.2z"/>
	<path class="st0" d="M139.5,31.6c-2.4-1.3-6-2-10.9-2c-6.8,0-13.1,1.4-15.4,2.3c-0.5,0.2-1.1,0.6-1.1,1.4l0,0.2l0.7,3.4l0,0.1
		c0.2,0.7,0.8,1,1.3,1h0c0.2,0,0.3,0,0.4-0.1l1.1-0.3c2.9-0.7,7.4-1.9,12.4-1.9c3,0,5,0.3,6.4,0.8c2.2,0.8,2.2,2.3,2.2,4.6v3.5
		c-0.3,0-0.7,0-1.3,0c-2.4,0-7.2,0.1-11.9,0.9c-7.2,1.1-13.1,2.8-13.1,12.7c0,12.6,11.7,12.6,17.3,12.6h0c3.8,0,7.3-0.6,9.6-1
		c5.2-1.2,6.6-2.9,6.5-8.1V40.9C143.6,37.7,143.7,33.8,139.5,31.6z M136.7,63.9c-2.8,0.9-5.8,1.4-9.1,1.4v0.3l0-0.3
		c-5.2,0-10.2-0.6-10.2-7.2c0-5.2,2.8-5.9,6.4-6.6l0.2-0.1c3.1-0.7,11-0.8,12.7-0.8L136.7,63.9z"/>
	<path class="st0" d="M163.6,65.9c-0.1-0.7-0.6-1-1-1c0,0-0.1,0-0.1,0c0,0-0.5,0-1,0h0c-1.5,0-2.7-0.3-2.7-2.4V17.7
		c0-0.7-0.5-1.5-1.3-1.5l-0.3,0l-4,1c-0.7,0.1-1.4,0.6-1.4,1.5v44c0,5.2,2.8,8.1,7.9,8.1h0h0c2.1,0,3.6-0.4,4.2-1.1
		c0.2-0.2,0.3-0.5,0.3-0.8C164.2,68.6,164.2,68.6,163.6,65.9L163.6,65.9z"/>
	<path class="st0" d="M197.9,31.6c-2.4-1.3-6-2-10.9-2c-6.8,0-13.1,1.4-15.4,2.3c-0.5,0.2-1.1,0.6-1.1,1.4l0,0.2l0.7,3.4l0,0.1
		c0.2,0.7,0.8,1,1.3,1h0c0.2,0,0.3,0,0.4-0.1l1.1-0.3c2.9-0.7,7.4-1.9,12.4-1.9c3,0,5,0.3,6.4,0.8c2.2,0.8,2.2,2.3,2.2,4.6v3.5
		c-0.3,0-0.7,0-1.3,0c-2.4,0-7.2,0.1-11.9,0.9c-7.2,1.1-13.1,2.8-13.1,12.7c0,12.6,11.7,12.6,17.3,12.6h0c3.8,0,7.3-0.6,9.6-1
		c5.2-1.2,6.6-2.9,6.5-8.1V40.9C202,37.7,202,33.8,197.9,31.6z M195,63.9c-2.8,0.9-5.8,1.4-9.1,1.4v0.3l0-0.3
		c-5.2,0-10.2-0.6-10.2-7.2c0-5.2,2.8-5.9,6.4-6.6l0.2-0.1c3.1-0.7,11-0.8,12.7-0.8L195,63.9z"/>
	<path class="st0" d="M307.6,29.6c-16.2,0-17.6,10.7-17.6,20.7c0,10,1.4,20.6,17.6,20.6h0c16.2,0,17.6-10.6,17.6-20.6
		C325.2,39.9,323.9,29.7,307.6,29.6z M307.6,65.1c-9.9,0-10.3-5.1-10.4-14.8c0.1-9.7,0.6-14.8,10.4-14.9c9.9,0,10.4,5.1,10.4,14.9
		C318,60,317.5,65.1,307.6,65.1z"/>
	<path class="st0" d="M283.5,17.7c0-0.7-0.3-1.5-1.2-1.5H282l-4,1c-1.3,0.2-1.5,0.9-1.5,1.5l0,12.1c-2.2-0.5-5.3-1.1-9.8-1.1
		c-12.8,0-17.5,5.6-17.6,20.6c0,13.1,3,20.7,18,20.7h0c5.5,0,8.6-0.8,10.8-1.4l0.4-0.1c4.8-1,5.1-3.5,5.1-6.3V17.7z M276.6,64
		c-1.3,0.4-4.9,1.2-9.2,1.2v0.3l0-0.3c-6.8-0.1-11-0.8-11.1-14.9c0.1-12.8,3.3-14.9,11-14.9c4.2,0,7.9,0.8,9.2,1.2L276.6,64z"/>
	<path class="st0" d="M229.2,29.6c-4.8,0-12.1,1.1-15.9,2.4c-4,1.3-4.2,3.2-4.2,6v30.2c0,1,0.7,1.7,1.7,1.7h3.6
		c0.9,0,1.6-0.7,1.6-1.7v-31c1.9-0.5,7.5-1.9,13-1.9c4.9,0.1,6.3,1.3,6.3,5.9v27c0,1,0.7,1.7,1.7,1.7h3.6c1,0,1.7-0.7,1.7-1.7V40.7
		C242.3,33,238.4,29.6,229.2,29.6z"/>
	<path class="st0" d="M52.2,43.2c-0.1-0.2-0.3-0.3-0.5-0.5C45,35.2,31.2,26.2,15.5,26.2c-5,0-7.5,13.5-7.2,26.2c0,0,0,0,0,0
		c0.3,11.1,2.7,21.8,7.6,21.8c18.8,0,40.1-17.7,40.1-24C56,48.6,54.4,45.6,52.2,43.2C52.2,43.2,52.2,43.2,52.2,43.2z"/>
</g>
</svg>
