<svg enable-background="new 0 0 336.9 90.4" viewBox="0 0 336.9 90.4" xmlns="http://www.w3.org/2000/svg"><g fill="#fff"><path d="m103.3 64.2h-22.1l22.9-26.6c.5-.6.7-1.1.7-1.8v-3.6c0-1-.7-1.7-1.7-1.7h-29c-1 0-1.7.7-1.7 1.7v2.5c0 1 .7 1.7 1.7 1.7h22.4l-22.8 26.5c-.5.7-.8 1-.8 1.9v3.5c0 1 .7 1.7 1.7 1.7h28.7c1 0 1.7-.7 1.7-1.7v-2.5c0-.9-.8-1.6-1.7-1.6z"/><path d="m139.5 31.6c-2.4-1.3-6-2-10.9-2-6.8 0-13.1 1.4-15.4 2.3-.5.2-1.1.6-1.1 1.4v.2l.7 3.4v.1c.2.7.8 1 1.3 1 .2 0 .3 0 .4-.1l1.1-.3c2.9-.7 7.4-1.9 12.4-1.9 3 0 5 .3 6.4.8 2.2.8 2.2 2.3 2.2 4.6v3.5c-.3 0-.7 0-1.3 0-2.4 0-7.2.1-11.9.9-7.2 1.1-13.1 2.8-13.1 12.7 0 12.6 11.7 12.6 17.3 12.6 3.8 0 7.3-.6 9.6-1 5.2-1.2 6.6-2.9 6.5-8.1v-20.8c-.1-3.2 0-7.1-4.2-9.3zm-2.8 32.3c-2.8.9-5.8 1.4-9.1 1.4v.3-.3c-5.2 0-10.2-.6-10.2-7.2 0-5.2 2.8-5.9 6.4-6.6l.2-.1c3.1-.7 11-.8 12.7-.8z"/><path d="m163.6 65.9c-.1-.7-.6-1-1-1h-.1s-.5 0-1 0c-1.5 0-2.7-.3-2.7-2.4v-44.8c0-.7-.5-1.5-1.3-1.5h-.3l-4 1c-.7.1-1.4.6-1.4 1.5v44c0 5.2 2.8 8.1 7.9 8.1 2.1 0 3.6-.4 4.2-1.1.2-.2.3-.5.3-.8s0-.3-.6-3z"/><path d="m197.9 31.6c-2.4-1.3-6-2-10.9-2-6.8 0-13.1 1.4-15.4 2.3-.5.2-1.1.6-1.1 1.4v.2l.7 3.4v.1c.2.7.8 1 1.3 1 .2 0 .3 0 .4-.1l1.1-.3c2.9-.7 7.4-1.9 12.4-1.9 3 0 5 .3 6.4.8 2.2.8 2.2 2.3 2.2 4.6v3.5c-.3 0-.7 0-1.3 0-2.4 0-7.2.1-11.9.9-7.2 1.1-13.1 2.8-13.1 12.7 0 12.6 11.7 12.6 17.3 12.6 3.8 0 7.3-.6 9.6-1 5.2-1.2 6.6-2.9 6.5-8.1v-20.8c-.1-3.2-.1-7.1-4.2-9.3zm-2.9 32.3c-2.8.9-5.8 1.4-9.1 1.4v.3-.3c-5.2 0-10.2-.6-10.2-7.2 0-5.2 2.8-5.9 6.4-6.6l.2-.1c3.1-.7 11-.8 12.7-.8z"/><path d="m307.6 29.6c-16.2 0-17.6 10.7-17.6 20.7s1.4 20.6 17.6 20.6c16.2 0 17.6-10.6 17.6-20.6 0-10.4-1.3-20.6-17.6-20.7zm0 35.5c-9.9 0-10.3-5.1-10.4-14.8.1-9.7.6-14.8 10.4-14.9 9.9 0 10.4 5.1 10.4 14.9 0 9.7-.5 14.8-10.4 14.8z"/><path d="m283.5 17.7c0-.7-.3-1.5-1.2-1.5h-.3l-4 1c-1.3.2-1.5.9-1.5 1.5v12.1c-2.2-.5-5.3-1.1-9.8-1.1-12.8 0-17.5 5.6-17.6 20.6 0 13.1 3 20.7 18 20.7 5.5 0 8.6-.8 10.8-1.4l.4-.1c4.8-1 5.1-3.5 5.1-6.3v-45.5zm-6.9 46.3c-1.3.4-4.9 1.2-9.2 1.2v.3-.3c-6.8-.1-11-.8-11.1-14.9.1-12.8 3.3-14.9 11-14.9 4.2 0 7.9.8 9.2 1.2z"/><path d="m229.2 29.6c-4.8 0-12.1 1.1-15.9 2.4-4 1.3-4.2 3.2-4.2 6v30.2c0 1 .7 1.7 1.7 1.7h3.6c.9 0 1.6-.7 1.6-1.7v-31c1.9-.5 7.5-1.9 13-1.9 4.9.1 6.3 1.3 6.3 5.9v27c0 1 .7 1.7 1.7 1.7h3.6c1 0 1.7-.7 1.7-1.7v-27.5c0-7.7-3.9-11.1-13.1-11.1z"/><path d="m52.2 43.2c-.1-.2-.3-.3-.5-.5-6.7-7.5-20.5-16.5-36.2-16.5-5 0-7.5 13.5-7.2 26.2.3 11.1 2.7 21.8 7.6 21.8 18.8 0 40.1-17.7 40.1-24 0-1.6-1.6-4.6-3.8-7z"/></g></svg>